<svg xmlns="http://www.w3.org/2000/svg" viewBox="0 0 400 300" width="400" height="300" role="img" aria-label="cs decorative background">
  <defs>
    <radialGradient id="grad-cs-medium-06" cx="50%" cy="35%" r="80%">
      <stop offset="0%" stop-color="#3ddc84" stop-opacity="0.10"/>
      <stop offset="100%" stop-color="#06120b" stop-opacity="0"/>
    </radialGradient>
  </defs>
  <rect width="400" height="300" fill="#06120b"/>
  <rect width="400" height="300" fill="url(#grad-cs-medium-06)"/>
  <path d="M150,225 L225,225 L300,225 L225,225" fill="none" stroke="#3ddc84" stroke-width="1.2" opacity="0.3"/>
  <circle cx="225" cy="225" r="2.6" fill="#a6f4c5" opacity="0.55"/>
  <path d="M75,0 L75,0 L75,225 L75,300 L75,300" fill="none" stroke="#3ddc84" stroke-width="1.2" opacity="0.3"/>
  <circle cx="75" cy="300" r="2.6" fill="#a6f4c5" opacity="0.55"/>
  <path d="M150,0 L225,0 L300,0" fill="none" stroke="#3ddc84" stroke-width="1.2" opacity="0.3"/>
  <circle cx="300" cy="0" r="2.6" fill="#a6f4c5" opacity="0.55"/>
  <path d="M150,225 L225,225 L225,150 L300,150" fill="none" stroke="#3ddc84" stroke-width="1.2" opacity="0.3"/>
  <circle cx="300" cy="150" r="2.6" fill="#a6f4c5" opacity="0.55"/>
  <path d="M300,300 L400,300 L400,300 L400,75 L400,225" fill="none" stroke="#3ddc84" stroke-width="1.2" opacity="0.3"/>
  <circle cx="400" cy="225" r="2.6" fill="#a6f4c5" opacity="0.55"/>
  <path d="M75,75 L75,150 L225,150" fill="none" stroke="#3ddc84" stroke-width="1.2" opacity="0.3"/>
  <circle cx="225" cy="150" r="2.6" fill="#a6f4c5" opacity="0.55"/>
  <path d="M75,150 L75,300 L75,225 L0,225 L0,0" fill="none" stroke="#3ddc84" stroke-width="1.2" opacity="0.3"/>
  <circle cx="0" cy="0" r="2.6" fill="#a6f4c5" opacity="0.55"/>
  <path d="M225,0 L225,0 L225,225" fill="none" stroke="#3ddc84" stroke-width="1.2" opacity="0.3"/>
  <circle cx="225" cy="225" r="2.6" fill="#a6f4c5" opacity="0.55"/>
</svg>
