<svg xmlns="http://www.w3.org/2000/svg" viewBox="0 0 400 300" width="400" height="300" role="img" aria-label="cs decorative background">
  <defs>
    <radialGradient id="grad-cs-medium-04" cx="50%" cy="35%" r="80%">
      <stop offset="0%" stop-color="#3ddc84" stop-opacity="0.10"/>
      <stop offset="100%" stop-color="#06120b" stop-opacity="0"/>
    </radialGradient>
  </defs>
  <rect width="400" height="300" fill="#06120b"/>
  <rect width="400" height="300" fill="url(#grad-cs-medium-04)"/>
  <line x1="0" y1="60" x2="400" y2="60" stroke="#a6f4c5" stroke-width="0.8" stroke-dasharray="2 8" opacity="0.25"/>
  <path d="M35.12,56 L45.12,60 L35.12,64 Z" fill="#3ddc84" opacity="0.5"/>
  <path d="M72.86,56 L82.86,60 L72.86,64 Z" fill="#3ddc84" opacity="0.5"/>
  <path d="M209.05,56 L219.05,60 L209.05,64 Z" fill="#3ddc84" opacity="0.5"/>
  <line x1="0" y1="120" x2="400" y2="120" stroke="#a6f4c5" stroke-width="0.8" stroke-dasharray="2 8" opacity="0.25"/>
  <path d="M251.76,116 L261.76,120 L251.76,124 Z" fill="#3ddc84" opacity="0.5"/>
  <path d="M67.53,116 L77.53,120 L67.53,124 Z" fill="#3ddc84" opacity="0.5"/>
  <line x1="0" y1="180" x2="400" y2="180" stroke="#a6f4c5" stroke-width="0.8" stroke-dasharray="2 8" opacity="0.25"/>
  <path d="M209.59,176 L219.59,180 L209.59,184 Z" fill="#3ddc84" opacity="0.5"/>
  <path d="M65.06,176 L75.06,180 L65.06,184 Z" fill="#3ddc84" opacity="0.5"/>
  <path d="M85.58,176 L95.58,180 L85.58,184 Z" fill="#3ddc84" opacity="0.5"/>
  <line x1="0" y1="240" x2="400" y2="240" stroke="#a6f4c5" stroke-width="0.8" stroke-dasharray="2 8" opacity="0.25"/>
  <path d="M159.53,236 L169.53,240 L159.53,244 Z" fill="#3ddc84" opacity="0.5"/>
  <path d="M307,236 L317,240 L307,244 Z" fill="#3ddc84" opacity="0.5"/>
  <path d="M150,150 L150,0 L225,0 L300,0 L375,0" fill="none" stroke="#3ddc84" stroke-width="1.2" opacity="0.3"/>
  <circle cx="375" cy="0" r="2.6" fill="#a6f4c5" opacity="0.55"/>
  <path d="M150,0 L0,0 L0,0 L0,0 L0,0" fill="none" stroke="#3ddc84" stroke-width="1.2" opacity="0.3"/>
  <circle cx="0" cy="0" r="2.6" fill="#a6f4c5" opacity="0.55"/>
  <path d="M0,225 L0,300 L0,150 L0,150 L0,150" fill="none" stroke="#3ddc84" stroke-width="1.2" opacity="0.3"/>
  <circle cx="0" cy="150" r="2.6" fill="#a6f4c5" opacity="0.55"/>
  <path d="M150,225 L150,75 L150,0" fill="none" stroke="#3ddc84" stroke-width="1.2" opacity="0.3"/>
  <circle cx="150" cy="0" r="2.6" fill="#a6f4c5" opacity="0.55"/>
  <path d="M375,225 L375,300 L375,300 L300,300" fill="none" stroke="#3ddc84" stroke-width="1.2" opacity="0.3"/>
  <circle cx="300" cy="300" r="2.6" fill="#a6f4c5" opacity="0.55"/>
  <path d="M150,75 L150,225 L150,300 L0,300 L0,300" fill="none" stroke="#3ddc84" stroke-width="1.2" opacity="0.3"/>
  <circle cx="0" cy="300" r="2.6" fill="#a6f4c5" opacity="0.55"/>
  <path d="M0,300 L0,300 L0,300" fill="none" stroke="#3ddc84" stroke-width="1.2" opacity="0.3"/>
  <circle cx="0" cy="300" r="2.6" fill="#a6f4c5" opacity="0.55"/>
  <path d="M225,150 L225,300 L75,300 L0,300 L0,300" fill="none" stroke="#3ddc84" stroke-width="1.2" opacity="0.3"/>
  <circle cx="0" cy="300" r="2.6" fill="#a6f4c5" opacity="0.55"/>
</svg>
