<svg xmlns="http://www.w3.org/2000/svg" viewBox="0 0 160 160" width="160" height="160" role="img" aria-label="biology decorative background">
  <defs>
    <radialGradient id="grad-biology-small-09" cx="50%" cy="35%" r="80%">
      <stop offset="0%" stop-color="#56c26a" stop-opacity="0.10"/>
      <stop offset="100%" stop-color="#071508" stop-opacity="0"/>
    </radialGradient>
  </defs>
  <rect width="160" height="160" fill="#071508"/>
  <rect width="160" height="160" fill="url(#grad-biology-small-09)"/>
  <path d="M148.37,90.81 C148.31,95.98 143.03,104.19 137.64,107.07 C132.25,109.95 121.43,110.81 116.02,108.1 C110.61,105.39 105.17,96.35 105.19,90.81 C105.22,85.27 110.71,77.34 116.18,74.88 C121.65,72.42 132.64,73.38 138.01,76.04 C143.37,78.69 148.43,85.64 148.37,90.81 Z" fill="#a3d977" opacity="0.1"/>
  <path d="M148.37,90.81 C148.31,95.98 143.03,104.19 137.64,107.07 C132.25,109.95 121.43,110.81 116.02,108.1 C110.61,105.39 105.17,96.35 105.19,90.81 C105.22,85.27 110.71,77.34 116.18,74.88 C121.65,72.42 132.64,73.38 138.01,76.04 C143.37,78.69 148.43,85.64 148.37,90.81 Z" fill="none" stroke="#56c26a" stroke-width="1" opacity="0.3"/>
  <circle cx="127.33" cy="90.81" r="5.56" fill="#2f9e6b" opacity="0.4"/>
  <path d="M151.57,42.63 C151.52,46.39 153.05,50.6 150.73,53.67 C148.41,56.73 141.78,60.06 137.63,61.04 C133.48,62.02 129.66,61.44 125.85,59.57 C122.03,57.7 116.84,53.94 114.73,49.83 C112.61,45.73 111.44,39.21 113.15,34.95 C114.87,30.69 120.88,26.18 125.02,24.27 C129.15,22.35 133.64,22.32 137.98,23.45 C142.32,24.58 148.77,27.87 151.04,31.07 C153.3,34.26 151.62,38.86 151.57,42.63 Z" fill="#a3d977" opacity="0.1"/>
  <path d="M151.57,42.63 C151.52,46.39 153.05,50.6 150.73,53.67 C148.41,56.73 141.78,60.06 137.63,61.04 C133.48,62.02 129.66,61.44 125.85,59.57 C122.03,57.7 116.84,53.94 114.73,49.83 C112.61,45.73 111.44,39.21 113.15,34.95 C114.87,30.69 120.88,26.18 125.02,24.27 C129.15,22.35 133.64,22.32 137.98,23.45 C142.32,24.58 148.77,27.87 151.04,31.07 C153.3,34.26 151.62,38.86 151.57,42.63 Z" fill="none" stroke="#56c26a" stroke-width="1" opacity="0.3"/>
  <circle cx="134.24" cy="42.63" r="5.51" fill="#2f9e6b" opacity="0.4"/>
  <path d="M82.78,133.84 C82.46,138.14 82.24,145.16 79.63,148.1 C77.02,151.04 71.31,151.23 67.14,151.5 C62.98,151.76 58.21,151.42 54.62,149.66 C51.03,147.91 47.55,144.75 45.61,140.96 C43.67,137.16 41.81,131.14 42.99,126.92 C44.16,122.71 48.54,117.9 52.66,115.66 C56.79,113.43 62.91,112.4 67.72,113.51 C72.54,114.62 79.04,118.94 81.55,122.33 C84.06,125.72 83.1,129.55 82.78,133.84 Z" fill="#a3d977" opacity="0.1"/>
  <path d="M82.78,133.84 C82.46,138.14 82.24,145.16 79.63,148.1 C77.02,151.04 71.31,151.23 67.14,151.5 C62.98,151.76 58.21,151.42 54.62,149.66 C51.03,147.91 47.55,144.75 45.61,140.96 C43.67,137.16 41.81,131.14 42.99,126.92 C44.16,122.71 48.54,117.9 52.66,115.66 C56.79,113.43 62.91,112.4 67.72,113.51 C72.54,114.62 79.04,118.94 81.55,122.33 C84.06,125.72 83.1,129.55 82.78,133.84 Z" fill="none" stroke="#56c26a" stroke-width="1" opacity="0.3"/>
  <circle cx="63.55" cy="133.84" r="5.85" fill="#2f9e6b" opacity="0.4"/>
  <path d="M33.56,56.04 C33.5,58.96 29.98,63.29 26.97,64.97 C23.96,66.65 18.41,67.61 15.51,66.12 C12.61,64.64 9.73,59.63 9.57,56.04 C9.41,52.46 11.59,46.04 14.55,44.61 C17.52,43.17 24.19,45.53 27.36,47.44 C30.53,49.35 33.63,53.12 33.56,56.04 Z" fill="#a3d977" opacity="0.1"/>
  <path d="M33.56,56.04 C33.5,58.96 29.98,63.29 26.97,64.97 C23.96,66.65 18.41,67.61 15.51,66.12 C12.61,64.64 9.73,59.63 9.57,56.04 C9.41,52.46 11.59,46.04 14.55,44.61 C17.52,43.17 24.19,45.53 27.36,47.44 C30.53,49.35 33.63,53.12 33.56,56.04 Z" fill="none" stroke="#56c26a" stroke-width="1" opacity="0.3"/>
  <circle cx="20.96" cy="56.04" r="3.26" fill="#2f9e6b" opacity="0.4"/>
  <path d="M36.66,115.66 C37.12,119.55 34.77,124.74 31.42,127.43 C28.06,130.12 21.12,131.23 16.53,131.82 C11.93,132.4 6.98,133.65 3.83,130.95 C0.68,128.26 -2.23,120.21 -2.36,115.66 C-2.49,111.1 -0.11,107.22 3.04,103.61 C6.19,99.99 12.25,93.88 16.53,93.97 C20.8,94.05 25.34,100.48 28.7,104.09 C32.05,107.71 36.21,111.77 36.66,115.66 Z" fill="#a3d977" opacity="0.1"/>
  <path d="M36.66,115.66 C37.12,119.55 34.77,124.74 31.42,127.43 C28.06,130.12 21.12,131.23 16.53,131.82 C11.93,132.4 6.98,133.65 3.83,130.95 C0.68,128.26 -2.23,120.21 -2.36,115.66 C-2.49,111.1 -0.11,107.22 3.04,103.61 C6.19,99.99 12.25,93.88 16.53,93.97 C20.8,94.05 25.34,100.48 28.7,104.09 C32.05,107.71 36.21,111.77 36.66,115.66 Z" fill="none" stroke="#56c26a" stroke-width="1" opacity="0.3"/>
  <circle cx="16.53" cy="115.66" r="5.31" fill="#2f9e6b" opacity="0.4"/>
  <path d="M53.44,72.18 C52.97,75.21 51.03,79.16 49.35,81.05 C47.66,82.95 45.87,83.04 43.34,83.55 C40.81,84.07 36.82,85.4 34.18,84.14 C31.55,82.88 28.63,78.7 27.54,75.99 C26.45,73.28 26.58,70.45 27.63,67.87 C28.69,65.29 31.26,61.77 33.86,60.5 C36.45,59.23 40.16,59.86 43.21,60.26 C46.25,60.65 50.43,60.88 52.13,62.87 C53.84,64.86 53.9,69.15 53.44,72.18 Z" fill="#a3d977" opacity="0.1"/>
  <path d="M53.44,72.18 C52.97,75.21 51.03,79.16 49.35,81.05 C47.66,82.95 45.87,83.04 43.34,83.55 C40.81,84.07 36.82,85.4 34.18,84.14 C31.55,82.88 28.63,78.7 27.54,75.99 C26.45,73.28 26.58,70.45 27.63,67.87 C28.69,65.29 31.26,61.77 33.86,60.5 C36.45,59.23 40.16,59.86 43.21,60.26 C46.25,60.65 50.43,60.88 52.13,62.87 C53.84,64.86 53.9,69.15 53.44,72.18 Z" fill="none" stroke="#56c26a" stroke-width="1" opacity="0.3"/>
  <circle cx="40.8" cy="72.18" r="3.66" fill="#2f9e6b" opacity="0.4"/>
  <path d="M111.79,16.14 C111.85,20.92 108.86,27.96 104.93,30.98 C101,33.99 93.09,35.27 88.22,34.24 C83.34,33.21 77.47,29.03 75.67,24.79 C73.87,20.54 75.26,13.15 77.43,8.75 C79.6,4.36 84.17,-0.52 88.7,-1.6 C93.23,-2.68 100.76,-0.69 104.61,2.27 C108.46,5.23 111.74,11.36 111.79,16.14 Z" fill="#a3d977" opacity="0.1"/>
  <path d="M111.79,16.14 C111.85,20.92 108.86,27.96 104.93,30.98 C101,33.99 93.09,35.27 88.22,34.24 C83.34,33.21 77.47,29.03 75.67,24.79 C73.87,20.54 75.26,13.15 77.43,8.75 C79.6,4.36 84.17,-0.52 88.7,-1.6 C93.23,-2.68 100.76,-0.69 104.61,2.27 C108.46,5.23 111.74,11.36 111.79,16.14 Z" fill="none" stroke="#56c26a" stroke-width="1" opacity="0.3"/>
  <circle cx="92.19" cy="16.14" r="4.98" fill="#2f9e6b" opacity="0.4"/>
  <line x1="36.81" y1="160" x2="30.73" y2="125.33" stroke="#56c26a" stroke-width="2" opacity="0.39"/>
  <line x1="30.73" y1="125.33" x2="18.94" y2="102.89" stroke="#56c26a" stroke-width="1.5" opacity="0.33"/>
  <line x1="18.94" y1="102.89" x2="2.16" y2="95.73" stroke="#56c26a" stroke-width="1" opacity="0.27"/>
  <line x1="2.16" y1="95.73" x2="-10.97" y2="96.05" stroke="#56c26a" stroke-width="0.5" opacity="0.21"/>
  <circle cx="-10.97" cy="96.05" r="3.01" fill="#2f9e6b" opacity="0.5"/>
  <line x1="2.16" y1="95.73" x2="-7.28" y2="86.59" stroke="#56c26a" stroke-width="0.5" opacity="0.21"/>
  <circle cx="-7.28" cy="86.59" r="3.5" fill="#2f9e6b" opacity="0.5"/>
  <line x1="18.94" y1="102.89" x2="20.65" y2="84.72" stroke="#56c26a" stroke-width="1" opacity="0.27"/>
  <line x1="20.65" y1="84.72" x2="16.28" y2="72.33" stroke="#56c26a" stroke-width="0.5" opacity="0.21"/>
  <circle cx="16.28" cy="72.33" r="2.62" fill="#2f9e6b" opacity="0.5"/>
  <line x1="20.65" y1="84.72" x2="28.62" y2="74.28" stroke="#56c26a" stroke-width="0.5" opacity="0.21"/>
  <circle cx="28.62" cy="74.28" r="2.04" fill="#2f9e6b" opacity="0.5"/>
  <line x1="30.73" y1="125.33" x2="33.98" y2="100.19" stroke="#56c26a" stroke-width="1.5" opacity="0.33"/>
  <line x1="33.98" y1="100.19" x2="25.29" y2="84.15" stroke="#56c26a" stroke-width="1" opacity="0.27"/>
  <line x1="25.29" y1="84.15" x2="14.43" y2="76.76" stroke="#56c26a" stroke-width="0.5" opacity="0.21"/>
  <line x1="25.29" y1="84.15" x2="26.91" y2="71.11" stroke="#56c26a" stroke-width="0.5" opacity="0.21"/>
  <line x1="33.98" y1="100.19" x2="43.19" y2="84.44" stroke="#56c26a" stroke-width="1" opacity="0.27"/>
  <line x1="43.19" y1="84.44" x2="43.53" y2="71.31" stroke="#56c26a" stroke-width="0.5" opacity="0.21"/>
  <line x1="43.19" y1="84.44" x2="54.84" y2="78.36" stroke="#56c26a" stroke-width="0.5" opacity="0.21"/>
  <circle cx="54.84" cy="78.36" r="3.02" fill="#2f9e6b" opacity="0.5"/>
</svg>
