<svg xmlns="http://www.w3.org/2000/svg" viewBox="0 0 160 160" width="160" height="160" role="img" aria-label="biology decorative background">
  <defs>
    <radialGradient id="grad-biology-small-03" cx="50%" cy="35%" r="80%">
      <stop offset="0%" stop-color="#56c26a" stop-opacity="0.10"/>
      <stop offset="100%" stop-color="#071508" stop-opacity="0"/>
    </radialGradient>
  </defs>
  <rect width="160" height="160" fill="#071508"/>
  <rect width="160" height="160" fill="url(#grad-biology-small-03)"/>
  <path d="M139.57,72.97 C139.49,78.99 132.61,86.54 127.82,90.45 C123.02,94.36 116.29,95.91 110.79,96.43 C105.29,96.94 98.74,97.46 94.81,93.55 C90.88,89.64 88,79.15 87.2,72.97 C86.4,66.79 86.08,60.5 90.01,56.46 C93.94,52.42 104.41,49.1 110.79,48.75 C117.17,48.39 123.52,50.29 128.31,54.32 C133.11,58.36 139.65,66.95 139.57,72.97 Z" fill="#a3d977" opacity="0.1"/>
  <path d="M139.57,72.97 C139.49,78.99 132.61,86.54 127.82,90.45 C123.02,94.36 116.29,95.91 110.79,96.43 C105.29,96.94 98.74,97.46 94.81,93.55 C90.88,89.64 88,79.15 87.2,72.97 C86.4,66.79 86.08,60.5 90.01,56.46 C93.94,52.42 104.41,49.1 110.79,48.75 C117.17,48.39 123.52,50.29 128.31,54.32 C133.11,58.36 139.65,66.95 139.57,72.97 Z" fill="none" stroke="#56c26a" stroke-width="1" opacity="0.3"/>
  <circle cx="110.79" cy="72.97" r="7.16" fill="#2f9e6b" opacity="0.4"/>
  <path d="M68.57,54.92 C68.79,59.75 66.53,66.31 62.47,69.05 C58.4,71.8 48.32,73.75 44.18,71.39 C40.04,69.04 37.81,60.56 37.62,54.92 C37.42,49.27 39.1,39.99 43.02,37.52 C46.95,35.05 56.93,37.19 61.18,40.09 C65.44,42.99 68.36,50.09 68.57,54.92 Z" fill="#a3d977" opacity="0.1"/>
  <path d="M68.57,54.92 C68.79,59.75 66.53,66.31 62.47,69.05 C58.4,71.8 48.32,73.75 44.18,71.39 C40.04,69.04 37.81,60.56 37.62,54.92 C37.42,49.27 39.1,39.99 43.02,37.52 C46.95,35.05 56.93,37.19 61.18,40.09 C65.44,42.99 68.36,50.09 68.57,54.92 Z" fill="none" stroke="#56c26a" stroke-width="1" opacity="0.3"/>
  <circle cx="52.91" cy="54.92" r="5" fill="#2f9e6b" opacity="0.4"/>
  <path d="M74.99,61.96 C74.99,65.07 70.34,69.05 67.89,71.44 C65.44,73.83 63.46,75.73 60.31,76.31 C57.16,76.88 51.97,76.34 48.99,74.89 C46.02,73.44 43.72,70.82 42.46,67.63 C41.21,64.43 40.28,58.65 41.45,55.72 C42.62,52.79 46.42,51.44 49.5,50.07 C52.57,48.7 56.84,47.06 59.91,47.52 C62.97,47.97 65.38,50.38 67.9,52.79 C70.41,55.2 74.99,58.85 74.99,61.96 Z" fill="#a3d977" opacity="0.1"/>
  <path d="M74.99,61.96 C74.99,65.07 70.34,69.05 67.89,71.44 C65.44,73.83 63.46,75.73 60.31,76.31 C57.16,76.88 51.97,76.34 48.99,74.89 C46.02,73.44 43.72,70.82 42.46,67.63 C41.21,64.43 40.28,58.65 41.45,55.72 C42.62,52.79 46.42,51.44 49.5,50.07 C52.57,48.7 56.84,47.06 59.91,47.52 C62.97,47.97 65.38,50.38 67.9,52.79 C70.41,55.2 74.99,58.85 74.99,61.96 Z" fill="none" stroke="#56c26a" stroke-width="1" opacity="0.3"/>
  <circle cx="57.37" cy="61.96" r="4.45" fill="#2f9e6b" opacity="0.4"/>
  <path d="M141.32,55.49 C141.23,62.87 132.69,73 126.92,77.87 C121.15,82.74 113.41,86.62 106.68,84.71 C99.95,82.79 89.19,73.39 86.53,66.37 C83.88,59.35 87.42,48.83 90.76,42.58 C94.1,36.34 100.46,30.41 106.57,28.91 C112.69,27.41 121.66,29.16 127.46,33.59 C133.25,38.02 141.41,48.11 141.32,55.49 Z" fill="#a3d977" opacity="0.1"/>
  <path d="M141.32,55.49 C141.23,62.87 132.69,73 126.92,77.87 C121.15,82.74 113.41,86.62 106.68,84.71 C99.95,82.79 89.19,73.39 86.53,66.37 C83.88,59.35 87.42,48.83 90.76,42.58 C94.1,36.34 100.46,30.41 106.57,28.91 C112.69,27.41 121.66,29.16 127.46,33.59 C133.25,38.02 141.41,48.11 141.32,55.49 Z" fill="none" stroke="#56c26a" stroke-width="1" opacity="0.3"/>
  <circle cx="112.86" cy="55.49" r="7.34" fill="#2f9e6b" opacity="0.4"/>
  <path d="M158.9,66.32 C159.2,70.2 158.4,75.54 156.14,78.82 C153.87,82.1 149.25,85.42 145.29,85.98 C141.33,86.55 135.86,84.45 132.39,82.22 C128.93,80 126.1,76.38 124.51,72.65 C122.91,68.92 121.47,63.45 122.82,59.83 C124.17,56.22 128.9,53.32 132.59,50.98 C136.29,48.63 141.37,44.99 144.99,45.75 C148.62,46.52 152.02,52.12 154.33,55.54 C156.65,58.97 158.6,62.44 158.9,66.32 Z" fill="#a3d977" opacity="0.1"/>
  <path d="M158.9,66.32 C159.2,70.2 158.4,75.54 156.14,78.82 C153.87,82.1 149.25,85.42 145.29,85.98 C141.33,86.55 135.86,84.45 132.39,82.22 C128.93,80 126.1,76.38 124.51,72.65 C122.91,68.92 121.47,63.45 122.82,59.83 C124.17,56.22 128.9,53.32 132.59,50.98 C136.29,48.63 141.37,44.99 144.99,45.75 C148.62,46.52 152.02,52.12 154.33,55.54 C156.65,58.97 158.6,62.44 158.9,66.32 Z" fill="none" stroke="#56c26a" stroke-width="1" opacity="0.3"/>
  <circle cx="141.94" cy="66.32" r="5.1" fill="#2f9e6b" opacity="0.4"/>
  <path d="M29.69,42 C30.11,45.65 30.26,50.04 27.98,52.59 C25.7,55.14 19.66,56.96 16.03,57.3 C12.39,57.63 8.99,57.14 6.16,54.59 C3.33,52.04 -0.53,46.16 -0.96,42 C-1.38,37.83 0.76,32.13 3.59,29.6 C6.42,27.06 12.39,26.6 16.03,26.78 C19.67,26.97 23.16,28.16 25.44,30.7 C27.72,33.23 29.27,38.35 29.69,42 Z" fill="#a3d977" opacity="0.1"/>
  <path d="M29.69,42 C30.11,45.65 30.26,50.04 27.98,52.59 C25.7,55.14 19.66,56.96 16.03,57.3 C12.39,57.63 8.99,57.14 6.16,54.59 C3.33,52.04 -0.53,46.16 -0.96,42 C-1.38,37.83 0.76,32.13 3.59,29.6 C6.42,27.06 12.39,26.6 16.03,26.78 C19.67,26.97 23.16,28.16 25.44,30.7 C27.72,33.23 29.27,38.35 29.69,42 Z" fill="none" stroke="#56c26a" stroke-width="1" opacity="0.3"/>
  <circle cx="16.03" cy="42" r="4.34" fill="#2f9e6b" opacity="0.4"/>
  <path d="M142.46,80.33 C142.58,87.43 139.84,98.47 134.27,102.04 C128.71,105.61 115.93,105.37 109.05,101.75 C102.17,98.13 93.39,87.1 93,80.33 C92.6,73.55 99.93,64.6 106.69,61.12 C113.45,57.63 127.59,56.21 133.55,59.41 C139.52,62.61 142.34,73.22 142.46,80.33 Z" fill="#a3d977" opacity="0.1"/>
  <path d="M142.46,80.33 C142.58,87.43 139.84,98.47 134.27,102.04 C128.71,105.61 115.93,105.37 109.05,101.75 C102.17,98.13 93.39,87.1 93,80.33 C92.6,73.55 99.93,64.6 106.69,61.12 C113.45,57.63 127.59,56.21 133.55,59.41 C139.52,62.61 142.34,73.22 142.46,80.33 Z" fill="none" stroke="#56c26a" stroke-width="1" opacity="0.3"/>
  <circle cx="120.38" cy="80.33" r="6.98" fill="#2f9e6b" opacity="0.4"/>
  <path d="M11.46,67.16 C49.22,74.48 156.61,16.85 146.33,98.62" fill="none" stroke="#2f9e6b" stroke-width="1.43" opacity="0.37"/>
  <path d="M8.78,74.25 C65.76,145.28 63.14,117.4 120.54,103.77" fill="none" stroke="#56c26a" stroke-width="2.25" opacity="0.17"/>
  <path d="M5.64,117.04 C104.97,0.5 128.35,39.93 126.36,48.75" fill="none" stroke="#2f9e6b" stroke-width="2.33" opacity="0.21"/>
</svg>
