<svg xmlns="http://www.w3.org/2000/svg" viewBox="0 0 160 160" width="160" height="160" role="img" aria-label="biology decorative background">
  <defs>
    <radialGradient id="grad-biology-small-02" cx="50%" cy="35%" r="80%">
      <stop offset="0%" stop-color="#56c26a" stop-opacity="0.10"/>
      <stop offset="100%" stop-color="#071508" stop-opacity="0"/>
    </radialGradient>
  </defs>
  <rect width="160" height="160" fill="#071508"/>
  <rect width="160" height="160" fill="url(#grad-biology-small-02)"/>
  <path d="M39.86,24.72 C59.01,88.79 83.04,95.58 119.2,14.95" fill="none" stroke="#2f9e6b" stroke-width="2.08" opacity="0.17"/>
  <path d="M42.81,130.23 C121.21,148.56 14.88,82.41 125.98,102.74" fill="none" stroke="#56c26a" stroke-width="1.53" opacity="0.19"/>
  <path d="M22.9,120.13 C150.25,129.41 139.08,38.76 144.8,44.7" fill="none" stroke="#56c26a" stroke-width="2.14" opacity="0.22"/>
  <path d="M94.79,62.59 C94.61,68.98 88.81,77.73 82.9,81.41 C76.98,85.09 65.4,87.81 59.3,84.67 C53.21,81.53 46.5,69.51 46.34,62.59 C46.18,55.68 52.07,46.43 58.35,43.18 C64.62,39.93 77.93,39.84 84.01,43.07 C90.08,46.31 94.98,56.2 94.79,62.59 Z" fill="#a3d977" opacity="0.1"/>
  <path d="M94.79,62.59 C94.61,68.98 88.81,77.73 82.9,81.41 C76.98,85.09 65.4,87.81 59.3,84.67 C53.21,81.53 46.5,69.51 46.34,62.59 C46.18,55.68 52.07,46.43 58.35,43.18 C64.62,39.93 77.93,39.84 84.01,43.07 C90.08,46.31 94.98,56.2 94.79,62.59 Z" fill="none" stroke="#56c26a" stroke-width="1" opacity="0.3"/>
  <circle cx="70.94" cy="62.59" r="6.8" fill="#2f9e6b" opacity="0.4"/>
  <path d="M122.93,134.57 C122.91,138 122.53,141.49 120.07,144.51 C117.6,147.53 111.89,152.61 108.13,152.7 C104.37,152.78 100.42,148.04 97.49,145.02 C94.56,142 90.71,138.4 90.56,134.57 C90.4,130.73 93.64,124.45 96.57,121.99 C99.5,119.54 104.2,119.54 108.13,119.86 C112.06,120.18 117.7,121.44 120.17,123.9 C122.63,126.35 122.94,131.13 122.93,134.57 Z" fill="#a3d977" opacity="0.1"/>
  <path d="M122.93,134.57 C122.91,138 122.53,141.49 120.07,144.51 C117.6,147.53 111.89,152.61 108.13,152.7 C104.37,152.78 100.42,148.04 97.49,145.02 C94.56,142 90.71,138.4 90.56,134.57 C90.4,130.73 93.64,124.45 96.57,121.99 C99.5,119.54 104.2,119.54 108.13,119.86 C112.06,120.18 117.7,121.44 120.17,123.9 C122.63,126.35 122.94,131.13 122.93,134.57 Z" fill="none" stroke="#56c26a" stroke-width="1" opacity="0.3"/>
  <circle cx="108.13" cy="134.57" r="4.62" fill="#2f9e6b" opacity="0.4"/>
  <path d="M87.17,117.89 C86.87,122 87.07,127.16 85.02,129.93 C82.97,132.69 78.58,133.88 74.88,134.49 C71.19,135.09 65.81,135.27 62.85,133.55 C59.89,131.82 58.18,127.69 57.11,124.11 C56.05,120.53 55.27,115.26 56.47,112.09 C57.67,108.92 61.16,107.34 64.3,105.09 C67.44,102.84 71.54,98.55 75.29,98.58 C79.04,98.6 84.85,102.03 86.83,105.25 C88.81,108.47 87.48,113.78 87.17,117.89 Z" fill="#a3d977" opacity="0.1"/>
  <path d="M87.17,117.89 C86.87,122 87.07,127.16 85.02,129.93 C82.97,132.69 78.58,133.88 74.88,134.49 C71.19,135.09 65.81,135.27 62.85,133.55 C59.89,131.82 58.18,127.69 57.11,124.11 C56.05,120.53 55.27,115.26 56.47,112.09 C57.67,108.92 61.16,107.34 64.3,105.09 C67.44,102.84 71.54,98.55 75.29,98.58 C79.04,98.6 84.85,102.03 86.83,105.25 C88.81,108.47 87.48,113.78 87.17,117.89 Z" fill="none" stroke="#56c26a" stroke-width="1" opacity="0.3"/>
  <circle cx="72.03" cy="117.89" r="4.81" fill="#2f9e6b" opacity="0.4"/>
  <path d="M70.87,90.03 C70.91,93 70.9,95.79 69.3,97.83 C67.7,99.86 63.98,101.81 61.25,102.26 C58.52,102.71 55.28,101.67 52.91,100.52 C50.54,99.38 47.92,97.93 47.01,95.4 C46.1,92.86 46.4,88.06 47.44,85.29 C48.48,82.52 50.9,80.49 53.24,78.79 C55.59,77.09 58.86,74.89 61.5,75.1 C64.14,75.3 67.53,77.51 69.09,79.99 C70.65,82.48 70.84,87.05 70.87,90.03 Z" fill="#a3d977" opacity="0.1"/>
  <path d="M70.87,90.03 C70.91,93 70.9,95.79 69.3,97.83 C67.7,99.86 63.98,101.81 61.25,102.26 C58.52,102.71 55.28,101.67 52.91,100.52 C50.54,99.38 47.92,97.93 47.01,95.4 C46.1,92.86 46.4,88.06 47.44,85.29 C48.48,82.52 50.9,80.49 53.24,78.79 C55.59,77.09 58.86,74.89 61.5,75.1 C64.14,75.3 67.53,77.51 69.09,79.99 C70.65,82.48 70.84,87.05 70.87,90.03 Z" fill="none" stroke="#56c26a" stroke-width="1" opacity="0.3"/>
  <circle cx="59.2" cy="90.03" r="3.83" fill="#2f9e6b" opacity="0.4"/>
  <path d="M160.31,125.51 C160.91,131.04 156.42,136.67 152.42,141.26 C148.42,145.85 142.16,152.17 136.31,153.06 C130.46,153.95 121.64,149.89 117.3,146.62 C112.96,143.35 112.44,138.4 110.27,133.45 C108.1,128.5 102.59,121.67 104.31,116.92 C106.02,112.17 115.3,107.59 120.57,104.96 C125.83,102.33 131.16,100.64 135.88,101.16 C140.59,101.68 144.79,104.01 148.87,108.07 C152.94,112.13 159.72,119.97 160.31,125.51 Z" fill="#a3d977" opacity="0.1"/>
  <path d="M160.31,125.51 C160.91,131.04 156.42,136.67 152.42,141.26 C148.42,145.85 142.16,152.17 136.31,153.06 C130.46,153.95 121.64,149.89 117.3,146.62 C112.96,143.35 112.44,138.4 110.27,133.45 C108.1,128.5 102.59,121.67 104.31,116.92 C106.02,112.17 115.3,107.59 120.57,104.96 C125.83,102.33 131.16,100.64 135.88,101.16 C140.59,101.68 144.79,104.01 148.87,108.07 C152.94,112.13 159.72,119.97 160.31,125.51 Z" fill="none" stroke="#56c26a" stroke-width="1" opacity="0.3"/>
  <circle cx="131.57" cy="125.51" r="7.16" fill="#2f9e6b" opacity="0.4"/>
  <path d="M87.34,70.03 C87.33,76.5 80.76,84.12 74.99,87.42 C69.21,90.72 58.04,92.71 52.67,89.81 C47.29,86.91 42.74,76.15 42.73,70.03 C42.73,63.9 47.27,56.64 52.65,53.07 C58.03,49.49 69.24,45.74 75.02,48.57 C80.8,51.4 87.34,63.55 87.34,70.03 Z" fill="#a3d977" opacity="0.1"/>
  <path d="M87.34,70.03 C87.33,76.5 80.76,84.12 74.99,87.42 C69.21,90.72 58.04,92.71 52.67,89.81 C47.29,86.91 42.74,76.15 42.73,70.03 C42.73,63.9 47.27,56.64 52.65,53.07 C58.03,49.49 69.24,45.74 75.02,48.57 C80.8,51.4 87.34,63.55 87.34,70.03 Z" fill="none" stroke="#56c26a" stroke-width="1" opacity="0.3"/>
  <circle cx="63.27" cy="70.03" r="6.18" fill="#2f9e6b" opacity="0.4"/>
  <path d="M65.97,29.36 C65.92,33.51 63.83,38.9 60.78,41.55 C57.74,44.2 52.17,44.98 47.7,45.27 C43.24,45.56 36.96,45.93 34,43.28 C31.04,40.63 30.1,33.87 29.94,29.36 C29.79,24.85 30.12,19.28 33.08,16.24 C36.04,13.2 43.03,11.04 47.7,11.11 C52.37,11.18 58.04,13.63 61.08,16.67 C64.13,19.71 66.02,25.21 65.97,29.36 Z" fill="#a3d977" opacity="0.1"/>
  <path d="M65.97,29.36 C65.92,33.51 63.83,38.9 60.78,41.55 C57.74,44.2 52.17,44.98 47.7,45.27 C43.24,45.56 36.96,45.93 34,43.28 C31.04,40.63 30.1,33.87 29.94,29.36 C29.79,24.85 30.12,19.28 33.08,16.24 C36.04,13.2 43.03,11.04 47.7,11.11 C52.37,11.18 58.04,13.63 61.08,16.67 C64.13,19.71 66.02,25.21 65.97,29.36 Z" fill="none" stroke="#56c26a" stroke-width="1" opacity="0.3"/>
  <circle cx="47.7" cy="29.36" r="5.16" fill="#2f9e6b" opacity="0.4"/>
</svg>
