<svg xmlns="http://www.w3.org/2000/svg" viewBox="0 0 160 160" width="160" height="160" role="img" aria-label="biology decorative background">
  <defs>
    <radialGradient id="grad-biology-small-06" cx="50%" cy="35%" r="80%">
      <stop offset="0%" stop-color="#56c26a" stop-opacity="0.10"/>
      <stop offset="100%" stop-color="#071508" stop-opacity="0"/>
    </radialGradient>
  </defs>
  <rect width="160" height="160" fill="#071508"/>
  <rect width="160" height="160" fill="url(#grad-biology-small-06)"/>
  <path d="M31.42,86.98 C31.49,89.64 29.16,93.25 26.98,95.44 C24.81,97.62 21.15,99.49 18.36,100.09 C15.58,100.69 12.96,100.53 10.29,99.03 C7.63,97.54 3.45,93.76 2.37,91.11 C1.28,88.46 2.41,85.86 3.79,83.13 C5.18,80.41 8.23,76.35 10.68,74.76 C13.12,73.17 15.82,72.79 18.47,73.57 C21.11,74.36 24.4,77.25 26.55,79.48 C28.71,81.71 31.35,84.32 31.42,86.98 Z" fill="#a3d977" opacity="0.1"/>
  <path d="M31.42,86.98 C31.49,89.64 29.16,93.25 26.98,95.44 C24.81,97.62 21.15,99.49 18.36,100.09 C15.58,100.69 12.96,100.53 10.29,99.03 C7.63,97.54 3.45,93.76 2.37,91.11 C1.28,88.46 2.41,85.86 3.79,83.13 C5.18,80.41 8.23,76.35 10.68,74.76 C13.12,73.17 15.82,72.79 18.47,73.57 C21.11,74.36 24.4,77.25 26.55,79.48 C28.71,81.71 31.35,84.32 31.42,86.98 Z" fill="none" stroke="#56c26a" stroke-width="1" opacity="0.3"/>
  <circle cx="16.31" cy="86.98" r="3.69" fill="#2f9e6b" opacity="0.4"/>
  <path d="M118.82,85.12 C118.81,90.83 118.74,98.53 115.91,102.68 C113.08,106.83 107.07,109.93 101.83,110.04 C96.58,110.15 88.54,106.3 84.45,103.33 C80.35,100.36 79.43,96.58 77.26,92.23 C75.09,87.88 70.33,81.66 71.41,77.22 C72.5,72.78 78.8,68.35 83.77,65.59 C88.75,62.83 95.91,60.19 101.26,60.67 C106.62,61.14 112.99,64.34 115.92,68.42 C118.84,72.49 118.82,79.41 118.82,85.12 Z" fill="#a3d977" opacity="0.1"/>
  <path d="M118.82,85.12 C118.81,90.83 118.74,98.53 115.91,102.68 C113.08,106.83 107.07,109.93 101.83,110.04 C96.58,110.15 88.54,106.3 84.45,103.33 C80.35,100.36 79.43,96.58 77.26,92.23 C75.09,87.88 70.33,81.66 71.41,77.22 C72.5,72.78 78.8,68.35 83.77,65.59 C88.75,62.83 95.91,60.19 101.26,60.67 C106.62,61.14 112.99,64.34 115.92,68.42 C118.84,72.49 118.82,79.41 118.82,85.12 Z" fill="none" stroke="#56c26a" stroke-width="1" opacity="0.3"/>
  <circle cx="97.54" cy="85.12" r="6.8" fill="#2f9e6b" opacity="0.4"/>
  <path d="M99.09,116.68 C98.99,122.13 96.17,128.29 92.79,131.68 C89.41,135.07 84,136.45 78.82,137 C73.65,137.55 65.71,138.38 61.75,134.99 C57.8,131.61 54.88,122.7 55.1,116.68 C55.32,110.66 59.12,103.07 63.08,98.88 C67.03,94.7 73.77,91.55 78.82,91.56 C83.88,91.57 90.04,94.75 93.42,98.94 C96.8,103.12 99.19,111.22 99.09,116.68 Z" fill="#a3d977" opacity="0.1"/>
  <path d="M99.09,116.68 C98.99,122.13 96.17,128.29 92.79,131.68 C89.41,135.07 84,136.45 78.82,137 C73.65,137.55 65.71,138.38 61.75,134.99 C57.8,131.61 54.88,122.7 55.1,116.68 C55.32,110.66 59.12,103.07 63.08,98.88 C67.03,94.7 73.77,91.55 78.82,91.56 C83.88,91.57 90.04,94.75 93.42,98.94 C96.8,103.12 99.19,111.22 99.09,116.68 Z" fill="none" stroke="#56c26a" stroke-width="1" opacity="0.3"/>
  <circle cx="78.82" cy="116.68" r="6.38" fill="#2f9e6b" opacity="0.4"/>
  <path d="M87.44,78.82 C87.38,82.6 84.13,88.29 81.12,90.11 C78.11,91.94 72.62,91.64 69.37,89.75 C66.13,87.87 61.78,82.58 61.66,78.82 C61.54,75.05 65.36,69.07 68.66,67.17 C71.95,65.27 78.33,65.47 81.46,67.41 C84.59,69.35 87.5,75.03 87.44,78.82 Z" fill="#a3d977" opacity="0.1"/>
  <path d="M87.44,78.82 C87.38,82.6 84.13,88.29 81.12,90.11 C78.11,91.94 72.62,91.64 69.37,89.75 C66.13,87.87 61.78,82.58 61.66,78.82 C61.54,75.05 65.36,69.07 68.66,67.17 C71.95,65.27 78.33,65.47 81.46,67.41 C84.59,69.35 87.5,75.03 87.44,78.82 Z" fill="none" stroke="#56c26a" stroke-width="1" opacity="0.3"/>
  <circle cx="75.54" cy="78.82" r="3.48" fill="#2f9e6b" opacity="0.4"/>
  <path d="M44.9,63.55 C44.97,68.99 42.03,78.86 37.65,81.83 C33.28,84.81 23.51,84.44 18.64,81.39 C13.77,78.35 8.41,69.03 8.43,63.55 C8.46,58.08 14.02,50.92 18.81,48.53 C23.6,46.14 32.83,46.72 37.18,49.22 C41.53,51.72 44.82,58.12 44.9,63.55 Z" fill="#a3d977" opacity="0.1"/>
  <path d="M44.9,63.55 C44.97,68.99 42.03,78.86 37.65,81.83 C33.28,84.81 23.51,84.44 18.64,81.39 C13.77,78.35 8.41,69.03 8.43,63.55 C8.46,58.08 14.02,50.92 18.81,48.53 C23.6,46.14 32.83,46.72 37.18,49.22 C41.53,51.72 44.82,58.12 44.9,63.55 Z" fill="none" stroke="#56c26a" stroke-width="1" opacity="0.3"/>
  <circle cx="27.58" cy="63.55" r="5.14" fill="#2f9e6b" opacity="0.4"/>
  <path d="M153.25,83.69 C152.96,90.52 150.33,102.42 145.45,106.02 C140.58,109.63 130.3,107.16 123.99,105.32 C117.69,103.48 110.76,100.41 107.61,94.97 C104.46,89.52 102.29,78.61 105.08,72.66 C107.88,66.72 117.36,60.55 124.37,59.28 C131.39,58.02 142.39,60.99 147.2,65.06 C152.01,69.13 153.54,76.87 153.25,83.69 Z" fill="#a3d977" opacity="0.1"/>
  <path d="M153.25,83.69 C152.96,90.52 150.33,102.42 145.45,106.02 C140.58,109.63 130.3,107.16 123.99,105.32 C117.69,103.48 110.76,100.41 107.61,94.97 C104.46,89.52 102.29,78.61 105.08,72.66 C107.88,66.72 117.36,60.55 124.37,59.28 C131.39,58.02 142.39,60.99 147.2,65.06 C152.01,69.13 153.54,76.87 153.25,83.69 Z" fill="none" stroke="#56c26a" stroke-width="1" opacity="0.3"/>
  <circle cx="129.73" cy="83.69" r="7.08" fill="#2f9e6b" opacity="0.4"/>
  <path d="M58.68,23.62 C58.66,27 58.93,31.26 56.67,33.65 C54.41,36.04 49,38.18 45.14,37.99 C41.28,37.79 35.88,34.89 33.49,32.49 C31.1,30.1 30.63,26.74 30.79,23.62 C30.94,20.5 32.03,16.2 34.42,13.78 C36.81,11.36 41.41,9.17 45.14,9.11 C48.87,9.05 54.52,10.99 56.78,13.41 C59.04,15.83 58.7,20.25 58.68,23.62 Z" fill="#a3d977" opacity="0.1"/>
  <path d="M58.68,23.62 C58.66,27 58.93,31.26 56.67,33.65 C54.41,36.04 49,38.18 45.14,37.99 C41.28,37.79 35.88,34.89 33.49,32.49 C31.1,30.1 30.63,26.74 30.79,23.62 C30.94,20.5 32.03,16.2 34.42,13.78 C36.81,11.36 41.41,9.17 45.14,9.11 C48.87,9.05 54.52,10.99 56.78,13.41 C59.04,15.83 58.7,20.25 58.68,23.62 Z" fill="none" stroke="#56c26a" stroke-width="1" opacity="0.3"/>
  <circle cx="45.14" cy="23.62" r="4.02" fill="#2f9e6b" opacity="0.4"/>
</svg>
