<svg xmlns="http://www.w3.org/2000/svg" viewBox="0 0 160 160" width="160" height="160" role="img" aria-label="biology decorative background">
  <defs>
    <radialGradient id="grad-biology-small-07" cx="50%" cy="35%" r="80%">
      <stop offset="0%" stop-color="#56c26a" stop-opacity="0.10"/>
      <stop offset="100%" stop-color="#071508" stop-opacity="0"/>
    </radialGradient>
  </defs>
  <rect width="160" height="160" fill="#071508"/>
  <rect width="160" height="160" fill="url(#grad-biology-small-07)"/>
  <line x1="119.61" y1="160" x2="126.84" y2="125.55" stroke="#56c26a" stroke-width="2" opacity="0.39"/>
  <line x1="126.84" y1="125.55" x2="123.96" y2="100.37" stroke="#56c26a" stroke-width="1.5" opacity="0.33"/>
  <line x1="123.96" y1="100.37" x2="113.67" y2="85.31" stroke="#56c26a" stroke-width="1" opacity="0.27"/>
  <circle cx="113.67" cy="85.31" r="2.64" fill="#2f9e6b" opacity="0.5"/>
  <line x1="113.67" y1="85.31" x2="102.02" y2="79.22" stroke="#56c26a" stroke-width="0.5" opacity="0.21"/>
  <line x1="113.67" y1="85.31" x2="111.09" y2="72.42" stroke="#56c26a" stroke-width="0.5" opacity="0.21"/>
  <circle cx="111.09" cy="72.42" r="2.19" fill="#2f9e6b" opacity="0.5"/>
  <line x1="123.96" y1="100.37" x2="130.59" y2="83.37" stroke="#56c26a" stroke-width="1" opacity="0.27"/>
  <line x1="130.59" y1="83.37" x2="126.53" y2="70.87" stroke="#56c26a" stroke-width="0.5" opacity="0.21"/>
  <line x1="130.59" y1="83.37" x2="139.81" y2="74.01" stroke="#56c26a" stroke-width="0.5" opacity="0.21"/>
  <circle cx="139.81" cy="74.01" r="3.22" fill="#2f9e6b" opacity="0.5"/>
  <line x1="126.84" y1="125.55" x2="146.01" y2="108.97" stroke="#56c26a" stroke-width="1.5" opacity="0.33"/>
  <line x1="146.01" y1="108.97" x2="151.26" y2="91.49" stroke="#56c26a" stroke-width="1" opacity="0.27"/>
  <line x1="151.26" y1="91.49" x2="149.13" y2="78.53" stroke="#56c26a" stroke-width="0.5" opacity="0.21"/>
  <line x1="151.26" y1="91.49" x2="160.74" y2="82.4" stroke="#56c26a" stroke-width="0.5" opacity="0.21"/>
  <line x1="146.01" y1="108.97" x2="163.38" y2="103.37" stroke="#56c26a" stroke-width="1" opacity="0.27"/>
  <line x1="163.38" y1="103.37" x2="172.13" y2="93.58" stroke="#56c26a" stroke-width="0.5" opacity="0.21"/>
  <circle cx="172.13" cy="93.58" r="2.32" fill="#2f9e6b" opacity="0.5"/>
  <line x1="163.38" y1="103.37" x2="176.29" y2="105.82" stroke="#56c26a" stroke-width="0.5" opacity="0.21"/>
</svg>
