<svg xmlns="http://www.w3.org/2000/svg" viewBox="0 0 160 160" width="160" height="160" role="img" aria-label="biology decorative background">
  <defs>
    <radialGradient id="grad-biology-small-04" cx="50%" cy="35%" r="80%">
      <stop offset="0%" stop-color="#56c26a" stop-opacity="0.10"/>
      <stop offset="100%" stop-color="#071508" stop-opacity="0"/>
    </radialGradient>
  </defs>
  <rect width="160" height="160" fill="#071508"/>
  <rect width="160" height="160" fill="url(#grad-biology-small-04)"/>
  <line x1="112.91" y1="160" x2="115.3" y2="124.88" stroke="#56c26a" stroke-width="2" opacity="0.39"/>
  <line x1="115.3" y1="124.88" x2="101.73" y2="103.47" stroke="#56c26a" stroke-width="1.5" opacity="0.33"/>
  <line x1="101.73" y1="103.47" x2="85.08" y2="96.01" stroke="#56c26a" stroke-width="1" opacity="0.27"/>
  <circle cx="85.08" cy="96.01" r="1.55" fill="#2f9e6b" opacity="0.5"/>
  <line x1="85.08" y1="96.01" x2="71.96" y2="95.31" stroke="#56c26a" stroke-width="0.5" opacity="0.21"/>
  <line x1="85.08" y1="96.01" x2="75.66" y2="86.85" stroke="#56c26a" stroke-width="0.5" opacity="0.21"/>
  <circle cx="75.66" cy="86.85" r="1.72" fill="#2f9e6b" opacity="0.5"/>
  <line x1="101.73" y1="103.47" x2="97.41" y2="85.74" stroke="#56c26a" stroke-width="1" opacity="0.27"/>
  <line x1="97.41" y1="85.74" x2="88.88" y2="75.75" stroke="#56c26a" stroke-width="0.5" opacity="0.21"/>
  <circle cx="88.88" cy="75.75" r="1.63" fill="#2f9e6b" opacity="0.5"/>
  <line x1="97.41" y1="85.74" x2="101.36" y2="73.21" stroke="#56c26a" stroke-width="0.5" opacity="0.21"/>
  <line x1="115.3" y1="124.88" x2="124.48" y2="101.26" stroke="#56c26a" stroke-width="1.5" opacity="0.33"/>
  <line x1="124.48" y1="101.26" x2="123.85" y2="83.02" stroke="#56c26a" stroke-width="1" opacity="0.27"/>
  <line x1="123.85" y1="83.02" x2="117.35" y2="71.6" stroke="#56c26a" stroke-width="0.5" opacity="0.21"/>
  <circle cx="117.35" cy="71.6" r="1.79" fill="#2f9e6b" opacity="0.5"/>
  <line x1="123.85" y1="83.02" x2="127.96" y2="70.54" stroke="#56c26a" stroke-width="0.5" opacity="0.21"/>
  <circle cx="127.96" cy="70.54" r="3.11" fill="#2f9e6b" opacity="0.5"/>
  <line x1="124.48" y1="101.26" x2="135.89" y2="87.01" stroke="#56c26a" stroke-width="1" opacity="0.27"/>
  <line x1="135.89" y1="87.01" x2="139.11" y2="74.28" stroke="#56c26a" stroke-width="0.5" opacity="0.21"/>
  <line x1="135.89" y1="87.01" x2="148.06" y2="82.07" stroke="#56c26a" stroke-width="0.5" opacity="0.21"/>
  <circle cx="148.06" cy="82.07" r="2.73" fill="#2f9e6b" opacity="0.5"/>
  <path d="M74.28,55.8 C74.59,59.72 73.81,64.58 71.2,66.95 C68.59,69.33 62.47,70.93 58.62,70.05 C54.76,69.16 49.83,65.06 48.06,61.62 C46.29,58.17 46.17,52.35 47.97,49.38 C49.77,46.4 55.3,44.75 58.87,43.76 C62.44,42.77 66.8,41.43 69.37,43.43 C71.94,45.44 73.98,51.88 74.28,55.8 Z" fill="#a3d977" opacity="0.1"/>
  <path d="M74.28,55.8 C74.59,59.72 73.81,64.58 71.2,66.95 C68.59,69.33 62.47,70.93 58.62,70.05 C54.76,69.16 49.83,65.06 48.06,61.62 C46.29,58.17 46.17,52.35 47.97,49.38 C49.77,46.4 55.3,44.75 58.87,43.76 C62.44,42.77 66.8,41.43 69.37,43.43 C71.94,45.44 73.98,51.88 74.28,55.8 Z" fill="none" stroke="#56c26a" stroke-width="1" opacity="0.3"/>
  <circle cx="61.66" cy="55.8" r="3.86" fill="#2f9e6b" opacity="0.4"/>
  <path d="M35.84,92.63 C36.15,96.93 34.61,103.08 31.52,105.55 C28.44,108.01 21.56,108.32 17.34,107.42 C13.13,106.51 8.33,103.88 6.23,100.13 C4.14,96.38 2.84,88.65 4.76,84.94 C6.67,81.23 13.56,78.74 17.71,77.88 C21.86,77.01 26.65,77.3 29.67,79.76 C32.69,82.22 35.53,88.34 35.84,92.63 Z" fill="#a3d977" opacity="0.1"/>
  <path d="M35.84,92.63 C36.15,96.93 34.61,103.08 31.52,105.55 C28.44,108.01 21.56,108.32 17.34,107.42 C13.13,106.51 8.33,103.88 6.23,100.13 C4.14,96.38 2.84,88.65 4.76,84.94 C6.67,81.23 13.56,78.74 17.71,77.88 C21.86,77.01 26.65,77.3 29.67,79.76 C32.69,82.22 35.53,88.34 35.84,92.63 Z" fill="none" stroke="#56c26a" stroke-width="1" opacity="0.3"/>
  <circle cx="21.16" cy="92.63" r="4.44" fill="#2f9e6b" opacity="0.4"/>
  <path d="M84.07,33.09 C83.7,36.2 79.92,40.68 77.3,42.85 C74.68,45.03 71.61,46.02 68.36,46.15 C65.1,46.28 60.06,45.8 57.78,43.63 C55.5,41.45 54.45,36.57 54.69,33.09 C54.94,29.61 56.97,25.35 59.24,22.75 C61.52,20.16 64.98,17.28 68.36,17.52 C71.73,17.75 76.89,21.58 79.51,24.17 C82.13,26.77 84.44,29.98 84.07,33.09 Z" fill="#a3d977" opacity="0.1"/>
  <path d="M84.07,33.09 C83.7,36.2 79.92,40.68 77.3,42.85 C74.68,45.03 71.61,46.02 68.36,46.15 C65.1,46.28 60.06,45.8 57.78,43.63 C55.5,41.45 54.45,36.57 54.69,33.09 C54.94,29.61 56.97,25.35 59.24,22.75 C61.52,20.16 64.98,17.28 68.36,17.52 C71.73,17.75 76.89,21.58 79.51,24.17 C82.13,26.77 84.44,29.98 84.07,33.09 Z" fill="none" stroke="#56c26a" stroke-width="1" opacity="0.3"/>
  <circle cx="68.36" cy="33.09" r="3.85" fill="#2f9e6b" opacity="0.4"/>
  <path d="M133.18,26.68 C132.6,31.7 127.68,37.21 124.07,40.74 C120.45,44.28 116.73,46.86 111.48,47.9 C106.24,48.95 96.73,49.09 92.61,47.01 C88.5,44.92 88.31,40.2 86.8,35.38 C85.3,30.56 82.62,23.29 83.6,18.09 C84.57,12.9 88.01,7.03 92.66,4.2 C97.3,1.38 105.66,0.1 111.46,1.16 C117.27,2.23 123.88,6.32 127.5,10.57 C131.12,14.83 133.75,21.65 133.18,26.68 Z" fill="#a3d977" opacity="0.1"/>
  <path d="M133.18,26.68 C132.6,31.7 127.68,37.21 124.07,40.74 C120.45,44.28 116.73,46.86 111.48,47.9 C106.24,48.95 96.73,49.09 92.61,47.01 C88.5,44.92 88.31,40.2 86.8,35.38 C85.3,30.56 82.62,23.29 83.6,18.09 C84.57,12.9 88.01,7.03 92.66,4.2 C97.3,1.38 105.66,0.1 111.46,1.16 C117.27,2.23 123.88,6.32 127.5,10.57 C131.12,14.83 133.75,21.65 133.18,26.68 Z" fill="none" stroke="#56c26a" stroke-width="1" opacity="0.3"/>
  <circle cx="106.86" cy="26.68" r="7.02" fill="#2f9e6b" opacity="0.4"/>
  <path d="M46.33,101.45 C46.28,104.25 44.2,108.17 41.76,109.62 C39.31,111.06 33.9,111.5 31.65,110.14 C29.41,108.78 28.25,104.42 28.3,101.45 C28.34,98.48 29.64,93.75 31.94,92.32 C34.24,90.88 39.68,91.3 42.08,92.82 C44.48,94.34 46.39,98.65 46.33,101.45 Z" fill="#a3d977" opacity="0.1"/>
  <path d="M46.33,101.45 C46.28,104.25 44.2,108.17 41.76,109.62 C39.31,111.06 33.9,111.5 31.65,110.14 C29.41,108.78 28.25,104.42 28.3,101.45 C28.34,98.48 29.64,93.75 31.94,92.32 C34.24,90.88 39.68,91.3 42.08,92.82 C44.48,94.34 46.39,98.65 46.33,101.45 Z" fill="none" stroke="#56c26a" stroke-width="1" opacity="0.3"/>
  <circle cx="36.99" cy="101.45" r="2.73" fill="#2f9e6b" opacity="0.4"/>
  <path d="M101.39,127.92 C101.3,133.11 99.85,141.89 96.25,144.72 C92.66,147.56 84.99,146.48 79.82,144.92 C74.65,143.35 67.12,139.47 65.25,135.32 C63.37,131.17 66.16,124.62 68.57,120.03 C70.99,115.44 75.03,108.87 79.74,107.79 C84.45,106.71 93.23,110.2 96.84,113.56 C100.45,116.91 101.49,122.72 101.39,127.92 Z" fill="#a3d977" opacity="0.1"/>
  <path d="M101.39,127.92 C101.3,133.11 99.85,141.89 96.25,144.72 C92.66,147.56 84.99,146.48 79.82,144.92 C74.65,143.35 67.12,139.47 65.25,135.32 C63.37,131.17 66.16,124.62 68.57,120.03 C70.99,115.44 75.03,108.87 79.74,107.79 C84.45,106.71 93.23,110.2 96.84,113.56 C100.45,116.91 101.49,122.72 101.39,127.92 Z" fill="none" stroke="#56c26a" stroke-width="1" opacity="0.3"/>
  <circle cx="84.02" cy="127.92" r="5.53" fill="#2f9e6b" opacity="0.4"/>
  <path d="M56.25,84.41 C56.13,86.96 53.68,91.13 51.47,92.79 C49.27,94.46 45.66,95 43.03,94.41 C40.39,93.82 36.73,91.65 35.67,89.27 C34.61,86.89 35.46,82.52 36.67,80.12 C37.88,77.71 40.35,75.28 42.94,74.84 C45.53,74.4 50.01,75.89 52.23,77.48 C54.45,79.08 56.38,81.85 56.25,84.41 Z" fill="#a3d977" opacity="0.1"/>
  <path d="M56.25,84.41 C56.13,86.96 53.68,91.13 51.47,92.79 C49.27,94.46 45.66,95 43.03,94.41 C40.39,93.82 36.73,91.65 35.67,89.27 C34.61,86.89 35.46,82.52 36.67,80.12 C37.88,77.71 40.35,75.28 42.94,74.84 C45.53,74.4 50.01,75.89 52.23,77.48 C54.45,79.08 56.38,81.85 56.25,84.41 Z" fill="none" stroke="#56c26a" stroke-width="1" opacity="0.3"/>
  <circle cx="45.2" cy="84.41" r="2.77" fill="#2f9e6b" opacity="0.4"/>
</svg>
