<svg xmlns="http://www.w3.org/2000/svg" viewBox="0 0 960 540" width="960" height="540" role="img" aria-label="math decorative background">
  <defs>
    <radialGradient id="grad-math-large-07" cx="50%" cy="35%" r="80%">
      <stop offset="0%" stop-color="#8b7bff" stop-opacity="0.10"/>
      <stop offset="100%" stop-color="#0e0a1f" stop-opacity="0"/>
    </radialGradient>
  </defs>
  <rect width="960" height="540" fill="#0e0a1f"/>
  <rect width="960" height="540" fill="url(#grad-math-large-07)"/>
  <polygon points="480,64.8 318,388.8 642,388.8" fill="none" stroke="#5b8cff" stroke-width="0.8" opacity="0.39"/>
  <polygon points="480,64.8 399,226.8 561,226.8" fill="none" stroke="#5b8cff" stroke-width="0.8" opacity="0.33"/>
  <polygon points="480,64.8 439.5,145.8 520.5,145.8" fill="none" stroke="#5b8cff" stroke-width="0.8" opacity="0.27"/>
  <polygon points="480,64.8 459.75,105.3 500.25,105.3" fill="none" stroke="#5b8cff" stroke-width="0.8" opacity="0.21"/>
  <polygon points="459.75,105.3 439.5,145.8 480,145.8" fill="none" stroke="#5b8cff" stroke-width="0.8" opacity="0.21"/>
  <polygon points="500.25,105.3 480,145.8 520.5,145.8" fill="none" stroke="#5b8cff" stroke-width="0.8" opacity="0.21"/>
  <polygon points="439.5,145.8 399,226.8 480,226.8" fill="none" stroke="#5b8cff" stroke-width="0.8" opacity="0.27"/>
  <polygon points="439.5,145.8 419.25,186.3 459.75,186.3" fill="none" stroke="#5b8cff" stroke-width="0.8" opacity="0.21"/>
  <polygon points="419.25,186.3 399,226.8 439.5,226.8" fill="none" stroke="#5b8cff" stroke-width="0.8" opacity="0.21"/>
  <polygon points="459.75,186.3 439.5,226.8 480,226.8" fill="none" stroke="#5b8cff" stroke-width="0.8" opacity="0.21"/>
  <polygon points="520.5,145.8 480,226.8 561,226.8" fill="none" stroke="#5b8cff" stroke-width="0.8" opacity="0.27"/>
  <polygon points="520.5,145.8 500.25,186.3 540.75,186.3" fill="none" stroke="#5b8cff" stroke-width="0.8" opacity="0.21"/>
  <polygon points="500.25,186.3 480,226.8 520.5,226.8" fill="none" stroke="#5b8cff" stroke-width="0.8" opacity="0.21"/>
  <polygon points="540.75,186.3 520.5,226.8 561,226.8" fill="none" stroke="#5b8cff" stroke-width="0.8" opacity="0.21"/>
  <polygon points="399,226.8 318,388.8 480,388.8" fill="none" stroke="#5b8cff" stroke-width="0.8" opacity="0.33"/>
  <polygon points="399,226.8 358.5,307.8 439.5,307.8" fill="none" stroke="#5b8cff" stroke-width="0.8" opacity="0.27"/>
  <polygon points="399,226.8 378.75,267.3 419.25,267.3" fill="none" stroke="#5b8cff" stroke-width="0.8" opacity="0.21"/>
  <polygon points="378.75,267.3 358.5,307.8 399,307.8" fill="none" stroke="#5b8cff" stroke-width="0.8" opacity="0.21"/>
  <polygon points="419.25,267.3 399,307.8 439.5,307.8" fill="none" stroke="#5b8cff" stroke-width="0.8" opacity="0.21"/>
  <polygon points="358.5,307.8 318,388.8 399,388.8" fill="none" stroke="#5b8cff" stroke-width="0.8" opacity="0.27"/>
  <polygon points="358.5,307.8 338.25,348.3 378.75,348.3" fill="none" stroke="#5b8cff" stroke-width="0.8" opacity="0.21"/>
  <polygon points="338.25,348.3 318,388.8 358.5,388.8" fill="none" stroke="#5b8cff" stroke-width="0.8" opacity="0.21"/>
  <polygon points="378.75,348.3 358.5,388.8 399,388.8" fill="none" stroke="#5b8cff" stroke-width="0.8" opacity="0.21"/>
  <polygon points="439.5,307.8 399,388.8 480,388.8" fill="none" stroke="#5b8cff" stroke-width="0.8" opacity="0.27"/>
  <polygon points="439.5,307.8 419.25,348.3 459.75,348.3" fill="none" stroke="#5b8cff" stroke-width="0.8" opacity="0.21"/>
  <polygon points="419.25,348.3 399,388.8 439.5,388.8" fill="none" stroke="#5b8cff" stroke-width="0.8" opacity="0.21"/>
  <polygon points="459.75,348.3 439.5,388.8 480,388.8" fill="none" stroke="#5b8cff" stroke-width="0.8" opacity="0.21"/>
  <polygon points="561,226.8 480,388.8 642,388.8" fill="none" stroke="#5b8cff" stroke-width="0.8" opacity="0.33"/>
  <polygon points="561,226.8 520.5,307.8 601.5,307.8" fill="none" stroke="#5b8cff" stroke-width="0.8" opacity="0.27"/>
  <polygon points="561,226.8 540.75,267.3 581.25,267.3" fill="none" stroke="#5b8cff" stroke-width="0.8" opacity="0.21"/>
  <polygon points="540.75,267.3 520.5,307.8 561,307.8" fill="none" stroke="#5b8cff" stroke-width="0.8" opacity="0.21"/>
  <polygon points="581.25,267.3 561,307.8 601.5,307.8" fill="none" stroke="#5b8cff" stroke-width="0.8" opacity="0.21"/>
  <polygon points="520.5,307.8 480,388.8 561,388.8" fill="none" stroke="#5b8cff" stroke-width="0.8" opacity="0.27"/>
  <polygon points="520.5,307.8 500.25,348.3 540.75,348.3" fill="none" stroke="#5b8cff" stroke-width="0.8" opacity="0.21"/>
  <polygon points="500.25,348.3 480,388.8 520.5,388.8" fill="none" stroke="#5b8cff" stroke-width="0.8" opacity="0.21"/>
  <polygon points="540.75,348.3 520.5,388.8 561,388.8" fill="none" stroke="#5b8cff" stroke-width="0.8" opacity="0.21"/>
  <polygon points="601.5,307.8 561,388.8 642,388.8" fill="none" stroke="#5b8cff" stroke-width="0.8" opacity="0.27"/>
  <polygon points="601.5,307.8 581.25,348.3 621.75,348.3" fill="none" stroke="#5b8cff" stroke-width="0.8" opacity="0.21"/>
  <polygon points="581.25,348.3 561,388.8 601.5,388.8" fill="none" stroke="#5b8cff" stroke-width="0.8" opacity="0.21"/>
  <polygon points="621.75,348.3 601.5,388.8 642,388.8" fill="none" stroke="#5b8cff" stroke-width="0.8" opacity="0.21"/>
</svg>
