<svg xmlns="http://www.w3.org/2000/svg" viewBox="0 0 400 300" width="400" height="300" role="img" aria-label="history decorative background">
  <defs>
    <radialGradient id="grad-history-medium-09" cx="50%" cy="35%" r="80%">
      <stop offset="0%" stop-color="#caa15a" stop-opacity="0.10"/>
      <stop offset="100%" stop-color="#1b1305" stop-opacity="0"/>
    </radialGradient>
  </defs>
  <rect width="400" height="300" fill="#1b1305"/>
  <rect width="400" height="300" fill="url(#grad-history-medium-09)"/>
  <line x1="75.81" y1="20.53" x2="74.96" y2="22.78" stroke="#e7cfa0" stroke-width="0.6" opacity="0.12"/>
  <line x1="207.54" y1="224.55" x2="208.87" y2="224.84" stroke="#e7cfa0" stroke-width="0.6" opacity="0.15"/>
  <line x1="120.57" y1="275.54" x2="119.44" y2="275.28" stroke="#e7cfa0" stroke-width="0.6" opacity="0.04"/>
  <line x1="312.81" y1="30.81" x2="311.15" y2="29.6" stroke="#e7cfa0" stroke-width="0.6" opacity="0.07"/>
  <line x1="58.76" y1="183.19" x2="61.98" y2="184.18" stroke="#e7cfa0" stroke-width="0.6" opacity="0.07"/>
  <line x1="91.56" y1="185.36" x2="90.8" y2="182.63" stroke="#e7cfa0" stroke-width="0.6" opacity="0.05"/>
  <line x1="13.71" y1="233.75" x2="15.84" y2="234.06" stroke="#e7cfa0" stroke-width="0.6" opacity="0.13"/>
  <line x1="77.67" y1="280.84" x2="80.98" y2="281.84" stroke="#e7cfa0" stroke-width="0.6" opacity="0.05"/>
  <line x1="209.77" y1="152.35" x2="207.98" y2="150.14" stroke="#e7cfa0" stroke-width="0.6" opacity="0.13"/>
  <line x1="342.99" y1="299.4" x2="341.37" y2="296.86" stroke="#e7cfa0" stroke-width="0.6" opacity="0.14"/>
  <line x1="234.59" y1="51.53" x2="232.68" y2="52.59" stroke="#e7cfa0" stroke-width="0.6" opacity="0.12"/>
  <line x1="246.7" y1="219.55" x2="247.83" y2="223.28" stroke="#e7cfa0" stroke-width="0.6" opacity="0.11"/>
  <line x1="26.37" y1="51.79" x2="27.41" y2="53.32" stroke="#e7cfa0" stroke-width="0.6" opacity="0.16"/>
  <line x1="109.16" y1="9.1" x2="107.3" y2="8.89" stroke="#e7cfa0" stroke-width="0.6" opacity="0.14"/>
  <line x1="96.92" y1="258.79" x2="94.91" y2="256.15" stroke="#e7cfa0" stroke-width="0.6" opacity="0.14"/>
  <line x1="231.88" y1="197.12" x2="232.68" y2="198.32" stroke="#e7cfa0" stroke-width="0.6" opacity="0.09"/>
  <line x1="111.24" y1="230.6" x2="108.12" y2="231.27" stroke="#e7cfa0" stroke-width="0.6" opacity="0.1"/>
  <line x1="393.62" y1="223.09" x2="392.74" y2="224.71" stroke="#e7cfa0" stroke-width="0.6" opacity="0.13"/>
  <line x1="207.48" y1="231.85" x2="211.22" y2="232.15" stroke="#e7cfa0" stroke-width="0.6" opacity="0.15"/>
  <line x1="1.37" y1="37.42" x2="2.53" y2="36.76" stroke="#e7cfa0" stroke-width="0.6" opacity="0.07"/>
  <line x1="181.67" y1="146.41" x2="179.04" y2="144.73" stroke="#e7cfa0" stroke-width="0.6" opacity="0.09"/>
  <line x1="389.36" y1="293.31" x2="387.91" y2="295.36" stroke="#e7cfa0" stroke-width="0.6" opacity="0.09"/>
  <line x1="306.24" y1="150.67" x2="305.87" y2="149.41" stroke="#e7cfa0" stroke-width="0.6" opacity="0.1"/>
  <line x1="264.5" y1="194.69" x2="264.6" y2="195.98" stroke="#e7cfa0" stroke-width="0.6" opacity="0.1"/>
  <line x1="323.24" y1="228.99" x2="325.86" y2="227.88" stroke="#e7cfa0" stroke-width="0.6" opacity="0.05"/>
  <line x1="317.11" y1="66.57" x2="314.7" y2="67.12" stroke="#e7cfa0" stroke-width="0.6" opacity="0.15"/>
  <line x1="78.81" y1="285.62" x2="80.9" y2="284.92" stroke="#e7cfa0" stroke-width="0.6" opacity="0.05"/>
  <line x1="277.42" y1="262.17" x2="275.35" y2="259.9" stroke="#e7cfa0" stroke-width="0.6" opacity="0.15"/>
  <line x1="168.84" y1="166.39" x2="168.23" y2="169.86" stroke="#e7cfa0" stroke-width="0.6" opacity="0.12"/>
  <line x1="124.96" y1="134.16" x2="122.6" y2="134.65" stroke="#e7cfa0" stroke-width="0.6" opacity="0.15"/>
  <line x1="272.38" y1="93.56" x2="271.87" y2="90" stroke="#e7cfa0" stroke-width="0.6" opacity="0.05"/>
  <line x1="275.79" y1="143.43" x2="273.34" y2="144.26" stroke="#e7cfa0" stroke-width="0.6" opacity="0.13"/>
  <line x1="384.31" y1="30.84" x2="381.58" y2="31.78" stroke="#e7cfa0" stroke-width="0.6" opacity="0.12"/>
  <line x1="305.61" y1="77.75" x2="304.68" y2="76.88" stroke="#e7cfa0" stroke-width="0.6" opacity="0.11"/>
  <line x1="346.39" y1="277.83" x2="347.21" y2="280.66" stroke="#e7cfa0" stroke-width="0.6" opacity="0.06"/>
  <line x1="40.59" y1="272.51" x2="42.51" y2="273.02" stroke="#e7cfa0" stroke-width="0.6" opacity="0.14"/>
  <line x1="142.05" y1="236.56" x2="145.61" y2="236.92" stroke="#e7cfa0" stroke-width="0.6" opacity="0.05"/>
  <line x1="387.37" y1="285.17" x2="387.72" y2="287.08" stroke="#e7cfa0" stroke-width="0.6" opacity="0.05"/>
  <line x1="189.33" y1="241.99" x2="189.77" y2="245.92" stroke="#e7cfa0" stroke-width="0.6" opacity="0.16"/>
  <line x1="3.45" y1="43.7" x2="0.51" y2="45.41" stroke="#e7cfa0" stroke-width="0.6" opacity="0.06"/>
  <line x1="363.68" y1="296.77" x2="361.88" y2="296.95" stroke="#e7cfa0" stroke-width="0.6" opacity="0.15"/>
  <line x1="355.31" y1="84.44" x2="356.53" y2="85.79" stroke="#e7cfa0" stroke-width="0.6" opacity="0.11"/>
  <line x1="332.65" y1="241.77" x2="331.02" y2="240.69" stroke="#e7cfa0" stroke-width="0.6" opacity="0.14"/>
  <line x1="197.6" y1="286.94" x2="199.07" y2="285.37" stroke="#e7cfa0" stroke-width="0.6" opacity="0.14"/>
  <line x1="213.13" y1="21.87" x2="212.72" y2="17.95" stroke="#e7cfa0" stroke-width="0.6" opacity="0.08"/>
  <line x1="358.69" y1="19.5" x2="357.41" y2="19.84" stroke="#e7cfa0" stroke-width="0.6" opacity="0.07"/>
  <line x1="393.32" y1="215.17" x2="395.82" y2="212.39" stroke="#e7cfa0" stroke-width="0.6" opacity="0.15"/>
  <line x1="60.87" y1="99.69" x2="57.05" y2="99.53" stroke="#e7cfa0" stroke-width="0.6" opacity="0.05"/>
  <line x1="21.42" y1="276.28" x2="21.77" y2="274.2" stroke="#e7cfa0" stroke-width="0.6" opacity="0.04"/>
  <line x1="160.98" y1="266.05" x2="161.56" y2="265.06" stroke="#e7cfa0" stroke-width="0.6" opacity="0.09"/>
  <line x1="376.06" y1="245.22" x2="379.21" y2="246.35" stroke="#e7cfa0" stroke-width="0.6" opacity="0.09"/>
  <line x1="196.84" y1="21.4" x2="195.2" y2="18.5" stroke="#e7cfa0" stroke-width="0.6" opacity="0.09"/>
  <line x1="324.2" y1="185.8" x2="327.04" y2="186.71" stroke="#e7cfa0" stroke-width="0.6" opacity="0.12"/>
  <line x1="288.72" y1="161.01" x2="290.35" y2="161.34" stroke="#e7cfa0" stroke-width="0.6" opacity="0.1"/>
  <line x1="366.67" y1="185.11" x2="364.52" y2="187.61" stroke="#e7cfa0" stroke-width="0.6" opacity="0.07"/>
  <line x1="100.44" y1="211.32" x2="98.5" y2="209.09" stroke="#e7cfa0" stroke-width="0.6" opacity="0.09"/>
  <line x1="393.61" y1="63" x2="394.09" y2="59.66" stroke="#e7cfa0" stroke-width="0.6" opacity="0.1"/>
  <line x1="135.45" y1="293.97" x2="135.93" y2="293.05" stroke="#e7cfa0" stroke-width="0.6" opacity="0.12"/>
  <line x1="247.55" y1="250.47" x2="247.73" y2="249.31" stroke="#e7cfa0" stroke-width="0.6" opacity="0.09"/>
  <line x1="354.26" y1="65.64" x2="355.82" y2="68.14" stroke="#e7cfa0" stroke-width="0.6" opacity="0.12"/>
  <line x1="145.33" y1="192.52" x2="146.53" y2="194.21" stroke="#e7cfa0" stroke-width="0.6" opacity="0.13"/>
  <line x1="376.97" y1="284.08" x2="374.82" y2="287.3" stroke="#e7cfa0" stroke-width="0.6" opacity="0.05"/>
  <line x1="366.75" y1="258.41" x2="365.8" y2="260.89" stroke="#e7cfa0" stroke-width="0.6" opacity="0.11"/>
  <line x1="301.82" y1="85.04" x2="301.17" y2="83.98" stroke="#e7cfa0" stroke-width="0.6" opacity="0.06"/>
  <line x1="202.48" y1="93.73" x2="199.63" y2="95.32" stroke="#e7cfa0" stroke-width="0.6" opacity="0.12"/>
  <line x1="354.18" y1="140.81" x2="353.27" y2="142.85" stroke="#e7cfa0" stroke-width="0.6" opacity="0.08"/>
  <line x1="191.88" y1="67.99" x2="194.58" y2="70.04" stroke="#e7cfa0" stroke-width="0.6" opacity="0.09"/>
  <line x1="304.06" y1="278.31" x2="305.72" y2="281.23" stroke="#e7cfa0" stroke-width="0.6" opacity="0.14"/>
  <line x1="197.21" y1="252.76" x2="200.73" y2="252.54" stroke="#e7cfa0" stroke-width="0.6" opacity="0.11"/>
  <line x1="379.74" y1="282.12" x2="382.39" y2="281.74" stroke="#e7cfa0" stroke-width="0.6" opacity="0.07"/>
  <line x1="79.85" y1="251.88" x2="79.42" y2="249.61" stroke="#e7cfa0" stroke-width="0.6" opacity="0.15"/>
  <line x1="185.22" y1="263.31" x2="184.1" y2="265.4" stroke="#e7cfa0" stroke-width="0.6" opacity="0.07"/>
  <line x1="291.58" y1="291.18" x2="291.44" y2="294.16" stroke="#e7cfa0" stroke-width="0.6" opacity="0.15"/>
  <line x1="224.8" y1="158.28" x2="222.31" y2="157.91" stroke="#e7cfa0" stroke-width="0.6" opacity="0.05"/>
  <line x1="194.09" y1="3.87" x2="193.51" y2="5.88" stroke="#e7cfa0" stroke-width="0.6" opacity="0.14"/>
  <line x1="374.51" y1="0.85" x2="377.83" y2="2.63" stroke="#e7cfa0" stroke-width="0.6" opacity="0.12"/>
  <line x1="198.77" y1="213.47" x2="198.94" y2="212.18" stroke="#e7cfa0" stroke-width="0.6" opacity="0.08"/>
  <line x1="342.1" y1="4.95" x2="340.48" y2="6.66" stroke="#e7cfa0" stroke-width="0.6" opacity="0.08"/>
  <line x1="300.09" y1="161.86" x2="298.93" y2="162.3" stroke="#e7cfa0" stroke-width="0.6" opacity="0.09"/>
  <line x1="349.68" y1="172.82" x2="350.06" y2="170.37" stroke="#e7cfa0" stroke-width="0.6" opacity="0.09"/>
  <line x1="85.92" y1="50.53" x2="87.23" y2="48.3" stroke="#e7cfa0" stroke-width="0.6" opacity="0.14"/>
  <line x1="81.6" y1="123.89" x2="80.41" y2="122.53" stroke="#e7cfa0" stroke-width="0.6" opacity="0.11"/>
  <line x1="270.87" y1="101.1" x2="274.41" y2="102.34" stroke="#e7cfa0" stroke-width="0.6" opacity="0.12"/>
  <line x1="288.76" y1="90.09" x2="291.42" y2="88.03" stroke="#e7cfa0" stroke-width="0.6" opacity="0.05"/>
  <line x1="239.9" y1="191.26" x2="240.45" y2="188.02" stroke="#e7cfa0" stroke-width="0.6" opacity="0.15"/>
  <line x1="54.96" y1="264.77" x2="51.6" y2="263.36" stroke="#e7cfa0" stroke-width="0.6" opacity="0.06"/>
  <line x1="33.35" y1="127.32" x2="32.65" y2="128.25" stroke="#e7cfa0" stroke-width="0.6" opacity="0.15"/>
  <line x1="336.35" y1="91.52" x2="334.11" y2="89.62" stroke="#e7cfa0" stroke-width="0.6" opacity="0.04"/>
  <line x1="77.15" y1="269.68" x2="73.79" y2="271.54" stroke="#e7cfa0" stroke-width="0.6" opacity="0.09"/>
  <line x1="305.11" y1="256.4" x2="306.25" y2="254.55" stroke="#e7cfa0" stroke-width="0.6" opacity="0.12"/>
  <line x1="187" y1="74.47" x2="189.31" y2="72.74" stroke="#e7cfa0" stroke-width="0.6" opacity="0.12"/>
  <line x1="390.54" y1="169.64" x2="391.12" y2="168.69" stroke="#e7cfa0" stroke-width="0.6" opacity="0.13"/>
  <line x1="379.04" y1="249.46" x2="377.66" y2="249.52" stroke="#e7cfa0" stroke-width="0.6" opacity="0.1"/>
  <line x1="37.1" y1="111.03" x2="40.43" y2="111.06" stroke="#e7cfa0" stroke-width="0.6" opacity="0.04"/>
  <line x1="226.13" y1="186.68" x2="224.87" y2="188.01" stroke="#e7cfa0" stroke-width="0.6" opacity="0.11"/>
  <line x1="216.79" y1="134.32" x2="215.45" y2="133.87" stroke="#e7cfa0" stroke-width="0.6" opacity="0.09"/>
  <line x1="333.69" y1="223.29" x2="336.54" y2="224.05" stroke="#e7cfa0" stroke-width="0.6" opacity="0.06"/>
  <line x1="366.59" y1="299.95" x2="364.33" y2="301.54" stroke="#e7cfa0" stroke-width="0.6" opacity="0.12"/>
  <line x1="196.72" y1="239.29" x2="194.92" y2="242.54" stroke="#e7cfa0" stroke-width="0.6" opacity="0.08"/>
  <line x1="195.04" y1="99.98" x2="191.32" y2="99.9" stroke="#e7cfa0" stroke-width="0.6" opacity="0.11"/>
  <line x1="265.88" y1="19.11" x2="268.88" y2="20.04" stroke="#e7cfa0" stroke-width="0.6" opacity="0.09"/>
  <line x1="42.14" y1="273.95" x2="41.26" y2="274.51" stroke="#e7cfa0" stroke-width="0.6" opacity="0.08"/>
  <line x1="119.51" y1="128.4" x2="118.7" y2="130.97" stroke="#e7cfa0" stroke-width="0.6" opacity="0.09"/>
  <line x1="306.24" y1="157.61" x2="303.47" y2="155.43" stroke="#e7cfa0" stroke-width="0.6" opacity="0.1"/>
  <line x1="235.91" y1="80.54" x2="237.28" y2="78.12" stroke="#e7cfa0" stroke-width="0.6" opacity="0.13"/>
  <line x1="197.58" y1="277.04" x2="198.42" y2="275.55" stroke="#e7cfa0" stroke-width="0.6" opacity="0.09"/>
  <line x1="10.16" y1="133.88" x2="11.69" y2="131.16" stroke="#e7cfa0" stroke-width="0.6" opacity="0.13"/>
  <line x1="264.61" y1="267.34" x2="261.98" y2="265.28" stroke="#e7cfa0" stroke-width="0.6" opacity="0.14"/>
  <line x1="389" y1="63.55" x2="391.22" y2="62.96" stroke="#e7cfa0" stroke-width="0.6" opacity="0.12"/>
  <line x1="290.68" y1="176.84" x2="290.04" y2="173.13" stroke="#e7cfa0" stroke-width="0.6" opacity="0.06"/>
  <line x1="228.04" y1="35.33" x2="226.47" y2="35.74" stroke="#e7cfa0" stroke-width="0.6" opacity="0.09"/>
  <line x1="201.86" y1="282.52" x2="204.16" y2="279.47" stroke="#e7cfa0" stroke-width="0.6" opacity="0.1"/>
  <line x1="236.25" y1="66.67" x2="235.06" y2="64" stroke="#e7cfa0" stroke-width="0.6" opacity="0.06"/>
  <line x1="284.44" y1="210.18" x2="286.1" y2="211.08" stroke="#e7cfa0" stroke-width="0.6" opacity="0.12"/>
  <line x1="384.74" y1="235.76" x2="382.5" y2="232.78" stroke="#e7cfa0" stroke-width="0.6" opacity="0.05"/>
  <line x1="209.58" y1="91.34" x2="209.49" y2="93.81" stroke="#e7cfa0" stroke-width="0.6" opacity="0.07"/>
  <line x1="148.52" y1="186.84" x2="149.03" y2="188.5" stroke="#e7cfa0" stroke-width="0.6" opacity="0.07"/>
  <line x1="227.22" y1="217.15" x2="228.48" y2="217.78" stroke="#e7cfa0" stroke-width="0.6" opacity="0.05"/>
  <line x1="343.61" y1="22.76" x2="345.29" y2="25.06" stroke="#e7cfa0" stroke-width="0.6" opacity="0.05"/>
  <line x1="346.1" y1="236.84" x2="346.05" y2="234.59" stroke="#e7cfa0" stroke-width="0.6" opacity="0.07"/>
  <line x1="20" y1="150" x2="380" y2="150" stroke="#caa15a" stroke-width="1.6" opacity="0.4"/>
  <circle cx="20" cy="150" r="4" fill="#b5651d" opacity="0.6"/>
  <line x1="20" y1="150" x2="20" y2="138" stroke="#e7cfa0" stroke-width="1" opacity="0.3"/>
  <circle cx="92" cy="150" r="4" fill="#b5651d" opacity="0.6"/>
  <line x1="92" y1="150" x2="92" y2="170.09" stroke="#e7cfa0" stroke-width="1" opacity="0.3"/>
  <circle cx="164" cy="150" r="4" fill="#b5651d" opacity="0.6"/>
  <line x1="164" y1="150" x2="164" y2="126.17" stroke="#e7cfa0" stroke-width="1" opacity="0.3"/>
  <circle cx="236" cy="150" r="4" fill="#b5651d" opacity="0.6"/>
  <line x1="236" y1="150" x2="236" y2="163.97" stroke="#e7cfa0" stroke-width="1" opacity="0.3"/>
  <circle cx="308" cy="150" r="4" fill="#b5651d" opacity="0.6"/>
  <line x1="308" y1="150" x2="308" y2="137.49" stroke="#e7cfa0" stroke-width="1" opacity="0.3"/>
  <circle cx="380" cy="150" r="4" fill="#b5651d" opacity="0.6"/>
  <line x1="380" y1="150" x2="380" y2="163.95" stroke="#e7cfa0" stroke-width="1" opacity="0.3"/>
</svg>
