<svg xmlns="http://www.w3.org/2000/svg" viewBox="0 0 400 300" width="400" height="300" role="img" aria-label="history decorative background">
  <defs>
    <radialGradient id="grad-history-medium-06" cx="50%" cy="35%" r="80%">
      <stop offset="0%" stop-color="#caa15a" stop-opacity="0.10"/>
      <stop offset="100%" stop-color="#1b1305" stop-opacity="0"/>
    </radialGradient>
  </defs>
  <rect width="400" height="300" fill="#1b1305"/>
  <rect width="400" height="300" fill="url(#grad-history-medium-06)"/>
  <line x1="346.22" y1="5.41" x2="349.58" y2="7.23" stroke="#e7cfa0" stroke-width="0.6" opacity="0.11"/>
  <line x1="82.04" y1="99.07" x2="82.44" y2="97.12" stroke="#e7cfa0" stroke-width="0.6" opacity="0.06"/>
  <line x1="302.3" y1="118.95" x2="304.52" y2="118.61" stroke="#e7cfa0" stroke-width="0.6" opacity="0.07"/>
  <line x1="128.74" y1="91" x2="127.92" y2="88.44" stroke="#e7cfa0" stroke-width="0.6" opacity="0.11"/>
  <line x1="191.62" y1="98.34" x2="193.32" y2="99.32" stroke="#e7cfa0" stroke-width="0.6" opacity="0.11"/>
  <line x1="13.1" y1="157.71" x2="14.47" y2="154.63" stroke="#e7cfa0" stroke-width="0.6" opacity="0.07"/>
  <line x1="36.39" y1="83.94" x2="37.1" y2="81.82" stroke="#e7cfa0" stroke-width="0.6" opacity="0.11"/>
  <line x1="384.9" y1="147.71" x2="385.83" y2="148.88" stroke="#e7cfa0" stroke-width="0.6" opacity="0.16"/>
  <line x1="148.54" y1="156.73" x2="147.45" y2="155.55" stroke="#e7cfa0" stroke-width="0.6" opacity="0.06"/>
  <line x1="26.81" y1="188.64" x2="23.36" y2="190.43" stroke="#e7cfa0" stroke-width="0.6" opacity="0.14"/>
  <line x1="377.93" y1="10.9" x2="380.98" y2="11.87" stroke="#e7cfa0" stroke-width="0.6" opacity="0.07"/>
  <line x1="367.18" y1="251.12" x2="366.93" y2="248.35" stroke="#e7cfa0" stroke-width="0.6" opacity="0.06"/>
  <line x1="61.65" y1="153.98" x2="63.92" y2="153.15" stroke="#e7cfa0" stroke-width="0.6" opacity="0.05"/>
  <line x1="162.78" y1="268.92" x2="163.96" y2="268.36" stroke="#e7cfa0" stroke-width="0.6" opacity="0.15"/>
  <line x1="75.54" y1="275.92" x2="78.51" y2="277.18" stroke="#e7cfa0" stroke-width="0.6" opacity="0.12"/>
  <line x1="346.57" y1="226.21" x2="345.55" y2="226.18" stroke="#e7cfa0" stroke-width="0.6" opacity="0.04"/>
  <line x1="256.48" y1="87.2" x2="259.72" y2="89.02" stroke="#e7cfa0" stroke-width="0.6" opacity="0.07"/>
  <line x1="320.75" y1="299.5" x2="319.09" y2="298.58" stroke="#e7cfa0" stroke-width="0.6" opacity="0.06"/>
  <line x1="147.25" y1="37.33" x2="149.15" y2="35.98" stroke="#e7cfa0" stroke-width="0.6" opacity="0.06"/>
  <line x1="113.18" y1="86.15" x2="114.22" y2="85.86" stroke="#e7cfa0" stroke-width="0.6" opacity="0.11"/>
  <line x1="39.65" y1="157.44" x2="38.69" y2="155.33" stroke="#e7cfa0" stroke-width="0.6" opacity="0.09"/>
  <line x1="31" y1="157.55" x2="32.17" y2="154.73" stroke="#e7cfa0" stroke-width="0.6" opacity="0.05"/>
  <line x1="380.89" y1="42.85" x2="379.32" y2="44.15" stroke="#e7cfa0" stroke-width="0.6" opacity="0.15"/>
  <line x1="364.85" y1="286.68" x2="364.03" y2="287.81" stroke="#e7cfa0" stroke-width="0.6" opacity="0.05"/>
  <line x1="288.5" y1="172.14" x2="286.7" y2="171.92" stroke="#e7cfa0" stroke-width="0.6" opacity="0.09"/>
  <line x1="143.95" y1="110.47" x2="145.8" y2="109.1" stroke="#e7cfa0" stroke-width="0.6" opacity="0.16"/>
  <line x1="314.58" y1="67.57" x2="313.1" y2="67.43" stroke="#e7cfa0" stroke-width="0.6" opacity="0.15"/>
  <line x1="342.98" y1="41.5" x2="340.93" y2="40.1" stroke="#e7cfa0" stroke-width="0.6" opacity="0.15"/>
  <line x1="236.52" y1="105.67" x2="233.8" y2="106.33" stroke="#e7cfa0" stroke-width="0.6" opacity="0.12"/>
  <line x1="320.1" y1="33.68" x2="319.96" y2="31.17" stroke="#e7cfa0" stroke-width="0.6" opacity="0.16"/>
  <line x1="53.57" y1="6.05" x2="52.4" y2="7.7" stroke="#e7cfa0" stroke-width="0.6" opacity="0.11"/>
  <line x1="246.95" y1="78.04" x2="244.95" y2="75.54" stroke="#e7cfa0" stroke-width="0.6" opacity="0.05"/>
  <line x1="260.64" y1="228.92" x2="259.8" y2="227.54" stroke="#e7cfa0" stroke-width="0.6" opacity="0.07"/>
  <line x1="301.67" y1="249.4" x2="302.2" y2="248.4" stroke="#e7cfa0" stroke-width="0.6" opacity="0.15"/>
  <line x1="379.63" y1="217.09" x2="382.72" y2="216.07" stroke="#e7cfa0" stroke-width="0.6" opacity="0.12"/>
  <line x1="258.24" y1="88.52" x2="256.3" y2="88.48" stroke="#e7cfa0" stroke-width="0.6" opacity="0.11"/>
  <line x1="176.76" y1="193.85" x2="178.49" y2="194.37" stroke="#e7cfa0" stroke-width="0.6" opacity="0.13"/>
  <line x1="247.09" y1="278.61" x2="244.21" y2="276.2" stroke="#e7cfa0" stroke-width="0.6" opacity="0.13"/>
  <line x1="109.28" y1="94.58" x2="113.04" y2="93.81" stroke="#e7cfa0" stroke-width="0.6" opacity="0.14"/>
  <line x1="105.59" y1="105.91" x2="104.72" y2="108.29" stroke="#e7cfa0" stroke-width="0.6" opacity="0.14"/>
  <line x1="249.78" y1="133.97" x2="248.84" y2="134.35" stroke="#e7cfa0" stroke-width="0.6" opacity="0.09"/>
  <line x1="309.6" y1="273.41" x2="311.44" y2="270.3" stroke="#e7cfa0" stroke-width="0.6" opacity="0.14"/>
  <line x1="357.11" y1="212.87" x2="359.59" y2="210.34" stroke="#e7cfa0" stroke-width="0.6" opacity="0.13"/>
  <line x1="2.44" y1="109.43" x2="3.92" y2="109.6" stroke="#e7cfa0" stroke-width="0.6" opacity="0.06"/>
  <line x1="224.24" y1="16.7" x2="225.25" y2="15.95" stroke="#e7cfa0" stroke-width="0.6" opacity="0.15"/>
  <line x1="141.33" y1="71.93" x2="139.95" y2="71.33" stroke="#e7cfa0" stroke-width="0.6" opacity="0.09"/>
  <line x1="260.36" y1="270.05" x2="263.82" y2="271.07" stroke="#e7cfa0" stroke-width="0.6" opacity="0.1"/>
  <line x1="287.86" y1="39.42" x2="287.5" y2="36.5" stroke="#e7cfa0" stroke-width="0.6" opacity="0.14"/>
  <line x1="181.98" y1="158.5" x2="184.97" y2="160.79" stroke="#e7cfa0" stroke-width="0.6" opacity="0.12"/>
  <line x1="303.92" y1="192.96" x2="307.08" y2="191.84" stroke="#e7cfa0" stroke-width="0.6" opacity="0.09"/>
  <line x1="21.2" y1="127.64" x2="22.97" y2="130.02" stroke="#e7cfa0" stroke-width="0.6" opacity="0.1"/>
  <line x1="2.28" y1="76.05" x2="0.02" y2="73.45" stroke="#e7cfa0" stroke-width="0.6" opacity="0.07"/>
  <line x1="332.99" y1="188.69" x2="333.92" y2="187.28" stroke="#e7cfa0" stroke-width="0.6" opacity="0.05"/>
  <line x1="67.14" y1="162.51" x2="69.41" y2="161.6" stroke="#e7cfa0" stroke-width="0.6" opacity="0.07"/>
  <line x1="22.75" y1="220.14" x2="21.57" y2="220.04" stroke="#e7cfa0" stroke-width="0.6" opacity="0.05"/>
  <line x1="329.18" y1="211.81" x2="331.83" y2="213.94" stroke="#e7cfa0" stroke-width="0.6" opacity="0.07"/>
  <line x1="145.7" y1="123.02" x2="148.18" y2="122.34" stroke="#e7cfa0" stroke-width="0.6" opacity="0.15"/>
  <line x1="176.53" y1="139.57" x2="174.74" y2="138.54" stroke="#e7cfa0" stroke-width="0.6" opacity="0.09"/>
  <line x1="75.15" y1="82.77" x2="73.93" y2="82.93" stroke="#e7cfa0" stroke-width="0.6" opacity="0.1"/>
  <line x1="134.1" y1="22.24" x2="130.27" y2="22.27" stroke="#e7cfa0" stroke-width="0.6" opacity="0.15"/>
  <line x1="122.99" y1="82.8" x2="122.22" y2="84.9" stroke="#e7cfa0" stroke-width="0.6" opacity="0.07"/>
  <line x1="71.52" y1="183.06" x2="68.51" y2="182.98" stroke="#e7cfa0" stroke-width="0.6" opacity="0.15"/>
  <line x1="148.07" y1="120.96" x2="150.29" y2="118.72" stroke="#e7cfa0" stroke-width="0.6" opacity="0.07"/>
  <line x1="132.16" y1="214.76" x2="130.64" y2="214.01" stroke="#e7cfa0" stroke-width="0.6" opacity="0.06"/>
  <line x1="30.13" y1="70.56" x2="27.12" y2="68.65" stroke="#e7cfa0" stroke-width="0.6" opacity="0.06"/>
  <line x1="335.16" y1="277.39" x2="335.01" y2="276.25" stroke="#e7cfa0" stroke-width="0.6" opacity="0.06"/>
  <line x1="45.72" y1="119.96" x2="46.75" y2="121.04" stroke="#e7cfa0" stroke-width="0.6" opacity="0.15"/>
  <line x1="315.29" y1="110.15" x2="314.91" y2="109.17" stroke="#e7cfa0" stroke-width="0.6" opacity="0.07"/>
  <line x1="280.95" y1="88.23" x2="283.6" y2="90.05" stroke="#e7cfa0" stroke-width="0.6" opacity="0.08"/>
  <line x1="56.73" y1="108.6" x2="58.77" y2="109.11" stroke="#e7cfa0" stroke-width="0.6" opacity="0.13"/>
  <line x1="380.66" y1="68.04" x2="379.54" y2="65.33" stroke="#e7cfa0" stroke-width="0.6" opacity="0.09"/>
  <line x1="170.55" y1="286.48" x2="172.67" y2="289.63" stroke="#e7cfa0" stroke-width="0.6" opacity="0.12"/>
  <line x1="88.44" y1="58.68" x2="87.86" y2="56.42" stroke="#e7cfa0" stroke-width="0.6" opacity="0.15"/>
  <line x1="88.53" y1="58.46" x2="85.51" y2="60.77" stroke="#e7cfa0" stroke-width="0.6" opacity="0.12"/>
  <line x1="102.79" y1="241.67" x2="101.53" y2="238.33" stroke="#e7cfa0" stroke-width="0.6" opacity="0.11"/>
  <line x1="120.67" y1="190.13" x2="119.74" y2="191.42" stroke="#e7cfa0" stroke-width="0.6" opacity="0.06"/>
  <line x1="86.07" y1="286.7" x2="86.19" y2="284.75" stroke="#e7cfa0" stroke-width="0.6" opacity="0.15"/>
  <line x1="78" y1="158.56" x2="78.96" y2="161.68" stroke="#e7cfa0" stroke-width="0.6" opacity="0.08"/>
  <line x1="339.57" y1="276.18" x2="342.01" y2="278.98" stroke="#e7cfa0" stroke-width="0.6" opacity="0.15"/>
  <line x1="318.12" y1="93.54" x2="314.84" y2="92.37" stroke="#e7cfa0" stroke-width="0.6" opacity="0.04"/>
  <line x1="26.05" y1="270.19" x2="24.8" y2="269.97" stroke="#e7cfa0" stroke-width="0.6" opacity="0.1"/>
  <line x1="56.53" y1="121.7" x2="53.24" y2="123.89" stroke="#e7cfa0" stroke-width="0.6" opacity="0.12"/>
  <line x1="3.86" y1="20.3" x2="4.93" y2="19.84" stroke="#e7cfa0" stroke-width="0.6" opacity="0.16"/>
  <line x1="223.93" y1="54.49" x2="222.23" y2="53.31" stroke="#e7cfa0" stroke-width="0.6" opacity="0.08"/>
  <line x1="260.83" y1="47.62" x2="257.56" y2="47.56" stroke="#e7cfa0" stroke-width="0.6" opacity="0.08"/>
  <line x1="266.16" y1="42.69" x2="265.59" y2="39.06" stroke="#e7cfa0" stroke-width="0.6" opacity="0.05"/>
  <line x1="325.61" y1="247.99" x2="323.44" y2="245.4" stroke="#e7cfa0" stroke-width="0.6" opacity="0.14"/>
  <line x1="102.55" y1="6.46" x2="102.25" y2="5.22" stroke="#e7cfa0" stroke-width="0.6" opacity="0.05"/>
  <line x1="213.98" y1="242.66" x2="213.3" y2="240.35" stroke="#e7cfa0" stroke-width="0.6" opacity="0.14"/>
  <line x1="205.38" y1="235.75" x2="201.62" y2="235.91" stroke="#e7cfa0" stroke-width="0.6" opacity="0.15"/>
  <line x1="363.58" y1="176.12" x2="362.28" y2="172.36" stroke="#e7cfa0" stroke-width="0.6" opacity="0.13"/>
  <line x1="63.99" y1="84.92" x2="63.87" y2="86.27" stroke="#e7cfa0" stroke-width="0.6" opacity="0.1"/>
  <line x1="346.81" y1="41.91" x2="345.67" y2="40.08" stroke="#e7cfa0" stroke-width="0.6" opacity="0.13"/>
  <line x1="375.34" y1="250.74" x2="377.77" y2="249.23" stroke="#e7cfa0" stroke-width="0.6" opacity="0.09"/>
  <line x1="53.41" y1="211.21" x2="52.05" y2="210.9" stroke="#e7cfa0" stroke-width="0.6" opacity="0.06"/>
  <line x1="384.39" y1="69.04" x2="384.99" y2="71.28" stroke="#e7cfa0" stroke-width="0.6" opacity="0.12"/>
  <line x1="227.02" y1="216.66" x2="228.72" y2="214.56" stroke="#e7cfa0" stroke-width="0.6" opacity="0.14"/>
  <line x1="307.73" y1="185.42" x2="306.89" y2="182.61" stroke="#e7cfa0" stroke-width="0.6" opacity="0.1"/>
  <line x1="248.28" y1="123.95" x2="250.41" y2="120.82" stroke="#e7cfa0" stroke-width="0.6" opacity="0.07"/>
  <line x1="136.46" y1="193.73" x2="132.68" y2="194.99" stroke="#e7cfa0" stroke-width="0.6" opacity="0.04"/>
  <line x1="205.41" y1="74.65" x2="205.38" y2="72.54" stroke="#e7cfa0" stroke-width="0.6" opacity="0.1"/>
  <line x1="155.54" y1="285.81" x2="151.75" y2="286.99" stroke="#e7cfa0" stroke-width="0.6" opacity="0.08"/>
  <line x1="108.39" y1="24.72" x2="110" y2="21.61" stroke="#e7cfa0" stroke-width="0.6" opacity="0.1"/>
  <line x1="60.9" y1="261.46" x2="58.3" y2="262.01" stroke="#e7cfa0" stroke-width="0.6" opacity="0.13"/>
  <line x1="307.14" y1="102.74" x2="304.73" y2="99.88" stroke="#e7cfa0" stroke-width="0.6" opacity="0.11"/>
  <line x1="27.9" y1="2.02" x2="29.04" y2="3.13" stroke="#e7cfa0" stroke-width="0.6" opacity="0.06"/>
  <line x1="295.5" y1="188.6" x2="294.97" y2="189.94" stroke="#e7cfa0" stroke-width="0.6" opacity="0.06"/>
  <line x1="110.03" y1="58.79" x2="111.91" y2="56.89" stroke="#e7cfa0" stroke-width="0.6" opacity="0.06"/>
  <line x1="43.67" y1="236.43" x2="46.27" y2="237.32" stroke="#e7cfa0" stroke-width="0.6" opacity="0.09"/>
  <line x1="150.39" y1="141.53" x2="148.68" y2="140.95" stroke="#e7cfa0" stroke-width="0.6" opacity="0.11"/>
  <line x1="128.85" y1="53.39" x2="132.37" y2="53.07" stroke="#e7cfa0" stroke-width="0.6" opacity="0.06"/>
  <line x1="195.01" y1="257.09" x2="195.38" y2="254.5" stroke="#e7cfa0" stroke-width="0.6" opacity="0.05"/>
  <line x1="151.65" y1="267.19" x2="149.77" y2="269.38" stroke="#e7cfa0" stroke-width="0.6" opacity="0.05"/>
  <line x1="231.95" y1="137.34" x2="233.6" y2="136.23" stroke="#e7cfa0" stroke-width="0.6" opacity="0.14"/>
  <line x1="158.56" y1="89.01" x2="159.46" y2="90.61" stroke="#e7cfa0" stroke-width="0.6" opacity="0.08"/>
  <line x1="367.83" y1="52.27" x2="370.61" y2="53.43" stroke="#e7cfa0" stroke-width="0.6" opacity="0.13"/>
  <line x1="165.03" y1="273.48" x2="165.77" y2="271.65" stroke="#e7cfa0" stroke-width="0.6" opacity="0.1"/>
  <line x1="119.71" y1="222.95" x2="117.92" y2="224.8" stroke="#e7cfa0" stroke-width="0.6" opacity="0.15"/>
  <line x1="112.98" y1="111.64" x2="113.91" y2="109.81" stroke="#e7cfa0" stroke-width="0.6" opacity="0.14"/>
  <line x1="369.21" y1="173.12" x2="371.14" y2="174.52" stroke="#e7cfa0" stroke-width="0.6" opacity="0.16"/>
</svg>
