<svg xmlns="http://www.w3.org/2000/svg" viewBox="0 0 400 300" width="400" height="300" role="img" aria-label="history decorative background">
  <defs>
    <radialGradient id="grad-history-medium-01" cx="50%" cy="35%" r="80%">
      <stop offset="0%" stop-color="#caa15a" stop-opacity="0.10"/>
      <stop offset="100%" stop-color="#1b1305" stop-opacity="0"/>
    </radialGradient>
  </defs>
  <rect width="400" height="300" fill="#1b1305"/>
  <rect width="400" height="300" fill="url(#grad-history-medium-01)"/>
  <line x1="20" y1="150" x2="380" y2="150" stroke="#caa15a" stroke-width="1.6" opacity="0.4"/>
  <circle cx="20" cy="150" r="4" fill="#b5651d" opacity="0.6"/>
  <line x1="20" y1="150" x2="20" y2="139.07" stroke="#e7cfa0" stroke-width="1" opacity="0.3"/>
  <circle cx="92" cy="150" r="4" fill="#b5651d" opacity="0.6"/>
  <line x1="92" y1="150" x2="92" y2="160.31" stroke="#e7cfa0" stroke-width="1" opacity="0.3"/>
  <circle cx="164" cy="150" r="4" fill="#b5651d" opacity="0.6"/>
  <line x1="164" y1="150" x2="164" y2="133.81" stroke="#e7cfa0" stroke-width="1" opacity="0.3"/>
  <circle cx="236" cy="150" r="4" fill="#b5651d" opacity="0.6"/>
  <line x1="236" y1="150" x2="236" y2="166.66" stroke="#e7cfa0" stroke-width="1" opacity="0.3"/>
  <circle cx="308" cy="150" r="4" fill="#b5651d" opacity="0.6"/>
  <line x1="308" y1="150" x2="308" y2="133.44" stroke="#e7cfa0" stroke-width="1" opacity="0.3"/>
  <circle cx="380" cy="150" r="4" fill="#b5651d" opacity="0.6"/>
  <line x1="380" y1="150" x2="380" y2="170.95" stroke="#e7cfa0" stroke-width="1" opacity="0.3"/>
  <path d="M279.2,155.78 C279.97,161.96 277.07,168.83 273.5,173.57 C269.92,178.3 263.54,182.56 257.75,184.18 C251.96,185.81 244.01,185.45 238.74,183.33 C233.47,181.21 229.37,176.06 226.14,171.47 C222.92,166.88 219.09,160.77 219.4,155.78 C219.71,150.8 224.51,146.26 228.01,141.57 C231.5,136.89 235.72,129.05 240.38,127.68 C245.05,126.31 251.22,131.86 255.97,133.33 C260.73,134.81 265.04,132.78 268.91,136.52 C272.78,140.26 278.44,149.61 279.2,155.78 Z" fill="none" stroke="#caa15a" stroke-width="0.9" opacity="0.3"/>
  <path d="M298.49,155.78 C299.15,166.3 301.96,175.4 297.86,184.97 C293.76,194.54 283.28,209.65 273.92,213.2 C264.56,216.75 252.58,209.13 241.71,206.25 C230.84,203.38 215.94,201.29 208.69,195.95 C201.44,190.61 199.93,183.7 198.22,174.21 C196.5,164.72 196.82,149.31 198.4,139.02 C199.98,128.72 200.41,117.91 207.7,112.43 C215,106.95 231.69,107.41 242.16,106.12 C252.64,104.82 261.95,102.03 270.58,104.66 C279.21,107.28 289.28,113.35 293.93,121.87 C298.58,130.39 297.84,145.27 298.49,155.78 Z" fill="none" stroke="#caa15a" stroke-width="0.9" opacity="0.27"/>
  <path d="M329.21,155.78 C327.35,171.24 317.42,187.64 307.73,199.11 C298.05,210.59 285.78,217.01 271.11,224.64 C256.43,232.27 236.59,246.97 219.68,244.9 C202.78,242.83 180.56,227.07 169.67,212.21 C158.78,197.36 153.02,172.71 154.33,155.78 C155.64,138.86 166.1,121.63 177.53,110.64 C188.95,99.65 206.75,97.26 222.89,89.85 C239.02,82.44 258.35,63.45 274.35,66.21 C290.35,68.97 309.76,91.47 318.9,106.4 C328.04,121.33 331.07,140.33 329.21,155.78 Z" fill="none" stroke="#caa15a" stroke-width="0.9" opacity="0.24"/>
  <path d="M350.92,155.78 C353.2,184.81 349.69,222.46 332.65,238.78 C315.61,255.09 277.65,252.32 248.69,253.7 C219.72,255.07 176.3,263.34 158.86,247.02 C141.42,230.7 143.6,184.72 144.07,155.78 C144.54,126.85 144.25,92.85 161.68,73.42 C179.12,54 222.46,40.69 248.69,39.22 C274.91,37.76 301.98,45.21 319.02,64.64 C336.06,84.06 348.65,126.76 350.92,155.78 Z" fill="none" stroke="#caa15a" stroke-width="0.9" opacity="0.21"/>
  <path d="M367.52,155.78 C364.72,182.86 364.87,228.76 351.1,246.97 C337.34,265.18 308.49,257.13 284.94,265.04 C261.4,272.95 237.03,300.04 209.84,294.45 C182.64,288.86 138.96,254.6 121.78,231.49 C104.59,208.38 107.03,179.99 106.72,155.78 C106.42,131.58 102.34,106.37 119.95,86.24 C137.55,66.12 184.33,49.18 212.36,35.04 C240.39,20.91 262.2,-6.79 288.13,1.45 C314.05,9.69 354.67,58.78 367.9,84.5 C381.13,110.22 370.32,128.71 367.52,155.78 Z" fill="none" stroke="#caa15a" stroke-width="0.9" opacity="0.18"/>
  <path d="M417.69,155.78 C417.98,195.1 390.57,230.55 362.4,262.57 C334.23,294.58 290.61,344.41 248.69,347.88 C206.77,351.34 139.65,315.37 110.88,283.35 C82.11,251.34 71.37,199.62 76.09,155.78 C80.8,111.95 110.41,46.97 139.17,20.36 C167.94,-6.26 211.77,-4.96 248.69,-3.9 C285.6,-2.85 332.49,0.07 360.66,26.68 C388.83,53.3 417.4,116.47 417.69,155.78 Z" fill="none" stroke="#caa15a" stroke-width="0.9" opacity="0.15"/>
</svg>
