<svg xmlns="http://www.w3.org/2000/svg" viewBox="0 0 400 300" width="400" height="300" role="img" aria-label="history decorative background">
  <defs>
    <radialGradient id="grad-history-medium-08" cx="50%" cy="35%" r="80%">
      <stop offset="0%" stop-color="#caa15a" stop-opacity="0.10"/>
      <stop offset="100%" stop-color="#1b1305" stop-opacity="0"/>
    </radialGradient>
  </defs>
  <rect width="400" height="300" fill="#1b1305"/>
  <rect width="400" height="300" fill="url(#grad-history-medium-08)"/>
  <path d="M194.82,161.89 C194.44,169.45 187.66,178.09 181.97,182.34 C176.28,186.58 166.71,189.03 160.68,187.36 C154.65,185.7 148.87,178.83 145.79,172.34 C142.71,165.84 139.7,154.04 142.21,148.4 C144.72,142.75 153.83,140.39 160.84,138.49 C167.85,136.58 178.6,133.06 184.26,136.96 C189.93,140.86 195.21,154.33 194.82,161.89 Z" fill="none" stroke="#caa15a" stroke-width="0.9" opacity="0.3"/>
  <path d="M230.56,161.89 C230.6,172.74 215.04,185.43 206.09,193.83 C197.13,202.23 187.36,209.65 176.83,212.28 C166.29,214.91 152.59,214.56 142.89,209.59 C133.19,204.62 123.64,193.36 118.64,182.47 C113.64,171.59 108.98,154.79 112.87,144.3 C116.76,133.8 131.53,126.72 141.98,119.51 C152.42,112.29 164.88,99.47 175.53,101.01 C186.17,102.54 196.67,118.54 205.84,128.69 C215.01,138.84 230.51,151.03 230.56,161.89 Z" fill="none" stroke="#caa15a" stroke-width="0.9" opacity="0.27"/>
  <path d="M252.45,161.89 C253.28,176.26 255.66,197.65 246.52,208.83 C237.38,220.02 212.88,224.57 197.63,229.02 C182.37,233.47 168.07,234.78 154.99,235.51 C141.91,236.25 132.67,241.49 119.16,233.42 C105.66,225.35 80.34,203.65 73.94,187.12 C67.55,170.6 75.78,148.61 80.79,134.27 C85.8,119.92 91.85,111.86 104,101.04 C116.16,90.22 136.86,71.42 153.72,69.34 C170.57,67.26 190.46,79.68 205.11,88.56 C219.76,97.44 233.7,110.4 241.59,122.62 C249.48,134.84 251.63,147.52 252.45,161.89 Z" fill="none" stroke="#caa15a" stroke-width="0.9" opacity="0.24"/>
  <path d="M277.3,161.89 C277.48,184.24 262.32,207.23 247.06,223.85 C231.8,240.47 208.01,257.5 185.73,261.61 C163.45,265.73 135.62,258.2 113.38,248.54 C91.14,238.88 58.02,223.83 52.31,203.64 C46.6,183.44 69.87,149.35 79.13,127.36 C88.38,105.37 90.09,85.86 107.83,71.7 C125.57,57.53 162.56,39.36 185.59,42.36 C208.61,45.37 230.68,69.81 245.97,89.73 C261.25,109.65 277.12,139.53 277.3,161.89 Z" fill="none" stroke="#caa15a" stroke-width="0.9" opacity="0.21"/>
  <path d="M307.93,161.89 C308.36,193.74 284.32,223.2 260.82,245.8 C237.32,268.4 199.29,294.92 166.94,297.5 C134.6,300.07 92.68,283.86 66.75,261.26 C40.82,238.66 10.56,197.19 11.35,161.89 C12.14,126.59 45.57,75.61 71.5,49.47 C97.43,23.34 135.82,4.21 166.94,5.07 C198.06,5.94 234.7,28.54 258.2,54.67 C281.7,80.81 307.49,130.03 307.93,161.89 Z" fill="none" stroke="#caa15a" stroke-width="0.9" opacity="0.18"/>
  <path d="M322.28,161.89 C320.98,206.19 314.46,256.92 281.56,285.46 C248.65,314.01 170.7,343.78 124.87,333.17 C79.04,322.55 20.49,261.35 6.57,221.75 C-7.34,182.15 19.9,128.82 41.4,95.57 C62.9,62.33 94.23,34.94 135.56,22.28 C176.89,9.63 258.24,-3.64 289.36,19.63 C320.48,42.9 323.58,117.58 322.28,161.89 Z" fill="none" stroke="#caa15a" stroke-width="0.9" opacity="0.15"/>
</svg>
