<svg xmlns="http://www.w3.org/2000/svg" viewBox="0 0 400 300" width="400" height="300" role="img" aria-label="history decorative background">
  <defs>
    <radialGradient id="grad-history-medium-03" cx="50%" cy="35%" r="80%">
      <stop offset="0%" stop-color="#caa15a" stop-opacity="0.10"/>
      <stop offset="100%" stop-color="#1b1305" stop-opacity="0"/>
    </radialGradient>
  </defs>
  <rect width="400" height="300" fill="#1b1305"/>
  <rect width="400" height="300" fill="url(#grad-history-medium-03)"/>
  <line x1="171.91" y1="296.47" x2="175.18" y2="297.85" stroke="#e7cfa0" stroke-width="0.6" opacity="0.13"/>
  <line x1="331.53" y1="191.72" x2="333.25" y2="193.49" stroke="#e7cfa0" stroke-width="0.6" opacity="0.08"/>
  <line x1="334.93" y1="61.04" x2="334.43" y2="62.32" stroke="#e7cfa0" stroke-width="0.6" opacity="0.08"/>
  <line x1="183.73" y1="186.49" x2="181.96" y2="188.28" stroke="#e7cfa0" stroke-width="0.6" opacity="0.14"/>
  <line x1="44.22" y1="34.62" x2="41.71" y2="35.85" stroke="#e7cfa0" stroke-width="0.6" opacity="0.06"/>
  <line x1="388.72" y1="40.63" x2="391.57" y2="43.34" stroke="#e7cfa0" stroke-width="0.6" opacity="0.14"/>
  <line x1="50.78" y1="80.36" x2="51.33" y2="79.1" stroke="#e7cfa0" stroke-width="0.6" opacity="0.11"/>
  <line x1="43.53" y1="265.64" x2="43.32" y2="268.02" stroke="#e7cfa0" stroke-width="0.6" opacity="0.1"/>
  <line x1="334.99" y1="234.46" x2="333.22" y2="236.98" stroke="#e7cfa0" stroke-width="0.6" opacity="0.11"/>
  <line x1="316.72" y1="134.26" x2="314.96" y2="134.1" stroke="#e7cfa0" stroke-width="0.6" opacity="0.05"/>
  <line x1="335.89" y1="207.13" x2="338.33" y2="209.65" stroke="#e7cfa0" stroke-width="0.6" opacity="0.07"/>
  <line x1="158.17" y1="62.92" x2="154.56" y2="64.38" stroke="#e7cfa0" stroke-width="0.6" opacity="0.12"/>
  <line x1="142.54" y1="133.71" x2="144.2" y2="136.82" stroke="#e7cfa0" stroke-width="0.6" opacity="0.14"/>
  <line x1="98.08" y1="230.68" x2="99.33" y2="229.36" stroke="#e7cfa0" stroke-width="0.6" opacity="0.1"/>
  <line x1="147.16" y1="3.85" x2="145.19" y2="4.49" stroke="#e7cfa0" stroke-width="0.6" opacity="0.05"/>
  <line x1="103.41" y1="205.98" x2="100.65" y2="207.47" stroke="#e7cfa0" stroke-width="0.6" opacity="0.12"/>
  <line x1="303.87" y1="277.05" x2="302.73" y2="275.08" stroke="#e7cfa0" stroke-width="0.6" opacity="0.05"/>
  <line x1="365.12" y1="127.11" x2="361.7" y2="128.31" stroke="#e7cfa0" stroke-width="0.6" opacity="0.12"/>
  <line x1="308.99" y1="222.49" x2="310.88" y2="219.39" stroke="#e7cfa0" stroke-width="0.6" opacity="0.09"/>
  <line x1="310.08" y1="133.94" x2="311.4" y2="134.39" stroke="#e7cfa0" stroke-width="0.6" opacity="0.05"/>
  <line x1="344.57" y1="143.5" x2="342.53" y2="145.16" stroke="#e7cfa0" stroke-width="0.6" opacity="0.13"/>
  <line x1="193.1" y1="146.67" x2="191.24" y2="146" stroke="#e7cfa0" stroke-width="0.6" opacity="0.07"/>
  <line x1="329.8" y1="256.36" x2="331.99" y2="259" stroke="#e7cfa0" stroke-width="0.6" opacity="0.11"/>
  <line x1="251.24" y1="250.08" x2="253.45" y2="247.22" stroke="#e7cfa0" stroke-width="0.6" opacity="0.06"/>
  <line x1="332.28" y1="233.13" x2="334.44" y2="235.63" stroke="#e7cfa0" stroke-width="0.6" opacity="0.12"/>
  <line x1="120.36" y1="237.88" x2="118.53" y2="238.1" stroke="#e7cfa0" stroke-width="0.6" opacity="0.07"/>
  <line x1="125.19" y1="81.54" x2="125.81" y2="82.53" stroke="#e7cfa0" stroke-width="0.6" opacity="0.04"/>
  <line x1="146.88" y1="120.98" x2="147.72" y2="123.29" stroke="#e7cfa0" stroke-width="0.6" opacity="0.1"/>
  <line x1="264.89" y1="67.72" x2="262.99" y2="66.85" stroke="#e7cfa0" stroke-width="0.6" opacity="0.15"/>
  <line x1="301.66" y1="72.88" x2="304.16" y2="72.93" stroke="#e7cfa0" stroke-width="0.6" opacity="0.11"/>
  <line x1="329.04" y1="280.41" x2="328.02" y2="282.97" stroke="#e7cfa0" stroke-width="0.6" opacity="0.15"/>
  <line x1="142.43" y1="95.3" x2="145.63" y2="94.1" stroke="#e7cfa0" stroke-width="0.6" opacity="0.13"/>
  <line x1="124.78" y1="135.06" x2="121.35" y2="136.1" stroke="#e7cfa0" stroke-width="0.6" opacity="0.12"/>
  <line x1="200.99" y1="205.34" x2="203.71" y2="202.43" stroke="#e7cfa0" stroke-width="0.6" opacity="0.1"/>
  <line x1="173.64" y1="114.16" x2="173.61" y2="115.27" stroke="#e7cfa0" stroke-width="0.6" opacity="0.15"/>
  <line x1="217.47" y1="291.03" x2="214.77" y2="289.21" stroke="#e7cfa0" stroke-width="0.6" opacity="0.07"/>
  <line x1="230.25" y1="281.57" x2="231.6" y2="282.79" stroke="#e7cfa0" stroke-width="0.6" opacity="0.06"/>
  <line x1="330.06" y1="223.99" x2="330.75" y2="221.63" stroke="#e7cfa0" stroke-width="0.6" opacity="0.04"/>
  <line x1="20.37" y1="286.73" x2="19.66" y2="287.66" stroke="#e7cfa0" stroke-width="0.6" opacity="0.09"/>
  <line x1="180.56" y1="274.27" x2="183.46" y2="274.99" stroke="#e7cfa0" stroke-width="0.6" opacity="0.12"/>
  <line x1="15.62" y1="33.01" x2="17.53" y2="33.44" stroke="#e7cfa0" stroke-width="0.6" opacity="0.07"/>
  <line x1="238.76" y1="112.65" x2="239.5" y2="110.89" stroke="#e7cfa0" stroke-width="0.6" opacity="0.05"/>
  <line x1="121.84" y1="17.19" x2="123.57" y2="15.23" stroke="#e7cfa0" stroke-width="0.6" opacity="0.13"/>
  <line x1="6.85" y1="128.26" x2="5.02" y2="128.9" stroke="#e7cfa0" stroke-width="0.6" opacity="0.06"/>
  <line x1="270.92" y1="97.85" x2="269.86" y2="95.84" stroke="#e7cfa0" stroke-width="0.6" opacity="0.11"/>
  <line x1="263.82" y1="2.77" x2="265.15" y2="3.24" stroke="#e7cfa0" stroke-width="0.6" opacity="0.04"/>
  <line x1="97.09" y1="12.75" x2="97.4" y2="13.85" stroke="#e7cfa0" stroke-width="0.6" opacity="0.14"/>
  <line x1="74.4" y1="85.94" x2="76.03" y2="85.57" stroke="#e7cfa0" stroke-width="0.6" opacity="0.06"/>
  <line x1="372.7" y1="183.07" x2="374.92" y2="182.85" stroke="#e7cfa0" stroke-width="0.6" opacity="0.15"/>
  <line x1="241.92" y1="179.38" x2="241.51" y2="181.1" stroke="#e7cfa0" stroke-width="0.6" opacity="0.07"/>
  <line x1="100.79" y1="209.76" x2="101.09" y2="208.71" stroke="#e7cfa0" stroke-width="0.6" opacity="0.1"/>
  <line x1="155.6" y1="174.5" x2="157.22" y2="178.1" stroke="#e7cfa0" stroke-width="0.6" opacity="0.1"/>
  <line x1="137.11" y1="27" x2="137.44" y2="28.23" stroke="#e7cfa0" stroke-width="0.6" opacity="0.08"/>
  <line x1="93.49" y1="276.4" x2="93.88" y2="275.12" stroke="#e7cfa0" stroke-width="0.6" opacity="0.14"/>
  <line x1="367.94" y1="124.67" x2="368.68" y2="127.39" stroke="#e7cfa0" stroke-width="0.6" opacity="0.08"/>
  <line x1="119.95" y1="195.42" x2="117.45" y2="194.32" stroke="#e7cfa0" stroke-width="0.6" opacity="0.13"/>
  <line x1="26.42" y1="129.04" x2="27.4" y2="127.59" stroke="#e7cfa0" stroke-width="0.6" opacity="0.09"/>
  <line x1="83.49" y1="272.23" x2="81.39" y2="273.28" stroke="#e7cfa0" stroke-width="0.6" opacity="0.15"/>
  <line x1="315.13" y1="132.27" x2="314.73" y2="131.18" stroke="#e7cfa0" stroke-width="0.6" opacity="0.04"/>
  <line x1="204.41" y1="138.37" x2="203.95" y2="139.48" stroke="#e7cfa0" stroke-width="0.6" opacity="0.12"/>
  <line x1="340.39" y1="230.74" x2="343.23" y2="229.93" stroke="#e7cfa0" stroke-width="0.6" opacity="0.15"/>
  <line x1="265.38" y1="271.6" x2="266.58" y2="270.05" stroke="#e7cfa0" stroke-width="0.6" opacity="0.09"/>
  <line x1="79.77" y1="263.4" x2="79.11" y2="265.23" stroke="#e7cfa0" stroke-width="0.6" opacity="0.09"/>
  <line x1="7.5" y1="2.48" x2="6.92" y2="3.48" stroke="#e7cfa0" stroke-width="0.6" opacity="0.04"/>
  <line x1="123.61" y1="278.07" x2="124.08" y2="279.25" stroke="#e7cfa0" stroke-width="0.6" opacity="0.1"/>
  <line x1="314.53" y1="34.54" x2="311.67" y2="35.14" stroke="#e7cfa0" stroke-width="0.6" opacity="0.04"/>
  <line x1="278.35" y1="89.19" x2="279.02" y2="90.13" stroke="#e7cfa0" stroke-width="0.6" opacity="0.12"/>
  <line x1="263.63" y1="173.26" x2="262.27" y2="176.14" stroke="#e7cfa0" stroke-width="0.6" opacity="0.09"/>
  <line x1="220.09" y1="269.58" x2="221.89" y2="271.9" stroke="#e7cfa0" stroke-width="0.6" opacity="0.14"/>
  <line x1="257.38" y1="188.5" x2="256.47" y2="189.81" stroke="#e7cfa0" stroke-width="0.6" opacity="0.1"/>
  <line x1="265.2" y1="34.21" x2="263.75" y2="33.73" stroke="#e7cfa0" stroke-width="0.6" opacity="0.13"/>
  <line x1="353.61" y1="278.89" x2="355.89" y2="280.2" stroke="#e7cfa0" stroke-width="0.6" opacity="0.11"/>
  <line x1="206.44" y1="269.97" x2="209.35" y2="270.12" stroke="#e7cfa0" stroke-width="0.6" opacity="0.1"/>
  <line x1="302.46" y1="234.5" x2="302.31" y2="236.06" stroke="#e7cfa0" stroke-width="0.6" opacity="0.05"/>
  <line x1="72.86" y1="35.55" x2="75.61" y2="37.56" stroke="#e7cfa0" stroke-width="0.6" opacity="0.12"/>
  <line x1="207.82" y1="223.96" x2="205.76" y2="221.64" stroke="#e7cfa0" stroke-width="0.6" opacity="0.15"/>
  <line x1="234.71" y1="144.01" x2="231.17" y2="142.86" stroke="#e7cfa0" stroke-width="0.6" opacity="0.13"/>
  <line x1="79.72" y1="233.25" x2="79.13" y2="229.94" stroke="#e7cfa0" stroke-width="0.6" opacity="0.08"/>
  <line x1="115.29" y1="240.11" x2="116.33" y2="239.47" stroke="#e7cfa0" stroke-width="0.6" opacity="0.11"/>
  <line x1="158.17" y1="274.46" x2="157.81" y2="273.28" stroke="#e7cfa0" stroke-width="0.6" opacity="0.04"/>
  <line x1="116.33" y1="140.27" x2="118.47" y2="139.09" stroke="#e7cfa0" stroke-width="0.6" opacity="0.12"/>
  <line x1="94.27" y1="232.19" x2="93.11" y2="233.55" stroke="#e7cfa0" stroke-width="0.6" opacity="0.06"/>
  <line x1="35.25" y1="107.24" x2="33.22" y2="106.62" stroke="#e7cfa0" stroke-width="0.6" opacity="0.07"/>
  <line x1="395.2" y1="142.13" x2="394.12" y2="140.72" stroke="#e7cfa0" stroke-width="0.6" opacity="0.07"/>
  <line x1="78.3" y1="229.46" x2="80.2" y2="226.91" stroke="#e7cfa0" stroke-width="0.6" opacity="0.14"/>
  <line x1="300.78" y1="269.39" x2="298.84" y2="271.53" stroke="#e7cfa0" stroke-width="0.6" opacity="0.08"/>
  <line x1="177.14" y1="159" x2="174.4" y2="160.81" stroke="#e7cfa0" stroke-width="0.6" opacity="0.11"/>
  <line x1="186.43" y1="91.86" x2="189.5" y2="90.92" stroke="#e7cfa0" stroke-width="0.6" opacity="0.16"/>
  <line x1="122.86" y1="77.1" x2="123.95" y2="79.44" stroke="#e7cfa0" stroke-width="0.6" opacity="0.15"/>
  <line x1="4.89" y1="265.27" x2="2.21" y2="262.67" stroke="#e7cfa0" stroke-width="0.6" opacity="0.05"/>
  <line x1="66.36" y1="195.04" x2="63.8" y2="193.26" stroke="#e7cfa0" stroke-width="0.6" opacity="0.05"/>
  <line x1="312.3" y1="270.45" x2="313.09" y2="267.91" stroke="#e7cfa0" stroke-width="0.6" opacity="0.09"/>
  <line x1="221.92" y1="105.04" x2="222.42" y2="103.79" stroke="#e7cfa0" stroke-width="0.6" opacity="0.11"/>
  <line x1="197.83" y1="87.98" x2="198.1" y2="85.61" stroke="#e7cfa0" stroke-width="0.6" opacity="0.07"/>
  <line x1="376.63" y1="164.58" x2="374.3" y2="164.08" stroke="#e7cfa0" stroke-width="0.6" opacity="0.09"/>
  <line x1="276.01" y1="230.17" x2="274.02" y2="233.19" stroke="#e7cfa0" stroke-width="0.6" opacity="0.12"/>
  <line x1="77.63" y1="271.76" x2="74.99" y2="271.41" stroke="#e7cfa0" stroke-width="0.6" opacity="0.11"/>
  <line x1="330.41" y1="153.53" x2="327.01" y2="155.13" stroke="#e7cfa0" stroke-width="0.6" opacity="0.15"/>
  <line x1="166.46" y1="62.36" x2="167.4" y2="59.52" stroke="#e7cfa0" stroke-width="0.6" opacity="0.16"/>
  <line x1="343.38" y1="95.59" x2="343.28" y2="93.85" stroke="#e7cfa0" stroke-width="0.6" opacity="0.12"/>
  <line x1="79.99" y1="175.94" x2="79.95" y2="177.21" stroke="#e7cfa0" stroke-width="0.6" opacity="0.16"/>
  <line x1="32.84" y1="296.45" x2="33.04" y2="299.7" stroke="#e7cfa0" stroke-width="0.6" opacity="0.14"/>
  <line x1="65.99" y1="91" x2="69.81" y2="91.73" stroke="#e7cfa0" stroke-width="0.6" opacity="0.09"/>
  <line x1="168.99" y1="97.16" x2="171.73" y2="98.19" stroke="#e7cfa0" stroke-width="0.6" opacity="0.15"/>
  <line x1="393.23" y1="263.05" x2="393.95" y2="259.82" stroke="#e7cfa0" stroke-width="0.6" opacity="0.09"/>
  <line x1="386.37" y1="122.07" x2="384.06" y2="122.86" stroke="#e7cfa0" stroke-width="0.6" opacity="0.06"/>
  <line x1="195.45" y1="6.79" x2="196.77" y2="3.84" stroke="#e7cfa0" stroke-width="0.6" opacity="0.09"/>
  <line x1="265.03" y1="69.83" x2="262.82" y2="69.28" stroke="#e7cfa0" stroke-width="0.6" opacity="0.14"/>
  <line x1="1.73" y1="89.7" x2="2.6" y2="88.87" stroke="#e7cfa0" stroke-width="0.6" opacity="0.1"/>
  <line x1="253.25" y1="226.21" x2="253.45" y2="227.21" stroke="#e7cfa0" stroke-width="0.6" opacity="0.09"/>
  <line x1="96.54" y1="241.24" x2="98.43" y2="240.43" stroke="#e7cfa0" stroke-width="0.6" opacity="0.13"/>
  <line x1="268.85" y1="290.37" x2="272.27" y2="289.37" stroke="#e7cfa0" stroke-width="0.6" opacity="0.08"/>
  <line x1="47.11" y1="175.35" x2="45.27" y2="176.93" stroke="#e7cfa0" stroke-width="0.6" opacity="0.11"/>
  <line x1="71.05" y1="143.34" x2="73.85" y2="142.21" stroke="#e7cfa0" stroke-width="0.6" opacity="0.1"/>
  <line x1="57.95" y1="265.38" x2="56.6" y2="266.66" stroke="#e7cfa0" stroke-width="0.6" opacity="0.15"/>
  <line x1="65.68" y1="1.55" x2="69.09" y2="0.44" stroke="#e7cfa0" stroke-width="0.6" opacity="0.16"/>
  <line x1="287.54" y1="246.14" x2="288.63" y2="244.71" stroke="#e7cfa0" stroke-width="0.6" opacity="0.11"/>
  <line x1="17.76" y1="59.04" x2="20.65" y2="61.49" stroke="#e7cfa0" stroke-width="0.6" opacity="0.06"/>
  <line x1="116.26" y1="239.27" x2="118.02" y2="238.92" stroke="#e7cfa0" stroke-width="0.6" opacity="0.05"/>
  <line x1="322.59" y1="246.92" x2="321.6" y2="246" stroke="#e7cfa0" stroke-width="0.6" opacity="0.1"/>
  <path d="M152.77,190.19 C153.5,195.53 152.97,202.81 149.79,207.46 C146.6,212.11 139.52,216.13 133.66,218.11 C127.8,220.08 119.54,221.48 114.61,219.31 C109.68,217.14 107.22,209.95 104.06,205.1 C100.9,200.24 96.33,194.96 95.64,190.19 C94.95,185.43 96.63,181.34 99.91,176.52 C103.18,171.71 109.97,162.76 115.29,161.31 C120.62,159.86 126.84,165.45 131.86,167.81 C136.87,170.16 141.87,171.72 145.36,175.45 C148.84,179.19 152.03,184.86 152.77,190.19 Z" fill="none" stroke="#caa15a" stroke-width="0.9" opacity="0.3"/>
  <path d="M181.76,190.19 C182.75,202.26 178.84,219.18 169.25,227.73 C159.66,236.29 138.8,240.64 124.2,241.52 C109.6,242.41 91.58,241.61 81.65,233.06 C71.72,224.5 63.82,202.87 64.64,190.19 C65.46,177.52 76.64,165.7 86.57,157 C96.5,148.3 111.42,138.28 124.2,138 C136.99,137.72 153.67,146.63 163.26,155.33 C172.86,164.02 180.76,178.12 181.76,190.19 Z" fill="none" stroke="#caa15a" stroke-width="0.9" opacity="0.27"/>
  <path d="M209.86,190.19 C209,209.36 198,228.88 183.72,244.49 C169.44,260.11 143.57,283.88 124.2,283.9 C104.84,283.91 81.32,260.19 67.55,244.58 C53.77,228.96 42.61,209.52 41.54,190.19 C40.48,170.87 47.38,143.65 61.15,128.62 C74.93,113.6 102.91,99.87 124.2,100.02 C145.5,100.16 174.64,114.46 188.91,129.49 C203.19,144.52 210.73,171.03 209.86,190.19 Z" fill="none" stroke="#caa15a" stroke-width="0.9" opacity="0.24"/>
  <path d="M222.71,190.19 C225.21,209.15 225.3,235.81 216.2,251.26 C207.11,266.72 186.05,271.47 168.14,282.92 C150.24,294.37 128.97,323.36 108.76,319.95 C88.55,316.55 60.2,278.05 46.87,262.47 C33.54,246.88 34.62,244.01 28.78,226.45 C22.95,208.88 7.66,175.21 11.86,157.06 C16.07,138.91 37.85,133.06 54,117.55 C70.15,102.03 90.05,68.4 108.77,63.96 C127.48,59.51 150.88,78.61 166.29,90.87 C181.69,103.13 191.78,120.97 201.18,137.52 C210.59,154.07 220.21,171.24 222.71,190.19 Z" fill="none" stroke="#caa15a" stroke-width="0.9" opacity="0.21"/>
  <path d="M286.57,190.19 C282.76,224.8 233.85,254.99 201.87,280.67 C169.88,306.34 127.12,349.46 94.68,344.25 C62.24,339.05 25.42,284.73 7.25,249.44 C-10.92,214.15 -28.22,162.96 -14.34,132.52 C-0.46,102.07 50.7,76.71 90.56,66.8 C130.41,56.88 192.1,52.45 224.77,73.02 C257.44,93.58 290.39,155.58 286.57,190.19 Z" fill="none" stroke="#caa15a" stroke-width="0.9" opacity="0.18"/>
  <path d="M318.95,190.19 C319.7,227.31 267.59,259.67 235.14,288.73 C202.68,317.78 162.84,362.61 124.2,364.53 C85.57,366.45 30.73,329.31 3.31,300.25 C-24.1,271.2 -38.97,227.48 -40.3,190.19 C-41.63,152.9 -32.09,101.11 -4.67,76.5 C22.75,51.89 84.99,44.28 124.2,42.53 C163.41,40.78 198.13,41.38 230.58,65.99 C263.04,90.61 318.19,153.07 318.95,190.19 Z" fill="none" stroke="#caa15a" stroke-width="0.9" opacity="0.15"/>
</svg>
