<svg xmlns="http://www.w3.org/2000/svg" viewBox="0 0 400 300" width="400" height="300" role="img" aria-label="history decorative background">
  <defs>
    <radialGradient id="grad-history-medium-05" cx="50%" cy="35%" r="80%">
      <stop offset="0%" stop-color="#caa15a" stop-opacity="0.10"/>
      <stop offset="100%" stop-color="#1b1305" stop-opacity="0"/>
    </radialGradient>
  </defs>
  <rect width="400" height="300" fill="#1b1305"/>
  <rect width="400" height="300" fill="url(#grad-history-medium-05)"/>
  <path d="M268.5,137.65 C268.17,142.4 266.52,146.6 264.24,151.52 C261.95,156.44 258.64,165.32 254.79,167.17 C250.95,169.01 246.06,163.94 241.18,162.6 C236.29,161.26 228.59,162.05 225.48,159.14 C222.36,156.22 223.47,149.89 222.47,145.09 C221.47,140.29 219.3,134.64 219.47,130.33 C219.65,126.01 219.95,122.85 223.54,119.19 C227.13,115.53 235.73,109.33 241.02,108.35 C246.3,107.37 251.08,110.84 255.28,113.29 C259.48,115.74 264.02,118.97 266.22,123.03 C268.42,127.1 268.83,132.9 268.5,137.65 Z" fill="none" stroke="#caa15a" stroke-width="0.9" opacity="0.3"/>
  <path d="M300.59,137.65 C298.75,148.76 287.65,161.65 278.36,171.58 C269.07,181.51 257.11,196.2 244.85,197.24 C232.6,198.28 213.31,187.76 204.82,177.83 C196.34,167.9 192.64,151.95 193.93,137.65 C195.23,123.36 204.12,99.87 212.61,92.07 C221.09,84.27 232.05,88.71 244.85,90.85 C257.66,93 280.15,97.13 289.44,104.93 C298.73,112.73 302.44,126.54 300.59,137.65 Z" fill="none" stroke="#caa15a" stroke-width="0.9" opacity="0.27"/>
  <path d="M314.05,137.65 C315.88,157.87 318.63,191.08 307.09,203.64 C295.56,216.2 263.38,215.77 244.85,213 C226.33,210.23 211.91,199.56 195.96,187 C180.01,174.44 150.2,156.49 149.15,137.65 C148.11,118.81 173.73,87.68 189.68,73.97 C205.63,60.25 227.11,53.99 244.85,55.38 C262.6,56.78 284.62,68.6 296.15,82.32 C307.68,96.03 312.23,117.43 314.05,137.65 Z" fill="none" stroke="#caa15a" stroke-width="0.9" opacity="0.24"/>
  <path d="M366.25,137.65 C363.19,168.21 326.98,211.23 302.93,231.76 C278.88,252.29 246.4,269.29 221.97,260.84 C197.54,252.4 171.51,210.74 156.38,181.1 C141.24,151.46 120.92,108.75 131.14,83 C141.36,57.26 186,32.4 217.7,26.63 C249.4,20.87 296.58,29.92 321.34,48.42 C346.1,66.92 369.32,107.09 366.25,137.65 Z" fill="none" stroke="#caa15a" stroke-width="0.9" opacity="0.21"/>
  <path d="M405.25,137.65 C403.41,164.69 369.57,204.13 349.3,225.23 C329.04,246.33 308.45,258.58 283.64,264.25 C258.83,269.92 228.86,268.38 200.43,259.24 C172,250.1 130.93,229.67 113.06,209.41 C95.19,189.14 92.4,162.99 93.21,137.65 C94.02,112.32 100.87,76.73 117.93,57.39 C135,38.05 166.14,28.9 195.61,21.6 C225.08,14.3 267.26,6.67 294.73,13.57 C322.19,20.48 341.96,42.33 360.38,63.01 C378.8,83.69 407.1,110.61 405.25,137.65 Z" fill="none" stroke="#caa15a" stroke-width="0.9" opacity="0.18"/>
  <path d="M408.72,137.65 C416.39,168.63 421.55,209.89 403.76,232.64 C385.97,255.4 336.61,262.71 301.99,274.21 C267.37,285.71 229.12,307.28 196.05,301.65 C162.98,296.02 125.83,267.75 103.57,240.42 C81.3,213.09 60.05,169.74 62.45,137.65 C64.85,105.57 95.84,74.66 117.99,47.9 C140.13,21.15 166.22,-14.58 195.32,-22.88 C224.42,-31.17 265.51,-13.47 292.59,-1.87 C319.66,9.74 338.4,23.5 357.76,46.75 C377.11,70.01 401.06,106.67 408.72,137.65 Z" fill="none" stroke="#caa15a" stroke-width="0.9" opacity="0.15"/>
  <line x1="20" y1="150" x2="380" y2="150" stroke="#caa15a" stroke-width="1.6" opacity="0.4"/>
  <circle cx="20" cy="150" r="4" fill="#b5651d" opacity="0.6"/>
  <line x1="20" y1="150" x2="20" y2="122.74" stroke="#e7cfa0" stroke-width="1" opacity="0.3"/>
  <circle cx="92" cy="150" r="4" fill="#b5651d" opacity="0.6"/>
  <line x1="92" y1="150" x2="92" y2="166.8" stroke="#e7cfa0" stroke-width="1" opacity="0.3"/>
  <circle cx="164" cy="150" r="4" fill="#b5651d" opacity="0.6"/>
  <line x1="164" y1="150" x2="164" y2="131.36" stroke="#e7cfa0" stroke-width="1" opacity="0.3"/>
  <circle cx="236" cy="150" r="4" fill="#b5651d" opacity="0.6"/>
  <line x1="236" y1="150" x2="236" y2="166.05" stroke="#e7cfa0" stroke-width="1" opacity="0.3"/>
  <circle cx="308" cy="150" r="4" fill="#b5651d" opacity="0.6"/>
  <line x1="308" y1="150" x2="308" y2="128.53" stroke="#e7cfa0" stroke-width="1" opacity="0.3"/>
  <circle cx="380" cy="150" r="4" fill="#b5651d" opacity="0.6"/>
  <line x1="380" y1="150" x2="380" y2="168.83" stroke="#e7cfa0" stroke-width="1" opacity="0.3"/>
</svg>
