<svg xmlns="http://www.w3.org/2000/svg" viewBox="0 0 400 300" width="400" height="300" role="img" aria-label="history decorative background">
  <defs>
    <radialGradient id="grad-history-medium-02" cx="50%" cy="35%" r="80%">
      <stop offset="0%" stop-color="#caa15a" stop-opacity="0.10"/>
      <stop offset="100%" stop-color="#1b1305" stop-opacity="0"/>
    </radialGradient>
  </defs>
  <rect width="400" height="300" fill="#1b1305"/>
  <rect width="400" height="300" fill="url(#grad-history-medium-02)"/>
  <path d="M175.19,100.74 C175.68,107.81 169.67,117.23 164.29,122.1 C158.9,126.97 149.78,130.46 142.88,129.95 C135.97,129.44 127.42,123.92 122.86,119.05 C118.29,114.18 115.78,106.79 115.48,100.74 C115.19,94.69 116.51,86.62 121.08,82.74 C125.64,78.87 136.16,77.98 142.88,77.46 C149.59,76.95 156,75.77 161.38,79.65 C166.77,83.53 174.71,93.67 175.19,100.74 Z" fill="none" stroke="#caa15a" stroke-width="0.9" opacity="0.3"/>
  <path d="M200.94,100.74 C201.54,110.91 199.86,119.9 194.37,129.45 C188.88,139.01 177.96,152.41 167.97,158.07 C157.98,163.73 145.08,165.16 134.43,163.41 C123.79,161.66 110,155.6 104.1,147.57 C98.2,139.54 102.79,125.52 99.04,115.23 C95.28,104.95 80.26,94.24 81.59,85.87 C82.92,77.49 98.05,72.13 107,64.98 C115.96,57.82 125.91,45.85 135.34,42.93 C144.77,40 154.35,43.19 163.59,47.44 C172.83,51.68 184.54,59.52 190.76,68.4 C196.99,77.29 200.34,90.57 200.94,100.74 Z" fill="none" stroke="#caa15a" stroke-width="0.9" opacity="0.27"/>
  <path d="M217.37,100.74 C218.64,118.93 224.55,139.53 212.13,152.48 C199.71,165.44 162.55,177.67 142.88,178.46 C123.2,179.25 109.16,170.17 94.07,157.22 C78.98,144.27 54.52,119.27 52.34,100.74 C50.17,82.21 65.93,62.38 81.02,46.02 C96.11,29.66 122.29,3.01 142.88,2.57 C163.46,2.12 192.1,26.97 204.51,43.34 C216.93,59.7 216.1,82.55 217.37,100.74 Z" fill="none" stroke="#caa15a" stroke-width="0.9" opacity="0.24"/>
  <path d="M257.76,100.74 C257.35,128.75 236.02,161.23 216.87,181.16 C197.72,201.09 168.91,222.75 142.88,220.32 C116.84,217.9 78.93,186.52 60.67,166.58 C42.42,146.65 30.74,123.43 33.35,100.74 C35.97,78.05 58.14,48.86 76.39,30.46 C94.64,12.07 119.05,-6.76 142.88,-9.66 C166.7,-12.55 200.19,-5.31 219.34,13.09 C238.49,31.49 258.17,72.73 257.76,100.74 Z" fill="none" stroke="#caa15a" stroke-width="0.9" opacity="0.21"/>
  <path d="M258.82,100.74 C254.3,130.25 250.15,166.47 230.82,193.58 C211.5,220.69 175.76,264.76 142.88,263.4 C109.99,262.05 58.66,212.56 33.51,185.45 C8.36,158.34 -7.74,128.53 -8.03,100.74 C-8.31,72.95 6.63,37.95 31.78,18.69 C56.93,-0.57 105.17,-14.44 142.88,-14.8 C180.58,-15.17 238.66,-2.76 257.98,16.5 C277.31,35.76 263.35,71.23 258.82,100.74 Z" fill="none" stroke="#caa15a" stroke-width="0.9" opacity="0.18"/>
  <path d="M317.53,100.74 C323.96,142.32 308,199.72 278.9,228.34 C249.79,256.96 186.03,275.85 142.88,272.44 C99.72,269.03 47.95,236.48 19.95,207.86 C-8.06,179.25 -24.28,137.27 -25.16,100.74 C-26.04,64.21 -13.35,20.18 14.66,-11.29 C42.66,-42.76 105.27,-86.41 142.88,-88.05 C180.49,-89.7 211.21,-52.63 240.31,-21.17 C269.42,10.3 311.1,59.16 317.53,100.74 Z" fill="none" stroke="#caa15a" stroke-width="0.9" opacity="0.15"/>
  <line x1="139.47" y1="10.95" x2="136.85" y2="10.58" stroke="#e7cfa0" stroke-width="0.6" opacity="0.06"/>
  <line x1="286.46" y1="204.85" x2="288.48" y2="203.89" stroke="#e7cfa0" stroke-width="0.6" opacity="0.05"/>
  <line x1="332.31" y1="211.78" x2="330.85" y2="212.71" stroke="#e7cfa0" stroke-width="0.6" opacity="0.13"/>
  <line x1="349.3" y1="272.11" x2="347.25" y2="272.75" stroke="#e7cfa0" stroke-width="0.6" opacity="0.09"/>
  <line x1="190.83" y1="134.81" x2="193.99" y2="132.82" stroke="#e7cfa0" stroke-width="0.6" opacity="0.05"/>
  <line x1="40.43" y1="114.46" x2="40.01" y2="117.68" stroke="#e7cfa0" stroke-width="0.6" opacity="0.09"/>
  <line x1="160.87" y1="125.68" x2="162.18" y2="124.91" stroke="#e7cfa0" stroke-width="0.6" opacity="0.07"/>
  <line x1="320.98" y1="180.76" x2="318.08" y2="178.19" stroke="#e7cfa0" stroke-width="0.6" opacity="0.04"/>
  <line x1="243.86" y1="189.88" x2="242.6" y2="192.89" stroke="#e7cfa0" stroke-width="0.6" opacity="0.09"/>
  <line x1="282.84" y1="280.74" x2="285.04" y2="280.8" stroke="#e7cfa0" stroke-width="0.6" opacity="0.16"/>
  <line x1="306.24" y1="26.07" x2="305" y2="26.73" stroke="#e7cfa0" stroke-width="0.6" opacity="0.11"/>
  <line x1="73.63" y1="201.51" x2="71.6" y2="203.03" stroke="#e7cfa0" stroke-width="0.6" opacity="0.15"/>
  <line x1="11.21" y1="24.5" x2="9.29" y2="25.55" stroke="#e7cfa0" stroke-width="0.6" opacity="0.11"/>
  <line x1="157.58" y1="232.54" x2="158.01" y2="233.64" stroke="#e7cfa0" stroke-width="0.6" opacity="0.05"/>
  <line x1="14.87" y1="171.55" x2="12.49" y2="171.52" stroke="#e7cfa0" stroke-width="0.6" opacity="0.12"/>
  <line x1="122.41" y1="100.95" x2="120.03" y2="100.63" stroke="#e7cfa0" stroke-width="0.6" opacity="0.05"/>
  <line x1="239.34" y1="115.98" x2="235.92" y2="114.6" stroke="#e7cfa0" stroke-width="0.6" opacity="0.13"/>
  <line x1="117.21" y1="54.23" x2="114.58" y2="55.53" stroke="#e7cfa0" stroke-width="0.6" opacity="0.09"/>
  <line x1="247.09" y1="12.88" x2="249.16" y2="12.15" stroke="#e7cfa0" stroke-width="0.6" opacity="0.11"/>
  <line x1="260.06" y1="249.1" x2="258.04" y2="251.78" stroke="#e7cfa0" stroke-width="0.6" opacity="0.04"/>
  <line x1="317.48" y1="186.48" x2="317.07" y2="184.71" stroke="#e7cfa0" stroke-width="0.6" opacity="0.11"/>
  <line x1="10.87" y1="257.52" x2="9.89" y2="256.89" stroke="#e7cfa0" stroke-width="0.6" opacity="0.14"/>
  <line x1="94.03" y1="112" x2="95.6" y2="112.11" stroke="#e7cfa0" stroke-width="0.6" opacity="0.14"/>
  <line x1="389.43" y1="277.38" x2="388.25" y2="280.79" stroke="#e7cfa0" stroke-width="0.6" opacity="0.1"/>
  <line x1="354.29" y1="127.92" x2="354.99" y2="129.76" stroke="#e7cfa0" stroke-width="0.6" opacity="0.15"/>
  <line x1="256.79" y1="79.77" x2="257.78" y2="81.39" stroke="#e7cfa0" stroke-width="0.6" opacity="0.06"/>
  <line x1="77.94" y1="222.31" x2="79.16" y2="224.09" stroke="#e7cfa0" stroke-width="0.6" opacity="0.14"/>
  <line x1="293.93" y1="130.93" x2="296.7" y2="132.86" stroke="#e7cfa0" stroke-width="0.6" opacity="0.14"/>
  <line x1="78.22" y1="109.14" x2="77.56" y2="106.83" stroke="#e7cfa0" stroke-width="0.6" opacity="0.05"/>
  <line x1="30.93" y1="138.48" x2="27.33" y2="138.38" stroke="#e7cfa0" stroke-width="0.6" opacity="0.16"/>
  <line x1="341.8" y1="191.1" x2="338.76" y2="189.01" stroke="#e7cfa0" stroke-width="0.6" opacity="0.07"/>
  <line x1="127.1" y1="182.63" x2="125.41" y2="183.55" stroke="#e7cfa0" stroke-width="0.6" opacity="0.12"/>
  <line x1="218.03" y1="113.8" x2="218.02" y2="111.42" stroke="#e7cfa0" stroke-width="0.6" opacity="0.04"/>
  <line x1="102.83" y1="146.55" x2="102.9" y2="143.86" stroke="#e7cfa0" stroke-width="0.6" opacity="0.12"/>
  <line x1="234.71" y1="220.08" x2="234.19" y2="223.38" stroke="#e7cfa0" stroke-width="0.6" opacity="0.08"/>
  <line x1="302.58" y1="150.86" x2="302.01" y2="148.23" stroke="#e7cfa0" stroke-width="0.6" opacity="0.06"/>
  <line x1="119.58" y1="132.56" x2="115.88" y2="131.91" stroke="#e7cfa0" stroke-width="0.6" opacity="0.12"/>
  <line x1="49.97" y1="168.12" x2="50.38" y2="169.86" stroke="#e7cfa0" stroke-width="0.6" opacity="0.11"/>
  <line x1="299.21" y1="94.97" x2="302.52" y2="95.76" stroke="#e7cfa0" stroke-width="0.6" opacity="0.07"/>
  <line x1="365.71" y1="238.3" x2="367.41" y2="240.23" stroke="#e7cfa0" stroke-width="0.6" opacity="0.13"/>
  <line x1="255.27" y1="207.81" x2="257.75" y2="204.72" stroke="#e7cfa0" stroke-width="0.6" opacity="0.11"/>
  <line x1="81.98" y1="169.64" x2="80.65" y2="171.07" stroke="#e7cfa0" stroke-width="0.6" opacity="0.06"/>
  <line x1="166.86" y1="70.08" x2="168.01" y2="71.3" stroke="#e7cfa0" stroke-width="0.6" opacity="0.13"/>
  <line x1="128.03" y1="183.91" x2="130.24" y2="182.68" stroke="#e7cfa0" stroke-width="0.6" opacity="0.13"/>
  <line x1="382.25" y1="204.56" x2="382.63" y2="201.64" stroke="#e7cfa0" stroke-width="0.6" opacity="0.11"/>
  <line x1="205.7" y1="195.78" x2="208.1" y2="195.01" stroke="#e7cfa0" stroke-width="0.6" opacity="0.11"/>
  <line x1="368.16" y1="168.78" x2="367.06" y2="171.05" stroke="#e7cfa0" stroke-width="0.6" opacity="0.09"/>
  <line x1="45.92" y1="95.26" x2="45.64" y2="93.29" stroke="#e7cfa0" stroke-width="0.6" opacity="0.08"/>
  <line x1="205.72" y1="155.72" x2="205.66" y2="153.65" stroke="#e7cfa0" stroke-width="0.6" opacity="0.07"/>
  <line x1="362.72" y1="275.01" x2="360.79" y2="272.23" stroke="#e7cfa0" stroke-width="0.6" opacity="0.1"/>
  <line x1="163.29" y1="135.83" x2="163.36" y2="138.82" stroke="#e7cfa0" stroke-width="0.6" opacity="0.07"/>
  <line x1="324.64" y1="103.45" x2="322.63" y2="100.17" stroke="#e7cfa0" stroke-width="0.6" opacity="0.06"/>
  <line x1="303.57" y1="5.48" x2="303.99" y2="3.99" stroke="#e7cfa0" stroke-width="0.6" opacity="0.05"/>
  <line x1="70.23" y1="134.37" x2="68.49" y2="135.32" stroke="#e7cfa0" stroke-width="0.6" opacity="0.08"/>
  <line x1="399.7" y1="252.51" x2="400.12" y2="249.8" stroke="#e7cfa0" stroke-width="0.6" opacity="0.07"/>
  <line x1="328.95" y1="157.72" x2="331.85" y2="158.33" stroke="#e7cfa0" stroke-width="0.6" opacity="0.08"/>
  <line x1="368.57" y1="48.97" x2="370" y2="46.66" stroke="#e7cfa0" stroke-width="0.6" opacity="0.13"/>
  <line x1="196.76" y1="78.25" x2="195.01" y2="79.22" stroke="#e7cfa0" stroke-width="0.6" opacity="0.07"/>
  <line x1="103.02" y1="0.51" x2="100.29" y2="0.28" stroke="#e7cfa0" stroke-width="0.6" opacity="0.1"/>
  <line x1="381.73" y1="152.08" x2="382.97" y2="152.89" stroke="#e7cfa0" stroke-width="0.6" opacity="0.06"/>
  <line x1="324.47" y1="141.78" x2="326.03" y2="142.8" stroke="#e7cfa0" stroke-width="0.6" opacity="0.04"/>
  <line x1="3.95" y1="260.85" x2="6.69" y2="263.61" stroke="#e7cfa0" stroke-width="0.6" opacity="0.07"/>
  <line x1="7.3" y1="35.41" x2="7.33" y2="31.7" stroke="#e7cfa0" stroke-width="0.6" opacity="0.09"/>
  <line x1="131.66" y1="50.96" x2="131.31" y2="52.32" stroke="#e7cfa0" stroke-width="0.6" opacity="0.08"/>
  <line x1="372.05" y1="27.71" x2="370.36" y2="28.91" stroke="#e7cfa0" stroke-width="0.6" opacity="0.14"/>
  <line x1="285.45" y1="156.95" x2="286.57" y2="157.99" stroke="#e7cfa0" stroke-width="0.6" opacity="0.1"/>
  <line x1="331.04" y1="105.87" x2="330.13" y2="106.39" stroke="#e7cfa0" stroke-width="0.6" opacity="0.06"/>
  <line x1="171.29" y1="56.27" x2="171.58" y2="55.21" stroke="#e7cfa0" stroke-width="0.6" opacity="0.05"/>
  <line x1="121.6" y1="208.29" x2="121.1" y2="204.41" stroke="#e7cfa0" stroke-width="0.6" opacity="0.09"/>
  <line x1="334.5" y1="110.68" x2="332.83" y2="110.53" stroke="#e7cfa0" stroke-width="0.6" opacity="0.09"/>
  <line x1="205.13" y1="29.26" x2="208.07" y2="27.34" stroke="#e7cfa0" stroke-width="0.6" opacity="0.14"/>
  <line x1="86.79" y1="32.87" x2="86.3" y2="34.68" stroke="#e7cfa0" stroke-width="0.6" opacity="0.07"/>
  <line x1="267.94" y1="152.36" x2="267.71" y2="155.1" stroke="#e7cfa0" stroke-width="0.6" opacity="0.06"/>
  <line x1="171.16" y1="17.02" x2="172.36" y2="18.66" stroke="#e7cfa0" stroke-width="0.6" opacity="0.09"/>
  <line x1="259.04" y1="109.85" x2="260.05" y2="108.01" stroke="#e7cfa0" stroke-width="0.6" opacity="0.06"/>
  <line x1="220.58" y1="184.78" x2="219.51" y2="186.14" stroke="#e7cfa0" stroke-width="0.6" opacity="0.13"/>
  <line x1="364.27" y1="19.3" x2="365.98" y2="16.21" stroke="#e7cfa0" stroke-width="0.6" opacity="0.15"/>
  <line x1="360.61" y1="165.79" x2="363.32" y2="164.49" stroke="#e7cfa0" stroke-width="0.6" opacity="0.15"/>
  <line x1="371.37" y1="160.37" x2="373.03" y2="160.52" stroke="#e7cfa0" stroke-width="0.6" opacity="0.13"/>
  <line x1="128.07" y1="249.23" x2="129.24" y2="247.88" stroke="#e7cfa0" stroke-width="0.6" opacity="0.1"/>
  <line x1="351.11" y1="144.16" x2="347.64" y2="142.25" stroke="#e7cfa0" stroke-width="0.6" opacity="0.12"/>
  <line x1="253.71" y1="52.57" x2="256.33" y2="51.92" stroke="#e7cfa0" stroke-width="0.6" opacity="0.05"/>
  <line x1="291.23" y1="262.94" x2="290.44" y2="263.88" stroke="#e7cfa0" stroke-width="0.6" opacity="0.15"/>
  <line x1="9.84" y1="250.79" x2="9.82" y2="251.92" stroke="#e7cfa0" stroke-width="0.6" opacity="0.09"/>
  <line x1="396.55" y1="108.37" x2="398.72" y2="110.94" stroke="#e7cfa0" stroke-width="0.6" opacity="0.06"/>
  <line x1="381.05" y1="36.52" x2="378.57" y2="38.84" stroke="#e7cfa0" stroke-width="0.6" opacity="0.06"/>
  <line x1="136.46" y1="180.3" x2="135.63" y2="181.51" stroke="#e7cfa0" stroke-width="0.6" opacity="0.08"/>
  <line x1="300.4" y1="232.73" x2="299.63" y2="231.8" stroke="#e7cfa0" stroke-width="0.6" opacity="0.09"/>
  <line x1="104.06" y1="194.24" x2="103.27" y2="192.54" stroke="#e7cfa0" stroke-width="0.6" opacity="0.08"/>
  <line x1="31.79" y1="299.63" x2="33.62" y2="299.5" stroke="#e7cfa0" stroke-width="0.6" opacity="0.05"/>
  <line x1="275.11" y1="103.27" x2="274.91" y2="104.4" stroke="#e7cfa0" stroke-width="0.6" opacity="0.09"/>
  <line x1="294.91" y1="57.82" x2="297.55" y2="58.29" stroke="#e7cfa0" stroke-width="0.6" opacity="0.14"/>
  <line x1="244.24" y1="296.85" x2="241.77" y2="294.04" stroke="#e7cfa0" stroke-width="0.6" opacity="0.11"/>
  <line x1="348.52" y1="37.12" x2="349.94" y2="38.52" stroke="#e7cfa0" stroke-width="0.6" opacity="0.05"/>
  <line x1="196.37" y1="95.36" x2="194.27" y2="93.34" stroke="#e7cfa0" stroke-width="0.6" opacity="0.08"/>
  <line x1="394.97" y1="145.75" x2="396.25" y2="147.95" stroke="#e7cfa0" stroke-width="0.6" opacity="0.08"/>
  <line x1="266.44" y1="141.63" x2="269.01" y2="141.04" stroke="#e7cfa0" stroke-width="0.6" opacity="0.15"/>
  <line x1="169.34" y1="183.67" x2="167.22" y2="185.79" stroke="#e7cfa0" stroke-width="0.6" opacity="0.08"/>
  <line x1="77.22" y1="170.52" x2="80.99" y2="169.99" stroke="#e7cfa0" stroke-width="0.6" opacity="0.12"/>
  <line x1="254.89" y1="189.35" x2="255.75" y2="186.4" stroke="#e7cfa0" stroke-width="0.6" opacity="0.06"/>
  <line x1="146.96" y1="231.22" x2="147.56" y2="234.7" stroke="#e7cfa0" stroke-width="0.6" opacity="0.11"/>
  <line x1="348.54" y1="155.17" x2="351.05" y2="156" stroke="#e7cfa0" stroke-width="0.6" opacity="0.1"/>
  <line x1="50.95" y1="14.88" x2="47.09" y2="14.26" stroke="#e7cfa0" stroke-width="0.6" opacity="0.1"/>
  <line x1="9.46" y1="166.85" x2="8.6" y2="169.36" stroke="#e7cfa0" stroke-width="0.6" opacity="0.15"/>
  <line x1="29.58" y1="19.9" x2="31.82" y2="17.3" stroke="#e7cfa0" stroke-width="0.6" opacity="0.08"/>
  <line x1="386.96" y1="160.73" x2="383.61" y2="160.06" stroke="#e7cfa0" stroke-width="0.6" opacity="0.06"/>
  <line x1="283.99" y1="138.53" x2="285.56" y2="138.91" stroke="#e7cfa0" stroke-width="0.6" opacity="0.04"/>
  <line x1="264.8" y1="242.24" x2="267.27" y2="243.21" stroke="#e7cfa0" stroke-width="0.6" opacity="0.04"/>
  <line x1="15.14" y1="89.14" x2="13.26" y2="89.55" stroke="#e7cfa0" stroke-width="0.6" opacity="0.14"/>
  <line x1="103.4" y1="14.57" x2="105.9" y2="12.74" stroke="#e7cfa0" stroke-width="0.6" opacity="0.09"/>
  <line x1="267.12" y1="18.17" x2="267.61" y2="14.23" stroke="#e7cfa0" stroke-width="0.6" opacity="0.1"/>
  <line x1="233.17" y1="121.09" x2="234.94" y2="120.47" stroke="#e7cfa0" stroke-width="0.6" opacity="0.1"/>
  <line x1="156.03" y1="172.6" x2="157.11" y2="171.46" stroke="#e7cfa0" stroke-width="0.6" opacity="0.09"/>
  <line x1="378.32" y1="152.45" x2="374.85" y2="152.6" stroke="#e7cfa0" stroke-width="0.6" opacity="0.05"/>
  <line x1="227.44" y1="266.64" x2="227.88" y2="265.56" stroke="#e7cfa0" stroke-width="0.6" opacity="0.14"/>
  <line x1="293.27" y1="3.86" x2="294.54" y2="1.82" stroke="#e7cfa0" stroke-width="0.6" opacity="0.11"/>
  <line x1="12.1" y1="254.21" x2="11.11" y2="254.95" stroke="#e7cfa0" stroke-width="0.6" opacity="0.06"/>
  <line x1="301.01" y1="132.46" x2="300.78" y2="134.82" stroke="#e7cfa0" stroke-width="0.6" opacity="0.14"/>
  <line x1="67.23" y1="40.25" x2="67.08" y2="38.87" stroke="#e7cfa0" stroke-width="0.6" opacity="0.1"/>
  <line x1="157.17" y1="254.01" x2="159.55" y2="255.06" stroke="#e7cfa0" stroke-width="0.6" opacity="0.1"/>
</svg>
