<svg xmlns="http://www.w3.org/2000/svg" viewBox="0 0 400 300" width="400" height="300" role="img" aria-label="history decorative background">
  <defs>
    <radialGradient id="grad-history-medium-10" cx="50%" cy="35%" r="80%">
      <stop offset="0%" stop-color="#caa15a" stop-opacity="0.10"/>
      <stop offset="100%" stop-color="#1b1305" stop-opacity="0"/>
    </radialGradient>
  </defs>
  <rect width="400" height="300" fill="#1b1305"/>
  <rect width="400" height="300" fill="url(#grad-history-medium-10)"/>
  <line x1="20" y1="150" x2="380" y2="150" stroke="#caa15a" stroke-width="1.6" opacity="0.4"/>
  <circle cx="20" cy="150" r="4" fill="#b5651d" opacity="0.6"/>
  <line x1="20" y1="150" x2="20" y2="131.72" stroke="#e7cfa0" stroke-width="1" opacity="0.3"/>
  <circle cx="92" cy="150" r="4" fill="#b5651d" opacity="0.6"/>
  <line x1="92" y1="150" x2="92" y2="172.68" stroke="#e7cfa0" stroke-width="1" opacity="0.3"/>
  <circle cx="164" cy="150" r="4" fill="#b5651d" opacity="0.6"/>
  <line x1="164" y1="150" x2="164" y2="123.87" stroke="#e7cfa0" stroke-width="1" opacity="0.3"/>
  <circle cx="236" cy="150" r="4" fill="#b5651d" opacity="0.6"/>
  <line x1="236" y1="150" x2="236" y2="161.87" stroke="#e7cfa0" stroke-width="1" opacity="0.3"/>
  <circle cx="308" cy="150" r="4" fill="#b5651d" opacity="0.6"/>
  <line x1="308" y1="150" x2="308" y2="129.15" stroke="#e7cfa0" stroke-width="1" opacity="0.3"/>
  <circle cx="380" cy="150" r="4" fill="#b5651d" opacity="0.6"/>
  <line x1="380" y1="150" x2="380" y2="160.51" stroke="#e7cfa0" stroke-width="1" opacity="0.3"/>
  <path d="M283.1,90.59 C283.92,97.26 281.02,107.16 276.02,112.34 C271.02,117.53 260.67,121.9 253.1,121.71 C245.54,121.53 234.51,116.42 230.64,111.23 C226.76,106.05 229.9,97.42 229.85,90.59 C229.79,83.75 226.45,74.76 230.32,70.23 C234.2,65.69 246.3,63.04 253.1,63.38 C259.9,63.73 266.11,67.75 271.11,72.28 C276.11,76.82 282.29,83.91 283.1,90.59 Z" fill="none" stroke="#caa15a" stroke-width="0.9" opacity="0.3"/>
  <path d="M306.92,90.59 C306.86,99.9 311.58,111.08 305.43,118.61 C299.28,126.14 281.79,132.8 270.01,135.77 C258.24,138.74 244.79,138.31 234.79,136.43 C224.79,134.55 215.15,132.12 209.99,124.48 C204.84,116.84 204.21,101.5 203.88,90.59 C203.55,79.68 202.23,66.6 208.02,59.03 C213.8,51.47 227.87,50.32 238.61,45.2 C249.35,40.07 261.26,25.36 272.46,28.28 C283.66,31.21 300.06,52.37 305.81,62.75 C311.55,73.14 306.98,81.28 306.92,90.59 Z" fill="none" stroke="#caa15a" stroke-width="0.9" opacity="0.27"/>
  <path d="M337.9,90.59 C338.9,111.03 323.54,144.03 309.41,157.85 C295.28,171.66 272.63,173.54 253.1,173.46 C233.58,173.38 207.72,171.2 192.26,157.39 C176.81,143.57 161.53,110.33 160.38,90.59 C159.23,70.85 169.89,52.35 185.34,38.94 C200.8,25.52 233.42,10.71 253.1,10.09 C272.78,9.47 289.27,21.8 303.4,35.21 C317.54,48.63 336.9,70.15 337.9,90.59 Z" fill="none" stroke="#caa15a" stroke-width="0.9" opacity="0.24"/>
  <path d="M346.37,90.59 C345.21,115.67 343.4,137.35 327.85,157.81 C312.31,178.27 279.12,212.18 253.1,213.33 C227.08,214.48 187.39,185.18 171.74,164.72 C156.09,144.26 158.03,116.43 159.21,90.59 C160.39,64.74 163.18,28.79 178.83,9.64 C194.48,-9.5 227.11,-23.9 253.1,-24.29 C279.1,-24.68 319.26,-11.84 334.8,7.3 C350.34,26.45 347.53,65.5 346.37,90.59 Z" fill="none" stroke="#caa15a" stroke-width="0.9" opacity="0.21"/>
  <path d="M382.82,90.59 C382.79,128.24 353.71,183.14 327.45,206.12 C301.19,229.1 259.42,239.34 225.26,228.45 C191.09,217.56 139.94,174.74 122.46,140.78 C104.98,106.83 103.38,56.82 120.36,24.7 C137.34,-7.42 189.79,-44.53 224.34,-51.94 C258.88,-59.36 301.24,-43.53 327.66,-19.78 C354.07,3.98 382.86,52.94 382.82,90.59 Z" fill="none" stroke="#caa15a" stroke-width="0.9" opacity="0.18"/>
  <path d="M423.77,90.59 C423.58,133.6 401.1,217.05 365.55,240.38 C330.01,263.71 258.23,244.09 210.52,230.56 C162.81,217.03 96.18,194.64 79.3,159.21 C62.43,123.78 86.69,57.81 109.28,17.98 C131.87,-21.86 171.92,-73.84 214.82,-79.79 C257.71,-85.73 331.82,-46.1 366.65,-17.7 C401.47,10.69 423.95,47.57 423.77,90.59 Z" fill="none" stroke="#caa15a" stroke-width="0.9" opacity="0.15"/>
</svg>
