<svg xmlns="http://www.w3.org/2000/svg" viewBox="0 0 960 540" width="960" height="540" role="img" aria-label="physics decorative background">
  <defs>
    <radialGradient id="grad-physics-large-04" cx="50%" cy="35%" r="80%">
      <stop offset="0%" stop-color="#5b8cff" stop-opacity="0.10"/>
      <stop offset="100%" stop-color="#0b1026" stop-opacity="0"/>
    </radialGradient>
  </defs>
  <rect width="960" height="540" fill="#0b1026"/>
  <rect width="960" height="540" fill="url(#grad-physics-large-04)"/>
  <circle cx="573.65" cy="250.2" r="33.75" fill="none" stroke="#9b6bff" stroke-width="1" opacity="0.28"/>
  <circle cx="573.65" cy="250.2" r="67.5" fill="none" stroke="#9b6bff" stroke-width="1" opacity="0.25"/>
  <circle cx="573.65" cy="250.2" r="101.25" fill="none" stroke="#9b6bff" stroke-width="1" opacity="0.22"/>
  <circle cx="573.65" cy="250.2" r="135" fill="none" stroke="#9b6bff" stroke-width="1" opacity="0.19"/>
  <circle cx="573.65" cy="250.2" r="168.75" fill="none" stroke="#9b6bff" stroke-width="1" opacity="0.16"/>
  <circle cx="573.65" cy="250.2" r="202.5" fill="none" stroke="#9b6bff" stroke-width="1" opacity="0.13"/>
  <circle cx="573.65" cy="250.2" r="236.25" fill="none" stroke="#9b6bff" stroke-width="1" opacity="0.1"/>
  <circle cx="573.65" cy="250.2" r="270" fill="none" stroke="#9b6bff" stroke-width="1" opacity="0.07"/>
  <circle cx="573.65" cy="250.2" r="303.75" fill="none" stroke="#9b6bff" stroke-width="1" opacity="0.04"/>
  <circle cx="573.65" cy="250.2" r="337.5" fill="none" stroke="#9b6bff" stroke-width="1" opacity="0.01"/>
  <line x1="573.65" y1="250.2" x2="816.46" y2="259.76" stroke="#5b8cff" stroke-width="0.6" opacity="0.12"/>
  <line x1="573.65" y1="250.2" x2="794.75" y2="351.02" stroke="#5b8cff" stroke-width="0.6" opacity="0.12"/>
  <line x1="573.65" y1="250.2" x2="709.8" y2="451.48" stroke="#5b8cff" stroke-width="0.6" opacity="0.12"/>
  <line x1="573.65" y1="250.2" x2="687.07" y2="465.1" stroke="#5b8cff" stroke-width="0.6" opacity="0.12"/>
  <line x1="573.65" y1="250.2" x2="587.69" y2="492.79" stroke="#5b8cff" stroke-width="0.6" opacity="0.12"/>
  <line x1="573.65" y1="250.2" x2="477.46" y2="473.35" stroke="#5b8cff" stroke-width="0.6" opacity="0.12"/>
  <line x1="573.65" y1="250.2" x2="449.51" y2="459.09" stroke="#5b8cff" stroke-width="0.6" opacity="0.12"/>
  <line x1="573.65" y1="250.2" x2="354.18" y2="354.5" stroke="#5b8cff" stroke-width="0.6" opacity="0.12"/>
  <line x1="573.65" y1="250.2" x2="336.03" y2="301.07" stroke="#5b8cff" stroke-width="0.6" opacity="0.12"/>
  <line x1="573.65" y1="250.2" x2="337.43" y2="193.18" stroke="#5b8cff" stroke-width="0.6" opacity="0.12"/>
  <line x1="573.65" y1="250.2" x2="370.18" y2="117.34" stroke="#5b8cff" stroke-width="0.6" opacity="0.12"/>
  <line x1="573.65" y1="250.2" x2="438.36" y2="48.34" stroke="#5b8cff" stroke-width="0.6" opacity="0.12"/>
  <line x1="573.65" y1="250.2" x2="485.59" y2="23.71" stroke="#5b8cff" stroke-width="0.6" opacity="0.12"/>
  <line x1="573.65" y1="250.2" x2="588.55" y2="7.65" stroke="#5b8cff" stroke-width="0.6" opacity="0.12"/>
  <line x1="573.65" y1="250.2" x2="682.09" y2="32.74" stroke="#5b8cff" stroke-width="0.6" opacity="0.12"/>
  <line x1="573.65" y1="250.2" x2="730.62" y2="64.7" stroke="#5b8cff" stroke-width="0.6" opacity="0.12"/>
  <line x1="573.65" y1="250.2" x2="790.18" y2="139.91" stroke="#5b8cff" stroke-width="0.6" opacity="0.12"/>
  <line x1="573.65" y1="250.2" x2="810.93" y2="197.77" stroke="#5b8cff" stroke-width="0.6" opacity="0.12"/>
  <polyline points="0,83.08 12,80.52 24,76.47 36,71.21 48,65.07 60,58.49 72,51.89 84,45.73 96,40.41 108,36.29 120,33.66 132,32.68 144,33.43 156,35.84 168,39.77 180,44.95 192,51.02 204,57.58 216,64.2 228,70.42 240,75.82 252,80.05 264,82.82 276,83.95 288,83.35 300,81.07 312,77.26 324,72.18 336,66.17 348,59.63 360,53.01 372,46.74 384,41.25 396,36.9 408,34 420,32.73 432,33.18 444,35.32 456,39 468,43.98 480,49.93 492,56.44 504,63.08 516,69.39 528,74.97 540,79.42 552,82.46 564,83.88 576,83.58 588,81.58 600,78.02 612,73.13 624,67.26 636,60.78 648,54.13 660,47.77 672,42.12 684,37.55 696,34.38 708,32.82 720,32.98 732,34.83 744,38.27 756,43.05 768,48.85 780,55.3 792,61.95 804,68.35 816,74.08 828,78.75 840,82.05 852,83.75 864,83.75 876,82.04 888,78.73 900,74.06 912,68.32 924,61.92 936,55.27 948,48.83 960,43.02" fill="none" stroke="#39d0d8" stroke-width="2.03" opacity="0.32"/>
  <polyline points="0,87.39 12,89.04 24,91.1 36,93.51 48,96.22 60,99.19 72,102.34 84,105.62 96,108.95 108,112.27 120,115.51 132,118.59 144,121.47 156,124.07 168,126.35 180,128.25 192,129.74 204,130.79 216,131.37 228,131.48 240,131.1 252,130.26 264,128.96 276,127.23 288,125.11 300,122.65 312,119.88 324,116.88 336,113.7 348,110.41 360,107.08 372,103.77 384,100.55 396,97.49 408,94.66 420,92.11 432,89.9 444,88.06 456,86.64 468,85.68 480,85.18 492,85.15 504,85.61 516,86.53 528,87.91 540,89.71 552,91.89 564,94.41 576,97.22 588,100.25 600,103.46 612,106.76 624,110.1 636,113.4 648,116.59 660,119.61 672,122.4 684,124.89 696,127.05 708,128.81 720,130.15 732,131.04 744,131.46 756,131.4 768,130.86 780,129.86 792,128.41 804,126.54 816,124.3 828,121.73 840,118.87 852,115.8 864,112.58 876,109.26 888,105.93 900,102.64 912,99.48 924,96.49 936,93.75 948,91.31 960,89.22" fill="none" stroke="#5b8cff" stroke-width="1.61" opacity="0.39"/>
  <polyline points="0,188.46 12,190.48 24,191.88 36,192.64 48,192.75 60,192.2 72,191 84,189.19 96,186.78 108,183.83 120,180.39 132,176.53 144,172.31 156,167.82 168,163.15 180,158.38 192,153.59 204,148.89 216,144.35 228,140.07 240,136.12 252,132.59 264,129.52 276,126.99 288,125.04 300,123.7 312,123.01 324,122.97 336,123.59 348,124.85 360,126.74 372,129.2 384,132.21 396,135.7 408,139.6 420,143.85 432,148.36 444,153.05 456,157.83 468,162.61 480,167.3 492,171.81 504,176.06 516,179.97 528,183.46 540,186.47 552,188.94 564,190.83 576,192.1 588,192.72 600,192.69 612,192 624,190.67 636,188.72 648,186.2 660,183.14 672,179.6 684,175.66 696,171.38 708,166.84 720,162.14 732,157.36 744,152.58 756,147.91 768,143.42 780,139.2 792,135.33 804,131.89 816,128.94 828,126.52 840,124.7 852,123.5 864,122.95 876,123.05 888,123.81 900,125.2 912,127.21 924,129.8 936,132.91 948,136.5 960,140.48" fill="none" stroke="#5b8cff" stroke-width="1.67" opacity="0.27"/>
  <polyline points="0,233.67 12,235.55 24,236.75 36,237.23 48,236.98 60,236.01 72,234.33 84,232.01 96,229.08 108,225.64 120,221.76 132,217.54 144,213.1 156,208.55 168,204 180,199.57 192,195.38 204,191.52 216,188.1 228,185.21 240,182.92 252,181.29 264,180.36 276,180.15 288,180.68 300,181.92 312,183.84 324,186.4 336,189.53 348,193.15 360,197.17 372,201.48 384,205.97 396,210.54 408,215.06 420,219.41 432,223.49 444,227.2 456,230.42 468,233.1 480,235.15 492,236.52 504,237.18 516,237.11 528,236.31 540,234.81 552,232.64 564,229.86 576,226.54 588,222.76 600,218.62 612,214.22 624,209.69 636,205.13 648,200.66 660,196.39 672,192.44 684,188.91 696,185.88 708,183.43 720,181.63 732,180.53 744,180.14 756,180.48 768,181.54 780,183.3 792,185.71 804,188.7 816,192.21 828,196.14 840,200.39 852,204.85 864,209.4 876,213.94 888,218.35 900,222.51 912,226.32 924,229.67 936,232.49 948,234.7 960,236.24" fill="none" stroke="#39d0d8" stroke-width="2.17" opacity="0.39"/>
  <polyline points="0,231.41 12,230.03 24,231.16 36,234.7 48,240.41 60,247.87 72,256.55 84,265.8 96,274.98 108,283.4 120,290.47 132,295.66 144,298.62 156,299.11 168,297.11 180,292.76 192,286.38 204,278.42 216,269.47 228,260.16 240,251.18 252,243.17 264,236.72 276,232.28 288,230.18 300,230.57 312,233.43 324,238.54 336,245.54 348,253.92 360,263.07 372,272.34 384,281.05 396,288.57 408,294.36 420,298 432,299.23 444,297.95 456,294.26 468,288.43 480,280.88 492,272.16 504,262.88 516,253.74 528,245.38 540,238.42 552,233.35 564,230.54 576,230.2 588,232.34 600,236.83 612,243.32 624,251.35 636,260.35 648,269.65 660,278.59 672,286.52 684,292.87 696,297.17 708,299.12 720,298.58 732,295.58 744,290.34 756,283.24 768,274.8 780,265.62 792,256.36 804,247.71 816,240.28 828,234.61 840,231.11 852,230.04 864,231.46 876,235.29 888,241.24 900,248.88 912,257.65 924,266.94 936,276.05 948,284.34 960,291.21" fill="none" stroke="#5b8cff" stroke-width="1.57" opacity="0.2"/>
  <polyline points="0,321.17 12,324.15 24,327.05 36,329.85 48,332.47 60,334.88 72,337.03 84,338.88 96,340.39 108,341.55 120,342.32 132,342.7 144,342.67 156,342.25 168,341.42 180,340.22 192,338.66 204,336.77 216,334.59 228,332.15 240,329.5 252,326.69 264,323.77 276,320.79 288,317.82 300,314.89 312,312.07 324,309.41 336,306.96 348,304.75 360,302.84 372,301.26 384,300.03 396,299.18 408,298.73 420,298.67 432,299.02 444,299.77 456,300.9 468,302.39 480,304.22 492,306.35 504,308.75 516,311.36 528,314.14 540,317.04 552,320.01 564,322.99 576,325.93 588,328.78 600,331.47 612,333.97 624,336.22 636,338.19 648,339.84 660,341.14 672,342.07 684,342.6 696,342.73 708,342.46 720,341.79 732,340.73 744,339.31 756,337.54 768,335.47 780,333.13 792,330.55 804,327.8 816,324.92 828,321.96 840,318.97 852,316.02 864,313.15 876,310.43 888,307.89 900,305.58 912,303.55 924,301.84 936,300.47 948,299.47 960,298.86" fill="none" stroke="#5b8cff" stroke-width="1.93" opacity="0.21"/>
  <polyline points="0,370.52 12,366.59 24,363.29 36,360.82 48,359.29 60,358.82 72,359.41 84,361.03 96,363.6 108,366.98 120,370.96 132,375.34 144,379.85 156,384.26 168,388.31 180,391.77 192,394.46 204,396.22 216,396.95 228,396.61 240,395.23 252,392.87 264,389.67 276,385.81 288,381.51 300,377 312,372.55 324,368.39 336,364.77 348,361.88 360,359.89 372,358.91 384,358.99 396,360.14 408,362.27 420,365.29 432,369.01 444,373.23 456,377.71 468,382.2 480,386.45 492,390.21 504,393.29 516,395.51 528,396.74 540,396.91 552,396.01 564,394.1 576,391.28 588,387.71 600,383.59 612,379.15 624,374.64 636,370.31 648,366.41 660,363.15 672,360.71 684,359.24 696,358.82 708,359.46 720,361.14 732,363.76 744,367.17 756,371.18 768,375.56 780,380.08 792,384.47 804,388.5 816,391.93 828,394.57 840,396.28 852,396.96 864,396.57 876,395.13 888,392.73 900,389.49 912,385.6 924,381.28 936,376.77 948,372.33 960,368.19" fill="none" stroke="#39d0d8" stroke-width="1.71" opacity="0.21"/>
  <polyline points="0,421.61 12,424.64 24,427.71 36,430.74 48,433.67 60,436.44 72,438.98 84,441.25 96,443.19 108,444.76 120,445.93 132,446.68 144,446.99 156,446.85 168,446.26 180,445.24 192,443.82 204,442.01 216,439.86 228,437.41 240,434.72 252,431.85 264,428.85 276,425.79 288,422.73 300,419.74 312,416.89 324,414.22 336,411.81 348,409.7 360,407.94 372,406.56 384,405.6 396,405.07 408,404.99 420,405.35 432,406.15 444,407.38 456,409 468,410.98 480,413.29 492,415.86 504,418.65 516,421.6 528,424.64 540,427.7 552,430.73 564,433.66 576,436.43 588,438.97 600,441.24 612,443.18 624,444.76 636,445.93 648,446.68 660,446.99 672,446.85 684,446.26 696,445.25 708,443.82 720,442.01 732,439.86 744,437.42 756,434.73 768,431.86 780,428.86 792,425.79 804,422.74 816,419.75 828,416.89 840,414.23 852,411.82 864,409.71 876,407.95 888,406.57 900,405.6 912,405.07 924,404.99 936,405.35 948,406.15 960,407.37" fill="none" stroke="#39d0d8" stroke-width="1.12" opacity="0.35"/>
  <polyline points="0,466.2 12,469.27 24,472.78 36,476.63 48,480.69 60,484.84 72,488.94 84,492.87 96,496.51 108,499.74 120,502.45 132,504.57 144,506.03 156,506.78 168,506.8 180,506.08 192,504.66 204,502.57 216,499.88 228,496.68 240,493.06 252,489.14 264,485.05 276,480.9 288,476.83 300,472.97 312,469.43 324,466.34 336,463.78 348,461.84 360,460.57 372,460.02 384,460.21 396,461.12 408,462.73 420,464.99 432,467.83 444,471.16 456,474.87 468,478.85 480,482.98 492,487.12 504,491.14 516,494.92 528,498.35 540,501.3 552,503.7 564,505.46 576,506.53 588,506.88 600,506.49 612,505.38 624,503.59 636,501.16 648,498.17 660,494.73 672,490.93 684,486.9 696,482.76 708,478.63 720,474.66 732,470.97 744,467.67 756,464.85 768,462.63 780,461.05 792,460.18 804,460.03 816,460.62 828,461.92 840,463.9 852,466.49 864,469.61 876,473.16 888,477.04 900,481.12 912,485.27 924,489.36 936,493.26 948,496.86 960,500.04" fill="none" stroke="#5b8cff" stroke-width="1.02" opacity="0.38"/>
</svg>
