<svg xmlns="http://www.w3.org/2000/svg" viewBox="0 0 960 540" width="960" height="540" role="img" aria-label="physics decorative background">
  <defs>
    <radialGradient id="grad-physics-large-03" cx="50%" cy="35%" r="80%">
      <stop offset="0%" stop-color="#5b8cff" stop-opacity="0.10"/>
      <stop offset="100%" stop-color="#0b1026" stop-opacity="0"/>
    </radialGradient>
  </defs>
  <rect width="960" height="540" fill="#0b1026"/>
  <rect width="960" height="540" fill="url(#grad-physics-large-03)"/>
  <polyline points="0,61.6 12,67.56 24,73.16 36,78.15 48,82.31 60,85.46 72,87.48 84,88.26 96,87.77 108,86.05 120,83.15 132,79.21 144,74.4 156,68.93 168,63.02 180,56.95 192,50.96 204,45.32 216,40.27 228,36.04 240,32.79 252,30.68 264,29.8 276,30.17 288,31.8 300,34.6 312,38.46 324,43.2 336,48.63 348,54.51 360,60.58 372,66.59 384,72.26 396,77.37 408,81.68 420,85.01 432,87.22 444,88.21 456,87.94 468,86.42 480,83.71 492,79.94 504,75.26 516,69.88 528,64.03 540,57.96 552,51.94 564,46.23 576,41.06 588,36.68 600,33.26 612,30.95 624,29.86 636,30.02 648,31.44 660,34.05 672,37.74 684,42.35 696,47.68 708,53.5 720,59.56 732,65.6 744,71.35 756,76.56 768,81.02 780,84.53 792,86.94 804,88.13 816,88.07 828,86.76 840,84.24 852,80.64 864,76.1 876,70.82 888,65.03 900,58.98 912,52.93 924,47.15 936,41.88 948,37.35 960,33.76" fill="none" stroke="#39d0d8" stroke-width="1.81" opacity="0.32"/>
  <polyline points="0,105.02 12,102.65 24,100.59 36,98.88 48,97.58 60,96.71 72,96.31 84,96.37 96,96.9 108,97.88 120,99.29 132,101.1 144,103.25 156,105.7 168,108.37 180,111.21 192,114.14 204,117.08 216,119.96 228,122.71 240,125.26 252,127.54 264,129.5 276,131.07 288,132.24 300,132.96 312,133.21 324,133 336,132.32 348,131.19 360,129.65 372,127.72 384,125.47 396,122.94 408,120.21 420,117.33 432,114.39 444,111.46 456,108.61 468,105.92 480,103.45 492,101.27 504,99.43 516,97.99 528,96.97 540,96.4 552,96.29 564,96.66 576,97.49 588,98.75 600,100.42 612,102.46 624,104.81 636,107.41 648,110.2 660,113.11 672,116.05 684,118.96 696,121.77 708,124.39 720,126.77 732,128.85 744,130.57 756,131.88 768,132.76 780,133.17 792,133.12 804,132.61 816,131.64 828,130.23 840,128.44 852,126.29 864,123.86 876,121.19 888,118.35 900,115.43 912,112.48 924,109.6 936,106.84 948,104.29 960,102" fill="none" stroke="#39d0d8" stroke-width="2.2" opacity="0.34"/>
  <polyline points="0,170.41 12,171.73 24,172.76 36,173.47 48,173.85 60,173.89 72,173.6 84,172.97 96,172.02 108,170.77 120,169.25 132,167.48 144,165.52 156,163.38 168,161.13 180,158.81 192,156.47 204,154.15 216,151.91 228,149.79 240,147.84 252,146.1 264,144.6 276,143.38 288,142.46 300,141.87 312,141.6 324,141.68 336,142.09 348,142.84 360,143.89 372,145.24 384,146.86 396,148.7 408,150.73 420,152.91 432,155.19 444,157.52 456,159.86 468,162.16 480,164.36 492,166.42 504,168.31 516,169.96 528,171.37 540,172.48 552,173.29 564,173.77 576,173.92 588,173.72 600,173.19 612,172.33 624,171.17 636,169.72 648,168.03 660,166.11 672,164.03 684,161.81 696,159.5 708,157.16 720,154.83 732,152.56 744,150.4 756,148.4 768,146.59 780,145.02 792,143.71 804,142.7 816,142.01 828,141.65 840,141.62 852,141.94 864,142.58 876,143.55 888,144.82 900,146.35 912,148.13 924,150.11 936,152.25 948,154.51 960,156.83" fill="none" stroke="#5b8cff" stroke-width="1.23" opacity="0.29"/>
  <polyline points="0,196.57 12,194.79 24,194.01 36,194.3 48,195.61 60,197.88 72,200.96 84,204.63 96,208.67 108,212.8 120,216.75 132,220.28 144,223.14 156,225.14 168,226.17 180,226.14 192,225.06 204,223.01 216,220.11 228,216.56 240,212.59 252,208.45 264,204.43 276,200.78 288,197.75 300,195.52 312,194.25 324,194.03 336,194.86 348,196.69 360,199.4 372,202.82 384,206.71 396,210.83 408,214.9 420,218.66 432,221.87 444,224.3 456,225.81 468,226.28 480,225.7 492,224.1 504,221.59 516,218.32 528,214.52 540,210.43 552,206.32 564,202.46 576,199.11 588,196.47 600,194.73 612,194 624,194.33 636,195.7 648,198.01 660,201.11 672,204.81 684,208.85 696,212.98 708,216.92 720,220.42 732,223.25 744,225.21 756,226.19 768,226.11 780,224.99 792,222.9 804,219.96 816,216.39 828,212.4 840,208.27 852,204.26 864,200.63 876,197.63 888,195.44 900,194.22 912,194.04 924,194.92 936,196.79 948,199.54 960,202.98" fill="none" stroke="#5b8cff" stroke-width="1.66" opacity="0.38"/>
  <polyline points="0,291.48 12,284.06 24,275.43 36,266.23 48,257.15 60,248.86 72,241.99 84,237.05 96,234.41 108,234.27 120,236.63 132,241.33 144,248.01 156,256.17 168,265.19 180,274.42 192,283.14 204,290.72 216,296.59 228,300.3 240,301.58 252,300.34 264,296.66 276,290.82 288,283.26 300,274.54 312,265.32 324,256.29 336,248.11 348,241.41 360,236.68 372,234.28 384,234.39 396,237 408,241.91 420,248.75 432,257.02 444,266.1 456,275.3 468,283.95 480,291.38 492,297.05 504,300.54 516,301.57 528,300.08 540,296.17 552,290.14 564,282.44 576,273.65 588,264.42 600,255.44 612,247.38 624,240.85 636,236.34 648,234.18 660,234.54 672,237.38 684,242.5 696,249.51 708,257.89 720,267.01 732,276.19 744,284.74 756,292.03 768,297.5 780,300.75 792,301.54 804,299.8 816,295.67 828,289.45 840,281.62 852,272.75 864,263.51 876,254.59 888,246.66 900,240.31 912,236.02 924,234.1 936,234.71 948,237.79 960,243.11" fill="none" stroke="#5b8cff" stroke-width="1.27" opacity="0.18"/>
  <polyline points="0,312.58 12,315.67 24,319.03 36,322.56 48,326.16 60,329.73 72,333.15 84,336.33 96,339.17 108,341.59 120,343.52 132,344.91 144,345.7 156,345.88 168,345.44 180,344.4 192,342.78 204,340.64 216,338.03 228,335.04 240,331.74 252,328.25 264,324.66 276,321.07 288,317.6 300,314.34 312,311.4 324,308.85 336,306.78 348,305.24 360,304.28 372,303.93 384,304.2 396,305.07 408,306.54 420,308.54 432,311.03 444,313.92 456,317.14 468,320.59 480,324.17 492,327.76 504,331.28 516,334.6 528,337.64 540,340.31 552,342.52 564,344.21 576,345.34 588,345.86 600,345.76 612,345.05 624,343.75 636,341.89 648,339.53 660,336.74 672,333.6 684,330.2 696,326.65 708,323.05 720,319.5 732,316.11 744,312.98 756,310.21 768,307.86 780,306.02 792,304.74 804,304.05 816,303.97 828,304.51 840,305.66 852,307.37 864,309.59 876,312.27 888,315.33 900,318.66 912,322.18 924,325.78 936,329.35 948,332.79 960,336" fill="none" stroke="#5b8cff" stroke-width="1.35" opacity="0.18"/>
  <polyline points="0,358.89 12,357.25 24,355.89 36,354.85 48,354.13 60,353.76 72,353.75 84,354.08 96,354.76 108,355.78 120,357.11 132,358.72 144,360.58 156,362.66 168,364.91 180,367.29 192,369.75 204,372.24 216,374.71 228,377.11 240,379.39 252,381.5 264,383.41 276,385.07 288,386.46 300,387.53 312,388.28 324,388.68 336,388.73 348,388.43 360,387.78 372,386.8 384,385.5 396,383.91 408,382.07 420,380.01 432,377.77 444,375.4 456,372.95 468,370.46 480,367.99 492,365.58 504,363.29 516,361.15 528,359.22 540,357.54 552,356.13 564,355.02 576,354.24 588,353.81 600,353.72 612,353.99 624,354.61 636,355.56 648,356.83 660,358.39 672,360.21 684,362.25 696,364.47 708,366.83 720,369.28 732,371.77 744,374.25 756,376.66 768,378.97 780,381.12 792,383.07 804,384.78 816,386.22 828,387.35 840,388.17 852,388.63 864,388.75 876,388.52 888,387.93 900,387.01 912,385.77 924,384.23 936,382.44 948,380.42 960,378.21" fill="none" stroke="#5b8cff" stroke-width="1.65" opacity="0.19"/>
  <polyline points="0,401.65 12,404.51 24,408.65 36,413.83 48,419.77 60,426.16 72,432.62 84,438.82 96,444.4 108,449.06 120,452.55 132,454.67 144,455.31 156,454.43 168,452.07 180,448.38 192,443.55 204,437.84 216,431.58 228,425.1 240,418.77 252,412.93 264,407.9 276,403.96 288,401.32 300,400.14 312,400.47 324,402.3 336,405.52 348,409.97 360,415.39 372,421.49 384,427.93 396,434.36 408,440.42 420,445.78 432,450.14 444,453.27 456,455 468,455.22 480,453.92 492,451.19 504,447.16 516,442.06 528,436.17 540,429.81 552,423.34 564,417.11 576,411.46 588,406.7 600,403.1 612,400.85 624,400.08 636,400.82 648,403.05 660,406.63 672,411.37 684,417.01 696,423.23 708,429.71 720,436.07 732,441.97 744,447.08 756,451.13 768,453.89 780,455.21 792,455.01 804,453.31 816,450.21 828,445.86 840,440.51 852,434.46 864,428.04 876,421.6 888,415.49 900,410.05 912,405.59 924,402.34 936,400.49 948,400.13 960,401.29" fill="none" stroke="#5b8cff" stroke-width="1.78" opacity="0.19"/>
  <polyline points="0,452.96 12,449.34 24,446.37 36,444.11 48,442.6 60,441.89 72,441.97 84,442.86 96,444.53 108,446.94 120,450.06 132,453.81 144,458.12 156,462.9 168,468.06 180,473.49 192,479.07 204,484.7 216,490.26 228,495.64 240,500.72 252,505.41 264,509.6 276,513.22 288,516.19 300,518.45 312,519.95 324,520.66 336,520.58 348,519.69 360,518.02 372,515.6 384,512.48 396,508.72 408,504.41 420,499.63 432,494.47 444,489.04 456,483.46 468,477.83 480,472.27 492,466.9 504,461.81 516,457.13 528,452.93 540,449.32 552,446.35 564,444.09 576,442.6 588,441.89 600,441.98 612,442.87 624,444.54 636,446.97 648,450.09 660,453.84 672,458.16 684,462.94 696,468.1 708,473.53 720,479.12 732,484.74 744,490.3 756,495.68 768,500.76 780,505.44 792,509.64 804,513.25 816,516.21 828,518.47 840,519.96 852,520.67 864,520.57 876,519.68 888,518 900,515.57 912,512.45 924,508.69 936,504.37 948,499.59 960,494.43" fill="none" stroke="#5b8cff" stroke-width="1.35" opacity="0.25"/>
  <circle cx="288.2" cy="406.64" r="4.37" fill="#9b6bff" opacity="0.25"/>
  <circle cx="743.01" cy="323.63" r="5.62" fill="#5b8cff" opacity="0.34"/>
  <circle cx="849.41" cy="335.17" r="6.64" fill="#9b6bff" opacity="0.21"/>
  <line x1="849.41" y1="335.17" x2="827.84" y2="330.46" stroke="#9b6bff" stroke-width="0.8" opacity="0.18"/>
  <circle cx="203.7" cy="103.18" r="4.9" fill="#9b6bff" opacity="0.41"/>
  <line x1="203.7" y1="103.18" x2="188.04" y2="105.25" stroke="#9b6bff" stroke-width="0.8" opacity="0.18"/>
  <circle cx="698.97" cy="517.21" r="2.55" fill="#5b8cff" opacity="0.54"/>
  <circle cx="332.28" cy="211.17" r="3.15" fill="#9b6bff" opacity="0.43"/>
  <circle cx="923.33" cy="197.08" r="3.13" fill="#9b6bff" opacity="0.51"/>
  <circle cx="846.79" cy="168.31" r="3.07" fill="#39d0d8" opacity="0.43"/>
  <circle cx="129.57" cy="266.33" r="4.99" fill="#9b6bff" opacity="0.34"/>
  <circle cx="180.72" cy="314.58" r="2.5" fill="#5b8cff" opacity="0.45"/>
  <line x1="180.72" y1="314.58" x2="159.02" y2="317.99" stroke="#5b8cff" stroke-width="0.8" opacity="0.18"/>
  <circle cx="662.49" cy="461.58" r="6.3" fill="#39d0d8" opacity="0.51"/>
  <circle cx="903.79" cy="142.13" r="6.17" fill="#5b8cff" opacity="0.34"/>
  <circle cx="512.87" cy="104.07" r="6.81" fill="#39d0d8" opacity="0.27"/>
  <circle cx="452.88" cy="92.35" r="5.37" fill="#9b6bff" opacity="0.28"/>
  <circle cx="196.82" cy="223.48" r="5.88" fill="#39d0d8" opacity="0.22"/>
  <circle cx="581.72" cy="465.47" r="3.16" fill="#5b8cff" opacity="0.34"/>
  <line x1="581.72" y1="465.47" x2="571.06" y2="459.53" stroke="#5b8cff" stroke-width="0.8" opacity="0.18"/>
  <circle cx="448.2" cy="299.74" r="5.14" fill="#5b8cff" opacity="0.41"/>
  <circle cx="427.81" cy="208.73" r="2.84" fill="#5b8cff" opacity="0.52"/>
  <circle cx="211.87" cy="209.64" r="3.67" fill="#9b6bff" opacity="0.39"/>
  <circle cx="3.15" cy="360.55" r="4.75" fill="#39d0d8" opacity="0.49"/>
  <circle cx="183.44" cy="436.27" r="5.39" fill="#5b8cff" opacity="0.53"/>
  <circle cx="385.24" cy="78.06" r="2.47" fill="#5b8cff" opacity="0.41"/>
  <line x1="385.24" y1="78.06" x2="366.44" y2="73.02" stroke="#5b8cff" stroke-width="0.8" opacity="0.18"/>
  <circle cx="815.79" cy="332.87" r="3.81" fill="#9b6bff" opacity="0.24"/>
  <circle cx="859.79" cy="6.28" r="3.72" fill="#9b6bff" opacity="0.41"/>
  <circle cx="429.5" cy="144.98" r="4.26" fill="#5b8cff" opacity="0.31"/>
  <line x1="429.5" y1="144.98" x2="408.15" y2="149.33" stroke="#5b8cff" stroke-width="0.8" opacity="0.18"/>
  <circle cx="436.16" cy="270.81" r="7.03" fill="#5b8cff" opacity="0.42"/>
  <line x1="436.16" y1="270.81" x2="423.92" y2="270.83" stroke="#5b8cff" stroke-width="0.8" opacity="0.18"/>
  <circle cx="37.05" cy="0.76" r="6.48" fill="#5b8cff" opacity="0.42"/>
  <line x1="37.05" y1="0.76" x2="27.93" y2="-3.47" stroke="#5b8cff" stroke-width="0.8" opacity="0.18"/>
  <circle cx="51.6" cy="126.72" r="4.64" fill="#9b6bff" opacity="0.39"/>
  <circle cx="322.53" cy="157.76" r="6.08" fill="#5b8cff" opacity="0.36"/>
  <circle cx="441.06" cy="238.65" r="1.93" fill="#9b6bff" opacity="0.21"/>
  <circle cx="523.03" cy="480.36" r="7.06" fill="#9b6bff" opacity="0.2"/>
  <line x1="523.03" y1="480.36" x2="504.46" y2="481.72" stroke="#9b6bff" stroke-width="0.8" opacity="0.18"/>
  <circle cx="373.84" cy="15.64" r="3.28" fill="#39d0d8" opacity="0.26"/>
  <line x1="373.84" y1="15.64" x2="352.67" y2="14.01" stroke="#39d0d8" stroke-width="0.8" opacity="0.18"/>
  <circle cx="630.37" cy="248.36" r="6.5" fill="#5b8cff" opacity="0.38"/>
  <circle cx="656.54" cy="323.63" r="4.67" fill="#5b8cff" opacity="0.5"/>
  <circle cx="494.38" cy="294.43" r="5.65" fill="#39d0d8" opacity="0.27"/>
  <line x1="494.38" y1="294.43" x2="473.77" y2="299.31" stroke="#39d0d8" stroke-width="0.8" opacity="0.18"/>
  <circle cx="222.82" cy="43.94" r="4.77" fill="#39d0d8" opacity="0.37"/>
</svg>
