<svg xmlns="http://www.w3.org/2000/svg" viewBox="0 0 960 540" width="960" height="540" role="img" aria-label="physics decorative background">
  <defs>
    <radialGradient id="grad-physics-large-02" cx="50%" cy="35%" r="80%">
      <stop offset="0%" stop-color="#5b8cff" stop-opacity="0.10"/>
      <stop offset="100%" stop-color="#0b1026" stop-opacity="0"/>
    </radialGradient>
  </defs>
  <rect width="960" height="540" fill="#0b1026"/>
  <rect width="960" height="540" fill="url(#grad-physics-large-02)"/>
  <circle cx="861.37" cy="485.27" r="5.01" fill="#39d0d8" opacity="0.35"/>
  <line x1="861.37" y1="485.27" x2="853.17" y2="485.61" stroke="#39d0d8" stroke-width="0.8" opacity="0.18"/>
  <circle cx="44.58" cy="180.23" r="3.34" fill="#39d0d8" opacity="0.53"/>
  <line x1="44.58" y1="180.23" x2="32.95" y2="182.91" stroke="#39d0d8" stroke-width="0.8" opacity="0.18"/>
  <circle cx="213.41" cy="361.6" r="6" fill="#39d0d8" opacity="0.41"/>
  <line x1="213.41" y1="361.6" x2="198.63" y2="359.57" stroke="#39d0d8" stroke-width="0.8" opacity="0.18"/>
  <circle cx="361.48" cy="539.96" r="2.72" fill="#5b8cff" opacity="0.5"/>
  <circle cx="112.21" cy="180.45" r="2.02" fill="#5b8cff" opacity="0.51"/>
  <circle cx="400.62" cy="284.65" r="3.8" fill="#9b6bff" opacity="0.5"/>
  <circle cx="713.28" cy="329.18" r="2.98" fill="#5b8cff" opacity="0.36"/>
  <circle cx="168.63" cy="345.39" r="5.64" fill="#39d0d8" opacity="0.26"/>
  <line x1="168.63" y1="345.39" x2="144.74" y2="340.59" stroke="#39d0d8" stroke-width="0.8" opacity="0.18"/>
  <circle cx="687.98" cy="103.35" r="2.14" fill="#5b8cff" opacity="0.27"/>
  <line x1="687.98" y1="103.35" x2="666.48" y2="98.65" stroke="#5b8cff" stroke-width="0.8" opacity="0.18"/>
  <circle cx="272.15" cy="199.41" r="2.97" fill="#5b8cff" opacity="0.26"/>
  <circle cx="303.6" cy="538.85" r="4.77" fill="#5b8cff" opacity="0.23"/>
  <circle cx="950.07" cy="95.44" r="2.45" fill="#9b6bff" opacity="0.52"/>
  <circle cx="13.28" cy="430.75" r="5.66" fill="#39d0d8" opacity="0.48"/>
  <circle cx="358.89" cy="11.96" r="3.09" fill="#39d0d8" opacity="0.47"/>
  <circle cx="770.07" cy="467.5" r="4.79" fill="#5b8cff" opacity="0.54"/>
  <circle cx="191.39" cy="4.82" r="6.95" fill="#5b8cff" opacity="0.44"/>
  <circle cx="920.77" cy="309.3" r="6.79" fill="#5b8cff" opacity="0.45"/>
  <circle cx="703.11" cy="339.26" r="5.77" fill="#39d0d8" opacity="0.27"/>
  <circle cx="767.54" cy="510.91" r="4.69" fill="#5b8cff" opacity="0.3"/>
  <circle cx="931.52" cy="408.8" r="4.58" fill="#39d0d8" opacity="0.21"/>
  <line x1="931.52" y1="408.8" x2="917.72" y2="410.11" stroke="#39d0d8" stroke-width="0.8" opacity="0.18"/>
  <circle cx="452.81" cy="131.72" r="4.66" fill="#39d0d8" opacity="0.4"/>
  <circle cx="369.17" cy="386.21" r="5.6" fill="#39d0d8" opacity="0.31"/>
  <circle cx="210.11" cy="270.91" r="6.19" fill="#39d0d8" opacity="0.24"/>
  <circle cx="25.83" cy="6.89" r="2.64" fill="#5b8cff" opacity="0.26"/>
  <line x1="25.83" y1="6.89" x2="14.15" y2="11.97" stroke="#5b8cff" stroke-width="0.8" opacity="0.18"/>
  <circle cx="137.5" cy="172.35" r="2.91" fill="#39d0d8" opacity="0.39"/>
  <circle cx="480.91" cy="320.92" r="4.12" fill="#9b6bff" opacity="0.31"/>
  <circle cx="752.07" cy="64.44" r="1.94" fill="#39d0d8" opacity="0.42"/>
  <circle cx="200.43" cy="514.54" r="2.22" fill="#5b8cff" opacity="0.37"/>
  <line x1="200.43" y1="514.54" x2="181.25" y2="512.66" stroke="#5b8cff" stroke-width="0.8" opacity="0.18"/>
  <circle cx="914.26" cy="206.16" r="3.15" fill="#39d0d8" opacity="0.2"/>
  <circle cx="473.37" cy="402.1" r="5.94" fill="#39d0d8" opacity="0.39"/>
  <line x1="473.37" y1="402.1" x2="460.43" y2="401.76" stroke="#39d0d8" stroke-width="0.8" opacity="0.18"/>
  <circle cx="171.57" cy="470.57" r="5.93" fill="#9b6bff" opacity="0.54"/>
  <line x1="171.57" y1="470.57" x2="153.91" y2="471.7" stroke="#9b6bff" stroke-width="0.8" opacity="0.18"/>
  <circle cx="80.13" cy="472.84" r="6.16" fill="#9b6bff" opacity="0.29"/>
  <circle cx="791.31" cy="332.38" r="2.67" fill="#5b8cff" opacity="0.34"/>
  <circle cx="284.01" cy="34.55" r="6.04" fill="#39d0d8" opacity="0.2"/>
  <circle cx="686.12" cy="269.83" r="3.19" fill="#39d0d8" opacity="0.35"/>
  <circle cx="427.34" cy="197.34" r="4.62" fill="#39d0d8" opacity="0.25"/>
  <line x1="427.34" y1="197.34" x2="416.72" y2="201.45" stroke="#39d0d8" stroke-width="0.8" opacity="0.18"/>
  <polyline points="0,69.66 12,68.85 24,67.53 36,65.77 48,63.63 60,61.21 72,58.59 84,55.88 96,53.21 108,50.66 120,48.36 132,46.39 144,44.83 156,43.75 168,43.19 180,43.17 192,43.69 204,44.74 216,46.27 228,48.21 240,50.5 252,53.03 264,55.7 276,58.4 288,61.03 300,63.48 312,65.64 324,67.43 336,68.77 348,69.62 360,69.93 372,69.7 384,68.93 396,67.65 408,65.92 420,63.81 432,61.4 444,58.79 456,56.09 468,53.41 480,50.85 492,48.52 504,46.52 516,44.93 528,43.81 540,43.21 552,43.15 564,43.63 576,44.64 588,46.14 600,48.05 612,50.32 624,52.83 636,55.49 648,58.2 660,60.84 672,63.3 684,65.49 696,67.31 708,68.69 720,69.57 732,69.93 744,69.73 756,69 768,67.76 780,66.06 792,63.98 804,61.59 816,58.99 828,56.29 840,53.6 852,51.04 864,48.69 876,46.66 888,45.04 900,43.88 912,43.24 924,43.14 936,43.58 948,44.55 960,46.01" fill="none" stroke="#39d0d8" stroke-width="1.11" opacity="0.2"/>
  <polyline points="0,72.08 12,74.47 24,78.5 36,83.98 48,90.64 60,98.16 72,106.17 84,114.27 96,122.09 108,129.22 120,135.33 132,140.12 144,143.36 156,144.88 168,144.62 180,142.58 192,138.87 204,133.66 216,127.21 228,119.84 240,111.9 252,103.78 264,95.88 276,88.58 288,82.23 300,77.16 312,73.59 324,71.71 336,71.61 348,73.3 360,76.69 372,81.61 384,87.83 396,95.04 408,102.9 420,111.01 432,118.99 444,126.44 456,133.01 468,138.36 480,142.25 492,144.48 504,144.94 516,143.61 528,140.56 540,135.93 552,129.95 564,122.91 576,115.15 588,107.06 600,99.02 612,91.43 624,84.66 636,79.04 648,74.84 660,72.26 672,71.44 684,72.41 696,75.12 708,79.45 720,85.18 732,92.03 744,99.67 756,107.73 768,115.81 780,123.52 792,130.48 804,136.36 816,140.87 828,143.79 840,144.97 852,144.36 864,141.99 876,137.98 888,132.51 900,125.86 912,118.35 924,110.35 936,102.24 948,94.42 960,87.28" fill="none" stroke="#5b8cff" stroke-width="1.54" opacity="0.16"/>
  <polyline points="0,168.46 12,167.31 24,165.85 36,164.14 48,162.2 60,160.09 72,157.85 84,155.53 96,153.2 108,150.89 120,148.67 132,146.59 144,144.7 156,143.03 168,141.64 180,140.54 192,139.77 204,139.35 216,139.28 228,139.56 240,140.19 252,141.16 264,142.44 276,144 288,145.81 300,147.82 312,149.99 324,152.27 336,154.6 348,156.93 360,159.21 372,161.38 384,163.39 396,165.2 408,166.76 420,168.04 432,169.01 444,169.64 456,169.93 468,169.85 480,169.43 492,168.66 504,167.56 516,166.17 528,164.5 540,162.61 552,160.53 564,158.31 576,156 588,153.67 600,151.35 612,149.11 624,147 636,145.06 648,143.35 660,141.89 672,140.74 684,139.9 696,139.4 708,139.26 720,139.47 732,140.04 744,140.94 756,142.16 768,143.67 780,145.43 792,147.4 804,149.55 816,151.8 828,154.13 840,156.46 852,158.75 864,160.95 876,163 888,164.85 900,166.47 912,167.8 924,168.84 936,169.54 948,169.9 960,169.9" fill="none" stroke="#5b8cff" stroke-width="1.61" opacity="0.28"/>
  <polyline points="0,228.74 12,235.11 24,241 36,246.23 48,250.62 60,254.04 72,256.37 84,257.53 96,257.5 108,256.28 120,253.89 132,250.43 144,245.99 156,240.73 168,234.8 180,228.41 192,221.76 204,215.06 216,208.52 228,202.36 240,196.78 252,191.95 264,188.03 276,185.14 288,183.38 300,182.81 312,183.44 324,185.25 336,188.18 348,192.15 360,197.02 372,202.63 384,208.81 396,215.36 408,222.06 420,228.71 432,235.08 444,240.98 456,246.21 468,250.6 480,254.02 492,256.36 504,257.53 516,257.51 528,256.29 540,253.91 552,250.44 564,246.01 576,240.75 588,234.83 600,228.44 612,221.79 624,215.09 636,208.55 648,202.39 660,196.8 672,191.97 684,188.04 696,185.15 708,183.39 720,182.81 732,183.43 744,185.24 756,188.17 768,192.13 780,196.99 792,202.6 804,208.78 816,215.33 828,222.03 840,228.68 852,235.05 864,240.95 876,246.19 888,250.59 900,254.01 912,256.35 924,257.53 936,257.51 948,256.29 960,253.92" fill="none" stroke="#5b8cff" stroke-width="2.17" opacity="0.26"/>
  <polyline points="0,277.24 12,281.61 24,285.77 36,289.57 48,292.88 60,295.56 72,297.52 84,298.7 96,299.04 108,298.54 120,297.21 132,295.1 144,292.29 156,288.88 168,285 180,280.78 192,276.39 204,271.98 216,267.72 228,263.76 240,260.24 252,257.3 264,255.03 276,253.54 288,252.86 300,253.02 312,254.03 324,255.83 336,258.37 348,261.55 360,265.26 372,269.36 384,273.7 396,278.12 408,282.46 420,286.56 432,290.28 444,293.46 456,296.01 468,297.82 480,298.83 492,299.01 504,298.34 516,296.85 528,294.59 540,291.65 552,288.14 564,284.18 576,279.92 588,275.51 600,271.12 612,266.9 624,263.02 636,259.6 648,256.79 660,254.67 672,253.33 684,252.82 696,253.16 708,254.32 720,256.28 732,258.96 744,262.26 756,266.05 768,270.21 780,274.58 792,279 804,283.3 816,287.34 828,290.96 840,294.03 852,296.43 864,298.09 876,298.94 888,298.94 900,298.1 912,296.45 924,294.06 936,290.99 948,287.38 960,283.35" fill="none" stroke="#5b8cff" stroke-width="1.22" opacity="0.3"/>
  <polyline points="0,351.79 12,354.04 24,355.23 36,355.34 48,354.34 60,352.29 72,349.25 84,345.35 96,340.72 108,335.55 120,330.03 132,324.37 144,318.77 156,313.46 168,308.63 180,304.47 192,301.12 204,298.73 216,297.37 228,297.1 240,297.93 252,299.83 264,302.72 276,306.5 288,311.03 300,316.13 312,321.61 324,327.27 336,332.89 348,338.25 360,343.17 372,347.45 384,350.92 396,353.47 408,354.99 420,355.42 432,354.76 444,353.02 456,350.27 468,346.61 480,342.18 492,337.16 504,331.72 516,326.08 528,320.44 540,315.02 552,310.03 564,305.64 576,302.04 588,299.34 600,297.66 612,297.06 624,297.56 636,299.15 648,301.75 660,305.28 672,309.6 684,314.54 696,319.93 708,325.56 720,331.21 732,336.67 744,341.75 756,346.23 768,349.97 780,352.8 792,354.64 804,355.41 816,355.07 828,353.65 840,351.2 852,347.8 864,343.59 876,338.73 888,333.39 900,327.79 912,322.13 924,316.62 936,311.48 948,306.89 960,303.03" fill="none" stroke="#39d0d8" stroke-width="1.66" opacity="0.19"/>
  <polyline points="0,386.46 12,383.99 24,380.84 36,377.19 48,373.21 60,369.14 72,365.17 84,361.52 96,358.39 108,355.94 120,354.3 132,353.56 144,353.75 156,354.88 168,356.87 180,359.62 192,362.99 204,366.79 216,370.83 228,374.89 240,378.76 252,382.22 264,385.11 276,387.25 288,388.55 300,388.93 312,388.37 324,386.89 336,384.59 348,381.58 360,378.02 372,374.1 384,370.02 396,366.01 408,362.28 420,359.02 432,356.41 444,354.58 456,353.64 468,353.63 480,354.56 492,356.36 504,358.96 516,362.21 528,365.93 540,369.94 552,374.01 564,377.94 576,381.51 588,384.54 600,386.86 612,388.34 624,388.93 636,388.57 648,387.29 660,385.16 672,382.29 684,378.83 696,374.97 708,370.91 720,366.87 732,363.06 744,359.68 756,356.92 768,354.91 780,353.77 792,353.55 804,354.28 816,355.9 828,358.33 840,361.45 852,365.09 864,369.05 876,373.13 888,377.11 900,380.77 912,383.93 924,386.42 936,388.1 948,388.88 960,388.73" fill="none" stroke="#5b8cff" stroke-width="2.12" opacity="0.28"/>
  <polyline points="0,428.87 12,430.72 24,432.56 36,434.35 48,436.04 60,437.6 72,438.99 84,440.18 96,441.14 108,441.85 120,442.3 132,442.47 144,442.36 156,441.97 168,441.31 180,440.41 192,439.26 204,437.92 216,436.39 228,434.73 240,432.96 252,431.12 264,429.27 276,427.44 288,425.67 300,424 312,422.47 324,421.12 336,419.97 348,419.06 360,418.39 372,418 384,417.89 396,418.05 408,418.49 420,419.2 432,420.15 444,421.34 456,422.72 468,424.28 480,425.96 492,427.75 504,429.59 516,431.44 528,433.27 540,435.02 552,436.67 564,438.16 576,439.48 588,440.58 600,441.45 612,442.06 624,442.4 636,442.46 648,442.24 660,441.75 672,440.99 684,439.99 696,438.76 708,437.34 720,435.76 732,434.05 744,432.25 756,430.4 768,428.55 780,426.74 792,425 804,423.38 816,421.92 828,420.64 840,419.58 852,418.77 864,418.21 876,417.92 888,417.92 900,418.19 912,418.73 924,419.54 936,420.59 948,421.85 960,423.31" fill="none" stroke="#39d0d8" stroke-width="1.42" opacity="0.17"/>
  <polyline points="0,505.75 12,506.16 24,505.91 36,504.98 48,503.44 60,501.35 72,498.83 84,495.99 96,492.97 108,489.92 120,487 132,484.35 144,482.09 156,480.34 168,479.18 180,478.68 192,478.86 204,479.7 216,481.17 228,483.19 240,485.67 252,488.48 264,491.48 276,494.53 288,497.48 300,500.17 312,502.49 324,504.3 336,505.54 348,506.12 360,506.03 372,505.27 384,503.88 396,501.92 408,499.5 420,496.72 432,493.73 444,490.68 456,487.71 468,484.98 480,482.61 492,480.72 504,479.41 516,478.75 528,478.75 540,479.43 552,480.74 564,482.64 576,485.01 588,487.75 600,490.72 612,493.77 624,496.75 636,499.53 648,501.95 660,503.9 672,505.29 684,506.04 696,506.12 708,505.53 720,504.29 732,502.46 744,500.14 756,497.44 768,494.5 780,491.45 792,488.44 804,485.64 816,483.16 828,481.15 840,479.69 852,478.85 864,478.68 876,479.19 888,480.36 900,482.11 912,484.37 924,487.03 936,489.96 948,493 960,496.02" fill="none" stroke="#5b8cff" stroke-width="1.95" opacity="0.21"/>
</svg>
