<svg xmlns="http://www.w3.org/2000/svg" viewBox="0 0 960 540" width="960" height="540" role="img" aria-label="physics decorative background">
  <defs>
    <radialGradient id="grad-physics-large-06" cx="50%" cy="35%" r="80%">
      <stop offset="0%" stop-color="#5b8cff" stop-opacity="0.10"/>
      <stop offset="100%" stop-color="#0b1026" stop-opacity="0"/>
    </radialGradient>
  </defs>
  <rect width="960" height="540" fill="#0b1026"/>
  <rect width="960" height="540" fill="url(#grad-physics-large-06)"/>
  <polyline points="0,65.57 12,69.83 24,73.67 36,76.97 48,79.6 60,81.47 72,82.53 84,82.73 96,82.08 108,80.58 120,78.3 132,75.31 144,71.71 156,67.63 168,63.2 180,58.59 192,53.94 204,49.41 216,45.17 228,41.35 240,38.09 252,35.5 264,33.66 276,32.65 288,32.49 300,33.19 312,34.73 324,37.05 336,40.07 348,43.7 360,47.8 372,52.24 384,56.86 396,61.51 408,66.03 420,70.25 432,74.04 444,77.27 456,79.83 468,81.62 480,82.59 492,82.71 504,81.96 516,80.38 528,78.02 540,74.96 552,71.31 564,67.18 576,62.73 588,58.1 600,53.46 612,48.95 624,44.75 636,40.98 648,37.79 660,35.27 672,33.52 684,32.59 696,32.52 708,33.31 720,34.93 732,37.33 744,40.42 756,44.11 768,48.25 780,52.72 792,57.35 804,61.99 816,66.48 828,70.67 840,74.41 852,77.57 864,80.05 876,81.76 888,82.64 900,82.67 912,81.83 924,80.17 936,77.73 948,74.61 960,70.9" fill="none" stroke="#39d0d8" stroke-width="1.83" opacity="0.36"/>
  <polyline points="0,130.23 12,132.79 24,134.64 36,135.71 48,135.96 60,135.41 72,134.05 84,131.93 96,129.11 108,125.69 120,121.77 132,117.46 144,112.89 156,108.22 168,103.57 180,99.1 192,94.93 204,91.2 216,88.01 228,85.48 240,83.66 252,82.63 264,82.4 276,83 288,84.39 300,86.54 312,89.38 324,92.83 336,96.77 348,101.09 360,105.66 372,110.34 384,114.98 396,119.45 408,123.6 420,127.31 432,130.47 444,132.98 456,134.76 468,135.76 480,135.95 492,135.32 504,133.9 516,131.72 528,128.85 540,125.38 552,121.42 564,117.08 576,112.5 588,107.83 600,103.19 612,98.73 624,94.6 636,90.91 648,87.78 660,85.3 672,83.55 684,82.58 696,82.42 708,83.08 720,84.54 732,86.75 744,89.65 756,93.14 768,97.12 780,101.47 792,106.05 804,110.73 816,115.36 828,119.81 840,123.93 852,127.6 864,130.7 876,133.15 888,134.87 900,135.81 912,135.93 924,135.23 936,133.74 948,131.5 960,128.58" fill="none" stroke="#39d0d8" stroke-width="2" opacity="0.38"/>
  <polyline points="0,161.34 12,164.14 24,166.62 36,168.62 48,170.02 60,170.7 72,170.64 84,169.84 96,168.34 108,166.25 120,163.71 132,160.87 144,157.94 156,155.09 168,152.52 180,150.4 192,148.86 204,148.01 216,147.91 228,148.55 240,149.9 252,151.87 264,154.32 276,157.11 288,160.04 300,162.92 312,165.57 324,167.8 336,169.48 348,170.49 360,170.76 372,170.29 384,169.09 396,167.24 408,164.88 420,162.15 432,159.24 444,156.33 456,153.61 468,151.27 480,149.46 492,148.3 504,147.86 516,148.17 528,149.22 540,150.93 552,153.19 564,155.85 576,158.74 588,161.67 600,164.44 612,166.88 624,168.82 636,170.13 648,170.74 660,170.59 672,169.7 684,168.13 696,165.98 708,163.4 720,160.54 732,157.6 744,154.78 756,152.25 768,150.19 780,148.73 792,147.96 804,147.94 816,148.67 828,150.09 840,152.13 852,154.63 864,157.44 876,160.38 888,163.24 900,165.85 912,168.03 924,169.63 936,170.56 948,170.75 960,170.18" fill="none" stroke="#39d0d8" stroke-width="1.69" opacity="0.26"/>
  <polyline points="0,224.86 12,225.82 24,226.42 36,226.65 48,226.51 60,225.99 72,225.11 84,223.89 96,222.36 108,220.53 120,218.45 132,216.17 144,213.72 156,211.17 168,208.55 180,205.93 192,203.35 204,200.87 216,198.55 228,196.42 240,194.53 252,192.93 264,191.63 276,190.67 288,190.08 300,189.85 312,189.99 324,190.51 336,191.39 348,192.61 360,194.15 372,195.98 384,198.06 396,200.35 408,202.79 420,205.35 432,207.97 444,210.59 456,213.16 468,215.64 480,217.96 492,220.09 504,221.98 516,223.58 528,224.87 540,225.83 552,226.42 564,226.65 576,226.5 588,225.98 600,225.1 612,223.87 624,222.33 636,220.5 648,218.42 660,216.13 672,213.69 684,211.13 696,208.51 708,205.89 720,203.31 732,200.84 744,198.52 756,196.39 768,194.51 780,192.91 792,191.62 804,190.66 816,190.07 828,189.85 840,190 852,190.52 864,191.41 876,192.63 888,194.18 900,196.01 912,198.09 924,200.38 936,202.83 948,205.39 960,208.01" fill="none" stroke="#5b8cff" stroke-width="1.03" opacity="0.35"/>
  <polyline points="0,263.54 12,254.21 24,245.88 36,239.24 48,234.84 60,233.05 72,234.02 84,237.66 96,243.67 108,251.56 120,260.67 132,270.23 144,279.46 156,287.59 168,293.94 180,297.98 192,299.38 204,298.02 216,294.01 228,287.69 240,279.58 252,270.36 264,260.8 276,251.68 288,243.77 300,237.73 312,234.05 324,233.05 336,234.8 348,239.16 360,245.78 372,254.09 384,263.41 396,272.96 408,281.94 420,289.62 432,295.35 444,298.66 456,299.27 468,297.12 480,292.41 492,285.51 504,277.01 516,267.61 528,258.09 540,249.25 552,241.82 564,236.41 576,233.48 588,233.27 600,235.8 612,240.86 624,248.02 636,256.7 648,266.16 660,275.63 672,284.32 684,291.5 696,296.57 708,299.12 720,298.93 732,296.02 744,290.63 756,283.2 768,274.37 780,264.85 792,255.45 804,246.94 816,240.03 828,235.3 840,233.14 852,233.72 864,237.01 876,242.73 888,250.39 900,259.37 912,268.92 924,278.25 936,286.57 948,293.19 960,297.58" fill="none" stroke="#39d0d8" stroke-width="1.5" opacity="0.18"/>
  <polyline points="0,295.54 12,293.91 24,292.97 36,292.75 48,293.26 60,294.49 72,296.4 84,298.93 96,302.02 108,305.57 120,309.5 132,313.69 144,318.01 156,322.36 168,326.61 180,330.64 192,334.34 204,337.61 216,340.34 228,342.47 240,343.94 252,344.71 264,344.75 276,344.06 288,342.66 300,340.6 312,337.93 324,334.72 336,331.06 348,327.06 360,322.83 372,318.48 384,314.15 396,309.94 408,305.98 420,302.38 432,299.24 444,296.64 456,294.66 468,293.36 480,292.77 492,292.91 504,293.77 516,295.33 528,297.55 540,300.36 552,303.69 564,307.44 576,311.5 588,315.77 600,320.13 612,324.44 624,328.6 636,332.49 648,335.98 660,339 672,341.45 684,343.27 696,344.4 708,344.82 720,344.5 732,343.47 744,341.74 756,339.38 768,336.43 780,332.99 792,329.16 804,325.03 816,320.73 828,316.37 840,312.08 852,307.98 864,304.18 876,300.79 888,297.9 900,295.6 912,293.95 924,292.99 936,292.75 948,293.24 960,294.44" fill="none" stroke="#39d0d8" stroke-width="2.08" opacity="0.36"/>
  <polyline points="0,369.16 12,372.62 24,376.56 36,380.83 48,385.27 60,389.7 72,393.97 84,397.91 96,401.37 108,404.22 120,406.36 132,407.71 144,408.21 156,407.84 168,406.62 180,404.6 192,401.85 204,398.47 216,394.6 228,390.37 240,385.95 252,381.5 264,377.2 276,373.2 288,369.65 300,366.69 312,364.43 324,362.96 336,362.32 348,362.55 360,363.64 372,365.54 384,368.18 396,371.46 408,375.27 420,379.45 432,383.85 444,388.3 456,392.64 468,396.7 480,400.33 492,403.39 504,405.77 516,407.37 528,408.14 540,408.05 552,407.1 564,405.33 576,402.8 588,399.6 600,395.87 612,391.74 624,387.36 636,382.91 648,378.54 660,374.42 672,370.72 684,367.56 696,365.07 708,363.34 720,362.43 732,362.38 744,363.2 756,364.85 768,367.26 780,370.36 792,374.01 804,378.09 816,382.44 828,386.9 840,391.29 852,395.45 864,399.23 876,402.49 888,405.09 900,406.95 912,407.99 924,408.17 936,407.49 948,405.97 960,403.68" fill="none" stroke="#39d0d8" stroke-width="1.29" opacity="0.23"/>
  <polyline points="0,416.39 12,412.03 24,409.5 36,408.99 48,410.53 60,414.02 72,419.18 84,425.65 96,432.92 108,440.45 120,447.7 132,454.1 144,459.19 156,462.58 168,464.02 180,463.4 192,460.76 204,456.32 216,450.39 228,443.42 240,435.93 252,428.49 264,421.64 276,415.9 288,411.71 300,409.36 312,409.05 324,410.79 336,414.45 348,419.76 360,426.32 372,433.64 384,441.17 396,448.36 408,454.65 420,459.59 432,462.8 444,464.05 456,463.23 468,460.41 480,455.81 492,449.75 504,442.71 516,435.2 528,427.79 540,421.03 552,415.43 564,411.4 576,409.24 588,409.13 600,411.06 612,414.89 624,420.34 636,427 648,434.36 660,441.89 672,449.01 684,455.2 696,459.98 708,463.01 720,464.06 732,463.04 744,460.04 756,455.28 768,449.11 780,442 792,434.48 804,427.11 816,420.43 828,414.96 840,411.1 852,409.14 864,409.23 876,411.35 888,415.35 900,420.94 912,427.68 924,435.09 936,442.6 948,449.65 960,455.72" fill="none" stroke="#39d0d8" stroke-width="1.67" opacity="0.28"/>
  <polyline points="0,468.32 12,463.01 24,458.28 36,454.3 48,451.22 60,449.14 72,448.14 84,448.26 96,449.49 108,451.79 120,455.07 132,459.22 144,464.1 156,469.51 168,475.28 180,481.19 192,487.04 204,492.62 216,497.72 228,502.17 240,505.8 252,508.49 264,510.13 276,510.68 288,510.11 300,508.44 312,505.73 324,502.09 336,497.62 348,492.51 360,486.93 372,481.08 384,475.16 396,469.4 408,463.99 420,459.13 432,455 444,451.73 456,449.46 468,448.25 480,448.15 492,449.17 504,451.27 516,454.37 528,458.36 540,463.11 552,468.44 564,474.15 576,480.05 588,485.93 600,491.58 612,496.78 624,501.37 636,505.17 648,508.05 660,509.9 672,510.66 684,510.31 696,508.85 708,506.33 720,502.86 732,498.54 744,493.54 756,488.03 768,482.21 780,476.3 792,470.49 804,465 816,460.02 828,455.73 840,452.29 852,449.82 864,448.4 876,448.08 888,448.89 900,450.78 912,453.7 924,457.53 936,462.15 948,467.37 960,473.03" fill="none" stroke="#39d0d8" stroke-width="1.74" opacity="0.37"/>
</svg>
