<svg xmlns="http://www.w3.org/2000/svg" viewBox="0 0 960 540" width="960" height="540" role="img" aria-label="physics decorative background">
  <defs>
    <radialGradient id="grad-physics-large-09" cx="50%" cy="35%" r="80%">
      <stop offset="0%" stop-color="#5b8cff" stop-opacity="0.10"/>
      <stop offset="100%" stop-color="#0b1026" stop-opacity="0"/>
    </radialGradient>
  </defs>
  <rect width="960" height="540" fill="#0b1026"/>
  <rect width="960" height="540" fill="url(#grad-physics-large-09)"/>
  <polyline points="0,76.43 12,77.85 24,78.97 36,79.75 48,80.19 60,80.28 72,80 84,79.38 96,78.42 108,77.14 120,75.56 132,73.71 144,71.63 156,69.35 168,66.91 180,64.36 192,61.75 204,59.12 216,56.52 228,54.01 240,51.61 252,49.39 264,47.38 276,45.61 288,44.12 300,42.94 312,42.08 324,41.57 336,41.41 348,41.61 360,42.16 372,43.05 384,44.27 396,45.79 408,47.58 420,49.62 432,51.86 444,54.27 456,56.8 468,59.4 480,62.03 492,64.64 504,67.18 516,69.6 528,71.86 540,73.92 552,75.74 564,77.29 576,78.54 588,79.47 600,80.05 612,80.28 624,80.16 636,79.69 648,78.87 660,77.72 672,76.26 684,74.52 696,72.53 708,70.32 720,67.95 732,65.44 744,62.85 756,60.22 768,57.61 780,55.05 792,52.6 804,50.3 816,48.19 828,46.32 840,44.71 852,43.4 864,42.4 876,41.75 888,41.44 900,41.49 912,41.89 924,42.64 936,43.72 948,45.11 960,46.8" fill="none" stroke="#5b8cff" stroke-width="2.09" opacity="0.33"/>
  <polyline points="0,94.88 12,95.86 24,97.17 36,98.78 48,100.64 60,102.71 72,104.95 84,107.28 96,109.67 108,112.05 120,114.36 132,116.55 144,118.56 156,120.35 168,121.86 180,123.07 192,123.95 204,124.46 216,124.61 228,124.38 240,123.79 252,122.84 264,121.57 276,119.99 288,118.15 300,116.1 312,113.88 324,111.55 336,109.17 348,106.78 360,104.46 372,102.26 384,100.23 396,98.41 408,96.87 420,95.62 432,94.71 444,94.16 456,93.97 468,94.15 480,94.71 492,95.62 504,96.86 516,98.41 528,100.22 540,102.25 552,104.45 564,106.77 576,109.16 588,111.54 600,113.87 612,116.09 624,118.15 636,119.98 648,121.56 660,122.84 672,123.79 684,124.38 696,124.61 708,124.46 720,123.95 732,123.08 744,121.87 756,120.35 768,118.57 780,116.56 792,114.37 804,112.06 816,109.68 828,107.29 840,104.95 852,102.72 864,100.65 876,98.78 888,97.18 900,95.86 912,94.88 924,94.24 936,93.98 948,94.08 960,94.56" fill="none" stroke="#39d0d8" stroke-width="2.14" opacity="0.27"/>
  <polyline points="0,170.38 12,170.01 24,169.31 36,168.32 48,167.04 60,165.51 72,163.75 84,161.82 96,159.74 108,157.56 120,155.33 132,153.09 144,150.9 156,148.81 168,146.84 180,145.06 192,143.49 204,142.17 216,141.13 228,140.39 240,139.97 252,139.87 264,140.1 276,140.65 288,141.51 300,142.66 312,144.08 324,145.74 336,147.6 348,149.62 360,151.76 372,153.97 384,156.21 396,158.43 408,160.57 420,162.6 432,164.47 444,166.14 456,167.58 468,168.75 480,169.63 492,170.19 504,170.44 516,170.36 528,169.96 540,169.23 552,168.21 564,166.91 576,165.35 588,163.58 600,161.63 612,159.54 624,157.35 636,155.12 648,152.89 660,150.7 672,148.62 684,146.67 696,144.9 708,143.36 720,142.06 732,141.05 744,140.34 756,139.94 768,139.88 780,140.13 792,140.71 804,141.6 816,142.78 828,144.23 840,145.91 852,147.78 864,149.82 876,151.96 888,154.18 900,156.42 912,158.63 924,160.77 936,162.78 948,164.64 960,166.29" fill="none" stroke="#39d0d8" stroke-width="2.14" opacity="0.39"/>
  <polyline points="0,195.37 12,192.7 24,191.16 36,190.83 48,191.73 60,193.8 72,196.94 84,200.98 96,205.69 108,210.83 120,216.12 132,221.27 144,226.01 156,230.07 168,233.25 180,235.36 192,236.31 204,236.02 216,234.53 228,231.9 240,228.29 252,223.88 264,218.92 276,213.67 288,208.42 300,203.44 312,199.01 324,195.36 336,192.7 348,191.16 360,190.83 372,191.73 384,193.8 396,196.94 408,200.98 420,205.7 432,210.84 444,216.13 456,221.28 468,226.01 480,230.08 492,233.25 504,235.37 516,236.31 528,236.02 540,234.52 552,231.9 564,228.28 576,223.88 588,218.92 600,213.66 612,208.41 624,203.43 636,199 648,195.36 660,192.7 672,191.16 684,190.83 696,191.73 708,193.81 720,196.95 732,200.98 744,205.7 756,210.84 768,216.13 780,221.28 792,226.02 804,230.08 816,233.26 828,235.37 840,236.31 852,236.02 864,234.52 876,231.89 888,228.28 900,223.87 912,218.91 924,213.66 936,208.4 948,203.43 960,199" fill="none" stroke="#5b8cff" stroke-width="2.12" opacity="0.31"/>
  <polyline points="0,263.42 12,261.54 24,259.77 36,258.17 48,256.75 60,255.54 72,254.56 84,253.84 96,253.38 108,253.19 120,253.28 132,253.65 144,254.28 156,255.17 168,256.3 180,257.65 192,259.19 204,260.9 216,262.75 228,264.69 240,266.71 252,268.75 264,270.79 276,272.78 288,274.69 300,276.49 312,278.13 324,279.6 336,280.86 348,281.9 360,282.68 372,283.21 384,283.46 396,283.43 408,283.14 420,282.57 432,281.74 444,280.66 456,279.37 468,277.87 480,276.19 492,274.38 504,272.45 516,270.45 528,268.41 540,266.36 552,264.36 564,262.42 576,260.6 588,258.91 600,257.4 612,256.09 624,255 636,254.15 648,253.57 660,253.25 672,253.21 684,253.44 696,253.94 708,254.71 720,255.73 732,256.98 744,258.43 756,260.06 768,261.85 780,263.75 792,265.74 804,267.78 816,269.82 828,271.84 840,273.79 852,275.65 864,277.37 876,278.92 888,280.29 900,281.43 912,282.34 924,282.99 936,283.37 948,283.48 960,283.31" fill="none" stroke="#5b8cff" stroke-width="2.12" opacity="0.26"/>
  <polyline points="0,311.62 12,312.86 24,314.49 36,316.47 48,318.76 60,321.32 72,324.08 84,326.99 96,329.98 108,333 120,335.98 132,338.85 144,341.55 156,344.03 168,346.23 180,348.1 192,349.61 204,350.72 216,351.41 228,351.67 240,351.48 252,350.86 264,349.82 276,348.37 288,346.55 300,344.4 312,341.96 324,339.29 336,336.45 348,333.48 360,330.47 372,327.46 384,324.54 396,321.75 408,319.15 420,316.82 432,314.78 444,313.09 456,311.79 468,310.89 480,310.43 492,310.4 504,310.82 516,311.67 528,312.93 540,314.57 552,316.57 564,318.88 576,321.44 588,324.21 600,327.13 612,330.13 624,333.14 636,336.12 648,338.98 660,341.67 672,344.14 684,346.32 696,348.18 708,349.67 720,350.76 732,351.44 744,351.67 756,351.46 768,350.82 780,349.75 792,348.29 804,346.45 816,344.29 828,341.84 840,339.16 852,336.31 864,333.34 876,330.32 888,327.32 900,324.4 912,321.62 924,319.04 936,316.71 948,314.69 960,313.02" fill="none" stroke="#39d0d8" stroke-width="2.2" opacity="0.25"/>
  <polyline points="0,389.96 12,385.64 24,380.99 36,376.12 48,371.17 60,366.27 72,361.54 84,357.12 96,353.11 108,349.63 120,346.77 132,344.61 144,343.19 156,342.56 168,342.74 180,343.72 192,345.47 204,347.96 216,351.1 228,354.82 240,359.03 252,363.6 264,368.42 276,373.36 288,378.29 300,383.08 312,387.6 324,391.73 336,395.37 348,398.41 360,400.78 372,402.41 384,403.26 396,403.31 408,402.56 420,401.02 432,398.74 444,395.77 456,392.2 468,388.13 480,383.65 492,378.88 504,373.96 516,369.02 528,364.17 540,359.56 552,355.31 564,351.52 576,348.3 588,345.74 600,343.89 612,342.82 624,342.54 636,343.07 648,344.39 660,346.47 672,349.25 684,352.66 696,356.6 708,360.98 720,365.68 732,370.57 744,375.52 756,380.4 768,385.09 780,389.46 792,393.39 804,396.78 816,399.53 828,401.59 840,402.88 852,403.38 864,403.08 876,401.98 888,400.11 900,397.52 912,394.28 924,390.48 936,386.21 948,381.59 960,376.75" fill="none" stroke="#5b8cff" stroke-width="1.23" opacity="0.18"/>
  <polyline points="0,436.72 12,440.52 24,443.75 36,446.23 48,447.83 60,448.45 72,448.07 84,446.7 96,444.43 108,441.36 120,437.68 132,433.58 144,429.29 156,425.04 168,421.07 180,417.58 192,414.78 204,412.81 216,411.79 228,411.76 240,412.74 252,414.66 264,417.43 276,420.88 288,424.84 300,429.08 312,433.37 324,437.49 336,441.19 348,444.29 360,446.61 372,448.03 384,448.46 396,447.88 408,446.33 420,443.89 432,440.7 444,436.92 456,432.77 468,428.47 480,424.25 492,420.35 504,416.99 516,414.33 528,412.54 540,411.71 552,411.88 564,413.04 576,415.13 588,418.04 600,421.61 612,425.64 624,429.91 636,434.18 648,438.24 660,441.84 672,444.8 684,446.96 696,448.19 708,448.43 720,447.66 732,445.93 744,443.33 756,440.01 768,436.14 780,431.94 792,427.64 804,423.47 816,419.66 828,416.42 840,413.92 852,412.3 864,411.66 876,412.02 888,413.37 900,415.63 912,418.68 924,422.35 936,426.45 948,430.74 960,434.99" fill="none" stroke="#39d0d8" stroke-width="1.96" opacity="0.29"/>
  <polyline points="0,447.34 12,453.66 24,461.85 36,471.3 48,481.32 60,491.16 72,500.11 84,507.51 96,512.8 108,515.61 120,515.72 132,513.13 144,508.02 156,500.78 168,491.93 180,482.13 192,472.1 204,462.57 216,454.26 228,447.77 240,443.58 252,441.99 264,443.13 276,446.91 288,453.06 300,461.11 312,470.48 324,480.48 336,490.37 348,499.42 360,506.96 372,512.45 384,515.48 396,515.82 408,513.44 420,508.53 432,501.45 444,492.71 456,482.96 468,472.92 480,463.33 492,454.89 504,448.23 516,443.83 528,442.02 540,442.93 552,446.5 564,452.46 576,460.38 588,469.67 600,479.64 612,489.56 624,498.71 636,506.41 648,512.08 660,515.33 672,515.89 684,513.74 696,509.03 708,502.11 720,493.49 732,483.8 744,473.76 756,464.1 768,455.54 780,448.7 792,444.1 804,442.07 816,442.75 828,446.11 840,451.89 852,459.66 864,468.85 876,478.8 888,488.76 900,497.99 912,505.84 924,511.7 936,515.16 948,515.95 960,514.02" fill="none" stroke="#5b8cff" stroke-width="1.74" opacity="0.22"/>
  <circle cx="435.43" cy="175.4" r="33.75" fill="none" stroke="#9b6bff" stroke-width="1" opacity="0.28"/>
  <circle cx="435.43" cy="175.4" r="67.5" fill="none" stroke="#9b6bff" stroke-width="1" opacity="0.25"/>
  <circle cx="435.43" cy="175.4" r="101.25" fill="none" stroke="#9b6bff" stroke-width="1" opacity="0.22"/>
  <circle cx="435.43" cy="175.4" r="135" fill="none" stroke="#9b6bff" stroke-width="1" opacity="0.19"/>
  <circle cx="435.43" cy="175.4" r="168.75" fill="none" stroke="#9b6bff" stroke-width="1" opacity="0.16"/>
  <circle cx="435.43" cy="175.4" r="202.5" fill="none" stroke="#9b6bff" stroke-width="1" opacity="0.13"/>
  <circle cx="435.43" cy="175.4" r="236.25" fill="none" stroke="#9b6bff" stroke-width="1" opacity="0.1"/>
  <circle cx="435.43" cy="175.4" r="270" fill="none" stroke="#9b6bff" stroke-width="1" opacity="0.07"/>
  <circle cx="435.43" cy="175.4" r="303.75" fill="none" stroke="#9b6bff" stroke-width="1" opacity="0.04"/>
  <circle cx="435.43" cy="175.4" r="337.5" fill="none" stroke="#9b6bff" stroke-width="1" opacity="0.01"/>
  <line x1="435.43" y1="175.4" x2="678.09" y2="188.18" stroke="#5b8cff" stroke-width="0.6" opacity="0.12"/>
  <line x1="435.43" y1="175.4" x2="660.9" y2="266.01" stroke="#5b8cff" stroke-width="0.6" opacity="0.12"/>
  <line x1="435.43" y1="175.4" x2="591.38" y2="361.75" stroke="#5b8cff" stroke-width="0.6" opacity="0.12"/>
  <line x1="435.43" y1="175.4" x2="511.18" y2="406.29" stroke="#5b8cff" stroke-width="0.6" opacity="0.12"/>
  <line x1="435.43" y1="175.4" x2="467.31" y2="416.29" stroke="#5b8cff" stroke-width="0.6" opacity="0.12"/>
  <line x1="435.43" y1="175.4" x2="330.47" y2="394.56" stroke="#5b8cff" stroke-width="0.6" opacity="0.12"/>
  <line x1="435.43" y1="175.4" x2="285.39" y2="366.54" stroke="#5b8cff" stroke-width="0.6" opacity="0.12"/>
  <line x1="435.43" y1="175.4" x2="226.55" y2="299.58" stroke="#5b8cff" stroke-width="0.6" opacity="0.12"/>
  <line x1="435.43" y1="175.4" x2="194.91" y2="210.06" stroke="#5b8cff" stroke-width="0.6" opacity="0.12"/>
  <line x1="435.43" y1="175.4" x2="195.79" y2="135.12" stroke="#5b8cff" stroke-width="0.6" opacity="0.12"/>
  <line x1="435.43" y1="175.4" x2="232.95" y2="41.03" stroke="#5b8cff" stroke-width="0.6" opacity="0.12"/>
  <line x1="435.43" y1="175.4" x2="269.66" y2="-2.29" stroke="#5b8cff" stroke-width="0.6" opacity="0.12"/>
  <line x1="435.43" y1="175.4" x2="318.84" y2="-37.81" stroke="#5b8cff" stroke-width="0.6" opacity="0.12"/>
  <line x1="435.43" y1="175.4" x2="424.31" y2="-67.35" stroke="#5b8cff" stroke-width="0.6" opacity="0.12"/>
  <line x1="435.43" y1="175.4" x2="505.98" y2="-57.14" stroke="#5b8cff" stroke-width="0.6" opacity="0.12"/>
  <line x1="435.43" y1="175.4" x2="576.52" y2="-22.45" stroke="#5b8cff" stroke-width="0.6" opacity="0.12"/>
  <line x1="435.43" y1="175.4" x2="641.4" y2="46.47" stroke="#5b8cff" stroke-width="0.6" opacity="0.12"/>
  <line x1="435.43" y1="175.4" x2="677.12" y2="150.22" stroke="#5b8cff" stroke-width="0.6" opacity="0.12"/>
</svg>
