<svg xmlns="http://www.w3.org/2000/svg" viewBox="0 0 960 540" width="960" height="540" role="img" aria-label="history decorative background">
  <defs>
    <radialGradient id="grad-history-large-01" cx="50%" cy="35%" r="80%">
      <stop offset="0%" stop-color="#caa15a" stop-opacity="0.10"/>
      <stop offset="100%" stop-color="#1b1305" stop-opacity="0"/>
    </radialGradient>
  </defs>
  <rect width="960" height="540" fill="#1b1305"/>
  <rect width="960" height="540" fill="url(#grad-history-large-01)"/>
  <line x1="48" y1="270" x2="912" y2="270" stroke="#caa15a" stroke-width="1.6" opacity="0.4"/>
  <circle cx="48" cy="270" r="4" fill="#b5651d" opacity="0.6"/>
  <line x1="48" y1="270" x2="48" y2="248.04" stroke="#e7cfa0" stroke-width="1" opacity="0.3"/>
  <circle cx="144" cy="270" r="4" fill="#b5651d" opacity="0.6"/>
  <line x1="144" y1="270" x2="144" y2="291.13" stroke="#e7cfa0" stroke-width="1" opacity="0.3"/>
  <circle cx="240" cy="270" r="4" fill="#b5651d" opacity="0.6"/>
  <line x1="240" y1="270" x2="240" y2="247.95" stroke="#e7cfa0" stroke-width="1" opacity="0.3"/>
  <circle cx="336" cy="270" r="4" fill="#b5651d" opacity="0.6"/>
  <line x1="336" y1="270" x2="336" y2="292.52" stroke="#e7cfa0" stroke-width="1" opacity="0.3"/>
  <circle cx="432" cy="270" r="4" fill="#b5651d" opacity="0.6"/>
  <line x1="432" y1="270" x2="432" y2="259.67" stroke="#e7cfa0" stroke-width="1" opacity="0.3"/>
  <circle cx="528" cy="270" r="4" fill="#b5651d" opacity="0.6"/>
  <line x1="528" y1="270" x2="528" y2="290.2" stroke="#e7cfa0" stroke-width="1" opacity="0.3"/>
  <circle cx="624" cy="270" r="4" fill="#b5651d" opacity="0.6"/>
  <line x1="624" y1="270" x2="624" y2="254.98" stroke="#e7cfa0" stroke-width="1" opacity="0.3"/>
  <circle cx="720" cy="270" r="4" fill="#b5651d" opacity="0.6"/>
  <line x1="720" y1="270" x2="720" y2="296.18" stroke="#e7cfa0" stroke-width="1" opacity="0.3"/>
  <circle cx="816" cy="270" r="4" fill="#b5651d" opacity="0.6"/>
  <line x1="816" y1="270" x2="816" y2="250.22" stroke="#e7cfa0" stroke-width="1" opacity="0.3"/>
  <circle cx="912" cy="270" r="4" fill="#b5651d" opacity="0.6"/>
  <line x1="912" y1="270" x2="912" y2="293.63" stroke="#e7cfa0" stroke-width="1" opacity="0.3"/>
  <path d="M624.74,179.03 C625.33,185.38 626.29,192.68 623.16,197.13 C620.02,201.58 612.28,204.45 605.92,205.74 C599.57,207.03 591.16,206.21 585.04,204.89 C578.92,203.57 572.26,202.13 569.21,197.82 C566.16,193.51 566.48,185.33 566.72,179.03 C566.95,172.73 567.44,164.15 570.64,160.03 C573.85,155.92 580.12,156.32 585.95,154.34 C591.78,152.36 600.03,147.39 605.63,148.17 C611.23,148.95 616.39,153.88 619.58,159.02 C622.76,164.17 624.14,172.68 624.74,179.03 Z" fill="none" stroke="#caa15a" stroke-width="0.9" opacity="0.3"/>
  <path d="M663.86,179.03 C665.8,189.48 655.62,205.56 648.99,213.22 C642.36,220.89 634.66,221.47 624.08,225.01 C613.51,228.56 596.08,233.78 585.52,234.48 C574.97,235.18 568.89,235.38 560.77,229.19 C552.65,223.01 539.38,209.04 536.8,197.38 C534.22,185.73 541.77,170.55 545.3,159.25 C548.82,147.96 550.93,136.67 557.95,129.61 C564.98,122.54 577.28,118.45 587.43,116.85 C597.58,115.25 610.52,114.37 618.84,119.99 C627.17,125.6 629.87,140.7 637.37,150.54 C644.87,160.38 661.92,168.58 663.86,179.03 Z" fill="none" stroke="#caa15a" stroke-width="0.9" opacity="0.27"/>
  <path d="M698.68,179.03 C701.88,196.91 687.52,220.97 675.53,234.28 C663.54,247.58 644.86,254.07 626.75,258.86 C608.65,263.65 585.26,268.68 566.9,263.01 C548.53,257.34 529.5,238.85 516.56,224.85 C503.62,210.86 488.1,194.75 489.27,179.03 C490.44,163.31 511.1,144.54 523.58,130.52 C536.06,116.51 547.02,102.07 564.14,94.95 C581.26,87.83 610.93,82.49 626.3,87.83 C641.66,93.17 644.26,111.78 656.32,126.98 C668.39,142.18 695.48,161.15 698.68,179.03 Z" fill="none" stroke="#caa15a" stroke-width="0.9" opacity="0.24"/>
  <path d="M703.61,179.03 C701.49,199.33 710.47,218.78 700.49,235.92 C690.51,253.07 664.52,269.35 643.72,281.88 C622.92,294.42 595.06,315.59 575.68,311.12 C556.3,306.65 545.68,271.73 527.45,255.08 C509.21,238.42 477.41,229.44 466.29,211.19 C455.17,192.94 450.38,165.44 460.73,145.57 C471.09,125.69 508.43,106.73 528.39,91.94 C548.35,77.16 562.3,63.55 580.52,56.88 C598.74,50.2 615.58,42.35 637.69,51.89 C659.8,61.43 702.2,92.92 713.19,114.11 C724.17,135.3 705.73,158.73 703.61,179.03 Z" fill="none" stroke="#caa15a" stroke-width="0.9" opacity="0.21"/>
  <path d="M744.22,179.03 C740.63,219.13 711.25,287.34 681.57,310.92 C651.9,334.51 599.67,333.35 566.16,320.54 C532.65,307.73 498.65,269.24 480.53,234.07 C462.41,198.89 443.73,141.34 457.41,109.49 C471.1,77.63 521.69,49.46 562.64,42.93 C603.58,36.4 672.82,47.62 703.09,70.3 C733.35,92.99 747.8,138.92 744.22,179.03 Z" fill="none" stroke="#caa15a" stroke-width="0.9" opacity="0.18"/>
  <path d="M749.22,179.03 C745.82,223.19 738.79,275.49 713.16,303.07 C687.53,330.64 633.66,341.09 595.43,344.5 C557.21,347.92 519.07,351.13 483.82,323.55 C448.57,295.97 389.37,228.12 383.93,179.03 C378.48,129.94 415.89,53.73 451.14,29.01 C486.4,4.28 548.37,29.15 595.43,30.67 C642.5,32.18 707.89,13.37 733.52,38.09 C759.15,62.82 752.61,134.87 749.22,179.03 Z" fill="none" stroke="#caa15a" stroke-width="0.9" opacity="0.15"/>
  <path d="M785.9,179.03 C788.33,227.48 786.99,279.98 761.63,316.99 C736.27,354.01 679.69,398.76 633.73,401.15 C587.78,403.54 528.26,357.77 485.89,331.34 C443.53,304.91 392.26,280.39 379.54,242.57 C366.83,204.76 392.33,144.87 409.61,104.45 C426.89,64.03 446.88,18.95 483.23,0.05 C519.57,-18.84 583.71,-13.31 627.68,-8.94 C671.65,-4.57 720.69,-5.06 747.06,26.26 C773.43,57.59 783.47,130.57 785.9,179.03 Z" fill="none" stroke="#caa15a" stroke-width="0.9" opacity="0.12"/>
  <path d="M792.59,179.03 C792.67,221.68 844.28,276.59 828.93,317.1 C813.59,357.61 745.43,412.35 700.54,422.08 C655.65,431.82 607.72,388.91 559.6,375.52 C511.48,362.14 445.04,363.25 411.83,341.77 C378.61,320.28 365.82,284.53 360.31,246.61 C354.81,208.69 364.5,152.63 378.8,114.24 C393.1,75.85 416.03,49.88 446.1,16.27 C476.18,-17.35 519.65,-74.07 559.25,-87.46 C598.84,-100.85 638.84,-88.87 683.7,-64.09 C728.56,-39.31 810.26,20.69 828.41,61.21 C846.56,101.73 792.5,136.38 792.59,179.03 Z" fill="none" stroke="#caa15a" stroke-width="0.9" opacity="0.09"/>
  <path d="M896.22,179.03 C906.97,223.92 894.48,268.83 859.88,305.56 C825.28,342.29 739.2,380.74 688.63,399.42 C638.06,418.1 598.03,417.15 556.45,417.65 C514.86,418.15 475.76,430.42 439.13,402.41 C402.5,374.4 346.27,298.66 336.69,249.57 C327.1,200.48 369.24,148.92 381.63,107.87 C394.01,66.83 381.86,32.98 410.98,3.31 C440.1,-26.37 505.47,-61.4 556.35,-70.18 C607.23,-78.95 676.43,-67.07 716.28,-49.34 C756.12,-31.61 765.43,-1.86 795.42,36.21 C825.41,74.27 885.48,134.14 896.22,179.03 Z" fill="none" stroke="#caa15a" stroke-width="0.9" opacity="0.06"/>
  <path d="M883.39,179.03 C889.24,235.87 901.65,322.48 870.31,366.36 C838.98,410.23 754.62,429.43 695.37,442.29 C636.11,455.14 570.43,453.88 514.78,443.49 C459.12,433.1 394.91,424.03 361.43,379.95 C327.95,335.88 312.86,239.16 313.91,179.03 C314.96,118.9 334.69,63.85 367.75,19.19 C400.8,-25.47 457.89,-71.1 512.23,-88.96 C566.58,-106.81 640,-106.99 693.82,-87.95 C747.65,-68.9 803.61,-19.17 835.2,25.33 C866.8,69.82 877.54,122.19 883.39,179.03 Z" fill="none" stroke="#caa15a" stroke-width="0.9" opacity="0.03"/>
</svg>
