<svg xmlns="http://www.w3.org/2000/svg" viewBox="0 0 960 540" width="960" height="540" role="img" aria-label="history decorative background">
  <defs>
    <radialGradient id="grad-history-large-10" cx="50%" cy="35%" r="80%">
      <stop offset="0%" stop-color="#caa15a" stop-opacity="0.10"/>
      <stop offset="100%" stop-color="#1b1305" stop-opacity="0"/>
    </radialGradient>
  </defs>
  <rect width="960" height="540" fill="#1b1305"/>
  <rect width="960" height="540" fill="url(#grad-history-large-10)"/>
  <line x1="48" y1="270" x2="912" y2="270" stroke="#caa15a" stroke-width="1.6" opacity="0.4"/>
  <circle cx="48" cy="270" r="4" fill="#b5651d" opacity="0.6"/>
  <line x1="48" y1="270" x2="48" y2="249.72" stroke="#e7cfa0" stroke-width="1" opacity="0.3"/>
  <circle cx="144" cy="270" r="4" fill="#b5651d" opacity="0.6"/>
  <line x1="144" y1="270" x2="144" y2="295.97" stroke="#e7cfa0" stroke-width="1" opacity="0.3"/>
  <circle cx="240" cy="270" r="4" fill="#b5651d" opacity="0.6"/>
  <line x1="240" y1="270" x2="240" y2="250.13" stroke="#e7cfa0" stroke-width="1" opacity="0.3"/>
  <circle cx="336" cy="270" r="4" fill="#b5651d" opacity="0.6"/>
  <line x1="336" y1="270" x2="336" y2="294.59" stroke="#e7cfa0" stroke-width="1" opacity="0.3"/>
  <circle cx="432" cy="270" r="4" fill="#b5651d" opacity="0.6"/>
  <line x1="432" y1="270" x2="432" y2="252.72" stroke="#e7cfa0" stroke-width="1" opacity="0.3"/>
  <circle cx="528" cy="270" r="4" fill="#b5651d" opacity="0.6"/>
  <line x1="528" y1="270" x2="528" y2="286.85" stroke="#e7cfa0" stroke-width="1" opacity="0.3"/>
  <circle cx="624" cy="270" r="4" fill="#b5651d" opacity="0.6"/>
  <line x1="624" y1="270" x2="624" y2="258.29" stroke="#e7cfa0" stroke-width="1" opacity="0.3"/>
  <circle cx="720" cy="270" r="4" fill="#b5651d" opacity="0.6"/>
  <line x1="720" y1="270" x2="720" y2="296.04" stroke="#e7cfa0" stroke-width="1" opacity="0.3"/>
  <circle cx="816" cy="270" r="4" fill="#b5651d" opacity="0.6"/>
  <line x1="816" y1="270" x2="816" y2="249.01" stroke="#e7cfa0" stroke-width="1" opacity="0.3"/>
  <circle cx="912" cy="270" r="4" fill="#b5651d" opacity="0.6"/>
  <line x1="912" y1="270" x2="912" y2="286.43" stroke="#e7cfa0" stroke-width="1" opacity="0.3"/>
  <path d="M446.82,251.8 C446.98,259.96 439.23,270.51 433.94,276.22 C428.65,281.93 421.39,287.17 415.09,286.08 C408.79,284.99 401.15,275.41 396.13,269.69 C391.11,263.98 384.89,258.8 384.97,251.8 C385.04,244.81 391.55,233.55 396.57,227.71 C401.59,221.88 409.02,216.84 415.09,216.77 C421.16,216.7 427.7,221.45 432.99,227.29 C438.28,233.13 446.66,243.65 446.82,251.8 Z" fill="none" stroke="#caa15a" stroke-width="0.9" opacity="0.3"/>
  <path d="M477.25,251.8 C476.2,265.74 462.76,280.21 452.4,291.52 C442.04,302.83 428.12,319.61 415.09,319.67 C402.07,319.73 383.4,303.17 374.26,291.86 C365.13,280.55 360.29,266.46 360.3,251.8 C360.3,237.15 365.18,215.23 374.31,203.91 C383.44,192.59 401.03,183.22 415.09,183.89 C429.16,184.55 448.34,196.57 458.7,207.89 C469.06,219.21 478.3,237.87 477.25,251.8 Z" fill="none" stroke="#caa15a" stroke-width="0.9" opacity="0.27"/>
  <path d="M503.97,251.8 C504.54,276.28 498.28,309.37 483.47,325.53 C468.65,341.68 436.68,348.85 415.09,348.71 C393.51,348.57 371.13,340.84 353.95,324.69 C336.77,308.54 312.78,274.82 311.99,251.8 C311.2,228.79 332.02,202.59 349.2,186.61 C366.38,170.62 393.29,157.24 415.09,155.92 C436.9,154.59 465.21,162.68 480.02,178.66 C494.84,194.64 503.39,227.33 503.97,251.8 Z" fill="none" stroke="#caa15a" stroke-width="0.9" opacity="0.24"/>
  <path d="M541,251.8 C541.02,276.2 507.39,310.4 486.4,327.73 C465.42,345.06 442.43,356.82 415.09,355.77 C387.75,354.71 343.9,338.72 322.36,321.39 C300.83,304.06 283.99,278.56 285.89,251.8 C287.79,225.05 312.23,183.79 333.77,160.88 C355.3,137.96 389.68,110.88 415.09,114.3 C440.5,117.71 465.25,158.42 486.23,181.34 C507.22,204.26 540.97,227.41 541,251.8 Z" fill="none" stroke="#caa15a" stroke-width="0.9" opacity="0.21"/>
  <path d="M579.4,251.8 C579.57,293.59 529.55,366.06 495.97,388.95 C462.4,411.84 417.92,401.65 377.94,389.13 C337.97,376.61 273.54,345.78 256.12,313.83 C238.7,281.88 252.24,228.54 273.43,197.43 C294.61,166.31 346.32,137.01 383.24,127.15 C420.16,117.29 462.26,117.49 494.95,138.27 C527.65,159.05 579.23,210.02 579.4,251.8 Z" fill="none" stroke="#caa15a" stroke-width="0.9" opacity="0.18"/>
  <path d="M608.03,251.8 C607.61,294.18 563.37,360.04 525.43,387.1 C487.5,414.17 424.01,422.96 380.43,414.21 C336.85,405.46 281.33,372.66 263.95,334.61 C246.57,296.56 256.91,224.84 276.12,185.91 C295.33,146.99 337.24,109.89 379.23,101.05 C421.21,92.21 489.87,107.74 528.01,132.87 C566.14,157.99 608.46,209.43 608.03,251.8 Z" fill="none" stroke="#caa15a" stroke-width="0.9" opacity="0.15"/>
  <path d="M616.3,251.8 C620.04,294.48 634.42,336.09 612.28,373.28 C590.14,410.47 528.38,466.32 483.46,474.94 C438.55,483.56 387.49,440.15 342.8,425.01 C298.12,409.87 232.53,412.99 215.34,384.12 C198.16,355.25 238.69,296.47 239.71,251.8 C240.73,207.14 201.46,146.92 221.48,116.15 C241.49,85.38 315.94,72.86 359.8,67.18 C403.67,61.51 446.33,73.77 484.66,82.1 C522.99,90.44 567.86,88.93 589.8,117.21 C611.74,145.49 612.55,209.13 616.3,251.8 Z" fill="none" stroke="#caa15a" stroke-width="0.9" opacity="0.12"/>
  <path d="M641.52,251.8 C642.26,310.55 624.32,372.6 586.58,414.27 C548.84,455.94 475.38,504.5 415.09,501.83 C354.8,499.16 270.88,439.94 224.83,398.27 C178.77,356.6 134.58,300.53 138.77,251.8 C142.97,203.08 203.94,149.7 249.99,105.93 C296.04,62.16 359.73,-3.48 415.09,-10.83 C470.46,-18.18 544.43,18.05 582.17,61.82 C619.9,105.59 640.79,193.06 641.52,251.8 Z" fill="none" stroke="#caa15a" stroke-width="0.9" opacity="0.09"/>
  <path d="M722.95,251.8 C720.4,319.01 632.29,412.56 589.35,455.65 C546.41,498.73 520.51,510.65 465.31,510.31 C410.11,509.97 311.93,483.28 258.14,453.6 C204.34,423.92 161.9,381.41 142.52,332.23 C123.14,283.04 119.04,212.34 141.86,158.49 C164.68,104.63 227.11,44.03 279.43,9.09 C331.75,-25.86 401.58,-58.43 455.79,-51.2 C509.99,-43.97 560.14,1.94 604.66,52.44 C649.19,102.94 725.5,184.6 722.95,251.8 Z" fill="none" stroke="#caa15a" stroke-width="0.9" opacity="0.06"/>
  <path d="M745.7,251.8 C744.77,329.36 712.37,417.16 657.27,470.37 C602.17,523.57 492.76,567.46 415.09,571.05 C337.43,574.65 243.35,545.14 191.28,491.93 C139.21,438.72 103.36,330.94 102.67,251.8 C101.97,172.67 135.04,75.67 187.12,17.11 C239.19,-41.44 335.81,-97.52 415.09,-99.53 C494.38,-101.54 607.71,-53.52 662.81,5.04 C717.91,63.6 746.62,174.25 745.7,251.8 Z" fill="none" stroke="#caa15a" stroke-width="0.9" opacity="0.03"/>
</svg>
