<svg xmlns="http://www.w3.org/2000/svg" viewBox="0 0 960 540" width="960" height="540" role="img" aria-label="history decorative background">
  <defs>
    <radialGradient id="grad-history-large-02" cx="50%" cy="35%" r="80%">
      <stop offset="0%" stop-color="#caa15a" stop-opacity="0.10"/>
      <stop offset="100%" stop-color="#1b1305" stop-opacity="0"/>
    </radialGradient>
  </defs>
  <rect width="960" height="540" fill="#1b1305"/>
  <rect width="960" height="540" fill="url(#grad-history-large-02)"/>
  <path d="M607.89,213.69 C607.78,219.49 606.29,225.67 602.28,230.19 C598.28,234.7 589.86,239.08 583.85,240.77 C577.84,242.45 572.01,241.93 566.2,240.3 C560.4,238.68 552.15,235.45 549.02,231.02 C545.89,226.58 547.49,219.57 547.41,213.69 C547.33,207.8 545.32,201.08 548.54,195.71 C551.76,190.34 560.39,182.44 566.75,181.47 C573.12,180.51 580.72,187.6 586.75,189.92 C592.78,192.25 599.41,191.45 602.93,195.41 C606.45,199.37 608,207.89 607.89,213.69 Z" fill="none" stroke="#caa15a" stroke-width="0.9" opacity="0.3"/>
  <path d="M638.02,213.69 C637.39,230.24 632.17,251.67 621.82,263.09 C611.46,274.52 589.63,284.53 575.87,282.26 C562.11,279.98 550.09,260.88 539.25,249.45 C528.42,238.02 511.15,225.65 510.86,213.69 C510.57,201.73 526.66,189.04 537.5,177.71 C548.33,166.38 561.18,148.04 575.87,145.71 C590.55,143.39 615.26,152.43 625.62,163.76 C635.97,175.09 638.65,197.13 638.02,213.69 Z" fill="none" stroke="#caa15a" stroke-width="0.9" opacity="0.27"/>
  <path d="M675.67,213.69 C675.81,230.71 656.63,250.21 642.27,267.31 C627.92,284.41 608.15,311.93 589.52,316.27 C570.89,320.62 547.23,305.85 530.48,293.37 C513.73,280.88 496.84,260.55 489.02,241.38 C481.19,222.21 476.44,196.18 483.54,178.36 C490.64,160.53 513.58,141.51 531.63,134.42 C549.68,127.32 573.52,130.63 591.82,135.76 C610.12,140.89 627.45,152.22 641.42,165.21 C655.4,178.19 675.52,196.67 675.67,213.69 Z" fill="none" stroke="#caa15a" stroke-width="0.9" opacity="0.24"/>
  <path d="M675.14,213.69 C674.33,237.79 694.3,268.62 685.39,285.22 C676.49,301.82 643.16,302.75 621.7,313.29 C600.25,323.84 579.2,350 556.65,348.49 C534.1,346.99 503.66,321.72 486.4,304.27 C469.13,286.83 456.68,264.14 453.06,243.82 C449.45,223.51 457.76,205.16 464.72,182.4 C471.67,159.65 479.32,122.79 494.81,107.28 C510.3,91.77 537.24,90.8 557.65,89.35 C578.06,87.89 595.18,90 617.28,98.54 C639.38,107.08 680.61,121.41 690.25,140.6 C699.89,159.79 675.95,189.59 675.14,213.69 Z" fill="none" stroke="#caa15a" stroke-width="0.9" opacity="0.21"/>
  <path d="M722.68,213.69 C726.12,254.75 711.46,297.01 681.45,325.46 C651.43,353.92 583.6,393.44 542.57,384.4 C501.54,375.36 453.45,309.35 435.29,271.21 C417.14,233.07 416.2,185.89 433.64,155.54 C451.07,125.19 502.06,101.86 539.93,89.11 C577.79,76.37 630.36,58.31 660.82,79.07 C691.28,99.84 719.24,172.62 722.68,213.69 Z" fill="none" stroke="#caa15a" stroke-width="0.9" opacity="0.18"/>
  <path d="M783.3,213.69 C784.34,260.14 725.38,346.18 684.16,374.02 C642.93,401.87 582.33,393.97 535.94,380.74 C489.56,367.5 423.04,336.66 405.85,294.6 C388.65,252.54 411.23,169.46 432.78,128.38 C454.32,87.3 494.26,53.62 535.12,48.11 C575.98,42.6 636.57,67.71 677.94,95.31 C719.3,122.91 782.26,167.24 783.3,213.69 Z" fill="none" stroke="#caa15a" stroke-width="0.9" opacity="0.15"/>
  <path d="M758.8,213.69 C758.63,258.35 728.48,309.65 697.99,340.38 C667.5,371.11 617.84,390.03 575.87,398.05 C533.89,406.08 479.36,419.25 446.13,388.52 C412.91,357.8 383.58,268.12 376.5,213.69 C369.42,159.26 370.4,93.52 403.63,61.96 C436.86,30.41 526.64,22.62 575.87,24.36 C625.1,26.1 668.52,40.88 699.01,72.43 C729.5,103.98 758.97,169.03 758.8,213.69 Z" fill="none" stroke="#caa15a" stroke-width="0.9" opacity="0.12"/>
  <path d="M792.02,213.69 C793.86,263.93 817.89,309.3 787.63,350.71 C757.37,392.12 663.8,451.9 610.47,462.15 C557.14,472.39 517.66,438.94 467.66,412.19 C417.66,385.45 333.66,347.07 310.46,301.67 C287.26,256.27 303.74,190.1 328.46,139.79 C353.19,89.48 411.63,33.18 458.82,-0.2 C506.01,-33.57 558.64,-68.73 611.61,-60.49 C664.58,-52.24 746.55,3.59 776.62,49.29 C806.69,94.98 790.19,163.45 792.02,213.69 Z" fill="none" stroke="#caa15a" stroke-width="0.9" opacity="0.09"/>
  <path d="M864.51,213.69 C856.77,277.87 792.85,387.57 744.74,435.06 C696.63,482.55 635.1,507.12 575.87,498.61 C516.63,490.1 426.6,431.49 389.33,384 C352.05,336.51 355.5,274.71 352.23,213.69 C348.97,152.66 332.46,68.36 369.73,17.85 C407,-32.66 505.63,-94.71 575.87,-89.35 C646.11,-84 743.06,-0.52 791.17,49.99 C839.27,100.49 872.25,149.51 864.51,213.69 Z" fill="none" stroke="#caa15a" stroke-width="0.9" opacity="0.06"/>
  <path d="M876.72,213.69 C877.66,279.87 888.19,350.14 845.25,400.33 C802.31,450.51 686.17,501.11 619.08,514.79 C552,528.47 496.88,518.12 442.76,482.4 C388.64,446.68 317.47,361.74 294.39,300.47 C271.31,239.21 280.9,179.81 304.28,114.81 C327.66,49.8 381.24,-53.25 434.65,-89.56 C488.07,-125.88 557.27,-118.56 624.76,-103.09 C692.25,-87.62 797.61,-49.56 839.61,3.23 C881.6,56.03 875.78,147.51 876.72,213.69 Z" fill="none" stroke="#caa15a" stroke-width="0.9" opacity="0.03"/>
  <line x1="205.36" y1="206.48" x2="202.94" y2="206.52" stroke="#e7cfa0" stroke-width="0.6" opacity="0.06"/>
  <line x1="294.91" y1="241.54" x2="293.01" y2="238.21" stroke="#e7cfa0" stroke-width="0.6" opacity="0.13"/>
  <line x1="182.17" y1="408.16" x2="181.13" y2="407.57" stroke="#e7cfa0" stroke-width="0.6" opacity="0.13"/>
  <line x1="654.27" y1="209.38" x2="656.71" y2="210.98" stroke="#e7cfa0" stroke-width="0.6" opacity="0.14"/>
  <line x1="568.09" y1="94.82" x2="566.22" y2="96.16" stroke="#e7cfa0" stroke-width="0.6" opacity="0.13"/>
  <line x1="275.06" y1="397.11" x2="275.55" y2="399.91" stroke="#e7cfa0" stroke-width="0.6" opacity="0.12"/>
  <line x1="905.82" y1="301.53" x2="909.5" y2="302.07" stroke="#e7cfa0" stroke-width="0.6" opacity="0.04"/>
  <line x1="256.62" y1="291.08" x2="258.89" y2="291.36" stroke="#e7cfa0" stroke-width="0.6" opacity="0.08"/>
  <line x1="952.89" y1="417.08" x2="952.17" y2="416.3" stroke="#e7cfa0" stroke-width="0.6" opacity="0.08"/>
  <line x1="408.07" y1="10.7" x2="407.01" y2="9.07" stroke="#e7cfa0" stroke-width="0.6" opacity="0.06"/>
  <line x1="796.83" y1="426.05" x2="799.71" y2="427.41" stroke="#e7cfa0" stroke-width="0.6" opacity="0.08"/>
  <line x1="435.66" y1="419.82" x2="436.49" y2="420.51" stroke="#e7cfa0" stroke-width="0.6" opacity="0.12"/>
  <line x1="519.34" y1="17.68" x2="519.7" y2="16.44" stroke="#e7cfa0" stroke-width="0.6" opacity="0.14"/>
  <line x1="858.78" y1="355.71" x2="859.23" y2="358.64" stroke="#e7cfa0" stroke-width="0.6" opacity="0.09"/>
  <line x1="341.93" y1="266.3" x2="340.68" y2="266.53" stroke="#e7cfa0" stroke-width="0.6" opacity="0.09"/>
  <line x1="373.61" y1="23.86" x2="371.63" y2="26.19" stroke="#e7cfa0" stroke-width="0.6" opacity="0.14"/>
  <line x1="667.66" y1="59.18" x2="664.55" y2="59.5" stroke="#e7cfa0" stroke-width="0.6" opacity="0.07"/>
  <line x1="746.65" y1="168.92" x2="745.33" y2="169.37" stroke="#e7cfa0" stroke-width="0.6" opacity="0.12"/>
  <line x1="913.43" y1="213.05" x2="913.08" y2="214.87" stroke="#e7cfa0" stroke-width="0.6" opacity="0.08"/>
  <line x1="171.37" y1="257.61" x2="170.3" y2="257.85" stroke="#e7cfa0" stroke-width="0.6" opacity="0.08"/>
  <line x1="164.18" y1="423.3" x2="166.85" y2="425.84" stroke="#e7cfa0" stroke-width="0.6" opacity="0.12"/>
  <line x1="939.75" y1="405.07" x2="938.24" y2="404.48" stroke="#e7cfa0" stroke-width="0.6" opacity="0.16"/>
  <line x1="255.28" y1="465.23" x2="256.44" y2="464.59" stroke="#e7cfa0" stroke-width="0.6" opacity="0.04"/>
  <line x1="686.17" y1="502.4" x2="685.11" y2="501.27" stroke="#e7cfa0" stroke-width="0.6" opacity="0.08"/>
  <line x1="801.6" y1="516.85" x2="800.73" y2="517.71" stroke="#e7cfa0" stroke-width="0.6" opacity="0.15"/>
  <line x1="654.83" y1="147.31" x2="658.26" y2="149.01" stroke="#e7cfa0" stroke-width="0.6" opacity="0.11"/>
  <line x1="401.18" y1="392.24" x2="400.72" y2="393.94" stroke="#e7cfa0" stroke-width="0.6" opacity="0.06"/>
  <line x1="842.66" y1="421.92" x2="842.91" y2="420.74" stroke="#e7cfa0" stroke-width="0.6" opacity="0.1"/>
  <line x1="808.89" y1="407.32" x2="808.61" y2="403.84" stroke="#e7cfa0" stroke-width="0.6" opacity="0.07"/>
  <line x1="58.14" y1="489.6" x2="58.12" y2="490.76" stroke="#e7cfa0" stroke-width="0.6" opacity="0.11"/>
  <line x1="560.01" y1="18.89" x2="560.63" y2="20.49" stroke="#e7cfa0" stroke-width="0.6" opacity="0.12"/>
  <line x1="412.38" y1="155.48" x2="414.67" y2="155.42" stroke="#e7cfa0" stroke-width="0.6" opacity="0.14"/>
  <line x1="505.86" y1="507.65" x2="507.68" y2="508.3" stroke="#e7cfa0" stroke-width="0.6" opacity="0.08"/>
  <line x1="182.34" y1="401.78" x2="180.01" y2="402.1" stroke="#e7cfa0" stroke-width="0.6" opacity="0.06"/>
  <line x1="543.35" y1="30" x2="541.64" y2="30.65" stroke="#e7cfa0" stroke-width="0.6" opacity="0.13"/>
  <line x1="176.78" y1="7.68" x2="176.27" y2="9.09" stroke="#e7cfa0" stroke-width="0.6" opacity="0.14"/>
  <line x1="777.44" y1="325.02" x2="779.11" y2="327.1" stroke="#e7cfa0" stroke-width="0.6" opacity="0.06"/>
  <line x1="354.31" y1="43.45" x2="355.46" y2="40.75" stroke="#e7cfa0" stroke-width="0.6" opacity="0.11"/>
  <line x1="230.24" y1="67.05" x2="227.89" y2="67.29" stroke="#e7cfa0" stroke-width="0.6" opacity="0.13"/>
  <line x1="268.53" y1="47.98" x2="267.98" y2="49.13" stroke="#e7cfa0" stroke-width="0.6" opacity="0.11"/>
  <line x1="142.65" y1="163.26" x2="142.88" y2="160.82" stroke="#e7cfa0" stroke-width="0.6" opacity="0.12"/>
  <line x1="288.82" y1="127.51" x2="288.97" y2="129.93" stroke="#e7cfa0" stroke-width="0.6" opacity="0.04"/>
  <line x1="4.12" y1="83.81" x2="3.39" y2="84.94" stroke="#e7cfa0" stroke-width="0.6" opacity="0.04"/>
  <line x1="606.38" y1="168.44" x2="606.49" y2="169.78" stroke="#e7cfa0" stroke-width="0.6" opacity="0.09"/>
  <line x1="273.27" y1="83.68" x2="271.62" y2="82.74" stroke="#e7cfa0" stroke-width="0.6" opacity="0.06"/>
  <line x1="803.25" y1="109.3" x2="802.32" y2="110.36" stroke="#e7cfa0" stroke-width="0.6" opacity="0.16"/>
  <line x1="616.93" y1="483.38" x2="617.7" y2="485.28" stroke="#e7cfa0" stroke-width="0.6" opacity="0.07"/>
  <line x1="858.43" y1="203.19" x2="859.66" y2="205.35" stroke="#e7cfa0" stroke-width="0.6" opacity="0.09"/>
  <line x1="297.13" y1="283.8" x2="299.32" y2="282" stroke="#e7cfa0" stroke-width="0.6" opacity="0.12"/>
  <line x1="228.17" y1="272.24" x2="226.18" y2="270.82" stroke="#e7cfa0" stroke-width="0.6" opacity="0.12"/>
  <line x1="215.45" y1="133.73" x2="219.26" y2="132.95" stroke="#e7cfa0" stroke-width="0.6" opacity="0.05"/>
  <line x1="488.82" y1="388.08" x2="491.68" y2="386.62" stroke="#e7cfa0" stroke-width="0.6" opacity="0.06"/>
  <line x1="781.21" y1="168.9" x2="781.72" y2="171.47" stroke="#e7cfa0" stroke-width="0.6" opacity="0.14"/>
  <line x1="148.89" y1="496.02" x2="152.35" y2="497.68" stroke="#e7cfa0" stroke-width="0.6" opacity="0.05"/>
  <line x1="904.78" y1="133.83" x2="904.81" y2="131.79" stroke="#e7cfa0" stroke-width="0.6" opacity="0.11"/>
  <line x1="642.86" y1="413.83" x2="641.95" y2="412.77" stroke="#e7cfa0" stroke-width="0.6" opacity="0.12"/>
  <line x1="129.29" y1="5.91" x2="130.85" y2="7.88" stroke="#e7cfa0" stroke-width="0.6" opacity="0.11"/>
  <line x1="752.94" y1="508.19" x2="753.96" y2="505.22" stroke="#e7cfa0" stroke-width="0.6" opacity="0.05"/>
  <line x1="24" y1="277.75" x2="24.5" y2="276.62" stroke="#e7cfa0" stroke-width="0.6" opacity="0.15"/>
  <line x1="265.61" y1="321.25" x2="266.51" y2="320.01" stroke="#e7cfa0" stroke-width="0.6" opacity="0.12"/>
  <line x1="929.39" y1="4.46" x2="930.99" y2="2.34" stroke="#e7cfa0" stroke-width="0.6" opacity="0.06"/>
  <line x1="858.5" y1="75.04" x2="861.44" y2="72.84" stroke="#e7cfa0" stroke-width="0.6" opacity="0.07"/>
  <line x1="109.1" y1="138.77" x2="107.79" y2="137.66" stroke="#e7cfa0" stroke-width="0.6" opacity="0.14"/>
  <line x1="208.89" y1="141.89" x2="210.63" y2="141.93" stroke="#e7cfa0" stroke-width="0.6" opacity="0.1"/>
  <line x1="825.82" y1="444.6" x2="824.7" y2="446.6" stroke="#e7cfa0" stroke-width="0.6" opacity="0.13"/>
  <line x1="658.72" y1="422.87" x2="659.17" y2="419.4" stroke="#e7cfa0" stroke-width="0.6" opacity="0.14"/>
  <line x1="717.96" y1="90.74" x2="720.39" y2="92.73" stroke="#e7cfa0" stroke-width="0.6" opacity="0.11"/>
  <line x1="521.74" y1="182.54" x2="520.11" y2="183.47" stroke="#e7cfa0" stroke-width="0.6" opacity="0.13"/>
  <line x1="331.02" y1="126.1" x2="331.66" y2="129.17" stroke="#e7cfa0" stroke-width="0.6" opacity="0.09"/>
  <line x1="657.07" y1="215.44" x2="655.43" y2="212.16" stroke="#e7cfa0" stroke-width="0.6" opacity="0.15"/>
  <line x1="812.66" y1="418.89" x2="813.05" y2="419.89" stroke="#e7cfa0" stroke-width="0.6" opacity="0.15"/>
  <line x1="359.28" y1="207.16" x2="360.37" y2="209.38" stroke="#e7cfa0" stroke-width="0.6" opacity="0.12"/>
  <line x1="711.98" y1="268.82" x2="710.61" y2="266.24" stroke="#e7cfa0" stroke-width="0.6" opacity="0.09"/>
  <line x1="108.5" y1="68.55" x2="109.92" y2="69.08" stroke="#e7cfa0" stroke-width="0.6" opacity="0.09"/>
  <line x1="313.91" y1="47.25" x2="315.82" y2="48.22" stroke="#e7cfa0" stroke-width="0.6" opacity="0.07"/>
  <line x1="585.07" y1="224.42" x2="584.03" y2="223.9" stroke="#e7cfa0" stroke-width="0.6" opacity="0.14"/>
  <line x1="846.38" y1="68.96" x2="847.86" y2="66.4" stroke="#e7cfa0" stroke-width="0.6" opacity="0.06"/>
  <line x1="441.68" y1="17.83" x2="440.08" y2="18.07" stroke="#e7cfa0" stroke-width="0.6" opacity="0.06"/>
  <line x1="242.62" y1="324.87" x2="243.81" y2="324.48" stroke="#e7cfa0" stroke-width="0.6" opacity="0.15"/>
  <line x1="741.85" y1="324.57" x2="744.7" y2="323.94" stroke="#e7cfa0" stroke-width="0.6" opacity="0.05"/>
  <line x1="263.47" y1="490.82" x2="262.35" y2="488.19" stroke="#e7cfa0" stroke-width="0.6" opacity="0.07"/>
  <line x1="177.05" y1="410.47" x2="178.61" y2="412.38" stroke="#e7cfa0" stroke-width="0.6" opacity="0.06"/>
  <line x1="143.76" y1="8.05" x2="143.3" y2="10.22" stroke="#e7cfa0" stroke-width="0.6" opacity="0.06"/>
  <line x1="545.73" y1="383.88" x2="545.9" y2="385.09" stroke="#e7cfa0" stroke-width="0.6" opacity="0.06"/>
  <line x1="464.58" y1="68.79" x2="463.08" y2="69.56" stroke="#e7cfa0" stroke-width="0.6" opacity="0.11"/>
  <line x1="735.88" y1="86.98" x2="735.29" y2="88.79" stroke="#e7cfa0" stroke-width="0.6" opacity="0.06"/>
  <line x1="367.34" y1="110.75" x2="364.46" y2="110.55" stroke="#e7cfa0" stroke-width="0.6" opacity="0.14"/>
  <line x1="938.84" y1="50.19" x2="940.01" y2="51.9" stroke="#e7cfa0" stroke-width="0.6" opacity="0.15"/>
  <line x1="698.33" y1="109.21" x2="697.24" y2="107.94" stroke="#e7cfa0" stroke-width="0.6" opacity="0.07"/>
  <line x1="535.28" y1="433.87" x2="537.37" y2="434.09" stroke="#e7cfa0" stroke-width="0.6" opacity="0.11"/>
  <line x1="701.58" y1="170.37" x2="704.88" y2="171.37" stroke="#e7cfa0" stroke-width="0.6" opacity="0.09"/>
  <line x1="935.43" y1="97.92" x2="934.05" y2="98.04" stroke="#e7cfa0" stroke-width="0.6" opacity="0.08"/>
  <line x1="925.54" y1="96.89" x2="926.92" y2="95.77" stroke="#e7cfa0" stroke-width="0.6" opacity="0.1"/>
  <line x1="124.05" y1="263.17" x2="125.42" y2="263.95" stroke="#e7cfa0" stroke-width="0.6" opacity="0.13"/>
  <line x1="533.3" y1="11.09" x2="534.61" y2="8.94" stroke="#e7cfa0" stroke-width="0.6" opacity="0.07"/>
  <line x1="176.32" y1="436.09" x2="175.38" y2="436.72" stroke="#e7cfa0" stroke-width="0.6" opacity="0.06"/>
  <line x1="948.8" y1="425.81" x2="946.07" y2="424.99" stroke="#e7cfa0" stroke-width="0.6" opacity="0.14"/>
  <line x1="74.63" y1="89.74" x2="75.66" y2="90.53" stroke="#e7cfa0" stroke-width="0.6" opacity="0.14"/>
  <line x1="190.47" y1="161.96" x2="192.36" y2="160.3" stroke="#e7cfa0" stroke-width="0.6" opacity="0.05"/>
  <line x1="66.91" y1="447.68" x2="66.02" y2="444.38" stroke="#e7cfa0" stroke-width="0.6" opacity="0.08"/>
  <line x1="281.78" y1="8.86" x2="282.68" y2="7.81" stroke="#e7cfa0" stroke-width="0.6" opacity="0.04"/>
  <line x1="465.79" y1="492.32" x2="468" y2="492.37" stroke="#e7cfa0" stroke-width="0.6" opacity="0.13"/>
  <line x1="481.96" y1="161.89" x2="480.15" y2="162.15" stroke="#e7cfa0" stroke-width="0.6" opacity="0.13"/>
  <line x1="453.53" y1="453.86" x2="456.64" y2="453.03" stroke="#e7cfa0" stroke-width="0.6" opacity="0.12"/>
  <line x1="693.17" y1="216.22" x2="693.47" y2="212.34" stroke="#e7cfa0" stroke-width="0.6" opacity="0.07"/>
  <line x1="471.45" y1="439.27" x2="469.98" y2="439.55" stroke="#e7cfa0" stroke-width="0.6" opacity="0.13"/>
  <line x1="569.46" y1="58.83" x2="572.62" y2="59.77" stroke="#e7cfa0" stroke-width="0.6" opacity="0.05"/>
  <line x1="553.28" y1="531.4" x2="552.31" y2="532.59" stroke="#e7cfa0" stroke-width="0.6" opacity="0.08"/>
  <line x1="160.36" y1="267.05" x2="160.69" y2="265.59" stroke="#e7cfa0" stroke-width="0.6" opacity="0.07"/>
  <line x1="650.29" y1="514.85" x2="652.11" y2="516.5" stroke="#e7cfa0" stroke-width="0.6" opacity="0.15"/>
  <line x1="306.62" y1="285.2" x2="308.63" y2="283.14" stroke="#e7cfa0" stroke-width="0.6" opacity="0.13"/>
  <line x1="612.27" y1="66.91" x2="613.03" y2="67.86" stroke="#e7cfa0" stroke-width="0.6" opacity="0.05"/>
  <line x1="807.72" y1="114.2" x2="808.62" y2="114.84" stroke="#e7cfa0" stroke-width="0.6" opacity="0.1"/>
  <line x1="211.38" y1="457.12" x2="210.16" y2="458.56" stroke="#e7cfa0" stroke-width="0.6" opacity="0.11"/>
  <line x1="940.36" y1="86.81" x2="941.4" y2="87.55" stroke="#e7cfa0" stroke-width="0.6" opacity="0.05"/>
  <line x1="47.36" y1="486.08" x2="46.39" y2="483.68" stroke="#e7cfa0" stroke-width="0.6" opacity="0.13"/>
  <line x1="844.7" y1="536.73" x2="841.86" y2="534.56" stroke="#e7cfa0" stroke-width="0.6" opacity="0.11"/>
  <line x1="10.7" y1="533.28" x2="10.36" y2="534.49" stroke="#e7cfa0" stroke-width="0.6" opacity="0.11"/>
  <line x1="229.34" y1="217.53" x2="229.14" y2="216.25" stroke="#e7cfa0" stroke-width="0.6" opacity="0.13"/>
  <line x1="546.27" y1="231.57" x2="545.88" y2="229.76" stroke="#e7cfa0" stroke-width="0.6" opacity="0.06"/>
  <line x1="278.51" y1="9.7" x2="276" y2="9.32" stroke="#e7cfa0" stroke-width="0.6" opacity="0.04"/>
  <line x1="193.67" y1="213.41" x2="194.79" y2="213.78" stroke="#e7cfa0" stroke-width="0.6" opacity="0.08"/>
  <line x1="354.66" y1="86.77" x2="353" y2="85.85" stroke="#e7cfa0" stroke-width="0.6" opacity="0.07"/>
  <line x1="761.15" y1="357.92" x2="761.47" y2="359.48" stroke="#e7cfa0" stroke-width="0.6" opacity="0.1"/>
  <line x1="496.52" y1="476.12" x2="500.11" y2="475.61" stroke="#e7cfa0" stroke-width="0.6" opacity="0.05"/>
  <line x1="838.52" y1="158.64" x2="835.85" y2="159.24" stroke="#e7cfa0" stroke-width="0.6" opacity="0.09"/>
  <line x1="197.75" y1="202.02" x2="196.53" y2="202.6" stroke="#e7cfa0" stroke-width="0.6" opacity="0.04"/>
  <line x1="190.58" y1="366.85" x2="192.64" y2="366.92" stroke="#e7cfa0" stroke-width="0.6" opacity="0.07"/>
  <line x1="133.34" y1="260.71" x2="131.85" y2="261.37" stroke="#e7cfa0" stroke-width="0.6" opacity="0.1"/>
  <line x1="755.65" y1="174.48" x2="756.7" y2="174.41" stroke="#e7cfa0" stroke-width="0.6" opacity="0.09"/>
  <line x1="440.39" y1="363.7" x2="439.45" y2="359.9" stroke="#e7cfa0" stroke-width="0.6" opacity="0.09"/>
  <line x1="325.08" y1="221.5" x2="327.23" y2="221.97" stroke="#e7cfa0" stroke-width="0.6" opacity="0.15"/>
  <line x1="437.63" y1="20.04" x2="440.81" y2="21.77" stroke="#e7cfa0" stroke-width="0.6" opacity="0.09"/>
  <line x1="397.95" y1="495.54" x2="398.57" y2="497.21" stroke="#e7cfa0" stroke-width="0.6" opacity="0.16"/>
  <line x1="261.99" y1="404.33" x2="260.19" y2="403.49" stroke="#e7cfa0" stroke-width="0.6" opacity="0.07"/>
  <line x1="10.93" y1="313" x2="11.72" y2="312.02" stroke="#e7cfa0" stroke-width="0.6" opacity="0.07"/>
  <line x1="953.54" y1="238.89" x2="952.51" y2="239.15" stroke="#e7cfa0" stroke-width="0.6" opacity="0.07"/>
  <line x1="677.01" y1="402.32" x2="676.36" y2="404.71" stroke="#e7cfa0" stroke-width="0.6" opacity="0.06"/>
  <line x1="169" y1="139.45" x2="169.8" y2="140.88" stroke="#e7cfa0" stroke-width="0.6" opacity="0.08"/>
  <line x1="467.51" y1="467.71" x2="468.85" y2="466.82" stroke="#e7cfa0" stroke-width="0.6" opacity="0.05"/>
  <line x1="171.88" y1="237.41" x2="173.29" y2="236.91" stroke="#e7cfa0" stroke-width="0.6" opacity="0.1"/>
  <line x1="280.29" y1="186.09" x2="279.01" y2="185.68" stroke="#e7cfa0" stroke-width="0.6" opacity="0.08"/>
  <line x1="771.55" y1="192.26" x2="769.76" y2="192.61" stroke="#e7cfa0" stroke-width="0.6" opacity="0.11"/>
  <line x1="113.09" y1="298.82" x2="111.24" y2="299.94" stroke="#e7cfa0" stroke-width="0.6" opacity="0.16"/>
  <line x1="685.94" y1="148.85" x2="688.11" y2="146.42" stroke="#e7cfa0" stroke-width="0.6" opacity="0.1"/>
  <line x1="84.24" y1="192.88" x2="80.81" y2="192.88" stroke="#e7cfa0" stroke-width="0.6" opacity="0.12"/>
  <line x1="42.23" y1="89.27" x2="44.99" y2="87.88" stroke="#e7cfa0" stroke-width="0.6" opacity="0.07"/>
  <line x1="874" y1="100.42" x2="874.68" y2="102.82" stroke="#e7cfa0" stroke-width="0.6" opacity="0.13"/>
  <line x1="387.01" y1="442.44" x2="385.85" y2="443.36" stroke="#e7cfa0" stroke-width="0.6" opacity="0.12"/>
  <line x1="458.31" y1="532.45" x2="457.88" y2="533.78" stroke="#e7cfa0" stroke-width="0.6" opacity="0.06"/>
  <line x1="472.13" y1="419.18" x2="472.97" y2="417.31" stroke="#e7cfa0" stroke-width="0.6" opacity="0.11"/>
  <line x1="852.29" y1="537.75" x2="851.24" y2="535.51" stroke="#e7cfa0" stroke-width="0.6" opacity="0.07"/>
  <line x1="434.65" y1="181.25" x2="431.52" y2="181.51" stroke="#e7cfa0" stroke-width="0.6" opacity="0.07"/>
  <line x1="534.97" y1="313.05" x2="534.44" y2="311.58" stroke="#e7cfa0" stroke-width="0.6" opacity="0.06"/>
  <line x1="338.98" y1="322.07" x2="339.71" y2="323.07" stroke="#e7cfa0" stroke-width="0.6" opacity="0.04"/>
  <line x1="306.77" y1="61.92" x2="306.08" y2="61" stroke="#e7cfa0" stroke-width="0.6" opacity="0.07"/>
  <line x1="496.51" y1="199.59" x2="493.59" y2="199.63" stroke="#e7cfa0" stroke-width="0.6" opacity="0.11"/>
  <line x1="120.6" y1="258.25" x2="119.26" y2="259.15" stroke="#e7cfa0" stroke-width="0.6" opacity="0.1"/>
  <line x1="182.56" y1="71.18" x2="181.83" y2="72.2" stroke="#e7cfa0" stroke-width="0.6" opacity="0.11"/>
  <line x1="142.56" y1="452.61" x2="144.37" y2="451.75" stroke="#e7cfa0" stroke-width="0.6" opacity="0.14"/>
  <line x1="953" y1="239.68" x2="953.07" y2="241.09" stroke="#e7cfa0" stroke-width="0.6" opacity="0.1"/>
  <line x1="362.37" y1="276.37" x2="363.5" y2="275.52" stroke="#e7cfa0" stroke-width="0.6" opacity="0.09"/>
  <line x1="142.21" y1="284.44" x2="143.61" y2="287.04" stroke="#e7cfa0" stroke-width="0.6" opacity="0.05"/>
  <line x1="184.01" y1="247.1" x2="185.45" y2="244.53" stroke="#e7cfa0" stroke-width="0.6" opacity="0.1"/>
  <line x1="321.51" y1="282.31" x2="319.19" y2="279.68" stroke="#e7cfa0" stroke-width="0.6" opacity="0.16"/>
  <line x1="485.99" y1="428.71" x2="487.5" y2="426.53" stroke="#e7cfa0" stroke-width="0.6" opacity="0.06"/>
  <line x1="531.64" y1="237.93" x2="528.8" y2="236.3" stroke="#e7cfa0" stroke-width="0.6" opacity="0.13"/>
  <line x1="906.11" y1="229.2" x2="909.19" y2="227.01" stroke="#e7cfa0" stroke-width="0.6" opacity="0.14"/>
  <line x1="395.39" y1="241.17" x2="396.01" y2="243.4" stroke="#e7cfa0" stroke-width="0.6" opacity="0.11"/>
  <line x1="639.5" y1="377.53" x2="640.07" y2="375.27" stroke="#e7cfa0" stroke-width="0.6" opacity="0.16"/>
  <line x1="25.79" y1="48.44" x2="23.72" y2="48.45" stroke="#e7cfa0" stroke-width="0.6" opacity="0.12"/>
  <line x1="59.29" y1="466.37" x2="57.94" y2="465.28" stroke="#e7cfa0" stroke-width="0.6" opacity="0.08"/>
  <line x1="152.64" y1="425.46" x2="154.31" y2="426.43" stroke="#e7cfa0" stroke-width="0.6" opacity="0.08"/>
  <line x1="957.89" y1="89.46" x2="957.6" y2="86.23" stroke="#e7cfa0" stroke-width="0.6" opacity="0.11"/>
  <line x1="475.02" y1="287.38" x2="473.84" y2="285.98" stroke="#e7cfa0" stroke-width="0.6" opacity="0.14"/>
  <line x1="822.71" y1="378.59" x2="824.25" y2="375.45" stroke="#e7cfa0" stroke-width="0.6" opacity="0.08"/>
  <line x1="49.18" y1="450.59" x2="49.18" y2="452.31" stroke="#e7cfa0" stroke-width="0.6" opacity="0.16"/>
  <line x1="643.71" y1="385.64" x2="643.69" y2="382.53" stroke="#e7cfa0" stroke-width="0.6" opacity="0.12"/>
  <line x1="721.37" y1="283.14" x2="722.51" y2="282.49" stroke="#e7cfa0" stroke-width="0.6" opacity="0.12"/>
  <line x1="360.92" y1="497.35" x2="360.86" y2="499.06" stroke="#e7cfa0" stroke-width="0.6" opacity="0.1"/>
  <line x1="151.94" y1="351.55" x2="153.03" y2="354.4" stroke="#e7cfa0" stroke-width="0.6" opacity="0.08"/>
  <line x1="138.66" y1="444.2" x2="138.89" y2="442.33" stroke="#e7cfa0" stroke-width="0.6" opacity="0.1"/>
  <line x1="432.09" y1="284.14" x2="433.96" y2="285.45" stroke="#e7cfa0" stroke-width="0.6" opacity="0.1"/>
  <line x1="859.05" y1="388.18" x2="859.37" y2="391.24" stroke="#e7cfa0" stroke-width="0.6" opacity="0.14"/>
  <line x1="766.54" y1="228.71" x2="766.8" y2="230.42" stroke="#e7cfa0" stroke-width="0.6" opacity="0.09"/>
  <line x1="100.99" y1="296.21" x2="101.79" y2="298.4" stroke="#e7cfa0" stroke-width="0.6" opacity="0.16"/>
  <line x1="645.29" y1="369.82" x2="643.83" y2="368.19" stroke="#e7cfa0" stroke-width="0.6" opacity="0.15"/>
  <line x1="871.34" y1="305.29" x2="868.2" y2="306.12" stroke="#e7cfa0" stroke-width="0.6" opacity="0.11"/>
  <line x1="54.7" y1="290.68" x2="55.8" y2="291.56" stroke="#e7cfa0" stroke-width="0.6" opacity="0.14"/>
  <line x1="744.01" y1="291.04" x2="747.17" y2="290.5" stroke="#e7cfa0" stroke-width="0.6" opacity="0.11"/>
  <line x1="442.84" y1="471.59" x2="444.84" y2="470.75" stroke="#e7cfa0" stroke-width="0.6" opacity="0.09"/>
  <line x1="898.16" y1="241.5" x2="895.91" y2="238.95" stroke="#e7cfa0" stroke-width="0.6" opacity="0.15"/>
  <line x1="656.34" y1="54.02" x2="656.05" y2="50.3" stroke="#e7cfa0" stroke-width="0.6" opacity="0.05"/>
  <line x1="530.37" y1="441.88" x2="530.51" y2="445.16" stroke="#e7cfa0" stroke-width="0.6" opacity="0.15"/>
  <line x1="925.42" y1="61.08" x2="923.61" y2="61.22" stroke="#e7cfa0" stroke-width="0.6" opacity="0.04"/>
  <line x1="706.48" y1="432.26" x2="707.28" y2="432.95" stroke="#e7cfa0" stroke-width="0.6" opacity="0.07"/>
  <line x1="131.34" y1="454.28" x2="134.3" y2="455.51" stroke="#e7cfa0" stroke-width="0.6" opacity="0.05"/>
  <line x1="177.39" y1="537.64" x2="177.61" y2="535.5" stroke="#e7cfa0" stroke-width="0.6" opacity="0.08"/>
  <line x1="64.75" y1="517.84" x2="62.03" y2="517.43" stroke="#e7cfa0" stroke-width="0.6" opacity="0.07"/>
  <line x1="708.74" y1="486.77" x2="711.85" y2="485.51" stroke="#e7cfa0" stroke-width="0.6" opacity="0.14"/>
  <line x1="756.03" y1="338.36" x2="752.36" y2="339.3" stroke="#e7cfa0" stroke-width="0.6" opacity="0.11"/>
  <line x1="888.27" y1="421.91" x2="887.15" y2="419.42" stroke="#e7cfa0" stroke-width="0.6" opacity="0.05"/>
  <line x1="648.05" y1="363.58" x2="648.34" y2="366.2" stroke="#e7cfa0" stroke-width="0.6" opacity="0.1"/>
  <line x1="755.15" y1="395.07" x2="758.31" y2="393.75" stroke="#e7cfa0" stroke-width="0.6" opacity="0.11"/>
  <line x1="529.3" y1="2.54" x2="529.54" y2="5.32" stroke="#e7cfa0" stroke-width="0.6" opacity="0.14"/>
  <line x1="364.29" y1="515.08" x2="362.79" y2="517.3" stroke="#e7cfa0" stroke-width="0.6" opacity="0.05"/>
  <line x1="9.64" y1="145.33" x2="8.03" y2="142.22" stroke="#e7cfa0" stroke-width="0.6" opacity="0.07"/>
  <line x1="494.52" y1="314.19" x2="494.4" y2="312.35" stroke="#e7cfa0" stroke-width="0.6" opacity="0.08"/>
  <line x1="443.5" y1="276.21" x2="446.09" y2="276.57" stroke="#e7cfa0" stroke-width="0.6" opacity="0.1"/>
  <line x1="952.89" y1="90.46" x2="952.84" y2="92.7" stroke="#e7cfa0" stroke-width="0.6" opacity="0.05"/>
  <line x1="564.77" y1="404.53" x2="566.25" y2="402.93" stroke="#e7cfa0" stroke-width="0.6" opacity="0.11"/>
  <line x1="898.39" y1="491.98" x2="901.26" y2="489.55" stroke="#e7cfa0" stroke-width="0.6" opacity="0.14"/>
  <line x1="914.91" y1="365.64" x2="916.65" y2="368.62" stroke="#e7cfa0" stroke-width="0.6" opacity="0.07"/>
  <line x1="366.71" y1="130.43" x2="365.26" y2="132.17" stroke="#e7cfa0" stroke-width="0.6" opacity="0.15"/>
  <line x1="720.58" y1="64.27" x2="720.96" y2="60.77" stroke="#e7cfa0" stroke-width="0.6" opacity="0.14"/>
  <line x1="63.7" y1="122.02" x2="61.21" y2="123.99" stroke="#e7cfa0" stroke-width="0.6" opacity="0.08"/>
</svg>
