<svg xmlns="http://www.w3.org/2000/svg" viewBox="0 0 960 540" width="960" height="540" role="img" aria-label="history decorative background">
  <defs>
    <radialGradient id="grad-history-large-04" cx="50%" cy="35%" r="80%">
      <stop offset="0%" stop-color="#caa15a" stop-opacity="0.10"/>
      <stop offset="100%" stop-color="#1b1305" stop-opacity="0"/>
    </radialGradient>
  </defs>
  <rect width="960" height="540" fill="#1b1305"/>
  <rect width="960" height="540" fill="url(#grad-history-large-04)"/>
  <line x1="48" y1="270" x2="912" y2="270" stroke="#caa15a" stroke-width="1.6" opacity="0.4"/>
  <circle cx="48" cy="270" r="4" fill="#b5651d" opacity="0.6"/>
  <line x1="48" y1="270" x2="48" y2="249.33" stroke="#e7cfa0" stroke-width="1" opacity="0.3"/>
  <circle cx="144" cy="270" r="4" fill="#b5651d" opacity="0.6"/>
  <line x1="144" y1="270" x2="144" y2="285.01" stroke="#e7cfa0" stroke-width="1" opacity="0.3"/>
  <circle cx="240" cy="270" r="4" fill="#b5651d" opacity="0.6"/>
  <line x1="240" y1="270" x2="240" y2="244.05" stroke="#e7cfa0" stroke-width="1" opacity="0.3"/>
  <circle cx="336" cy="270" r="4" fill="#b5651d" opacity="0.6"/>
  <line x1="336" y1="270" x2="336" y2="289.7" stroke="#e7cfa0" stroke-width="1" opacity="0.3"/>
  <circle cx="432" cy="270" r="4" fill="#b5651d" opacity="0.6"/>
  <line x1="432" y1="270" x2="432" y2="259.28" stroke="#e7cfa0" stroke-width="1" opacity="0.3"/>
  <circle cx="528" cy="270" r="4" fill="#b5651d" opacity="0.6"/>
  <line x1="528" y1="270" x2="528" y2="287.19" stroke="#e7cfa0" stroke-width="1" opacity="0.3"/>
  <circle cx="624" cy="270" r="4" fill="#b5651d" opacity="0.6"/>
  <line x1="624" y1="270" x2="624" y2="245.07" stroke="#e7cfa0" stroke-width="1" opacity="0.3"/>
  <circle cx="720" cy="270" r="4" fill="#b5651d" opacity="0.6"/>
  <line x1="720" y1="270" x2="720" y2="286.12" stroke="#e7cfa0" stroke-width="1" opacity="0.3"/>
  <circle cx="816" cy="270" r="4" fill="#b5651d" opacity="0.6"/>
  <line x1="816" y1="270" x2="816" y2="250.51" stroke="#e7cfa0" stroke-width="1" opacity="0.3"/>
  <circle cx="912" cy="270" r="4" fill="#b5651d" opacity="0.6"/>
  <line x1="912" y1="270" x2="912" y2="283.28" stroke="#e7cfa0" stroke-width="1" opacity="0.3"/>
  <line x1="224.81" y1="449.19" x2="223.18" y2="449.51" stroke="#e7cfa0" stroke-width="0.6" opacity="0.12"/>
  <line x1="235.9" y1="131.65" x2="236.73" y2="130.89" stroke="#e7cfa0" stroke-width="0.6" opacity="0.1"/>
  <line x1="313.59" y1="533.34" x2="314.32" y2="534.38" stroke="#e7cfa0" stroke-width="0.6" opacity="0.08"/>
  <line x1="588.14" y1="290.17" x2="591.62" y2="289.64" stroke="#e7cfa0" stroke-width="0.6" opacity="0.11"/>
  <line x1="485.54" y1="381.76" x2="486.54" y2="381.24" stroke="#e7cfa0" stroke-width="0.6" opacity="0.05"/>
  <line x1="93.56" y1="527.73" x2="94.84" y2="530.84" stroke="#e7cfa0" stroke-width="0.6" opacity="0.09"/>
  <line x1="646.55" y1="52.23" x2="647.19" y2="53.5" stroke="#e7cfa0" stroke-width="0.6" opacity="0.12"/>
  <line x1="956.5" y1="469.62" x2="954.83" y2="470.82" stroke="#e7cfa0" stroke-width="0.6" opacity="0.07"/>
  <line x1="516.86" y1="438.16" x2="517.14" y2="435.07" stroke="#e7cfa0" stroke-width="0.6" opacity="0.08"/>
  <line x1="310.04" y1="165.84" x2="308.31" y2="166.44" stroke="#e7cfa0" stroke-width="0.6" opacity="0.08"/>
  <line x1="750.19" y1="381.86" x2="749.83" y2="378.65" stroke="#e7cfa0" stroke-width="0.6" opacity="0.13"/>
  <line x1="175.62" y1="242.19" x2="175.98" y2="243.23" stroke="#e7cfa0" stroke-width="0.6" opacity="0.07"/>
  <line x1="867.74" y1="495.53" x2="868.27" y2="494.02" stroke="#e7cfa0" stroke-width="0.6" opacity="0.08"/>
  <line x1="949.12" y1="164.51" x2="950.24" y2="166.61" stroke="#e7cfa0" stroke-width="0.6" opacity="0.05"/>
  <line x1="935.62" y1="62.49" x2="932.48" y2="60.51" stroke="#e7cfa0" stroke-width="0.6" opacity="0.1"/>
  <line x1="943.44" y1="168.62" x2="944.92" y2="165.77" stroke="#e7cfa0" stroke-width="0.6" opacity="0.09"/>
  <line x1="126.73" y1="277.66" x2="128.57" y2="277.51" stroke="#e7cfa0" stroke-width="0.6" opacity="0.05"/>
  <line x1="811.08" y1="244.66" x2="810.89" y2="242.45" stroke="#e7cfa0" stroke-width="0.6" opacity="0.08"/>
  <line x1="117.62" y1="112.22" x2="115.96" y2="115.03" stroke="#e7cfa0" stroke-width="0.6" opacity="0.1"/>
  <line x1="811.32" y1="67.22" x2="814.11" y2="67.19" stroke="#e7cfa0" stroke-width="0.6" opacity="0.04"/>
  <line x1="178.1" y1="176.22" x2="175.66" y2="174.56" stroke="#e7cfa0" stroke-width="0.6" opacity="0.08"/>
  <line x1="614.87" y1="382.31" x2="617.83" y2="383.3" stroke="#e7cfa0" stroke-width="0.6" opacity="0.14"/>
  <line x1="516.16" y1="118.25" x2="516.39" y2="115.26" stroke="#e7cfa0" stroke-width="0.6" opacity="0.08"/>
  <line x1="434.82" y1="335.69" x2="434.45" y2="337.13" stroke="#e7cfa0" stroke-width="0.6" opacity="0.09"/>
  <line x1="362.65" y1="47.57" x2="363.33" y2="46.82" stroke="#e7cfa0" stroke-width="0.6" opacity="0.1"/>
  <line x1="556.26" y1="485.39" x2="558.18" y2="482.66" stroke="#e7cfa0" stroke-width="0.6" opacity="0.16"/>
  <line x1="40.28" y1="104.08" x2="43.71" y2="102.41" stroke="#e7cfa0" stroke-width="0.6" opacity="0.12"/>
  <line x1="27.86" y1="440.55" x2="25.84" y2="443.67" stroke="#e7cfa0" stroke-width="0.6" opacity="0.13"/>
  <line x1="478.27" y1="279.71" x2="479.44" y2="280.64" stroke="#e7cfa0" stroke-width="0.6" opacity="0.08"/>
  <line x1="116.85" y1="60.43" x2="117.8" y2="58.33" stroke="#e7cfa0" stroke-width="0.6" opacity="0.12"/>
  <line x1="89.04" y1="384.94" x2="86.9" y2="383.58" stroke="#e7cfa0" stroke-width="0.6" opacity="0.15"/>
  <line x1="175.39" y1="387.7" x2="179.21" y2="387.95" stroke="#e7cfa0" stroke-width="0.6" opacity="0.06"/>
  <line x1="155.14" y1="379.17" x2="154.37" y2="378.38" stroke="#e7cfa0" stroke-width="0.6" opacity="0.15"/>
  <line x1="559.03" y1="510.3" x2="560.24" y2="511.79" stroke="#e7cfa0" stroke-width="0.6" opacity="0.1"/>
  <line x1="104.73" y1="398.58" x2="107.37" y2="398.12" stroke="#e7cfa0" stroke-width="0.6" opacity="0.1"/>
  <line x1="359.46" y1="322.45" x2="360.6" y2="323.85" stroke="#e7cfa0" stroke-width="0.6" opacity="0.1"/>
  <line x1="620.65" y1="182.48" x2="622.17" y2="183.29" stroke="#e7cfa0" stroke-width="0.6" opacity="0.16"/>
  <line x1="221.93" y1="418.69" x2="224.11" y2="421.62" stroke="#e7cfa0" stroke-width="0.6" opacity="0.05"/>
  <line x1="373.23" y1="333.55" x2="376.66" y2="334.94" stroke="#e7cfa0" stroke-width="0.6" opacity="0.15"/>
  <line x1="313.71" y1="22.5" x2="315.4" y2="19.26" stroke="#e7cfa0" stroke-width="0.6" opacity="0.14"/>
  <line x1="708.94" y1="291.94" x2="711.69" y2="291.99" stroke="#e7cfa0" stroke-width="0.6" opacity="0.05"/>
  <line x1="813.3" y1="232.42" x2="814.48" y2="234.16" stroke="#e7cfa0" stroke-width="0.6" opacity="0.1"/>
  <line x1="246.58" y1="332.37" x2="248.51" y2="330.69" stroke="#e7cfa0" stroke-width="0.6" opacity="0.12"/>
  <line x1="921.35" y1="182.34" x2="920.4" y2="184.82" stroke="#e7cfa0" stroke-width="0.6" opacity="0.1"/>
  <line x1="330.26" y1="90.29" x2="329.65" y2="87.24" stroke="#e7cfa0" stroke-width="0.6" opacity="0.05"/>
  <line x1="892.23" y1="487.52" x2="891.69" y2="484.97" stroke="#e7cfa0" stroke-width="0.6" opacity="0.08"/>
  <line x1="322.7" y1="281.47" x2="319.44" y2="281.56" stroke="#e7cfa0" stroke-width="0.6" opacity="0.06"/>
  <line x1="651.53" y1="502.44" x2="652.76" y2="501.62" stroke="#e7cfa0" stroke-width="0.6" opacity="0.09"/>
  <line x1="854.85" y1="464.13" x2="855.79" y2="461.4" stroke="#e7cfa0" stroke-width="0.6" opacity="0.08"/>
  <line x1="17.94" y1="539.95" x2="18.79" y2="538.29" stroke="#e7cfa0" stroke-width="0.6" opacity="0.07"/>
  <line x1="77.36" y1="95.38" x2="74.12" y2="93.96" stroke="#e7cfa0" stroke-width="0.6" opacity="0.12"/>
  <line x1="89.14" y1="531.74" x2="86.5" y2="529.42" stroke="#e7cfa0" stroke-width="0.6" opacity="0.13"/>
  <line x1="746.66" y1="140.61" x2="747.12" y2="139.55" stroke="#e7cfa0" stroke-width="0.6" opacity="0.05"/>
  <line x1="799.43" y1="36.88" x2="800.67" y2="34.19" stroke="#e7cfa0" stroke-width="0.6" opacity="0.08"/>
  <line x1="923.26" y1="537.15" x2="925.58" y2="534.3" stroke="#e7cfa0" stroke-width="0.6" opacity="0.13"/>
  <line x1="473.14" y1="166.75" x2="473" y2="168.66" stroke="#e7cfa0" stroke-width="0.6" opacity="0.1"/>
  <line x1="381.64" y1="57.15" x2="383.97" y2="57.9" stroke="#e7cfa0" stroke-width="0.6" opacity="0.06"/>
  <line x1="161.07" y1="99.6" x2="163.19" y2="99.76" stroke="#e7cfa0" stroke-width="0.6" opacity="0.15"/>
  <line x1="911.38" y1="432.32" x2="913.91" y2="431.98" stroke="#e7cfa0" stroke-width="0.6" opacity="0.06"/>
  <line x1="638.17" y1="85.93" x2="637.13" y2="87.12" stroke="#e7cfa0" stroke-width="0.6" opacity="0.11"/>
  <line x1="465.79" y1="78.9" x2="463.29" y2="80.78" stroke="#e7cfa0" stroke-width="0.6" opacity="0.09"/>
  <line x1="739.18" y1="243.83" x2="738.37" y2="245.71" stroke="#e7cfa0" stroke-width="0.6" opacity="0.07"/>
  <line x1="169.44" y1="308.53" x2="171.64" y2="310.76" stroke="#e7cfa0" stroke-width="0.6" opacity="0.13"/>
  <line x1="834.78" y1="372.5" x2="836.24" y2="373.3" stroke="#e7cfa0" stroke-width="0.6" opacity="0.07"/>
  <line x1="787.87" y1="53.61" x2="787.22" y2="52.32" stroke="#e7cfa0" stroke-width="0.6" opacity="0.12"/>
  <line x1="604.46" y1="158.52" x2="602.85" y2="160.56" stroke="#e7cfa0" stroke-width="0.6" opacity="0.08"/>
  <line x1="892.62" y1="488" x2="893.67" y2="485.39" stroke="#e7cfa0" stroke-width="0.6" opacity="0.08"/>
  <line x1="62.91" y1="34.39" x2="64.7" y2="32.75" stroke="#e7cfa0" stroke-width="0.6" opacity="0.07"/>
  <line x1="521.83" y1="48.53" x2="522.85" y2="48.27" stroke="#e7cfa0" stroke-width="0.6" opacity="0.06"/>
  <line x1="385.47" y1="478.93" x2="386.63" y2="477.86" stroke="#e7cfa0" stroke-width="0.6" opacity="0.08"/>
  <line x1="341.4" y1="155.13" x2="341.03" y2="153.4" stroke="#e7cfa0" stroke-width="0.6" opacity="0.13"/>
  <line x1="673.99" y1="264.51" x2="675.18" y2="263.17" stroke="#e7cfa0" stroke-width="0.6" opacity="0.09"/>
  <line x1="573.84" y1="149.17" x2="574.37" y2="146.8" stroke="#e7cfa0" stroke-width="0.6" opacity="0.14"/>
  <line x1="867.92" y1="65.07" x2="865.87" y2="66.03" stroke="#e7cfa0" stroke-width="0.6" opacity="0.1"/>
  <line x1="501.63" y1="276.29" x2="502.91" y2="279.02" stroke="#e7cfa0" stroke-width="0.6" opacity="0.12"/>
  <line x1="636.33" y1="380" x2="636.89" y2="378.57" stroke="#e7cfa0" stroke-width="0.6" opacity="0.08"/>
  <line x1="69.13" y1="334.47" x2="69.03" y2="335.68" stroke="#e7cfa0" stroke-width="0.6" opacity="0.08"/>
  <line x1="865.02" y1="391.32" x2="862.9" y2="390.28" stroke="#e7cfa0" stroke-width="0.6" opacity="0.14"/>
  <line x1="701.77" y1="424.03" x2="704.4" y2="423.77" stroke="#e7cfa0" stroke-width="0.6" opacity="0.11"/>
  <line x1="179.01" y1="353.79" x2="177.25" y2="355.11" stroke="#e7cfa0" stroke-width="0.6" opacity="0.15"/>
  <line x1="433.4" y1="538.13" x2="431.87" y2="538.4" stroke="#e7cfa0" stroke-width="0.6" opacity="0.14"/>
  <line x1="593.66" y1="248.28" x2="594.06" y2="249.78" stroke="#e7cfa0" stroke-width="0.6" opacity="0.14"/>
  <line x1="202.34" y1="212.96" x2="200.03" y2="214.36" stroke="#e7cfa0" stroke-width="0.6" opacity="0.08"/>
  <line x1="809.24" y1="226.9" x2="809.6" y2="229.03" stroke="#e7cfa0" stroke-width="0.6" opacity="0.13"/>
  <line x1="44.02" y1="60.79" x2="43.1" y2="58.94" stroke="#e7cfa0" stroke-width="0.6" opacity="0.11"/>
  <line x1="671.62" y1="272.63" x2="670.57" y2="269.31" stroke="#e7cfa0" stroke-width="0.6" opacity="0.12"/>
  <line x1="572.53" y1="529.43" x2="572.85" y2="527.76" stroke="#e7cfa0" stroke-width="0.6" opacity="0.04"/>
  <line x1="858.11" y1="324.95" x2="855.82" y2="325.03" stroke="#e7cfa0" stroke-width="0.6" opacity="0.11"/>
  <line x1="105.84" y1="492.76" x2="106.54" y2="495.53" stroke="#e7cfa0" stroke-width="0.6" opacity="0.12"/>
  <line x1="530.66" y1="236.13" x2="532.66" y2="233.6" stroke="#e7cfa0" stroke-width="0.6" opacity="0.11"/>
  <line x1="789" y1="412.16" x2="790.76" y2="410.52" stroke="#e7cfa0" stroke-width="0.6" opacity="0.13"/>
  <line x1="589.75" y1="397.27" x2="586.59" y2="396.28" stroke="#e7cfa0" stroke-width="0.6" opacity="0.06"/>
  <line x1="406.74" y1="241.87" x2="408.04" y2="242.9" stroke="#e7cfa0" stroke-width="0.6" opacity="0.05"/>
  <line x1="280.54" y1="239.56" x2="283.8" y2="240.05" stroke="#e7cfa0" stroke-width="0.6" opacity="0.1"/>
  <line x1="311.89" y1="156.12" x2="314.4" y2="157.22" stroke="#e7cfa0" stroke-width="0.6" opacity="0.09"/>
  <line x1="389.01" y1="252.18" x2="387.59" y2="251.22" stroke="#e7cfa0" stroke-width="0.6" opacity="0.12"/>
  <line x1="327.81" y1="216.38" x2="328.44" y2="214.28" stroke="#e7cfa0" stroke-width="0.6" opacity="0.14"/>
  <line x1="699.05" y1="352.54" x2="700.29" y2="349.89" stroke="#e7cfa0" stroke-width="0.6" opacity="0.12"/>
  <line x1="673.01" y1="286.71" x2="674.46" y2="285.66" stroke="#e7cfa0" stroke-width="0.6" opacity="0.14"/>
  <line x1="742.54" y1="276.66" x2="741.63" y2="279.37" stroke="#e7cfa0" stroke-width="0.6" opacity="0.08"/>
  <line x1="563.28" y1="387.33" x2="561.98" y2="387.65" stroke="#e7cfa0" stroke-width="0.6" opacity="0.1"/>
  <line x1="102.88" y1="395.28" x2="102.9" y2="397.36" stroke="#e7cfa0" stroke-width="0.6" opacity="0.05"/>
  <line x1="191.18" y1="226.57" x2="188.56" y2="224.71" stroke="#e7cfa0" stroke-width="0.6" opacity="0.06"/>
  <line x1="488.25" y1="364.09" x2="489.13" y2="365.27" stroke="#e7cfa0" stroke-width="0.6" opacity="0.08"/>
  <line x1="285.12" y1="30.23" x2="287.3" y2="27.57" stroke="#e7cfa0" stroke-width="0.6" opacity="0.11"/>
  <line x1="534.5" y1="73.07" x2="534.71" y2="75.51" stroke="#e7cfa0" stroke-width="0.6" opacity="0.1"/>
  <line x1="669.82" y1="72.1" x2="669.28" y2="70.49" stroke="#e7cfa0" stroke-width="0.6" opacity="0.11"/>
  <line x1="608.31" y1="228.26" x2="605.79" y2="225.22" stroke="#e7cfa0" stroke-width="0.6" opacity="0.07"/>
  <line x1="87.27" y1="0.76" x2="86.4" y2="-2.22" stroke="#e7cfa0" stroke-width="0.6" opacity="0.05"/>
  <line x1="419.95" y1="349.52" x2="421.8" y2="346.66" stroke="#e7cfa0" stroke-width="0.6" opacity="0.11"/>
  <line x1="51.7" y1="391.89" x2="50.74" y2="390.08" stroke="#e7cfa0" stroke-width="0.6" opacity="0.11"/>
  <line x1="920.53" y1="437.28" x2="921.46" y2="435.47" stroke="#e7cfa0" stroke-width="0.6" opacity="0.13"/>
  <line x1="164.67" y1="134.01" x2="165.82" y2="133.53" stroke="#e7cfa0" stroke-width="0.6" opacity="0.08"/>
  <line x1="52.57" y1="59.46" x2="50.52" y2="56.42" stroke="#e7cfa0" stroke-width="0.6" opacity="0.13"/>
  <line x1="925.81" y1="494.31" x2="924.72" y2="494.8" stroke="#e7cfa0" stroke-width="0.6" opacity="0.12"/>
  <line x1="303.15" y1="395.74" x2="302.45" y2="392.25" stroke="#e7cfa0" stroke-width="0.6" opacity="0.14"/>
  <line x1="701.86" y1="112.18" x2="698.82" y2="113.16" stroke="#e7cfa0" stroke-width="0.6" opacity="0.14"/>
  <line x1="417.67" y1="257.46" x2="418.78" y2="259.27" stroke="#e7cfa0" stroke-width="0.6" opacity="0.11"/>
  <line x1="701.59" y1="66.41" x2="703.68" y2="65.4" stroke="#e7cfa0" stroke-width="0.6" opacity="0.07"/>
  <line x1="768.12" y1="438.58" x2="766.36" y2="438.21" stroke="#e7cfa0" stroke-width="0.6" opacity="0.14"/>
  <line x1="166.32" y1="400.23" x2="167.99" y2="401.57" stroke="#e7cfa0" stroke-width="0.6" opacity="0.06"/>
  <line x1="113.11" y1="312.86" x2="114.13" y2="313.36" stroke="#e7cfa0" stroke-width="0.6" opacity="0.09"/>
  <line x1="545.14" y1="41.29" x2="544.78" y2="42.75" stroke="#e7cfa0" stroke-width="0.6" opacity="0.05"/>
  <line x1="577.85" y1="215.02" x2="579.33" y2="213.42" stroke="#e7cfa0" stroke-width="0.6" opacity="0.09"/>
  <line x1="881.56" y1="524.26" x2="883.73" y2="526.66" stroke="#e7cfa0" stroke-width="0.6" opacity="0.08"/>
  <line x1="160.9" y1="137.32" x2="161.79" y2="136.65" stroke="#e7cfa0" stroke-width="0.6" opacity="0.12"/>
  <line x1="332.76" y1="306.15" x2="333.29" y2="309.09" stroke="#e7cfa0" stroke-width="0.6" opacity="0.09"/>
  <line x1="240.24" y1="256.18" x2="240.33" y2="257.81" stroke="#e7cfa0" stroke-width="0.6" opacity="0.12"/>
  <line x1="774.75" y1="202.32" x2="775.94" y2="205.23" stroke="#e7cfa0" stroke-width="0.6" opacity="0.09"/>
  <line x1="824.61" y1="385.78" x2="824.11" y2="389.15" stroke="#e7cfa0" stroke-width="0.6" opacity="0.13"/>
  <line x1="876.63" y1="98.26" x2="875.26" y2="97.01" stroke="#e7cfa0" stroke-width="0.6" opacity="0.14"/>
  <line x1="337.35" y1="254.62" x2="335.82" y2="253.75" stroke="#e7cfa0" stroke-width="0.6" opacity="0.07"/>
  <line x1="354.17" y1="332.26" x2="353.91" y2="329.46" stroke="#e7cfa0" stroke-width="0.6" opacity="0.1"/>
  <line x1="707.86" y1="166.75" x2="708.91" y2="164.31" stroke="#e7cfa0" stroke-width="0.6" opacity="0.07"/>
  <line x1="357.68" y1="50.91" x2="354.43" y2="49.78" stroke="#e7cfa0" stroke-width="0.6" opacity="0.04"/>
  <line x1="142.38" y1="139.39" x2="139.88" y2="136.76" stroke="#e7cfa0" stroke-width="0.6" opacity="0.06"/>
  <line x1="451.32" y1="436.43" x2="448.52" y2="436.58" stroke="#e7cfa0" stroke-width="0.6" opacity="0.09"/>
  <line x1="8.6" y1="32.91" x2="6.53" y2="33" stroke="#e7cfa0" stroke-width="0.6" opacity="0.05"/>
  <line x1="940.66" y1="126.7" x2="941.87" y2="128.66" stroke="#e7cfa0" stroke-width="0.6" opacity="0.15"/>
  <line x1="460.09" y1="444.9" x2="458.7" y2="448.46" stroke="#e7cfa0" stroke-width="0.6" opacity="0.16"/>
  <line x1="102.62" y1="97.76" x2="105.67" y2="99.36" stroke="#e7cfa0" stroke-width="0.6" opacity="0.06"/>
  <line x1="444.48" y1="337.94" x2="445.2" y2="336.56" stroke="#e7cfa0" stroke-width="0.6" opacity="0.06"/>
  <line x1="506.34" y1="230.19" x2="509.15" y2="231.4" stroke="#e7cfa0" stroke-width="0.6" opacity="0.13"/>
  <line x1="925.74" y1="227.21" x2="924.7" y2="226.94" stroke="#e7cfa0" stroke-width="0.6" opacity="0.13"/>
  <line x1="345.98" y1="177.06" x2="347.46" y2="179.21" stroke="#e7cfa0" stroke-width="0.6" opacity="0.13"/>
  <line x1="364" y1="300.54" x2="362.22" y2="302.12" stroke="#e7cfa0" stroke-width="0.6" opacity="0.11"/>
  <line x1="356.02" y1="167.19" x2="355.35" y2="168.6" stroke="#e7cfa0" stroke-width="0.6" opacity="0.1"/>
  <line x1="477.37" y1="95.96" x2="478.94" y2="96.69" stroke="#e7cfa0" stroke-width="0.6" opacity="0.14"/>
  <line x1="746.85" y1="276.11" x2="745.46" y2="273.49" stroke="#e7cfa0" stroke-width="0.6" opacity="0.08"/>
  <line x1="118.77" y1="11.49" x2="116.09" y2="14.35" stroke="#e7cfa0" stroke-width="0.6" opacity="0.15"/>
  <line x1="463.07" y1="72.86" x2="464.43" y2="73.76" stroke="#e7cfa0" stroke-width="0.6" opacity="0.12"/>
  <line x1="356.59" y1="245.62" x2="356.61" y2="247.22" stroke="#e7cfa0" stroke-width="0.6" opacity="0.14"/>
  <line x1="669.13" y1="386.34" x2="671.04" y2="386.52" stroke="#e7cfa0" stroke-width="0.6" opacity="0.14"/>
  <line x1="371.52" y1="194.84" x2="370.94" y2="196.41" stroke="#e7cfa0" stroke-width="0.6" opacity="0.12"/>
  <line x1="166.79" y1="405.84" x2="165.18" y2="405.9" stroke="#e7cfa0" stroke-width="0.6" opacity="0.14"/>
  <line x1="592.74" y1="244.3" x2="595.08" y2="242.1" stroke="#e7cfa0" stroke-width="0.6" opacity="0.12"/>
  <line x1="265.68" y1="217.65" x2="266.61" y2="218.84" stroke="#e7cfa0" stroke-width="0.6" opacity="0.09"/>
  <line x1="255.21" y1="69.02" x2="257.4" y2="70.41" stroke="#e7cfa0" stroke-width="0.6" opacity="0.09"/>
  <line x1="363.41" y1="200.5" x2="362.34" y2="204.25" stroke="#e7cfa0" stroke-width="0.6" opacity="0.13"/>
  <line x1="365.6" y1="453.66" x2="363.21" y2="453.09" stroke="#e7cfa0" stroke-width="0.6" opacity="0.06"/>
  <line x1="243.5" y1="97.17" x2="244.68" y2="97.7" stroke="#e7cfa0" stroke-width="0.6" opacity="0.12"/>
  <line x1="618" y1="268.86" x2="620.05" y2="267.64" stroke="#e7cfa0" stroke-width="0.6" opacity="0.14"/>
  <line x1="609.23" y1="504.64" x2="607.9" y2="504.82" stroke="#e7cfa0" stroke-width="0.6" opacity="0.16"/>
  <line x1="401.37" y1="228.32" x2="403.37" y2="228.13" stroke="#e7cfa0" stroke-width="0.6" opacity="0.11"/>
  <line x1="658.69" y1="442.64" x2="659.83" y2="446.14" stroke="#e7cfa0" stroke-width="0.6" opacity="0.05"/>
  <line x1="549.13" y1="104.53" x2="550.5" y2="102.63" stroke="#e7cfa0" stroke-width="0.6" opacity="0.05"/>
  <line x1="151.03" y1="84.63" x2="152.59" y2="81.23" stroke="#e7cfa0" stroke-width="0.6" opacity="0.08"/>
  <line x1="37.27" y1="58.22" x2="35.54" y2="57.02" stroke="#e7cfa0" stroke-width="0.6" opacity="0.15"/>
  <line x1="196" y1="190.01" x2="193.8" y2="190.53" stroke="#e7cfa0" stroke-width="0.6" opacity="0.14"/>
  <line x1="580.83" y1="168.23" x2="583.39" y2="169.47" stroke="#e7cfa0" stroke-width="0.6" opacity="0.09"/>
  <line x1="618.62" y1="315.46" x2="621.52" y2="314.22" stroke="#e7cfa0" stroke-width="0.6" opacity="0.08"/>
  <line x1="69.43" y1="372.41" x2="72.59" y2="370.45" stroke="#e7cfa0" stroke-width="0.6" opacity="0.04"/>
  <line x1="508.11" y1="90.04" x2="509.14" y2="92.15" stroke="#e7cfa0" stroke-width="0.6" opacity="0.09"/>
  <line x1="281.07" y1="374.57" x2="282.71" y2="374.94" stroke="#e7cfa0" stroke-width="0.6" opacity="0.16"/>
  <line x1="674.58" y1="127.54" x2="672.17" y2="126.6" stroke="#e7cfa0" stroke-width="0.6" opacity="0.06"/>
  <line x1="659.29" y1="117.58" x2="658.81" y2="114.77" stroke="#e7cfa0" stroke-width="0.6" opacity="0.09"/>
  <line x1="269.62" y1="183.51" x2="272.53" y2="185.49" stroke="#e7cfa0" stroke-width="0.6" opacity="0.05"/>
  <line x1="272.3" y1="395.7" x2="273.83" y2="396.4" stroke="#e7cfa0" stroke-width="0.6" opacity="0.13"/>
  <line x1="36.19" y1="357.8" x2="38.29" y2="356.53" stroke="#e7cfa0" stroke-width="0.6" opacity="0.13"/>
  <line x1="133.45" y1="519.94" x2="131.68" y2="523.35" stroke="#e7cfa0" stroke-width="0.6" opacity="0.09"/>
  <line x1="320.68" y1="339.88" x2="323.04" y2="342.94" stroke="#e7cfa0" stroke-width="0.6" opacity="0.14"/>
  <line x1="711.14" y1="407" x2="712.34" y2="410.21" stroke="#e7cfa0" stroke-width="0.6" opacity="0.13"/>
  <line x1="764.57" y1="266.97" x2="763.01" y2="267.38" stroke="#e7cfa0" stroke-width="0.6" opacity="0.11"/>
  <line x1="751.89" y1="133.74" x2="752.82" y2="132.26" stroke="#e7cfa0" stroke-width="0.6" opacity="0.09"/>
  <line x1="235.32" y1="458.81" x2="234.83" y2="456.28" stroke="#e7cfa0" stroke-width="0.6" opacity="0.07"/>
  <line x1="23.96" y1="194.34" x2="26.16" y2="197.64" stroke="#e7cfa0" stroke-width="0.6" opacity="0.13"/>
  <line x1="675.94" y1="440.37" x2="674.05" y2="441.24" stroke="#e7cfa0" stroke-width="0.6" opacity="0.05"/>
  <line x1="879.72" y1="354.94" x2="879.21" y2="352.94" stroke="#e7cfa0" stroke-width="0.6" opacity="0.14"/>
  <line x1="489.52" y1="309.55" x2="488.05" y2="308.86" stroke="#e7cfa0" stroke-width="0.6" opacity="0.06"/>
  <line x1="813.44" y1="208.74" x2="816.22" y2="208.04" stroke="#e7cfa0" stroke-width="0.6" opacity="0.05"/>
  <line x1="850.2" y1="504.48" x2="852.92" y2="501.81" stroke="#e7cfa0" stroke-width="0.6" opacity="0.06"/>
  <line x1="277.25" y1="213.46" x2="278.49" y2="211.08" stroke="#e7cfa0" stroke-width="0.6" opacity="0.12"/>
  <line x1="643.87" y1="197.64" x2="642.33" y2="195.19" stroke="#e7cfa0" stroke-width="0.6" opacity="0.15"/>
  <line x1="331.04" y1="189.57" x2="329.49" y2="190.81" stroke="#e7cfa0" stroke-width="0.6" opacity="0.16"/>
  <line x1="491.54" y1="206.28" x2="493.9" y2="209.14" stroke="#e7cfa0" stroke-width="0.6" opacity="0.12"/>
  <line x1="343.63" y1="432.48" x2="344.55" y2="431.16" stroke="#e7cfa0" stroke-width="0.6" opacity="0.14"/>
  <line x1="516.01" y1="3.72" x2="512.99" y2="2.91" stroke="#e7cfa0" stroke-width="0.6" opacity="0.11"/>
  <line x1="750.41" y1="292.03" x2="749.64" y2="293.56" stroke="#e7cfa0" stroke-width="0.6" opacity="0.16"/>
  <line x1="636.34" y1="117.66" x2="638.56" y2="117.95" stroke="#e7cfa0" stroke-width="0.6" opacity="0.07"/>
  <line x1="588.84" y1="158.09" x2="587.95" y2="156.65" stroke="#e7cfa0" stroke-width="0.6" opacity="0.12"/>
  <line x1="37.71" y1="214.15" x2="39.79" y2="215.14" stroke="#e7cfa0" stroke-width="0.6" opacity="0.05"/>
  <line x1="796.77" y1="69.89" x2="797.62" y2="67.23" stroke="#e7cfa0" stroke-width="0.6" opacity="0.14"/>
  <line x1="43.21" y1="522.14" x2="46.32" y2="522.64" stroke="#e7cfa0" stroke-width="0.6" opacity="0.13"/>
  <line x1="529.11" y1="137.92" x2="531.24" y2="139.84" stroke="#e7cfa0" stroke-width="0.6" opacity="0.06"/>
  <line x1="451.67" y1="58.06" x2="449.44" y2="56.99" stroke="#e7cfa0" stroke-width="0.6" opacity="0.1"/>
  <line x1="607.18" y1="519.58" x2="608.36" y2="521.99" stroke="#e7cfa0" stroke-width="0.6" opacity="0.14"/>
  <line x1="440.28" y1="415.96" x2="438.43" y2="416.65" stroke="#e7cfa0" stroke-width="0.6" opacity="0.11"/>
  <line x1="120.83" y1="342.06" x2="119.17" y2="343.63" stroke="#e7cfa0" stroke-width="0.6" opacity="0.04"/>
  <line x1="142.91" y1="420.53" x2="142.89" y2="418.47" stroke="#e7cfa0" stroke-width="0.6" opacity="0.12"/>
  <line x1="96.79" y1="486.34" x2="98.49" y2="483.46" stroke="#e7cfa0" stroke-width="0.6" opacity="0.11"/>
  <line x1="144.59" y1="310.81" x2="145.21" y2="312.3" stroke="#e7cfa0" stroke-width="0.6" opacity="0.04"/>
  <line x1="727.9" y1="134.76" x2="725.47" y2="132.62" stroke="#e7cfa0" stroke-width="0.6" opacity="0.12"/>
  <line x1="720.03" y1="436.69" x2="723.09" y2="435.43" stroke="#e7cfa0" stroke-width="0.6" opacity="0.12"/>
  <line x1="146" y1="468.49" x2="146.74" y2="471.12" stroke="#e7cfa0" stroke-width="0.6" opacity="0.05"/>
  <line x1="428.71" y1="240.38" x2="427.85" y2="239.78" stroke="#e7cfa0" stroke-width="0.6" opacity="0.1"/>
  <line x1="217.44" y1="60.28" x2="218.05" y2="59.23" stroke="#e7cfa0" stroke-width="0.6" opacity="0.11"/>
</svg>
