<svg xmlns="http://www.w3.org/2000/svg" viewBox="0 0 960 540" width="960" height="540" role="img" aria-label="history decorative background">
  <defs>
    <radialGradient id="grad-history-large-08" cx="50%" cy="35%" r="80%">
      <stop offset="0%" stop-color="#caa15a" stop-opacity="0.10"/>
      <stop offset="100%" stop-color="#1b1305" stop-opacity="0"/>
    </radialGradient>
  </defs>
  <rect width="960" height="540" fill="#1b1305"/>
  <rect width="960" height="540" fill="url(#grad-history-large-08)"/>
  <path d="M651.32,237.59 C651.49,244.82 651.71,252.03 646.87,256.83 C642.02,261.63 629.98,265.69 622.26,266.38 C614.53,267.08 606.22,265.81 600.51,261.01 C594.79,256.21 587.62,245.28 587.97,237.59 C588.32,229.89 596.87,220.72 602.58,214.84 C608.3,208.95 615.04,202.53 622.26,202.29 C629.47,202.05 641.05,207.54 645.9,213.42 C650.74,219.3 651.16,230.35 651.32,237.59 Z" fill="none" stroke="#caa15a" stroke-width="0.9" opacity="0.3"/>
  <path d="M681.67,237.59 C680.72,247.88 679.54,260.45 673.74,269.4 C667.94,278.34 656.99,285.1 646.88,291.25 C636.78,297.41 624.56,308.74 613.1,306.34 C601.64,303.93 585.93,285.25 578.13,276.84 C570.33,268.42 568.71,265.18 566.31,255.84 C563.91,246.5 561.96,230.62 563.74,220.78 C565.51,210.93 568.8,203.02 576.95,196.76 C585.1,190.49 601.28,184.14 612.63,183.21 C623.98,182.27 633.89,187.09 645.03,191.16 C656.17,195.23 673.36,199.9 679.46,207.63 C685.57,215.37 682.62,227.29 681.67,237.59 Z" fill="none" stroke="#caa15a" stroke-width="0.9" opacity="0.27"/>
  <path d="M720.39,237.59 C721.67,260.48 705.93,291.96 686.78,305.48 C667.63,319 629.22,322.39 605.5,318.71 C581.78,315.02 555.24,304.49 544.44,283.36 C533.65,262.22 530.92,213.55 540.73,191.89 C550.54,170.24 580.23,157.4 603.28,153.43 C626.34,149.47 659.54,154.09 679.06,168.11 C698.57,182.14 719.1,214.69 720.39,237.59 Z" fill="none" stroke="#caa15a" stroke-width="0.9" opacity="0.24"/>
  <path d="M726.69,237.59 C724.9,265.97 716.01,312.57 698.61,331.52 C681.2,350.47 650.54,352.86 622.26,351.28 C593.97,349.7 546.58,341.02 528.88,322.07 C511.18,303.12 515.8,266.31 516.06,237.59 C516.31,208.86 512.72,167.59 530.42,149.72 C548.12,131.84 592.44,128.42 622.26,130.34 C652.07,132.26 691.93,143.34 709.34,161.21 C726.74,179.09 728.48,209.2 726.69,237.59 Z" fill="none" stroke="#caa15a" stroke-width="0.9" opacity="0.21"/>
  <path d="M796.19,237.59 C797.28,273.35 749.67,317.82 715.6,343.79 C681.53,369.76 631.74,398.38 591.79,393.39 C551.84,388.39 491.91,350 475.9,313.82 C459.88,277.65 477.72,217.42 495.7,176.33 C513.69,135.24 548.26,75.13 583.82,67.28 C619.38,59.43 673.66,100.84 709.05,129.22 C744.45,157.61 795.1,201.82 796.19,237.59 Z" fill="none" stroke="#caa15a" stroke-width="0.9" opacity="0.18"/>
  <path d="M821.5,237.59 C822.66,276.35 802.98,330.48 769.77,359.84 C736.57,389.2 664.96,415.88 622.26,413.74 C579.56,411.59 548.23,376.33 513.57,346.97 C478.92,317.61 418.52,280.31 414.33,237.59 C410.14,194.86 453.77,119.25 488.42,90.6 C523.07,61.94 576.53,59.55 622.26,65.66 C667.99,71.76 729.6,98.59 762.8,127.24 C796.01,155.9 820.34,198.82 821.5,237.59 Z" fill="none" stroke="#caa15a" stroke-width="0.9" opacity="0.15"/>
  <path d="M853.39,237.59 C849.52,276.82 826.22,327.15 797.42,364.66 C768.63,402.17 721.51,449.98 680.61,462.64 C639.71,475.29 589.49,458.01 552.02,440.6 C514.54,423.18 485.17,391.98 455.76,358.14 C426.34,324.31 380.16,279.34 375.51,237.59 C370.86,195.83 396.98,142.56 427.87,107.61 C458.75,72.66 517.03,41.98 560.84,27.91 C604.65,13.84 647.43,6.33 690.73,23.22 C734.04,40.11 793.56,93.51 820.67,129.24 C847.78,164.97 857.27,198.35 853.39,237.59 Z" fill="none" stroke="#caa15a" stroke-width="0.9" opacity="0.12"/>
  <path d="M891.92,237.59 C884.87,295.31 803.31,376.88 748.64,412.54 C693.98,448.2 622.6,461.33 563.93,451.54 C505.26,441.76 418.29,403.91 396.61,353.83 C374.94,303.75 405.25,208.81 433.88,151.05 C462.52,93.3 508.91,21.43 568.41,7.29 C627.91,-6.85 736.98,27.81 790.9,66.2 C844.82,104.58 898.96,179.86 891.92,237.59 Z" fill="none" stroke="#caa15a" stroke-width="0.9" opacity="0.09"/>
  <path d="M880.72,237.59 C873.3,290.36 829.84,359.24 794.18,399.02 C758.52,438.81 720.43,457.56 666.78,476.27 C613.12,494.99 516.35,535.28 472.27,511.31 C428.18,487.33 413.04,391.13 402.27,332.43 C391.49,273.73 391.12,217.9 407.63,159.09 C424.13,100.27 458.81,5.68 501.28,-20.45 C543.74,-46.58 606.18,-14.84 662.42,2.29 C718.65,19.43 802.33,43.14 838.71,82.36 C875.1,121.57 888.14,184.81 880.72,237.59 Z" fill="none" stroke="#caa15a" stroke-width="0.9" opacity="0.06"/>
  <path d="M915.59,237.59 C909.91,314.97 856.38,434.41 796.13,481.64 C735.88,528.88 629.43,542.25 554.1,520.99 C478.77,499.73 373.64,419.57 344.16,354.07 C314.68,288.58 342.71,189.14 377.21,128.03 C411.71,66.91 475.66,5.84 551.17,-12.61 C626.67,-31.06 769.5,-24.36 830.24,17.34 C890.98,59.04 921.28,160.2 915.59,237.59 Z" fill="none" stroke="#caa15a" stroke-width="0.9" opacity="0.03"/>
</svg>
