<svg xmlns="http://www.w3.org/2000/svg" viewBox="0 0 960 540" width="960" height="540" role="img" aria-label="history decorative background">
  <defs>
    <radialGradient id="grad-history-large-05" cx="50%" cy="35%" r="80%">
      <stop offset="0%" stop-color="#caa15a" stop-opacity="0.10"/>
      <stop offset="100%" stop-color="#1b1305" stop-opacity="0"/>
    </radialGradient>
  </defs>
  <rect width="960" height="540" fill="#1b1305"/>
  <rect width="960" height="540" fill="url(#grad-history-large-05)"/>
  <path d="M655.43,297.75 C655.27,304.75 654.54,313.58 650.74,317.88 C646.94,322.19 639.22,323.35 632.63,323.57 C626.05,323.8 616.71,321.68 611.23,319.24 C605.74,316.8 601.1,314.16 599.74,308.92 C598.37,303.67 601.09,293.59 603.06,287.77 C605.04,281.94 606.52,276.92 611.57,273.96 C616.62,271 626.67,269.69 633.36,270.01 C640.05,270.34 648.04,271.28 651.72,275.9 C655.4,280.53 655.6,290.76 655.43,297.75 Z" fill="none" stroke="#caa15a" stroke-width="0.9" opacity="0.3"/>
  <path d="M691.09,297.75 C691.02,309.89 686.47,328.08 679.17,336.57 C671.86,345.07 658.71,345.8 647.27,348.72 C635.84,351.64 620.43,357.41 610.55,354.08 C600.66,350.75 595.59,338.12 587.95,328.73 C580.32,319.34 566.17,309.6 564.75,297.75 C563.32,285.9 571.57,268.04 579.4,257.63 C587.23,247.23 600.35,238.59 611.71,235.33 C623.06,232.08 636.2,233.37 647.52,238.1 C658.84,242.84 672.36,253.82 679.62,263.76 C686.88,273.7 691.17,285.62 691.09,297.75 Z" fill="none" stroke="#caa15a" stroke-width="0.9" opacity="0.27"/>
  <path d="M709.28,297.75 C708.4,318.43 714.9,341.69 704.3,355.76 C693.71,369.83 667.03,380.87 645.69,382.19 C624.35,383.5 593.34,372.88 576.24,363.65 C559.14,354.41 549.84,343.67 543.08,326.75 C536.33,309.84 528.14,282.15 535.73,262.15 C543.32,242.15 570.46,214.78 588.62,206.77 C606.78,198.75 624.54,209.9 644.7,214.05 C664.86,218.2 698.83,217.72 709.59,231.67 C720.35,245.62 710.17,277.07 709.28,297.75 Z" fill="none" stroke="#caa15a" stroke-width="0.9" opacity="0.24"/>
  <path d="M737.02,297.75 C740.09,323.76 741.98,345.18 726.97,367.9 C711.95,390.61 675.14,430.14 646.95,434.02 C618.75,437.91 583.05,405.93 557.79,391.21 C532.53,376.48 499.66,367.87 495.41,345.66 C491.16,323.45 519.35,283.14 532.28,257.94 C545.22,232.74 554.07,209.73 573,194.45 C591.93,179.16 623.26,163.33 645.86,166.23 C668.45,169.13 693.37,189.92 708.56,211.84 C723.76,233.76 733.96,271.74 737.02,297.75 Z" fill="none" stroke="#caa15a" stroke-width="0.9" opacity="0.21"/>
  <path d="M772.72,297.75 C774.87,329.14 763.49,377.92 743.31,400.42 C723.12,422.92 683.44,424.79 651.61,432.73 C619.78,440.68 582.91,463.41 552.31,448.07 C521.71,432.74 482.93,373.46 468.01,340.71 C453.09,307.95 447.45,282.46 462.8,251.56 C478.14,220.66 527.56,168.19 560.08,155.3 C592.59,142.4 629.51,164.71 657.89,174.18 C686.28,183.65 711.25,191.51 730.39,212.11 C749.53,232.7 770.57,266.37 772.72,297.75 Z" fill="none" stroke="#caa15a" stroke-width="0.9" opacity="0.18"/>
  <path d="M801.15,297.75 C803.55,340.73 782.33,390.38 758.46,423.25 C734.58,456.13 695.09,485.49 657.9,494.99 C620.72,504.49 564.51,501.67 535.35,480.25 C506.19,458.83 493.65,406.65 482.93,366.47 C472.21,326.3 463.83,273.79 471.04,239.19 C478.24,204.6 494.45,177.81 526.16,158.91 C557.87,140.01 624.99,124.7 661.3,125.78 C697.62,126.86 720.74,136.73 744.04,165.39 C767.35,194.05 798.75,254.78 801.15,297.75 Z" fill="none" stroke="#caa15a" stroke-width="0.9" opacity="0.15"/>
  <path d="M844.25,297.75 C846.45,345.98 823.07,406.35 778.12,443.44 C733.16,480.53 630.36,528.3 574.5,520.28 C518.64,512.27 467.21,445.45 442.94,395.36 C418.68,345.26 404.55,265.6 428.92,219.69 C453.29,173.79 533.16,130.86 589.16,119.92 C645.16,108.98 722.39,124.41 764.91,154.04 C807.42,183.68 842.04,249.52 844.25,297.75 Z" fill="none" stroke="#caa15a" stroke-width="0.9" opacity="0.12"/>
  <path d="M868.65,297.75 C871.24,348.65 832.49,394.19 799.45,427.37 C766.4,460.56 722.22,487.8 670.39,496.88 C618.56,505.95 535.65,503.79 488.46,481.83 C441.28,459.87 403.11,410.73 387.3,365.13 C371.48,319.53 372.72,252.39 393.56,208.22 C414.4,164.05 466.86,131 512.33,100.1 C557.81,69.2 621.18,19.16 666.44,22.81 C711.7,26.46 750.2,76.18 783.91,122.01 C817.61,167.83 866.06,246.86 868.65,297.75 Z" fill="none" stroke="#caa15a" stroke-width="0.9" opacity="0.09"/>
  <path d="M919.75,297.75 C917.67,368.66 851.96,470.3 803.38,521.46 C754.79,572.62 687.82,608.08 628.24,604.71 C568.66,601.35 483.14,552.43 445.88,501.27 C408.61,450.11 411.65,365.17 404.66,297.75 C397.68,230.33 366.73,143.01 403.99,96.75 C441.25,50.49 559.59,20.31 628.24,20.19 C696.89,20.06 767.32,49.73 815.91,95.99 C864.49,142.25 921.84,226.84 919.75,297.75 Z" fill="none" stroke="#caa15a" stroke-width="0.9" opacity="0.06"/>
  <path d="M943.03,297.75 C950.79,370.03 911.37,453.75 846.61,497.5 C781.85,541.25 636.79,571.33 554.47,560.26 C472.14,549.19 378.48,497.7 352.67,431.07 C326.86,364.43 365.85,237.4 399.6,160.45 C433.35,83.5 488.4,-14.52 555.14,-30.63 C621.88,-46.73 735.39,9.08 800.04,63.81 C864.69,118.54 935.27,225.47 943.03,297.75 Z" fill="none" stroke="#caa15a" stroke-width="0.9" opacity="0.03"/>
  <line x1="48" y1="270" x2="912" y2="270" stroke="#caa15a" stroke-width="1.6" opacity="0.4"/>
  <circle cx="48" cy="270" r="4" fill="#b5651d" opacity="0.6"/>
  <line x1="48" y1="270" x2="48" y2="250.92" stroke="#e7cfa0" stroke-width="1" opacity="0.3"/>
  <circle cx="144" cy="270" r="4" fill="#b5651d" opacity="0.6"/>
  <line x1="144" y1="270" x2="144" y2="296.61" stroke="#e7cfa0" stroke-width="1" opacity="0.3"/>
  <circle cx="240" cy="270" r="4" fill="#b5651d" opacity="0.6"/>
  <line x1="240" y1="270" x2="240" y2="253.21" stroke="#e7cfa0" stroke-width="1" opacity="0.3"/>
  <circle cx="336" cy="270" r="4" fill="#b5651d" opacity="0.6"/>
  <line x1="336" y1="270" x2="336" y2="283.88" stroke="#e7cfa0" stroke-width="1" opacity="0.3"/>
  <circle cx="432" cy="270" r="4" fill="#b5651d" opacity="0.6"/>
  <line x1="432" y1="270" x2="432" y2="249.26" stroke="#e7cfa0" stroke-width="1" opacity="0.3"/>
  <circle cx="528" cy="270" r="4" fill="#b5651d" opacity="0.6"/>
  <line x1="528" y1="270" x2="528" y2="281.86" stroke="#e7cfa0" stroke-width="1" opacity="0.3"/>
  <circle cx="624" cy="270" r="4" fill="#b5651d" opacity="0.6"/>
  <line x1="624" y1="270" x2="624" y2="243.2" stroke="#e7cfa0" stroke-width="1" opacity="0.3"/>
  <circle cx="720" cy="270" r="4" fill="#b5651d" opacity="0.6"/>
  <line x1="720" y1="270" x2="720" y2="285.01" stroke="#e7cfa0" stroke-width="1" opacity="0.3"/>
  <circle cx="816" cy="270" r="4" fill="#b5651d" opacity="0.6"/>
  <line x1="816" y1="270" x2="816" y2="242.17" stroke="#e7cfa0" stroke-width="1" opacity="0.3"/>
  <circle cx="912" cy="270" r="4" fill="#b5651d" opacity="0.6"/>
  <line x1="912" y1="270" x2="912" y2="287.47" stroke="#e7cfa0" stroke-width="1" opacity="0.3"/>
</svg>
