<svg xmlns="http://www.w3.org/2000/svg" viewBox="0 0 960 540" width="960" height="540" role="img" aria-label="history decorative background">
  <defs>
    <radialGradient id="grad-history-large-09" cx="50%" cy="35%" r="80%">
      <stop offset="0%" stop-color="#caa15a" stop-opacity="0.10"/>
      <stop offset="100%" stop-color="#1b1305" stop-opacity="0"/>
    </radialGradient>
  </defs>
  <rect width="960" height="540" fill="#1b1305"/>
  <rect width="960" height="540" fill="url(#grad-history-large-09)"/>
  <line x1="735.94" y1="442.42" x2="736.63" y2="445.16" stroke="#e7cfa0" stroke-width="0.6" opacity="0.09"/>
  <line x1="317.61" y1="352.71" x2="318.51" y2="353.26" stroke="#e7cfa0" stroke-width="0.6" opacity="0.09"/>
  <line x1="921.88" y1="188" x2="920.68" y2="189.27" stroke="#e7cfa0" stroke-width="0.6" opacity="0.11"/>
  <line x1="536.86" y1="98.63" x2="534.27" y2="97.13" stroke="#e7cfa0" stroke-width="0.6" opacity="0.15"/>
  <line x1="328.77" y1="239.64" x2="329.54" y2="242.88" stroke="#e7cfa0" stroke-width="0.6" opacity="0.11"/>
  <line x1="197.89" y1="13.75" x2="201.16" y2="12.66" stroke="#e7cfa0" stroke-width="0.6" opacity="0.15"/>
  <line x1="227.67" y1="179.13" x2="226.58" y2="176.12" stroke="#e7cfa0" stroke-width="0.6" opacity="0.09"/>
  <line x1="108.45" y1="509.63" x2="107.3" y2="507.38" stroke="#e7cfa0" stroke-width="0.6" opacity="0.07"/>
  <line x1="747.09" y1="329.66" x2="748.97" y2="327.7" stroke="#e7cfa0" stroke-width="0.6" opacity="0.07"/>
  <line x1="594.78" y1="282.48" x2="594.94" y2="285.77" stroke="#e7cfa0" stroke-width="0.6" opacity="0.1"/>
  <line x1="551.52" y1="410.83" x2="555.23" y2="409.7" stroke="#e7cfa0" stroke-width="0.6" opacity="0.07"/>
  <line x1="351.14" y1="425.11" x2="352.01" y2="427.76" stroke="#e7cfa0" stroke-width="0.6" opacity="0.1"/>
  <line x1="774.27" y1="257.1" x2="772.37" y2="258.96" stroke="#e7cfa0" stroke-width="0.6" opacity="0.08"/>
  <line x1="486.62" y1="437.67" x2="485.5" y2="437.86" stroke="#e7cfa0" stroke-width="0.6" opacity="0.12"/>
  <line x1="932.85" y1="443.4" x2="929.96" y2="442.59" stroke="#e7cfa0" stroke-width="0.6" opacity="0.11"/>
  <line x1="735.93" y1="146.29" x2="737.05" y2="147.02" stroke="#e7cfa0" stroke-width="0.6" opacity="0.06"/>
  <line x1="873.45" y1="65.67" x2="874.56" y2="68.27" stroke="#e7cfa0" stroke-width="0.6" opacity="0.09"/>
  <line x1="335.07" y1="90.65" x2="337.08" y2="93.2" stroke="#e7cfa0" stroke-width="0.6" opacity="0.11"/>
  <line x1="397.32" y1="397.34" x2="398.13" y2="397.93" stroke="#e7cfa0" stroke-width="0.6" opacity="0.12"/>
  <line x1="295.67" y1="490.13" x2="297.19" y2="490.76" stroke="#e7cfa0" stroke-width="0.6" opacity="0.07"/>
  <line x1="214.97" y1="414.71" x2="218.31" y2="413.48" stroke="#e7cfa0" stroke-width="0.6" opacity="0.06"/>
  <line x1="800.77" y1="374.42" x2="799.34" y2="373.88" stroke="#e7cfa0" stroke-width="0.6" opacity="0.07"/>
  <line x1="555.27" y1="93.58" x2="553.54" y2="96.01" stroke="#e7cfa0" stroke-width="0.6" opacity="0.16"/>
  <line x1="852.45" y1="115.34" x2="853.65" y2="114.68" stroke="#e7cfa0" stroke-width="0.6" opacity="0.12"/>
  <line x1="304.8" y1="475.15" x2="302.39" y2="476.37" stroke="#e7cfa0" stroke-width="0.6" opacity="0.07"/>
  <line x1="946.27" y1="32.75" x2="942.75" y2="31.27" stroke="#e7cfa0" stroke-width="0.6" opacity="0.05"/>
  <line x1="828.86" y1="179.05" x2="827.91" y2="180.81" stroke="#e7cfa0" stroke-width="0.6" opacity="0.06"/>
  <line x1="529.65" y1="375.12" x2="525.91" y2="375.08" stroke="#e7cfa0" stroke-width="0.6" opacity="0.06"/>
  <line x1="768.94" y1="295.74" x2="767.19" y2="295.61" stroke="#e7cfa0" stroke-width="0.6" opacity="0.11"/>
  <line x1="381.03" y1="86.54" x2="380.32" y2="85.77" stroke="#e7cfa0" stroke-width="0.6" opacity="0.08"/>
  <line x1="302.42" y1="116.3" x2="303.39" y2="117.37" stroke="#e7cfa0" stroke-width="0.6" opacity="0.08"/>
  <line x1="363.77" y1="391.44" x2="363.25" y2="393.61" stroke="#e7cfa0" stroke-width="0.6" opacity="0.08"/>
  <line x1="928.63" y1="425.47" x2="927.26" y2="425.7" stroke="#e7cfa0" stroke-width="0.6" opacity="0.14"/>
  <line x1="443.68" y1="109.63" x2="445.51" y2="109.74" stroke="#e7cfa0" stroke-width="0.6" opacity="0.04"/>
  <line x1="271.4" y1="470.29" x2="270.23" y2="469.99" stroke="#e7cfa0" stroke-width="0.6" opacity="0.09"/>
  <line x1="30.84" y1="280.44" x2="34.22" y2="280.66" stroke="#e7cfa0" stroke-width="0.6" opacity="0.06"/>
  <line x1="881.67" y1="353.23" x2="884.53" y2="354.47" stroke="#e7cfa0" stroke-width="0.6" opacity="0.11"/>
  <line x1="716.48" y1="61.22" x2="718.09" y2="59.84" stroke="#e7cfa0" stroke-width="0.6" opacity="0.13"/>
  <line x1="844.66" y1="321.06" x2="845.26" y2="323.32" stroke="#e7cfa0" stroke-width="0.6" opacity="0.05"/>
  <line x1="222.63" y1="353.63" x2="225.01" y2="350.98" stroke="#e7cfa0" stroke-width="0.6" opacity="0.09"/>
  <line x1="844.52" y1="160.52" x2="844.86" y2="161.77" stroke="#e7cfa0" stroke-width="0.6" opacity="0.14"/>
  <line x1="846.93" y1="157.11" x2="847.6" y2="153.75" stroke="#e7cfa0" stroke-width="0.6" opacity="0.09"/>
  <line x1="555.26" y1="205.5" x2="554.91" y2="207.04" stroke="#e7cfa0" stroke-width="0.6" opacity="0.15"/>
  <line x1="647.44" y1="454.72" x2="650.1" y2="457.6" stroke="#e7cfa0" stroke-width="0.6" opacity="0.06"/>
  <line x1="630.43" y1="198.22" x2="630.27" y2="200.4" stroke="#e7cfa0" stroke-width="0.6" opacity="0.16"/>
  <line x1="611.55" y1="36.89" x2="609.22" y2="35.14" stroke="#e7cfa0" stroke-width="0.6" opacity="0.13"/>
  <line x1="494.62" y1="66.88" x2="493.24" y2="65.83" stroke="#e7cfa0" stroke-width="0.6" opacity="0.13"/>
  <line x1="150.67" y1="486.56" x2="150.36" y2="488.41" stroke="#e7cfa0" stroke-width="0.6" opacity="0.05"/>
  <line x1="418.5" y1="213.35" x2="419.17" y2="214.79" stroke="#e7cfa0" stroke-width="0.6" opacity="0.1"/>
  <line x1="36.9" y1="239.4" x2="38.23" y2="240.19" stroke="#e7cfa0" stroke-width="0.6" opacity="0.15"/>
  <line x1="325.18" y1="185.3" x2="326.28" y2="183.64" stroke="#e7cfa0" stroke-width="0.6" opacity="0.09"/>
  <line x1="889.99" y1="78" x2="892.45" y2="76.26" stroke="#e7cfa0" stroke-width="0.6" opacity="0.06"/>
  <line x1="368.64" y1="26.74" x2="369.74" y2="26.92" stroke="#e7cfa0" stroke-width="0.6" opacity="0.06"/>
  <line x1="672.78" y1="493.45" x2="670.05" y2="492.5" stroke="#e7cfa0" stroke-width="0.6" opacity="0.11"/>
  <line x1="646.51" y1="237.79" x2="646.12" y2="239.22" stroke="#e7cfa0" stroke-width="0.6" opacity="0.1"/>
  <line x1="500.29" y1="335.44" x2="501.99" y2="336.24" stroke="#e7cfa0" stroke-width="0.6" opacity="0.09"/>
  <line x1="717.48" y1="217.53" x2="715.92" y2="215.72" stroke="#e7cfa0" stroke-width="0.6" opacity="0.11"/>
  <line x1="712.56" y1="266.22" x2="712.98" y2="268.45" stroke="#e7cfa0" stroke-width="0.6" opacity="0.07"/>
  <line x1="509.74" y1="411.28" x2="511.82" y2="413.13" stroke="#e7cfa0" stroke-width="0.6" opacity="0.14"/>
  <line x1="583.22" y1="498.5" x2="584.21" y2="497.4" stroke="#e7cfa0" stroke-width="0.6" opacity="0.1"/>
  <line x1="390.24" y1="325.53" x2="386.87" y2="326.42" stroke="#e7cfa0" stroke-width="0.6" opacity="0.07"/>
  <line x1="895.78" y1="126.3" x2="892.41" y2="126.97" stroke="#e7cfa0" stroke-width="0.6" opacity="0.04"/>
  <line x1="235.57" y1="526.97" x2="235.58" y2="529.08" stroke="#e7cfa0" stroke-width="0.6" opacity="0.16"/>
  <line x1="576.52" y1="274.78" x2="576.13" y2="277.95" stroke="#e7cfa0" stroke-width="0.6" opacity="0.13"/>
  <line x1="83.54" y1="317.24" x2="84.1" y2="315.74" stroke="#e7cfa0" stroke-width="0.6" opacity="0.13"/>
  <line x1="927.87" y1="453.72" x2="928.32" y2="452.77" stroke="#e7cfa0" stroke-width="0.6" opacity="0.09"/>
  <line x1="730.66" y1="289.56" x2="729.44" y2="291.67" stroke="#e7cfa0" stroke-width="0.6" opacity="0.05"/>
  <line x1="57.94" y1="403.23" x2="56.47" y2="401.26" stroke="#e7cfa0" stroke-width="0.6" opacity="0.15"/>
  <line x1="654.08" y1="396.58" x2="657.55" y2="397.86" stroke="#e7cfa0" stroke-width="0.6" opacity="0.12"/>
  <line x1="952.08" y1="104.1" x2="948.97" y2="102.91" stroke="#e7cfa0" stroke-width="0.6" opacity="0.11"/>
  <line x1="337.41" y1="129.68" x2="336.76" y2="131.39" stroke="#e7cfa0" stroke-width="0.6" opacity="0.09"/>
  <line x1="138.92" y1="70.83" x2="137.41" y2="71.07" stroke="#e7cfa0" stroke-width="0.6" opacity="0.05"/>
  <line x1="368.37" y1="316.2" x2="366.04" y2="315.4" stroke="#e7cfa0" stroke-width="0.6" opacity="0.06"/>
  <line x1="768.64" y1="469.09" x2="769.64" y2="470.82" stroke="#e7cfa0" stroke-width="0.6" opacity="0.09"/>
  <line x1="92.25" y1="83.09" x2="89.1" y2="81.59" stroke="#e7cfa0" stroke-width="0.6" opacity="0.1"/>
  <line x1="602.91" y1="202.34" x2="603.84" y2="202.86" stroke="#e7cfa0" stroke-width="0.6" opacity="0.12"/>
  <line x1="568.28" y1="20.34" x2="568.37" y2="22.46" stroke="#e7cfa0" stroke-width="0.6" opacity="0.15"/>
  <line x1="296" y1="530.33" x2="296.97" y2="531.05" stroke="#e7cfa0" stroke-width="0.6" opacity="0.15"/>
  <line x1="667.36" y1="224.96" x2="668.26" y2="223.45" stroke="#e7cfa0" stroke-width="0.6" opacity="0.12"/>
  <line x1="243.42" y1="177.77" x2="242.09" y2="177.56" stroke="#e7cfa0" stroke-width="0.6" opacity="0.11"/>
  <line x1="747.63" y1="345.21" x2="747.14" y2="346.85" stroke="#e7cfa0" stroke-width="0.6" opacity="0.09"/>
  <line x1="209.41" y1="499.03" x2="207.44" y2="498.5" stroke="#e7cfa0" stroke-width="0.6" opacity="0.11"/>
  <line x1="430.75" y1="372.73" x2="433.9" y2="374.42" stroke="#e7cfa0" stroke-width="0.6" opacity="0.16"/>
  <line x1="416.71" y1="507.2" x2="419.67" y2="505.37" stroke="#e7cfa0" stroke-width="0.6" opacity="0.08"/>
  <line x1="754.63" y1="477.7" x2="755.29" y2="481.55" stroke="#e7cfa0" stroke-width="0.6" opacity="0.07"/>
  <line x1="11.53" y1="448.53" x2="13.11" y2="449.64" stroke="#e7cfa0" stroke-width="0.6" opacity="0.1"/>
  <line x1="459.89" y1="146.04" x2="460.35" y2="148.39" stroke="#e7cfa0" stroke-width="0.6" opacity="0.04"/>
  <line x1="544.21" y1="367.73" x2="543.76" y2="363.91" stroke="#e7cfa0" stroke-width="0.6" opacity="0.11"/>
  <line x1="235.31" y1="348.57" x2="234.74" y2="352.07" stroke="#e7cfa0" stroke-width="0.6" opacity="0.16"/>
  <line x1="630.34" y1="461.82" x2="629.06" y2="459.13" stroke="#e7cfa0" stroke-width="0.6" opacity="0.09"/>
  <line x1="503.69" y1="67.01" x2="502.19" y2="67.81" stroke="#e7cfa0" stroke-width="0.6" opacity="0.07"/>
  <line x1="459.61" y1="102.21" x2="462.88" y2="103.41" stroke="#e7cfa0" stroke-width="0.6" opacity="0.08"/>
  <line x1="72.91" y1="70.77" x2="73.92" y2="71.83" stroke="#e7cfa0" stroke-width="0.6" opacity="0.13"/>
  <line x1="639.19" y1="311.34" x2="642.09" y2="310.92" stroke="#e7cfa0" stroke-width="0.6" opacity="0.11"/>
  <line x1="847.97" y1="199.53" x2="849.61" y2="202.26" stroke="#e7cfa0" stroke-width="0.6" opacity="0.11"/>
  <line x1="735.63" y1="14.43" x2="733.81" y2="11.45" stroke="#e7cfa0" stroke-width="0.6" opacity="0.16"/>
  <line x1="258.12" y1="9.18" x2="259.82" y2="10.56" stroke="#e7cfa0" stroke-width="0.6" opacity="0.09"/>
  <line x1="394.05" y1="63.26" x2="394.1" y2="66.81" stroke="#e7cfa0" stroke-width="0.6" opacity="0.14"/>
  <line x1="319.31" y1="520.72" x2="317.7" y2="521.31" stroke="#e7cfa0" stroke-width="0.6" opacity="0.16"/>
  <line x1="45.47" y1="430.43" x2="42.52" y2="432.04" stroke="#e7cfa0" stroke-width="0.6" opacity="0.12"/>
  <line x1="385.35" y1="342.35" x2="381.69" y2="342.37" stroke="#e7cfa0" stroke-width="0.6" opacity="0.09"/>
  <line x1="782.93" y1="433.28" x2="781.2" y2="434.95" stroke="#e7cfa0" stroke-width="0.6" opacity="0.13"/>
  <line x1="102.43" y1="333.34" x2="103.23" y2="331.16" stroke="#e7cfa0" stroke-width="0.6" opacity="0.08"/>
  <line x1="374.01" y1="30.7" x2="372.07" y2="30.63" stroke="#e7cfa0" stroke-width="0.6" opacity="0.12"/>
  <line x1="569.86" y1="192.43" x2="568.83" y2="190.55" stroke="#e7cfa0" stroke-width="0.6" opacity="0.15"/>
  <line x1="802.52" y1="236.33" x2="801.35" y2="237.1" stroke="#e7cfa0" stroke-width="0.6" opacity="0.13"/>
  <line x1="245.89" y1="102.21" x2="249.78" y2="102.83" stroke="#e7cfa0" stroke-width="0.6" opacity="0.13"/>
  <line x1="413.6" y1="392.87" x2="413.25" y2="394.22" stroke="#e7cfa0" stroke-width="0.6" opacity="0.12"/>
  <line x1="820.92" y1="314.15" x2="824.35" y2="315.53" stroke="#e7cfa0" stroke-width="0.6" opacity="0.11"/>
  <line x1="336.99" y1="287.23" x2="339.55" y2="286.97" stroke="#e7cfa0" stroke-width="0.6" opacity="0.06"/>
  <line x1="931.35" y1="53.39" x2="929.55" y2="51.34" stroke="#e7cfa0" stroke-width="0.6" opacity="0.12"/>
  <line x1="919.61" y1="519.64" x2="922.98" y2="519.08" stroke="#e7cfa0" stroke-width="0.6" opacity="0.12"/>
  <line x1="25.79" y1="508.76" x2="25.57" y2="509.95" stroke="#e7cfa0" stroke-width="0.6" opacity="0.12"/>
  <line x1="353.97" y1="24.54" x2="352.13" y2="25.35" stroke="#e7cfa0" stroke-width="0.6" opacity="0.1"/>
  <line x1="661.15" y1="269.41" x2="659.64" y2="266.84" stroke="#e7cfa0" stroke-width="0.6" opacity="0.13"/>
  <line x1="920.62" y1="361.61" x2="920.2" y2="364.17" stroke="#e7cfa0" stroke-width="0.6" opacity="0.1"/>
  <line x1="739.76" y1="343.84" x2="740.94" y2="341.45" stroke="#e7cfa0" stroke-width="0.6" opacity="0.12"/>
  <line x1="652.77" y1="264.77" x2="651.17" y2="265.59" stroke="#e7cfa0" stroke-width="0.6" opacity="0.15"/>
  <line x1="79.43" y1="128.99" x2="79.82" y2="132.19" stroke="#e7cfa0" stroke-width="0.6" opacity="0.05"/>
  <line x1="398.39" y1="79.65" x2="399.31" y2="76.29" stroke="#e7cfa0" stroke-width="0.6" opacity="0.05"/>
  <line x1="297.01" y1="15.09" x2="297.61" y2="17.14" stroke="#e7cfa0" stroke-width="0.6" opacity="0.09"/>
  <line x1="339.72" y1="249.15" x2="338.51" y2="250.07" stroke="#e7cfa0" stroke-width="0.6" opacity="0.11"/>
  <line x1="221.62" y1="474.7" x2="224.34" y2="472.11" stroke="#e7cfa0" stroke-width="0.6" opacity="0.14"/>
  <line x1="332.37" y1="286.63" x2="333.22" y2="284.79" stroke="#e7cfa0" stroke-width="0.6" opacity="0.16"/>
  <line x1="837.53" y1="480.75" x2="835.74" y2="480.91" stroke="#e7cfa0" stroke-width="0.6" opacity="0.07"/>
  <line x1="685.74" y1="500.15" x2="685.91" y2="502.77" stroke="#e7cfa0" stroke-width="0.6" opacity="0.06"/>
  <line x1="547.38" y1="147.06" x2="548.1" y2="145.3" stroke="#e7cfa0" stroke-width="0.6" opacity="0.1"/>
  <line x1="844.01" y1="3.06" x2="843.88" y2="1.78" stroke="#e7cfa0" stroke-width="0.6" opacity="0.13"/>
  <line x1="44.85" y1="514.9" x2="42.97" y2="515.15" stroke="#e7cfa0" stroke-width="0.6" opacity="0.14"/>
  <line x1="661.08" y1="459.98" x2="663.99" y2="457.95" stroke="#e7cfa0" stroke-width="0.6" opacity="0.08"/>
  <line x1="432.01" y1="258.4" x2="430.65" y2="259.42" stroke="#e7cfa0" stroke-width="0.6" opacity="0.05"/>
  <line x1="335.73" y1="536.38" x2="335.3" y2="539.88" stroke="#e7cfa0" stroke-width="0.6" opacity="0.05"/>
  <line x1="469.8" y1="340.35" x2="471.08" y2="342.37" stroke="#e7cfa0" stroke-width="0.6" opacity="0.1"/>
  <line x1="642.26" y1="538.1" x2="644.51" y2="536.47" stroke="#e7cfa0" stroke-width="0.6" opacity="0.09"/>
  <line x1="351.25" y1="15.05" x2="349.06" y2="13.53" stroke="#e7cfa0" stroke-width="0.6" opacity="0.12"/>
  <line x1="679.58" y1="408.64" x2="679.88" y2="410.89" stroke="#e7cfa0" stroke-width="0.6" opacity="0.07"/>
  <line x1="675.2" y1="37.12" x2="678.96" y2="37.63" stroke="#e7cfa0" stroke-width="0.6" opacity="0.14"/>
  <line x1="266.19" y1="510.14" x2="269.4" y2="507.99" stroke="#e7cfa0" stroke-width="0.6" opacity="0.09"/>
  <line x1="194.58" y1="431.13" x2="195.35" y2="433.11" stroke="#e7cfa0" stroke-width="0.6" opacity="0.05"/>
  <line x1="710.57" y1="72.13" x2="708.76" y2="71.93" stroke="#e7cfa0" stroke-width="0.6" opacity="0.08"/>
  <line x1="796.42" y1="497.53" x2="795.23" y2="498.33" stroke="#e7cfa0" stroke-width="0.6" opacity="0.1"/>
  <line x1="646.49" y1="385.3" x2="648.26" y2="384.04" stroke="#e7cfa0" stroke-width="0.6" opacity="0.04"/>
  <line x1="61.87" y1="12.6" x2="65.78" y2="12.06" stroke="#e7cfa0" stroke-width="0.6" opacity="0.11"/>
  <line x1="839.66" y1="187.81" x2="837.42" y2="187.5" stroke="#e7cfa0" stroke-width="0.6" opacity="0.11"/>
  <line x1="632.95" y1="253.72" x2="633.93" y2="254.27" stroke="#e7cfa0" stroke-width="0.6" opacity="0.07"/>
  <line x1="286.95" y1="274.38" x2="284.17" y2="273.01" stroke="#e7cfa0" stroke-width="0.6" opacity="0.05"/>
  <line x1="498.55" y1="104.8" x2="497.56" y2="108.51" stroke="#e7cfa0" stroke-width="0.6" opacity="0.15"/>
  <line x1="561.55" y1="56.06" x2="562.64" y2="58.97" stroke="#e7cfa0" stroke-width="0.6" opacity="0.14"/>
  <line x1="305.87" y1="538.58" x2="302.3" y2="536.91" stroke="#e7cfa0" stroke-width="0.6" opacity="0.15"/>
  <line x1="187.25" y1="245.73" x2="188.72" y2="244.81" stroke="#e7cfa0" stroke-width="0.6" opacity="0.14"/>
  <line x1="324.17" y1="472" x2="321.55" y2="471.83" stroke="#e7cfa0" stroke-width="0.6" opacity="0.08"/>
  <line x1="632.02" y1="224.58" x2="631.17" y2="225.14" stroke="#e7cfa0" stroke-width="0.6" opacity="0.09"/>
  <line x1="316.29" y1="296.1" x2="317.93" y2="296" stroke="#e7cfa0" stroke-width="0.6" opacity="0.14"/>
  <line x1="275.84" y1="211.26" x2="276.3" y2="213.54" stroke="#e7cfa0" stroke-width="0.6" opacity="0.1"/>
  <line x1="49.42" y1="372.47" x2="45.8" y2="373.88" stroke="#e7cfa0" stroke-width="0.6" opacity="0.05"/>
  <line x1="810.05" y1="473.06" x2="807.29" y2="474.54" stroke="#e7cfa0" stroke-width="0.6" opacity="0.07"/>
  <line x1="959.69" y1="251.92" x2="955.96" y2="253.16" stroke="#e7cfa0" stroke-width="0.6" opacity="0.1"/>
  <line x1="264.94" y1="19.64" x2="268.12" y2="19.24" stroke="#e7cfa0" stroke-width="0.6" opacity="0.15"/>
  <line x1="876.58" y1="7.35" x2="876.26" y2="6.24" stroke="#e7cfa0" stroke-width="0.6" opacity="0.11"/>
  <line x1="619.59" y1="169.28" x2="616.37" y2="168.9" stroke="#e7cfa0" stroke-width="0.6" opacity="0.05"/>
  <line x1="331.17" y1="190.21" x2="331.62" y2="192.73" stroke="#e7cfa0" stroke-width="0.6" opacity="0.12"/>
  <line x1="22.84" y1="69.02" x2="22.11" y2="71.54" stroke="#e7cfa0" stroke-width="0.6" opacity="0.08"/>
  <line x1="78.39" y1="56.91" x2="76.01" y2="56.22" stroke="#e7cfa0" stroke-width="0.6" opacity="0.04"/>
  <line x1="266.02" y1="26.38" x2="268.09" y2="29.29" stroke="#e7cfa0" stroke-width="0.6" opacity="0.16"/>
  <line x1="956.78" y1="177.6" x2="956.57" y2="180.66" stroke="#e7cfa0" stroke-width="0.6" opacity="0.1"/>
  <line x1="558.32" y1="186.32" x2="560.07" y2="182.74" stroke="#e7cfa0" stroke-width="0.6" opacity="0.11"/>
  <line x1="110.4" y1="392.5" x2="108.7" y2="390.19" stroke="#e7cfa0" stroke-width="0.6" opacity="0.05"/>
  <line x1="42.31" y1="106.01" x2="43.94" y2="109.64" stroke="#e7cfa0" stroke-width="0.6" opacity="0.05"/>
  <line x1="765.6" y1="410.38" x2="766.16" y2="406.99" stroke="#e7cfa0" stroke-width="0.6" opacity="0.12"/>
  <line x1="232.27" y1="55.29" x2="229.9" y2="56.01" stroke="#e7cfa0" stroke-width="0.6" opacity="0.12"/>
  <line x1="91.72" y1="267.83" x2="93.75" y2="267.02" stroke="#e7cfa0" stroke-width="0.6" opacity="0.15"/>
  <line x1="639.86" y1="386.91" x2="643.73" y2="387.78" stroke="#e7cfa0" stroke-width="0.6" opacity="0.14"/>
  <line x1="37.87" y1="435.55" x2="38.9" y2="435.02" stroke="#e7cfa0" stroke-width="0.6" opacity="0.14"/>
  <line x1="251.5" y1="290.66" x2="252.52" y2="292.06" stroke="#e7cfa0" stroke-width="0.6" opacity="0.06"/>
  <line x1="929.19" y1="267.72" x2="927.97" y2="268.43" stroke="#e7cfa0" stroke-width="0.6" opacity="0.13"/>
  <line x1="299.01" y1="93.85" x2="300.79" y2="90.8" stroke="#e7cfa0" stroke-width="0.6" opacity="0.09"/>
  <line x1="524.06" y1="251.99" x2="525.69" y2="250.05" stroke="#e7cfa0" stroke-width="0.6" opacity="0.04"/>
  <line x1="139.7" y1="150.41" x2="138.48" y2="148.46" stroke="#e7cfa0" stroke-width="0.6" opacity="0.11"/>
  <line x1="880.08" y1="488.04" x2="878.89" y2="488.24" stroke="#e7cfa0" stroke-width="0.6" opacity="0.06"/>
  <line x1="334.28" y1="216.29" x2="335.75" y2="214.86" stroke="#e7cfa0" stroke-width="0.6" opacity="0.08"/>
  <line x1="49.8" y1="532.53" x2="48.17" y2="529.95" stroke="#e7cfa0" stroke-width="0.6" opacity="0.06"/>
  <line x1="600.71" y1="433.4" x2="603.45" y2="434.73" stroke="#e7cfa0" stroke-width="0.6" opacity="0.12"/>
  <line x1="828.11" y1="355.12" x2="826.7" y2="358.27" stroke="#e7cfa0" stroke-width="0.6" opacity="0.08"/>
  <line x1="89.27" y1="281.83" x2="92.94" y2="281.69" stroke="#e7cfa0" stroke-width="0.6" opacity="0.1"/>
  <line x1="561.87" y1="422.81" x2="562.75" y2="422.17" stroke="#e7cfa0" stroke-width="0.6" opacity="0.09"/>
  <line x1="708.79" y1="264.62" x2="706.11" y2="267.12" stroke="#e7cfa0" stroke-width="0.6" opacity="0.09"/>
  <line x1="387.99" y1="228.15" x2="386.46" y2="229.34" stroke="#e7cfa0" stroke-width="0.6" opacity="0.05"/>
  <line x1="56.22" y1="23.74" x2="54.64" y2="21.73" stroke="#e7cfa0" stroke-width="0.6" opacity="0.14"/>
  <line x1="769.96" y1="147.96" x2="772.71" y2="145.74" stroke="#e7cfa0" stroke-width="0.6" opacity="0.09"/>
  <line x1="601.26" y1="365.14" x2="598.49" y2="364" stroke="#e7cfa0" stroke-width="0.6" opacity="0.12"/>
  <line x1="753.34" y1="202.88" x2="756.62" y2="201.57" stroke="#e7cfa0" stroke-width="0.6" opacity="0.06"/>
  <line x1="455.31" y1="517.64" x2="456.64" y2="514.4" stroke="#e7cfa0" stroke-width="0.6" opacity="0.12"/>
  <line x1="459.56" y1="133.1" x2="461.27" y2="130.59" stroke="#e7cfa0" stroke-width="0.6" opacity="0.07"/>
  <line x1="928.19" y1="158.99" x2="929.76" y2="155.63" stroke="#e7cfa0" stroke-width="0.6" opacity="0.05"/>
  <line x1="683.11" y1="310.22" x2="684.57" y2="310.85" stroke="#e7cfa0" stroke-width="0.6" opacity="0.09"/>
  <line x1="88.65" y1="36.66" x2="89.99" y2="36.99" stroke="#e7cfa0" stroke-width="0.6" opacity="0.1"/>
  <line x1="590.63" y1="358.33" x2="587.01" y2="358.95" stroke="#e7cfa0" stroke-width="0.6" opacity="0.15"/>
  <line x1="154.36" y1="504.16" x2="156.03" y2="503.95" stroke="#e7cfa0" stroke-width="0.6" opacity="0.05"/>
  <line x1="101.4" y1="498.1" x2="102.51" y2="498.19" stroke="#e7cfa0" stroke-width="0.6" opacity="0.1"/>
  <line x1="523.88" y1="530.08" x2="525.6" y2="533.16" stroke="#e7cfa0" stroke-width="0.6" opacity="0.05"/>
  <line x1="817.27" y1="24.5" x2="817.8" y2="22.97" stroke="#e7cfa0" stroke-width="0.6" opacity="0.1"/>
  <line x1="648.38" y1="209.98" x2="648.64" y2="212.2" stroke="#e7cfa0" stroke-width="0.6" opacity="0.14"/>
  <line x1="105.69" y1="539.99" x2="104.52" y2="540.21" stroke="#e7cfa0" stroke-width="0.6" opacity="0.05"/>
  <line x1="742.54" y1="264.92" x2="741.04" y2="263.31" stroke="#e7cfa0" stroke-width="0.6" opacity="0.13"/>
  <line x1="143.37" y1="440.45" x2="143.77" y2="442.36" stroke="#e7cfa0" stroke-width="0.6" opacity="0.04"/>
  <line x1="174.01" y1="17.88" x2="172.08" y2="14.8" stroke="#e7cfa0" stroke-width="0.6" opacity="0.13"/>
  <line x1="898.59" y1="148.56" x2="901.01" y2="149.92" stroke="#e7cfa0" stroke-width="0.6" opacity="0.05"/>
  <line x1="268.09" y1="145.28" x2="266.24" y2="148.06" stroke="#e7cfa0" stroke-width="0.6" opacity="0.06"/>
  <line x1="909.09" y1="137.67" x2="912.63" y2="137.09" stroke="#e7cfa0" stroke-width="0.6" opacity="0.06"/>
  <line x1="358.61" y1="317.94" x2="357.64" y2="321.8" stroke="#e7cfa0" stroke-width="0.6" opacity="0.09"/>
  <line x1="357.91" y1="247.97" x2="355.47" y2="247.13" stroke="#e7cfa0" stroke-width="0.6" opacity="0.09"/>
  <line x1="228.64" y1="59.02" x2="226.16" y2="58.07" stroke="#e7cfa0" stroke-width="0.6" opacity="0.12"/>
  <line x1="223.39" y1="513.5" x2="223.31" y2="511.38" stroke="#e7cfa0" stroke-width="0.6" opacity="0.12"/>
  <line x1="593.89" y1="68.2" x2="590.93" y2="66.92" stroke="#e7cfa0" stroke-width="0.6" opacity="0.06"/>
  <line x1="40.3" y1="13.09" x2="44.01" y2="12.84" stroke="#e7cfa0" stroke-width="0.6" opacity="0.1"/>
  <line x1="689.32" y1="76.65" x2="689.43" y2="78.27" stroke="#e7cfa0" stroke-width="0.6" opacity="0.11"/>
  <line x1="48" y1="270" x2="912" y2="270" stroke="#caa15a" stroke-width="1.6" opacity="0.4"/>
  <circle cx="48" cy="270" r="4" fill="#b5651d" opacity="0.6"/>
  <line x1="48" y1="270" x2="48" y2="255.55" stroke="#e7cfa0" stroke-width="1" opacity="0.3"/>
  <circle cx="144" cy="270" r="4" fill="#b5651d" opacity="0.6"/>
  <line x1="144" y1="270" x2="144" y2="295.95" stroke="#e7cfa0" stroke-width="1" opacity="0.3"/>
  <circle cx="240" cy="270" r="4" fill="#b5651d" opacity="0.6"/>
  <line x1="240" y1="270" x2="240" y2="259.53" stroke="#e7cfa0" stroke-width="1" opacity="0.3"/>
  <circle cx="336" cy="270" r="4" fill="#b5651d" opacity="0.6"/>
  <line x1="336" y1="270" x2="336" y2="296.32" stroke="#e7cfa0" stroke-width="1" opacity="0.3"/>
  <circle cx="432" cy="270" r="4" fill="#b5651d" opacity="0.6"/>
  <line x1="432" y1="270" x2="432" y2="249.95" stroke="#e7cfa0" stroke-width="1" opacity="0.3"/>
  <circle cx="528" cy="270" r="4" fill="#b5651d" opacity="0.6"/>
  <line x1="528" y1="270" x2="528" y2="294.69" stroke="#e7cfa0" stroke-width="1" opacity="0.3"/>
  <circle cx="624" cy="270" r="4" fill="#b5651d" opacity="0.6"/>
  <line x1="624" y1="270" x2="624" y2="253.36" stroke="#e7cfa0" stroke-width="1" opacity="0.3"/>
  <circle cx="720" cy="270" r="4" fill="#b5651d" opacity="0.6"/>
  <line x1="720" y1="270" x2="720" y2="296.13" stroke="#e7cfa0" stroke-width="1" opacity="0.3"/>
  <circle cx="816" cy="270" r="4" fill="#b5651d" opacity="0.6"/>
  <line x1="816" y1="270" x2="816" y2="250.78" stroke="#e7cfa0" stroke-width="1" opacity="0.3"/>
  <circle cx="912" cy="270" r="4" fill="#b5651d" opacity="0.6"/>
  <line x1="912" y1="270" x2="912" y2="284.59" stroke="#e7cfa0" stroke-width="1" opacity="0.3"/>
</svg>
