<svg xmlns="http://www.w3.org/2000/svg" viewBox="0 0 960 540" width="960" height="540" role="img" aria-label="history decorative background">
  <defs>
    <radialGradient id="grad-history-large-03" cx="50%" cy="35%" r="80%">
      <stop offset="0%" stop-color="#caa15a" stop-opacity="0.10"/>
      <stop offset="100%" stop-color="#1b1305" stop-opacity="0"/>
    </radialGradient>
  </defs>
  <rect width="960" height="540" fill="#1b1305"/>
  <rect width="960" height="540" fill="url(#grad-history-large-03)"/>
  <line x1="619.97" y1="382.67" x2="618.88" y2="382.78" stroke="#e7cfa0" stroke-width="0.6" opacity="0.15"/>
  <line x1="126.39" y1="395.13" x2="129.29" y2="396.22" stroke="#e7cfa0" stroke-width="0.6" opacity="0.1"/>
  <line x1="464.48" y1="132.75" x2="461.76" y2="134.05" stroke="#e7cfa0" stroke-width="0.6" opacity="0.06"/>
  <line x1="126.57" y1="403.38" x2="124.79" y2="402.73" stroke="#e7cfa0" stroke-width="0.6" opacity="0.16"/>
  <line x1="869.41" y1="120.74" x2="872.81" y2="120.07" stroke="#e7cfa0" stroke-width="0.6" opacity="0.12"/>
  <line x1="35.36" y1="30.34" x2="38.74" y2="29.42" stroke="#e7cfa0" stroke-width="0.6" opacity="0.12"/>
  <line x1="897.58" y1="363.75" x2="896.71" y2="367.41" stroke="#e7cfa0" stroke-width="0.6" opacity="0.13"/>
  <line x1="928.68" y1="135" x2="927.63" y2="135.83" stroke="#e7cfa0" stroke-width="0.6" opacity="0.06"/>
  <line x1="335.6" y1="67.98" x2="333.09" y2="67.69" stroke="#e7cfa0" stroke-width="0.6" opacity="0.14"/>
  <line x1="818.52" y1="31.33" x2="816.8" y2="31.18" stroke="#e7cfa0" stroke-width="0.6" opacity="0.12"/>
  <line x1="784.62" y1="0.26" x2="788.12" y2="1.45" stroke="#e7cfa0" stroke-width="0.6" opacity="0.09"/>
  <line x1="373.56" y1="262.96" x2="375.83" y2="264.83" stroke="#e7cfa0" stroke-width="0.6" opacity="0.15"/>
  <line x1="580.81" y1="116.34" x2="581.89" y2="113.5" stroke="#e7cfa0" stroke-width="0.6" opacity="0.14"/>
  <line x1="264.94" y1="257.86" x2="262.33" y2="255.06" stroke="#e7cfa0" stroke-width="0.6" opacity="0.11"/>
  <line x1="834.01" y1="439.86" x2="832.12" y2="438.22" stroke="#e7cfa0" stroke-width="0.6" opacity="0.04"/>
  <line x1="772.49" y1="22.19" x2="773.8" y2="21.03" stroke="#e7cfa0" stroke-width="0.6" opacity="0.1"/>
  <line x1="93.99" y1="131.18" x2="92.99" y2="134.02" stroke="#e7cfa0" stroke-width="0.6" opacity="0.05"/>
  <line x1="274.54" y1="313.41" x2="276.15" y2="309.94" stroke="#e7cfa0" stroke-width="0.6" opacity="0.15"/>
  <line x1="762.38" y1="7.45" x2="760.79" y2="8.29" stroke="#e7cfa0" stroke-width="0.6" opacity="0.07"/>
  <line x1="108.4" y1="391.08" x2="109.82" y2="391.59" stroke="#e7cfa0" stroke-width="0.6" opacity="0.11"/>
  <line x1="944.04" y1="391.38" x2="946.36" y2="390.37" stroke="#e7cfa0" stroke-width="0.6" opacity="0.16"/>
  <line x1="291.47" y1="42.13" x2="292.66" y2="41.28" stroke="#e7cfa0" stroke-width="0.6" opacity="0.04"/>
  <line x1="235.18" y1="6.55" x2="235.29" y2="5.06" stroke="#e7cfa0" stroke-width="0.6" opacity="0.11"/>
  <line x1="432.16" y1="470.08" x2="430.85" y2="470.51" stroke="#e7cfa0" stroke-width="0.6" opacity="0.15"/>
  <line x1="636.55" y1="479.6" x2="636.32" y2="478.52" stroke="#e7cfa0" stroke-width="0.6" opacity="0.05"/>
  <line x1="897.11" y1="68.45" x2="900.19" y2="70.26" stroke="#e7cfa0" stroke-width="0.6" opacity="0.12"/>
  <line x1="18.25" y1="163.06" x2="18.15" y2="165.55" stroke="#e7cfa0" stroke-width="0.6" opacity="0.11"/>
  <line x1="356.09" y1="420.99" x2="357.83" y2="420.66" stroke="#e7cfa0" stroke-width="0.6" opacity="0.09"/>
  <line x1="688.91" y1="276.09" x2="688.54" y2="274.63" stroke="#e7cfa0" stroke-width="0.6" opacity="0.09"/>
  <line x1="297.77" y1="329.12" x2="297.55" y2="327.13" stroke="#e7cfa0" stroke-width="0.6" opacity="0.07"/>
  <line x1="895.23" y1="142.49" x2="896.87" y2="144.44" stroke="#e7cfa0" stroke-width="0.6" opacity="0.15"/>
  <line x1="579.63" y1="74.22" x2="578.14" y2="75.54" stroke="#e7cfa0" stroke-width="0.6" opacity="0.09"/>
  <line x1="318.86" y1="364.49" x2="321.44" y2="364.14" stroke="#e7cfa0" stroke-width="0.6" opacity="0.12"/>
  <line x1="282.14" y1="82.37" x2="279.92" y2="83.82" stroke="#e7cfa0" stroke-width="0.6" opacity="0.07"/>
  <line x1="66.07" y1="196.49" x2="68.72" y2="197.13" stroke="#e7cfa0" stroke-width="0.6" opacity="0.05"/>
  <line x1="742.24" y1="265.97" x2="740.82" y2="265.8" stroke="#e7cfa0" stroke-width="0.6" opacity="0.06"/>
  <line x1="521.56" y1="373.11" x2="518.78" y2="375.37" stroke="#e7cfa0" stroke-width="0.6" opacity="0.09"/>
  <line x1="63.33" y1="313.78" x2="64.45" y2="313.94" stroke="#e7cfa0" stroke-width="0.6" opacity="0.06"/>
  <line x1="341.3" y1="69.73" x2="340.32" y2="73.36" stroke="#e7cfa0" stroke-width="0.6" opacity="0.09"/>
  <line x1="698.42" y1="62.73" x2="697.54" y2="64.82" stroke="#e7cfa0" stroke-width="0.6" opacity="0.1"/>
  <line x1="849.98" y1="390.13" x2="846.38" y2="390.99" stroke="#e7cfa0" stroke-width="0.6" opacity="0.08"/>
  <line x1="820.68" y1="413.68" x2="821.84" y2="415.59" stroke="#e7cfa0" stroke-width="0.6" opacity="0.13"/>
  <line x1="647.39" y1="292.95" x2="649.32" y2="294.07" stroke="#e7cfa0" stroke-width="0.6" opacity="0.15"/>
  <line x1="349.96" y1="445.24" x2="346.96" y2="446.38" stroke="#e7cfa0" stroke-width="0.6" opacity="0.07"/>
  <line x1="253.82" y1="466.01" x2="250.89" y2="464.33" stroke="#e7cfa0" stroke-width="0.6" opacity="0.08"/>
  <line x1="796.22" y1="35.64" x2="797.15" y2="35.18" stroke="#e7cfa0" stroke-width="0.6" opacity="0.12"/>
  <line x1="917.94" y1="403.21" x2="920.21" y2="400.89" stroke="#e7cfa0" stroke-width="0.6" opacity="0.06"/>
  <line x1="90.42" y1="318.99" x2="88.96" y2="319.45" stroke="#e7cfa0" stroke-width="0.6" opacity="0.15"/>
  <line x1="131.83" y1="371.82" x2="131.47" y2="373.04" stroke="#e7cfa0" stroke-width="0.6" opacity="0.12"/>
  <line x1="400.8" y1="440.87" x2="402.86" y2="438.14" stroke="#e7cfa0" stroke-width="0.6" opacity="0.15"/>
  <line x1="925.86" y1="107.28" x2="927.05" y2="106.66" stroke="#e7cfa0" stroke-width="0.6" opacity="0.14"/>
  <line x1="316.7" y1="13.63" x2="314.15" y2="11.39" stroke="#e7cfa0" stroke-width="0.6" opacity="0.12"/>
  <line x1="312.56" y1="296.6" x2="308.91" y2="296.37" stroke="#e7cfa0" stroke-width="0.6" opacity="0.05"/>
  <line x1="544.96" y1="308.11" x2="544.92" y2="305.77" stroke="#e7cfa0" stroke-width="0.6" opacity="0.06"/>
  <line x1="691.48" y1="358.98" x2="692.8" y2="358.31" stroke="#e7cfa0" stroke-width="0.6" opacity="0.09"/>
  <line x1="622.86" y1="28.26" x2="624.28" y2="27.87" stroke="#e7cfa0" stroke-width="0.6" opacity="0.15"/>
  <line x1="38.58" y1="62.52" x2="39.36" y2="59.28" stroke="#e7cfa0" stroke-width="0.6" opacity="0.11"/>
  <line x1="689.44" y1="23.71" x2="688.37" y2="23.52" stroke="#e7cfa0" stroke-width="0.6" opacity="0.15"/>
  <line x1="741.59" y1="376.62" x2="745.05" y2="376.21" stroke="#e7cfa0" stroke-width="0.6" opacity="0.14"/>
  <line x1="491.14" y1="194.99" x2="492.23" y2="196.85" stroke="#e7cfa0" stroke-width="0.6" opacity="0.1"/>
  <line x1="909.1" y1="510.98" x2="911.28" y2="512.49" stroke="#e7cfa0" stroke-width="0.6" opacity="0.16"/>
  <line x1="470.4" y1="521.64" x2="469.43" y2="522.67" stroke="#e7cfa0" stroke-width="0.6" opacity="0.07"/>
  <line x1="734.4" y1="261.22" x2="732.04" y2="261.57" stroke="#e7cfa0" stroke-width="0.6" opacity="0.12"/>
  <line x1="655.11" y1="247.86" x2="653.93" y2="250.38" stroke="#e7cfa0" stroke-width="0.6" opacity="0.09"/>
  <line x1="336.04" y1="48.3" x2="334.2" y2="45.07" stroke="#e7cfa0" stroke-width="0.6" opacity="0.07"/>
  <line x1="354.32" y1="158.13" x2="354.42" y2="156.92" stroke="#e7cfa0" stroke-width="0.6" opacity="0.11"/>
  <line x1="5.51" y1="111.73" x2="4.39" y2="111.06" stroke="#e7cfa0" stroke-width="0.6" opacity="0.08"/>
  <line x1="710.07" y1="219.28" x2="708.46" y2="216.8" stroke="#e7cfa0" stroke-width="0.6" opacity="0.12"/>
  <line x1="788.55" y1="534.35" x2="790.14" y2="532.34" stroke="#e7cfa0" stroke-width="0.6" opacity="0.13"/>
  <line x1="857.59" y1="260.48" x2="857.12" y2="262.6" stroke="#e7cfa0" stroke-width="0.6" opacity="0.14"/>
  <line x1="949.71" y1="167.94" x2="948.68" y2="168.26" stroke="#e7cfa0" stroke-width="0.6" opacity="0.04"/>
  <line x1="305.59" y1="301.26" x2="306.9" y2="298.91" stroke="#e7cfa0" stroke-width="0.6" opacity="0.05"/>
  <line x1="820.98" y1="112.52" x2="822.31" y2="113.96" stroke="#e7cfa0" stroke-width="0.6" opacity="0.15"/>
  <line x1="105.79" y1="424.98" x2="106.32" y2="426.48" stroke="#e7cfa0" stroke-width="0.6" opacity="0.15"/>
  <line x1="73.79" y1="167.15" x2="73.14" y2="170.6" stroke="#e7cfa0" stroke-width="0.6" opacity="0.09"/>
  <line x1="935.27" y1="483.53" x2="933.27" y2="486.83" stroke="#e7cfa0" stroke-width="0.6" opacity="0.07"/>
  <line x1="359.23" y1="394.58" x2="356.59" y2="392.62" stroke="#e7cfa0" stroke-width="0.6" opacity="0.05"/>
  <line x1="307.65" y1="413.32" x2="309.54" y2="415.98" stroke="#e7cfa0" stroke-width="0.6" opacity="0.14"/>
  <line x1="755.3" y1="15.52" x2="757.79" y2="13.4" stroke="#e7cfa0" stroke-width="0.6" opacity="0.1"/>
  <line x1="778.64" y1="415.82" x2="780.6" y2="417.36" stroke="#e7cfa0" stroke-width="0.6" opacity="0.06"/>
  <line x1="160.58" y1="468.74" x2="159.91" y2="466.52" stroke="#e7cfa0" stroke-width="0.6" opacity="0.05"/>
  <line x1="358.7" y1="252.48" x2="357.36" y2="250.92" stroke="#e7cfa0" stroke-width="0.6" opacity="0.15"/>
  <line x1="382.19" y1="230.02" x2="378.94" y2="231.09" stroke="#e7cfa0" stroke-width="0.6" opacity="0.13"/>
  <line x1="250.34" y1="76.45" x2="248.83" y2="77.18" stroke="#e7cfa0" stroke-width="0.6" opacity="0.09"/>
  <line x1="561.99" y1="14.48" x2="564.16" y2="13.86" stroke="#e7cfa0" stroke-width="0.6" opacity="0.05"/>
  <line x1="29.64" y1="537.57" x2="32.15" y2="536.53" stroke="#e7cfa0" stroke-width="0.6" opacity="0.12"/>
  <line x1="788.39" y1="201.92" x2="786.98" y2="202.17" stroke="#e7cfa0" stroke-width="0.6" opacity="0.11"/>
  <line x1="631.38" y1="344.34" x2="630.92" y2="343.44" stroke="#e7cfa0" stroke-width="0.6" opacity="0.05"/>
  <line x1="71.75" y1="462.43" x2="75.11" y2="460.27" stroke="#e7cfa0" stroke-width="0.6" opacity="0.09"/>
  <line x1="154.31" y1="212.42" x2="154.05" y2="210.42" stroke="#e7cfa0" stroke-width="0.6" opacity="0.15"/>
  <line x1="900.41" y1="27.75" x2="900.17" y2="30.87" stroke="#e7cfa0" stroke-width="0.6" opacity="0.15"/>
  <line x1="477.66" y1="6.84" x2="474.49" y2="6.48" stroke="#e7cfa0" stroke-width="0.6" opacity="0.11"/>
  <line x1="359.64" y1="292.89" x2="358.27" y2="289.56" stroke="#e7cfa0" stroke-width="0.6" opacity="0.16"/>
  <line x1="752.46" y1="37.53" x2="750.92" y2="36.18" stroke="#e7cfa0" stroke-width="0.6" opacity="0.08"/>
  <line x1="829.79" y1="448.7" x2="827.06" y2="451.04" stroke="#e7cfa0" stroke-width="0.6" opacity="0.11"/>
  <line x1="500.63" y1="450.29" x2="497.84" y2="447.52" stroke="#e7cfa0" stroke-width="0.6" opacity="0.16"/>
  <line x1="440.51" y1="141.35" x2="440.82" y2="137.78" stroke="#e7cfa0" stroke-width="0.6" opacity="0.12"/>
  <line x1="222.12" y1="110.14" x2="223.64" y2="113.39" stroke="#e7cfa0" stroke-width="0.6" opacity="0.13"/>
  <line x1="806.51" y1="434.35" x2="809.56" y2="432.69" stroke="#e7cfa0" stroke-width="0.6" opacity="0.11"/>
  <line x1="15.18" y1="255.75" x2="16.42" y2="255.57" stroke="#e7cfa0" stroke-width="0.6" opacity="0.07"/>
  <line x1="526.27" y1="34.46" x2="528.28" y2="31.8" stroke="#e7cfa0" stroke-width="0.6" opacity="0.06"/>
  <line x1="896.7" y1="456.12" x2="893.48" y2="458" stroke="#e7cfa0" stroke-width="0.6" opacity="0.16"/>
  <line x1="668.38" y1="181.72" x2="664.65" y2="182.58" stroke="#e7cfa0" stroke-width="0.6" opacity="0.09"/>
  <line x1="929.71" y1="396.89" x2="929.17" y2="397.9" stroke="#e7cfa0" stroke-width="0.6" opacity="0.14"/>
  <line x1="741.38" y1="374.82" x2="744.71" y2="376.39" stroke="#e7cfa0" stroke-width="0.6" opacity="0.14"/>
  <line x1="581.78" y1="348.22" x2="579.83" y2="347.56" stroke="#e7cfa0" stroke-width="0.6" opacity="0.14"/>
  <line x1="101.27" y1="155.54" x2="101.53" y2="157.13" stroke="#e7cfa0" stroke-width="0.6" opacity="0.04"/>
  <line x1="933.34" y1="372.37" x2="930.65" y2="373.14" stroke="#e7cfa0" stroke-width="0.6" opacity="0.11"/>
  <line x1="296.69" y1="68.21" x2="296.65" y2="66.41" stroke="#e7cfa0" stroke-width="0.6" opacity="0.14"/>
  <line x1="806.53" y1="240.57" x2="805.39" y2="238.65" stroke="#e7cfa0" stroke-width="0.6" opacity="0.07"/>
  <line x1="65.42" y1="430.67" x2="64.09" y2="428.62" stroke="#e7cfa0" stroke-width="0.6" opacity="0.13"/>
  <line x1="15.38" y1="299.83" x2="16.03" y2="301.75" stroke="#e7cfa0" stroke-width="0.6" opacity="0.13"/>
  <line x1="76.77" y1="441.53" x2="73.21" y2="440.86" stroke="#e7cfa0" stroke-width="0.6" opacity="0.11"/>
  <line x1="364.94" y1="83.95" x2="362.84" y2="82.13" stroke="#e7cfa0" stroke-width="0.6" opacity="0.06"/>
  <line x1="322.55" y1="412.66" x2="320.41" y2="413.37" stroke="#e7cfa0" stroke-width="0.6" opacity="0.09"/>
  <line x1="531.94" y1="373.66" x2="528.38" y2="374.99" stroke="#e7cfa0" stroke-width="0.6" opacity="0.06"/>
  <line x1="315.73" y1="514.86" x2="315.08" y2="513.6" stroke="#e7cfa0" stroke-width="0.6" opacity="0.1"/>
  <line x1="561.57" y1="341.67" x2="562.35" y2="342.75" stroke="#e7cfa0" stroke-width="0.6" opacity="0.14"/>
  <line x1="698.97" y1="227.31" x2="700.9" y2="223.94" stroke="#e7cfa0" stroke-width="0.6" opacity="0.08"/>
  <line x1="474.71" y1="23.82" x2="472.24" y2="23.06" stroke="#e7cfa0" stroke-width="0.6" opacity="0.12"/>
  <line x1="636.32" y1="106.32" x2="635.02" y2="104.12" stroke="#e7cfa0" stroke-width="0.6" opacity="0.09"/>
  <line x1="817.15" y1="280.55" x2="817.05" y2="282.14" stroke="#e7cfa0" stroke-width="0.6" opacity="0.1"/>
  <line x1="519.67" y1="345.25" x2="516.05" y2="344.41" stroke="#e7cfa0" stroke-width="0.6" opacity="0.06"/>
  <line x1="957.01" y1="327.78" x2="957.95" y2="326.96" stroke="#e7cfa0" stroke-width="0.6" opacity="0.12"/>
  <line x1="367.68" y1="382.84" x2="366.34" y2="382.56" stroke="#e7cfa0" stroke-width="0.6" opacity="0.05"/>
  <line x1="8.75" y1="126.92" x2="9.62" y2="127.42" stroke="#e7cfa0" stroke-width="0.6" opacity="0.05"/>
  <line x1="488.23" y1="462.42" x2="488.94" y2="461.44" stroke="#e7cfa0" stroke-width="0.6" opacity="0.06"/>
  <line x1="211.91" y1="402.88" x2="210.31" y2="403.17" stroke="#e7cfa0" stroke-width="0.6" opacity="0.06"/>
  <line x1="176.3" y1="245.57" x2="173.93" y2="244.65" stroke="#e7cfa0" stroke-width="0.6" opacity="0.14"/>
  <line x1="919.71" y1="312.11" x2="923.29" y2="311.83" stroke="#e7cfa0" stroke-width="0.6" opacity="0.1"/>
  <line x1="7.79" y1="412.42" x2="4.89" y2="410.52" stroke="#e7cfa0" stroke-width="0.6" opacity="0.12"/>
  <line x1="397.67" y1="241.23" x2="399.64" y2="239.04" stroke="#e7cfa0" stroke-width="0.6" opacity="0.06"/>
  <line x1="525.62" y1="33.13" x2="526.17" y2="34.72" stroke="#e7cfa0" stroke-width="0.6" opacity="0.11"/>
  <line x1="54.22" y1="347.32" x2="52.89" y2="346.31" stroke="#e7cfa0" stroke-width="0.6" opacity="0.08"/>
  <line x1="457.91" y1="81.61" x2="459.36" y2="81.47" stroke="#e7cfa0" stroke-width="0.6" opacity="0.13"/>
  <line x1="945.25" y1="444.34" x2="946.45" y2="441.81" stroke="#e7cfa0" stroke-width="0.6" opacity="0.15"/>
  <line x1="398.95" y1="401.36" x2="396.58" y2="403.04" stroke="#e7cfa0" stroke-width="0.6" opacity="0.14"/>
  <line x1="31.57" y1="2.33" x2="33.73" y2="1.41" stroke="#e7cfa0" stroke-width="0.6" opacity="0.07"/>
  <line x1="222.3" y1="293" x2="221.6" y2="290.52" stroke="#e7cfa0" stroke-width="0.6" opacity="0.13"/>
  <line x1="423.05" y1="249.72" x2="421.67" y2="251.55" stroke="#e7cfa0" stroke-width="0.6" opacity="0.07"/>
  <line x1="920.84" y1="32.79" x2="920.66" y2="31.36" stroke="#e7cfa0" stroke-width="0.6" opacity="0.14"/>
  <line x1="415.18" y1="197.99" x2="416.25" y2="196.4" stroke="#e7cfa0" stroke-width="0.6" opacity="0.08"/>
  <line x1="142.64" y1="279.75" x2="141.69" y2="278.61" stroke="#e7cfa0" stroke-width="0.6" opacity="0.11"/>
  <line x1="333.9" y1="236.58" x2="334.35" y2="239.16" stroke="#e7cfa0" stroke-width="0.6" opacity="0.05"/>
  <line x1="511.92" y1="284.44" x2="514.27" y2="281.38" stroke="#e7cfa0" stroke-width="0.6" opacity="0.08"/>
  <line x1="831.18" y1="76.95" x2="827.54" y2="77.12" stroke="#e7cfa0" stroke-width="0.6" opacity="0.08"/>
  <line x1="873.17" y1="464.36" x2="875.53" y2="465.55" stroke="#e7cfa0" stroke-width="0.6" opacity="0.1"/>
  <line x1="659.11" y1="32.85" x2="661.18" y2="32.83" stroke="#e7cfa0" stroke-width="0.6" opacity="0.07"/>
  <line x1="132.17" y1="177.29" x2="129.61" y2="179.18" stroke="#e7cfa0" stroke-width="0.6" opacity="0.04"/>
  <line x1="551.81" y1="352.48" x2="550.38" y2="351.68" stroke="#e7cfa0" stroke-width="0.6" opacity="0.11"/>
  <line x1="731.34" y1="494.26" x2="730.1" y2="495.36" stroke="#e7cfa0" stroke-width="0.6" opacity="0.08"/>
  <line x1="244.84" y1="380.65" x2="246.47" y2="383.64" stroke="#e7cfa0" stroke-width="0.6" opacity="0.09"/>
  <line x1="927.58" y1="365.89" x2="927.83" y2="367.02" stroke="#e7cfa0" stroke-width="0.6" opacity="0.14"/>
  <line x1="78.39" y1="489.98" x2="74.95" y2="490.91" stroke="#e7cfa0" stroke-width="0.6" opacity="0.1"/>
  <line x1="959.33" y1="440.06" x2="957.82" y2="440.63" stroke="#e7cfa0" stroke-width="0.6" opacity="0.11"/>
  <line x1="5.55" y1="152.51" x2="8.55" y2="152.84" stroke="#e7cfa0" stroke-width="0.6" opacity="0.09"/>
  <line x1="835.36" y1="301.56" x2="832.97" y2="301.45" stroke="#e7cfa0" stroke-width="0.6" opacity="0.16"/>
  <line x1="899.08" y1="90.88" x2="897.68" y2="91.68" stroke="#e7cfa0" stroke-width="0.6" opacity="0.07"/>
  <line x1="591.55" y1="237.06" x2="590.68" y2="240.01" stroke="#e7cfa0" stroke-width="0.6" opacity="0.12"/>
  <line x1="439.71" y1="105.44" x2="441.16" y2="108.26" stroke="#e7cfa0" stroke-width="0.6" opacity="0.06"/>
  <line x1="782.43" y1="477.55" x2="780.64" y2="478.52" stroke="#e7cfa0" stroke-width="0.6" opacity="0.14"/>
  <line x1="796.28" y1="403.66" x2="796.59" y2="401.7" stroke="#e7cfa0" stroke-width="0.6" opacity="0.13"/>
  <line x1="803.05" y1="146.21" x2="804.94" y2="143.73" stroke="#e7cfa0" stroke-width="0.6" opacity="0.11"/>
  <line x1="552.67" y1="455.01" x2="554.57" y2="456.63" stroke="#e7cfa0" stroke-width="0.6" opacity="0.1"/>
  <line x1="632.5" y1="179.75" x2="633.84" y2="180.03" stroke="#e7cfa0" stroke-width="0.6" opacity="0.04"/>
  <line x1="558.69" y1="401.63" x2="556.26" y2="400.86" stroke="#e7cfa0" stroke-width="0.6" opacity="0.11"/>
  <line x1="453.87" y1="285.33" x2="451.17" y2="282.81" stroke="#e7cfa0" stroke-width="0.6" opacity="0.12"/>
  <line x1="721.71" y1="6.76" x2="723.09" y2="6.53" stroke="#e7cfa0" stroke-width="0.6" opacity="0.15"/>
  <line x1="796.47" y1="201.18" x2="797.57" y2="199.11" stroke="#e7cfa0" stroke-width="0.6" opacity="0.07"/>
  <line x1="753.11" y1="362.17" x2="754.63" y2="358.8" stroke="#e7cfa0" stroke-width="0.6" opacity="0.11"/>
  <line x1="304.34" y1="116.58" x2="303.59" y2="113.11" stroke="#e7cfa0" stroke-width="0.6" opacity="0.07"/>
  <line x1="758.27" y1="396.98" x2="755.31" y2="397.51" stroke="#e7cfa0" stroke-width="0.6" opacity="0.06"/>
  <line x1="701.34" y1="133.86" x2="703.13" y2="134.98" stroke="#e7cfa0" stroke-width="0.6" opacity="0.1"/>
  <line x1="90.89" y1="97.12" x2="93.89" y2="98.94" stroke="#e7cfa0" stroke-width="0.6" opacity="0.1"/>
  <line x1="16.29" y1="531.03" x2="16.16" y2="529.15" stroke="#e7cfa0" stroke-width="0.6" opacity="0.08"/>
  <line x1="22.42" y1="230.12" x2="23.5" y2="227.45" stroke="#e7cfa0" stroke-width="0.6" opacity="0.08"/>
  <line x1="912.55" y1="506.44" x2="913.99" y2="504.01" stroke="#e7cfa0" stroke-width="0.6" opacity="0.12"/>
  <line x1="444.12" y1="179.07" x2="444.19" y2="182.75" stroke="#e7cfa0" stroke-width="0.6" opacity="0.09"/>
  <line x1="135.25" y1="506.47" x2="136.07" y2="508.2" stroke="#e7cfa0" stroke-width="0.6" opacity="0.14"/>
  <line x1="924.47" y1="215.03" x2="926.07" y2="211.75" stroke="#e7cfa0" stroke-width="0.6" opacity="0.04"/>
  <line x1="584.71" y1="191" x2="585.69" y2="193.28" stroke="#e7cfa0" stroke-width="0.6" opacity="0.1"/>
  <line x1="766.4" y1="63.04" x2="769.03" y2="62.01" stroke="#e7cfa0" stroke-width="0.6" opacity="0.11"/>
  <line x1="368.56" y1="429.1" x2="366.72" y2="429.56" stroke="#e7cfa0" stroke-width="0.6" opacity="0.09"/>
  <line x1="108.76" y1="37.2" x2="108.94" y2="35.91" stroke="#e7cfa0" stroke-width="0.6" opacity="0.05"/>
  <line x1="395.8" y1="157.52" x2="395.27" y2="159" stroke="#e7cfa0" stroke-width="0.6" opacity="0.11"/>
  <line x1="813.45" y1="98.54" x2="811.56" y2="99.49" stroke="#e7cfa0" stroke-width="0.6" opacity="0.13"/>
  <line x1="114.35" y1="5.34" x2="115.36" y2="3.34" stroke="#e7cfa0" stroke-width="0.6" opacity="0.15"/>
  <line x1="814.66" y1="239.14" x2="813.17" y2="238.64" stroke="#e7cfa0" stroke-width="0.6" opacity="0.06"/>
  <line x1="239.84" y1="489.42" x2="239.25" y2="490.85" stroke="#e7cfa0" stroke-width="0.6" opacity="0.15"/>
  <line x1="278.25" y1="521.43" x2="278.12" y2="522.87" stroke="#e7cfa0" stroke-width="0.6" opacity="0.11"/>
  <line x1="716.6" y1="424.47" x2="714.37" y2="422.68" stroke="#e7cfa0" stroke-width="0.6" opacity="0.06"/>
  <line x1="469.77" y1="376.19" x2="470.93" y2="378.93" stroke="#e7cfa0" stroke-width="0.6" opacity="0.11"/>
  <line x1="392.94" y1="388.59" x2="393.47" y2="386.93" stroke="#e7cfa0" stroke-width="0.6" opacity="0.11"/>
  <line x1="316" y1="370.35" x2="313.12" y2="372.45" stroke="#e7cfa0" stroke-width="0.6" opacity="0.07"/>
  <line x1="521.01" y1="48.16" x2="519.56" y2="45.83" stroke="#e7cfa0" stroke-width="0.6" opacity="0.09"/>
  <line x1="930.3" y1="509.83" x2="932.8" y2="507.72" stroke="#e7cfa0" stroke-width="0.6" opacity="0.08"/>
  <line x1="707.81" y1="233.39" x2="708.84" y2="231.63" stroke="#e7cfa0" stroke-width="0.6" opacity="0.13"/>
  <line x1="273.68" y1="487.55" x2="271.03" y2="488.02" stroke="#e7cfa0" stroke-width="0.6" opacity="0.16"/>
  <line x1="926.87" y1="37.79" x2="928.29" y2="37.1" stroke="#e7cfa0" stroke-width="0.6" opacity="0.04"/>
  <line x1="703.58" y1="275.77" x2="706.43" y2="277.5" stroke="#e7cfa0" stroke-width="0.6" opacity="0.12"/>
  <line x1="311.7" y1="28" x2="310.73" y2="27" stroke="#e7cfa0" stroke-width="0.6" opacity="0.15"/>
  <line x1="919.31" y1="318.53" x2="915.85" y2="320.06" stroke="#e7cfa0" stroke-width="0.6" opacity="0.09"/>
  <line x1="589.84" y1="285.52" x2="588.23" y2="286.05" stroke="#e7cfa0" stroke-width="0.6" opacity="0.11"/>
  <line x1="727.86" y1="159" x2="730.2" y2="162.13" stroke="#e7cfa0" stroke-width="0.6" opacity="0.09"/>
  <line x1="522.84" y1="56.67" x2="523.24" y2="57.72" stroke="#e7cfa0" stroke-width="0.6" opacity="0.12"/>
  <line x1="745.98" y1="500.45" x2="746.75" y2="498.13" stroke="#e7cfa0" stroke-width="0.6" opacity="0.11"/>
  <line x1="290.7" y1="169.96" x2="289.51" y2="172.64" stroke="#e7cfa0" stroke-width="0.6" opacity="0.1"/>
  <line x1="804.2" y1="22.89" x2="803.95" y2="19.38" stroke="#e7cfa0" stroke-width="0.6" opacity="0.09"/>
  <line x1="500.19" y1="511.16" x2="499.8" y2="509.69" stroke="#e7cfa0" stroke-width="0.6" opacity="0.13"/>
  <line x1="5.42" y1="143.84" x2="7.57" y2="145.78" stroke="#e7cfa0" stroke-width="0.6" opacity="0.04"/>
  <line x1="905.02" y1="432.54" x2="904.17" y2="434.26" stroke="#e7cfa0" stroke-width="0.6" opacity="0.08"/>
  <line x1="495.64" y1="334.65" x2="499.12" y2="335.44" stroke="#e7cfa0" stroke-width="0.6" opacity="0.04"/>
  <line x1="341.75" y1="234.88" x2="339.8" y2="235.94" stroke="#e7cfa0" stroke-width="0.6" opacity="0.08"/>
  <line x1="486.42" y1="527.3" x2="483.69" y2="528.1" stroke="#e7cfa0" stroke-width="0.6" opacity="0.08"/>
  <line x1="188.73" y1="445.33" x2="187.55" y2="446.98" stroke="#e7cfa0" stroke-width="0.6" opacity="0.07"/>
  <line x1="308.46" y1="324.3" x2="309.01" y2="327.94" stroke="#e7cfa0" stroke-width="0.6" opacity="0.05"/>
  <path d="M581.78,266.9 C582.02,272.82 583.98,279.39 580.35,283.49 C576.72,287.58 567.22,290.55 560,291.49 C552.77,292.43 543.02,291.62 537.01,289.13 C531,286.64 526.1,281.88 523.93,276.56 C521.76,271.23 521.12,263.52 524,257.18 C526.89,250.83 535.2,240.96 541.24,238.51 C547.28,236.06 553.95,240.9 560.23,242.47 C566.51,244.05 575.31,243.88 578.9,247.96 C582.49,252.03 581.53,260.98 581.78,266.9 Z" fill="none" stroke="#caa15a" stroke-width="0.9" opacity="0.3"/>
  <path d="M619.04,266.9 C618.45,282.56 600.75,304.51 589.99,313.08 C579.23,321.66 566.96,319.33 554.5,318.36 C542.03,317.39 523.75,315.84 515.2,307.26 C506.64,298.69 504.93,279.74 503.16,266.9 C501.38,254.06 496.01,238.97 504.57,230.24 C513.13,221.5 539.66,216.34 554.5,214.49 C569.33,212.64 582.82,210.4 593.58,219.14 C604.34,227.87 619.64,251.24 619.04,266.9 Z" fill="none" stroke="#caa15a" stroke-width="0.9" opacity="0.27"/>
  <path d="M637.82,266.9 C636.21,288.61 619.07,324.36 602.18,337.23 C585.3,350.1 556.24,350.48 536.51,344.11 C516.78,337.74 493.63,319.53 483.81,299.02 C473.99,278.5 469.73,239.6 477.59,221.02 C485.44,202.44 508.56,189.88 530.94,187.54 C553.32,185.2 594.03,193.76 611.84,206.99 C629.66,220.21 639.43,245.19 637.82,266.9 Z" fill="none" stroke="#caa15a" stroke-width="0.9" opacity="0.24"/>
  <path d="M670.97,266.9 C670.93,290.03 674.71,320.64 662.06,337.09 C649.4,353.55 619.5,360.96 595.05,365.65 C570.6,370.35 537.92,370.38 515.37,365.26 C492.81,360.15 473.16,351.36 459.74,334.97 C446.32,318.57 436.82,290.91 434.87,266.9 C432.93,242.89 433.43,209.64 448.06,190.91 C462.7,172.18 499.03,158.84 522.67,154.5 C546.32,150.16 566.68,157.56 589.95,164.87 C613.21,172.17 648.78,181.32 662.28,198.32 C675.78,215.33 671.01,243.77 670.97,266.9 Z" fill="none" stroke="#caa15a" stroke-width="0.9" opacity="0.21"/>
  <path d="M702.83,266.9 C707.55,301.43 699.13,333 674.4,357.79 C649.68,382.58 593.46,413.94 554.5,415.63 C515.54,417.33 467.05,392.73 440.64,367.95 C414.22,343.16 393.77,303.64 396.01,266.9 C398.24,230.17 427.66,175.1 454.08,147.53 C480.49,119.97 522.5,100.99 554.5,101.51 C586.5,102.03 621.36,123.08 646.08,150.64 C670.8,178.21 698.11,232.38 702.83,266.9 Z" fill="none" stroke="#caa15a" stroke-width="0.9" opacity="0.18"/>
  <path d="M750.67,266.9 C754.09,304.54 733.36,341.22 708.91,369.36 C684.46,397.49 639.33,419.26 603.97,435.71 C568.61,452.16 532.23,476.95 496.76,468.05 C461.29,459.15 410.54,415.83 391.13,382.31 C371.71,348.78 373.18,303.03 380.26,266.9 C387.35,230.78 412.36,197.17 433.66,165.55 C454.97,133.94 478.98,89 508.09,77.22 C537.21,65.44 578.31,83.83 608.36,94.88 C638.41,105.93 664.68,114.85 688.39,143.52 C712.11,172.19 747.25,229.26 750.67,266.9 Z" fill="none" stroke="#caa15a" stroke-width="0.9" opacity="0.15"/>
  <path d="M740.76,266.9 C738.41,315.82 716.07,365.78 685.03,406.07 C653.99,446.36 599,509.78 554.5,508.65 C509.99,507.53 451.76,439.61 418,399.32 C384.23,359.03 356.52,317.49 351.93,266.9 C347.34,216.31 356.7,126.14 390.46,95.79 C424.22,65.44 503.05,82 554.5,84.8 C605.95,87.6 668.13,82.23 699.17,112.58 C730.22,142.93 743.12,217.99 740.76,266.9 Z" fill="none" stroke="#caa15a" stroke-width="0.9" opacity="0.12"/>
  <path d="M761.53,266.9 C767.31,336.05 756.76,436.11 714.74,472.4 C672.72,508.7 570.96,501.14 509.42,484.67 C447.89,468.2 369.49,429.41 345.53,373.59 C321.58,317.77 338.19,202.05 365.7,149.76 C393.2,97.46 458.18,75.19 510.57,59.82 C562.96,44.45 638.22,23.02 680.04,57.53 C721.87,92.05 755.75,197.76 761.53,266.9 Z" fill="none" stroke="#caa15a" stroke-width="0.9" opacity="0.09"/>
  <path d="M815.17,266.9 C804.3,324.86 770.96,396.85 742.51,446.46 C714.05,496.08 690.19,555.5 644.45,564.61 C598.72,573.71 516.68,524.84 468.08,501.08 C419.48,477.32 378.74,461.08 352.85,422.05 C326.97,383.02 320.34,314.86 312.75,266.9 C305.16,218.94 283.42,181.26 307.32,134.3 C331.21,87.34 402.72,0.5 456.12,-14.84 C509.52,-30.19 569.08,23.3 627.69,42.23 C686.3,61.16 776.52,61.29 807.77,98.73 C839.01,136.18 826.05,208.95 815.17,266.9 Z" fill="none" stroke="#caa15a" stroke-width="0.9" opacity="0.06"/>
  <path d="M865.31,266.9 C869.43,333.03 861.71,429.03 818.67,479.61 C775.64,530.2 678.93,564.09 607.09,570.39 C535.25,576.69 449.25,547.97 387.63,517.41 C326.01,486.85 250.83,442.97 237.37,387.02 C223.9,331.06 282.04,242.87 306.83,181.67 C331.63,120.46 334.86,61.47 386.13,19.78 C437.4,-21.91 546.49,-78.97 614.46,-68.45 C682.43,-57.94 752.16,26.96 793.97,82.86 C835.78,138.75 861.2,200.78 865.31,266.9 Z" fill="none" stroke="#caa15a" stroke-width="0.9" opacity="0.03"/>
</svg>
