<svg xmlns="http://www.w3.org/2000/svg" viewBox="0 0 960 540" width="960" height="540" role="img" aria-label="history decorative background">
  <defs>
    <radialGradient id="grad-history-large-06" cx="50%" cy="35%" r="80%">
      <stop offset="0%" stop-color="#caa15a" stop-opacity="0.10"/>
      <stop offset="100%" stop-color="#1b1305" stop-opacity="0"/>
    </radialGradient>
  </defs>
  <rect width="960" height="540" fill="#1b1305"/>
  <rect width="960" height="540" fill="url(#grad-history-large-06)"/>
  <line x1="605.01" y1="232.26" x2="603.07" y2="229.29" stroke="#e7cfa0" stroke-width="0.6" opacity="0.15"/>
  <line x1="609.46" y1="189.99" x2="609.12" y2="191.14" stroke="#e7cfa0" stroke-width="0.6" opacity="0.06"/>
  <line x1="243.74" y1="330.36" x2="239.91" y2="329.76" stroke="#e7cfa0" stroke-width="0.6" opacity="0.09"/>
  <line x1="576" y1="254.58" x2="578.28" y2="256.51" stroke="#e7cfa0" stroke-width="0.6" opacity="0.08"/>
  <line x1="488.86" y1="288.94" x2="491.82" y2="290.25" stroke="#e7cfa0" stroke-width="0.6" opacity="0.1"/>
  <line x1="682.27" y1="98.47" x2="679.85" y2="99.67" stroke="#e7cfa0" stroke-width="0.6" opacity="0.08"/>
  <line x1="315.7" y1="125.78" x2="314.49" y2="122.59" stroke="#e7cfa0" stroke-width="0.6" opacity="0.06"/>
  <line x1="296.45" y1="488.27" x2="299.2" y2="489.02" stroke="#e7cfa0" stroke-width="0.6" opacity="0.11"/>
  <line x1="535.14" y1="7.2" x2="536.26" y2="7.54" stroke="#e7cfa0" stroke-width="0.6" opacity="0.15"/>
  <line x1="942.68" y1="514.52" x2="940.48" y2="515.45" stroke="#e7cfa0" stroke-width="0.6" opacity="0.06"/>
  <line x1="695.98" y1="538.03" x2="694.39" y2="535.97" stroke="#e7cfa0" stroke-width="0.6" opacity="0.14"/>
  <line x1="725.03" y1="532.89" x2="726.62" y2="531.79" stroke="#e7cfa0" stroke-width="0.6" opacity="0.09"/>
  <line x1="894.04" y1="283.1" x2="893.44" y2="284.08" stroke="#e7cfa0" stroke-width="0.6" opacity="0.15"/>
  <line x1="494.89" y1="238.65" x2="492.06" y2="241.46" stroke="#e7cfa0" stroke-width="0.6" opacity="0.15"/>
  <line x1="635.78" y1="29.47" x2="632.32" y2="31.38" stroke="#e7cfa0" stroke-width="0.6" opacity="0.14"/>
  <line x1="253.89" y1="478.2" x2="257.62" y2="477.56" stroke="#e7cfa0" stroke-width="0.6" opacity="0.16"/>
  <line x1="192.02" y1="310.83" x2="193.34" y2="312.12" stroke="#e7cfa0" stroke-width="0.6" opacity="0.13"/>
  <line x1="952.68" y1="149.66" x2="954.16" y2="152.4" stroke="#e7cfa0" stroke-width="0.6" opacity="0.08"/>
  <line x1="521.47" y1="215.38" x2="517.86" y2="213.78" stroke="#e7cfa0" stroke-width="0.6" opacity="0.16"/>
  <line x1="642.08" y1="417.11" x2="642.44" y2="415.9" stroke="#e7cfa0" stroke-width="0.6" opacity="0.1"/>
  <line x1="226.4" y1="507.55" x2="225.51" y2="507.1" stroke="#e7cfa0" stroke-width="0.6" opacity="0.09"/>
  <line x1="596.22" y1="149.72" x2="600.09" y2="149.64" stroke="#e7cfa0" stroke-width="0.6" opacity="0.13"/>
  <line x1="502.15" y1="468.56" x2="501.76" y2="469.94" stroke="#e7cfa0" stroke-width="0.6" opacity="0.09"/>
  <line x1="458.54" y1="135.32" x2="460.17" y2="135.46" stroke="#e7cfa0" stroke-width="0.6" opacity="0.07"/>
  <line x1="599.61" y1="182.15" x2="597.26" y2="182.87" stroke="#e7cfa0" stroke-width="0.6" opacity="0.05"/>
  <line x1="439.85" y1="318.29" x2="440.75" y2="316.55" stroke="#e7cfa0" stroke-width="0.6" opacity="0.1"/>
  <line x1="914.34" y1="535.95" x2="915.58" y2="536.35" stroke="#e7cfa0" stroke-width="0.6" opacity="0.12"/>
  <line x1="143.44" y1="330.87" x2="145.08" y2="330.46" stroke="#e7cfa0" stroke-width="0.6" opacity="0.14"/>
  <line x1="588.17" y1="317.71" x2="591.52" y2="319.84" stroke="#e7cfa0" stroke-width="0.6" opacity="0.05"/>
  <line x1="565.88" y1="275.61" x2="565.03" y2="273.8" stroke="#e7cfa0" stroke-width="0.6" opacity="0.05"/>
  <line x1="798.99" y1="274.28" x2="795.43" y2="274.51" stroke="#e7cfa0" stroke-width="0.6" opacity="0.06"/>
  <line x1="523.04" y1="511.92" x2="521.66" y2="508.73" stroke="#e7cfa0" stroke-width="0.6" opacity="0.12"/>
  <line x1="821.35" y1="372.22" x2="820.46" y2="373.57" stroke="#e7cfa0" stroke-width="0.6" opacity="0.08"/>
  <line x1="839.16" y1="71.85" x2="837.93" y2="74.07" stroke="#e7cfa0" stroke-width="0.6" opacity="0.07"/>
  <line x1="645.54" y1="327.15" x2="647.33" y2="327.7" stroke="#e7cfa0" stroke-width="0.6" opacity="0.05"/>
  <line x1="852.93" y1="196.2" x2="852.46" y2="199.05" stroke="#e7cfa0" stroke-width="0.6" opacity="0.1"/>
  <line x1="464.51" y1="277.44" x2="463.58" y2="279.23" stroke="#e7cfa0" stroke-width="0.6" opacity="0.08"/>
  <line x1="197.78" y1="112.79" x2="194.85" y2="113.21" stroke="#e7cfa0" stroke-width="0.6" opacity="0.15"/>
  <line x1="378.27" y1="140.46" x2="376.96" y2="140.05" stroke="#e7cfa0" stroke-width="0.6" opacity="0.09"/>
  <line x1="784.76" y1="450.65" x2="783.88" y2="449.49" stroke="#e7cfa0" stroke-width="0.6" opacity="0.06"/>
  <line x1="242.1" y1="50.36" x2="243.81" y2="50.54" stroke="#e7cfa0" stroke-width="0.6" opacity="0.14"/>
  <line x1="474.55" y1="467.97" x2="472.84" y2="465.14" stroke="#e7cfa0" stroke-width="0.6" opacity="0.1"/>
  <line x1="159.78" y1="108.67" x2="156.75" y2="107.21" stroke="#e7cfa0" stroke-width="0.6" opacity="0.16"/>
  <line x1="331.33" y1="244.58" x2="332.47" y2="246.2" stroke="#e7cfa0" stroke-width="0.6" opacity="0.13"/>
  <line x1="755.4" y1="367.14" x2="756.82" y2="367.7" stroke="#e7cfa0" stroke-width="0.6" opacity="0.08"/>
  <line x1="784.49" y1="42.26" x2="782.89" y2="42.77" stroke="#e7cfa0" stroke-width="0.6" opacity="0.13"/>
  <line x1="306.65" y1="198.82" x2="305.6" y2="198.65" stroke="#e7cfa0" stroke-width="0.6" opacity="0.11"/>
  <line x1="785.2" y1="44.91" x2="783.85" y2="41.45" stroke="#e7cfa0" stroke-width="0.6" opacity="0.1"/>
  <line x1="189.94" y1="24.11" x2="189.13" y2="25.4" stroke="#e7cfa0" stroke-width="0.6" opacity="0.09"/>
  <line x1="433.28" y1="6.81" x2="430.19" y2="4.44" stroke="#e7cfa0" stroke-width="0.6" opacity="0.05"/>
  <line x1="692.35" y1="494.65" x2="691.2" y2="493.56" stroke="#e7cfa0" stroke-width="0.6" opacity="0.14"/>
  <line x1="185.7" y1="376.75" x2="186.31" y2="378.03" stroke="#e7cfa0" stroke-width="0.6" opacity="0.15"/>
  <line x1="547.53" y1="385.57" x2="548.21" y2="386.61" stroke="#e7cfa0" stroke-width="0.6" opacity="0.07"/>
  <line x1="701.58" y1="360.26" x2="699.99" y2="363.18" stroke="#e7cfa0" stroke-width="0.6" opacity="0.15"/>
  <line x1="252.3" y1="57.98" x2="253.05" y2="60.72" stroke="#e7cfa0" stroke-width="0.6" opacity="0.14"/>
  <line x1="209.36" y1="488.03" x2="206.94" y2="487.48" stroke="#e7cfa0" stroke-width="0.6" opacity="0.08"/>
  <line x1="98.12" y1="52.98" x2="100.55" y2="54.85" stroke="#e7cfa0" stroke-width="0.6" opacity="0.07"/>
  <line x1="900.34" y1="226.21" x2="900.69" y2="225.02" stroke="#e7cfa0" stroke-width="0.6" opacity="0.05"/>
  <line x1="326.06" y1="359.52" x2="326.92" y2="361.3" stroke="#e7cfa0" stroke-width="0.6" opacity="0.12"/>
  <line x1="318.8" y1="231.26" x2="317.17" y2="230.42" stroke="#e7cfa0" stroke-width="0.6" opacity="0.12"/>
  <line x1="866.17" y1="385.43" x2="868.52" y2="383.85" stroke="#e7cfa0" stroke-width="0.6" opacity="0.04"/>
  <line x1="652.04" y1="207.81" x2="648.99" y2="208.14" stroke="#e7cfa0" stroke-width="0.6" opacity="0.06"/>
  <line x1="451.83" y1="226.25" x2="450.59" y2="227.36" stroke="#e7cfa0" stroke-width="0.6" opacity="0.15"/>
  <line x1="365.09" y1="311.22" x2="362.88" y2="312.1" stroke="#e7cfa0" stroke-width="0.6" opacity="0.09"/>
  <line x1="686.89" y1="515.83" x2="689.47" y2="513.87" stroke="#e7cfa0" stroke-width="0.6" opacity="0.11"/>
  <line x1="432.83" y1="395.53" x2="434.56" y2="397.13" stroke="#e7cfa0" stroke-width="0.6" opacity="0.05"/>
  <line x1="428.03" y1="167.71" x2="427.76" y2="169.82" stroke="#e7cfa0" stroke-width="0.6" opacity="0.05"/>
  <line x1="438.46" y1="501.76" x2="437.26" y2="502.04" stroke="#e7cfa0" stroke-width="0.6" opacity="0.05"/>
  <line x1="87.02" y1="62.71" x2="89.01" y2="60.89" stroke="#e7cfa0" stroke-width="0.6" opacity="0.06"/>
  <line x1="330.65" y1="178.91" x2="331.69" y2="182.15" stroke="#e7cfa0" stroke-width="0.6" opacity="0.12"/>
  <line x1="617.13" y1="58.15" x2="618.63" y2="61.82" stroke="#e7cfa0" stroke-width="0.6" opacity="0.06"/>
  <line x1="442.52" y1="430.24" x2="439.73" y2="427.49" stroke="#e7cfa0" stroke-width="0.6" opacity="0.14"/>
  <line x1="725.38" y1="332.17" x2="722.88" y2="332.15" stroke="#e7cfa0" stroke-width="0.6" opacity="0.1"/>
  <line x1="94.28" y1="208.29" x2="92.13" y2="210.06" stroke="#e7cfa0" stroke-width="0.6" opacity="0.15"/>
  <line x1="386.64" y1="207.01" x2="388.48" y2="208.02" stroke="#e7cfa0" stroke-width="0.6" opacity="0.09"/>
  <line x1="186.92" y1="103.09" x2="190.03" y2="101.93" stroke="#e7cfa0" stroke-width="0.6" opacity="0.09"/>
  <line x1="208.11" y1="339.79" x2="206.92" y2="340.49" stroke="#e7cfa0" stroke-width="0.6" opacity="0.11"/>
  <line x1="908.31" y1="507.54" x2="907.5" y2="510.68" stroke="#e7cfa0" stroke-width="0.6" opacity="0.08"/>
  <line x1="582.27" y1="324.65" x2="579.04" y2="324.75" stroke="#e7cfa0" stroke-width="0.6" opacity="0.04"/>
  <line x1="73.38" y1="180.83" x2="71.25" y2="180.7" stroke="#e7cfa0" stroke-width="0.6" opacity="0.09"/>
  <line x1="813.51" y1="317.07" x2="814.44" y2="316.23" stroke="#e7cfa0" stroke-width="0.6" opacity="0.12"/>
  <line x1="929.07" y1="213.53" x2="927.36" y2="215.69" stroke="#e7cfa0" stroke-width="0.6" opacity="0.14"/>
  <line x1="808.36" y1="205.74" x2="810.93" y2="208.63" stroke="#e7cfa0" stroke-width="0.6" opacity="0.08"/>
  <line x1="770.24" y1="526.07" x2="772.21" y2="525.91" stroke="#e7cfa0" stroke-width="0.6" opacity="0.12"/>
  <line x1="941.68" y1="122.22" x2="938.9" y2="120.53" stroke="#e7cfa0" stroke-width="0.6" opacity="0.09"/>
  <line x1="856.47" y1="233.45" x2="860.09" y2="233.09" stroke="#e7cfa0" stroke-width="0.6" opacity="0.15"/>
  <line x1="770.36" y1="147.26" x2="769.13" y2="148.34" stroke="#e7cfa0" stroke-width="0.6" opacity="0.16"/>
  <line x1="510.39" y1="2.89" x2="510.75" y2="-0.56" stroke="#e7cfa0" stroke-width="0.6" opacity="0.04"/>
  <line x1="743.79" y1="89.86" x2="743.61" y2="88.28" stroke="#e7cfa0" stroke-width="0.6" opacity="0.15"/>
  <line x1="536.8" y1="525.9" x2="537.85" y2="525.97" stroke="#e7cfa0" stroke-width="0.6" opacity="0.08"/>
  <line x1="774.65" y1="333.63" x2="772.19" y2="332.94" stroke="#e7cfa0" stroke-width="0.6" opacity="0.15"/>
  <line x1="407.66" y1="101.03" x2="408.88" y2="102.6" stroke="#e7cfa0" stroke-width="0.6" opacity="0.13"/>
  <line x1="826.04" y1="109.37" x2="827.45" y2="105.84" stroke="#e7cfa0" stroke-width="0.6" opacity="0.14"/>
  <line x1="471.48" y1="46.57" x2="473.19" y2="49.35" stroke="#e7cfa0" stroke-width="0.6" opacity="0.14"/>
  <line x1="560.42" y1="175.74" x2="559.26" y2="173.57" stroke="#e7cfa0" stroke-width="0.6" opacity="0.07"/>
  <line x1="586.66" y1="513.39" x2="588.43" y2="516.76" stroke="#e7cfa0" stroke-width="0.6" opacity="0.05"/>
  <line x1="43.29" y1="416.63" x2="41.02" y2="415.76" stroke="#e7cfa0" stroke-width="0.6" opacity="0.07"/>
  <line x1="266.67" y1="514.58" x2="267.17" y2="517.04" stroke="#e7cfa0" stroke-width="0.6" opacity="0.13"/>
  <line x1="678.83" y1="346.49" x2="677.83" y2="348.96" stroke="#e7cfa0" stroke-width="0.6" opacity="0.15"/>
  <line x1="880.99" y1="310.15" x2="884.62" y2="311.64" stroke="#e7cfa0" stroke-width="0.6" opacity="0.1"/>
  <line x1="557.44" y1="158.73" x2="560.55" y2="157.92" stroke="#e7cfa0" stroke-width="0.6" opacity="0.1"/>
  <line x1="698.96" y1="170.32" x2="700.04" y2="169.34" stroke="#e7cfa0" stroke-width="0.6" opacity="0.15"/>
  <line x1="314.27" y1="129.66" x2="310.67" y2="130.02" stroke="#e7cfa0" stroke-width="0.6" opacity="0.12"/>
  <line x1="895.02" y1="128.1" x2="894.32" y2="130.72" stroke="#e7cfa0" stroke-width="0.6" opacity="0.16"/>
  <line x1="735.43" y1="186.42" x2="733.28" y2="188.79" stroke="#e7cfa0" stroke-width="0.6" opacity="0.14"/>
  <line x1="951.83" y1="10.84" x2="950.12" y2="8.06" stroke="#e7cfa0" stroke-width="0.6" opacity="0.14"/>
  <line x1="82.93" y1="114.59" x2="82.26" y2="112.44" stroke="#e7cfa0" stroke-width="0.6" opacity="0.15"/>
  <line x1="223.96" y1="388.49" x2="224.41" y2="387.33" stroke="#e7cfa0" stroke-width="0.6" opacity="0.1"/>
  <line x1="861.96" y1="464" x2="863.35" y2="464.64" stroke="#e7cfa0" stroke-width="0.6" opacity="0.13"/>
  <line x1="98.19" y1="303.57" x2="98.55" y2="306.66" stroke="#e7cfa0" stroke-width="0.6" opacity="0.13"/>
  <line x1="343.4" y1="423.65" x2="344.3" y2="423.18" stroke="#e7cfa0" stroke-width="0.6" opacity="0.15"/>
  <line x1="827.45" y1="411.96" x2="830.22" y2="411.16" stroke="#e7cfa0" stroke-width="0.6" opacity="0.13"/>
  <line x1="801.91" y1="441.2" x2="804.71" y2="438.63" stroke="#e7cfa0" stroke-width="0.6" opacity="0.1"/>
  <line x1="623.77" y1="414.46" x2="625.14" y2="415.29" stroke="#e7cfa0" stroke-width="0.6" opacity="0.14"/>
  <line x1="194.6" y1="454.81" x2="193.67" y2="453.02" stroke="#e7cfa0" stroke-width="0.6" opacity="0.13"/>
  <line x1="351.61" y1="193.82" x2="353.11" y2="194.03" stroke="#e7cfa0" stroke-width="0.6" opacity="0.08"/>
  <line x1="667.39" y1="66.94" x2="665.65" y2="65.79" stroke="#e7cfa0" stroke-width="0.6" opacity="0.05"/>
  <line x1="506.47" y1="1.38" x2="505.34" y2="1.57" stroke="#e7cfa0" stroke-width="0.6" opacity="0.07"/>
  <line x1="655.83" y1="316.44" x2="656.07" y2="314.64" stroke="#e7cfa0" stroke-width="0.6" opacity="0.15"/>
  <line x1="954.42" y1="258.3" x2="951.06" y2="256.87" stroke="#e7cfa0" stroke-width="0.6" opacity="0.12"/>
  <line x1="424.56" y1="339.53" x2="423.95" y2="340.52" stroke="#e7cfa0" stroke-width="0.6" opacity="0.13"/>
  <line x1="926.69" y1="298.8" x2="927.79" y2="297.62" stroke="#e7cfa0" stroke-width="0.6" opacity="0.06"/>
  <line x1="403.98" y1="486.55" x2="401.67" y2="489.01" stroke="#e7cfa0" stroke-width="0.6" opacity="0.08"/>
  <line x1="829.67" y1="5.13" x2="831.58" y2="2.95" stroke="#e7cfa0" stroke-width="0.6" opacity="0.14"/>
  <line x1="375.08" y1="262.95" x2="375.41" y2="265.47" stroke="#e7cfa0" stroke-width="0.6" opacity="0.11"/>
  <line x1="283.52" y1="34.54" x2="280.91" y2="34" stroke="#e7cfa0" stroke-width="0.6" opacity="0.07"/>
  <line x1="523.01" y1="143.64" x2="522.71" y2="146.4" stroke="#e7cfa0" stroke-width="0.6" opacity="0.04"/>
  <line x1="184.25" y1="496.77" x2="185.45" y2="500.48" stroke="#e7cfa0" stroke-width="0.6" opacity="0.15"/>
  <line x1="847.24" y1="174.08" x2="848.83" y2="171.33" stroke="#e7cfa0" stroke-width="0.6" opacity="0.09"/>
  <line x1="151.91" y1="94.72" x2="154.56" y2="92.51" stroke="#e7cfa0" stroke-width="0.6" opacity="0.05"/>
  <line x1="400.55" y1="151.38" x2="399.98" y2="150.15" stroke="#e7cfa0" stroke-width="0.6" opacity="0.05"/>
  <line x1="863.92" y1="489.99" x2="864.75" y2="486.34" stroke="#e7cfa0" stroke-width="0.6" opacity="0.05"/>
  <line x1="631.83" y1="480.38" x2="630.81" y2="483.44" stroke="#e7cfa0" stroke-width="0.6" opacity="0.08"/>
  <line x1="95.8" y1="407.72" x2="96.08" y2="404.88" stroke="#e7cfa0" stroke-width="0.6" opacity="0.11"/>
  <line x1="746.69" y1="74.25" x2="748.95" y2="73.49" stroke="#e7cfa0" stroke-width="0.6" opacity="0.1"/>
  <line x1="182.52" y1="29.98" x2="180.6" y2="29.39" stroke="#e7cfa0" stroke-width="0.6" opacity="0.09"/>
  <line x1="657.66" y1="102.81" x2="657.69" y2="105.8" stroke="#e7cfa0" stroke-width="0.6" opacity="0.1"/>
  <line x1="732.17" y1="193.13" x2="731.99" y2="191.88" stroke="#e7cfa0" stroke-width="0.6" opacity="0.05"/>
  <line x1="190.02" y1="336.41" x2="191.62" y2="334.38" stroke="#e7cfa0" stroke-width="0.6" opacity="0.04"/>
  <line x1="869.59" y1="140.56" x2="872.3" y2="142.74" stroke="#e7cfa0" stroke-width="0.6" opacity="0.14"/>
  <line x1="441.77" y1="133.66" x2="440.96" y2="130.77" stroke="#e7cfa0" stroke-width="0.6" opacity="0.05"/>
  <line x1="120.97" y1="436.56" x2="123.3" y2="437.57" stroke="#e7cfa0" stroke-width="0.6" opacity="0.15"/>
  <line x1="945.77" y1="250.91" x2="943.84" y2="250.36" stroke="#e7cfa0" stroke-width="0.6" opacity="0.12"/>
  <line x1="731.44" y1="238.96" x2="730.11" y2="237.53" stroke="#e7cfa0" stroke-width="0.6" opacity="0.1"/>
  <line x1="49.33" y1="533.94" x2="48.61" y2="530.12" stroke="#e7cfa0" stroke-width="0.6" opacity="0.1"/>
  <line x1="476.08" y1="26.41" x2="478.19" y2="29.68" stroke="#e7cfa0" stroke-width="0.6" opacity="0.1"/>
  <line x1="891.21" y1="61.47" x2="891.95" y2="63.44" stroke="#e7cfa0" stroke-width="0.6" opacity="0.11"/>
  <line x1="740.7" y1="438.44" x2="737.64" y2="440.27" stroke="#e7cfa0" stroke-width="0.6" opacity="0.14"/>
  <line x1="378.22" y1="510.11" x2="375.06" y2="511.65" stroke="#e7cfa0" stroke-width="0.6" opacity="0.13"/>
  <line x1="192.18" y1="343.35" x2="191.85" y2="346.8" stroke="#e7cfa0" stroke-width="0.6" opacity="0.11"/>
  <line x1="503.2" y1="153.99" x2="505.05" y2="153.34" stroke="#e7cfa0" stroke-width="0.6" opacity="0.08"/>
  <line x1="429.21" y1="377.37" x2="428.04" y2="378.7" stroke="#e7cfa0" stroke-width="0.6" opacity="0.05"/>
  <line x1="583.36" y1="384.66" x2="582.8" y2="383.28" stroke="#e7cfa0" stroke-width="0.6" opacity="0.05"/>
  <line x1="182.47" y1="288.53" x2="185.63" y2="287.98" stroke="#e7cfa0" stroke-width="0.6" opacity="0.04"/>
  <line x1="552.92" y1="450.01" x2="553.4" y2="446.88" stroke="#e7cfa0" stroke-width="0.6" opacity="0.08"/>
  <line x1="579.46" y1="388.16" x2="579.6" y2="385.41" stroke="#e7cfa0" stroke-width="0.6" opacity="0.09"/>
  <line x1="335.6" y1="210.52" x2="332.45" y2="208.11" stroke="#e7cfa0" stroke-width="0.6" opacity="0.09"/>
  <line x1="2.49" y1="51.54" x2="3.86" y2="49.87" stroke="#e7cfa0" stroke-width="0.6" opacity="0.13"/>
  <line x1="292.85" y1="429.29" x2="293.07" y2="430.81" stroke="#e7cfa0" stroke-width="0.6" opacity="0.14"/>
  <line x1="809.39" y1="154.37" x2="811.98" y2="152.8" stroke="#e7cfa0" stroke-width="0.6" opacity="0.07"/>
  <line x1="450.41" y1="233.59" x2="448.96" y2="233.65" stroke="#e7cfa0" stroke-width="0.6" opacity="0.09"/>
  <line x1="754.74" y1="193.87" x2="755.65" y2="194.51" stroke="#e7cfa0" stroke-width="0.6" opacity="0.1"/>
  <line x1="350.81" y1="363.71" x2="350.44" y2="365.62" stroke="#e7cfa0" stroke-width="0.6" opacity="0.08"/>
  <line x1="45.65" y1="399.56" x2="45.03" y2="398.29" stroke="#e7cfa0" stroke-width="0.6" opacity="0.12"/>
  <line x1="461.24" y1="343.5" x2="461.83" y2="344.47" stroke="#e7cfa0" stroke-width="0.6" opacity="0.09"/>
  <line x1="329.26" y1="38.99" x2="332.76" y2="39.86" stroke="#e7cfa0" stroke-width="0.6" opacity="0.13"/>
  <line x1="386.38" y1="159.61" x2="386.08" y2="156.74" stroke="#e7cfa0" stroke-width="0.6" opacity="0.11"/>
  <line x1="440.3" y1="326.31" x2="442.01" y2="324.36" stroke="#e7cfa0" stroke-width="0.6" opacity="0.11"/>
  <line x1="592.51" y1="106.97" x2="589.1" y2="105.97" stroke="#e7cfa0" stroke-width="0.6" opacity="0.16"/>
  <line x1="375.25" y1="34.87" x2="377.48" y2="35.43" stroke="#e7cfa0" stroke-width="0.6" opacity="0.07"/>
  <line x1="44.27" y1="440.91" x2="46.27" y2="438.35" stroke="#e7cfa0" stroke-width="0.6" opacity="0.11"/>
  <line x1="165.96" y1="398.76" x2="169.05" y2="399.31" stroke="#e7cfa0" stroke-width="0.6" opacity="0.05"/>
  <line x1="467.33" y1="33.59" x2="468.38" y2="33.76" stroke="#e7cfa0" stroke-width="0.6" opacity="0.07"/>
  <line x1="478.48" y1="469.95" x2="481.95" y2="470.71" stroke="#e7cfa0" stroke-width="0.6" opacity="0.12"/>
  <line x1="460.12" y1="380.01" x2="460.5" y2="383.94" stroke="#e7cfa0" stroke-width="0.6" opacity="0.12"/>
  <line x1="124.37" y1="217.2" x2="124.87" y2="219.68" stroke="#e7cfa0" stroke-width="0.6" opacity="0.14"/>
  <line x1="564.93" y1="538.68" x2="568.01" y2="539.77" stroke="#e7cfa0" stroke-width="0.6" opacity="0.11"/>
  <line x1="379.73" y1="398.41" x2="378.04" y2="396.43" stroke="#e7cfa0" stroke-width="0.6" opacity="0.09"/>
  <line x1="933.29" y1="418.78" x2="934.28" y2="419.03" stroke="#e7cfa0" stroke-width="0.6" opacity="0.05"/>
  <line x1="883.41" y1="268.07" x2="882.28" y2="267.02" stroke="#e7cfa0" stroke-width="0.6" opacity="0.08"/>
  <line x1="202.74" y1="63.01" x2="204.63" y2="60.58" stroke="#e7cfa0" stroke-width="0.6" opacity="0.14"/>
  <line x1="589.16" y1="225.81" x2="589.57" y2="223.33" stroke="#e7cfa0" stroke-width="0.6" opacity="0.05"/>
  <line x1="21.95" y1="336.82" x2="22.81" y2="337.78" stroke="#e7cfa0" stroke-width="0.6" opacity="0.15"/>
  <line x1="957.54" y1="267.88" x2="958.46" y2="269.9" stroke="#e7cfa0" stroke-width="0.6" opacity="0.13"/>
  <line x1="458.12" y1="423.88" x2="457.41" y2="425.46" stroke="#e7cfa0" stroke-width="0.6" opacity="0.06"/>
  <line x1="631.6" y1="200.89" x2="633.81" y2="203.11" stroke="#e7cfa0" stroke-width="0.6" opacity="0.06"/>
  <line x1="955.33" y1="539.15" x2="955.49" y2="537.17" stroke="#e7cfa0" stroke-width="0.6" opacity="0.14"/>
  <line x1="106.69" y1="454.44" x2="105.31" y2="451.62" stroke="#e7cfa0" stroke-width="0.6" opacity="0.13"/>
  <line x1="524.91" y1="67.37" x2="523.98" y2="68.13" stroke="#e7cfa0" stroke-width="0.6" opacity="0.13"/>
  <line x1="157.75" y1="154.59" x2="159.98" y2="152" stroke="#e7cfa0" stroke-width="0.6" opacity="0.06"/>
  <line x1="378.16" y1="530.45" x2="378.09" y2="527.67" stroke="#e7cfa0" stroke-width="0.6" opacity="0.07"/>
  <line x1="48.61" y1="433.88" x2="49.17" y2="431.27" stroke="#e7cfa0" stroke-width="0.6" opacity="0.09"/>
  <line x1="239.5" y1="306.51" x2="236.6" y2="305.05" stroke="#e7cfa0" stroke-width="0.6" opacity="0.07"/>
  <line x1="716.38" y1="22.14" x2="714.34" y2="22.04" stroke="#e7cfa0" stroke-width="0.6" opacity="0.08"/>
  <line x1="162.24" y1="18.23" x2="160.56" y2="19.42" stroke="#e7cfa0" stroke-width="0.6" opacity="0.07"/>
  <line x1="19.57" y1="46.83" x2="21.53" y2="48.46" stroke="#e7cfa0" stroke-width="0.6" opacity="0.06"/>
  <line x1="631.74" y1="84.88" x2="630.43" y2="87.65" stroke="#e7cfa0" stroke-width="0.6" opacity="0.07"/>
  <line x1="462.42" y1="279.19" x2="463.61" y2="277.53" stroke="#e7cfa0" stroke-width="0.6" opacity="0.04"/>
  <line x1="660.32" y1="121.88" x2="658.74" y2="120.1" stroke="#e7cfa0" stroke-width="0.6" opacity="0.06"/>
  <line x1="218.62" y1="372.22" x2="218.04" y2="374.09" stroke="#e7cfa0" stroke-width="0.6" opacity="0.06"/>
  <line x1="355.4" y1="300.5" x2="352.71" y2="301.89" stroke="#e7cfa0" stroke-width="0.6" opacity="0.04"/>
  <line x1="236.04" y1="477.98" x2="235.99" y2="480.96" stroke="#e7cfa0" stroke-width="0.6" opacity="0.1"/>
  <line x1="257.06" y1="139.97" x2="259.29" y2="138.36" stroke="#e7cfa0" stroke-width="0.6" opacity="0.06"/>
  <line x1="490.22" y1="422.24" x2="487.81" y2="420.82" stroke="#e7cfa0" stroke-width="0.6" opacity="0.11"/>
  <line x1="493.45" y1="519.54" x2="493.27" y2="516.31" stroke="#e7cfa0" stroke-width="0.6" opacity="0.14"/>
  <line x1="327.56" y1="144.35" x2="329.07" y2="141.78" stroke="#e7cfa0" stroke-width="0.6" opacity="0.15"/>
  <line x1="392.2" y1="42.92" x2="395.89" y2="43.16" stroke="#e7cfa0" stroke-width="0.6" opacity="0.05"/>
  <line x1="80.26" y1="336.73" x2="77.34" y2="337.13" stroke="#e7cfa0" stroke-width="0.6" opacity="0.13"/>
  <line x1="712.92" y1="204.72" x2="713.43" y2="203.2" stroke="#e7cfa0" stroke-width="0.6" opacity="0.05"/>
  <line x1="123.42" y1="491.65" x2="123.09" y2="492.88" stroke="#e7cfa0" stroke-width="0.6" opacity="0.05"/>
  <line x1="110.96" y1="93.2" x2="112.46" y2="92.71" stroke="#e7cfa0" stroke-width="0.6" opacity="0.15"/>
  <line x1="700.64" y1="420.53" x2="698.18" y2="421.84" stroke="#e7cfa0" stroke-width="0.6" opacity="0.05"/>
  <line x1="704.48" y1="517.91" x2="705.04" y2="518.76" stroke="#e7cfa0" stroke-width="0.6" opacity="0.1"/>
  <line x1="588.02" y1="142.44" x2="586.93" y2="143.48" stroke="#e7cfa0" stroke-width="0.6" opacity="0.07"/>
  <line x1="916.59" y1="470.29" x2="917.41" y2="472.75" stroke="#e7cfa0" stroke-width="0.6" opacity="0.15"/>
  <line x1="17.18" y1="82.28" x2="14.77" y2="80.35" stroke="#e7cfa0" stroke-width="0.6" opacity="0.08"/>
</svg>
