<svg xmlns="http://www.w3.org/2000/svg" viewBox="0 0 400 300" width="400" height="300" role="img" aria-label="chemistry decorative background">
  <defs>
    <radialGradient id="grad-chemistry-medium-06" cx="50%" cy="35%" r="80%">
      <stop offset="0%" stop-color="#2dd4a7" stop-opacity="0.10"/>
      <stop offset="100%" stop-color="#08160f" stop-opacity="0"/>
    </radialGradient>
  </defs>
  <rect width="400" height="300" fill="#08160f"/>
  <rect width="400" height="300" fill="url(#grad-chemistry-medium-06)"/>
  <line x1="214.33" y1="118.38" x2="180.18" y2="106.83" stroke="#7be0c4" stroke-width="1.4" opacity="0.3"/>
  <line x1="214.33" y1="118.38" x2="212.9" y2="163.48" stroke="#7be0c4" stroke-width="1.4" opacity="0.3"/>
  <line x1="254.37" y1="189.48" x2="212.9" y2="163.48" stroke="#7be0c4" stroke-width="1.4" opacity="0.3"/>
  <line x1="254.37" y1="189.48" x2="214.33" y2="118.38" stroke="#7be0c4" stroke-width="1.4" opacity="0.3"/>
  <line x1="163.05" y1="138.57" x2="180.18" y2="106.83" stroke="#7be0c4" stroke-width="1.4" opacity="0.3"/>
  <line x1="163.05" y1="138.57" x2="214.33" y2="118.38" stroke="#7be0c4" stroke-width="1.4" opacity="0.3"/>
  <line x1="59.49" y1="49.31" x2="153.08" y2="33.8" stroke="#7be0c4" stroke-width="1.4" opacity="0.3"/>
  <line x1="59.49" y1="49.31" x2="180.18" y2="106.83" stroke="#7be0c4" stroke-width="1.4" opacity="0.3"/>
  <line x1="212.9" y1="163.48" x2="214.33" y2="118.38" stroke="#7be0c4" stroke-width="1.4" opacity="0.3"/>
  <line x1="212.9" y1="163.48" x2="254.37" y2="189.48" stroke="#7be0c4" stroke-width="1.4" opacity="0.3"/>
  <line x1="153.08" y1="33.8" x2="180.18" y2="106.83" stroke="#7be0c4" stroke-width="1.4" opacity="0.3"/>
  <line x1="153.08" y1="33.8" x2="59.49" y2="49.31" stroke="#7be0c4" stroke-width="1.4" opacity="0.3"/>
  <line x1="99.85" y1="258.98" x2="163.05" y2="138.57" stroke="#7be0c4" stroke-width="1.4" opacity="0.3"/>
  <line x1="99.85" y1="258.98" x2="212.9" y2="163.48" stroke="#7be0c4" stroke-width="1.4" opacity="0.3"/>
  <line x1="180.18" y1="106.83" x2="214.33" y2="118.38" stroke="#7be0c4" stroke-width="1.4" opacity="0.3"/>
  <line x1="180.18" y1="106.83" x2="163.05" y2="138.57" stroke="#7be0c4" stroke-width="1.4" opacity="0.3"/>
  <circle cx="214.33" cy="118.38" r="7.41" fill="#f06aa6" opacity="0.5"/>
  <circle cx="254.37" cy="189.48" r="4.36" fill="#f06aa6" opacity="0.5"/>
  <circle cx="163.05" cy="138.57" r="8.38" fill="#f06aa6" opacity="0.5"/>
  <circle cx="59.49" cy="49.31" r="8.28" fill="#f06aa6" opacity="0.5"/>
  <circle cx="212.9" cy="163.48" r="8.45" fill="#2dd4a7" opacity="0.5"/>
  <circle cx="153.08" cy="33.8" r="5.22" fill="#2dd4a7" opacity="0.5"/>
  <circle cx="99.85" cy="258.98" r="5.68" fill="#2dd4a7" opacity="0.5"/>
  <circle cx="180.18" cy="106.83" r="7.48" fill="#2dd4a7" opacity="0.5"/>
</svg>
