<svg xmlns="http://www.w3.org/2000/svg" viewBox="0 0 400 300" width="400" height="300" role="img" aria-label="chemistry decorative background">
  <defs>
    <radialGradient id="grad-chemistry-medium-10" cx="50%" cy="35%" r="80%">
      <stop offset="0%" stop-color="#2dd4a7" stop-opacity="0.10"/>
      <stop offset="100%" stop-color="#08160f" stop-opacity="0"/>
    </radialGradient>
  </defs>
  <rect width="400" height="300" fill="#08160f"/>
  <rect width="400" height="300" fill="url(#grad-chemistry-medium-10)"/>
  <circle cx="144.17" cy="247.73" r="19.34" fill="none" stroke="#2dd4a7" stroke-width="1" opacity="0.22"/>
  <circle cx="138.37" cy="241.93" r="3.48" fill="#7be0c4" opacity="0.4"/>
  <circle cx="105.72" cy="38.89" r="20" fill="none" stroke="#2dd4a7" stroke-width="1" opacity="0.22"/>
  <circle cx="99.72" cy="32.89" r="3.6" fill="#7be0c4" opacity="0.4"/>
  <circle cx="261.64" cy="236.16" r="25.11" fill="none" stroke="#2dd4a7" stroke-width="1" opacity="0.22"/>
  <circle cx="254.11" cy="228.63" r="4.52" fill="#7be0c4" opacity="0.4"/>
  <circle cx="220.18" cy="206.18" r="14.31" fill="none" stroke="#2dd4a7" stroke-width="1" opacity="0.22"/>
  <circle cx="215.88" cy="201.89" r="2.58" fill="#7be0c4" opacity="0.4"/>
  <circle cx="21.73" cy="268.3" r="13.72" fill="none" stroke="#2dd4a7" stroke-width="1" opacity="0.22"/>
  <circle cx="17.61" cy="264.19" r="2.47" fill="#7be0c4" opacity="0.4"/>
  <circle cx="57.03" cy="27.56" r="11.73" fill="none" stroke="#2dd4a7" stroke-width="1" opacity="0.22"/>
  <circle cx="53.51" cy="24.04" r="2.11" fill="#7be0c4" opacity="0.4"/>
  <circle cx="127.05" cy="116.04" r="19.37" fill="none" stroke="#2dd4a7" stroke-width="1" opacity="0.22"/>
  <circle cx="121.24" cy="110.23" r="3.49" fill="#7be0c4" opacity="0.4"/>
  <circle cx="108.68" cy="37.24" r="12.96" fill="none" stroke="#2dd4a7" stroke-width="1" opacity="0.22"/>
  <circle cx="104.79" cy="33.35" r="2.33" fill="#7be0c4" opacity="0.4"/>
  <circle cx="154.26" cy="9.73" r="21.66" fill="none" stroke="#2dd4a7" stroke-width="1" opacity="0.22"/>
  <circle cx="147.76" cy="3.23" r="3.9" fill="#7be0c4" opacity="0.4"/>
  <circle cx="97.34" cy="64.17" r="9.83" fill="none" stroke="#2dd4a7" stroke-width="1" opacity="0.22"/>
  <circle cx="94.39" cy="61.22" r="1.77" fill="#7be0c4" opacity="0.4"/>
  <circle cx="39.79" cy="264.21" r="19.41" fill="none" stroke="#2dd4a7" stroke-width="1" opacity="0.22"/>
  <circle cx="33.96" cy="258.39" r="3.49" fill="#7be0c4" opacity="0.4"/>
  <circle cx="297.73" cy="100.75" r="6.01" fill="none" stroke="#2dd4a7" stroke-width="1" opacity="0.22"/>
  <circle cx="295.93" cy="98.95" r="1.08" fill="#7be0c4" opacity="0.4"/>
  <circle cx="293.73" cy="267.03" r="18.56" fill="none" stroke="#2dd4a7" stroke-width="1" opacity="0.22"/>
  <circle cx="288.17" cy="261.47" r="3.34" fill="#7be0c4" opacity="0.4"/>
  <circle cx="34.73" cy="155.6" r="5.94" fill="none" stroke="#2dd4a7" stroke-width="1" opacity="0.22"/>
  <circle cx="32.94" cy="153.81" r="1.07" fill="#7be0c4" opacity="0.4"/>
  <path d="M215.34,115.13 C216.16,122.71 215.06,134.46 209.96,140.34 C204.86,146.23 192.36,151.23 184.74,150.44 C177.12,149.66 168.57,141.52 164.24,135.63 C159.9,129.75 159.46,122.68 158.74,115.13 C158.02,107.57 155.57,94.58 159.9,90.29 C164.24,86 177.22,88.64 184.74,89.4 C192.27,90.15 199.95,90.53 205.05,94.82 C210.15,99.11 214.52,107.54 215.34,115.13 Z" fill="#f06aa6" opacity="0.12"/>
  <path d="M215.34,115.13 C216.16,122.71 215.06,134.46 209.96,140.34 C204.86,146.23 192.36,151.23 184.74,150.44 C177.12,149.66 168.57,141.52 164.24,135.63 C159.9,129.75 159.46,122.68 158.74,115.13 C158.02,107.57 155.57,94.58 159.9,90.29 C164.24,86 177.22,88.64 184.74,89.4 C192.27,90.15 199.95,90.53 205.05,94.82 C210.15,99.11 214.52,107.54 215.34,115.13 Z" fill="none" stroke="#2dd4a7" stroke-width="1" opacity="0.25"/>
  <path d="M109.4,172.01 C109.22,180.66 99.25,194.39 92.35,196.38 C85.46,198.36 73.09,190.71 68.03,183.93 C62.96,177.15 57.75,162.27 61.98,155.7 C66.2,149.12 85.48,141.76 93.38,144.48 C101.28,147.2 109.57,163.36 109.4,172.01 Z" fill="#f06aa6" opacity="0.12"/>
  <path d="M109.4,172.01 C109.22,180.66 99.25,194.39 92.35,196.38 C85.46,198.36 73.09,190.71 68.03,183.93 C62.96,177.15 57.75,162.27 61.98,155.7 C66.2,149.12 85.48,141.76 93.38,144.48 C101.28,147.2 109.57,163.36 109.4,172.01 Z" fill="none" stroke="#2dd4a7" stroke-width="1" opacity="0.25"/>
</svg>
