<svg xmlns="http://www.w3.org/2000/svg" viewBox="0 0 400 300" width="400" height="300" role="img" aria-label="chemistry decorative background">
  <defs>
    <radialGradient id="grad-chemistry-medium-01" cx="50%" cy="35%" r="80%">
      <stop offset="0%" stop-color="#2dd4a7" stop-opacity="0.10"/>
      <stop offset="100%" stop-color="#08160f" stop-opacity="0"/>
    </radialGradient>
  </defs>
  <rect width="400" height="300" fill="#08160f"/>
  <rect width="400" height="300" fill="url(#grad-chemistry-medium-01)"/>
  <circle cx="340.08" cy="53.01" r="23.27" fill="none" stroke="#2dd4a7" stroke-width="1" opacity="0.22"/>
  <circle cx="333.1" cy="46.03" r="4.19" fill="#7be0c4" opacity="0.4"/>
  <circle cx="394.07" cy="218.56" r="25.25" fill="none" stroke="#2dd4a7" stroke-width="1" opacity="0.22"/>
  <circle cx="386.49" cy="210.98" r="4.55" fill="#7be0c4" opacity="0.4"/>
  <circle cx="201.65" cy="104.28" r="15.22" fill="none" stroke="#2dd4a7" stroke-width="1" opacity="0.22"/>
  <circle cx="197.09" cy="99.71" r="2.74" fill="#7be0c4" opacity="0.4"/>
  <circle cx="241.52" cy="58.83" r="17" fill="none" stroke="#2dd4a7" stroke-width="1" opacity="0.22"/>
  <circle cx="236.42" cy="53.73" r="3.06" fill="#7be0c4" opacity="0.4"/>
  <circle cx="4.83" cy="139.5" r="19.09" fill="none" stroke="#2dd4a7" stroke-width="1" opacity="0.22"/>
  <circle cx="-0.89" cy="133.78" r="3.44" fill="#7be0c4" opacity="0.4"/>
  <circle cx="75.79" cy="24.13" r="19.02" fill="none" stroke="#2dd4a7" stroke-width="1" opacity="0.22"/>
  <circle cx="70.08" cy="18.42" r="3.42" fill="#7be0c4" opacity="0.4"/>
  <circle cx="203.83" cy="124.99" r="19.27" fill="none" stroke="#2dd4a7" stroke-width="1" opacity="0.22"/>
  <circle cx="198.04" cy="119.21" r="3.47" fill="#7be0c4" opacity="0.4"/>
  <circle cx="337.91" cy="159.41" r="9.64" fill="none" stroke="#2dd4a7" stroke-width="1" opacity="0.22"/>
  <circle cx="335.02" cy="156.51" r="1.74" fill="#7be0c4" opacity="0.4"/>
  <circle cx="15.89" cy="238.72" r="11.7" fill="none" stroke="#2dd4a7" stroke-width="1" opacity="0.22"/>
  <circle cx="12.38" cy="235.21" r="2.11" fill="#7be0c4" opacity="0.4"/>
  <circle cx="121.92" cy="283.09" r="17.76" fill="none" stroke="#2dd4a7" stroke-width="1" opacity="0.22"/>
  <circle cx="116.59" cy="277.77" r="3.2" fill="#7be0c4" opacity="0.4"/>
  <circle cx="243.1" cy="258.99" r="10.8" fill="none" stroke="#2dd4a7" stroke-width="1" opacity="0.22"/>
  <circle cx="239.85" cy="255.75" r="1.94" fill="#7be0c4" opacity="0.4"/>
  <circle cx="67.94" cy="138.62" r="18.92" fill="none" stroke="#2dd4a7" stroke-width="1" opacity="0.22"/>
  <circle cx="62.27" cy="132.94" r="3.41" fill="#7be0c4" opacity="0.4"/>
  <circle cx="176.88" cy="180.04" r="20.28" fill="none" stroke="#2dd4a7" stroke-width="1" opacity="0.22"/>
  <circle cx="170.8" cy="173.96" r="3.65" fill="#7be0c4" opacity="0.4"/>
  <circle cx="11.02" cy="123.14" r="24.57" fill="none" stroke="#2dd4a7" stroke-width="1" opacity="0.22"/>
  <circle cx="3.65" cy="115.78" r="4.42" fill="#7be0c4" opacity="0.4"/>
  <path d="M240.38,80.15 C240.89,90.52 246.72,106.03 241.46,112.78 C236.21,119.52 219.82,120.49 208.83,120.6 C197.84,120.71 181.63,120.2 175.53,113.45 C169.42,106.71 170.22,89.26 172.21,80.15 C174.2,71.03 181.34,63.67 187.45,58.76 C193.55,53.85 200.34,52.05 208.83,50.68 C217.33,49.31 233.18,45.64 238.43,50.55 C243.69,55.46 239.88,69.77 240.38,80.15 Z" fill="#f06aa6" opacity="0.12"/>
  <path d="M240.38,80.15 C240.89,90.52 246.72,106.03 241.46,112.78 C236.21,119.52 219.82,120.49 208.83,120.6 C197.84,120.71 181.63,120.2 175.53,113.45 C169.42,106.71 170.22,89.26 172.21,80.15 C174.2,71.03 181.34,63.67 187.45,58.76 C193.55,53.85 200.34,52.05 208.83,50.68 C217.33,49.31 233.18,45.64 238.43,50.55 C243.69,55.46 239.88,69.77 240.38,80.15 Z" fill="none" stroke="#2dd4a7" stroke-width="1" opacity="0.25"/>
  <path d="M342.61,202.82 C344.75,212.99 342.42,234.24 334.28,241.37 C326.14,248.51 304.47,249.36 293.76,245.63 C283.05,241.89 273.24,228.44 270.02,218.96 C266.79,209.49 270.62,199.36 274.41,188.8 C278.21,178.24 284.92,157.01 292.76,155.61 C300.59,154.2 313.12,172.52 321.43,180.39 C329.74,188.26 340.47,192.66 342.61,202.82 Z" fill="#f06aa6" opacity="0.12"/>
  <path d="M342.61,202.82 C344.75,212.99 342.42,234.24 334.28,241.37 C326.14,248.51 304.47,249.36 293.76,245.63 C283.05,241.89 273.24,228.44 270.02,218.96 C266.79,209.49 270.62,199.36 274.41,188.8 C278.21,178.24 284.92,157.01 292.76,155.61 C300.59,154.2 313.12,172.52 321.43,180.39 C329.74,188.26 340.47,192.66 342.61,202.82 Z" fill="none" stroke="#2dd4a7" stroke-width="1" opacity="0.25"/>
</svg>
