<svg xmlns="http://www.w3.org/2000/svg" viewBox="0 0 400 300" width="400" height="300" role="img" aria-label="chemistry decorative background">
  <defs>
    <radialGradient id="grad-chemistry-medium-03" cx="50%" cy="35%" r="80%">
      <stop offset="0%" stop-color="#2dd4a7" stop-opacity="0.10"/>
      <stop offset="100%" stop-color="#08160f" stop-opacity="0"/>
    </radialGradient>
  </defs>
  <rect width="400" height="300" fill="#08160f"/>
  <rect width="400" height="300" fill="url(#grad-chemistry-medium-03)"/>
  <line x1="206.9" y1="225.8" x2="255.25" y2="184.26" stroke="#7be0c4" stroke-width="1.4" opacity="0.3"/>
  <line x1="206.9" y1="225.8" x2="256.82" y2="138.57" stroke="#7be0c4" stroke-width="1.4" opacity="0.3"/>
  <line x1="44.37" y1="37.16" x2="100.13" y2="127.51" stroke="#7be0c4" stroke-width="1.4" opacity="0.3"/>
  <line x1="44.37" y1="37.16" x2="130.29" y2="109.58" stroke="#7be0c4" stroke-width="1.4" opacity="0.3"/>
  <line x1="256.82" y1="138.57" x2="255.25" y2="184.26" stroke="#7be0c4" stroke-width="1.4" opacity="0.3"/>
  <line x1="256.82" y1="138.57" x2="309.47" y2="192.15" stroke="#7be0c4" stroke-width="1.4" opacity="0.3"/>
  <line x1="309.47" y1="192.15" x2="255.25" y2="184.26" stroke="#7be0c4" stroke-width="1.4" opacity="0.3"/>
  <line x1="309.47" y1="192.15" x2="351.9" y2="229.72" stroke="#7be0c4" stroke-width="1.4" opacity="0.3"/>
  <line x1="100.13" y1="127.51" x2="130.29" y2="109.58" stroke="#7be0c4" stroke-width="1.4" opacity="0.3"/>
  <line x1="100.13" y1="127.51" x2="44.37" y2="37.16" stroke="#7be0c4" stroke-width="1.4" opacity="0.3"/>
  <line x1="351.9" y1="229.72" x2="309.47" y2="192.15" stroke="#7be0c4" stroke-width="1.4" opacity="0.3"/>
  <line x1="351.9" y1="229.72" x2="255.25" y2="184.26" stroke="#7be0c4" stroke-width="1.4" opacity="0.3"/>
  <line x1="255.25" y1="184.26" x2="256.82" y2="138.57" stroke="#7be0c4" stroke-width="1.4" opacity="0.3"/>
  <line x1="255.25" y1="184.26" x2="309.47" y2="192.15" stroke="#7be0c4" stroke-width="1.4" opacity="0.3"/>
  <line x1="130.29" y1="109.58" x2="100.13" y2="127.51" stroke="#7be0c4" stroke-width="1.4" opacity="0.3"/>
  <line x1="130.29" y1="109.58" x2="44.37" y2="37.16" stroke="#7be0c4" stroke-width="1.4" opacity="0.3"/>
  <circle cx="206.9" cy="225.8" r="7.4" fill="#f06aa6" opacity="0.5"/>
  <circle cx="44.37" cy="37.16" r="7.73" fill="#f06aa6" opacity="0.5"/>
  <circle cx="256.82" cy="138.57" r="8.07" fill="#2dd4a7" opacity="0.5"/>
  <circle cx="309.47" cy="192.15" r="8.31" fill="#2dd4a7" opacity="0.5"/>
  <circle cx="100.13" cy="127.51" r="6.9" fill="#2dd4a7" opacity="0.5"/>
  <circle cx="351.9" cy="229.72" r="4.06" fill="#f06aa6" opacity="0.5"/>
  <circle cx="255.25" cy="184.26" r="6.42" fill="#f06aa6" opacity="0.5"/>
  <circle cx="130.29" cy="109.58" r="8.53" fill="#f06aa6" opacity="0.5"/>
  <path d="M146.1,131.02 C145.66,141.86 143.6,156.82 136.78,161.92 C129.96,167.01 115.3,163.81 105.17,161.57 C95.04,159.32 80.97,156.47 76,148.43 C71.02,140.38 70.26,120.43 75.32,113.28 C80.37,106.13 95.65,108.27 106.33,105.54 C117,102.8 132.74,92.63 139.37,96.88 C146,101.12 146.53,120.18 146.1,131.02 Z" fill="#f06aa6" opacity="0.12"/>
  <path d="M146.1,131.02 C145.66,141.86 143.6,156.82 136.78,161.92 C129.96,167.01 115.3,163.81 105.17,161.57 C95.04,159.32 80.97,156.47 76,148.43 C71.02,140.38 70.26,120.43 75.32,113.28 C80.37,106.13 95.65,108.27 106.33,105.54 C117,102.8 132.74,92.63 139.37,96.88 C146,101.12 146.53,120.18 146.1,131.02 Z" fill="none" stroke="#2dd4a7" stroke-width="1" opacity="0.25"/>
  <path d="M298.02,138.71 C298.28,151.71 276.72,175.56 262.27,180.11 C247.82,184.65 219.57,177.22 211.32,165.96 C203.07,154.69 204.54,123.16 212.77,112.52 C221,101.88 246.5,97.75 260.71,102.12 C274.92,106.48 297.76,125.71 298.02,138.71 Z" fill="#f06aa6" opacity="0.12"/>
  <path d="M298.02,138.71 C298.28,151.71 276.72,175.56 262.27,180.11 C247.82,184.65 219.57,177.22 211.32,165.96 C203.07,154.69 204.54,123.16 212.77,112.52 C221,101.88 246.5,97.75 260.71,102.12 C274.92,106.48 297.76,125.71 298.02,138.71 Z" fill="none" stroke="#2dd4a7" stroke-width="1" opacity="0.25"/>
</svg>
