<svg xmlns="http://www.w3.org/2000/svg" viewBox="0 0 400 300" width="400" height="300" role="img" aria-label="chemistry decorative background">
  <defs>
    <radialGradient id="grad-chemistry-medium-08" cx="50%" cy="35%" r="80%">
      <stop offset="0%" stop-color="#2dd4a7" stop-opacity="0.10"/>
      <stop offset="100%" stop-color="#08160f" stop-opacity="0"/>
    </radialGradient>
  </defs>
  <rect width="400" height="300" fill="#08160f"/>
  <rect width="400" height="300" fill="url(#grad-chemistry-medium-08)"/>
  <path d="M278.12,146.2 C278.2,156.93 262.34,175.1 250.43,179.11 C238.52,183.12 212.45,178.64 206.65,170.24 C200.85,161.84 208.43,137.94 215.64,128.7 C222.86,119.45 239.54,111.84 249.95,114.76 C260.37,117.67 278.04,135.47 278.12,146.2 Z" fill="#f06aa6" opacity="0.12"/>
  <path d="M278.12,146.2 C278.2,156.93 262.34,175.1 250.43,179.11 C238.52,183.12 212.45,178.64 206.65,170.24 C200.85,161.84 208.43,137.94 215.64,128.7 C222.86,119.45 239.54,111.84 249.95,114.76 C260.37,117.67 278.04,135.47 278.12,146.2 Z" fill="none" stroke="#2dd4a7" stroke-width="1" opacity="0.25"/>
  <path d="M255.2,209.37 C256.02,223.99 234.24,255.94 218.71,260.78 C203.19,265.62 169.32,250.21 162.07,238.39 C154.81,226.58 166.58,200.78 175.21,189.9 C183.83,179.01 200.48,169.81 213.81,173.06 C227.14,176.31 254.39,194.75 255.2,209.37 Z" fill="#f06aa6" opacity="0.12"/>
  <path d="M255.2,209.37 C256.02,223.99 234.24,255.94 218.71,260.78 C203.19,265.62 169.32,250.21 162.07,238.39 C154.81,226.58 166.58,200.78 175.21,189.9 C183.83,179.01 200.48,169.81 213.81,173.06 C227.14,176.31 254.39,194.75 255.2,209.37 Z" fill="none" stroke="#2dd4a7" stroke-width="1" opacity="0.25"/>
</svg>
