<svg xmlns="http://www.w3.org/2000/svg" viewBox="0 0 400 300" width="400" height="300" role="img" aria-label="chemistry decorative background">
  <defs>
    <radialGradient id="grad-chemistry-medium-09" cx="50%" cy="35%" r="80%">
      <stop offset="0%" stop-color="#2dd4a7" stop-opacity="0.10"/>
      <stop offset="100%" stop-color="#08160f" stop-opacity="0"/>
    </radialGradient>
  </defs>
  <rect width="400" height="300" fill="#08160f"/>
  <rect width="400" height="300" fill="url(#grad-chemistry-medium-09)"/>
  <line x1="140.91" y1="88.78" x2="215.24" y2="46.13" stroke="#7be0c4" stroke-width="1.4" opacity="0.3"/>
  <line x1="140.91" y1="88.78" x2="117.15" y2="178.13" stroke="#7be0c4" stroke-width="1.4" opacity="0.3"/>
  <line x1="234.45" y1="64.3" x2="215.24" y2="46.13" stroke="#7be0c4" stroke-width="1.4" opacity="0.3"/>
  <line x1="234.45" y1="64.3" x2="301.97" y2="81.26" stroke="#7be0c4" stroke-width="1.4" opacity="0.3"/>
  <line x1="340.05" y1="125.86" x2="301.97" y2="81.26" stroke="#7be0c4" stroke-width="1.4" opacity="0.3"/>
  <line x1="340.05" y1="125.86" x2="234.45" y2="64.3" stroke="#7be0c4" stroke-width="1.4" opacity="0.3"/>
  <line x1="96.96" y1="182.18" x2="117.15" y2="178.13" stroke="#7be0c4" stroke-width="1.4" opacity="0.3"/>
  <line x1="96.96" y1="182.18" x2="168.4" y2="251.41" stroke="#7be0c4" stroke-width="1.4" opacity="0.3"/>
  <line x1="117.15" y1="178.13" x2="96.96" y2="182.18" stroke="#7be0c4" stroke-width="1.4" opacity="0.3"/>
  <line x1="117.15" y1="178.13" x2="168.4" y2="251.41" stroke="#7be0c4" stroke-width="1.4" opacity="0.3"/>
  <line x1="301.97" y1="81.26" x2="340.05" y2="125.86" stroke="#7be0c4" stroke-width="1.4" opacity="0.3"/>
  <line x1="301.97" y1="81.26" x2="234.45" y2="64.3" stroke="#7be0c4" stroke-width="1.4" opacity="0.3"/>
  <line x1="168.4" y1="251.41" x2="117.15" y2="178.13" stroke="#7be0c4" stroke-width="1.4" opacity="0.3"/>
  <line x1="168.4" y1="251.41" x2="96.96" y2="182.18" stroke="#7be0c4" stroke-width="1.4" opacity="0.3"/>
  <line x1="215.24" y1="46.13" x2="234.45" y2="64.3" stroke="#7be0c4" stroke-width="1.4" opacity="0.3"/>
  <line x1="215.24" y1="46.13" x2="140.91" y2="88.78" stroke="#7be0c4" stroke-width="1.4" opacity="0.3"/>
  <circle cx="140.91" cy="88.78" r="7.83" fill="#2dd4a7" opacity="0.5"/>
  <circle cx="234.45" cy="64.3" r="6.75" fill="#f06aa6" opacity="0.5"/>
  <circle cx="340.05" cy="125.86" r="7.23" fill="#2dd4a7" opacity="0.5"/>
  <circle cx="96.96" cy="182.18" r="6.81" fill="#2dd4a7" opacity="0.5"/>
  <circle cx="117.15" cy="178.13" r="5.45" fill="#2dd4a7" opacity="0.5"/>
  <circle cx="301.97" cy="81.26" r="4.52" fill="#2dd4a7" opacity="0.5"/>
  <circle cx="168.4" cy="251.41" r="8.74" fill="#2dd4a7" opacity="0.5"/>
  <circle cx="215.24" cy="46.13" r="4.4" fill="#2dd4a7" opacity="0.5"/>
  <circle cx="55.56" cy="186.83" r="15.42" fill="none" stroke="#2dd4a7" stroke-width="1" opacity="0.22"/>
  <circle cx="50.93" cy="182.2" r="2.78" fill="#7be0c4" opacity="0.4"/>
  <circle cx="186.88" cy="164.31" r="11.16" fill="none" stroke="#2dd4a7" stroke-width="1" opacity="0.22"/>
  <circle cx="183.53" cy="160.96" r="2.01" fill="#7be0c4" opacity="0.4"/>
  <circle cx="184.02" cy="98.83" r="7.45" fill="none" stroke="#2dd4a7" stroke-width="1" opacity="0.22"/>
  <circle cx="181.79" cy="96.6" r="1.34" fill="#7be0c4" opacity="0.4"/>
  <circle cx="175.83" cy="74.98" r="9.32" fill="none" stroke="#2dd4a7" stroke-width="1" opacity="0.22"/>
  <circle cx="173.03" cy="72.18" r="1.68" fill="#7be0c4" opacity="0.4"/>
  <circle cx="211.69" cy="57.51" r="21.1" fill="none" stroke="#2dd4a7" stroke-width="1" opacity="0.22"/>
  <circle cx="205.36" cy="51.17" r="3.8" fill="#7be0c4" opacity="0.4"/>
  <circle cx="301.88" cy="110.63" r="6.07" fill="none" stroke="#2dd4a7" stroke-width="1" opacity="0.22"/>
  <circle cx="300.06" cy="108.81" r="1.09" fill="#7be0c4" opacity="0.4"/>
  <circle cx="160.07" cy="133.17" r="20.64" fill="none" stroke="#2dd4a7" stroke-width="1" opacity="0.22"/>
  <circle cx="153.87" cy="126.98" r="3.72" fill="#7be0c4" opacity="0.4"/>
  <circle cx="136.53" cy="175.34" r="11.01" fill="none" stroke="#2dd4a7" stroke-width="1" opacity="0.22"/>
  <circle cx="133.23" cy="172.04" r="1.98" fill="#7be0c4" opacity="0.4"/>
  <circle cx="279.22" cy="235.28" r="15.5" fill="none" stroke="#2dd4a7" stroke-width="1" opacity="0.22"/>
  <circle cx="274.57" cy="230.63" r="2.79" fill="#7be0c4" opacity="0.4"/>
  <circle cx="176.5" cy="263.08" r="5.22" fill="none" stroke="#2dd4a7" stroke-width="1" opacity="0.22"/>
  <circle cx="174.93" cy="261.52" r="0.94" fill="#7be0c4" opacity="0.4"/>
  <circle cx="97.2" cy="136.31" r="20.53" fill="none" stroke="#2dd4a7" stroke-width="1" opacity="0.22"/>
  <circle cx="91.05" cy="130.16" r="3.69" fill="#7be0c4" opacity="0.4"/>
  <circle cx="270.88" cy="293.97" r="25.48" fill="none" stroke="#2dd4a7" stroke-width="1" opacity="0.22"/>
  <circle cx="263.24" cy="286.33" r="4.59" fill="#7be0c4" opacity="0.4"/>
  <circle cx="154.42" cy="68.7" r="21.96" fill="none" stroke="#2dd4a7" stroke-width="1" opacity="0.22"/>
  <circle cx="147.83" cy="62.11" r="3.95" fill="#7be0c4" opacity="0.4"/>
  <circle cx="24" cy="198.84" r="23.85" fill="none" stroke="#2dd4a7" stroke-width="1" opacity="0.22"/>
  <circle cx="16.85" cy="191.69" r="4.29" fill="#7be0c4" opacity="0.4"/>
</svg>
