<svg xmlns="http://www.w3.org/2000/svg" viewBox="0 0 400 300" width="400" height="300" role="img" aria-label="biology decorative background">
  <defs>
    <radialGradient id="grad-biology-medium-07" cx="50%" cy="35%" r="80%">
      <stop offset="0%" stop-color="#56c26a" stop-opacity="0.10"/>
      <stop offset="100%" stop-color="#071508" stop-opacity="0"/>
    </radialGradient>
  </defs>
  <rect width="400" height="300" fill="#071508"/>
  <rect width="400" height="300" fill="url(#grad-biology-medium-07)"/>
  <line x1="197.81" y1="300" x2="185.91" y2="235.08" stroke="#56c26a" stroke-width="2.5" opacity="0.45"/>
  <line x1="185.91" y1="235.08" x2="152.02" y2="201.77" stroke="#56c26a" stroke-width="2" opacity="0.39"/>
  <line x1="152.02" y1="201.77" x2="119.54" y2="191.03" stroke="#56c26a" stroke-width="1.5" opacity="0.33"/>
  <line x1="119.54" y1="191.03" x2="95.7" y2="197.24" stroke="#56c26a" stroke-width="1" opacity="0.27"/>
  <circle cx="95.7" cy="197.24" r="3.46" fill="#2f9e6b" opacity="0.5"/>
  <line x1="95.7" y1="197.24" x2="80.77" y2="206.81" stroke="#56c26a" stroke-width="0.5" opacity="0.21"/>
  <circle cx="80.77" cy="206.81" r="2.93" fill="#2f9e6b" opacity="0.5"/>
  <line x1="95.7" y1="197.24" x2="78.87" y2="191.62" stroke="#56c26a" stroke-width="0.5" opacity="0.21"/>
  <line x1="119.54" y1="191.03" x2="104.56" y2="171.47" stroke="#56c26a" stroke-width="1" opacity="0.27"/>
  <line x1="104.56" y1="171.47" x2="89.36" y2="162.33" stroke="#56c26a" stroke-width="0.5" opacity="0.21"/>
  <circle cx="89.36" cy="162.33" r="2.58" fill="#2f9e6b" opacity="0.5"/>
  <line x1="104.56" y1="171.47" x2="99.42" y2="154.49" stroke="#56c26a" stroke-width="0.5" opacity="0.21"/>
  <circle cx="99.42" cy="154.49" r="1.93" fill="#2f9e6b" opacity="0.5"/>
  <line x1="152.02" y1="201.77" x2="139.64" y2="169.87" stroke="#56c26a" stroke-width="1.5" opacity="0.33"/>
  <line x1="139.64" y1="169.87" x2="124.25" y2="150.64" stroke="#56c26a" stroke-width="1" opacity="0.27"/>
  <line x1="124.25" y1="150.64" x2="107.22" y2="145.66" stroke="#56c26a" stroke-width="0.5" opacity="0.21"/>
  <circle cx="107.22" cy="145.66" r="1.7" fill="#2f9e6b" opacity="0.5"/>
  <line x1="124.25" y1="150.64" x2="121.36" y2="133.14" stroke="#56c26a" stroke-width="0.5" opacity="0.21"/>
  <line x1="139.64" y1="169.87" x2="143.87" y2="145.6" stroke="#56c26a" stroke-width="1" opacity="0.27"/>
  <circle cx="143.87" cy="145.6" r="3.19" fill="#2f9e6b" opacity="0.5"/>
  <line x1="143.87" y1="145.6" x2="138.72" y2="128.63" stroke="#56c26a" stroke-width="0.5" opacity="0.21"/>
  <line x1="143.87" y1="145.6" x2="155.98" y2="132.64" stroke="#56c26a" stroke-width="0.5" opacity="0.21"/>
  <line x1="185.91" y1="235.08" x2="192.62" y2="188.04" stroke="#56c26a" stroke-width="2" opacity="0.39"/>
  <line x1="192.62" y1="188.04" x2="174.61" y2="158.95" stroke="#56c26a" stroke-width="1.5" opacity="0.33"/>
  <line x1="174.61" y1="158.95" x2="155.19" y2="143.79" stroke="#56c26a" stroke-width="1" opacity="0.27"/>
  <circle cx="155.19" cy="143.79" r="2.28" fill="#2f9e6b" opacity="0.5"/>
  <line x1="155.19" y1="143.79" x2="137.46" y2="143.86" stroke="#56c26a" stroke-width="0.5" opacity="0.21"/>
  <line x1="155.19" y1="143.79" x2="150.84" y2="126.6" stroke="#56c26a" stroke-width="0.5" opacity="0.21"/>
  <circle cx="150.84" cy="126.6" r="2.73" fill="#2f9e6b" opacity="0.5"/>
  <line x1="174.61" y1="158.95" x2="177.09" y2="134.44" stroke="#56c26a" stroke-width="1" opacity="0.27"/>
  <circle cx="177.09" cy="134.44" r="1.71" fill="#2f9e6b" opacity="0.5"/>
  <line x1="177.09" y1="134.44" x2="170.03" y2="118.17" stroke="#56c26a" stroke-width="0.5" opacity="0.21"/>
  <circle cx="170.03" cy="118.17" r="3.3" fill="#2f9e6b" opacity="0.5"/>
  <line x1="177.09" y1="134.44" x2="186.03" y2="119.12" stroke="#56c26a" stroke-width="0.5" opacity="0.21"/>
  <line x1="192.62" y1="188.04" x2="210.86" y2="159.09" stroke="#56c26a" stroke-width="1.5" opacity="0.33"/>
  <line x1="210.86" y1="159.09" x2="212.83" y2="134.53" stroke="#56c26a" stroke-width="1" opacity="0.27"/>
  <circle cx="212.83" cy="134.53" r="1.81" fill="#2f9e6b" opacity="0.5"/>
  <line x1="212.83" y1="134.53" x2="203.27" y2="119.59" stroke="#56c26a" stroke-width="0.5" opacity="0.21"/>
  <circle cx="203.27" cy="119.59" r="3.03" fill="#2f9e6b" opacity="0.5"/>
  <line x1="212.83" y1="134.53" x2="223.83" y2="120.61" stroke="#56c26a" stroke-width="0.5" opacity="0.21"/>
  <line x1="210.86" y1="159.09" x2="232.41" y2="147.17" stroke="#56c26a" stroke-width="1" opacity="0.27"/>
  <circle cx="232.41" cy="147.17" r="3.13" fill="#2f9e6b" opacity="0.5"/>
  <line x1="232.41" y1="147.17" x2="241.71" y2="132.06" stroke="#56c26a" stroke-width="0.5" opacity="0.21"/>
  <line x1="232.41" y1="147.17" x2="250.14" y2="147.59" stroke="#56c26a" stroke-width="0.5" opacity="0.21"/>
  <circle cx="250.14" cy="147.59" r="1.62" fill="#2f9e6b" opacity="0.5"/>
  <line x1="226.08" y1="300" x2="238.86" y2="235.25" stroke="#56c26a" stroke-width="2.5" opacity="0.45"/>
  <line x1="238.86" y1="235.25" x2="233.28" y2="188.06" stroke="#56c26a" stroke-width="2" opacity="0.39"/>
  <line x1="233.28" y1="188.06" x2="213.88" y2="159.88" stroke="#56c26a" stroke-width="1.5" opacity="0.33"/>
  <line x1="213.88" y1="159.88" x2="190.6" y2="151.81" stroke="#56c26a" stroke-width="1" opacity="0.27"/>
  <circle cx="190.6" cy="151.81" r="3.15" fill="#2f9e6b" opacity="0.5"/>
  <line x1="190.6" y1="151.81" x2="173.44" y2="156.27" stroke="#56c26a" stroke-width="0.5" opacity="0.21"/>
  <circle cx="173.44" cy="156.27" r="3.21" fill="#2f9e6b" opacity="0.5"/>
  <line x1="190.6" y1="151.81" x2="177.72" y2="139.62" stroke="#56c26a" stroke-width="0.5" opacity="0.21"/>
  <line x1="213.88" y1="159.88" x2="215.38" y2="135.29" stroke="#56c26a" stroke-width="1" opacity="0.27"/>
  <line x1="215.38" y1="135.29" x2="207.43" y2="119.43" stroke="#56c26a" stroke-width="0.5" opacity="0.21"/>
  <circle cx="207.43" cy="119.43" r="1.65" fill="#2f9e6b" opacity="0.5"/>
  <line x1="215.38" y1="135.29" x2="224.98" y2="120.38" stroke="#56c26a" stroke-width="0.5" opacity="0.21"/>
  <circle cx="224.98" cy="120.38" r="3.31" fill="#2f9e6b" opacity="0.5"/>
  <line x1="233.28" y1="188.06" x2="248.41" y2="157.37" stroke="#56c26a" stroke-width="1.5" opacity="0.33"/>
  <line x1="248.41" y1="157.37" x2="244.88" y2="132.99" stroke="#56c26a" stroke-width="1" opacity="0.27"/>
  <circle cx="244.88" cy="132.99" r="2.54" fill="#2f9e6b" opacity="0.5"/>
  <line x1="244.88" y1="132.99" x2="235.68" y2="117.82" stroke="#56c26a" stroke-width="0.5" opacity="0.21"/>
  <circle cx="235.68" cy="117.82" r="2.48" fill="#2f9e6b" opacity="0.5"/>
  <line x1="244.88" y1="132.99" x2="253.06" y2="117.25" stroke="#56c26a" stroke-width="0.5" opacity="0.21"/>
  <line x1="248.41" y1="157.37" x2="267.54" y2="141.85" stroke="#56c26a" stroke-width="1" opacity="0.27"/>
  <line x1="267.54" y1="141.85" x2="271.75" y2="124.62" stroke="#56c26a" stroke-width="0.5" opacity="0.21"/>
  <line x1="267.54" y1="141.85" x2="284.32" y2="136.12" stroke="#56c26a" stroke-width="0.5" opacity="0.21"/>
  <circle cx="284.32" cy="136.12" r="2.76" fill="#2f9e6b" opacity="0.5"/>
  <line x1="238.86" y1="235.25" x2="270.54" y2="199.83" stroke="#56c26a" stroke-width="2" opacity="0.39"/>
  <line x1="270.54" y1="199.83" x2="272.55" y2="165.67" stroke="#56c26a" stroke-width="1.5" opacity="0.33"/>
  <line x1="272.55" y1="165.67" x2="261.37" y2="143.72" stroke="#56c26a" stroke-width="1" opacity="0.27"/>
  <line x1="261.37" y1="143.72" x2="246.64" y2="133.84" stroke="#56c26a" stroke-width="0.5" opacity="0.21"/>
  <circle cx="246.64" cy="133.84" r="2.2" fill="#2f9e6b" opacity="0.5"/>
  <line x1="261.37" y1="143.72" x2="263.75" y2="126.14" stroke="#56c26a" stroke-width="0.5" opacity="0.21"/>
  <line x1="272.55" y1="165.67" x2="286.08" y2="145.09" stroke="#56c26a" stroke-width="1" opacity="0.27"/>
  <circle cx="286.08" cy="145.09" r="2.08" fill="#2f9e6b" opacity="0.5"/>
  <line x1="286.08" y1="145.09" x2="289.61" y2="127.71" stroke="#56c26a" stroke-width="0.5" opacity="0.21"/>
  <circle cx="289.61" cy="127.71" r="3" fill="#2f9e6b" opacity="0.5"/>
  <line x1="286.08" y1="145.09" x2="300.46" y2="134.71" stroke="#56c26a" stroke-width="0.5" opacity="0.21"/>
  <line x1="270.54" y1="199.83" x2="301.29" y2="184.84" stroke="#56c26a" stroke-width="1.5" opacity="0.33"/>
  <line x1="301.29" y1="184.84" x2="317.38" y2="166.18" stroke="#56c26a" stroke-width="1" opacity="0.27"/>
  <circle cx="317.38" cy="166.18" r="2.86" fill="#2f9e6b" opacity="0.5"/>
  <line x1="317.38" y1="166.18" x2="322.55" y2="149.22" stroke="#56c26a" stroke-width="0.5" opacity="0.21"/>
  <circle cx="322.55" cy="149.22" r="3.25" fill="#2f9e6b" opacity="0.5"/>
  <line x1="317.38" y1="166.18" x2="334.59" y2="161.86" stroke="#56c26a" stroke-width="0.5" opacity="0.21"/>
  <circle cx="334.59" cy="161.86" r="2.44" fill="#2f9e6b" opacity="0.5"/>
  <line x1="301.29" y1="184.84" x2="325.75" y2="187.81" stroke="#56c26a" stroke-width="1" opacity="0.27"/>
  <line x1="325.75" y1="187.81" x2="340.84" y2="178.49" stroke="#56c26a" stroke-width="0.5" opacity="0.21"/>
  <circle cx="340.84" cy="178.49" r="3.26" fill="#2f9e6b" opacity="0.5"/>
  <line x1="325.75" y1="187.81" x2="338.55" y2="200.09" stroke="#56c26a" stroke-width="0.5" opacity="0.21"/>
</svg>
