<svg xmlns="http://www.w3.org/2000/svg" viewBox="0 0 400 300" width="400" height="300" role="img" aria-label="biology decorative background">
  <defs>
    <radialGradient id="grad-biology-medium-02" cx="50%" cy="35%" r="80%">
      <stop offset="0%" stop-color="#56c26a" stop-opacity="0.10"/>
      <stop offset="100%" stop-color="#071508" stop-opacity="0"/>
    </radialGradient>
  </defs>
  <rect width="400" height="300" fill="#071508"/>
  <rect width="400" height="300" fill="url(#grad-biology-medium-02)"/>
  <path d="M114.71,284.34 C83.57,229.61 377.24,198.5 328.6,270.54" fill="none" stroke="#56c26a" stroke-width="1.23" opacity="0.2"/>
  <path d="M77.3,97.68 C93.36,256.6 50.54,127.43 379.77,21.03" fill="none" stroke="#2f9e6b" stroke-width="1.35" opacity="0.32"/>
  <path d="M103.73,40.66 C230.2,280.12 116.7,180.48 303.72,14.52" fill="none" stroke="#2f9e6b" stroke-width="1.08" opacity="0.36"/>
  <path d="M105.02,202.45 C19.26,233.15 101,165.69 338.59,192.05" fill="none" stroke="#56c26a" stroke-width="1.11" opacity="0.31"/>
  <path d="M98.26,96.69 C81.19,229.99 310.78,178.92 328.9,15.07" fill="none" stroke="#56c26a" stroke-width="1.16" opacity="0.36"/>
  <path d="M73.65,61.55 C240.99,141.01 335.7,28.74 386.89,66.46" fill="none" stroke="#56c26a" stroke-width="2.09" opacity="0.2"/>
  <path d="M309.04,166.99 C308.98,170.74 307.35,175.4 304.89,178.87 C302.43,182.33 298.28,187.37 294.27,187.8 C290.25,188.23 284.24,183.79 280.79,181.46 C277.35,179.12 274.65,177.23 273.59,173.8 C272.53,170.37 273.3,164.63 274.45,160.87 C275.59,157.1 277.12,153.27 280.45,151.2 C283.79,149.13 290.32,147.59 294.45,148.45 C298.58,149.31 302.79,153.27 305.22,156.36 C307.65,159.45 309.09,163.24 309.04,166.99 Z" fill="#a3d977" opacity="0.1"/>
  <path d="M309.04,166.99 C308.98,170.74 307.35,175.4 304.89,178.87 C302.43,182.33 298.28,187.37 294.27,187.8 C290.25,188.23 284.24,183.79 280.79,181.46 C277.35,179.12 274.65,177.23 273.59,173.8 C272.53,170.37 273.3,164.63 274.45,160.87 C275.59,157.1 277.12,153.27 280.45,151.2 C283.79,149.13 290.32,147.59 294.45,148.45 C298.58,149.31 302.79,153.27 305.22,156.36 C307.65,159.45 309.09,163.24 309.04,166.99 Z" fill="none" stroke="#56c26a" stroke-width="1" opacity="0.3"/>
  <circle cx="290.72" cy="166.99" r="5.36" fill="#2f9e6b" opacity="0.4"/>
  <path d="M231.35,268.81 C231.31,272.28 228.32,276.76 225.28,278.46 C222.25,280.16 215.92,280.64 213.14,279.03 C210.36,277.42 208.63,272.35 208.6,268.81 C208.57,265.26 210.14,259.63 212.95,257.76 C215.77,255.9 222.42,255.77 225.49,257.61 C228.55,259.45 231.38,265.33 231.35,268.81 Z" fill="#a3d977" opacity="0.1"/>
  <path d="M231.35,268.81 C231.31,272.28 228.32,276.76 225.28,278.46 C222.25,280.16 215.92,280.64 213.14,279.03 C210.36,277.42 208.63,272.35 208.6,268.81 C208.57,265.26 210.14,259.63 212.95,257.76 C215.77,255.9 222.42,255.77 225.49,257.61 C228.55,259.45 231.38,265.33 231.35,268.81 Z" fill="none" stroke="#56c26a" stroke-width="1" opacity="0.3"/>
  <circle cx="219.48" cy="268.81" r="3.3" fill="#2f9e6b" opacity="0.4"/>
  <path d="M210.22,102.6 C210.07,105.39 208.55,108.32 206.44,110.65 C204.32,112.98 200.33,116.17 197.52,116.57 C194.7,116.97 191.81,115.38 189.52,113.05 C187.23,110.72 184.23,106.08 183.79,102.6 C183.34,99.12 184.55,94.07 186.84,92.16 C189.13,90.26 194.1,90.88 197.52,91.16 C200.93,91.45 205.21,91.98 207.32,93.89 C209.44,95.8 210.37,99.81 210.22,102.6 Z" fill="#a3d977" opacity="0.1"/>
  <path d="M210.22,102.6 C210.07,105.39 208.55,108.32 206.44,110.65 C204.32,112.98 200.33,116.17 197.52,116.57 C194.7,116.97 191.81,115.38 189.52,113.05 C187.23,110.72 184.23,106.08 183.79,102.6 C183.34,99.12 184.55,94.07 186.84,92.16 C189.13,90.26 194.1,90.88 197.52,91.16 C200.93,91.45 205.21,91.98 207.32,93.89 C209.44,95.8 210.37,99.81 210.22,102.6 Z" fill="none" stroke="#56c26a" stroke-width="1" opacity="0.3"/>
  <circle cx="197.52" cy="102.6" r="3.69" fill="#2f9e6b" opacity="0.4"/>
  <path d="M168.09,144.34 C167.98,147.71 167.18,151.92 164.86,153.99 C162.54,156.07 157.34,157.56 154.17,156.79 C150.99,156.03 147.25,152.27 145.81,149.41 C144.36,146.56 144.15,142.44 145.51,139.66 C146.87,136.88 150.62,133.72 153.95,132.75 C157.28,131.77 163.15,131.85 165.5,133.78 C167.86,135.72 168.19,140.97 168.09,144.34 Z" fill="#a3d977" opacity="0.1"/>
  <path d="M168.09,144.34 C167.98,147.71 167.18,151.92 164.86,153.99 C162.54,156.07 157.34,157.56 154.17,156.79 C150.99,156.03 147.25,152.27 145.81,149.41 C144.36,146.56 144.15,142.44 145.51,139.66 C146.87,136.88 150.62,133.72 153.95,132.75 C157.28,131.77 163.15,131.85 165.5,133.78 C167.86,135.72 168.19,140.97 168.09,144.34 Z" fill="none" stroke="#56c26a" stroke-width="1" opacity="0.3"/>
  <circle cx="157.04" cy="144.34" r="3.54" fill="#2f9e6b" opacity="0.4"/>
  <path d="M255.52,197.82 C254.86,205.3 250.4,212.95 244.86,217.56 C239.32,222.17 228.88,226.57 222.3,225.49 C215.71,224.42 208.99,217.89 205.36,211.1 C201.73,204.31 197.74,192.14 200.51,184.76 C203.29,177.38 213.96,168.84 222,166.82 C230.05,164.81 243.2,167.51 248.78,172.67 C254.37,177.84 256.17,190.34 255.52,197.82 Z" fill="#a3d977" opacity="0.1"/>
  <path d="M255.52,197.82 C254.86,205.3 250.4,212.95 244.86,217.56 C239.32,222.17 228.88,226.57 222.3,225.49 C215.71,224.42 208.99,217.89 205.36,211.1 C201.73,204.31 197.74,192.14 200.51,184.76 C203.29,177.38 213.96,168.84 222,166.82 C230.05,164.81 243.2,167.51 248.78,172.67 C254.37,177.84 256.17,190.34 255.52,197.82 Z" fill="none" stroke="#56c26a" stroke-width="1" opacity="0.3"/>
  <circle cx="229.14" cy="197.82" r="8.02" fill="#2f9e6b" opacity="0.4"/>
  <path d="M165.01,128.84 C164.4,134.13 158.13,140.47 153.51,144.54 C148.9,148.61 143.08,152.88 137.33,153.27 C131.59,153.66 123.13,150.94 119.04,146.87 C114.96,142.8 113.06,134.67 112.85,128.84 C112.64,123.02 113.7,116.23 117.78,111.92 C121.86,107.62 130.77,102.85 137.33,103 C143.9,103.15 152.55,108.51 157.16,112.82 C161.77,117.13 165.61,123.56 165.01,128.84 Z" fill="#a3d977" opacity="0.1"/>
  <path d="M165.01,128.84 C164.4,134.13 158.13,140.47 153.51,144.54 C148.9,148.61 143.08,152.88 137.33,153.27 C131.59,153.66 123.13,150.94 119.04,146.87 C114.96,142.8 113.06,134.67 112.85,128.84 C112.64,123.02 113.7,116.23 117.78,111.92 C121.86,107.62 130.77,102.85 137.33,103 C143.9,103.15 152.55,108.51 157.16,112.82 C161.77,117.13 165.61,123.56 165.01,128.84 Z" fill="none" stroke="#56c26a" stroke-width="1" opacity="0.3"/>
  <circle cx="137.33" cy="128.84" r="7.07" fill="#2f9e6b" opacity="0.4"/>
  <path d="M228.76,116.3 C228.73,119.37 227.26,123.51 224.83,125.81 C222.39,128.12 217.7,129.75 214.15,130.12 C210.6,130.49 206.09,129.51 203.55,128.02 C201.01,126.54 199.72,124.04 198.92,121.2 C198.12,118.37 197.76,114.22 198.74,111 C199.72,107.78 202.21,103.21 204.79,101.89 C207.36,100.57 210.8,102.18 214.17,103.1 C217.53,104.02 222.57,105.2 225,107.4 C227.43,109.6 228.78,113.23 228.76,116.3 Z" fill="#a3d977" opacity="0.1"/>
  <path d="M228.76,116.3 C228.73,119.37 227.26,123.51 224.83,125.81 C222.39,128.12 217.7,129.75 214.15,130.12 C210.6,130.49 206.09,129.51 203.55,128.02 C201.01,126.54 199.72,124.04 198.92,121.2 C198.12,118.37 197.76,114.22 198.74,111 C199.72,107.78 202.21,103.21 204.79,101.89 C207.36,100.57 210.8,102.18 214.17,103.1 C217.53,104.02 222.57,105.2 225,107.4 C227.43,109.6 228.78,113.23 228.76,116.3 Z" fill="none" stroke="#56c26a" stroke-width="1" opacity="0.3"/>
  <circle cx="211.9" cy="116.3" r="4.17" fill="#2f9e6b" opacity="0.4"/>
  <path d="M249.14,235.96 C249.06,238.3 248.14,241.23 246.41,243.04 C244.69,244.86 241.39,246.86 238.81,246.86 C236.23,246.87 232.48,244.87 230.93,243.05 C229.38,241.23 229.52,238.29 229.51,235.96 C229.49,233.62 229.31,230.58 230.86,229.05 C232.41,227.51 236.13,226.76 238.81,226.75 C241.48,226.74 245.18,227.45 246.9,228.98 C248.63,230.52 249.22,233.61 249.14,235.96 Z" fill="#a3d977" opacity="0.1"/>
  <path d="M249.14,235.96 C249.06,238.3 248.14,241.23 246.41,243.04 C244.69,244.86 241.39,246.86 238.81,246.86 C236.23,246.87 232.48,244.87 230.93,243.05 C229.38,241.23 229.52,238.29 229.51,235.96 C229.49,233.62 229.31,230.58 230.86,229.05 C232.41,227.51 236.13,226.76 238.81,226.75 C241.48,226.74 245.18,227.45 246.9,228.98 C248.63,230.52 249.22,233.61 249.14,235.96 Z" fill="none" stroke="#56c26a" stroke-width="1" opacity="0.3"/>
  <circle cx="238.81" cy="235.96" r="2.94" fill="#2f9e6b" opacity="0.4"/>
  <path d="M152.91,188.88 C152.94,191.86 151.07,195.38 148.58,196.71 C146.09,198.04 140.63,198.16 137.98,196.86 C135.32,195.55 132.64,191.95 132.65,188.88 C132.65,185.82 135.38,180.15 138.01,178.47 C140.64,176.8 145.94,177.1 148.42,178.84 C150.9,180.57 152.88,185.91 152.91,188.88 Z" fill="#a3d977" opacity="0.1"/>
  <path d="M152.91,188.88 C152.94,191.86 151.07,195.38 148.58,196.71 C146.09,198.04 140.63,198.16 137.98,196.86 C135.32,195.55 132.64,191.95 132.65,188.88 C132.65,185.82 135.38,180.15 138.01,178.47 C140.64,176.8 145.94,177.1 148.42,178.84 C150.9,180.57 152.88,185.91 152.91,188.88 Z" fill="none" stroke="#56c26a" stroke-width="1" opacity="0.3"/>
  <circle cx="143.4" cy="188.88" r="2.96" fill="#2f9e6b" opacity="0.4"/>
  <path d="M235.08,42.77 C234.98,48.21 232.09,56.41 227.82,60.79 C223.55,65.18 215.45,69.57 209.43,69.08 C203.41,68.59 195.98,62.23 191.71,57.84 C187.43,53.46 183.24,48.08 183.78,42.77 C184.33,37.46 190.69,29.42 194.96,25.97 C199.24,22.51 203.87,21.68 209.43,22.04 C215,22.4 224.09,24.69 228.37,28.15 C232.64,31.6 235.17,37.33 235.08,42.77 Z" fill="#a3d977" opacity="0.1"/>
  <path d="M235.08,42.77 C234.98,48.21 232.09,56.41 227.82,60.79 C223.55,65.18 215.45,69.57 209.43,69.08 C203.41,68.59 195.98,62.23 191.71,57.84 C187.43,53.46 183.24,48.08 183.78,42.77 C184.33,37.46 190.69,29.42 194.96,25.97 C199.24,22.51 203.87,21.68 209.43,22.04 C215,22.4 224.09,24.69 228.37,28.15 C232.64,31.6 235.17,37.33 235.08,42.77 Z" fill="none" stroke="#56c26a" stroke-width="1" opacity="0.3"/>
  <circle cx="209.43" cy="42.77" r="6.57" fill="#2f9e6b" opacity="0.4"/>
  <path d="M171.33,180.66 C171.53,186.82 169.48,193.82 166.01,198.34 C162.54,202.86 155.8,206.7 150.53,207.79 C145.26,208.88 139.69,207.99 134.39,204.89 C129.09,201.79 121.44,194.84 118.73,189.17 C116.03,183.51 115.9,176.23 118.16,170.9 C120.42,165.57 126.8,159.46 132.28,157.21 C137.77,154.96 145.63,156.69 151.05,157.38 C156.47,158.07 161.42,157.49 164.8,161.38 C168.18,165.26 171.13,174.5 171.33,180.66 Z" fill="#a3d977" opacity="0.1"/>
  <path d="M171.33,180.66 C171.53,186.82 169.48,193.82 166.01,198.34 C162.54,202.86 155.8,206.7 150.53,207.79 C145.26,208.88 139.69,207.99 134.39,204.89 C129.09,201.79 121.44,194.84 118.73,189.17 C116.03,183.51 115.9,176.23 118.16,170.9 C120.42,165.57 126.8,159.46 132.28,157.21 C137.77,154.96 145.63,156.69 151.05,157.38 C156.47,158.07 161.42,157.49 164.8,161.38 C168.18,165.26 171.13,174.5 171.33,180.66 Z" fill="none" stroke="#56c26a" stroke-width="1" opacity="0.3"/>
  <circle cx="145.96" cy="180.66" r="7.51" fill="#2f9e6b" opacity="0.4"/>
  <path d="M307.96,237.92 C307.85,240.94 304.87,244.79 302.58,247.13 C300.29,249.47 297.15,251.85 294.23,251.95 C291.31,252.04 287.37,250.04 285.08,247.7 C282.79,245.36 280.63,240.79 280.48,237.92 C280.33,235.05 281.88,232.51 284.18,230.47 C286.47,228.44 291.05,225.97 294.23,225.72 C297.41,225.47 300.98,226.94 303.27,228.97 C305.56,231 308.08,234.89 307.96,237.92 Z" fill="#a3d977" opacity="0.1"/>
  <path d="M307.96,237.92 C307.85,240.94 304.87,244.79 302.58,247.13 C300.29,249.47 297.15,251.85 294.23,251.95 C291.31,252.04 287.37,250.04 285.08,247.7 C282.79,245.36 280.63,240.79 280.48,237.92 C280.33,235.05 281.88,232.51 284.18,230.47 C286.47,228.44 291.05,225.97 294.23,225.72 C297.41,225.47 300.98,226.94 303.27,228.97 C305.56,231 308.08,234.89 307.96,237.92 Z" fill="none" stroke="#56c26a" stroke-width="1" opacity="0.3"/>
  <circle cx="294.23" cy="237.92" r="3.46" fill="#2f9e6b" opacity="0.4"/>
</svg>
