<svg xmlns="http://www.w3.org/2000/svg" viewBox="0 0 400 300" width="400" height="300" role="img" aria-label="biology decorative background">
  <defs>
    <radialGradient id="grad-biology-medium-10" cx="50%" cy="35%" r="80%">
      <stop offset="0%" stop-color="#56c26a" stop-opacity="0.10"/>
      <stop offset="100%" stop-color="#071508" stop-opacity="0"/>
    </radialGradient>
  </defs>
  <rect width="400" height="300" fill="#071508"/>
  <rect width="400" height="300" fill="url(#grad-biology-medium-10)"/>
  <line x1="123.19" y1="300" x2="109.58" y2="235.42" stroke="#56c26a" stroke-width="2.5" opacity="0.45"/>
  <line x1="109.58" y1="235.42" x2="85.2" y2="194.63" stroke="#56c26a" stroke-width="2" opacity="0.39"/>
  <line x1="85.2" y1="194.63" x2="53.01" y2="183.04" stroke="#56c26a" stroke-width="1.5" opacity="0.33"/>
  <line x1="53.01" y1="183.04" x2="28.38" y2="182.55" stroke="#56c26a" stroke-width="1" opacity="0.27"/>
  <circle cx="28.38" cy="182.55" r="2.42" fill="#2f9e6b" opacity="0.5"/>
  <line x1="28.38" y1="182.55" x2="12.01" y2="189.38" stroke="#56c26a" stroke-width="0.5" opacity="0.21"/>
  <circle cx="12.01" cy="189.38" r="2.04" fill="#2f9e6b" opacity="0.5"/>
  <line x1="28.38" y1="182.55" x2="14.81" y2="171.13" stroke="#56c26a" stroke-width="0.5" opacity="0.21"/>
  <line x1="53.01" y1="183.04" x2="35.06" y2="166.17" stroke="#56c26a" stroke-width="1" opacity="0.27"/>
  <circle cx="35.06" cy="166.17" r="2.61" fill="#2f9e6b" opacity="0.5"/>
  <line x1="35.06" y1="166.17" x2="17.76" y2="162.26" stroke="#56c26a" stroke-width="0.5" opacity="0.21"/>
  <circle cx="17.76" cy="162.26" r="2.72" fill="#2f9e6b" opacity="0.5"/>
  <line x1="35.06" y1="166.17" x2="28.43" y2="149.71" stroke="#56c26a" stroke-width="0.5" opacity="0.21"/>
  <line x1="85.2" y1="194.63" x2="79.69" y2="160.86" stroke="#56c26a" stroke-width="1.5" opacity="0.33"/>
  <line x1="79.69" y1="160.86" x2="61.49" y2="144.26" stroke="#56c26a" stroke-width="1" opacity="0.27"/>
  <circle cx="61.49" cy="144.26" r="1.57" fill="#2f9e6b" opacity="0.5"/>
  <line x1="61.49" y1="144.26" x2="43.94" y2="141.69" stroke="#56c26a" stroke-width="0.5" opacity="0.21"/>
  <circle cx="43.94" cy="141.69" r="2.25" fill="#2f9e6b" opacity="0.5"/>
  <line x1="61.49" y1="144.26" x2="53.51" y2="128.42" stroke="#56c26a" stroke-width="0.5" opacity="0.21"/>
  <line x1="79.69" y1="160.86" x2="85.5" y2="136.92" stroke="#56c26a" stroke-width="1" opacity="0.27"/>
  <circle cx="85.5" cy="136.92" r="2.18" fill="#2f9e6b" opacity="0.5"/>
  <line x1="85.5" y1="136.92" x2="81.54" y2="119.63" stroke="#56c26a" stroke-width="0.5" opacity="0.21"/>
  <line x1="85.5" y1="136.92" x2="99.19" y2="125.64" stroke="#56c26a" stroke-width="0.5" opacity="0.21"/>
  <circle cx="99.19" cy="125.64" r="3.29" fill="#2f9e6b" opacity="0.5"/>
  <line x1="109.58" y1="235.42" x2="128.41" y2="191.79" stroke="#56c26a" stroke-width="2" opacity="0.39"/>
  <line x1="128.41" y1="191.79" x2="126.96" y2="157.61" stroke="#56c26a" stroke-width="1.5" opacity="0.33"/>
  <line x1="126.96" y1="157.61" x2="113.14" y2="137.22" stroke="#56c26a" stroke-width="1" opacity="0.27"/>
  <circle cx="113.14" cy="137.22" r="2.27" fill="#2f9e6b" opacity="0.5"/>
  <line x1="113.14" y1="137.22" x2="98.38" y2="127.37" stroke="#56c26a" stroke-width="0.5" opacity="0.21"/>
  <circle cx="98.38" cy="127.37" r="2.34" fill="#2f9e6b" opacity="0.5"/>
  <line x1="113.14" y1="137.22" x2="114.69" y2="119.55" stroke="#56c26a" stroke-width="0.5" opacity="0.21"/>
  <circle cx="114.69" cy="119.55" r="3.26" fill="#2f9e6b" opacity="0.5"/>
  <line x1="126.96" y1="157.61" x2="141.86" y2="137.98" stroke="#56c26a" stroke-width="1" opacity="0.27"/>
  <line x1="141.86" y1="137.98" x2="146.14" y2="120.77" stroke="#56c26a" stroke-width="0.5" opacity="0.21"/>
  <circle cx="146.14" cy="120.77" r="2.41" fill="#2f9e6b" opacity="0.5"/>
  <line x1="141.86" y1="137.98" x2="159.1" y2="133.82" stroke="#56c26a" stroke-width="0.5" opacity="0.21"/>
  <line x1="128.41" y1="191.79" x2="153.37" y2="168.39" stroke="#56c26a" stroke-width="1.5" opacity="0.33"/>
  <line x1="153.37" y1="168.39" x2="156.54" y2="143.96" stroke="#56c26a" stroke-width="1" opacity="0.27"/>
  <circle cx="156.54" cy="143.96" r="1.59" fill="#2f9e6b" opacity="0.5"/>
  <line x1="156.54" y1="143.96" x2="149.02" y2="127.9" stroke="#56c26a" stroke-width="0.5" opacity="0.21"/>
  <circle cx="149.02" cy="127.9" r="2.52" fill="#2f9e6b" opacity="0.5"/>
  <line x1="156.54" y1="143.96" x2="165.1" y2="128.42" stroke="#56c26a" stroke-width="0.5" opacity="0.21"/>
  <circle cx="165.1" cy="128.42" r="2.13" fill="#2f9e6b" opacity="0.5"/>
  <line x1="153.37" y1="168.39" x2="177.92" y2="166.34" stroke="#56c26a" stroke-width="1" opacity="0.27"/>
  <circle cx="177.92" cy="166.34" r="3.44" fill="#2f9e6b" opacity="0.5"/>
  <line x1="177.92" y1="166.34" x2="191.92" y2="155.45" stroke="#56c26a" stroke-width="0.5" opacity="0.21"/>
  <line x1="177.92" y1="166.34" x2="194.81" y2="171.75" stroke="#56c26a" stroke-width="0.5" opacity="0.21"/>
  <circle cx="194.81" cy="171.75" r="3.04" fill="#2f9e6b" opacity="0.5"/>
  <line x1="291.11" y1="300" x2="309.72" y2="236.68" stroke="#56c26a" stroke-width="2.5" opacity="0.45"/>
  <line x1="309.72" y1="236.68" x2="293.9" y2="191.87" stroke="#56c26a" stroke-width="2" opacity="0.39"/>
  <line x1="293.9" y1="191.87" x2="265.54" y2="172.72" stroke="#56c26a" stroke-width="1.5" opacity="0.33"/>
  <line x1="265.54" y1="172.72" x2="240.97" y2="171.05" stroke="#56c26a" stroke-width="1" opacity="0.27"/>
  <line x1="240.97" y1="171.05" x2="225.85" y2="180.34" stroke="#56c26a" stroke-width="0.5" opacity="0.21"/>
  <line x1="240.97" y1="171.05" x2="225.84" y2="161.79" stroke="#56c26a" stroke-width="0.5" opacity="0.21"/>
  <circle cx="225.84" cy="161.79" r="1.57" fill="#2f9e6b" opacity="0.5"/>
  <line x1="265.54" y1="172.72" x2="252.48" y2="151.83" stroke="#56c26a" stroke-width="1" opacity="0.27"/>
  <line x1="252.48" y1="151.83" x2="236.02" y2="145.24" stroke="#56c26a" stroke-width="0.5" opacity="0.21"/>
  <circle cx="236.02" cy="145.24" r="3.08" fill="#2f9e6b" opacity="0.5"/>
  <line x1="252.48" y1="151.83" x2="248.66" y2="134.51" stroke="#56c26a" stroke-width="0.5" opacity="0.21"/>
  <circle cx="248.66" cy="134.51" r="3.01" fill="#2f9e6b" opacity="0.5"/>
  <line x1="293.9" y1="191.87" x2="301.41" y2="158.49" stroke="#56c26a" stroke-width="1.5" opacity="0.33"/>
  <line x1="301.41" y1="158.49" x2="296.87" y2="134.28" stroke="#56c26a" stroke-width="1" opacity="0.27"/>
  <circle cx="296.87" cy="134.28" r="3.44" fill="#2f9e6b" opacity="0.5"/>
  <line x1="296.87" y1="134.28" x2="286.93" y2="119.59" stroke="#56c26a" stroke-width="0.5" opacity="0.21"/>
  <circle cx="286.93" cy="119.59" r="1.67" fill="#2f9e6b" opacity="0.5"/>
  <line x1="296.87" y1="134.28" x2="299.99" y2="116.82" stroke="#56c26a" stroke-width="0.5" opacity="0.21"/>
  <circle cx="299.99" cy="116.82" r="3.31" fill="#2f9e6b" opacity="0.5"/>
  <line x1="301.41" y1="158.49" x2="316.73" y2="139.2" stroke="#56c26a" stroke-width="1" opacity="0.27"/>
  <line x1="316.73" y1="139.2" x2="317.26" y2="121.47" stroke="#56c26a" stroke-width="0.5" opacity="0.21"/>
  <line x1="316.73" y1="139.2" x2="333.79" y2="134.35" stroke="#56c26a" stroke-width="0.5" opacity="0.21"/>
  <circle cx="333.79" cy="134.35" r="1.6" fill="#2f9e6b" opacity="0.5"/>
  <line x1="309.72" y1="236.68" x2="344.31" y2="204.1" stroke="#56c26a" stroke-width="2" opacity="0.39"/>
  <line x1="344.31" y1="204.1" x2="349.18" y2="170.23" stroke="#56c26a" stroke-width="1.5" opacity="0.33"/>
  <line x1="349.18" y1="170.23" x2="336.85" y2="148.9" stroke="#56c26a" stroke-width="1" opacity="0.27"/>
  <circle cx="336.85" cy="148.9" r="3.01" fill="#2f9e6b" opacity="0.5"/>
  <line x1="336.85" y1="148.9" x2="321.77" y2="139.57" stroke="#56c26a" stroke-width="0.5" opacity="0.21"/>
  <circle cx="321.77" cy="139.57" r="3.3" fill="#2f9e6b" opacity="0.5"/>
  <line x1="336.85" y1="148.9" x2="338.74" y2="131.27" stroke="#56c26a" stroke-width="0.5" opacity="0.21"/>
  <line x1="349.18" y1="170.23" x2="367.29" y2="153.53" stroke="#56c26a" stroke-width="1" opacity="0.27"/>
  <circle cx="367.29" cy="153.53" r="2.96" fill="#2f9e6b" opacity="0.5"/>
  <line x1="367.29" y1="153.53" x2="371.63" y2="136.33" stroke="#56c26a" stroke-width="0.5" opacity="0.21"/>
  <circle cx="371.63" cy="136.33" r="2.82" fill="#2f9e6b" opacity="0.5"/>
  <line x1="367.29" y1="153.53" x2="384.02" y2="147.65" stroke="#56c26a" stroke-width="0.5" opacity="0.21"/>
  <line x1="344.31" y1="204.1" x2="378.45" y2="201.77" stroke="#56c26a" stroke-width="1.5" opacity="0.33"/>
  <line x1="378.45" y1="201.77" x2="396.57" y2="185.09" stroke="#56c26a" stroke-width="1" opacity="0.27"/>
  <line x1="396.57" y1="185.09" x2="401.56" y2="168.06" stroke="#56c26a" stroke-width="0.5" opacity="0.21"/>
  <circle cx="401.56" cy="168.06" r="1.94" fill="#2f9e6b" opacity="0.5"/>
  <line x1="396.57" y1="185.09" x2="413.74" y2="180.63" stroke="#56c26a" stroke-width="0.5" opacity="0.21"/>
  <circle cx="413.74" cy="180.63" r="2.87" fill="#2f9e6b" opacity="0.5"/>
  <line x1="378.45" y1="201.77" x2="400.4" y2="212.95" stroke="#56c26a" stroke-width="1" opacity="0.27"/>
  <circle cx="400.4" cy="212.95" r="2.43" fill="#2f9e6b" opacity="0.5"/>
  <line x1="400.4" y1="212.95" x2="417.88" y2="209.91" stroke="#56c26a" stroke-width="0.5" opacity="0.21"/>
  <line x1="400.4" y1="212.95" x2="408.66" y2="228.65" stroke="#56c26a" stroke-width="0.5" opacity="0.21"/>
  <circle cx="408.66" cy="228.65" r="1.85" fill="#2f9e6b" opacity="0.5"/>
  <path d="M71.7,6.81 C192.93,242.63 376.1,32.5 286,27.53" fill="none" stroke="#56c26a" stroke-width="1.78" opacity="0.26"/>
  <path d="M51.87,292.21 C145.61,220.81 49.18,243.77 385.76,58.68" fill="none" stroke="#2f9e6b" stroke-width="1.44" opacity="0.32"/>
  <path d="M29.32,100.34 C102.12,278.73 128.77,83.49 287.63,218.88" fill="none" stroke="#56c26a" stroke-width="2.3" opacity="0.38"/>
  <path d="M63.84,70.8 C356.59,206.92 85.48,279.86 359.99,174.44" fill="none" stroke="#2f9e6b" stroke-width="2.17" opacity="0.27"/>
  <path d="M8.2,16.86 C250.39,242.24 111.57,69.99 336.79,204.52" fill="none" stroke="#2f9e6b" stroke-width="1.25" opacity="0.25"/>
  <path d="M65.93,205.43 C124.78,290.51 284.33,207.37 322.09,242.27" fill="none" stroke="#56c26a" stroke-width="2.08" opacity="0.17"/>
</svg>
