<svg xmlns="http://www.w3.org/2000/svg" viewBox="0 0 400 300" width="400" height="300" role="img" aria-label="biology decorative background">
  <defs>
    <radialGradient id="grad-biology-medium-04" cx="50%" cy="35%" r="80%">
      <stop offset="0%" stop-color="#56c26a" stop-opacity="0.10"/>
      <stop offset="100%" stop-color="#071508" stop-opacity="0"/>
    </radialGradient>
  </defs>
  <rect width="400" height="300" fill="#071508"/>
  <rect width="400" height="300" fill="url(#grad-biology-medium-04)"/>
  <line x1="318.34" y1="300" x2="302.63" y2="235.9" stroke="#56c26a" stroke-width="2.5" opacity="0.45"/>
  <line x1="302.63" y1="235.9" x2="272.49" y2="199.16" stroke="#56c26a" stroke-width="2" opacity="0.39"/>
  <line x1="272.49" y1="199.16" x2="243.79" y2="180.53" stroke="#56c26a" stroke-width="1.5" opacity="0.33"/>
  <line x1="243.79" y1="180.53" x2="219.89" y2="174.57" stroke="#56c26a" stroke-width="1" opacity="0.27"/>
  <line x1="219.89" y1="174.57" x2="202.66" y2="178.81" stroke="#56c26a" stroke-width="0.5" opacity="0.21"/>
  <line x1="219.89" y1="174.57" x2="205.52" y2="164.17" stroke="#56c26a" stroke-width="0.5" opacity="0.21"/>
  <circle cx="205.52" cy="164.17" r="1.63" fill="#2f9e6b" opacity="0.5"/>
  <line x1="243.79" y1="180.53" x2="232.85" y2="158.46" stroke="#56c26a" stroke-width="1" opacity="0.27"/>
  <line x1="232.85" y1="158.46" x2="217.38" y2="149.78" stroke="#56c26a" stroke-width="0.5" opacity="0.21"/>
  <circle cx="217.38" cy="149.78" r="2.63" fill="#2f9e6b" opacity="0.5"/>
  <line x1="232.85" y1="158.46" x2="233.68" y2="140.75" stroke="#56c26a" stroke-width="0.5" opacity="0.21"/>
  <line x1="272.49" y1="199.16" x2="262.42" y2="166.46" stroke="#56c26a" stroke-width="1.5" opacity="0.33"/>
  <line x1="262.42" y1="166.46" x2="243.68" y2="150.46" stroke="#56c26a" stroke-width="1" opacity="0.27"/>
  <circle cx="243.68" cy="150.46" r="2.31" fill="#2f9e6b" opacity="0.5"/>
  <line x1="243.68" y1="150.46" x2="226" y2="149.08" stroke="#56c26a" stroke-width="0.5" opacity="0.21"/>
  <circle cx="226" cy="149.08" r="2.74" fill="#2f9e6b" opacity="0.5"/>
  <line x1="243.68" y1="150.46" x2="238.71" y2="133.44" stroke="#56c26a" stroke-width="0.5" opacity="0.21"/>
  <circle cx="238.71" cy="133.44" r="3.26" fill="#2f9e6b" opacity="0.5"/>
  <line x1="262.42" y1="166.46" x2="266.73" y2="142.2" stroke="#56c26a" stroke-width="1" opacity="0.27"/>
  <line x1="266.73" y1="142.2" x2="257.85" y2="126.84" stroke="#56c26a" stroke-width="0.5" opacity="0.21"/>
  <circle cx="257.85" cy="126.84" r="1.6" fill="#2f9e6b" opacity="0.5"/>
  <line x1="266.73" y1="142.2" x2="275.84" y2="126.98" stroke="#56c26a" stroke-width="0.5" opacity="0.21"/>
  <line x1="302.63" y1="235.9" x2="319.91" y2="191.63" stroke="#56c26a" stroke-width="2" opacity="0.39"/>
  <line x1="319.91" y1="191.63" x2="322.23" y2="157.5" stroke="#56c26a" stroke-width="1.5" opacity="0.33"/>
  <line x1="322.23" y1="157.5" x2="307.71" y2="137.59" stroke="#56c26a" stroke-width="1" opacity="0.27"/>
  <line x1="307.71" y1="137.59" x2="293.3" y2="127.26" stroke="#56c26a" stroke-width="0.5" opacity="0.21"/>
  <circle cx="293.3" cy="127.26" r="3.35" fill="#2f9e6b" opacity="0.5"/>
  <line x1="307.71" y1="137.59" x2="306.25" y2="119.92" stroke="#56c26a" stroke-width="0.5" opacity="0.21"/>
  <circle cx="306.25" cy="119.92" r="2.3" fill="#2f9e6b" opacity="0.5"/>
  <line x1="322.23" y1="157.5" x2="335.87" y2="136.98" stroke="#56c26a" stroke-width="1" opacity="0.27"/>
  <circle cx="335.87" cy="136.98" r="2.57" fill="#2f9e6b" opacity="0.5"/>
  <line x1="335.87" y1="136.98" x2="336.44" y2="119.25" stroke="#56c26a" stroke-width="0.5" opacity="0.21"/>
  <circle cx="336.44" cy="119.25" r="1.73" fill="#2f9e6b" opacity="0.5"/>
  <line x1="335.87" y1="136.98" x2="352.89" y2="131.98" stroke="#56c26a" stroke-width="0.5" opacity="0.21"/>
  <line x1="319.91" y1="191.63" x2="346.49" y2="170.08" stroke="#56c26a" stroke-width="1.5" opacity="0.33"/>
  <line x1="346.49" y1="170.08" x2="359.02" y2="148.88" stroke="#56c26a" stroke-width="1" opacity="0.27"/>
  <circle cx="359.02" cy="148.88" r="2.31" fill="#2f9e6b" opacity="0.5"/>
  <line x1="359.02" y1="148.88" x2="357.88" y2="131.17" stroke="#56c26a" stroke-width="0.5" opacity="0.21"/>
  <line x1="359.02" y1="148.88" x2="374.09" y2="139.52" stroke="#56c26a" stroke-width="0.5" opacity="0.21"/>
  <circle cx="374.09" cy="139.52" r="1.53" fill="#2f9e6b" opacity="0.5"/>
  <line x1="346.49" y1="170.08" x2="370.72" y2="165.64" stroke="#56c26a" stroke-width="1" opacity="0.27"/>
  <circle cx="370.72" cy="165.64" r="1.96" fill="#2f9e6b" opacity="0.5"/>
  <line x1="370.72" y1="165.64" x2="384.88" y2="154.96" stroke="#56c26a" stroke-width="0.5" opacity="0.21"/>
  <line x1="370.72" y1="165.64" x2="388.11" y2="169.09" stroke="#56c26a" stroke-width="0.5" opacity="0.21"/>
  <line x1="202.16" y1="300" x2="214.62" y2="235.19" stroke="#56c26a" stroke-width="2.5" opacity="0.45"/>
  <line x1="214.62" y1="235.19" x2="208.16" y2="188.11" stroke="#56c26a" stroke-width="2" opacity="0.39"/>
  <line x1="208.16" y1="188.11" x2="188.53" y2="160.08" stroke="#56c26a" stroke-width="1.5" opacity="0.33"/>
  <line x1="188.53" y1="160.08" x2="168.61" y2="145.59" stroke="#56c26a" stroke-width="1" opacity="0.27"/>
  <line x1="168.61" y1="145.59" x2="150.89" y2="146.46" stroke="#56c26a" stroke-width="0.5" opacity="0.21"/>
  <line x1="168.61" y1="145.59" x2="161.57" y2="129.31" stroke="#56c26a" stroke-width="0.5" opacity="0.21"/>
  <line x1="188.53" y1="160.08" x2="188.17" y2="135.45" stroke="#56c26a" stroke-width="1" opacity="0.27"/>
  <line x1="188.17" y1="135.45" x2="182.16" y2="118.76" stroke="#56c26a" stroke-width="0.5" opacity="0.21"/>
  <circle cx="182.16" cy="118.76" r="2.11" fill="#2f9e6b" opacity="0.5"/>
  <line x1="188.17" y1="135.45" x2="196.4" y2="119.73" stroke="#56c26a" stroke-width="0.5" opacity="0.21"/>
  <circle cx="196.4" cy="119.73" r="1.75" fill="#2f9e6b" opacity="0.5"/>
  <line x1="208.16" y1="188.11" x2="220.22" y2="156.09" stroke="#56c26a" stroke-width="1.5" opacity="0.33"/>
  <line x1="220.22" y1="156.09" x2="215.66" y2="131.88" stroke="#56c26a" stroke-width="1" opacity="0.27"/>
  <circle cx="215.66" cy="131.88" r="1.6" fill="#2f9e6b" opacity="0.5"/>
  <line x1="215.66" y1="131.88" x2="205.41" y2="117.41" stroke="#56c26a" stroke-width="0.5" opacity="0.21"/>
  <circle cx="205.41" cy="117.41" r="2.94" fill="#2f9e6b" opacity="0.5"/>
  <line x1="215.66" y1="131.88" x2="219.48" y2="114.56" stroke="#56c26a" stroke-width="0.5" opacity="0.21"/>
  <circle cx="219.48" cy="114.56" r="3.4" fill="#2f9e6b" opacity="0.5"/>
  <line x1="220.22" y1="156.09" x2="236.27" y2="137.4" stroke="#56c26a" stroke-width="1" opacity="0.27"/>
  <circle cx="236.27" cy="137.4" r="3.22" fill="#2f9e6b" opacity="0.5"/>
  <line x1="236.27" y1="137.4" x2="241.05" y2="120.32" stroke="#56c26a" stroke-width="0.5" opacity="0.21"/>
  <line x1="236.27" y1="137.4" x2="252.71" y2="130.75" stroke="#56c26a" stroke-width="0.5" opacity="0.21"/>
  <circle cx="252.71" cy="130.75" r="1.66" fill="#2f9e6b" opacity="0.5"/>
  <line x1="214.62" y1="235.19" x2="238.86" y2="194.31" stroke="#56c26a" stroke-width="2" opacity="0.39"/>
  <line x1="238.86" y1="194.31" x2="236.92" y2="160.15" stroke="#56c26a" stroke-width="1.5" opacity="0.33"/>
  <line x1="236.92" y1="160.15" x2="227.46" y2="137.4" stroke="#56c26a" stroke-width="1" opacity="0.27"/>
  <circle cx="227.46" cy="137.4" r="2.01" fill="#2f9e6b" opacity="0.5"/>
  <line x1="227.46" y1="137.4" x2="212.79" y2="127.45" stroke="#56c26a" stroke-width="0.5" opacity="0.21"/>
  <circle cx="212.79" cy="127.45" r="1.63" fill="#2f9e6b" opacity="0.5"/>
  <line x1="227.46" y1="137.4" x2="229.25" y2="119.76" stroke="#56c26a" stroke-width="0.5" opacity="0.21"/>
  <line x1="236.92" y1="160.15" x2="248.93" y2="138.64" stroke="#56c26a" stroke-width="1" opacity="0.27"/>
  <line x1="248.93" y1="138.64" x2="249.26" y2="120.91" stroke="#56c26a" stroke-width="0.5" opacity="0.21"/>
  <line x1="248.93" y1="138.64" x2="264.81" y2="130.73" stroke="#56c26a" stroke-width="0.5" opacity="0.21"/>
  <circle cx="264.81" cy="130.73" r="2.76" fill="#2f9e6b" opacity="0.5"/>
  <line x1="238.86" y1="194.31" x2="264.25" y2="171.38" stroke="#56c26a" stroke-width="1.5" opacity="0.33"/>
  <line x1="264.25" y1="171.38" x2="275.42" y2="149.42" stroke="#56c26a" stroke-width="1" opacity="0.27"/>
  <circle cx="275.42" cy="149.42" r="1.77" fill="#2f9e6b" opacity="0.5"/>
  <line x1="275.42" y1="149.42" x2="278.25" y2="131.92" stroke="#56c26a" stroke-width="0.5" opacity="0.21"/>
  <line x1="275.42" y1="149.42" x2="290.26" y2="139.72" stroke="#56c26a" stroke-width="0.5" opacity="0.21"/>
  <circle cx="290.26" cy="139.72" r="2.3" fill="#2f9e6b" opacity="0.5"/>
  <line x1="264.25" y1="171.38" x2="287.05" y2="162.07" stroke="#56c26a" stroke-width="1" opacity="0.27"/>
  <line x1="287.05" y1="162.07" x2="296.25" y2="146.9" stroke="#56c26a" stroke-width="0.5" opacity="0.21"/>
  <circle cx="296.25" cy="146.9" r="1.94" fill="#2f9e6b" opacity="0.5"/>
  <line x1="287.05" y1="162.07" x2="304.61" y2="164.62" stroke="#56c26a" stroke-width="0.5" opacity="0.21"/>
  <path d="M374.81,225.46 C374.9,232.47 372.37,243.93 367.98,248.34 C363.6,252.75 355.47,252 348.48,251.94 C341.5,251.87 331.47,252.37 326.05,247.96 C320.64,243.54 315.84,232.27 315.99,225.46 C316.14,218.65 321.53,211.58 326.95,207.11 C332.36,202.63 341.73,198.74 348.48,198.6 C355.24,198.47 363.07,201.82 367.46,206.29 C371.85,210.77 374.72,218.45 374.81,225.46 Z" fill="#a3d977" opacity="0.1"/>
  <path d="M374.81,225.46 C374.9,232.47 372.37,243.93 367.98,248.34 C363.6,252.75 355.47,252 348.48,251.94 C341.5,251.87 331.47,252.37 326.05,247.96 C320.64,243.54 315.84,232.27 315.99,225.46 C316.14,218.65 321.53,211.58 326.95,207.11 C332.36,202.63 341.73,198.74 348.48,198.6 C355.24,198.47 363.07,201.82 367.46,206.29 C371.85,210.77 374.72,218.45 374.81,225.46 Z" fill="none" stroke="#56c26a" stroke-width="1" opacity="0.3"/>
  <circle cx="348.48" cy="225.46" r="7.92" fill="#2f9e6b" opacity="0.4"/>
  <path d="M379.46,230.56 C379.77,235.32 375.19,241.24 371.48,244.84 C367.77,248.45 362.47,251.43 357.21,252.17 C351.95,252.9 343.81,251.38 339.92,249.26 C336.03,247.14 335.37,243.79 333.86,239.45 C332.34,235.12 329.59,227.85 330.82,223.24 C332.05,218.63 336.86,214.06 341.25,211.81 C345.64,209.57 352.44,209.04 357.17,209.78 C361.89,210.52 365.89,212.79 369.6,216.25 C373.32,219.72 379.15,225.79 379.46,230.56 Z" fill="#a3d977" opacity="0.1"/>
  <path d="M379.46,230.56 C379.77,235.32 375.19,241.24 371.48,244.84 C367.77,248.45 362.47,251.43 357.21,252.17 C351.95,252.9 343.81,251.38 339.92,249.26 C336.03,247.14 335.37,243.79 333.86,239.45 C332.34,235.12 329.59,227.85 330.82,223.24 C332.05,218.63 336.86,214.06 341.25,211.81 C345.64,209.57 352.44,209.04 357.17,209.78 C361.89,210.52 365.89,212.79 369.6,216.25 C373.32,219.72 379.15,225.79 379.46,230.56 Z" fill="none" stroke="#56c26a" stroke-width="1" opacity="0.3"/>
  <circle cx="353.04" cy="230.56" r="6.59" fill="#2f9e6b" opacity="0.4"/>
  <path d="M92.34,164.8 C92.38,168.12 91.21,171.21 88.87,173.5 C86.52,175.8 81.59,178.45 78.26,178.59 C74.94,178.72 71.44,176.62 68.92,174.32 C66.4,172.02 63.37,167.97 63.14,164.8 C62.91,161.62 65.01,157.68 67.53,155.28 C70.05,152.87 74.75,150.66 78.26,150.38 C81.77,150.09 86.26,151.15 88.6,153.55 C90.95,155.95 92.29,161.47 92.34,164.8 Z" fill="#a3d977" opacity="0.1"/>
  <path d="M92.34,164.8 C92.38,168.12 91.21,171.21 88.87,173.5 C86.52,175.8 81.59,178.45 78.26,178.59 C74.94,178.72 71.44,176.62 68.92,174.32 C66.4,172.02 63.37,167.97 63.14,164.8 C62.91,161.62 65.01,157.68 67.53,155.28 C70.05,152.87 74.75,150.66 78.26,150.38 C81.77,150.09 86.26,151.15 88.6,153.55 C90.95,155.95 92.29,161.47 92.34,164.8 Z" fill="none" stroke="#56c26a" stroke-width="1" opacity="0.3"/>
  <circle cx="78.26" cy="164.8" r="4.03" fill="#2f9e6b" opacity="0.4"/>
  <path d="M359.52,83.16 C359.22,86.08 356.51,89.07 354.28,90.89 C352.06,92.71 348.93,93.73 346.17,94.08 C343.41,94.44 339.87,94.84 337.71,93.02 C335.55,91.2 333.47,86.44 333.22,83.16 C332.98,79.87 334.09,75.66 336.24,73.3 C338.4,70.95 342.87,69 346.17,69.01 C349.47,69.02 353.81,71 356.04,73.36 C358.26,75.71 359.81,80.24 359.52,83.16 Z" fill="#a3d977" opacity="0.1"/>
  <path d="M359.52,83.16 C359.22,86.08 356.51,89.07 354.28,90.89 C352.06,92.71 348.93,93.73 346.17,94.08 C343.41,94.44 339.87,94.84 337.71,93.02 C335.55,91.2 333.47,86.44 333.22,83.16 C332.98,79.87 334.09,75.66 336.24,73.3 C338.4,70.95 342.87,69 346.17,69.01 C349.47,69.02 353.81,71 356.04,73.36 C358.26,75.71 359.81,80.24 359.52,83.16 Z" fill="none" stroke="#56c26a" stroke-width="1" opacity="0.3"/>
  <circle cx="346.17" cy="83.16" r="3.47" fill="#2f9e6b" opacity="0.4"/>
  <path d="M164.04,127.23 C163.9,132.34 162.34,138.54 158.63,142.03 C154.92,145.53 146.74,149.42 141.77,148.2 C136.79,146.98 130.75,139.55 128.79,134.72 C126.83,129.9 127.73,123.43 130,119.26 C132.28,115.08 137.54,111 142.46,109.68 C147.37,108.36 155.9,108.42 159.5,111.34 C163.1,114.27 164.19,122.11 164.04,127.23 Z" fill="#a3d977" opacity="0.1"/>
  <path d="M164.04,127.23 C163.9,132.34 162.34,138.54 158.63,142.03 C154.92,145.53 146.74,149.42 141.77,148.2 C136.79,146.98 130.75,139.55 128.79,134.72 C126.83,129.9 127.73,123.43 130,119.26 C132.28,115.08 137.54,111 142.46,109.68 C147.37,108.36 155.9,108.42 159.5,111.34 C163.1,114.27 164.19,122.11 164.04,127.23 Z" fill="none" stroke="#56c26a" stroke-width="1" opacity="0.3"/>
  <circle cx="146.32" cy="127.23" r="5.37" fill="#2f9e6b" opacity="0.4"/>
  <path d="M247.3,166.24 C247.74,170.54 243.98,175.73 239.71,179.15 C235.44,182.58 226.54,187.46 221.7,186.79 C216.86,186.12 213.14,179.89 210.67,175.11 C208.2,170.34 205.01,163.04 206.87,158.15 C208.73,153.26 216.82,146.59 221.85,145.78 C226.89,144.98 232.87,149.93 237.11,153.34 C241.35,156.75 246.87,161.94 247.3,166.24 Z" fill="#a3d977" opacity="0.1"/>
  <path d="M247.3,166.24 C247.74,170.54 243.98,175.73 239.71,179.15 C235.44,182.58 226.54,187.46 221.7,186.79 C216.86,186.12 213.14,179.89 210.67,175.11 C208.2,170.34 205.01,163.04 206.87,158.15 C208.73,153.26 216.82,146.59 221.85,145.78 C226.89,144.98 232.87,149.93 237.11,153.34 C241.35,156.75 246.87,161.94 247.3,166.24 Z" fill="none" stroke="#56c26a" stroke-width="1" opacity="0.3"/>
  <circle cx="225.91" cy="166.24" r="5.43" fill="#2f9e6b" opacity="0.4"/>
  <path d="M280.47,181.4 C280.03,187.88 280.4,195.68 277.04,200.46 C273.67,205.24 266.36,209.71 260.28,210.08 C254.21,210.45 246.42,205.69 240.59,202.68 C234.76,199.67 226.82,197.15 225.3,192.03 C223.79,186.91 228.83,177.52 231.51,171.95 C234.18,166.39 236.77,161.42 241.37,158.65 C245.97,155.88 252.72,154.84 259.11,155.33 C265.5,155.82 276.13,157.24 279.69,161.58 C283.25,165.93 280.91,174.92 280.47,181.4 Z" fill="#a3d977" opacity="0.1"/>
  <path d="M280.47,181.4 C280.03,187.88 280.4,195.68 277.04,200.46 C273.67,205.24 266.36,209.71 260.28,210.08 C254.21,210.45 246.42,205.69 240.59,202.68 C234.76,199.67 226.82,197.15 225.3,192.03 C223.79,186.91 228.83,177.52 231.51,171.95 C234.18,166.39 236.77,161.42 241.37,158.65 C245.97,155.88 252.72,154.84 259.11,155.33 C265.5,155.82 276.13,157.24 279.69,161.58 C283.25,165.93 280.91,174.92 280.47,181.4 Z" fill="none" stroke="#56c26a" stroke-width="1" opacity="0.3"/>
  <circle cx="254.88" cy="181.4" r="7.98" fill="#2f9e6b" opacity="0.4"/>
  <path d="M355.35,53.74 C355.21,57.9 350.46,62.8 346.93,65.18 C343.39,67.57 337.9,68.87 334.16,68.05 C330.41,67.23 326.31,63.69 324.44,60.26 C322.57,56.83 321.29,50.91 322.95,47.45 C324.6,43.99 330.24,40.69 334.38,39.49 C338.52,38.29 344.28,37.88 347.78,40.26 C351.27,42.63 355.49,49.59 355.35,53.74 Z" fill="#a3d977" opacity="0.1"/>
  <path d="M355.35,53.74 C355.21,57.9 350.46,62.8 346.93,65.18 C343.39,67.57 337.9,68.87 334.16,68.05 C330.41,67.23 326.31,63.69 324.44,60.26 C322.57,56.83 321.29,50.91 322.95,47.45 C324.6,43.99 330.24,40.69 334.38,39.49 C338.52,38.29 344.28,37.88 347.78,40.26 C351.27,42.63 355.49,49.59 355.35,53.74 Z" fill="none" stroke="#56c26a" stroke-width="1" opacity="0.3"/>
  <circle cx="337.8" cy="53.74" r="4.34" fill="#2f9e6b" opacity="0.4"/>
  <path d="M370.84,67.84 C370.89,74.51 364.74,81.75 358.45,85.58 C352.16,89.41 338.7,93.79 333.12,90.83 C327.54,87.87 325.06,74.91 324.96,67.84 C324.85,60.78 326.96,52.13 332.5,48.42 C338.05,44.71 351.81,42.34 358.2,45.58 C364.59,48.82 370.8,61.18 370.84,67.84 Z" fill="#a3d977" opacity="0.1"/>
  <path d="M370.84,67.84 C370.89,74.51 364.74,81.75 358.45,85.58 C352.16,89.41 338.7,93.79 333.12,90.83 C327.54,87.87 325.06,74.91 324.96,67.84 C324.85,60.78 326.96,52.13 332.5,48.42 C338.05,44.71 351.81,42.34 358.2,45.58 C364.59,48.82 370.8,61.18 370.84,67.84 Z" fill="none" stroke="#56c26a" stroke-width="1" opacity="0.3"/>
  <circle cx="345.54" cy="67.84" r="6.56" fill="#2f9e6b" opacity="0.4"/>
  <path d="M252.65,171.67 C252.5,176.4 250.3,183.04 246.54,185.42 C242.78,187.8 234.23,188.21 230.09,185.92 C225.94,183.63 221.67,176.01 221.66,171.67 C221.65,167.32 225.74,162.28 230.03,159.84 C234.32,157.4 243.66,155.05 247.43,157.02 C251.2,158.99 252.79,166.93 252.65,171.67 Z" fill="#a3d977" opacity="0.1"/>
  <path d="M252.65,171.67 C252.5,176.4 250.3,183.04 246.54,185.42 C242.78,187.8 234.23,188.21 230.09,185.92 C225.94,183.63 221.67,176.01 221.66,171.67 C221.65,167.32 225.74,162.28 230.03,159.84 C234.32,157.4 243.66,155.05 247.43,157.02 C251.2,158.99 252.79,166.93 252.65,171.67 Z" fill="none" stroke="#56c26a" stroke-width="1" opacity="0.3"/>
  <circle cx="238.86" cy="171.67" r="4.44" fill="#2f9e6b" opacity="0.4"/>
  <path d="M347.23,200.51 C347.01,205.84 343.99,214.05 340.05,217.19 C336.12,220.33 328.14,220.61 323.61,219.34 C319.08,218.06 314.96,214.29 312.85,209.55 C310.74,204.81 309.09,195.25 310.94,190.91 C312.78,186.57 318.84,184.49 323.91,183.53 C328.97,182.57 337.45,182.34 341.34,185.17 C345.23,188 347.44,195.17 347.23,200.51 Z" fill="#a3d977" opacity="0.1"/>
  <path d="M347.23,200.51 C347.01,205.84 343.99,214.05 340.05,217.19 C336.12,220.33 328.14,220.61 323.61,219.34 C319.08,218.06 314.96,214.29 312.85,209.55 C310.74,204.81 309.09,195.25 310.94,190.91 C312.78,186.57 318.84,184.49 323.91,183.53 C328.97,182.57 337.45,182.34 341.34,185.17 C345.23,188 347.44,195.17 347.23,200.51 Z" fill="none" stroke="#56c26a" stroke-width="1" opacity="0.3"/>
  <circle cx="327.92" cy="200.51" r="5.48" fill="#2f9e6b" opacity="0.4"/>
  <path d="M66.77,128.92 C67.09,132.49 65.58,137.89 63.11,139.67 C60.64,141.46 55.42,140.57 51.98,139.62 C48.54,138.66 43.6,136.52 42.48,133.95 C41.37,131.38 43.68,126.79 45.3,124.19 C46.92,121.6 49.54,119.35 52.19,118.36 C54.85,117.37 58.79,116.49 61.22,118.25 C63.65,120.01 66.46,125.35 66.77,128.92 Z" fill="#a3d977" opacity="0.1"/>
  <path d="M66.77,128.92 C67.09,132.49 65.58,137.89 63.11,139.67 C60.64,141.46 55.42,140.57 51.98,139.62 C48.54,138.66 43.6,136.52 42.48,133.95 C41.37,131.38 43.68,126.79 45.3,124.19 C46.92,121.6 49.54,119.35 52.19,118.36 C54.85,117.37 58.79,116.49 61.22,118.25 C63.65,120.01 66.46,125.35 66.77,128.92 Z" fill="none" stroke="#56c26a" stroke-width="1" opacity="0.3"/>
  <circle cx="54.82" cy="128.92" r="3.37" fill="#2f9e6b" opacity="0.4"/>
</svg>
