<svg xmlns="http://www.w3.org/2000/svg" viewBox="0 0 400 300" width="400" height="300" role="img" aria-label="biology decorative background">
  <defs>
    <radialGradient id="grad-biology-medium-06" cx="50%" cy="35%" r="80%">
      <stop offset="0%" stop-color="#56c26a" stop-opacity="0.10"/>
      <stop offset="100%" stop-color="#071508" stop-opacity="0"/>
    </radialGradient>
  </defs>
  <rect width="400" height="300" fill="#071508"/>
  <rect width="400" height="300" fill="url(#grad-biology-medium-06)"/>
  <path d="M307.4,161.46 C307.64,166.64 303.71,174.27 299.56,176.53 C295.42,178.79 286.33,177.54 282.56,175.03 C278.78,172.52 276.78,166.33 276.93,161.46 C277.08,156.6 279.93,148.5 283.46,145.84 C286.99,143.17 294.13,142.88 298.12,145.49 C302.11,148.09 307.16,156.29 307.4,161.46 Z" fill="#a3d977" opacity="0.1"/>
  <path d="M307.4,161.46 C307.64,166.64 303.71,174.27 299.56,176.53 C295.42,178.79 286.33,177.54 282.56,175.03 C278.78,172.52 276.78,166.33 276.93,161.46 C277.08,156.6 279.93,148.5 283.46,145.84 C286.99,143.17 294.13,142.88 298.12,145.49 C302.11,148.09 307.16,156.29 307.4,161.46 Z" fill="none" stroke="#56c26a" stroke-width="1" opacity="0.3"/>
  <circle cx="290.84" cy="161.46" r="4.51" fill="#2f9e6b" opacity="0.4"/>
  <path d="M305.2,146.39 C305.04,151.5 305.7,158.06 302.39,161.71 C299.08,165.36 290.8,168.18 285.34,168.29 C279.87,168.4 273.63,166.01 269.61,162.36 C265.59,158.71 261.6,151.51 261.21,146.39 C260.82,141.26 263.27,135.11 267.29,131.61 C271.31,128.1 279.32,125.44 285.34,125.35 C291.35,125.25 300.08,127.54 303.39,131.04 C306.7,134.55 305.37,141.27 305.2,146.39 Z" fill="#a3d977" opacity="0.1"/>
  <path d="M305.2,146.39 C305.04,151.5 305.7,158.06 302.39,161.71 C299.08,165.36 290.8,168.18 285.34,168.29 C279.87,168.4 273.63,166.01 269.61,162.36 C265.59,158.71 261.6,151.51 261.21,146.39 C260.82,141.26 263.27,135.11 267.29,131.61 C271.31,128.1 279.32,125.44 285.34,125.35 C291.35,125.25 300.08,127.54 303.39,131.04 C306.7,134.55 305.37,141.27 305.2,146.39 Z" fill="none" stroke="#56c26a" stroke-width="1" opacity="0.3"/>
  <circle cx="285.34" cy="146.39" r="6.36" fill="#2f9e6b" opacity="0.4"/>
  <path d="M292.63,66.96 C292.51,69.81 289.83,74.26 287.46,75.96 C285.1,77.66 281.5,77.89 278.43,77.15 C275.36,76.41 270.34,74.15 269.05,71.51 C267.76,68.86 269.21,64.09 270.69,61.29 C272.18,58.49 275.04,55.11 277.95,54.71 C280.87,54.3 285.75,56.82 288.2,58.86 C290.64,60.91 292.76,64.11 292.63,66.96 Z" fill="#a3d977" opacity="0.1"/>
  <path d="M292.63,66.96 C292.51,69.81 289.83,74.26 287.46,75.96 C285.1,77.66 281.5,77.89 278.43,77.15 C275.36,76.41 270.34,74.15 269.05,71.51 C267.76,68.86 269.21,64.09 270.69,61.29 C272.18,58.49 275.04,55.11 277.95,54.71 C280.87,54.3 285.75,56.82 288.2,58.86 C290.64,60.91 292.76,64.11 292.63,66.96 Z" fill="none" stroke="#56c26a" stroke-width="1" opacity="0.3"/>
  <circle cx="280.66" cy="66.96" r="3.26" fill="#2f9e6b" opacity="0.4"/>
  <path d="M187.97,86.24 C187.32,92.18 181.54,100.43 177.12,104.12 C172.7,107.81 166.17,109.6 161.45,108.39 C156.73,107.17 151.53,102.31 148.81,96.83 C146.08,91.35 143.03,81.2 145.09,75.53 C147.15,69.87 155.17,64.02 161.17,62.85 C167.16,61.68 176.58,64.62 181.05,68.52 C185.52,72.42 188.63,80.31 187.97,86.24 Z" fill="#a3d977" opacity="0.1"/>
  <path d="M187.97,86.24 C187.32,92.18 181.54,100.43 177.12,104.12 C172.7,107.81 166.17,109.6 161.45,108.39 C156.73,107.17 151.53,102.31 148.81,96.83 C146.08,91.35 143.03,81.2 145.09,75.53 C147.15,69.87 155.17,64.02 161.17,62.85 C167.16,61.68 176.58,64.62 181.05,68.52 C185.52,72.42 188.63,80.31 187.97,86.24 Z" fill="none" stroke="#56c26a" stroke-width="1" opacity="0.3"/>
  <circle cx="165.68" cy="86.24" r="6.01" fill="#2f9e6b" opacity="0.4"/>
  <path d="M323.36,253.38 C323.22,255.95 321.91,259.28 320.35,260.94 C318.8,262.59 316.48,262.85 314.03,263.3 C311.57,263.75 307.52,264.65 305.65,263.64 C303.77,262.63 303.59,259.66 302.78,257.24 C301.98,254.82 300.13,251.15 300.82,249.12 C301.52,247.1 304.78,246.03 306.94,245.1 C309.11,244.17 311.45,243.48 313.83,243.54 C316.2,243.61 319.61,243.88 321.2,245.51 C322.78,247.15 323.5,250.81 323.36,253.38 Z" fill="#a3d977" opacity="0.1"/>
  <path d="M323.36,253.38 C323.22,255.95 321.91,259.28 320.35,260.94 C318.8,262.59 316.48,262.85 314.03,263.3 C311.57,263.75 307.52,264.65 305.65,263.64 C303.77,262.63 303.59,259.66 302.78,257.24 C301.98,254.82 300.13,251.15 300.82,249.12 C301.52,247.1 304.78,246.03 306.94,245.1 C309.11,244.17 311.45,243.48 313.83,243.54 C316.2,243.61 319.61,243.88 321.2,245.51 C322.78,247.15 323.5,250.81 323.36,253.38 Z" fill="none" stroke="#56c26a" stroke-width="1" opacity="0.3"/>
  <circle cx="311.92" cy="253.38" r="3.15" fill="#2f9e6b" opacity="0.4"/>
  <path d="M305.57,69.5 C305.52,74.56 303.7,81.75 300.21,84.39 C296.71,87.03 289.61,86.58 284.61,85.35 C279.6,84.13 272.1,80.79 270.2,77.03 C268.3,73.28 270.93,66.95 273.19,62.82 C275.44,58.68 279.18,53.68 283.74,52.22 C288.29,50.75 296.87,51.14 300.51,54.02 C304.15,56.9 305.63,64.44 305.57,69.5 Z" fill="#a3d977" opacity="0.1"/>
  <path d="M305.57,69.5 C305.52,74.56 303.7,81.75 300.21,84.39 C296.71,87.03 289.61,86.58 284.61,85.35 C279.6,84.13 272.1,80.79 270.2,77.03 C268.3,73.28 270.93,66.95 273.19,62.82 C275.44,58.68 279.18,53.68 283.74,52.22 C288.29,50.75 296.87,51.14 300.51,54.02 C304.15,56.9 305.63,64.44 305.57,69.5 Z" fill="none" stroke="#56c26a" stroke-width="1" opacity="0.3"/>
  <circle cx="288.2" cy="69.5" r="4.96" fill="#2f9e6b" opacity="0.4"/>
  <path d="M320.35,101.06 C320.3,106.09 321.78,114.48 318.93,118.07 C316.09,121.66 308.57,121.94 303.27,122.6 C297.97,123.26 291.7,124.29 287.14,122.02 C282.58,119.75 277.9,113.76 275.91,108.99 C273.92,104.22 273.46,97.97 275.19,93.42 C276.92,88.88 281.69,83.98 286.32,81.71 C290.95,79.43 297.47,78.75 302.95,79.78 C308.42,80.81 316.28,84.35 319.18,87.89 C322.08,91.44 320.39,96.03 320.35,101.06 Z" fill="#a3d977" opacity="0.1"/>
  <path d="M320.35,101.06 C320.3,106.09 321.78,114.48 318.93,118.07 C316.09,121.66 308.57,121.94 303.27,122.6 C297.97,123.26 291.7,124.29 287.14,122.02 C282.58,119.75 277.9,113.76 275.91,108.99 C273.92,104.22 273.46,97.97 275.19,93.42 C276.92,88.88 281.69,83.98 286.32,81.71 C290.95,79.43 297.47,78.75 302.95,79.78 C308.42,80.81 316.28,84.35 319.18,87.89 C322.08,91.44 320.39,96.03 320.35,101.06 Z" fill="none" stroke="#56c26a" stroke-width="1" opacity="0.3"/>
  <circle cx="299" cy="101.06" r="6.46" fill="#2f9e6b" opacity="0.4"/>
  <path d="M158.46,122.75 C158.51,128.62 155.89,137.77 152.61,142.24 C149.34,146.7 144.11,148.64 138.82,149.56 C133.52,150.48 126.57,150.38 120.84,147.74 C115.12,145.1 106.57,139.39 104.48,133.71 C102.39,128.03 105.72,120.14 108.32,113.67 C110.91,107.19 114.88,97.63 120.05,94.86 C125.22,92.09 133.96,95.01 139.34,97.04 C144.73,99.07 149.17,102.74 152.36,107.03 C155.54,111.31 158.42,116.89 158.46,122.75 Z" fill="#a3d977" opacity="0.1"/>
  <path d="M158.46,122.75 C158.51,128.62 155.89,137.77 152.61,142.24 C149.34,146.7 144.11,148.64 138.82,149.56 C133.52,150.48 126.57,150.38 120.84,147.74 C115.12,145.1 106.57,139.39 104.48,133.71 C102.39,128.03 105.72,120.14 108.32,113.67 C110.91,107.19 114.88,97.63 120.05,94.86 C125.22,92.09 133.96,95.01 139.34,97.04 C144.73,99.07 149.17,102.74 152.36,107.03 C155.54,111.31 158.42,116.89 158.46,122.75 Z" fill="none" stroke="#56c26a" stroke-width="1" opacity="0.3"/>
  <circle cx="133.83" cy="122.75" r="7.85" fill="#2f9e6b" opacity="0.4"/>
  <path d="M205.18,73.67 C205.22,79.2 198.4,87.05 192.27,90.53 C186.14,94.01 174.25,97.36 168.42,94.55 C162.59,91.74 157,80.1 157.28,73.67 C157.57,67.23 164.33,58.66 170.13,55.94 C175.92,53.21 186.19,54.36 192.03,57.32 C197.88,60.27 205.14,68.13 205.18,73.67 Z" fill="#a3d977" opacity="0.1"/>
  <path d="M205.18,73.67 C205.22,79.2 198.4,87.05 192.27,90.53 C186.14,94.01 174.25,97.36 168.42,94.55 C162.59,91.74 157,80.1 157.28,73.67 C157.57,67.23 164.33,58.66 170.13,55.94 C175.92,53.21 186.19,54.36 192.03,57.32 C197.88,60.27 205.14,68.13 205.18,73.67 Z" fill="none" stroke="#56c26a" stroke-width="1" opacity="0.3"/>
  <circle cx="180.6" cy="73.67" r="6.08" fill="#2f9e6b" opacity="0.4"/>
  <path d="M274.78,146.76 C274.7,149.88 270.36,153.73 267.92,156.69 C265.48,159.65 263.25,163.66 260.15,164.51 C257.06,165.36 252.68,163.88 249.36,161.8 C246.04,159.73 241.67,155.53 240.23,152.07 C238.78,148.6 239.1,143.86 240.68,141 C242.27,138.14 246.51,136.5 249.73,134.91 C252.95,133.31 256.91,130.91 260.02,131.43 C263.13,131.95 265.91,135.45 268.36,138.01 C270.82,140.56 274.85,143.65 274.78,146.76 Z" fill="#a3d977" opacity="0.1"/>
  <path d="M274.78,146.76 C274.7,149.88 270.36,153.73 267.92,156.69 C265.48,159.65 263.25,163.66 260.15,164.51 C257.06,165.36 252.68,163.88 249.36,161.8 C246.04,159.73 241.67,155.53 240.23,152.07 C238.78,148.6 239.1,143.86 240.68,141 C242.27,138.14 246.51,136.5 249.73,134.91 C252.95,133.31 256.91,130.91 260.02,131.43 C263.13,131.95 265.91,135.45 268.36,138.01 C270.82,140.56 274.85,143.65 274.78,146.76 Z" fill="none" stroke="#56c26a" stroke-width="1" opacity="0.3"/>
  <circle cx="257.05" cy="146.76" r="4.45" fill="#2f9e6b" opacity="0.4"/>
  <path d="M391.43,240.14 C391.27,247.48 383.38,257.36 377.03,261.33 C370.68,265.29 360.09,265.33 353.35,263.93 C346.6,262.52 339.35,259.04 336.55,252.88 C333.74,246.72 333.76,234.07 336.53,226.98 C339.3,219.88 346.26,211.93 353.17,210.32 C360.08,208.7 371.61,212.31 377.99,217.29 C384.36,222.26 391.59,232.8 391.43,240.14 Z" fill="#a3d977" opacity="0.1"/>
  <path d="M391.43,240.14 C391.27,247.48 383.38,257.36 377.03,261.33 C370.68,265.29 360.09,265.33 353.35,263.93 C346.6,262.52 339.35,259.04 336.55,252.88 C333.74,246.72 333.76,234.07 336.53,226.98 C339.3,219.88 346.26,211.93 353.17,210.32 C360.08,208.7 371.61,212.31 377.99,217.29 C384.36,222.26 391.59,232.8 391.43,240.14 Z" fill="none" stroke="#56c26a" stroke-width="1" opacity="0.3"/>
  <circle cx="359.49" cy="240.14" r="7.92" fill="#2f9e6b" opacity="0.4"/>
  <path d="M231.77,254.9 C231.04,260.79 228.43,269.12 224.96,273.26 C221.49,277.4 216.19,279.38 210.95,279.75 C205.7,280.13 198.24,278.14 193.49,275.52 C188.73,272.9 184.4,269.17 182.42,264.03 C180.44,258.88 179.85,249.63 181.61,244.66 C183.36,239.7 188.09,236.88 192.96,234.24 C197.83,231.59 204.76,228.17 210.83,228.79 C216.9,229.4 225.9,233.57 229.39,237.93 C232.88,242.28 232.51,249.01 231.77,254.9 Z" fill="#a3d977" opacity="0.1"/>
  <path d="M231.77,254.9 C231.04,260.79 228.43,269.12 224.96,273.26 C221.49,277.4 216.19,279.38 210.95,279.75 C205.7,280.13 198.24,278.14 193.49,275.52 C188.73,272.9 184.4,269.17 182.42,264.03 C180.44,258.88 179.85,249.63 181.61,244.66 C183.36,239.7 188.09,236.88 192.96,234.24 C197.83,231.59 204.76,228.17 210.83,228.79 C216.9,229.4 225.9,233.57 229.39,237.93 C232.88,242.28 232.51,249.01 231.77,254.9 Z" fill="none" stroke="#56c26a" stroke-width="1" opacity="0.3"/>
  <circle cx="206.71" cy="254.9" r="7.53" fill="#2f9e6b" opacity="0.4"/>
</svg>
