<svg xmlns="http://www.w3.org/2000/svg" viewBox="0 0 400 300" width="400" height="300" role="img" aria-label="biology decorative background">
  <defs>
    <radialGradient id="grad-biology-medium-09" cx="50%" cy="35%" r="80%">
      <stop offset="0%" stop-color="#56c26a" stop-opacity="0.10"/>
      <stop offset="100%" stop-color="#071508" stop-opacity="0"/>
    </radialGradient>
  </defs>
  <rect width="400" height="300" fill="#071508"/>
  <rect width="400" height="300" fill="url(#grad-biology-medium-09)"/>
  <path d="M311.46,200.02 C311.4,203.76 306.45,208.34 303.55,211.41 C300.66,214.48 298,217.97 294.1,218.46 C290.19,218.94 283.58,216.47 280.14,214.34 C276.7,212.21 274.99,209 273.46,205.66 C271.94,202.31 269.58,197.62 270.99,194.27 C272.39,190.91 278.11,187.83 281.88,185.54 C285.65,183.24 289.94,179.92 293.61,180.5 C297.28,181.08 300.9,185.74 303.88,188.99 C306.85,192.24 311.51,196.28 311.46,200.02 Z" fill="#a3d977" opacity="0.1"/>
  <path d="M311.46,200.02 C311.4,203.76 306.45,208.34 303.55,211.41 C300.66,214.48 298,217.97 294.1,218.46 C290.19,218.94 283.58,216.47 280.14,214.34 C276.7,212.21 274.99,209 273.46,205.66 C271.94,202.31 269.58,197.62 270.99,194.27 C272.39,190.91 278.11,187.83 281.88,185.54 C285.65,183.24 289.94,179.92 293.61,180.5 C297.28,181.08 300.9,185.74 303.88,188.99 C306.85,192.24 311.51,196.28 311.46,200.02 Z" fill="none" stroke="#56c26a" stroke-width="1" opacity="0.3"/>
  <circle cx="290.78" cy="200.02" r="5.36" fill="#2f9e6b" opacity="0.4"/>
  <path d="M154.42,73.65 C154.91,81.38 149.68,94.91 143.16,98.29 C136.65,101.68 121.33,98.08 115.33,93.97 C109.33,89.87 107.25,81.08 107.16,73.65 C107.06,66.23 109.26,53.06 114.78,49.44 C120.29,45.82 133.62,47.89 140.22,51.93 C146.83,55.96 153.93,65.93 154.42,73.65 Z" fill="#a3d977" opacity="0.1"/>
  <path d="M154.42,73.65 C154.91,81.38 149.68,94.91 143.16,98.29 C136.65,101.68 121.33,98.08 115.33,93.97 C109.33,89.87 107.25,81.08 107.16,73.65 C107.06,66.23 109.26,53.06 114.78,49.44 C120.29,45.82 133.62,47.89 140.22,51.93 C146.83,55.96 153.93,65.93 154.42,73.65 Z" fill="none" stroke="#56c26a" stroke-width="1" opacity="0.3"/>
  <circle cx="129.04" cy="73.65" r="7.09" fill="#2f9e6b" opacity="0.4"/>
  <path d="M274.55,64.66 C274,71.44 268.19,80.1 262.93,84.48 C257.66,88.86 250.29,90.33 242.96,90.93 C235.63,91.53 223.16,92.44 218.93,88.06 C214.7,83.68 217.2,71.57 217.58,64.66 C217.96,57.75 216.98,51.94 221.21,46.6 C225.44,41.26 235.45,33.1 242.96,32.62 C250.47,32.15 260.99,38.42 266.26,43.76 C271.52,49.09 275.11,57.87 274.55,64.66 Z" fill="#a3d977" opacity="0.1"/>
  <path d="M274.55,64.66 C274,71.44 268.19,80.1 262.93,84.48 C257.66,88.86 250.29,90.33 242.96,90.93 C235.63,91.53 223.16,92.44 218.93,88.06 C214.7,83.68 217.2,71.57 217.58,64.66 C217.96,57.75 216.98,51.94 221.21,46.6 C225.44,41.26 235.45,33.1 242.96,32.62 C250.47,32.15 260.99,38.42 266.26,43.76 C271.52,49.09 275.11,57.87 274.55,64.66 Z" fill="none" stroke="#56c26a" stroke-width="1" opacity="0.3"/>
  <circle cx="242.96" cy="64.66" r="8.35" fill="#2f9e6b" opacity="0.4"/>
  <path d="M192.9,143.65 C192.89,148.91 188.78,155.86 184.54,159.59 C180.29,163.32 172.72,166.96 167.43,166.03 C162.13,165.09 155.08,159.37 152.78,153.96 C150.48,148.55 151.26,138.92 153.62,133.56 C155.99,128.2 161.81,122.72 166.97,121.8 C172.13,120.89 180.24,124.41 184.56,128.05 C188.88,131.69 192.9,138.39 192.9,143.65 Z" fill="#a3d977" opacity="0.1"/>
  <path d="M192.9,143.65 C192.89,148.91 188.78,155.86 184.54,159.59 C180.29,163.32 172.72,166.96 167.43,166.03 C162.13,165.09 155.08,159.37 152.78,153.96 C150.48,148.55 151.26,138.92 153.62,133.56 C155.99,128.2 161.81,122.72 166.97,121.8 C172.13,120.89 180.24,124.41 184.56,128.05 C188.88,131.69 192.9,138.39 192.9,143.65 Z" fill="none" stroke="#56c26a" stroke-width="1" opacity="0.3"/>
  <circle cx="171.92" cy="143.65" r="5.92" fill="#2f9e6b" opacity="0.4"/>
  <path d="M88.18,169.98 C88.11,175.19 83.83,182.51 79.71,185.75 C75.58,188.99 68.31,190.72 63.44,189.44 C58.58,188.15 53.33,182.64 50.53,178.03 C47.73,173.42 44.67,166.33 46.64,161.77 C48.6,157.2 56.74,151.87 62.32,150.65 C67.91,149.44 75.83,151.28 80.14,154.5 C84.45,157.73 88.25,164.78 88.18,169.98 Z" fill="#a3d977" opacity="0.1"/>
  <path d="M88.18,169.98 C88.11,175.19 83.83,182.51 79.71,185.75 C75.58,188.99 68.31,190.72 63.44,189.44 C58.58,188.15 53.33,182.64 50.53,178.03 C47.73,173.42 44.67,166.33 46.64,161.77 C48.6,157.2 56.74,151.87 62.32,150.65 C67.91,149.44 75.83,151.28 80.14,154.5 C84.45,157.73 88.25,164.78 88.18,169.98 Z" fill="none" stroke="#56c26a" stroke-width="1" opacity="0.3"/>
  <circle cx="67.5" cy="169.98" r="5.99" fill="#2f9e6b" opacity="0.4"/>
  <path d="M130.5,145 C130.99,148.56 128.92,152.56 126.3,155.29 C123.68,158.02 118.69,160.37 114.78,161.37 C110.88,162.38 105.83,163.14 102.86,161.3 C99.89,159.45 98.44,153.88 96.96,150.32 C95.49,146.75 92.97,143 94.03,139.91 C95.09,136.82 99.78,133.86 103.33,131.77 C106.89,129.68 112.03,127.01 115.36,127.36 C118.69,127.71 120.8,130.94 123.32,133.88 C125.84,136.82 130,141.43 130.5,145 Z" fill="#a3d977" opacity="0.1"/>
  <path d="M130.5,145 C130.99,148.56 128.92,152.56 126.3,155.29 C123.68,158.02 118.69,160.37 114.78,161.37 C110.88,162.38 105.83,163.14 102.86,161.3 C99.89,159.45 98.44,153.88 96.96,150.32 C95.49,146.75 92.97,143 94.03,139.91 C95.09,136.82 99.78,133.86 103.33,131.77 C106.89,129.68 112.03,127.01 115.36,127.36 C118.69,127.71 120.8,130.94 123.32,133.88 C125.84,136.82 130,141.43 130.5,145 Z" fill="none" stroke="#56c26a" stroke-width="1" opacity="0.3"/>
  <circle cx="111.99" cy="145" r="4.75" fill="#2f9e6b" opacity="0.4"/>
  <path d="M263.39,119.43 C263.85,123.58 261,129.59 258.06,132.71 C255.12,135.82 250.06,137.28 245.74,138.12 C241.41,138.97 235.74,139.8 232.11,137.79 C228.47,135.78 225.13,130.31 223.93,126.04 C222.73,121.78 223.2,115.61 224.9,112.2 C226.61,108.79 230.71,107.89 234.17,105.58 C237.63,103.28 242.13,98.01 245.65,98.37 C249.17,98.74 252.34,104.25 255.3,107.76 C258.25,111.27 262.93,115.27 263.39,119.43 Z" fill="#a3d977" opacity="0.1"/>
  <path d="M263.39,119.43 C263.85,123.58 261,129.59 258.06,132.71 C255.12,135.82 250.06,137.28 245.74,138.12 C241.41,138.97 235.74,139.8 232.11,137.79 C228.47,135.78 225.13,130.31 223.93,126.04 C222.73,121.78 223.2,115.61 224.9,112.2 C226.61,108.79 230.71,107.89 234.17,105.58 C237.63,103.28 242.13,98.01 245.65,98.37 C249.17,98.74 252.34,104.25 255.3,107.76 C258.25,111.27 262.93,115.27 263.39,119.43 Z" fill="none" stroke="#56c26a" stroke-width="1" opacity="0.3"/>
  <circle cx="242.87" cy="119.43" r="5.26" fill="#2f9e6b" opacity="0.4"/>
  <path d="M289.73,260.7 C289.25,266.74 282.34,276.81 277.78,280.79 C273.22,284.77 267.74,284.44 262.37,284.59 C257,284.74 250.82,284.29 245.58,281.71 C240.34,279.12 233.69,274 230.93,269.07 C228.16,264.15 227.07,257.39 228.97,252.17 C230.88,246.94 236.66,241.31 242.33,237.71 C248,234.11 256.6,229.44 262.99,230.57 C269.39,231.7 276.24,239.49 280.69,244.51 C285.15,249.54 290.22,254.65 289.73,260.7 Z" fill="#a3d977" opacity="0.1"/>
  <path d="M289.73,260.7 C289.25,266.74 282.34,276.81 277.78,280.79 C273.22,284.77 267.74,284.44 262.37,284.59 C257,284.74 250.82,284.29 245.58,281.71 C240.34,279.12 233.69,274 230.93,269.07 C228.16,264.15 227.07,257.39 228.97,252.17 C230.88,246.94 236.66,241.31 242.33,237.71 C248,234.11 256.6,229.44 262.99,230.57 C269.39,231.7 276.24,239.49 280.69,244.51 C285.15,249.54 290.22,254.65 289.73,260.7 Z" fill="none" stroke="#56c26a" stroke-width="1" opacity="0.3"/>
  <circle cx="257.91" cy="260.7" r="7.91" fill="#2f9e6b" opacity="0.4"/>
  <path d="M163.01,81.66 C163.06,84.09 162.09,87.25 160.58,89.05 C159.08,90.85 156.44,91.7 153.99,92.45 C151.53,93.2 148.42,94.66 145.85,93.53 C143.29,92.4 139.4,88.43 138.59,85.66 C137.79,82.9 139.95,79.61 141.03,76.94 C142.11,74.27 142.98,71.12 145.08,69.65 C147.19,68.17 151.14,67.27 153.67,68.08 C156.2,68.89 158.69,72.24 160.25,74.5 C161.8,76.77 162.95,79.24 163.01,81.66 Z" fill="#a3d977" opacity="0.1"/>
  <path d="M163.01,81.66 C163.06,84.09 162.09,87.25 160.58,89.05 C159.08,90.85 156.44,91.7 153.99,92.45 C151.53,93.2 148.42,94.66 145.85,93.53 C143.29,92.4 139.4,88.43 138.59,85.66 C137.79,82.9 139.95,79.61 141.03,76.94 C142.11,74.27 142.98,71.12 145.08,69.65 C147.19,68.17 151.14,67.27 153.67,68.08 C156.2,68.89 158.69,72.24 160.25,74.5 C161.8,76.77 162.95,79.24 163.01,81.66 Z" fill="none" stroke="#56c26a" stroke-width="1" opacity="0.3"/>
  <circle cx="151.6" cy="81.66" r="3.41" fill="#2f9e6b" opacity="0.4"/>
  <path d="M174.59,40.47 C174.64,43.53 172.21,46.92 169.9,49.25 C167.59,51.58 163.57,54.17 160.7,54.46 C157.84,54.76 154.66,53.35 152.72,51.01 C150.77,48.68 149.4,43.97 149.06,40.47 C148.71,36.97 148.7,32.06 150.64,30.02 C152.58,27.97 157.54,28.06 160.7,28.2 C163.86,28.35 167.27,28.83 169.59,30.87 C171.9,32.92 174.54,37.41 174.59,40.47 Z" fill="#a3d977" opacity="0.1"/>
  <path d="M174.59,40.47 C174.64,43.53 172.21,46.92 169.9,49.25 C167.59,51.58 163.57,54.17 160.7,54.46 C157.84,54.76 154.66,53.35 152.72,51.01 C150.77,48.68 149.4,43.97 149.06,40.47 C148.71,36.97 148.7,32.06 150.64,30.02 C152.58,27.97 157.54,28.06 160.7,28.2 C163.86,28.35 167.27,28.83 169.59,30.87 C171.9,32.92 174.54,37.41 174.59,40.47 Z" fill="none" stroke="#56c26a" stroke-width="1" opacity="0.3"/>
  <circle cx="160.7" cy="40.47" r="3.68" fill="#2f9e6b" opacity="0.4"/>
  <path d="M309.4,185.66 C309.22,192.99 305.7,203.01 300.76,206.87 C295.82,210.74 286.05,210.69 279.76,208.86 C273.47,207.04 265.66,201.62 263.04,195.94 C260.41,190.26 261.24,180.34 264,174.78 C266.76,169.21 273.3,164.53 279.6,162.55 C285.91,160.57 296.85,159.06 301.81,162.91 C306.78,166.76 309.57,178.34 309.4,185.66 Z" fill="#a3d977" opacity="0.1"/>
  <path d="M309.4,185.66 C309.22,192.99 305.7,203.01 300.76,206.87 C295.82,210.74 286.05,210.69 279.76,208.86 C273.47,207.04 265.66,201.62 263.04,195.94 C260.41,190.26 261.24,180.34 264,174.78 C266.76,169.21 273.3,164.53 279.6,162.55 C285.91,160.57 296.85,159.06 301.81,162.91 C306.78,166.76 309.57,178.34 309.4,185.66 Z" fill="none" stroke="#56c26a" stroke-width="1" opacity="0.3"/>
  <circle cx="286.07" cy="185.66" r="7.3" fill="#2f9e6b" opacity="0.4"/>
  <path d="M67.84,101.9 C68,105.44 65.14,111.15 62.61,113.24 C60.08,115.32 55.88,114.64 52.67,114.43 C49.47,114.22 45.99,114.07 43.38,111.98 C40.77,109.89 37.02,105.4 37.02,101.9 C37.02,98.4 40.77,92.99 43.37,90.98 C45.98,88.97 49.63,89.68 52.67,89.85 C55.71,90.01 59.08,89.96 61.61,91.97 C64.14,93.98 67.67,98.35 67.84,101.9 Z" fill="#a3d977" opacity="0.1"/>
  <path d="M67.84,101.9 C68,105.44 65.14,111.15 62.61,113.24 C60.08,115.32 55.88,114.64 52.67,114.43 C49.47,114.22 45.99,114.07 43.38,111.98 C40.77,109.89 37.02,105.4 37.02,101.9 C37.02,98.4 40.77,92.99 43.37,90.98 C45.98,88.97 49.63,89.68 52.67,89.85 C55.71,90.01 59.08,89.96 61.61,91.97 C64.14,93.98 67.67,98.35 67.84,101.9 Z" fill="none" stroke="#56c26a" stroke-width="1" opacity="0.3"/>
  <circle cx="52.67" cy="101.9" r="3.94" fill="#2f9e6b" opacity="0.4"/>
  <line x1="150.05" y1="300" x2="149.22" y2="234.01" stroke="#56c26a" stroke-width="2.5" opacity="0.45"/>
  <line x1="149.22" y1="234.01" x2="125.27" y2="192.96" stroke="#56c26a" stroke-width="2" opacity="0.39"/>
  <line x1="125.27" y1="192.96" x2="97.07" y2="173.58" stroke="#56c26a" stroke-width="1.5" opacity="0.33"/>
  <line x1="97.07" y1="173.58" x2="73.04" y2="168.14" stroke="#56c26a" stroke-width="1" opacity="0.27"/>
  <circle cx="73.04" cy="168.14" r="1.83" fill="#2f9e6b" opacity="0.5"/>
  <line x1="73.04" y1="168.14" x2="55.86" y2="172.52" stroke="#56c26a" stroke-width="0.5" opacity="0.21"/>
  <circle cx="55.86" cy="172.52" r="3.31" fill="#2f9e6b" opacity="0.5"/>
  <line x1="73.04" y1="168.14" x2="60.02" y2="156.11" stroke="#56c26a" stroke-width="0.5" opacity="0.21"/>
  <circle cx="60.02" cy="156.11" r="2.76" fill="#2f9e6b" opacity="0.5"/>
  <line x1="97.07" y1="173.58" x2="83.92" y2="152.76" stroke="#56c26a" stroke-width="1" opacity="0.27"/>
  <line x1="83.92" y1="152.76" x2="67.66" y2="145.66" stroke="#56c26a" stroke-width="0.5" opacity="0.21"/>
  <line x1="83.92" y1="152.76" x2="84.02" y2="135.02" stroke="#56c26a" stroke-width="0.5" opacity="0.21"/>
  <circle cx="84.02" cy="135.02" r="2.96" fill="#2f9e6b" opacity="0.5"/>
  <line x1="125.27" y1="192.96" x2="130.4" y2="159.13" stroke="#56c26a" stroke-width="1.5" opacity="0.33"/>
  <line x1="130.4" y1="159.13" x2="123.3" y2="135.54" stroke="#56c26a" stroke-width="1" opacity="0.27"/>
  <circle cx="123.3" cy="135.54" r="3.16" fill="#2f9e6b" opacity="0.5"/>
  <line x1="123.3" y1="135.54" x2="108.86" y2="125.24" stroke="#56c26a" stroke-width="0.5" opacity="0.21"/>
  <line x1="123.3" y1="135.54" x2="126.6" y2="118.12" stroke="#56c26a" stroke-width="0.5" opacity="0.21"/>
  <circle cx="126.6" cy="118.12" r="2.04" fill="#2f9e6b" opacity="0.5"/>
  <line x1="130.4" y1="159.13" x2="147.65" y2="141.54" stroke="#56c26a" stroke-width="1" opacity="0.27"/>
  <circle cx="147.65" cy="141.54" r="2.49" fill="#2f9e6b" opacity="0.5"/>
  <line x1="147.65" y1="141.54" x2="155.26" y2="125.52" stroke="#56c26a" stroke-width="0.5" opacity="0.21"/>
  <circle cx="155.26" cy="125.52" r="1.77" fill="#2f9e6b" opacity="0.5"/>
  <line x1="147.65" y1="141.54" x2="164.82" y2="137.1" stroke="#56c26a" stroke-width="0.5" opacity="0.21"/>
  <circle cx="164.82" cy="137.1" r="3.02" fill="#2f9e6b" opacity="0.5"/>
  <line x1="149.22" y1="234.01" x2="175.76" y2="194.59" stroke="#56c26a" stroke-width="2" opacity="0.39"/>
  <line x1="175.76" y1="194.59" x2="183.91" y2="161.36" stroke="#56c26a" stroke-width="1.5" opacity="0.33"/>
  <line x1="183.91" y1="161.36" x2="180.38" y2="136.98" stroke="#56c26a" stroke-width="1" opacity="0.27"/>
  <circle cx="180.38" cy="136.98" r="1.52" fill="#2f9e6b" opacity="0.5"/>
  <line x1="180.38" y1="136.98" x2="167.34" y2="124.95" stroke="#56c26a" stroke-width="0.5" opacity="0.21"/>
  <circle cx="167.34" cy="124.95" r="1.83" fill="#2f9e6b" opacity="0.5"/>
  <line x1="180.38" y1="136.98" x2="189.12" y2="121.54" stroke="#56c26a" stroke-width="0.5" opacity="0.21"/>
  <line x1="183.91" y1="161.36" x2="200.01" y2="142.71" stroke="#56c26a" stroke-width="1" opacity="0.27"/>
  <line x1="200.01" y1="142.71" x2="204.77" y2="125.63" stroke="#56c26a" stroke-width="0.5" opacity="0.21"/>
  <circle cx="204.77" cy="125.63" r="3.41" fill="#2f9e6b" opacity="0.5"/>
  <line x1="200.01" y1="142.71" x2="216.62" y2="136.49" stroke="#56c26a" stroke-width="0.5" opacity="0.21"/>
  <circle cx="216.62" cy="136.49" r="2.65" fill="#2f9e6b" opacity="0.5"/>
  <line x1="175.76" y1="194.59" x2="208.23" y2="183.79" stroke="#56c26a" stroke-width="1.5" opacity="0.33"/>
  <line x1="208.23" y1="183.79" x2="224.19" y2="165.03" stroke="#56c26a" stroke-width="1" opacity="0.27"/>
  <circle cx="224.19" cy="165.03" r="3.33" fill="#2f9e6b" opacity="0.5"/>
  <line x1="224.19" y1="165.03" x2="227.32" y2="147.57" stroke="#56c26a" stroke-width="0.5" opacity="0.21"/>
  <line x1="224.19" y1="165.03" x2="241.67" y2="162.06" stroke="#56c26a" stroke-width="0.5" opacity="0.21"/>
  <line x1="208.23" y1="183.79" x2="231.8" y2="190.93" stroke="#56c26a" stroke-width="1" opacity="0.27"/>
  <circle cx="231.8" cy="190.93" r="2.61" fill="#2f9e6b" opacity="0.5"/>
  <line x1="231.8" y1="190.93" x2="248.41" y2="184.71" stroke="#56c26a" stroke-width="0.5" opacity="0.21"/>
  <line x1="231.8" y1="190.93" x2="241.82" y2="205.57" stroke="#56c26a" stroke-width="0.5" opacity="0.21"/>
  <circle cx="241.82" cy="205.57" r="1.83" fill="#2f9e6b" opacity="0.5"/>
  <line x1="251.75" y1="300" x2="256.47" y2="234.17" stroke="#56c26a" stroke-width="2.5" opacity="0.45"/>
  <line x1="256.47" y1="234.17" x2="240.63" y2="189.37" stroke="#56c26a" stroke-width="2" opacity="0.39"/>
  <line x1="240.63" y1="189.37" x2="212.4" y2="170.03" stroke="#56c26a" stroke-width="1.5" opacity="0.33"/>
  <line x1="212.4" y1="170.03" x2="187.89" y2="167.54" stroke="#56c26a" stroke-width="1" opacity="0.27"/>
  <circle cx="187.89" cy="167.54" r="1.6" fill="#2f9e6b" opacity="0.5"/>
  <line x1="187.89" y1="167.54" x2="172.28" y2="175.95" stroke="#56c26a" stroke-width="0.5" opacity="0.21"/>
  <circle cx="172.28" cy="175.95" r="2.91" fill="#2f9e6b" opacity="0.5"/>
  <line x1="187.89" y1="167.54" x2="172.95" y2="157.98" stroke="#56c26a" stroke-width="0.5" opacity="0.21"/>
  <circle cx="172.95" cy="157.98" r="3.11" fill="#2f9e6b" opacity="0.5"/>
  <line x1="212.4" y1="170.03" x2="200" y2="148.75" stroke="#56c26a" stroke-width="1" opacity="0.27"/>
  <circle cx="200" cy="148.75" r="2.68" fill="#2f9e6b" opacity="0.5"/>
  <line x1="200" y1="148.75" x2="184.44" y2="140.23" stroke="#56c26a" stroke-width="0.5" opacity="0.21"/>
  <line x1="200" y1="148.75" x2="196.5" y2="131.36" stroke="#56c26a" stroke-width="0.5" opacity="0.21"/>
  <circle cx="196.5" cy="131.36" r="1.76" fill="#2f9e6b" opacity="0.5"/>
  <line x1="240.63" y1="189.37" x2="239.95" y2="155.16" stroke="#56c26a" stroke-width="1.5" opacity="0.33"/>
  <line x1="239.95" y1="155.16" x2="225.83" y2="134.97" stroke="#56c26a" stroke-width="1" opacity="0.27"/>
  <circle cx="225.83" cy="134.97" r="2.52" fill="#2f9e6b" opacity="0.5"/>
  <line x1="225.83" y1="134.97" x2="208.7" y2="130.4" stroke="#56c26a" stroke-width="0.5" opacity="0.21"/>
  <line x1="225.83" y1="134.97" x2="225.15" y2="117.25" stroke="#56c26a" stroke-width="0.5" opacity="0.21"/>
  <circle cx="225.15" cy="117.25" r="2.92" fill="#2f9e6b" opacity="0.5"/>
  <line x1="239.95" y1="155.16" x2="254.96" y2="135.63" stroke="#56c26a" stroke-width="1" opacity="0.27"/>
  <line x1="254.96" y1="135.63" x2="256.6" y2="117.97" stroke="#56c26a" stroke-width="0.5" opacity="0.21"/>
  <circle cx="256.6" cy="117.97" r="3.28" fill="#2f9e6b" opacity="0.5"/>
  <line x1="254.96" y1="135.63" x2="270.67" y2="127.4" stroke="#56c26a" stroke-width="0.5" opacity="0.21"/>
  <circle cx="270.67" cy="127.4" r="1.85" fill="#2f9e6b" opacity="0.5"/>
  <line x1="256.47" y1="234.17" x2="282.19" y2="194.21" stroke="#56c26a" stroke-width="2" opacity="0.39"/>
  <line x1="282.19" y1="194.21" x2="282.8" y2="160" stroke="#56c26a" stroke-width="1.5" opacity="0.33"/>
  <line x1="282.8" y1="160" x2="271.89" y2="137.91" stroke="#56c26a" stroke-width="1" opacity="0.27"/>
  <line x1="271.89" y1="137.91" x2="257.66" y2="127.33" stroke="#56c26a" stroke-width="0.5" opacity="0.21"/>
  <circle cx="257.66" cy="127.33" r="1.62" fill="#2f9e6b" opacity="0.5"/>
  <line x1="271.89" y1="137.91" x2="276.09" y2="120.68" stroke="#56c26a" stroke-width="0.5" opacity="0.21"/>
  <circle cx="276.09" cy="120.68" r="2.59" fill="#2f9e6b" opacity="0.5"/>
  <line x1="282.8" y1="160" x2="293.24" y2="137.68" stroke="#56c26a" stroke-width="1" opacity="0.27"/>
  <circle cx="293.24" cy="137.68" r="3.03" fill="#2f9e6b" opacity="0.5"/>
  <line x1="293.24" y1="137.68" x2="292.78" y2="119.95" stroke="#56c26a" stroke-width="0.5" opacity="0.21"/>
  <line x1="293.24" y1="137.68" x2="307.85" y2="127.63" stroke="#56c26a" stroke-width="0.5" opacity="0.21"/>
  <circle cx="307.85" cy="127.63" r="2.78" fill="#2f9e6b" opacity="0.5"/>
  <line x1="282.19" y1="194.21" x2="313.71" y2="180.91" stroke="#56c26a" stroke-width="1.5" opacity="0.33"/>
  <line x1="313.71" y1="180.91" x2="330.56" y2="162.94" stroke="#56c26a" stroke-width="1" opacity="0.27"/>
  <line x1="330.56" y1="162.94" x2="336.65" y2="146.28" stroke="#56c26a" stroke-width="0.5" opacity="0.21"/>
  <circle cx="336.65" cy="146.28" r="2.88" fill="#2f9e6b" opacity="0.5"/>
  <line x1="330.56" y1="162.94" x2="347.6" y2="158.03" stroke="#56c26a" stroke-width="0.5" opacity="0.21"/>
  <circle cx="347.6" cy="158.03" r="3.09" fill="#2f9e6b" opacity="0.5"/>
  <line x1="313.71" y1="180.91" x2="338.27" y2="182.87" stroke="#56c26a" stroke-width="1" opacity="0.27"/>
  <line x1="338.27" y1="182.87" x2="355.33" y2="178.04" stroke="#56c26a" stroke-width="0.5" opacity="0.21"/>
  <circle cx="355.33" cy="178.04" r="3.06" fill="#2f9e6b" opacity="0.5"/>
  <line x1="338.27" y1="182.87" x2="352.48" y2="193.49" stroke="#56c26a" stroke-width="0.5" opacity="0.21"/>
  <circle cx="352.48" cy="193.49" r="3.2" fill="#2f9e6b" opacity="0.5"/>
</svg>
