<svg xmlns="http://www.w3.org/2000/svg" viewBox="0 0 400 300" width="400" height="300" role="img" aria-label="biology decorative background">
  <defs>
    <radialGradient id="grad-biology-medium-03" cx="50%" cy="35%" r="80%">
      <stop offset="0%" stop-color="#56c26a" stop-opacity="0.10"/>
      <stop offset="100%" stop-color="#071508" stop-opacity="0"/>
    </radialGradient>
  </defs>
  <rect width="400" height="300" fill="#071508"/>
  <rect width="400" height="300" fill="url(#grad-biology-medium-03)"/>
  <path d="M284.57,41.77 C283.83,47.96 276.07,55.19 271.79,59.43 C267.51,63.68 264.17,65.88 258.89,67.25 C253.61,68.63 245,70.5 240.11,67.7 C235.22,64.89 232.02,56.11 229.54,50.43 C227.06,44.76 223.23,39.49 225.24,33.66 C227.26,27.83 235.98,18.96 241.62,15.45 C247.26,11.94 253.34,11.45 259.1,12.59 C264.87,13.74 271.96,17.46 276.21,22.32 C280.45,27.19 285.31,35.59 284.57,41.77 Z" fill="#a3d977" opacity="0.1"/>
  <path d="M284.57,41.77 C283.83,47.96 276.07,55.19 271.79,59.43 C267.51,63.68 264.17,65.88 258.89,67.25 C253.61,68.63 245,70.5 240.11,67.7 C235.22,64.89 232.02,56.11 229.54,50.43 C227.06,44.76 223.23,39.49 225.24,33.66 C227.26,27.83 235.98,18.96 241.62,15.45 C247.26,11.94 253.34,11.45 259.1,12.59 C264.87,13.74 271.96,17.46 276.21,22.32 C280.45,27.19 285.31,35.59 284.57,41.77 Z" fill="none" stroke="#56c26a" stroke-width="1" opacity="0.3"/>
  <circle cx="254.11" cy="41.77" r="7.48" fill="#2f9e6b" opacity="0.4"/>
  <path d="M78.11,50.54 C78.37,56.07 80.02,63.59 77.06,67.25 C74.1,70.92 66.19,71.71 60.36,72.52 C54.54,73.34 47.02,74.36 42.09,72.14 C37.16,69.91 32.09,64.12 30.77,59.19 C29.45,54.25 32.31,47.53 34.14,42.52 C35.98,37.51 37.55,31.68 41.78,29.13 C46.02,26.58 53.95,26.4 59.57,27.23 C65.19,28.05 72.41,30.19 75.5,34.08 C78.59,37.96 77.85,45.01 78.11,50.54 Z" fill="#a3d977" opacity="0.1"/>
  <path d="M78.11,50.54 C78.37,56.07 80.02,63.59 77.06,67.25 C74.1,70.92 66.19,71.71 60.36,72.52 C54.54,73.34 47.02,74.36 42.09,72.14 C37.16,69.91 32.09,64.12 30.77,59.19 C29.45,54.25 32.31,47.53 34.14,42.52 C35.98,37.51 37.55,31.68 41.78,29.13 C46.02,26.58 53.95,26.4 59.57,27.23 C65.19,28.05 72.41,30.19 75.5,34.08 C78.59,37.96 77.85,45.01 78.11,50.54 Z" fill="none" stroke="#56c26a" stroke-width="1" opacity="0.3"/>
  <circle cx="55.43" cy="50.54" r="7.15" fill="#2f9e6b" opacity="0.4"/>
  <path d="M222.06,154.19 C221.91,157.74 221.02,162.24 218.82,164.33 C216.62,166.43 212.16,167.6 208.85,166.76 C205.53,165.93 200.64,162.35 198.94,159.34 C197.24,156.33 196.97,151.45 198.64,148.71 C200.31,145.98 205.45,143.88 208.96,142.93 C212.47,141.98 217.54,141.15 219.72,143.03 C221.9,144.9 222.21,150.64 222.06,154.19 Z" fill="#a3d977" opacity="0.1"/>
  <path d="M222.06,154.19 C221.91,157.74 221.02,162.24 218.82,164.33 C216.62,166.43 212.16,167.6 208.85,166.76 C205.53,165.93 200.64,162.35 198.94,159.34 C197.24,156.33 196.97,151.45 198.64,148.71 C200.31,145.98 205.45,143.88 208.96,142.93 C212.47,141.98 217.54,141.15 219.72,143.03 C221.9,144.9 222.21,150.64 222.06,154.19 Z" fill="none" stroke="#56c26a" stroke-width="1" opacity="0.3"/>
  <circle cx="211.49" cy="154.19" r="3.48" fill="#2f9e6b" opacity="0.4"/>
  <path d="M241.16,138.76 C240.88,141.27 238.34,145.02 236.43,146.6 C234.53,148.19 232.01,148.34 229.74,148.29 C227.48,148.24 224.41,147.89 222.84,146.3 C221.26,144.72 220.33,141.27 220.27,138.76 C220.21,136.25 220.89,132.87 222.46,131.25 C224.04,129.62 227.13,128.96 229.74,129.02 C232.35,129.07 236.21,129.94 238.11,131.56 C240.01,133.19 241.44,136.25 241.16,138.76 Z" fill="#a3d977" opacity="0.1"/>
  <path d="M241.16,138.76 C240.88,141.27 238.34,145.02 236.43,146.6 C234.53,148.19 232.01,148.34 229.74,148.29 C227.48,148.24 224.41,147.89 222.84,146.3 C221.26,144.72 220.33,141.27 220.27,138.76 C220.21,136.25 220.89,132.87 222.46,131.25 C224.04,129.62 227.13,128.96 229.74,129.02 C232.35,129.07 236.21,129.94 238.11,131.56 C240.01,133.19 241.44,136.25 241.16,138.76 Z" fill="none" stroke="#56c26a" stroke-width="1" opacity="0.3"/>
  <circle cx="229.74" cy="138.76" r="3.07" fill="#2f9e6b" opacity="0.4"/>
  <path d="M162.96,147.23 C162.79,153.93 154.85,164.02 148.82,168.29 C142.8,172.57 134.06,174.45 126.78,172.88 C119.5,171.31 108.62,165.17 105.15,158.88 C101.68,152.58 102.31,141.14 105.95,135.11 C109.59,129.07 119.68,123.83 126.99,122.66 C134.3,121.5 143.84,124.01 149.83,128.11 C155.83,132.2 163.13,140.53 162.96,147.23 Z" fill="#a3d977" opacity="0.1"/>
  <path d="M162.96,147.23 C162.79,153.93 154.85,164.02 148.82,168.29 C142.8,172.57 134.06,174.45 126.78,172.88 C119.5,171.31 108.62,165.17 105.15,158.88 C101.68,152.58 102.31,141.14 105.95,135.11 C109.59,129.07 119.68,123.83 126.99,122.66 C134.3,121.5 143.84,124.01 149.83,128.11 C155.83,132.2 163.13,140.53 162.96,147.23 Z" fill="none" stroke="#56c26a" stroke-width="1" opacity="0.3"/>
  <circle cx="132.85" cy="147.23" r="8" fill="#2f9e6b" opacity="0.4"/>
  <path d="M259.52,160.99 C259.67,167.14 255.75,173.62 250.36,177.09 C244.97,180.56 233.02,184.49 227.19,181.8 C221.36,179.12 215.17,167.1 215.38,160.99 C215.6,154.87 222.79,148.57 228.46,145.1 C234.14,141.62 244.23,137.5 249.41,140.15 C254.59,142.8 259.36,154.83 259.52,160.99 Z" fill="#a3d977" opacity="0.1"/>
  <path d="M259.52,160.99 C259.67,167.14 255.75,173.62 250.36,177.09 C244.97,180.56 233.02,184.49 227.19,181.8 C221.36,179.12 215.17,167.1 215.38,160.99 C215.6,154.87 222.79,148.57 228.46,145.1 C234.14,141.62 244.23,137.5 249.41,140.15 C254.59,142.8 259.36,154.83 259.52,160.99 Z" fill="none" stroke="#56c26a" stroke-width="1" opacity="0.3"/>
  <circle cx="238.75" cy="160.99" r="5.87" fill="#2f9e6b" opacity="0.4"/>
  <path d="M206.43,56.71 C206.27,59.04 205,62.42 203.57,64 C202.14,65.58 199.98,65.85 197.85,66.21 C195.71,66.58 192.61,67.07 190.78,66.19 C188.94,65.32 187.82,63.19 186.86,60.96 C185.9,58.72 184.41,55 185.01,52.78 C185.61,50.57 188.32,49.12 190.47,47.68 C192.61,46.24 195.54,43.75 197.88,44.14 C200.23,44.53 203.1,47.94 204.53,50.03 C205.95,52.13 206.59,54.38 206.43,56.71 Z" fill="#a3d977" opacity="0.1"/>
  <path d="M206.43,56.71 C206.27,59.04 205,62.42 203.57,64 C202.14,65.58 199.98,65.85 197.85,66.21 C195.71,66.58 192.61,67.07 190.78,66.19 C188.94,65.32 187.82,63.19 186.86,60.96 C185.9,58.72 184.41,55 185.01,52.78 C185.61,50.57 188.32,49.12 190.47,47.68 C192.61,46.24 195.54,43.75 197.88,44.14 C200.23,44.53 203.1,47.94 204.53,50.03 C205.95,52.13 206.59,54.38 206.43,56.71 Z" fill="none" stroke="#56c26a" stroke-width="1" opacity="0.3"/>
  <circle cx="195.93" cy="56.71" r="3.12" fill="#2f9e6b" opacity="0.4"/>
  <path d="M350.45,80.47 C350,84.52 348.13,90.27 345.53,93.28 C342.93,96.29 338.96,97.82 334.84,98.54 C330.72,99.26 324.53,99.62 320.83,97.62 C317.12,95.62 313.86,90.6 312.61,86.54 C311.36,82.48 311.73,76.7 313.31,73.26 C314.89,69.81 318.51,67.84 322.09,65.85 C325.66,63.85 330.41,60.77 334.76,61.29 C339.11,61.82 345.6,65.81 348.22,69.01 C350.83,72.21 350.9,76.42 350.45,80.47 Z" fill="#a3d977" opacity="0.1"/>
  <path d="M350.45,80.47 C350,84.52 348.13,90.27 345.53,93.28 C342.93,96.29 338.96,97.82 334.84,98.54 C330.72,99.26 324.53,99.62 320.83,97.62 C317.12,95.62 313.86,90.6 312.61,86.54 C311.36,82.48 311.73,76.7 313.31,73.26 C314.89,69.81 318.51,67.84 322.09,65.85 C325.66,63.85 330.41,60.77 334.76,61.29 C339.11,61.82 345.6,65.81 348.22,69.01 C350.83,72.21 350.9,76.42 350.45,80.47 Z" fill="none" stroke="#56c26a" stroke-width="1" opacity="0.3"/>
  <circle cx="331.32" cy="80.47" r="5.52" fill="#2f9e6b" opacity="0.4"/>
  <path d="M294.04,41.65 C293.93,44.39 291.24,47.54 289.32,49.47 C287.39,51.4 284.77,53.38 282.5,53.24 C280.23,53.09 277.6,50.53 275.68,48.6 C273.76,46.67 271.11,43.95 270.99,41.65 C270.87,39.36 273.05,36.82 274.97,34.84 C276.89,32.85 280,30.03 282.5,29.73 C285,29.44 288.05,31.08 289.97,33.07 C291.9,35.06 294.15,38.92 294.04,41.65 Z" fill="#a3d977" opacity="0.1"/>
  <path d="M294.04,41.65 C293.93,44.39 291.24,47.54 289.32,49.47 C287.39,51.4 284.77,53.38 282.5,53.24 C280.23,53.09 277.6,50.53 275.68,48.6 C273.76,46.67 271.11,43.95 270.99,41.65 C270.87,39.36 273.05,36.82 274.97,34.84 C276.89,32.85 280,30.03 282.5,29.73 C285,29.44 288.05,31.08 289.97,33.07 C291.9,35.06 294.15,38.92 294.04,41.65 Z" fill="none" stroke="#56c26a" stroke-width="1" opacity="0.3"/>
  <circle cx="282.5" cy="41.65" r="2.99" fill="#2f9e6b" opacity="0.4"/>
  <path d="M377.73,268.29 C377.68,273.4 375.14,279.8 371.36,282.74 C367.59,285.68 359.81,286.93 355.08,285.92 C350.35,284.92 344.71,281.03 343,276.71 C341.29,272.38 342.75,264.4 344.8,259.98 C346.85,255.56 350.8,251.53 355.28,250.2 C359.76,248.88 367.93,249.02 371.67,252.04 C375.41,255.05 377.78,263.17 377.73,268.29 Z" fill="#a3d977" opacity="0.1"/>
  <path d="M377.73,268.29 C377.68,273.4 375.14,279.8 371.36,282.74 C367.59,285.68 359.81,286.93 355.08,285.92 C350.35,284.92 344.71,281.03 343,276.71 C341.29,272.38 342.75,264.4 344.8,259.98 C346.85,255.56 350.8,251.53 355.28,250.2 C359.76,248.88 367.93,249.02 371.67,252.04 C375.41,255.05 377.78,263.17 377.73,268.29 Z" fill="none" stroke="#56c26a" stroke-width="1" opacity="0.3"/>
  <circle cx="359.6" cy="268.29" r="5.24" fill="#2f9e6b" opacity="0.4"/>
  <path d="M212.73,246.77 C212.7,252.78 206.17,262.95 200.4,266 C194.63,269.05 182.97,268.28 178.09,265.07 C173.21,261.86 171.07,252.62 171.13,246.77 C171.18,240.92 173.54,232.77 178.44,229.97 C183.34,227.16 194.83,227.13 200.55,229.93 C206.26,232.73 212.75,240.75 212.73,246.77 Z" fill="#a3d977" opacity="0.1"/>
  <path d="M212.73,246.77 C212.7,252.78 206.17,262.95 200.4,266 C194.63,269.05 182.97,268.28 178.09,265.07 C173.21,261.86 171.07,252.62 171.13,246.77 C171.18,240.92 173.54,232.77 178.44,229.97 C183.34,227.16 194.83,227.13 200.55,229.93 C206.26,232.73 212.75,240.75 212.73,246.77 Z" fill="none" stroke="#56c26a" stroke-width="1" opacity="0.3"/>
  <circle cx="190.06" cy="246.77" r="5.99" fill="#2f9e6b" opacity="0.4"/>
  <path d="M348.79,58.17 C348.68,61.93 344.34,67.51 341.01,69.14 C337.68,70.77 331.94,69.78 328.84,67.95 C325.73,66.13 322.38,61.76 322.38,58.17 C322.38,54.59 325.63,48.38 328.84,46.45 C332.06,44.52 338.33,44.63 341.65,46.59 C344.98,48.54 348.9,54.41 348.79,58.17 Z" fill="#a3d977" opacity="0.1"/>
  <path d="M348.79,58.17 C348.68,61.93 344.34,67.51 341.01,69.14 C337.68,70.77 331.94,69.78 328.84,67.95 C325.73,66.13 322.38,61.76 322.38,58.17 C322.38,54.59 325.63,48.38 328.84,46.45 C332.06,44.52 338.33,44.63 341.65,46.59 C344.98,48.54 348.9,54.41 348.79,58.17 Z" fill="none" stroke="#56c26a" stroke-width="1" opacity="0.3"/>
  <circle cx="334.65" cy="58.17" r="3.72" fill="#2f9e6b" opacity="0.4"/>
  <path d="M28.35,136.63 C245.82,124.82 124.79,270.1 380.11,120.84" fill="none" stroke="#2f9e6b" stroke-width="1.02" opacity="0.38"/>
  <path d="M91.19,235.13 C367.61,292.67 176.5,161.76 357.2,245.36" fill="none" stroke="#2f9e6b" stroke-width="2.06" opacity="0.31"/>
  <path d="M61.37,136.63 C341,297.27 261.26,42.6 316.82,240.42" fill="none" stroke="#56c26a" stroke-width="1.73" opacity="0.18"/>
  <path d="M77.6,108.22 C314.22,198.99 206.74,117.5 360.11,37.47" fill="none" stroke="#56c26a" stroke-width="1.97" opacity="0.21"/>
  <path d="M27.99,146.68 C164.93,226.13 126.08,50.93 357.83,27.6" fill="none" stroke="#2f9e6b" stroke-width="1.11" opacity="0.33"/>
  <path d="M60.94,283.51 C92.48,49.78 358.54,220.88 374.91,0.62" fill="none" stroke="#2f9e6b" stroke-width="1.86" opacity="0.3"/>
</svg>
