<svg xmlns="http://www.w3.org/2000/svg" viewBox="0 0 400 300" width="400" height="300" role="img" aria-label="biology decorative background">
  <defs>
    <radialGradient id="grad-biology-medium-01" cx="50%" cy="35%" r="80%">
      <stop offset="0%" stop-color="#56c26a" stop-opacity="0.10"/>
      <stop offset="100%" stop-color="#071508" stop-opacity="0"/>
    </radialGradient>
  </defs>
  <rect width="400" height="300" fill="#071508"/>
  <rect width="400" height="300" fill="url(#grad-biology-medium-01)"/>
  <line x1="301.2" y1="300" x2="311.44" y2="234.8" stroke="#56c26a" stroke-width="2.5" opacity="0.45"/>
  <line x1="311.44" y1="234.8" x2="293.92" y2="190.63" stroke="#56c26a" stroke-width="2" opacity="0.39"/>
  <line x1="293.92" y1="190.63" x2="264.71" y2="172.81" stroke="#56c26a" stroke-width="1.5" opacity="0.33"/>
  <line x1="264.71" y1="172.81" x2="240.61" y2="167.72" stroke="#56c26a" stroke-width="1" opacity="0.27"/>
  <circle cx="240.61" cy="167.72" r="1.53" fill="#2f9e6b" opacity="0.5"/>
  <line x1="240.61" y1="167.72" x2="224.43" y2="175" stroke="#56c26a" stroke-width="0.5" opacity="0.21"/>
  <circle cx="224.43" cy="175" r="2.68" fill="#2f9e6b" opacity="0.5"/>
  <line x1="240.61" y1="167.72" x2="228.01" y2="155.23" stroke="#56c26a" stroke-width="0.5" opacity="0.21"/>
  <circle cx="228.01" cy="155.23" r="1.84" fill="#2f9e6b" opacity="0.5"/>
  <line x1="264.71" y1="172.81" x2="256.19" y2="149.7" stroke="#56c26a" stroke-width="1" opacity="0.27"/>
  <line x1="256.19" y1="149.7" x2="244.13" y2="136.69" stroke="#56c26a" stroke-width="0.5" opacity="0.21"/>
  <circle cx="244.13" cy="136.69" r="2.48" fill="#2f9e6b" opacity="0.5"/>
  <line x1="256.19" y1="149.7" x2="257.36" y2="132" stroke="#56c26a" stroke-width="0.5" opacity="0.21"/>
  <line x1="293.92" y1="190.63" x2="299.36" y2="156.85" stroke="#56c26a" stroke-width="1.5" opacity="0.33"/>
  <line x1="299.36" y1="156.85" x2="294.23" y2="132.75" stroke="#56c26a" stroke-width="1" opacity="0.27"/>
  <circle cx="294.23" cy="132.75" r="3.1" fill="#2f9e6b" opacity="0.5"/>
  <line x1="294.23" y1="132.75" x2="281.2" y2="120.71" stroke="#56c26a" stroke-width="0.5" opacity="0.21"/>
  <circle cx="281.2" cy="120.71" r="3.41" fill="#2f9e6b" opacity="0.5"/>
  <line x1="294.23" y1="132.75" x2="295.94" y2="115.1" stroke="#56c26a" stroke-width="0.5" opacity="0.21"/>
  <circle cx="295.94" cy="115.1" r="3.12" fill="#2f9e6b" opacity="0.5"/>
  <line x1="299.36" y1="156.85" x2="317.82" y2="140.53" stroke="#56c26a" stroke-width="1" opacity="0.27"/>
  <circle cx="317.82" cy="140.53" r="1.88" fill="#2f9e6b" opacity="0.5"/>
  <line x1="317.82" y1="140.53" x2="323.41" y2="123.7" stroke="#56c26a" stroke-width="0.5" opacity="0.21"/>
  <line x1="317.82" y1="140.53" x2="334.46" y2="134.4" stroke="#56c26a" stroke-width="0.5" opacity="0.21"/>
  <line x1="311.44" y1="234.8" x2="332.91" y2="192.41" stroke="#56c26a" stroke-width="2" opacity="0.39"/>
  <line x1="332.91" y1="192.41" x2="330" y2="158.32" stroke="#56c26a" stroke-width="1.5" opacity="0.33"/>
  <line x1="330" y1="158.32" x2="318.88" y2="136.34" stroke="#56c26a" stroke-width="1" opacity="0.27"/>
  <circle cx="318.88" cy="136.34" r="2.09" fill="#2f9e6b" opacity="0.5"/>
  <line x1="318.88" y1="136.34" x2="304.34" y2="126.17" stroke="#56c26a" stroke-width="0.5" opacity="0.21"/>
  <line x1="318.88" y1="136.34" x2="321.78" y2="118.84" stroke="#56c26a" stroke-width="0.5" opacity="0.21"/>
  <circle cx="321.78" cy="118.84" r="1.94" fill="#2f9e6b" opacity="0.5"/>
  <line x1="330" y1="158.32" x2="340.53" y2="136.05" stroke="#56c26a" stroke-width="1" opacity="0.27"/>
  <circle cx="340.53" cy="136.05" r="2.04" fill="#2f9e6b" opacity="0.5"/>
  <line x1="340.53" y1="136.05" x2="337.76" y2="118.53" stroke="#56c26a" stroke-width="0.5" opacity="0.21"/>
  <line x1="340.53" y1="136.05" x2="356.39" y2="128.09" stroke="#56c26a" stroke-width="0.5" opacity="0.21"/>
  <line x1="332.91" y1="192.41" x2="357.54" y2="168.65" stroke="#56c26a" stroke-width="1.5" opacity="0.33"/>
  <line x1="357.54" y1="168.65" x2="362.5" y2="144.52" stroke="#56c26a" stroke-width="1" opacity="0.27"/>
  <circle cx="362.5" cy="144.52" r="2.9" fill="#2f9e6b" opacity="0.5"/>
  <line x1="362.5" y1="144.52" x2="356.58" y2="127.8" stroke="#56c26a" stroke-width="0.5" opacity="0.21"/>
  <line x1="362.5" y1="144.52" x2="374.56" y2="131.52" stroke="#56c26a" stroke-width="0.5" opacity="0.21"/>
  <circle cx="374.56" cy="131.52" r="3.29" fill="#2f9e6b" opacity="0.5"/>
  <line x1="357.54" y1="168.65" x2="382.06" y2="166.29" stroke="#56c26a" stroke-width="1" opacity="0.27"/>
  <circle cx="382.06" cy="166.29" r="1.52" fill="#2f9e6b" opacity="0.5"/>
  <line x1="382.06" y1="166.29" x2="397.54" y2="157.64" stroke="#56c26a" stroke-width="0.5" opacity="0.21"/>
  <circle cx="397.54" cy="157.64" r="2.41" fill="#2f9e6b" opacity="0.5"/>
  <line x1="382.06" y1="166.29" x2="398.3" y2="173.41" stroke="#56c26a" stroke-width="0.5" opacity="0.21"/>
  <circle cx="398.3" cy="173.41" r="1.98" fill="#2f9e6b" opacity="0.5"/>
  <line x1="93.36" y1="300" x2="103.8" y2="234.83" stroke="#56c26a" stroke-width="2.5" opacity="0.45"/>
  <line x1="103.8" y1="234.83" x2="96.63" y2="187.86" stroke="#56c26a" stroke-width="2" opacity="0.39"/>
  <line x1="96.63" y1="187.86" x2="76.38" y2="160.28" stroke="#56c26a" stroke-width="1.5" opacity="0.33"/>
  <line x1="76.38" y1="160.28" x2="54.95" y2="148.13" stroke="#56c26a" stroke-width="1" opacity="0.27"/>
  <circle cx="54.95" cy="148.13" r="1.88" fill="#2f9e6b" opacity="0.5"/>
  <line x1="54.95" y1="148.13" x2="37.22" y2="147.58" stroke="#56c26a" stroke-width="0.5" opacity="0.21"/>
  <circle cx="37.22" cy="147.58" r="1.65" fill="#2f9e6b" opacity="0.5"/>
  <line x1="54.95" y1="148.13" x2="47.43" y2="132.07" stroke="#56c26a" stroke-width="0.5" opacity="0.21"/>
  <circle cx="47.43" cy="132.07" r="2.91" fill="#2f9e6b" opacity="0.5"/>
  <line x1="76.38" y1="160.28" x2="69.44" y2="136.64" stroke="#56c26a" stroke-width="1" opacity="0.27"/>
  <line x1="69.44" y1="136.64" x2="55.24" y2="126.02" stroke="#56c26a" stroke-width="0.5" opacity="0.21"/>
  <circle cx="55.24" cy="126.02" r="3.39" fill="#2f9e6b" opacity="0.5"/>
  <line x1="69.44" y1="136.64" x2="71.9" y2="119.08" stroke="#56c26a" stroke-width="0.5" opacity="0.21"/>
  <line x1="96.63" y1="187.86" x2="104.29" y2="154.51" stroke="#56c26a" stroke-width="1.5" opacity="0.33"/>
  <line x1="104.29" y1="154.51" x2="99.12" y2="130.42" stroke="#56c26a" stroke-width="1" opacity="0.27"/>
  <circle cx="99.12" cy="130.42" r="3.11" fill="#2f9e6b" opacity="0.5"/>
  <line x1="99.12" y1="130.42" x2="87.05" y2="117.43" stroke="#56c26a" stroke-width="0.5" opacity="0.21"/>
  <circle cx="87.05" cy="117.43" r="1.68" fill="#2f9e6b" opacity="0.5"/>
  <line x1="99.12" y1="130.42" x2="104.55" y2="113.54" stroke="#56c26a" stroke-width="0.5" opacity="0.21"/>
  <circle cx="104.55" cy="113.54" r="2.4" fill="#2f9e6b" opacity="0.5"/>
  <line x1="104.29" y1="154.51" x2="119.05" y2="134.79" stroke="#56c26a" stroke-width="1" opacity="0.27"/>
  <circle cx="119.05" cy="134.79" r="2.57" fill="#2f9e6b" opacity="0.5"/>
  <line x1="119.05" y1="134.79" x2="119.13" y2="117.05" stroke="#56c26a" stroke-width="0.5" opacity="0.21"/>
  <circle cx="119.13" cy="117.05" r="1.71" fill="#2f9e6b" opacity="0.5"/>
  <line x1="119.05" y1="134.79" x2="133.9" y2="125.08" stroke="#56c26a" stroke-width="0.5" opacity="0.21"/>
  <circle cx="133.9" cy="125.08" r="1.89" fill="#2f9e6b" opacity="0.5"/>
  <line x1="103.8" y1="234.83" x2="133.39" y2="197.64" stroke="#56c26a" stroke-width="2" opacity="0.39"/>
  <line x1="133.39" y1="197.64" x2="143.34" y2="164.91" stroke="#56c26a" stroke-width="1.5" opacity="0.33"/>
  <line x1="143.34" y1="164.91" x2="134.67" y2="141.85" stroke="#56c26a" stroke-width="1" opacity="0.27"/>
  <circle cx="134.67" cy="141.85" r="2.66" fill="#2f9e6b" opacity="0.5"/>
  <line x1="134.67" y1="141.85" x2="120.03" y2="131.83" stroke="#56c26a" stroke-width="0.5" opacity="0.21"/>
  <circle cx="120.03" cy="131.83" r="3.42" fill="#2f9e6b" opacity="0.5"/>
  <line x1="134.67" y1="141.85" x2="139.3" y2="124.73" stroke="#56c26a" stroke-width="0.5" opacity="0.21"/>
  <line x1="143.34" y1="164.91" x2="158.19" y2="145.26" stroke="#56c26a" stroke-width="1" opacity="0.27"/>
  <line x1="158.19" y1="145.26" x2="161.52" y2="127.84" stroke="#56c26a" stroke-width="0.5" opacity="0.21"/>
  <circle cx="161.52" cy="127.84" r="2" fill="#2f9e6b" opacity="0.5"/>
  <line x1="158.19" y1="145.26" x2="175.13" y2="140" stroke="#56c26a" stroke-width="0.5" opacity="0.21"/>
  <line x1="133.39" y1="197.64" x2="164.92" y2="184.36" stroke="#56c26a" stroke-width="1.5" opacity="0.33"/>
  <line x1="164.92" y1="184.36" x2="181.57" y2="166.21" stroke="#56c26a" stroke-width="1" opacity="0.27"/>
  <circle cx="181.57" cy="166.21" r="1.73" fill="#2f9e6b" opacity="0.5"/>
  <line x1="181.57" y1="166.21" x2="187.74" y2="149.58" stroke="#56c26a" stroke-width="0.5" opacity="0.21"/>
  <circle cx="187.74" cy="149.58" r="1.87" fill="#2f9e6b" opacity="0.5"/>
  <line x1="181.57" y1="166.21" x2="197.58" y2="158.57" stroke="#56c26a" stroke-width="0.5" opacity="0.21"/>
  <circle cx="197.58" cy="158.57" r="2.06" fill="#2f9e6b" opacity="0.5"/>
  <line x1="164.92" y1="184.36" x2="189.53" y2="185.27" stroke="#56c26a" stroke-width="1" opacity="0.27"/>
  <circle cx="189.53" cy="185.27" r="2.25" fill="#2f9e6b" opacity="0.5"/>
  <line x1="189.53" y1="185.27" x2="204.78" y2="176.2" stroke="#56c26a" stroke-width="0.5" opacity="0.21"/>
  <line x1="189.53" y1="185.27" x2="203.69" y2="195.95" stroke="#56c26a" stroke-width="0.5" opacity="0.21"/>
  <circle cx="203.69" cy="195.95" r="3.22" fill="#2f9e6b" opacity="0.5"/>
  <path d="M16.71,176.27 C170.23,39.31 287.93,134.83 312.61,176.43" fill="none" stroke="#56c26a" stroke-width="1.54" opacity="0.27"/>
  <path d="M29.55,2.17 C131.5,188.4 293.65,277.69 344.96,148.52" fill="none" stroke="#56c26a" stroke-width="1.42" opacity="0.22"/>
  <path d="M7.21,165.28 C164.59,284.07 87.01,88.61 363.24,204.32" fill="none" stroke="#56c26a" stroke-width="1.87" opacity="0.19"/>
  <path d="M91.22,127.33 C148.28,89.8 143.9,130.65 394.57,148.54" fill="none" stroke="#2f9e6b" stroke-width="1.27" opacity="0.18"/>
  <path d="M7.55,25.05 C244.07,26.53 389.92,48.21 352.27,269.34" fill="none" stroke="#56c26a" stroke-width="1.12" opacity="0.16"/>
  <path d="M89.73,88.49 C153.25,196.75 19.19,194.86 351.16,190.33" fill="none" stroke="#2f9e6b" stroke-width="1.38" opacity="0.17"/>
</svg>
