<svg xmlns="http://www.w3.org/2000/svg" viewBox="0 0 960 540" width="960" height="540" role="img" aria-label="biology decorative background">
  <defs>
    <radialGradient id="grad-biology-large-03" cx="50%" cy="35%" r="80%">
      <stop offset="0%" stop-color="#56c26a" stop-opacity="0.10"/>
      <stop offset="100%" stop-color="#071508" stop-opacity="0"/>
    </radialGradient>
  </defs>
  <rect width="960" height="540" fill="#071508"/>
  <rect width="960" height="540" fill="url(#grad-biology-large-03)"/>
  <path d="M323.53,134.56 C323.72,141.13 316.5,149.73 310.13,153.42 C303.77,157.12 292.27,159.87 285.34,156.72 C278.42,153.58 268.93,142.07 268.59,134.56 C268.26,127.06 276.62,115.12 283.35,111.7 C290.08,108.28 302.28,110.22 308.98,114.03 C315.67,117.84 323.33,128 323.53,134.56 Z" fill="#a3d977" opacity="0.1"/>
  <path d="M323.53,134.56 C323.72,141.13 316.5,149.73 310.13,153.42 C303.77,157.12 292.27,159.87 285.34,156.72 C278.42,153.58 268.93,142.07 268.59,134.56 C268.26,127.06 276.62,115.12 283.35,111.7 C290.08,108.28 302.28,110.22 308.98,114.03 C315.67,117.84 323.33,128 323.53,134.56 Z" fill="none" stroke="#56c26a" stroke-width="1" opacity="0.3"/>
  <circle cx="296.09" cy="134.56" r="6.93" fill="#2f9e6b" opacity="0.4"/>
  <path d="M595.23,353.69 C595.25,359.55 592.15,368.39 587.81,373.2 C583.48,378.01 575.55,381.46 569.21,382.55 C562.87,383.65 555.54,382.9 549.79,379.77 C544.04,376.64 536.18,369.87 534.71,363.78 C533.25,357.7 538.3,349.18 541,343.27 C543.7,337.35 546.11,330.77 550.9,328.3 C555.69,325.84 563.61,326.85 569.74,328.47 C575.88,330.1 583.45,333.87 587.7,338.08 C591.95,342.28 595.22,347.84 595.23,353.69 Z" fill="#a3d977" opacity="0.1"/>
  <path d="M595.23,353.69 C595.25,359.55 592.15,368.39 587.81,373.2 C583.48,378.01 575.55,381.46 569.21,382.55 C562.87,383.65 555.54,382.9 549.79,379.77 C544.04,376.64 536.18,369.87 534.71,363.78 C533.25,357.7 538.3,349.18 541,343.27 C543.7,337.35 546.11,330.77 550.9,328.3 C555.69,325.84 563.61,326.85 569.74,328.47 C575.88,330.1 583.45,333.87 587.7,338.08 C591.95,342.28 595.22,347.84 595.23,353.69 Z" fill="none" stroke="#56c26a" stroke-width="1" opacity="0.3"/>
  <circle cx="564.27" cy="353.69" r="7.68" fill="#2f9e6b" opacity="0.4"/>
  <path d="M670.74,154.09 C671,163.02 665.19,176.2 657.52,181.37 C649.84,186.55 633.83,186.67 624.68,185.15 C615.53,183.63 606.65,180.33 602.63,172.23 C598.61,164.12 596.79,144.91 600.57,136.5 C604.35,128.1 616.08,123.25 625.32,121.8 C634.55,120.34 648.41,122.41 655.98,127.79 C663.55,133.17 670.48,145.16 670.74,154.09 Z" fill="#a3d977" opacity="0.1"/>
  <path d="M670.74,154.09 C671,163.02 665.19,176.2 657.52,181.37 C649.84,186.55 633.83,186.67 624.68,185.15 C615.53,183.63 606.65,180.33 602.63,172.23 C598.61,164.12 596.79,144.91 600.57,136.5 C604.35,128.1 616.08,123.25 625.32,121.8 C634.55,120.34 648.41,122.41 655.98,127.79 C663.55,133.17 670.48,145.16 670.74,154.09 Z" fill="none" stroke="#56c26a" stroke-width="1" opacity="0.3"/>
  <circle cx="633.7" cy="154.09" r="10.21" fill="#2f9e6b" opacity="0.4"/>
  <path d="M305.64,327.46 C305.79,331.09 301.73,335.38 298.58,337.5 C295.43,339.63 290.68,340.9 286.74,340.2 C282.79,339.51 276.44,336.5 274.91,333.34 C273.39,330.18 275.61,324.44 277.6,321.23 C279.59,318.03 283.52,315.02 286.86,314.1 C290.21,313.18 294.55,313.5 297.68,315.73 C300.81,317.95 305.49,323.83 305.64,327.46 Z" fill="#a3d977" opacity="0.1"/>
  <path d="M305.64,327.46 C305.79,331.09 301.73,335.38 298.58,337.5 C295.43,339.63 290.68,340.9 286.74,340.2 C282.79,339.51 276.44,336.5 274.91,333.34 C273.39,330.18 275.61,324.44 277.6,321.23 C279.59,318.03 283.52,315.02 286.86,314.1 C290.21,313.18 294.55,313.5 297.68,315.73 C300.81,317.95 305.49,323.83 305.64,327.46 Z" fill="none" stroke="#56c26a" stroke-width="1" opacity="0.3"/>
  <circle cx="289.75" cy="327.46" r="4.01" fill="#2f9e6b" opacity="0.4"/>
  <path d="M268.3,170.94 C268.28,180.15 257.72,191.97 249.19,196.48 C240.66,201 225.25,202.29 217.13,198.03 C209.01,193.77 200.39,179.49 200.45,170.94 C200.52,162.39 209.37,151.69 217.51,146.73 C225.65,141.77 240.85,137.15 249.31,141.18 C257.78,145.21 268.32,161.72 268.3,170.94 Z" fill="#a3d977" opacity="0.1"/>
  <path d="M268.3,170.94 C268.28,180.15 257.72,191.97 249.19,196.48 C240.66,201 225.25,202.29 217.13,198.03 C209.01,193.77 200.39,179.49 200.45,170.94 C200.52,162.39 209.37,151.69 217.51,146.73 C225.65,141.77 240.85,137.15 249.31,141.18 C257.78,145.21 268.32,161.72 268.3,170.94 Z" fill="none" stroke="#56c26a" stroke-width="1" opacity="0.3"/>
  <circle cx="235.26" cy="170.94" r="9.04" fill="#2f9e6b" opacity="0.4"/>
  <path d="M844.47,333.18 C844.16,342.47 836.52,356.48 830.39,362.4 C824.26,368.31 815.99,369.88 807.68,368.68 C799.37,367.48 787.27,361.12 780.54,355.2 C773.81,349.29 767.26,340.8 767.31,333.18 C767.35,325.56 774.09,316.32 780.82,309.46 C787.55,302.61 799.1,292.51 807.68,292.04 C816.25,291.57 826.15,299.79 832.28,306.64 C838.41,313.5 844.78,323.89 844.47,333.18 Z" fill="#a3d977" opacity="0.1"/>
  <path d="M844.47,333.18 C844.16,342.47 836.52,356.48 830.39,362.4 C824.26,368.31 815.99,369.88 807.68,368.68 C799.37,367.48 787.27,361.12 780.54,355.2 C773.81,349.29 767.26,340.8 767.31,333.18 C767.35,325.56 774.09,316.32 780.82,309.46 C787.55,302.61 799.1,292.51 807.68,292.04 C816.25,291.57 826.15,299.79 832.28,306.64 C838.41,313.5 844.78,323.89 844.47,333.18 Z" fill="none" stroke="#56c26a" stroke-width="1" opacity="0.3"/>
  <circle cx="807.68" cy="333.18" r="10.1" fill="#2f9e6b" opacity="0.4"/>
  <path d="M356.67,166.54 C356.21,172.61 350.4,178.81 346.04,183.18 C341.67,187.54 336.42,192.98 330.46,192.72 C324.51,192.45 314.01,185.94 310.31,181.58 C306.6,177.21 307.38,171.91 308.22,166.54 C309.07,161.17 311.67,153.83 315.38,149.37 C319.08,144.92 324.9,140.25 330.46,139.82 C336.03,139.38 344.41,142.3 348.78,146.75 C353.15,151.21 357.13,160.47 356.67,166.54 Z" fill="#a3d977" opacity="0.1"/>
  <path d="M356.67,166.54 C356.21,172.61 350.4,178.81 346.04,183.18 C341.67,187.54 336.42,192.98 330.46,192.72 C324.51,192.45 314.01,185.94 310.31,181.58 C306.6,177.21 307.38,171.91 308.22,166.54 C309.07,161.17 311.67,153.83 315.38,149.37 C319.08,144.92 324.9,140.25 330.46,139.82 C336.03,139.38 344.41,142.3 348.78,146.75 C353.15,151.21 357.13,160.47 356.67,166.54 Z" fill="none" stroke="#56c26a" stroke-width="1" opacity="0.3"/>
  <circle cx="330.46" cy="166.54" r="6.94" fill="#2f9e6b" opacity="0.4"/>
  <path d="M546.09,94.55 C545.99,101.26 542.46,109.18 536.2,113.35 C529.93,117.52 514.52,122.71 508.49,119.58 C502.45,116.44 499.55,102.77 500,94.55 C500.45,86.32 505.04,73.81 511.17,70.24 C517.31,66.66 530.99,69.04 536.81,73.09 C542.63,77.14 546.19,87.84 546.09,94.55 Z" fill="#a3d977" opacity="0.1"/>
  <path d="M546.09,94.55 C545.99,101.26 542.46,109.18 536.2,113.35 C529.93,117.52 514.52,122.71 508.49,119.58 C502.45,116.44 499.55,102.77 500,94.55 C500.45,86.32 505.04,73.81 511.17,70.24 C517.31,66.66 530.99,69.04 536.81,73.09 C542.63,77.14 546.19,87.84 546.09,94.55 Z" fill="none" stroke="#56c26a" stroke-width="1" opacity="0.3"/>
  <circle cx="522.21" cy="94.55" r="7.11" fill="#2f9e6b" opacity="0.4"/>
  <path d="M499.23,185.83 C498.59,190.66 496.95,196.6 494.1,200.25 C491.24,203.9 486.19,207.99 482.08,207.72 C477.98,207.45 473.03,202.27 469.48,198.63 C465.93,194.98 460.8,190.22 460.8,185.83 C460.81,181.43 465.96,175.87 469.5,172.27 C473.05,168.66 477.35,164.38 482.08,164.22 C486.82,164.05 495.08,167.66 497.94,171.26 C500.8,174.86 499.87,180.99 499.23,185.83 Z" fill="#a3d977" opacity="0.1"/>
  <path d="M499.23,185.83 C498.59,190.66 496.95,196.6 494.1,200.25 C491.24,203.9 486.19,207.99 482.08,207.72 C477.98,207.45 473.03,202.27 469.48,198.63 C465.93,194.98 460.8,190.22 460.8,185.83 C460.81,181.43 465.96,175.87 469.5,172.27 C473.05,168.66 477.35,164.38 482.08,164.22 C486.82,164.05 495.08,167.66 497.94,171.26 C500.8,174.86 499.87,180.99 499.23,185.83 Z" fill="none" stroke="#56c26a" stroke-width="1" opacity="0.3"/>
  <circle cx="482.08" cy="185.83" r="5.48" fill="#2f9e6b" opacity="0.4"/>
  <path d="M744.55,133.58 C745.26,141.83 743.36,151.13 737.56,157.26 C731.77,163.39 718.42,169.97 709.77,170.36 C701.12,170.76 691.82,165.76 685.65,159.63 C679.47,153.5 673.02,142.01 672.73,133.58 C672.43,125.16 677.71,115.76 683.88,109.08 C690.05,102.4 701.54,93.73 709.77,93.51 C718,93.29 727.48,101.11 733.27,107.79 C739.07,114.47 743.83,125.34 744.55,133.58 Z" fill="#a3d977" opacity="0.1"/>
  <path d="M744.55,133.58 C745.26,141.83 743.36,151.13 737.56,157.26 C731.77,163.39 718.42,169.97 709.77,170.36 C701.12,170.76 691.82,165.76 685.65,159.63 C679.47,153.5 673.02,142.01 672.73,133.58 C672.43,125.16 677.71,115.76 683.88,109.08 C690.05,102.4 701.54,93.73 709.77,93.51 C718,93.29 727.48,101.11 733.27,107.79 C739.07,114.47 743.83,125.34 744.55,133.58 Z" fill="none" stroke="#56c26a" stroke-width="1" opacity="0.3"/>
  <circle cx="709.77" cy="133.58" r="9.79" fill="#2f9e6b" opacity="0.4"/>
  <path d="M493.18,365.35 C493.76,372.73 491.78,383.2 486.38,388.76 C480.98,394.32 468.67,398.33 460.79,398.72 C452.91,399.1 445.23,396.63 439.09,391.07 C432.96,385.51 424.12,373.38 423.98,365.35 C423.84,357.31 432.12,348 438.26,342.85 C444.39,337.7 453.35,334.16 460.79,334.43 C468.23,334.7 477.52,339.3 482.92,344.46 C488.32,349.61 492.61,357.96 493.18,365.35 Z" fill="#a3d977" opacity="0.1"/>
  <path d="M493.18,365.35 C493.76,372.73 491.78,383.2 486.38,388.76 C480.98,394.32 468.67,398.33 460.79,398.72 C452.91,399.1 445.23,396.63 439.09,391.07 C432.96,385.51 424.12,373.38 423.98,365.35 C423.84,357.31 432.12,348 438.26,342.85 C444.39,337.7 453.35,334.16 460.79,334.43 C468.23,334.7 477.52,339.3 482.92,344.46 C488.32,349.61 492.61,357.96 493.18,365.35 Z" fill="none" stroke="#56c26a" stroke-width="1" opacity="0.3"/>
  <circle cx="460.79" cy="365.35" r="9.57" fill="#2f9e6b" opacity="0.4"/>
  <path d="M843.77,62.23 C843.74,66.88 841.46,72.13 837.91,74.95 C834.37,77.77 827.39,80.11 822.49,79.14 C817.59,78.17 810.41,73.42 808.54,69.13 C806.66,64.83 808.9,57.2 811.24,53.37 C813.59,49.54 818.13,47.21 822.6,46.16 C827.08,45.11 834.56,44.38 838.09,47.06 C841.62,49.73 843.8,57.58 843.77,62.23 Z" fill="#a3d977" opacity="0.1"/>
  <path d="M843.77,62.23 C843.74,66.88 841.46,72.13 837.91,74.95 C834.37,77.77 827.39,80.11 822.49,79.14 C817.59,78.17 810.41,73.42 808.54,69.13 C806.66,64.83 808.9,57.2 811.24,53.37 C813.59,49.54 818.13,47.21 822.6,46.16 C827.08,45.11 834.56,44.38 838.09,47.06 C841.62,49.73 843.8,57.58 843.77,62.23 Z" fill="none" stroke="#56c26a" stroke-width="1" opacity="0.3"/>
  <circle cx="826.95" cy="62.23" r="4.98" fill="#2f9e6b" opacity="0.4"/>
  <path d="M619.75,158.71 C620.05,163.93 614.26,168.58 609.97,172.34 C605.68,176.1 599.48,180.7 594.01,181.26 C588.54,181.81 581.12,179.43 577.15,175.67 C573.18,171.91 569.95,163.86 570.19,158.71 C570.44,153.55 574.67,148.03 578.64,144.73 C582.61,141.43 589.08,139.55 594.01,138.93 C598.93,138.3 603.88,137.69 608.18,140.98 C612.47,144.28 619.46,153.48 619.75,158.71 Z" fill="#a3d977" opacity="0.1"/>
  <path d="M619.75,158.71 C620.05,163.93 614.26,168.58 609.97,172.34 C605.68,176.1 599.48,180.7 594.01,181.26 C588.54,181.81 581.12,179.43 577.15,175.67 C573.18,171.91 569.95,163.86 570.19,158.71 C570.44,153.55 574.67,148.03 578.64,144.73 C582.61,141.43 589.08,139.55 594.01,138.93 C598.93,138.3 603.88,137.69 608.18,140.98 C612.47,144.28 619.46,153.48 619.75,158.71 Z" fill="none" stroke="#56c26a" stroke-width="1" opacity="0.3"/>
  <circle cx="594.01" cy="158.71" r="6.35" fill="#2f9e6b" opacity="0.4"/>
  <path d="M697.79,267.06 C697.75,271.76 694.64,279.33 691.11,281.35 C687.57,283.37 680.59,281.58 676.59,279.2 C672.6,276.82 667.13,271.58 667.13,267.06 C667.12,262.55 672.53,254.41 676.56,252.1 C680.59,249.78 687.79,250.68 691.33,253.17 C694.87,255.67 697.83,262.37 697.79,267.06 Z" fill="#a3d977" opacity="0.1"/>
  <path d="M697.79,267.06 C697.75,271.76 694.64,279.33 691.11,281.35 C687.57,283.37 680.59,281.58 676.59,279.2 C672.6,276.82 667.13,271.58 667.13,267.06 C667.12,262.55 672.53,254.41 676.56,252.1 C680.59,249.78 687.79,250.68 691.33,253.17 C694.87,255.67 697.83,262.37 697.79,267.06 Z" fill="none" stroke="#56c26a" stroke-width="1" opacity="0.3"/>
  <circle cx="683.41" cy="267.06" r="4.31" fill="#2f9e6b" opacity="0.4"/>
  <path d="M182.08,216.08 C181.8,219.57 177.44,223.65 174.58,226.45 C171.73,229.26 168.53,231.63 164.94,232.91 C161.35,234.19 156.64,235.85 153.06,234.13 C149.48,232.42 144.93,226.76 143.47,222.6 C142,218.43 142.73,213.17 144.27,209.13 C145.82,205.09 149.21,200.38 152.75,198.34 C156.29,196.3 161.6,195.71 165.52,196.9 C169.44,198.09 173.52,202.29 176.28,205.49 C179.04,208.69 182.36,212.58 182.08,216.08 Z" fill="#a3d977" opacity="0.1"/>
  <path d="M182.08,216.08 C181.8,219.57 177.44,223.65 174.58,226.45 C171.73,229.26 168.53,231.63 164.94,232.91 C161.35,234.19 156.64,235.85 153.06,234.13 C149.48,232.42 144.93,226.76 143.47,222.6 C142,218.43 142.73,213.17 144.27,209.13 C145.82,205.09 149.21,200.38 152.75,198.34 C156.29,196.3 161.6,195.71 165.52,196.9 C169.44,198.09 173.52,202.29 176.28,205.49 C179.04,208.69 182.36,212.58 182.08,216.08 Z" fill="none" stroke="#56c26a" stroke-width="1" opacity="0.3"/>
  <circle cx="161.95" cy="216.08" r="5.21" fill="#2f9e6b" opacity="0.4"/>
  <path d="M592.7,325.12 C592.99,329.41 591,335.38 588.09,338.1 C585.18,340.82 579.14,341.58 575.26,341.41 C571.39,341.23 567.42,339.76 564.83,337.04 C562.24,334.33 559.69,329.04 559.73,325.12 C559.77,321.19 562.48,315.85 565.06,313.48 C567.65,311.1 571.72,311.05 575.26,310.86 C578.81,310.68 583.44,309.99 586.34,312.37 C589.25,314.74 592.41,320.83 592.7,325.12 Z" fill="#a3d977" opacity="0.1"/>
  <path d="M592.7,325.12 C592.99,329.41 591,335.38 588.09,338.1 C585.18,340.82 579.14,341.58 575.26,341.41 C571.39,341.23 567.42,339.76 564.83,337.04 C562.24,334.33 559.69,329.04 559.73,325.12 C559.77,321.19 562.48,315.85 565.06,313.48 C567.65,311.1 571.72,311.05 575.26,310.86 C578.81,310.68 583.44,309.99 586.34,312.37 C589.25,314.74 592.41,320.83 592.7,325.12 Z" fill="none" stroke="#56c26a" stroke-width="1" opacity="0.3"/>
  <circle cx="575.26" cy="325.12" r="4.66" fill="#2f9e6b" opacity="0.4"/>
  <path d="M264.45,257.29 C264.25,261.72 259.75,267.66 256.23,270.42 C252.72,273.19 247.16,274.74 243.34,273.89 C239.52,273.04 235.61,269.48 233.31,265.34 C231,261.19 227.97,252.97 229.52,249.03 C231.07,245.08 237.94,242.54 242.59,241.68 C247.25,240.81 253.79,241.23 257.43,243.83 C261.07,246.43 264.64,252.85 264.45,257.29 Z" fill="#a3d977" opacity="0.1"/>
  <path d="M264.45,257.29 C264.25,261.72 259.75,267.66 256.23,270.42 C252.72,273.19 247.16,274.74 243.34,273.89 C239.52,273.04 235.61,269.48 233.31,265.34 C231,261.19 227.97,252.97 229.52,249.03 C231.07,245.08 237.94,242.54 242.59,241.68 C247.25,240.81 253.79,241.23 257.43,243.83 C261.07,246.43 264.64,252.85 264.45,257.29 Z" fill="none" stroke="#56c26a" stroke-width="1" opacity="0.3"/>
  <circle cx="246.55" cy="257.29" r="4.67" fill="#2f9e6b" opacity="0.4"/>
  <path d="M786.9,59.05 C786.94,62.99 785.37,69.6 782.46,71.58 C779.56,73.56 773.29,71.83 769.46,70.91 C765.63,69.99 761,69.02 759.49,66.04 C757.97,63.05 758.65,56.57 760.36,53.01 C762.07,49.45 766.09,45.54 769.74,44.69 C773.39,43.84 779.39,45.54 782.25,47.93 C785.11,50.32 786.87,55.1 786.9,59.05 Z" fill="#a3d977" opacity="0.1"/>
  <path d="M786.9,59.05 C786.94,62.99 785.37,69.6 782.46,71.58 C779.56,73.56 773.29,71.83 769.46,70.91 C765.63,69.99 761,69.02 759.49,66.04 C757.97,63.05 758.65,56.57 760.36,53.01 C762.07,49.45 766.09,45.54 769.74,44.69 C773.39,43.84 779.39,45.54 782.25,47.93 C785.11,50.32 786.87,55.1 786.9,59.05 Z" fill="none" stroke="#56c26a" stroke-width="1" opacity="0.3"/>
  <circle cx="773.01" cy="59.05" r="3.97" fill="#2f9e6b" opacity="0.4"/>
  <path d="M586.15,245.83 C586.46,252.93 581.35,263.42 576.01,268.9 C570.66,274.38 561.74,278.42 554.09,278.68 C546.44,278.94 535.05,275.92 530.1,270.45 C525.14,264.97 523.66,253.99 524.37,245.83 C525.08,237.66 529.39,227.03 534.34,221.47 C539.3,215.91 547.45,211.64 554.09,212.45 C560.72,213.25 568.82,220.73 574.16,226.29 C579.5,231.86 585.84,238.72 586.15,245.83 Z" fill="#a3d977" opacity="0.1"/>
  <path d="M586.15,245.83 C586.46,252.93 581.35,263.42 576.01,268.9 C570.66,274.38 561.74,278.42 554.09,278.68 C546.44,278.94 535.05,275.92 530.1,270.45 C525.14,264.97 523.66,253.99 524.37,245.83 C525.08,237.66 529.39,227.03 534.34,221.47 C539.3,215.91 547.45,211.64 554.09,212.45 C560.72,213.25 568.82,220.73 574.16,226.29 C579.5,231.86 585.84,238.72 586.15,245.83 Z" fill="none" stroke="#56c26a" stroke-width="1" opacity="0.3"/>
  <circle cx="554.09" cy="245.83" r="8.61" fill="#2f9e6b" opacity="0.4"/>
  <path d="M684.98,465.33 C684.95,468.86 686.15,474.27 684.43,476.54 C682.7,478.8 678.04,478.6 674.63,478.91 C671.22,479.21 667,479.75 663.96,478.37 C660.93,476.99 657.39,473.79 656.44,470.61 C655.48,467.43 656.97,462.56 658.23,459.31 C659.5,456.06 661.37,452.88 664.04,451.13 C666.71,449.37 670.83,448.06 674.26,448.77 C677.68,449.49 682.81,452.64 684.59,455.4 C686.38,458.16 685,461.81 684.98,465.33 Z" fill="#a3d977" opacity="0.1"/>
  <path d="M684.98,465.33 C684.95,468.86 686.15,474.27 684.43,476.54 C682.7,478.8 678.04,478.6 674.63,478.91 C671.22,479.21 667,479.75 663.96,478.37 C660.93,476.99 657.39,473.79 656.44,470.61 C655.48,467.43 656.97,462.56 658.23,459.31 C659.5,456.06 661.37,452.88 664.04,451.13 C666.71,449.37 670.83,448.06 674.26,448.77 C677.68,449.49 682.81,452.64 684.59,455.4 C686.38,458.16 685,461.81 684.98,465.33 Z" fill="none" stroke="#56c26a" stroke-width="1" opacity="0.3"/>
  <circle cx="671.7" cy="465.33" r="4.35" fill="#2f9e6b" opacity="0.4"/>
  <path d="M817.79,277.66 C817.86,280.71 817.03,284.89 814.68,287.1 C812.32,289.32 806.86,291.71 803.66,290.94 C800.46,290.18 796.91,285.77 795.47,282.52 C794.03,279.27 793.6,274.3 795.03,271.43 C796.45,268.57 800.82,265.76 804.02,265.32 C807.22,264.89 811.93,266.76 814.23,268.81 C816.52,270.87 817.71,274.61 817.79,277.66 Z" fill="#a3d977" opacity="0.1"/>
  <path d="M817.79,277.66 C817.86,280.71 817.03,284.89 814.68,287.1 C812.32,289.32 806.86,291.71 803.66,290.94 C800.46,290.18 796.91,285.77 795.47,282.52 C794.03,279.27 793.6,274.3 795.03,271.43 C796.45,268.57 800.82,265.76 804.02,265.32 C807.22,264.89 811.93,266.76 814.23,268.81 C816.52,270.87 817.71,274.61 817.79,277.66 Z" fill="none" stroke="#56c26a" stroke-width="1" opacity="0.3"/>
  <circle cx="806.55" cy="277.66" r="3.55" fill="#2f9e6b" opacity="0.4"/>
  <path d="M103.2,318.61 C175.21,247.9 945.46,44.09 844.86,37.9" fill="none" stroke="#56c26a" stroke-width="1.47" opacity="0.19"/>
  <path d="M85.08,322.81 C420.05,69.49 886.83,345.02 808.92,372.83" fill="none" stroke="#56c26a" stroke-width="2.37" opacity="0.33"/>
  <path d="M94.76,127.57 C58.55,100.14 703.44,35.09 882.53,157.72" fill="none" stroke="#56c26a" stroke-width="1.52" opacity="0.25"/>
  <path d="M157.62,269.01 C393.61,538.39 363.98,512 685.73,81.09" fill="none" stroke="#56c26a" stroke-width="2.03" opacity="0.27"/>
  <path d="M63.5,310.77 C770.49,384.53 273.26,237.32 727.16,165.39" fill="none" stroke="#56c26a" stroke-width="2.06" opacity="0.19"/>
  <path d="M171.61,386 C548.36,291.84 522.68,457.52 884.15,384.31" fill="none" stroke="#56c26a" stroke-width="1.6" opacity="0.25"/>
  <path d="M76.69,198.88 C133.97,516.88 96.08,191.85 737.82,269.55" fill="none" stroke="#2f9e6b" stroke-width="1.75" opacity="0.35"/>
  <path d="M86.23,436.35 C912.43,99.7 327.51,443.21 958.59,294.69" fill="none" stroke="#56c26a" stroke-width="1.88" opacity="0.3"/>
  <path d="M84.98,51.22 C571.98,281.02 840.7,539.87 835.01,47.68" fill="none" stroke="#56c26a" stroke-width="1.69" opacity="0.29"/>
  <path d="M168.45,427.85 C670.73,229.75 498.16,176.62 681.87,54.32" fill="none" stroke="#2f9e6b" stroke-width="2.02" opacity="0.35"/>
</svg>
