<svg xmlns="http://www.w3.org/2000/svg" viewBox="0 0 960 540" width="960" height="540" role="img" aria-label="biology decorative background">
  <defs>
    <radialGradient id="grad-biology-large-05" cx="50%" cy="35%" r="80%">
      <stop offset="0%" stop-color="#56c26a" stop-opacity="0.10"/>
      <stop offset="100%" stop-color="#071508" stop-opacity="0"/>
    </radialGradient>
  </defs>
  <rect width="960" height="540" fill="#071508"/>
  <rect width="960" height="540" fill="url(#grad-biology-large-05)"/>
  <path d="M5.84,144 C800.44,9.09 57.95,396.15 706.51,140.24" fill="none" stroke="#2f9e6b" stroke-width="1.31" opacity="0.23"/>
  <path d="M278.1,283.81 C655.94,49.02 517.68,449.28 945.32,184.56" fill="none" stroke="#56c26a" stroke-width="2.35" opacity="0.29"/>
  <path d="M26.24,255.21 C160.23,246.25 550.06,525.09 865.1,531.04" fill="none" stroke="#56c26a" stroke-width="1.53" opacity="0.32"/>
  <path d="M269.48,130.57 C451.99,260.49 734.84,354.66 776.52,503.52" fill="none" stroke="#56c26a" stroke-width="1.66" opacity="0.31"/>
  <path d="M241.43,228.57 C446.91,411 265,191.72 793.89,268.14" fill="none" stroke="#56c26a" stroke-width="1.68" opacity="0.37"/>
  <path d="M133.62,418.15 C315.53,309.01 470.71,487.26 854.47,454.88" fill="none" stroke="#56c26a" stroke-width="1.58" opacity="0.21"/>
  <path d="M74.05,182.05 C53.55,109.16 517.73,460.78 945.47,460.35" fill="none" stroke="#2f9e6b" stroke-width="1.83" opacity="0.34"/>
  <path d="M165.33,168.73 C54.45,116.27 188.12,106.48 738.9,302.53" fill="none" stroke="#2f9e6b" stroke-width="1.21" opacity="0.26"/>
  <path d="M273.35,421 C956.66,458.67 13.24,311.05 865.79,365.81" fill="none" stroke="#2f9e6b" stroke-width="2.35" opacity="0.2"/>
  <path d="M168.43,164.52 C595.19,159.47 726,440.25 687.44,32.64" fill="none" stroke="#56c26a" stroke-width="1.24" opacity="0.36"/>
  <line x1="333.92" y1="540" x2="362.73" y2="424.75" stroke="#56c26a" stroke-width="2.5" opacity="0.45"/>
  <line x1="362.73" y1="424.75" x2="331.63" y2="345.06" stroke="#56c26a" stroke-width="2" opacity="0.39"/>
  <line x1="331.63" y1="345.06" x2="287.93" y2="301.67" stroke="#56c26a" stroke-width="1.5" opacity="0.33"/>
  <line x1="287.93" y1="301.67" x2="244.88" y2="291.05" stroke="#56c26a" stroke-width="1" opacity="0.27"/>
  <circle cx="244.88" cy="291.05" r="3.38" fill="#2f9e6b" opacity="0.5"/>
  <line x1="244.88" y1="291.05" x2="214.19" y2="299.86" stroke="#56c26a" stroke-width="0.5" opacity="0.21"/>
  <circle cx="214.19" cy="299.86" r="1.58" fill="#2f9e6b" opacity="0.5"/>
  <line x1="244.88" y1="291.05" x2="217.54" y2="274.55" stroke="#56c26a" stroke-width="0.5" opacity="0.21"/>
  <circle cx="217.54" cy="274.55" r="2.34" fill="#2f9e6b" opacity="0.5"/>
  <line x1="287.93" y1="301.67" x2="283.42" y2="257.56" stroke="#56c26a" stroke-width="1" opacity="0.27"/>
  <circle cx="283.42" cy="257.56" r="2.6" fill="#2f9e6b" opacity="0.5"/>
  <line x1="283.42" y1="257.56" x2="265.99" y2="230.81" stroke="#56c26a" stroke-width="0.5" opacity="0.21"/>
  <circle cx="265.99" cy="230.81" r="3.24" fill="#2f9e6b" opacity="0.5"/>
  <line x1="283.42" y1="257.56" x2="291.08" y2="226.57" stroke="#56c26a" stroke-width="0.5" opacity="0.21"/>
  <line x1="331.63" y1="345.06" x2="335.41" y2="283.59" stroke="#56c26a" stroke-width="1.5" opacity="0.33"/>
  <line x1="335.41" y1="283.59" x2="311.31" y2="246.37" stroke="#56c26a" stroke-width="1" opacity="0.27"/>
  <line x1="311.31" y1="246.37" x2="282.99" y2="231.62" stroke="#56c26a" stroke-width="0.5" opacity="0.21"/>
  <circle cx="282.99" cy="231.62" r="3.07" fill="#2f9e6b" opacity="0.5"/>
  <line x1="311.31" y1="246.37" x2="306.1" y2="214.87" stroke="#56c26a" stroke-width="0.5" opacity="0.21"/>
  <circle cx="306.1" cy="214.87" r="3.05" fill="#2f9e6b" opacity="0.5"/>
  <line x1="335.41" y1="283.59" x2="356.54" y2="244.61" stroke="#56c26a" stroke-width="1" opacity="0.27"/>
  <line x1="356.54" y1="244.61" x2="362.72" y2="213.29" stroke="#56c26a" stroke-width="0.5" opacity="0.21"/>
  <line x1="356.54" y1="244.61" x2="381.82" y2="225.11" stroke="#56c26a" stroke-width="0.5" opacity="0.21"/>
  <circle cx="381.82" cy="225.11" r="3.19" fill="#2f9e6b" opacity="0.5"/>
  <line x1="362.73" y1="424.75" x2="428.68" y2="370.27" stroke="#56c26a" stroke-width="2" opacity="0.39"/>
  <line x1="428.68" y1="370.27" x2="440.39" y2="309.81" stroke="#56c26a" stroke-width="1.5" opacity="0.33"/>
  <line x1="440.39" y1="309.81" x2="419.82" y2="270.53" stroke="#56c26a" stroke-width="1" opacity="0.27"/>
  <line x1="419.82" y1="270.53" x2="394.9" y2="250.56" stroke="#56c26a" stroke-width="0.5" opacity="0.21"/>
  <circle cx="394.9" cy="250.56" r="3.07" fill="#2f9e6b" opacity="0.5"/>
  <line x1="419.82" y1="270.53" x2="420.68" y2="238.61" stroke="#56c26a" stroke-width="0.5" opacity="0.21"/>
  <line x1="440.39" y1="309.81" x2="466.64" y2="274.07" stroke="#56c26a" stroke-width="1" opacity="0.27"/>
  <line x1="466.64" y1="274.07" x2="475.34" y2="243.36" stroke="#56c26a" stroke-width="0.5" opacity="0.21"/>
  <circle cx="475.34" cy="243.36" r="2.37" fill="#2f9e6b" opacity="0.5"/>
  <line x1="466.64" y1="274.07" x2="497.29" y2="265.14" stroke="#56c26a" stroke-width="0.5" opacity="0.21"/>
  <line x1="428.68" y1="370.27" x2="489.37" y2="359.83" stroke="#56c26a" stroke-width="1.5" opacity="0.33"/>
  <line x1="489.37" y1="359.83" x2="526.17" y2="335.09" stroke="#56c26a" stroke-width="1" opacity="0.27"/>
  <circle cx="526.17" cy="335.09" r="3" fill="#2f9e6b" opacity="0.5"/>
  <line x1="526.17" y1="335.09" x2="537.43" y2="305.22" stroke="#56c26a" stroke-width="0.5" opacity="0.21"/>
  <circle cx="537.43" cy="305.22" r="2.05" fill="#2f9e6b" opacity="0.5"/>
  <line x1="526.17" y1="335.09" x2="557.8" y2="330.77" stroke="#56c26a" stroke-width="0.5" opacity="0.21"/>
  <circle cx="557.8" cy="330.77" r="1.77" fill="#2f9e6b" opacity="0.5"/>
  <line x1="489.37" y1="359.83" x2="532.92" y2="368.16" stroke="#56c26a" stroke-width="1" opacity="0.27"/>
  <circle cx="532.92" cy="368.16" r="2.76" fill="#2f9e6b" opacity="0.5"/>
  <line x1="532.92" y1="368.16" x2="561.21" y2="353.36" stroke="#56c26a" stroke-width="0.5" opacity="0.21"/>
  <line x1="532.92" y1="368.16" x2="557.26" y2="388.83" stroke="#56c26a" stroke-width="0.5" opacity="0.21"/>
  <circle cx="557.26" cy="388.83" r="3.19" fill="#2f9e6b" opacity="0.5"/>
  <line x1="733.73" y1="540" x2="765.6" y2="425.55" stroke="#56c26a" stroke-width="2.5" opacity="0.45"/>
  <line x1="765.6" y1="425.55" x2="733.52" y2="346.26" stroke="#56c26a" stroke-width="2" opacity="0.39"/>
  <line x1="733.52" y1="346.26" x2="685.53" y2="307.66" stroke="#56c26a" stroke-width="1.5" opacity="0.33"/>
  <line x1="685.53" y1="307.66" x2="643.07" y2="294.87" stroke="#56c26a" stroke-width="1" opacity="0.27"/>
  <circle cx="643.07" cy="294.87" r="2.7" fill="#2f9e6b" opacity="0.5"/>
  <line x1="643.07" y1="294.87" x2="612.38" y2="303.66" stroke="#56c26a" stroke-width="0.5" opacity="0.21"/>
  <line x1="643.07" y1="294.87" x2="619.41" y2="273.44" stroke="#56c26a" stroke-width="0.5" opacity="0.21"/>
  <circle cx="619.41" cy="273.44" r="2.44" fill="#2f9e6b" opacity="0.5"/>
  <line x1="685.53" y1="307.66" x2="661.6" y2="270.33" stroke="#56c26a" stroke-width="1" opacity="0.27"/>
  <line x1="661.6" y1="270.33" x2="632.59" y2="257.01" stroke="#56c26a" stroke-width="0.5" opacity="0.21"/>
  <line x1="661.6" y1="270.33" x2="661.4" y2="238.41" stroke="#56c26a" stroke-width="0.5" opacity="0.21"/>
  <circle cx="661.4" cy="238.41" r="1.68" fill="#2f9e6b" opacity="0.5"/>
  <line x1="733.52" y1="346.26" x2="742.04" y2="285.27" stroke="#56c26a" stroke-width="1.5" opacity="0.33"/>
  <line x1="742.04" y1="285.27" x2="728.31" y2="243.11" stroke="#56c26a" stroke-width="1" opacity="0.27"/>
  <line x1="728.31" y1="243.11" x2="703.87" y2="222.57" stroke="#56c26a" stroke-width="0.5" opacity="0.21"/>
  <circle cx="703.87" cy="222.57" r="2.08" fill="#2f9e6b" opacity="0.5"/>
  <line x1="728.31" y1="243.11" x2="738.24" y2="212.77" stroke="#56c26a" stroke-width="0.5" opacity="0.21"/>
  <circle cx="738.24" cy="212.77" r="1.88" fill="#2f9e6b" opacity="0.5"/>
  <line x1="742.04" y1="285.27" x2="767.91" y2="249.26" stroke="#56c26a" stroke-width="1" opacity="0.27"/>
  <circle cx="767.91" cy="249.26" r="1.78" fill="#2f9e6b" opacity="0.5"/>
  <line x1="767.91" y1="249.26" x2="770.3" y2="217.42" stroke="#56c26a" stroke-width="0.5" opacity="0.21"/>
  <circle cx="770.3" cy="217.42" r="1.66" fill="#2f9e6b" opacity="0.5"/>
  <line x1="767.91" y1="249.26" x2="798.54" y2="240.25" stroke="#56c26a" stroke-width="0.5" opacity="0.21"/>
  <circle cx="798.54" cy="240.25" r="2.88" fill="#2f9e6b" opacity="0.5"/>
  <line x1="765.6" y1="425.55" x2="830.77" y2="370.15" stroke="#56c26a" stroke-width="2" opacity="0.39"/>
  <line x1="830.77" y1="370.15" x2="860.25" y2="316.08" stroke="#56c26a" stroke-width="1.5" opacity="0.33"/>
  <line x1="860.25" y1="316.08" x2="860.45" y2="271.74" stroke="#56c26a" stroke-width="1" opacity="0.27"/>
  <circle cx="860.45" cy="271.74" r="2.2" fill="#2f9e6b" opacity="0.5"/>
  <line x1="860.45" y1="271.74" x2="849.9" y2="241.61" stroke="#56c26a" stroke-width="0.5" opacity="0.21"/>
  <circle cx="849.9" cy="241.61" r="2.97" fill="#2f9e6b" opacity="0.5"/>
  <line x1="860.45" y1="271.74" x2="876.05" y2="243.88" stroke="#56c26a" stroke-width="0.5" opacity="0.21"/>
  <circle cx="876.05" cy="243.88" r="3.34" fill="#2f9e6b" opacity="0.5"/>
  <line x1="860.25" y1="316.08" x2="900.87" y2="298.29" stroke="#56c26a" stroke-width="1" opacity="0.27"/>
  <line x1="900.87" y1="298.29" x2="919.82" y2="272.59" stroke="#56c26a" stroke-width="0.5" opacity="0.21"/>
  <line x1="900.87" y1="298.29" x2="931.53" y2="307.17" stroke="#56c26a" stroke-width="0.5" opacity="0.21"/>
  <line x1="830.77" y1="370.15" x2="892.18" y2="365.47" stroke="#56c26a" stroke-width="1.5" opacity="0.33"/>
  <line x1="892.18" y1="365.47" x2="932.57" y2="347.18" stroke="#56c26a" stroke-width="1" opacity="0.27"/>
  <circle cx="932.57" cy="347.18" r="2.83" fill="#2f9e6b" opacity="0.5"/>
  <line x1="932.57" y1="347.18" x2="946.66" y2="318.53" stroke="#56c26a" stroke-width="0.5" opacity="0.21"/>
  <circle cx="946.66" cy="318.53" r="1.59" fill="#2f9e6b" opacity="0.5"/>
  <line x1="932.57" y1="347.18" x2="963.86" y2="353.56" stroke="#56c26a" stroke-width="0.5" opacity="0.21"/>
  <circle cx="963.86" cy="353.56" r="3.3" fill="#2f9e6b" opacity="0.5"/>
  <line x1="892.18" y1="365.47" x2="931.17" y2="386.59" stroke="#56c26a" stroke-width="1" opacity="0.27"/>
  <circle cx="931.17" cy="386.59" r="1.72" fill="#2f9e6b" opacity="0.5"/>
  <line x1="931.17" y1="386.59" x2="962.91" y2="383.16" stroke="#56c26a" stroke-width="0.5" opacity="0.21"/>
  <line x1="931.17" y1="386.59" x2="950.12" y2="412.28" stroke="#56c26a" stroke-width="0.5" opacity="0.21"/>
  <circle cx="950.12" cy="412.28" r="1.7" fill="#2f9e6b" opacity="0.5"/>
  <line x1="420.71" y1="540" x2="454.67" y2="426.16" stroke="#56c26a" stroke-width="2.5" opacity="0.45"/>
  <line x1="454.67" y1="426.16" x2="427.96" y2="344.9" stroke="#56c26a" stroke-width="2" opacity="0.39"/>
  <line x1="427.96" y1="344.9" x2="390.73" y2="295.84" stroke="#56c26a" stroke-width="1.5" opacity="0.33"/>
  <line x1="390.73" y1="295.84" x2="351.05" y2="276.04" stroke="#56c26a" stroke-width="1" opacity="0.27"/>
  <circle cx="351.05" cy="276.04" r="2.63" fill="#2f9e6b" opacity="0.5"/>
  <line x1="351.05" y1="276.04" x2="319.28" y2="279.18" stroke="#56c26a" stroke-width="0.5" opacity="0.21"/>
  <line x1="351.05" y1="276.04" x2="335.69" y2="248.06" stroke="#56c26a" stroke-width="0.5" opacity="0.21"/>
  <line x1="390.73" y1="295.84" x2="379.23" y2="253.01" stroke="#56c26a" stroke-width="1" opacity="0.27"/>
  <line x1="379.23" y1="253.01" x2="358.65" y2="228.6" stroke="#56c26a" stroke-width="0.5" opacity="0.21"/>
  <circle cx="358.65" cy="228.6" r="1.51" fill="#2f9e6b" opacity="0.5"/>
  <line x1="379.23" y1="253.01" x2="390.92" y2="223.31" stroke="#56c26a" stroke-width="0.5" opacity="0.21"/>
  <circle cx="390.92" cy="223.31" r="2.64" fill="#2f9e6b" opacity="0.5"/>
  <line x1="427.96" y1="344.9" x2="433.36" y2="283.55" stroke="#56c26a" stroke-width="1.5" opacity="0.33"/>
  <line x1="433.36" y1="283.55" x2="423.84" y2="240.24" stroke="#56c26a" stroke-width="1" opacity="0.27"/>
  <line x1="423.84" y1="240.24" x2="407.09" y2="213.06" stroke="#56c26a" stroke-width="0.5" opacity="0.21"/>
  <circle cx="407.09" cy="213.06" r="2.89" fill="#2f9e6b" opacity="0.5"/>
  <line x1="423.84" y1="240.24" x2="432.21" y2="209.43" stroke="#56c26a" stroke-width="0.5" opacity="0.21"/>
  <line x1="433.36" y1="283.55" x2="453.22" y2="243.91" stroke="#56c26a" stroke-width="1" opacity="0.27"/>
  <line x1="453.22" y1="243.91" x2="445.85" y2="212.84" stroke="#56c26a" stroke-width="0.5" opacity="0.21"/>
  <circle cx="445.85" cy="212.84" r="2.18" fill="#2f9e6b" opacity="0.5"/>
  <line x1="453.22" y1="243.91" x2="476.62" y2="222.18" stroke="#56c26a" stroke-width="0.5" opacity="0.21"/>
  <line x1="454.67" y1="426.16" x2="513.99" y2="364.54" stroke="#56c26a" stroke-width="2" opacity="0.39"/>
  <line x1="513.99" y1="364.54" x2="524.29" y2="303.82" stroke="#56c26a" stroke-width="1.5" opacity="0.33"/>
  <line x1="524.29" y1="303.82" x2="511.75" y2="261.29" stroke="#56c26a" stroke-width="1" opacity="0.27"/>
  <circle cx="511.75" cy="261.29" r="2.25" fill="#2f9e6b" opacity="0.5"/>
  <line x1="511.75" y1="261.29" x2="486.57" y2="241.66" stroke="#56c26a" stroke-width="0.5" opacity="0.21"/>
  <line x1="511.75" y1="261.29" x2="519.64" y2="230.35" stroke="#56c26a" stroke-width="0.5" opacity="0.21"/>
  <circle cx="519.64" cy="230.35" r="1.95" fill="#2f9e6b" opacity="0.5"/>
  <line x1="524.29" y1="303.82" x2="555.08" y2="271.91" stroke="#56c26a" stroke-width="1" opacity="0.27"/>
  <line x1="555.08" y1="271.91" x2="561.09" y2="240.56" stroke="#56c26a" stroke-width="0.5" opacity="0.21"/>
  <circle cx="561.09" cy="240.56" r="1.82" fill="#2f9e6b" opacity="0.5"/>
  <line x1="555.08" y1="271.91" x2="584.37" y2="259.21" stroke="#56c26a" stroke-width="0.5" opacity="0.21"/>
  <circle cx="584.37" cy="259.21" r="3.23" fill="#2f9e6b" opacity="0.5"/>
  <line x1="513.99" y1="364.54" x2="572.56" y2="345.5" stroke="#56c26a" stroke-width="1.5" opacity="0.33"/>
  <line x1="572.56" y1="345.5" x2="596.45" y2="308.14" stroke="#56c26a" stroke-width="1" opacity="0.27"/>
  <circle cx="596.45" cy="308.14" r="1.64" fill="#2f9e6b" opacity="0.5"/>
  <line x1="596.45" y1="308.14" x2="597.85" y2="276.25" stroke="#56c26a" stroke-width="0.5" opacity="0.21"/>
  <circle cx="597.85" cy="276.25" r="3.41" fill="#2f9e6b" opacity="0.5"/>
  <line x1="596.45" y1="308.14" x2="622.62" y2="289.85" stroke="#56c26a" stroke-width="0.5" opacity="0.21"/>
  <line x1="572.56" y1="345.5" x2="614.02" y2="361.24" stroke="#56c26a" stroke-width="1" opacity="0.27"/>
  <line x1="614.02" y1="361.24" x2="645.74" y2="357.64" stroke="#56c26a" stroke-width="0.5" opacity="0.21"/>
  <circle cx="645.74" cy="357.64" r="1.87" fill="#2f9e6b" opacity="0.5"/>
  <line x1="614.02" y1="361.24" x2="630.17" y2="388.78" stroke="#56c26a" stroke-width="0.5" opacity="0.21"/>
  <circle cx="630.17" cy="388.78" r="2.82" fill="#2f9e6b" opacity="0.5"/>
</svg>
