<svg xmlns="http://www.w3.org/2000/svg" viewBox="0 0 960 540" width="960" height="540" role="img" aria-label="biology decorative background">
  <defs>
    <radialGradient id="grad-biology-large-10" cx="50%" cy="35%" r="80%">
      <stop offset="0%" stop-color="#56c26a" stop-opacity="0.10"/>
      <stop offset="100%" stop-color="#071508" stop-opacity="0"/>
    </radialGradient>
  </defs>
  <rect width="960" height="540" fill="#071508"/>
  <rect width="960" height="540" fill="url(#grad-biology-large-10)"/>
  <line x1="325.38" y1="540" x2="331.6" y2="421.36" stroke="#56c26a" stroke-width="2.5" opacity="0.45"/>
  <line x1="331.6" y1="421.36" x2="281.67" y2="351.91" stroke="#56c26a" stroke-width="2" opacity="0.39"/>
  <line x1="281.67" y1="351.91" x2="222.6" y2="334.46" stroke="#56c26a" stroke-width="1.5" opacity="0.33"/>
  <line x1="222.6" y1="334.46" x2="179.4" y2="344.45" stroke="#56c26a" stroke-width="1" opacity="0.27"/>
  <circle cx="179.4" cy="344.45" r="2.21" fill="#2f9e6b" opacity="0.5"/>
  <line x1="179.4" y1="344.45" x2="159.5" y2="369.41" stroke="#56c26a" stroke-width="0.5" opacity="0.21"/>
  <line x1="179.4" y1="344.45" x2="149.13" y2="334.29" stroke="#56c26a" stroke-width="0.5" opacity="0.21"/>
  <line x1="222.6" y1="334.46" x2="192.69" y2="301.73" stroke="#56c26a" stroke-width="1" opacity="0.27"/>
  <circle cx="192.69" cy="301.73" r="3.06" fill="#2f9e6b" opacity="0.5"/>
  <line x1="192.69" y1="301.73" x2="163.04" y2="289.89" stroke="#56c26a" stroke-width="0.5" opacity="0.21"/>
  <line x1="192.69" y1="301.73" x2="188.72" y2="270.05" stroke="#56c26a" stroke-width="0.5" opacity="0.21"/>
  <circle cx="188.72" cy="270.05" r="3.06" fill="#2f9e6b" opacity="0.5"/>
  <line x1="281.67" y1="351.91" x2="266.81" y2="292.15" stroke="#56c26a" stroke-width="1.5" opacity="0.33"/>
  <line x1="266.81" y1="292.15" x2="238.36" y2="258.13" stroke="#56c26a" stroke-width="1" opacity="0.27"/>
  <circle cx="238.36" cy="258.13" r="3.22" fill="#2f9e6b" opacity="0.5"/>
  <line x1="238.36" y1="258.13" x2="210.99" y2="241.69" stroke="#56c26a" stroke-width="0.5" opacity="0.21"/>
  <circle cx="210.99" cy="241.69" r="2.08" fill="#2f9e6b" opacity="0.5"/>
  <line x1="238.36" y1="258.13" x2="232.96" y2="226.67" stroke="#56c26a" stroke-width="0.5" opacity="0.21"/>
  <circle cx="232.96" cy="226.67" r="2.02" fill="#2f9e6b" opacity="0.5"/>
  <line x1="266.81" y1="292.15" x2="273.6" y2="248.33" stroke="#56c26a" stroke-width="1" opacity="0.27"/>
  <circle cx="273.6" cy="248.33" r="2.9" fill="#2f9e6b" opacity="0.5"/>
  <line x1="273.6" y1="248.33" x2="262.15" y2="218.53" stroke="#56c26a" stroke-width="0.5" opacity="0.21"/>
  <circle cx="262.15" cy="218.53" r="2.02" fill="#2f9e6b" opacity="0.5"/>
  <line x1="273.6" y1="248.33" x2="297.61" y2="227.28" stroke="#56c26a" stroke-width="0.5" opacity="0.21"/>
  <line x1="331.6" y1="421.36" x2="363.21" y2="341.88" stroke="#56c26a" stroke-width="2" opacity="0.39"/>
  <line x1="363.21" y1="341.88" x2="361.1" y2="280.33" stroke="#56c26a" stroke-width="1.5" opacity="0.33"/>
  <line x1="361.1" y1="280.33" x2="339.05" y2="241.86" stroke="#56c26a" stroke-width="1" opacity="0.27"/>
  <line x1="339.05" y1="241.86" x2="315.15" y2="220.69" stroke="#56c26a" stroke-width="0.5" opacity="0.21"/>
  <line x1="339.05" y1="241.86" x2="332.79" y2="210.55" stroke="#56c26a" stroke-width="0.5" opacity="0.21"/>
  <line x1="361.1" y1="280.33" x2="374.62" y2="238.1" stroke="#56c26a" stroke-width="1" opacity="0.27"/>
  <line x1="374.62" y1="238.1" x2="368.63" y2="206.74" stroke="#56c26a" stroke-width="0.5" opacity="0.21"/>
  <circle cx="368.63" cy="206.74" r="3.06" fill="#2f9e6b" opacity="0.5"/>
  <line x1="374.62" y1="238.1" x2="396.89" y2="215.23" stroke="#56c26a" stroke-width="0.5" opacity="0.21"/>
  <circle cx="396.89" cy="215.23" r="3.2" fill="#2f9e6b" opacity="0.5"/>
  <line x1="363.21" y1="341.88" x2="402.36" y2="294.34" stroke="#56c26a" stroke-width="1.5" opacity="0.33"/>
  <line x1="402.36" y1="294.34" x2="413.06" y2="251.31" stroke="#56c26a" stroke-width="1" opacity="0.27"/>
  <circle cx="413.06" cy="251.31" r="1.54" fill="#2f9e6b" opacity="0.5"/>
  <line x1="413.06" y1="251.31" x2="407.81" y2="219.82" stroke="#56c26a" stroke-width="0.5" opacity="0.21"/>
  <circle cx="407.81" cy="219.82" r="2.15" fill="#2f9e6b" opacity="0.5"/>
  <line x1="413.06" y1="251.31" x2="431.57" y2="225.3" stroke="#56c26a" stroke-width="0.5" opacity="0.21"/>
  <line x1="402.36" y1="294.34" x2="444.56" y2="280.72" stroke="#56c26a" stroke-width="1" opacity="0.27"/>
  <circle cx="444.56" cy="280.72" r="3.29" fill="#2f9e6b" opacity="0.5"/>
  <line x1="444.56" y1="280.72" x2="468.73" y2="259.87" stroke="#56c26a" stroke-width="0.5" opacity="0.21"/>
  <line x1="444.56" y1="280.72" x2="475.73" y2="287.61" stroke="#56c26a" stroke-width="0.5" opacity="0.21"/>
  <circle cx="475.73" cy="287.61" r="2.29" fill="#2f9e6b" opacity="0.5"/>
  <line x1="572.23" y1="540" x2="599.11" y2="424.28" stroke="#56c26a" stroke-width="2.5" opacity="0.45"/>
  <line x1="599.11" y1="424.28" x2="568.51" y2="344.4" stroke="#56c26a" stroke-width="2" opacity="0.39"/>
  <line x1="568.51" y1="344.4" x2="515.49" y2="313.08" stroke="#56c26a" stroke-width="1.5" opacity="0.33"/>
  <line x1="515.49" y1="313.08" x2="472.32" y2="302.94" stroke="#56c26a" stroke-width="1" opacity="0.27"/>
  <circle cx="472.32" cy="302.94" r="1.5" fill="#2f9e6b" opacity="0.5"/>
  <line x1="472.32" y1="302.94" x2="441.44" y2="311.03" stroke="#56c26a" stroke-width="0.5" opacity="0.21"/>
  <line x1="472.32" y1="302.94" x2="449.84" y2="280.26" stroke="#56c26a" stroke-width="0.5" opacity="0.21"/>
  <circle cx="449.84" cy="280.26" r="2.14" fill="#2f9e6b" opacity="0.5"/>
  <line x1="515.49" y1="313.08" x2="492.68" y2="275.05" stroke="#56c26a" stroke-width="1" opacity="0.27"/>
  <circle cx="492.68" cy="275.05" r="2.76" fill="#2f9e6b" opacity="0.5"/>
  <line x1="492.68" y1="275.05" x2="465.03" y2="259.1" stroke="#56c26a" stroke-width="0.5" opacity="0.21"/>
  <line x1="492.68" y1="275.05" x2="496.21" y2="243.32" stroke="#56c26a" stroke-width="0.5" opacity="0.21"/>
  <circle cx="496.21" cy="243.32" r="2.13" fill="#2f9e6b" opacity="0.5"/>
  <line x1="568.51" y1="344.4" x2="570.26" y2="282.84" stroke="#56c26a" stroke-width="1.5" opacity="0.33"/>
  <line x1="570.26" y1="282.84" x2="554.82" y2="241.27" stroke="#56c26a" stroke-width="1" opacity="0.27"/>
  <line x1="554.82" y1="241.27" x2="533.22" y2="217.76" stroke="#56c26a" stroke-width="0.5" opacity="0.21"/>
  <circle cx="533.22" cy="217.76" r="2.38" fill="#2f9e6b" opacity="0.5"/>
  <line x1="554.82" y1="241.27" x2="556.21" y2="209.38" stroke="#56c26a" stroke-width="0.5" opacity="0.21"/>
  <circle cx="556.21" cy="209.38" r="2.33" fill="#2f9e6b" opacity="0.5"/>
  <line x1="570.26" y1="282.84" x2="587.38" y2="241.94" stroke="#56c26a" stroke-width="1" opacity="0.27"/>
  <circle cx="587.38" cy="241.94" r="2.83" fill="#2f9e6b" opacity="0.5"/>
  <line x1="587.38" y1="241.94" x2="583.94" y2="210.2" stroke="#56c26a" stroke-width="0.5" opacity="0.21"/>
  <line x1="587.38" y1="241.94" x2="609.16" y2="218.6" stroke="#56c26a" stroke-width="0.5" opacity="0.21"/>
  <circle cx="609.16" cy="218.6" r="3.02" fill="#2f9e6b" opacity="0.5"/>
  <line x1="599.11" y1="424.28" x2="662.67" y2="367.05" stroke="#56c26a" stroke-width="2" opacity="0.39"/>
  <line x1="662.67" y1="367.05" x2="671.2" y2="306.05" stroke="#56c26a" stroke-width="1.5" opacity="0.33"/>
  <line x1="671.2" y1="306.05" x2="652.31" y2="265.93" stroke="#56c26a" stroke-width="1" opacity="0.27"/>
  <circle cx="652.31" cy="265.93" r="2.51" fill="#2f9e6b" opacity="0.5"/>
  <line x1="652.31" y1="265.93" x2="626.52" y2="247.12" stroke="#56c26a" stroke-width="0.5" opacity="0.21"/>
  <line x1="652.31" y1="265.93" x2="648.84" y2="234.2" stroke="#56c26a" stroke-width="0.5" opacity="0.21"/>
  <line x1="671.2" y1="306.05" x2="699.54" y2="271.95" stroke="#56c26a" stroke-width="1" opacity="0.27"/>
  <circle cx="699.54" cy="271.95" r="3.37" fill="#2f9e6b" opacity="0.5"/>
  <line x1="699.54" y1="271.95" x2="705.51" y2="240.59" stroke="#56c26a" stroke-width="0.5" opacity="0.21"/>
  <circle cx="705.51" cy="240.59" r="2.16" fill="#2f9e6b" opacity="0.5"/>
  <line x1="699.54" y1="271.95" x2="730.14" y2="262.85" stroke="#56c26a" stroke-width="0.5" opacity="0.21"/>
  <line x1="662.67" y1="367.05" x2="724.22" y2="364.93" stroke="#56c26a" stroke-width="1.5" opacity="0.33"/>
  <line x1="724.22" y1="364.93" x2="765.67" y2="349.18" stroke="#56c26a" stroke-width="1" opacity="0.27"/>
  <line x1="765.67" y1="349.18" x2="787.58" y2="325.96" stroke="#56c26a" stroke-width="0.5" opacity="0.21"/>
  <circle cx="787.58" cy="325.96" r="3.21" fill="#2f9e6b" opacity="0.5"/>
  <line x1="765.67" y1="349.18" x2="797.14" y2="354.56" stroke="#56c26a" stroke-width="0.5" opacity="0.21"/>
  <circle cx="797.14" cy="354.56" r="1.5" fill="#2f9e6b" opacity="0.5"/>
  <line x1="724.22" y1="364.93" x2="761.5" y2="388.94" stroke="#56c26a" stroke-width="1" opacity="0.27"/>
  <circle cx="761.5" cy="388.94" r="3.39" fill="#2f9e6b" opacity="0.5"/>
  <line x1="761.5" y1="388.94" x2="792.78" y2="395.36" stroke="#56c26a" stroke-width="0.5" opacity="0.21"/>
  <circle cx="792.78" cy="395.36" r="2.37" fill="#2f9e6b" opacity="0.5"/>
  <line x1="761.5" y1="388.94" x2="777.93" y2="416.31" stroke="#56c26a" stroke-width="0.5" opacity="0.21"/>
  <circle cx="777.93" cy="416.31" r="2.55" fill="#2f9e6b" opacity="0.5"/>
  <line x1="574.34" y1="540" x2="585.86" y2="421.76" stroke="#56c26a" stroke-width="2.5" opacity="0.45"/>
  <line x1="585.86" y1="421.76" x2="539.13" y2="350.12" stroke="#56c26a" stroke-width="2" opacity="0.39"/>
  <line x1="539.13" y1="350.12" x2="486.35" y2="318.38" stroke="#56c26a" stroke-width="1.5" opacity="0.33"/>
  <line x1="486.35" y1="318.38" x2="442.08" y2="315.77" stroke="#56c26a" stroke-width="1" opacity="0.27"/>
  <circle cx="442.08" cy="315.77" r="1.57" fill="#2f9e6b" opacity="0.5"/>
  <line x1="442.08" y1="315.77" x2="411.64" y2="325.39" stroke="#56c26a" stroke-width="0.5" opacity="0.21"/>
  <circle cx="411.64" cy="325.39" r="1.68" fill="#2f9e6b" opacity="0.5"/>
  <line x1="442.08" y1="315.77" x2="412.33" y2="304.19" stroke="#56c26a" stroke-width="0.5" opacity="0.21"/>
  <line x1="486.35" y1="318.38" x2="470.08" y2="277.13" stroke="#56c26a" stroke-width="1" opacity="0.27"/>
  <circle cx="470.08" cy="277.13" r="1.99" fill="#2f9e6b" opacity="0.5"/>
  <line x1="470.08" y1="277.13" x2="447.06" y2="255.02" stroke="#56c26a" stroke-width="0.5" opacity="0.21"/>
  <circle cx="447.06" cy="255.02" r="3.3" fill="#2f9e6b" opacity="0.5"/>
  <line x1="470.08" y1="277.13" x2="473.53" y2="245.39" stroke="#56c26a" stroke-width="0.5" opacity="0.21"/>
  <line x1="539.13" y1="350.12" x2="525.1" y2="290.15" stroke="#56c26a" stroke-width="1.5" opacity="0.33"/>
  <line x1="525.1" y1="290.15" x2="501.6" y2="252.55" stroke="#56c26a" stroke-width="1" opacity="0.27"/>
  <circle cx="501.6" cy="252.55" r="2.98" fill="#2f9e6b" opacity="0.5"/>
  <line x1="501.6" y1="252.55" x2="476.05" y2="233.41" stroke="#56c26a" stroke-width="0.5" opacity="0.21"/>
  <line x1="501.6" y1="252.55" x2="498.59" y2="220.76" stroke="#56c26a" stroke-width="0.5" opacity="0.21"/>
  <circle cx="498.59" cy="220.76" r="3.09" fill="#2f9e6b" opacity="0.5"/>
  <line x1="525.1" y1="290.15" x2="539.4" y2="248.18" stroke="#56c26a" stroke-width="1" opacity="0.27"/>
  <circle cx="539.4" cy="248.18" r="1.82" fill="#2f9e6b" opacity="0.5"/>
  <line x1="539.4" y1="248.18" x2="538.84" y2="216.26" stroke="#56c26a" stroke-width="0.5" opacity="0.21"/>
  <circle cx="538.84" cy="216.26" r="2.63" fill="#2f9e6b" opacity="0.5"/>
  <line x1="539.4" y1="248.18" x2="559.92" y2="223.73" stroke="#56c26a" stroke-width="0.5" opacity="0.21"/>
  <circle cx="559.92" cy="223.73" r="3.24" fill="#2f9e6b" opacity="0.5"/>
  <line x1="585.86" y1="421.76" x2="640.5" y2="355.95" stroke="#56c26a" stroke-width="2" opacity="0.39"/>
  <line x1="640.5" y1="355.95" x2="660.93" y2="297.85" stroke="#56c26a" stroke-width="1.5" opacity="0.33"/>
  <line x1="660.93" y1="297.85" x2="651.76" y2="254.47" stroke="#56c26a" stroke-width="1" opacity="0.27"/>
  <line x1="651.76" y1="254.47" x2="628.08" y2="233.06" stroke="#56c26a" stroke-width="0.5" opacity="0.21"/>
  <circle cx="628.08" cy="233.06" r="2.22" fill="#2f9e6b" opacity="0.5"/>
  <line x1="651.76" y1="254.47" x2="662.31" y2="224.34" stroke="#56c26a" stroke-width="0.5" opacity="0.21"/>
  <line x1="660.93" y1="297.85" x2="688.58" y2="263.19" stroke="#56c26a" stroke-width="1" opacity="0.27"/>
  <circle cx="688.58" cy="263.19" r="3.17" fill="#2f9e6b" opacity="0.5"/>
  <line x1="688.58" y1="263.19" x2="699" y2="233.01" stroke="#56c26a" stroke-width="0.5" opacity="0.21"/>
  <line x1="688.58" y1="263.19" x2="719.84" y2="256.68" stroke="#56c26a" stroke-width="0.5" opacity="0.21"/>
  <circle cx="719.84" cy="256.68" r="1.78" fill="#2f9e6b" opacity="0.5"/>
  <line x1="640.5" y1="355.95" x2="695.38" y2="328" stroke="#56c26a" stroke-width="1.5" opacity="0.33"/>
  <line x1="695.38" y1="328" x2="712.88" y2="287.25" stroke="#56c26a" stroke-width="1" opacity="0.27"/>
  <circle cx="712.88" cy="287.25" r="1.99" fill="#2f9e6b" opacity="0.5"/>
  <line x1="712.88" y1="287.25" x2="716.09" y2="255.49" stroke="#56c26a" stroke-width="0.5" opacity="0.21"/>
  <line x1="712.88" y1="287.25" x2="740.61" y2="271.43" stroke="#56c26a" stroke-width="0.5" opacity="0.21"/>
  <line x1="695.38" y1="328" x2="739.41" y2="333.22" stroke="#56c26a" stroke-width="1" opacity="0.27"/>
  <circle cx="739.41" cy="333.22" r="2.94" fill="#2f9e6b" opacity="0.5"/>
  <line x1="739.41" y1="333.22" x2="768.83" y2="320.82" stroke="#56c26a" stroke-width="0.5" opacity="0.21"/>
  <line x1="739.41" y1="333.22" x2="765.02" y2="352.3" stroke="#56c26a" stroke-width="0.5" opacity="0.21"/>
  <circle cx="765.02" cy="352.3" r="2.92" fill="#2f9e6b" opacity="0.5"/>
  <path d="M155.72,11.48 C724.94,73.96 611.64,70.25 818.31,121.58" fill="none" stroke="#2f9e6b" stroke-width="1.36" opacity="0.33"/>
  <path d="M148.13,478.6 C730.59,199.45 181.81,135.86 741.26,167.33" fill="none" stroke="#56c26a" stroke-width="1.59" opacity="0.4"/>
  <path d="M258.95,444.73 C525.4,430.29 687.97,181.41 869.41,79.89" fill="none" stroke="#56c26a" stroke-width="2.21" opacity="0.22"/>
  <path d="M228.29,217.56 C317.47,360.13 644.87,176.66 737.86,517.79" fill="none" stroke="#56c26a" stroke-width="2.21" opacity="0.3"/>
  <path d="M39.57,132.72 C117.34,227.67 545.71,411.74 958.89,287.32" fill="none" stroke="#56c26a" stroke-width="1.51" opacity="0.34"/>
  <path d="M249.99,44.31 C24.51,428.94 612.82,9.8 881.53,360.72" fill="none" stroke="#56c26a" stroke-width="1.81" opacity="0.19"/>
  <path d="M91.24,333.65 C239.68,34.47 874.7,429.9 736.09,84.38" fill="none" stroke="#2f9e6b" stroke-width="1.35" opacity="0.38"/>
  <path d="M119.1,536.5 C399.82,400.05 85.08,103.83 724,198.49" fill="none" stroke="#56c26a" stroke-width="2.35" opacity="0.32"/>
  <path d="M84.08,425.24 C418.5,278.2 716.55,316.91 696.05,534.57" fill="none" stroke="#56c26a" stroke-width="1.98" opacity="0.16"/>
  <path d="M28.34,355.06 C215.95,151.82 803.1,375.54 744,51.57" fill="none" stroke="#2f9e6b" stroke-width="2.31" opacity="0.34"/>
</svg>
