<svg xmlns="http://www.w3.org/2000/svg" viewBox="0 0 960 540" width="960" height="540" role="img" aria-label="biology decorative background">
  <defs>
    <radialGradient id="grad-biology-large-04" cx="50%" cy="35%" r="80%">
      <stop offset="0%" stop-color="#56c26a" stop-opacity="0.10"/>
      <stop offset="100%" stop-color="#071508" stop-opacity="0"/>
    </radialGradient>
  </defs>
  <rect width="960" height="540" fill="#071508"/>
  <rect width="960" height="540" fill="url(#grad-biology-large-04)"/>
  <line x1="255.46" y1="540" x2="288.93" y2="426.01" stroke="#56c26a" stroke-width="2.5" opacity="0.45"/>
  <line x1="288.93" y1="426.01" x2="276.91" y2="341.33" stroke="#56c26a" stroke-width="2" opacity="0.39"/>
  <line x1="276.91" y1="341.33" x2="236.34" y2="294.99" stroke="#56c26a" stroke-width="1.5" opacity="0.33"/>
  <line x1="236.34" y1="294.99" x2="196.17" y2="276.21" stroke="#56c26a" stroke-width="1" opacity="0.27"/>
  <line x1="196.17" y1="276.21" x2="164.26" y2="275.33" stroke="#56c26a" stroke-width="0.5" opacity="0.21"/>
  <circle cx="164.26" cy="275.33" r="3.28" fill="#2f9e6b" opacity="0.5"/>
  <line x1="196.17" y1="276.21" x2="181.61" y2="247.8" stroke="#56c26a" stroke-width="0.5" opacity="0.21"/>
  <line x1="236.34" y1="294.99" x2="222.11" y2="253" stroke="#56c26a" stroke-width="1" opacity="0.27"/>
  <circle cx="222.11" cy="253" r="2.12" fill="#2f9e6b" opacity="0.5"/>
  <line x1="222.11" y1="253" x2="195.12" y2="235.94" stroke="#56c26a" stroke-width="0.5" opacity="0.21"/>
  <circle cx="195.12" cy="235.94" r="1.61" fill="#2f9e6b" opacity="0.5"/>
  <line x1="222.11" y1="253" x2="223.22" y2="221.09" stroke="#56c26a" stroke-width="0.5" opacity="0.21"/>
  <line x1="276.91" y1="341.33" x2="287.97" y2="280.74" stroke="#56c26a" stroke-width="1.5" opacity="0.33"/>
  <line x1="287.97" y1="280.74" x2="282.4" y2="236.75" stroke="#56c26a" stroke-width="1" opacity="0.27"/>
  <circle cx="282.4" cy="236.75" r="2.55" fill="#2f9e6b" opacity="0.5"/>
  <line x1="282.4" y1="236.75" x2="260.54" y2="213.49" stroke="#56c26a" stroke-width="0.5" opacity="0.21"/>
  <line x1="282.4" y1="236.75" x2="298.46" y2="209.15" stroke="#56c26a" stroke-width="0.5" opacity="0.21"/>
  <circle cx="298.46" cy="209.15" r="2.61" fill="#2f9e6b" opacity="0.5"/>
  <line x1="287.97" y1="280.74" x2="321.51" y2="251.73" stroke="#56c26a" stroke-width="1" opacity="0.27"/>
  <line x1="321.51" y1="251.73" x2="337.38" y2="224.03" stroke="#56c26a" stroke-width="0.5" opacity="0.21"/>
  <circle cx="337.38" cy="224.03" r="3.16" fill="#2f9e6b" opacity="0.5"/>
  <line x1="321.51" y1="251.73" x2="353.42" y2="250.7" stroke="#56c26a" stroke-width="0.5" opacity="0.21"/>
  <line x1="288.93" y1="426.01" x2="356.17" y2="373.14" stroke="#56c26a" stroke-width="2" opacity="0.39"/>
  <line x1="356.17" y1="373.14" x2="383.65" y2="318.03" stroke="#56c26a" stroke-width="1.5" opacity="0.33"/>
  <line x1="383.65" y1="318.03" x2="380.35" y2="273.81" stroke="#56c26a" stroke-width="1" opacity="0.27"/>
  <circle cx="380.35" cy="273.81" r="3.09" fill="#2f9e6b" opacity="0.5"/>
  <line x1="380.35" y1="273.81" x2="360.62" y2="248.71" stroke="#56c26a" stroke-width="0.5" opacity="0.21"/>
  <circle cx="360.62" cy="248.71" r="3.33" fill="#2f9e6b" opacity="0.5"/>
  <line x1="380.35" y1="273.81" x2="397.79" y2="247.07" stroke="#56c26a" stroke-width="0.5" opacity="0.21"/>
  <line x1="383.65" y1="318.03" x2="421.59" y2="295.08" stroke="#56c26a" stroke-width="1" opacity="0.27"/>
  <circle cx="421.59" cy="295.08" r="3.43" fill="#2f9e6b" opacity="0.5"/>
  <line x1="421.59" y1="295.08" x2="439.97" y2="268.97" stroke="#56c26a" stroke-width="0.5" opacity="0.21"/>
  <circle cx="439.97" cy="268.97" r="2.64" fill="#2f9e6b" opacity="0.5"/>
  <line x1="421.59" y1="295.08" x2="453.31" y2="291.44" stroke="#56c26a" stroke-width="0.5" opacity="0.21"/>
  <circle cx="453.31" cy="291.44" r="2.14" fill="#2f9e6b" opacity="0.5"/>
  <line x1="356.17" y1="373.14" x2="415.33" y2="356.02" stroke="#56c26a" stroke-width="1.5" opacity="0.33"/>
  <line x1="415.33" y1="356.02" x2="440.54" y2="319.55" stroke="#56c26a" stroke-width="1" opacity="0.27"/>
  <circle cx="440.54" cy="319.55" r="2.9" fill="#2f9e6b" opacity="0.5"/>
  <line x1="440.54" y1="319.55" x2="445.79" y2="288.05" stroke="#56c26a" stroke-width="0.5" opacity="0.21"/>
  <circle cx="445.79" cy="288.05" r="3.42" fill="#2f9e6b" opacity="0.5"/>
  <line x1="440.54" y1="319.55" x2="470.31" y2="308.01" stroke="#56c26a" stroke-width="0.5" opacity="0.21"/>
  <line x1="415.33" y1="356.02" x2="459.03" y2="363.53" stroke="#56c26a" stroke-width="1" opacity="0.27"/>
  <circle cx="459.03" cy="363.53" r="2.94" fill="#2f9e6b" opacity="0.5"/>
  <line x1="459.03" y1="363.53" x2="488.77" y2="351.94" stroke="#56c26a" stroke-width="0.5" opacity="0.21"/>
  <circle cx="488.77" cy="351.94" r="1.9" fill="#2f9e6b" opacity="0.5"/>
  <line x1="459.03" y1="363.53" x2="484.68" y2="382.53" stroke="#56c26a" stroke-width="0.5" opacity="0.21"/>
  <line x1="482.62" y1="540" x2="481.5" y2="421.21" stroke="#56c26a" stroke-width="2.5" opacity="0.45"/>
  <line x1="481.5" y1="421.21" x2="437.31" y2="347.96" stroke="#56c26a" stroke-width="2" opacity="0.39"/>
  <line x1="437.31" y1="347.96" x2="384.72" y2="315.92" stroke="#56c26a" stroke-width="1.5" opacity="0.33"/>
  <line x1="384.72" y1="315.92" x2="340.45" y2="318.42" stroke="#56c26a" stroke-width="1" opacity="0.27"/>
  <line x1="340.45" y1="318.42" x2="311.62" y2="332.14" stroke="#56c26a" stroke-width="0.5" opacity="0.21"/>
  <line x1="340.45" y1="318.42" x2="310.4" y2="307.63" stroke="#56c26a" stroke-width="0.5" opacity="0.21"/>
  <circle cx="310.4" cy="307.63" r="2.49" fill="#2f9e6b" opacity="0.5"/>
  <line x1="384.72" y1="315.92" x2="357.28" y2="281.09" stroke="#56c26a" stroke-width="1" opacity="0.27"/>
  <line x1="357.28" y1="281.09" x2="328.34" y2="267.62" stroke="#56c26a" stroke-width="0.5" opacity="0.21"/>
  <circle cx="328.34" cy="267.62" r="2.89" fill="#2f9e6b" opacity="0.5"/>
  <line x1="357.28" y1="281.09" x2="352.23" y2="249.56" stroke="#56c26a" stroke-width="0.5" opacity="0.21"/>
  <circle cx="352.23" cy="249.56" r="2.38" fill="#2f9e6b" opacity="0.5"/>
  <line x1="437.31" y1="347.96" x2="443.73" y2="286.71" stroke="#56c26a" stroke-width="1.5" opacity="0.33"/>
  <line x1="443.73" y1="286.71" x2="434.39" y2="243.37" stroke="#56c26a" stroke-width="1" opacity="0.27"/>
  <circle cx="434.39" cy="243.37" r="2.64" fill="#2f9e6b" opacity="0.5"/>
  <line x1="434.39" y1="243.37" x2="410.63" y2="222.04" stroke="#56c26a" stroke-width="0.5" opacity="0.21"/>
  <line x1="434.39" y1="243.37" x2="437.96" y2="211.64" stroke="#56c26a" stroke-width="0.5" opacity="0.21"/>
  <circle cx="437.96" cy="211.64" r="3.11" fill="#2f9e6b" opacity="0.5"/>
  <line x1="443.73" y1="286.71" x2="470.6" y2="251.44" stroke="#56c26a" stroke-width="1" opacity="0.27"/>
  <circle cx="470.6" cy="251.44" r="1.61" fill="#2f9e6b" opacity="0.5"/>
  <line x1="470.6" y1="251.44" x2="469.44" y2="219.53" stroke="#56c26a" stroke-width="0.5" opacity="0.21"/>
  <circle cx="469.44" cy="219.53" r="1.96" fill="#2f9e6b" opacity="0.5"/>
  <line x1="470.6" y1="251.44" x2="497.75" y2="234.63" stroke="#56c26a" stroke-width="0.5" opacity="0.21"/>
  <circle cx="497.75" cy="234.63" r="2.56" fill="#2f9e6b" opacity="0.5"/>
  <line x1="481.5" y1="421.21" x2="514.78" y2="342.41" stroke="#56c26a" stroke-width="2" opacity="0.39"/>
  <line x1="514.78" y1="342.41" x2="502.51" y2="282.06" stroke="#56c26a" stroke-width="1.5" opacity="0.33"/>
  <line x1="502.51" y1="282.06" x2="477.05" y2="245.76" stroke="#56c26a" stroke-width="1" opacity="0.27"/>
  <line x1="477.05" y1="245.76" x2="450.11" y2="228.62" stroke="#56c26a" stroke-width="0.5" opacity="0.21"/>
  <circle cx="450.11" cy="228.62" r="2.67" fill="#2f9e6b" opacity="0.5"/>
  <line x1="477.05" y1="245.76" x2="478.5" y2="213.87" stroke="#56c26a" stroke-width="0.5" opacity="0.21"/>
  <circle cx="478.5" cy="213.87" r="2.05" fill="#2f9e6b" opacity="0.5"/>
  <line x1="502.51" y1="282.06" x2="516.6" y2="240.02" stroke="#56c26a" stroke-width="1" opacity="0.27"/>
  <line x1="516.6" y1="240.02" x2="510.99" y2="208.59" stroke="#56c26a" stroke-width="0.5" opacity="0.21"/>
  <line x1="516.6" y1="240.02" x2="542.15" y2="220.88" stroke="#56c26a" stroke-width="0.5" opacity="0.21"/>
  <circle cx="542.15" cy="220.88" r="2.99" fill="#2f9e6b" opacity="0.5"/>
  <line x1="514.78" y1="342.41" x2="563.49" y2="304.72" stroke="#56c26a" stroke-width="1.5" opacity="0.33"/>
  <line x1="563.49" y1="304.72" x2="573.25" y2="261.47" stroke="#56c26a" stroke-width="1" opacity="0.27"/>
  <circle cx="573.25" cy="261.47" r="2.55" fill="#2f9e6b" opacity="0.5"/>
  <line x1="573.25" y1="261.47" x2="568.31" y2="229.92" stroke="#56c26a" stroke-width="0.5" opacity="0.21"/>
  <circle cx="568.31" cy="229.92" r="2.96" fill="#2f9e6b" opacity="0.5"/>
  <line x1="573.25" y1="261.47" x2="598.35" y2="241.73" stroke="#56c26a" stroke-width="0.5" opacity="0.21"/>
  <circle cx="598.35" cy="241.73" r="1.84" fill="#2f9e6b" opacity="0.5"/>
  <line x1="563.49" y1="304.72" x2="607.62" y2="300.38" stroke="#56c26a" stroke-width="1" opacity="0.27"/>
  <line x1="607.62" y1="300.38" x2="634.96" y2="283.89" stroke="#56c26a" stroke-width="0.5" opacity="0.21"/>
  <line x1="607.62" y1="300.38" x2="638.16" y2="309.66" stroke="#56c26a" stroke-width="0.5" opacity="0.21"/>
  <circle cx="638.16" cy="309.66" r="3.14" fill="#2f9e6b" opacity="0.5"/>
  <line x1="536.47" y1="540" x2="538.74" y2="421.22" stroke="#56c26a" stroke-width="2.5" opacity="0.45"/>
  <line x1="538.74" y1="421.22" x2="503.76" y2="343.17" stroke="#56c26a" stroke-width="2" opacity="0.39"/>
  <line x1="503.76" y1="343.17" x2="452.36" y2="309.24" stroke="#56c26a" stroke-width="1.5" opacity="0.33"/>
  <line x1="452.36" y1="309.24" x2="408.18" y2="313.06" stroke="#56c26a" stroke-width="1" opacity="0.27"/>
  <circle cx="408.18" cy="313.06" r="3.17" fill="#2f9e6b" opacity="0.5"/>
  <line x1="408.18" y1="313.06" x2="380.92" y2="329.67" stroke="#56c26a" stroke-width="0.5" opacity="0.21"/>
  <line x1="408.18" y1="313.06" x2="378.33" y2="301.73" stroke="#56c26a" stroke-width="0.5" opacity="0.21"/>
  <circle cx="378.33" cy="301.73" r="3.36" fill="#2f9e6b" opacity="0.5"/>
  <line x1="452.36" y1="309.24" x2="434.93" y2="268.47" stroke="#56c26a" stroke-width="1" opacity="0.27"/>
  <circle cx="434.93" cy="268.47" r="1.64" fill="#2f9e6b" opacity="0.5"/>
  <line x1="434.93" y1="268.47" x2="410.06" y2="248.44" stroke="#56c26a" stroke-width="0.5" opacity="0.21"/>
  <circle cx="410.06" cy="248.44" r="3.26" fill="#2f9e6b" opacity="0.5"/>
  <line x1="434.93" y1="268.47" x2="438.21" y2="236.71" stroke="#56c26a" stroke-width="0.5" opacity="0.21"/>
  <line x1="503.76" y1="343.17" x2="517.84" y2="283.21" stroke="#56c26a" stroke-width="1.5" opacity="0.33"/>
  <line x1="517.84" y1="283.21" x2="513.14" y2="239.12" stroke="#56c26a" stroke-width="1" opacity="0.27"/>
  <circle cx="513.14" cy="239.12" r="2.74" fill="#2f9e6b" opacity="0.5"/>
  <line x1="513.14" y1="239.12" x2="500.31" y2="209.88" stroke="#56c26a" stroke-width="0.5" opacity="0.21"/>
  <circle cx="500.31" cy="209.88" r="1.57" fill="#2f9e6b" opacity="0.5"/>
  <line x1="513.14" y1="239.12" x2="524.02" y2="209.1" stroke="#56c26a" stroke-width="0.5" opacity="0.21"/>
  <circle cx="524.02" cy="209.1" r="2.18" fill="#2f9e6b" opacity="0.5"/>
  <line x1="517.84" y1="283.21" x2="547.75" y2="250.48" stroke="#56c26a" stroke-width="1" opacity="0.27"/>
  <circle cx="547.75" cy="250.48" r="2.99" fill="#2f9e6b" opacity="0.5"/>
  <line x1="547.75" y1="250.48" x2="557.66" y2="220.13" stroke="#56c26a" stroke-width="0.5" opacity="0.21"/>
  <circle cx="557.66" cy="220.13" r="3.36" fill="#2f9e6b" opacity="0.5"/>
  <line x1="547.75" y1="250.48" x2="579.32" y2="245.73" stroke="#56c26a" stroke-width="0.5" opacity="0.21"/>
  <circle cx="579.32" cy="245.73" r="1.62" fill="#2f9e6b" opacity="0.5"/>
  <line x1="538.74" y1="421.22" x2="591.32" y2="353.75" stroke="#56c26a" stroke-width="2" opacity="0.39"/>
  <line x1="591.32" y1="353.75" x2="595.98" y2="292.34" stroke="#56c26a" stroke-width="1.5" opacity="0.33"/>
  <line x1="595.98" y1="292.34" x2="581.39" y2="250.47" stroke="#56c26a" stroke-width="1" opacity="0.27"/>
  <circle cx="581.39" cy="250.47" r="2.66" fill="#2f9e6b" opacity="0.5"/>
  <line x1="581.39" y1="250.47" x2="554.75" y2="232.87" stroke="#56c26a" stroke-width="0.5" opacity="0.21"/>
  <circle cx="554.75" cy="232.87" r="2.37" fill="#2f9e6b" opacity="0.5"/>
  <line x1="581.39" y1="250.47" x2="583.97" y2="218.65" stroke="#56c26a" stroke-width="0.5" opacity="0.21"/>
  <circle cx="583.97" cy="218.65" r="1.6" fill="#2f9e6b" opacity="0.5"/>
  <line x1="595.98" y1="292.34" x2="626.95" y2="260.61" stroke="#56c26a" stroke-width="1" opacity="0.27"/>
  <circle cx="626.95" cy="260.61" r="2.32" fill="#2f9e6b" opacity="0.5"/>
  <line x1="626.95" y1="260.61" x2="632.67" y2="229.2" stroke="#56c26a" stroke-width="0.5" opacity="0.21"/>
  <circle cx="632.67" cy="229.2" r="1.69" fill="#2f9e6b" opacity="0.5"/>
  <line x1="626.95" y1="260.61" x2="655.31" y2="245.94" stroke="#56c26a" stroke-width="0.5" opacity="0.21"/>
  <circle cx="655.31" cy="245.94" r="2.13" fill="#2f9e6b" opacity="0.5"/>
  <line x1="591.32" y1="353.75" x2="648.83" y2="331.72" stroke="#56c26a" stroke-width="1.5" opacity="0.33"/>
  <line x1="648.83" y1="331.72" x2="671.16" y2="293.41" stroke="#56c26a" stroke-width="1" opacity="0.27"/>
  <circle cx="671.16" cy="293.41" r="1.52" fill="#2f9e6b" opacity="0.5"/>
  <line x1="671.16" y1="293.41" x2="670.98" y2="261.49" stroke="#56c26a" stroke-width="0.5" opacity="0.21"/>
  <line x1="671.16" y1="293.41" x2="697.3" y2="275.08" stroke="#56c26a" stroke-width="0.5" opacity="0.21"/>
  <line x1="648.83" y1="331.72" x2="692.69" y2="338.19" stroke="#56c26a" stroke-width="1" opacity="0.27"/>
  <line x1="692.69" y1="338.19" x2="722.31" y2="326.27" stroke="#56c26a" stroke-width="0.5" opacity="0.21"/>
  <circle cx="722.31" cy="326.27" r="2.67" fill="#2f9e6b" opacity="0.5"/>
  <line x1="692.69" y1="338.19" x2="715.47" y2="360.56" stroke="#56c26a" stroke-width="0.5" opacity="0.21"/>
  <path d="M238.2,406.54 C238.11,412.42 232.17,422.32 226.66,425.58 C221.15,428.83 210.69,429.24 205.16,426.06 C199.63,422.89 193.29,413.01 193.48,406.54 C193.67,400.06 200.7,389.93 206.32,387.21 C211.94,384.5 221.88,387.02 227.19,390.25 C232.51,393.47 238.29,400.65 238.2,406.54 Z" fill="#a3d977" opacity="0.1"/>
  <path d="M238.2,406.54 C238.11,412.42 232.17,422.32 226.66,425.58 C221.15,428.83 210.69,429.24 205.16,426.06 C199.63,422.89 193.29,413.01 193.48,406.54 C193.67,400.06 200.7,389.93 206.32,387.21 C211.94,384.5 221.88,387.02 227.19,390.25 C232.51,393.47 238.29,400.65 238.2,406.54 Z" fill="none" stroke="#56c26a" stroke-width="1" opacity="0.3"/>
  <circle cx="216.32" cy="406.54" r="5.65" fill="#2f9e6b" opacity="0.4"/>
  <path d="M796.76,171.89 C796.75,175.53 793.63,180.81 790.84,183.37 C788.04,185.93 783.39,188.2 779.99,187.27 C776.59,186.33 771.8,181.4 770.46,177.74 C769.11,174.09 770.39,168.63 771.91,165.35 C773.44,162.07 776.44,158.7 779.61,158.06 C782.77,157.41 788.04,159.18 790.9,161.48 C793.76,163.79 796.77,168.24 796.76,171.89 Z" fill="#a3d977" opacity="0.1"/>
  <path d="M796.76,171.89 C796.75,175.53 793.63,180.81 790.84,183.37 C788.04,185.93 783.39,188.2 779.99,187.27 C776.59,186.33 771.8,181.4 770.46,177.74 C769.11,174.09 770.39,168.63 771.91,165.35 C773.44,162.07 776.44,158.7 779.61,158.06 C782.77,157.41 788.04,159.18 790.9,161.48 C793.76,163.79 796.77,168.24 796.76,171.89 Z" fill="none" stroke="#56c26a" stroke-width="1" opacity="0.3"/>
  <circle cx="783.11" cy="171.89" r="3.85" fill="#2f9e6b" opacity="0.4"/>
  <path d="M429.57,433.84 C429.61,439.88 424.68,449.4 419.68,452.19 C414.67,454.98 404.67,453.64 399.54,450.58 C394.4,447.52 388.86,439.19 388.87,433.84 C388.89,428.5 394.52,421.5 399.62,418.52 C404.72,415.54 414.46,413.41 419.46,415.97 C424.45,418.52 429.54,427.8 429.57,433.84 Z" fill="#a3d977" opacity="0.1"/>
  <path d="M429.57,433.84 C429.61,439.88 424.68,449.4 419.68,452.19 C414.67,454.98 404.67,453.64 399.54,450.58 C394.4,447.52 388.86,439.19 388.87,433.84 C388.89,428.5 394.52,421.5 399.62,418.52 C404.72,415.54 414.46,413.41 419.46,415.97 C424.45,418.52 429.54,427.8 429.57,433.84 Z" fill="none" stroke="#56c26a" stroke-width="1" opacity="0.3"/>
  <circle cx="408.35" cy="433.84" r="5.52" fill="#2f9e6b" opacity="0.4"/>
  <path d="M320.07,289.67 C320.86,297.27 321.78,305.01 317.92,310.29 C314.06,315.57 304.12,319.69 296.92,321.36 C289.73,323.03 281.25,323.74 274.73,320.3 C268.22,316.85 260.52,307.56 257.82,300.67 C255.11,293.78 256.32,285.77 258.52,278.96 C260.72,272.14 264.63,263.42 271.03,259.76 C277.44,256.09 289.94,256.14 296.96,256.97 C303.98,257.8 309.31,259.29 313.17,264.74 C317.02,270.19 319.28,282.08 320.07,289.67 Z" fill="#a3d977" opacity="0.1"/>
  <path d="M320.07,289.67 C320.86,297.27 321.78,305.01 317.92,310.29 C314.06,315.57 304.12,319.69 296.92,321.36 C289.73,323.03 281.25,323.74 274.73,320.3 C268.22,316.85 260.52,307.56 257.82,300.67 C255.11,293.78 256.32,285.77 258.52,278.96 C260.72,272.14 264.63,263.42 271.03,259.76 C277.44,256.09 289.94,256.14 296.96,256.97 C303.98,257.8 309.31,259.29 313.17,264.74 C317.02,270.19 319.28,282.08 320.07,289.67 Z" fill="none" stroke="#56c26a" stroke-width="1" opacity="0.3"/>
  <circle cx="290.32" cy="289.67" r="9.75" fill="#2f9e6b" opacity="0.4"/>
  <path d="M411.46,280.14 C411.31,284.93 409.18,289.2 405.78,292.55 C402.37,295.91 395.88,299.83 391.04,300.29 C386.2,300.75 380.17,298.67 376.74,295.31 C373.31,291.96 370.73,285.4 370.46,280.14 C370.18,274.88 371.68,267.19 375.11,263.75 C378.54,260.31 385.78,259.47 391.04,259.47 C396.3,259.48 403.27,260.33 406.67,263.78 C410.08,267.22 411.61,275.34 411.46,280.14 Z" fill="#a3d977" opacity="0.1"/>
  <path d="M411.46,280.14 C411.31,284.93 409.18,289.2 405.78,292.55 C402.37,295.91 395.88,299.83 391.04,300.29 C386.2,300.75 380.17,298.67 376.74,295.31 C373.31,291.96 370.73,285.4 370.46,280.14 C370.18,274.88 371.68,267.19 375.11,263.75 C378.54,260.31 385.78,259.47 391.04,259.47 C396.3,259.48 403.27,260.33 406.67,263.78 C410.08,267.22 411.61,275.34 411.46,280.14 Z" fill="none" stroke="#56c26a" stroke-width="1" opacity="0.3"/>
  <circle cx="391.04" cy="280.14" r="5.77" fill="#2f9e6b" opacity="0.4"/>
  <path d="M206.33,217.38 C206.95,222.38 203.86,228.52 200.02,232.14 C196.18,235.77 189.24,237.81 183.3,239.12 C177.36,240.43 168.68,242.07 164.39,240.02 C160.11,237.97 159.64,231.86 157.6,226.83 C155.56,221.8 150.57,215.65 152.15,209.83 C153.74,204 161.99,194.63 167.11,191.89 C172.22,189.15 177.96,191.69 182.82,193.4 C187.69,195.12 192.39,198.16 196.31,202.16 C200.23,206.16 205.71,212.39 206.33,217.38 Z" fill="#a3d977" opacity="0.1"/>
  <path d="M206.33,217.38 C206.95,222.38 203.86,228.52 200.02,232.14 C196.18,235.77 189.24,237.81 183.3,239.12 C177.36,240.43 168.68,242.07 164.39,240.02 C160.11,237.97 159.64,231.86 157.6,226.83 C155.56,221.8 150.57,215.65 152.15,209.83 C153.74,204 161.99,194.63 167.11,191.89 C172.22,189.15 177.96,191.69 182.82,193.4 C187.69,195.12 192.39,198.16 196.31,202.16 C200.23,206.16 205.71,212.39 206.33,217.38 Z" fill="none" stroke="#56c26a" stroke-width="1" opacity="0.3"/>
  <circle cx="179.02" cy="217.38" r="7.21" fill="#2f9e6b" opacity="0.4"/>
  <path d="M494.64,263.89 C494.07,271.03 491.47,279.01 487.56,283.97 C483.65,288.92 478.02,291.78 471.19,293.63 C464.35,295.48 452.75,298.21 446.54,295.05 C440.32,291.89 436.27,281.63 433.89,274.65 C431.52,267.68 429.72,260.59 432.27,253.2 C434.82,245.8 442.78,233.6 449.21,230.29 C455.63,226.98 463.87,231.53 470.83,233.34 C477.8,235.15 487.02,236.05 490.99,241.15 C494.96,246.24 495.21,256.75 494.64,263.89 Z" fill="#a3d977" opacity="0.1"/>
  <path d="M494.64,263.89 C494.07,271.03 491.47,279.01 487.56,283.97 C483.65,288.92 478.02,291.78 471.19,293.63 C464.35,295.48 452.75,298.21 446.54,295.05 C440.32,291.89 436.27,281.63 433.89,274.65 C431.52,267.68 429.72,260.59 432.27,253.2 C434.82,245.8 442.78,233.6 449.21,230.29 C455.63,226.98 463.87,231.53 470.83,233.34 C477.8,235.15 487.02,236.05 490.99,241.15 C494.96,246.24 495.21,256.75 494.64,263.89 Z" fill="none" stroke="#56c26a" stroke-width="1" opacity="0.3"/>
  <circle cx="464.59" cy="263.89" r="9.6" fill="#2f9e6b" opacity="0.4"/>
  <path d="M374,116.75 C374.17,124.29 366.74,131.93 360.91,137.15 C355.08,142.37 346.3,147.34 339.01,148.06 C331.72,148.79 322.45,146.73 317.19,141.51 C311.93,136.29 307.87,124.32 307.45,116.75 C307.03,109.18 309.38,102.07 314.64,96.08 C319.9,90.1 331.47,81.55 339.01,80.86 C346.55,80.17 354.05,85.95 359.88,91.94 C365.71,97.92 373.83,109.21 374,116.75 Z" fill="#a3d977" opacity="0.1"/>
  <path d="M374,116.75 C374.17,124.29 366.74,131.93 360.91,137.15 C355.08,142.37 346.3,147.34 339.01,148.06 C331.72,148.79 322.45,146.73 317.19,141.51 C311.93,136.29 307.87,124.32 307.45,116.75 C307.03,109.18 309.38,102.07 314.64,96.08 C319.9,90.1 331.47,81.55 339.01,80.86 C346.55,80.17 354.05,85.95 359.88,91.94 C365.71,97.92 373.83,109.21 374,116.75 Z" fill="none" stroke="#56c26a" stroke-width="1" opacity="0.3"/>
  <circle cx="339.01" cy="116.75" r="8.98" fill="#2f9e6b" opacity="0.4"/>
  <path d="M712.87,152.62 C712.63,164.1 701.14,180.78 691.8,186.52 C682.47,192.25 665.16,192.66 656.87,187.02 C648.57,181.37 641.93,163.86 642.04,152.62 C642.16,141.38 649.04,125.4 657.57,119.58 C666.11,113.75 684.05,112.16 693.26,117.66 C702.48,123.17 713.11,141.15 712.87,152.62 Z" fill="#a3d977" opacity="0.1"/>
  <path d="M712.87,152.62 C712.63,164.1 701.14,180.78 691.8,186.52 C682.47,192.25 665.16,192.66 656.87,187.02 C648.57,181.37 641.93,163.86 642.04,152.62 C642.16,141.38 649.04,125.4 657.57,119.58 C666.11,113.75 684.05,112.16 693.26,117.66 C702.48,123.17 713.11,141.15 712.87,152.62 Z" fill="none" stroke="#56c26a" stroke-width="1" opacity="0.3"/>
  <circle cx="673.62" cy="152.62" r="10.16" fill="#2f9e6b" opacity="0.4"/>
  <path d="M434.34,277.48 C434.13,283.83 427.8,292.21 422.04,295.87 C416.28,299.52 405.05,302.47 399.75,299.4 C394.45,296.34 390.15,284.43 390.24,277.48 C390.34,270.52 394.82,260.96 400.33,257.68 C405.84,254.39 417.63,254.47 423.3,257.77 C428.97,261.07 434.55,271.13 434.34,277.48 Z" fill="#a3d977" opacity="0.1"/>
  <path d="M434.34,277.48 C434.13,283.83 427.8,292.21 422.04,295.87 C416.28,299.52 405.05,302.47 399.75,299.4 C394.45,296.34 390.15,284.43 390.24,277.48 C390.34,270.52 394.82,260.96 400.33,257.68 C405.84,254.39 417.63,254.47 423.3,257.77 C428.97,261.07 434.55,271.13 434.34,277.48 Z" fill="none" stroke="#56c26a" stroke-width="1" opacity="0.3"/>
  <circle cx="411.04" cy="277.48" r="6.62" fill="#2f9e6b" opacity="0.4"/>
  <path d="M500.11,201.28 C499.77,206 494.35,210.42 490.91,214.31 C487.47,218.21 483.69,223.97 479.48,224.65 C475.27,225.32 469.77,221.03 465.66,218.35 C461.55,215.66 456.09,212.58 454.82,208.52 C453.54,204.45 456.36,198.26 458.03,193.97 C459.7,189.68 461.17,185.22 464.83,182.76 C468.49,180.29 475.29,178.65 479.98,179.2 C484.67,179.74 489.62,182.34 492.97,186.03 C496.33,189.71 500.46,196.57 500.11,201.28 Z" fill="#a3d977" opacity="0.1"/>
  <path d="M500.11,201.28 C499.77,206 494.35,210.42 490.91,214.31 C487.47,218.21 483.69,223.97 479.48,224.65 C475.27,225.32 469.77,221.03 465.66,218.35 C461.55,215.66 456.09,212.58 454.82,208.52 C453.54,204.45 456.36,198.26 458.03,193.97 C459.7,189.68 461.17,185.22 464.83,182.76 C468.49,180.29 475.29,178.65 479.98,179.2 C484.67,179.74 489.62,182.34 492.97,186.03 C496.33,189.71 500.46,196.57 500.11,201.28 Z" fill="none" stroke="#56c26a" stroke-width="1" opacity="0.3"/>
  <circle cx="475.87" cy="201.28" r="5.98" fill="#2f9e6b" opacity="0.4"/>
  <path d="M462.43,453.66 C462.74,459.31 459.98,466.52 456.11,470.53 C452.24,474.55 444.71,476.69 439.22,477.73 C433.73,478.77 427.65,479.47 423.16,476.75 C418.68,474.03 413.7,466.6 412.33,461.42 C410.96,456.24 413.5,450.25 414.93,445.68 C416.36,441.12 416.9,436.49 420.9,434.03 C424.91,431.57 433.41,430.49 438.96,430.93 C444.52,431.36 450.33,432.83 454.24,436.62 C458.15,440.41 462.12,448 462.43,453.66 Z" fill="#a3d977" opacity="0.1"/>
  <path d="M462.43,453.66 C462.74,459.31 459.98,466.52 456.11,470.53 C452.24,474.55 444.71,476.69 439.22,477.73 C433.73,478.77 427.65,479.47 423.16,476.75 C418.68,474.03 413.7,466.6 412.33,461.42 C410.96,456.24 413.5,450.25 414.93,445.68 C416.36,441.12 416.9,436.49 420.9,434.03 C424.91,431.57 433.41,430.49 438.96,430.93 C444.52,431.36 450.33,432.83 454.24,436.62 C458.15,440.41 462.12,448 462.43,453.66 Z" fill="none" stroke="#56c26a" stroke-width="1" opacity="0.3"/>
  <circle cx="435.01" cy="453.66" r="6.99" fill="#2f9e6b" opacity="0.4"/>
  <path d="M227.14,435.88 C226.65,443.91 223,452.75 218.04,457.91 C213.08,463.08 204.46,466.95 197.4,466.9 C190.34,466.84 181.26,462.74 175.67,457.57 C170.08,452.4 163.52,442.94 163.87,435.88 C164.21,428.82 172.17,421.33 177.76,415.2 C183.35,409.06 190.2,400 197.4,399.09 C204.6,398.17 216.01,403.59 220.97,409.72 C225.93,415.85 227.63,427.85 227.14,435.88 Z" fill="#a3d977" opacity="0.1"/>
  <path d="M227.14,435.88 C226.65,443.91 223,452.75 218.04,457.91 C213.08,463.08 204.46,466.95 197.4,466.9 C190.34,466.84 181.26,462.74 175.67,457.57 C170.08,452.4 163.52,442.94 163.87,435.88 C164.21,428.82 172.17,421.33 177.76,415.2 C183.35,409.06 190.2,400 197.4,399.09 C204.6,398.17 216.01,403.59 220.97,409.72 C225.93,415.85 227.63,427.85 227.14,435.88 Z" fill="none" stroke="#56c26a" stroke-width="1" opacity="0.3"/>
  <circle cx="197.4" cy="435.88" r="9.08" fill="#2f9e6b" opacity="0.4"/>
  <path d="M857.48,297.04 C857.53,305.58 851.34,318.08 844.88,323.76 C838.42,329.44 826.12,333.36 818.72,331.09 C811.33,328.83 804.44,318.13 800.51,310.16 C796.58,302.19 792.11,290.68 795.17,283.28 C798.22,275.88 810.59,267.58 818.83,265.78 C827.07,263.98 838.16,267.29 844.6,272.5 C851.05,277.71 857.44,288.49 857.48,297.04 Z" fill="#a3d977" opacity="0.1"/>
  <path d="M857.48,297.04 C857.53,305.58 851.34,318.08 844.88,323.76 C838.42,329.44 826.12,333.36 818.72,331.09 C811.33,328.83 804.44,318.13 800.51,310.16 C796.58,302.19 792.11,290.68 795.17,283.28 C798.22,275.88 810.59,267.58 818.83,265.78 C827.07,263.98 838.16,267.29 844.6,272.5 C851.05,277.71 857.44,288.49 857.48,297.04 Z" fill="none" stroke="#56c26a" stroke-width="1" opacity="0.3"/>
  <circle cx="825.75" cy="297.04" r="8.97" fill="#2f9e6b" opacity="0.4"/>
  <path d="M733.33,353.86 C733.16,359.79 728.21,366.19 724.03,370.57 C719.84,374.95 714.27,379.83 708.22,380.12 C702.17,380.42 692.39,376.71 687.73,372.33 C683.06,367.95 679.62,359.89 680.23,353.86 C680.84,347.82 686.71,339.92 691.37,336.11 C696.04,332.3 702.62,331.19 708.22,331 C713.83,330.81 720.83,331.16 725.01,334.97 C729.2,338.78 733.49,347.92 733.33,353.86 Z" fill="#a3d977" opacity="0.1"/>
  <path d="M733.33,353.86 C733.16,359.79 728.21,366.19 724.03,370.57 C719.84,374.95 714.27,379.83 708.22,380.12 C702.17,380.42 692.39,376.71 687.73,372.33 C683.06,367.95 679.62,359.89 680.23,353.86 C680.84,347.82 686.71,339.92 691.37,336.11 C696.04,332.3 702.62,331.19 708.22,331 C713.83,330.81 720.83,331.16 725.01,334.97 C729.2,338.78 733.49,347.92 733.33,353.86 Z" fill="none" stroke="#56c26a" stroke-width="1" opacity="0.3"/>
  <circle cx="708.22" cy="353.86" r="7.07" fill="#2f9e6b" opacity="0.4"/>
  <path d="M431.4,106.6 C431.34,115.71 422.75,128.22 415.9,133.93 C409.06,139.65 397.81,143.48 390.35,140.9 C382.88,138.31 374.13,126.42 371.11,118.41 C368.09,110.4 369.21,100.01 372.22,92.84 C375.24,85.67 381.88,77.67 389.22,75.4 C396.55,73.13 409.2,74.03 416.23,79.23 C423.26,84.43 431.45,97.48 431.4,106.6 Z" fill="#a3d977" opacity="0.1"/>
  <path d="M431.4,106.6 C431.34,115.71 422.75,128.22 415.9,133.93 C409.06,139.65 397.81,143.48 390.35,140.9 C382.88,138.31 374.13,126.42 371.11,118.41 C368.09,110.4 369.21,100.01 372.22,92.84 C375.24,85.67 381.88,77.67 389.22,75.4 C396.55,73.13 409.2,74.03 416.23,79.23 C423.26,84.43 431.45,97.48 431.4,106.6 Z" fill="none" stroke="#56c26a" stroke-width="1" opacity="0.3"/>
  <circle cx="396.44" cy="106.6" r="8.59" fill="#2f9e6b" opacity="0.4"/>
  <path d="M294.04,332.35 C294.09,335.94 292.03,339.78 289.14,342.18 C286.25,344.58 280.15,347.4 276.68,346.77 C273.22,346.14 269.67,341.95 268.35,338.4 C267.03,334.85 267.28,328.79 268.76,325.47 C270.24,322.16 273.89,319.32 277.24,318.51 C280.6,317.7 286.07,318.32 288.87,320.63 C291.67,322.94 294,328.76 294.04,332.35 Z" fill="#a3d977" opacity="0.1"/>
  <path d="M294.04,332.35 C294.09,335.94 292.03,339.78 289.14,342.18 C286.25,344.58 280.15,347.4 276.68,346.77 C273.22,346.14 269.67,341.95 268.35,338.4 C267.03,334.85 267.28,328.79 268.76,325.47 C270.24,322.16 273.89,319.32 277.24,318.51 C280.6,317.7 286.07,318.32 288.87,320.63 C291.67,322.94 294,328.76 294.04,332.35 Z" fill="none" stroke="#56c26a" stroke-width="1" opacity="0.3"/>
  <circle cx="280.05" cy="332.35" r="4.07" fill="#2f9e6b" opacity="0.4"/>
  <path d="M504.65,307.39 C505.18,317 495.19,329.65 487.35,335.7 C479.5,341.75 466.21,345.57 457.57,343.71 C448.94,341.86 439.77,333.42 435.55,324.57 C431.32,315.73 428.82,298.61 432.21,290.67 C435.6,282.72 447.23,279.03 455.89,276.93 C464.55,274.83 476.05,273 484.17,278.08 C492.3,283.16 504.12,297.79 504.65,307.39 Z" fill="#a3d977" opacity="0.1"/>
  <path d="M504.65,307.39 C505.18,317 495.19,329.65 487.35,335.7 C479.5,341.75 466.21,345.57 457.57,343.71 C448.94,341.86 439.77,333.42 435.55,324.57 C431.32,315.73 428.82,298.61 432.21,290.67 C435.6,282.72 447.23,279.03 455.89,276.93 C464.55,274.83 476.05,273 484.17,278.08 C492.3,283.16 504.12,297.79 504.65,307.39 Z" fill="none" stroke="#56c26a" stroke-width="1" opacity="0.3"/>
  <circle cx="464.88" cy="307.39" r="9.93" fill="#2f9e6b" opacity="0.4"/>
  <path d="M318.93,380.25 C318.75,388.05 311.75,400.25 305.59,404.15 C299.43,408.06 287.84,407.66 281.96,403.68 C276.09,399.69 270.25,387.52 270.34,380.25 C270.42,372.99 276.4,363.91 282.45,360.1 C288.5,356.29 300.58,354.05 306.65,357.41 C312.73,360.77 319.11,372.46 318.93,380.25 Z" fill="#a3d977" opacity="0.1"/>
  <path d="M318.93,380.25 C318.75,388.05 311.75,400.25 305.59,404.15 C299.43,408.06 287.84,407.66 281.96,403.68 C276.09,399.69 270.25,387.52 270.34,380.25 C270.42,372.99 276.4,363.91 282.45,360.1 C288.5,356.29 300.58,354.05 306.65,357.41 C312.73,360.77 319.11,372.46 318.93,380.25 Z" fill="none" stroke="#56c26a" stroke-width="1" opacity="0.3"/>
  <circle cx="295.05" cy="380.25" r="6.86" fill="#2f9e6b" opacity="0.4"/>
  <path d="M140.78,381.76 C140.62,387.11 137.61,396.55 133.42,399.21 C129.23,401.87 119.85,400.65 115.62,397.74 C111.4,394.83 107.8,387.04 108.07,381.76 C108.35,376.48 112.9,368.49 117.28,366.05 C121.66,363.61 130.44,364.5 134.36,367.12 C138.27,369.74 140.93,376.41 140.78,381.76 Z" fill="#a3d977" opacity="0.1"/>
  <path d="M140.78,381.76 C140.62,387.11 137.61,396.55 133.42,399.21 C129.23,401.87 119.85,400.65 115.62,397.74 C111.4,394.83 107.8,387.04 108.07,381.76 C108.35,376.48 112.9,368.49 117.28,366.05 C121.66,363.61 130.44,364.5 134.36,367.12 C138.27,369.74 140.93,376.41 140.78,381.76 Z" fill="none" stroke="#56c26a" stroke-width="1" opacity="0.3"/>
  <circle cx="124.86" cy="381.76" r="4.92" fill="#2f9e6b" opacity="0.4"/>
  <path d="M596.07,74.08 C595.85,79.97 590.36,90.13 584.82,92.97 C579.29,95.81 567.68,94.29 562.85,91.14 C558.03,87.99 555.48,79.75 555.89,74.08 C556.29,68.41 560.22,59.85 565.27,57.12 C570.32,54.38 581.04,54.83 586.17,57.66 C591.31,60.48 596.3,68.19 596.07,74.08 Z" fill="#a3d977" opacity="0.1"/>
  <path d="M596.07,74.08 C595.85,79.97 590.36,90.13 584.82,92.97 C579.29,95.81 567.68,94.29 562.85,91.14 C558.03,87.99 555.48,79.75 555.89,74.08 C556.29,68.41 560.22,59.85 565.27,57.12 C570.32,54.38 581.04,54.83 586.17,57.66 C591.31,60.48 596.3,68.19 596.07,74.08 Z" fill="none" stroke="#56c26a" stroke-width="1" opacity="0.3"/>
  <circle cx="575.03" cy="74.08" r="6.07" fill="#2f9e6b" opacity="0.4"/>
</svg>
