<svg xmlns="http://www.w3.org/2000/svg" viewBox="0 0 960 540" width="960" height="540" role="img" aria-label="biology decorative background">
  <defs>
    <radialGradient id="grad-biology-large-02" cx="50%" cy="35%" r="80%">
      <stop offset="0%" stop-color="#56c26a" stop-opacity="0.10"/>
      <stop offset="100%" stop-color="#071508" stop-opacity="0"/>
    </radialGradient>
  </defs>
  <rect width="960" height="540" fill="#071508"/>
  <rect width="960" height="540" fill="url(#grad-biology-large-02)"/>
  <path d="M274.62,8.22 C819.02,443.99 752.24,91.01 831.29,295.33" fill="none" stroke="#56c26a" stroke-width="1.47" opacity="0.2"/>
  <path d="M269.68,467.54 C601.79,323.38 862.41,526.65 788.49,258.46" fill="none" stroke="#56c26a" stroke-width="1.48" opacity="0.3"/>
  <path d="M156.55,56.06 C174.62,505.83 136.02,80.69 673.22,182.64" fill="none" stroke="#2f9e6b" stroke-width="1.65" opacity="0.25"/>
  <path d="M85.53,106.08 C452.77,289.58 849.18,94.19 931.62,280.19" fill="none" stroke="#2f9e6b" stroke-width="1.22" opacity="0.32"/>
  <path d="M65.16,361.94 C66.25,257.86 765.54,461.08 935.64,421.98" fill="none" stroke="#56c26a" stroke-width="2.27" opacity="0.32"/>
  <path d="M160.95,470.68 C606.5,266.96 49.48,177.46 896.04,167.18" fill="none" stroke="#56c26a" stroke-width="1.9" opacity="0.3"/>
  <path d="M85.69,65.93 C755.62,244.65 497.61,451.67 843.47,370.04" fill="none" stroke="#2f9e6b" stroke-width="1.46" opacity="0.2"/>
  <path d="M105.72,191.06 C923.6,117.2 953.49,218.95 781.5,36.15" fill="none" stroke="#56c26a" stroke-width="1.65" opacity="0.4"/>
  <path d="M62.71,489.93 C59.86,535.92 590.89,107.76 878.04,134.34" fill="none" stroke="#2f9e6b" stroke-width="1.63" opacity="0.18"/>
  <path d="M22.9,453.4 C454.34,170.71 795.56,217.78 957.42,181.98" fill="none" stroke="#2f9e6b" stroke-width="2.09" opacity="0.38"/>
  <path d="M283.99,139.61 C284.14,143.2 280.9,147.61 278.19,150.46 C275.49,153.3 271.49,156.76 267.73,156.68 C263.97,156.59 257.95,152.79 255.63,149.95 C253.31,147.1 253.64,142.87 253.81,139.61 C253.98,136.35 254.33,132.95 256.65,130.4 C258.97,127.84 264.29,124.5 267.73,124.25 C271.17,124.01 274.57,126.35 277.28,128.91 C279.99,131.47 283.83,136.02 283.99,139.61 Z" fill="#a3d977" opacity="0.1"/>
  <path d="M283.99,139.61 C284.14,143.2 280.9,147.61 278.19,150.46 C275.49,153.3 271.49,156.76 267.73,156.68 C263.97,156.59 257.95,152.79 255.63,149.95 C253.31,147.1 253.64,142.87 253.81,139.61 C253.98,136.35 254.33,132.95 256.65,130.4 C258.97,127.84 264.29,124.5 267.73,124.25 C271.17,124.01 274.57,126.35 277.28,128.91 C279.99,131.47 283.83,136.02 283.99,139.61 Z" fill="none" stroke="#56c26a" stroke-width="1" opacity="0.3"/>
  <circle cx="267.73" cy="139.61" r="4.2" fill="#2f9e6b" opacity="0.4"/>
  <path d="M139.15,420.15 C139.58,428.26 134.89,442.09 127.82,446.74 C120.75,451.38 103.39,452.46 96.74,448.03 C90.09,443.6 87.76,429.49 87.9,420.15 C88.04,410.82 91.35,395.71 97.58,392.04 C103.81,388.37 118.33,393.44 125.26,398.12 C132.19,402.81 138.73,412.05 139.15,420.15 Z" fill="#a3d977" opacity="0.1"/>
  <path d="M139.15,420.15 C139.58,428.26 134.89,442.09 127.82,446.74 C120.75,451.38 103.39,452.46 96.74,448.03 C90.09,443.6 87.76,429.49 87.9,420.15 C88.04,410.82 91.35,395.71 97.58,392.04 C103.81,388.37 118.33,393.44 125.26,398.12 C132.19,402.81 138.73,412.05 139.15,420.15 Z" fill="none" stroke="#56c26a" stroke-width="1" opacity="0.3"/>
  <circle cx="112.77" cy="420.15" r="7.98" fill="#2f9e6b" opacity="0.4"/>
  <path d="M138.69,353.1 C138.77,358.57 133.51,367.02 128.61,369.55 C123.7,372.08 113.85,371.01 109.27,368.27 C104.7,365.53 101.4,358.11 101.17,353.1 C100.93,348.08 103.35,340.9 107.84,338.17 C112.34,335.44 122.97,334.24 128.11,336.73 C133.25,339.22 138.6,347.63 138.69,353.1 Z" fill="#a3d977" opacity="0.1"/>
  <path d="M138.69,353.1 C138.77,358.57 133.51,367.02 128.61,369.55 C123.7,372.08 113.85,371.01 109.27,368.27 C104.7,365.53 101.4,358.11 101.17,353.1 C100.93,348.08 103.35,340.9 107.84,338.17 C112.34,335.44 122.97,334.24 128.11,336.73 C133.25,339.22 138.6,347.63 138.69,353.1 Z" fill="none" stroke="#56c26a" stroke-width="1" opacity="0.3"/>
  <circle cx="118.07" cy="353.1" r="5.23" fill="#2f9e6b" opacity="0.4"/>
  <path d="M310.06,357.82 C310.17,361.1 307.43,365.15 304.85,367.45 C302.27,369.75 297.87,371.64 294.59,371.63 C291.31,371.62 287.71,369.71 285.18,367.41 C282.64,365.11 279.35,361.2 279.37,357.82 C279.39,354.44 282.76,349.32 285.29,347.13 C287.83,344.94 291.44,344.58 294.59,344.68 C297.74,344.79 301.62,345.57 304.2,347.75 C306.78,349.94 309.95,354.53 310.06,357.82 Z" fill="#a3d977" opacity="0.1"/>
  <path d="M310.06,357.82 C310.17,361.1 307.43,365.15 304.85,367.45 C302.27,369.75 297.87,371.64 294.59,371.63 C291.31,371.62 287.71,369.71 285.18,367.41 C282.64,365.11 279.35,361.2 279.37,357.82 C279.39,354.44 282.76,349.32 285.29,347.13 C287.83,344.94 291.44,344.58 294.59,344.68 C297.74,344.79 301.62,345.57 304.2,347.75 C306.78,349.94 309.95,354.53 310.06,357.82 Z" fill="none" stroke="#56c26a" stroke-width="1" opacity="0.3"/>
  <circle cx="294.59" cy="357.82" r="3.9" fill="#2f9e6b" opacity="0.4"/>
  <path d="M611.8,100.35 C611.81,109.34 602.59,120.59 594.32,124.74 C586.06,128.9 570.96,129.33 562.22,125.26 C553.47,121.2 541.9,108.67 541.88,100.35 C541.86,92.03 553.36,80.27 562.1,75.34 C570.83,70.42 586.03,66.65 594.31,70.81 C602.6,74.98 611.8,91.36 611.8,100.35 Z" fill="#a3d977" opacity="0.1"/>
  <path d="M611.8,100.35 C611.81,109.34 602.59,120.59 594.32,124.74 C586.06,128.9 570.96,129.33 562.22,125.26 C553.47,121.2 541.9,108.67 541.88,100.35 C541.86,92.03 553.36,80.27 562.1,75.34 C570.83,70.42 586.03,66.65 594.31,70.81 C602.6,74.98 611.8,91.36 611.8,100.35 Z" fill="none" stroke="#56c26a" stroke-width="1" opacity="0.3"/>
  <circle cx="576.79" cy="100.35" r="9.11" fill="#2f9e6b" opacity="0.4"/>
  <path d="M705.45,68.49 C705.38,72.62 700.3,78.36 696.78,80.1 C693.27,81.84 687.67,80.86 684.36,78.92 C681.04,76.99 677.14,72.45 676.88,68.49 C676.63,64.53 679.44,57.35 682.83,55.16 C686.21,52.96 693.41,53.08 697.19,55.3 C700.96,57.53 705.52,64.35 705.45,68.49 Z" fill="#a3d977" opacity="0.1"/>
  <path d="M705.45,68.49 C705.38,72.62 700.3,78.36 696.78,80.1 C693.27,81.84 687.67,80.86 684.36,78.92 C681.04,76.99 677.14,72.45 676.88,68.49 C676.63,64.53 679.44,57.35 682.83,55.16 C686.21,52.96 693.41,53.08 697.19,55.3 C700.96,57.53 705.52,64.35 705.45,68.49 Z" fill="none" stroke="#56c26a" stroke-width="1" opacity="0.3"/>
  <circle cx="690.78" cy="68.49" r="3.95" fill="#2f9e6b" opacity="0.4"/>
  <path d="M379.06,358.1 C378.95,361.85 379.37,367.23 376.87,369.76 C374.38,372.29 368.47,373.06 364.1,373.28 C359.73,373.51 353.25,373.64 350.65,371.11 C348.04,368.58 348.02,362.14 348.47,358.1 C348.92,354.06 350.73,350.17 353.34,346.87 C355.94,343.58 360.07,338.28 364.1,338.34 C368.13,338.41 375.03,343.95 377.53,347.25 C380.02,350.54 379.16,354.35 379.06,358.1 Z" fill="#a3d977" opacity="0.1"/>
  <path d="M379.06,358.1 C378.95,361.85 379.37,367.23 376.87,369.76 C374.38,372.29 368.47,373.06 364.1,373.28 C359.73,373.51 353.25,373.64 350.65,371.11 C348.04,368.58 348.02,362.14 348.47,358.1 C348.92,354.06 350.73,350.17 353.34,346.87 C355.94,343.58 360.07,338.28 364.1,338.34 C368.13,338.41 375.03,343.95 377.53,347.25 C380.02,350.54 379.16,354.35 379.06,358.1 Z" fill="none" stroke="#56c26a" stroke-width="1" opacity="0.3"/>
  <circle cx="364.1" cy="358.1" r="4.92" fill="#2f9e6b" opacity="0.4"/>
  <path d="M232.48,154.48 C232.47,161.31 226.95,171.26 220.22,174.79 C213.49,178.32 198.78,179.05 192.09,175.67 C185.39,172.28 179.69,162.07 180.03,154.48 C180.36,146.88 187.39,133.54 194.09,130.09 C200.8,126.64 213.87,129.72 220.27,133.78 C226.67,137.84 232.49,147.64 232.48,154.48 Z" fill="#a3d977" opacity="0.1"/>
  <path d="M232.48,154.48 C232.47,161.31 226.95,171.26 220.22,174.79 C213.49,178.32 198.78,179.05 192.09,175.67 C185.39,172.28 179.69,162.07 180.03,154.48 C180.36,146.88 187.39,133.54 194.09,130.09 C200.8,126.64 213.87,129.72 220.27,133.78 C226.67,137.84 232.49,147.64 232.48,154.48 Z" fill="none" stroke="#56c26a" stroke-width="1" opacity="0.3"/>
  <circle cx="206.49" cy="154.48" r="7.48" fill="#2f9e6b" opacity="0.4"/>
  <path d="M858.8,277.52 C859.1,281.01 858.73,286.22 856.22,288.51 C853.71,290.81 847.63,292.19 843.74,291.3 C839.86,290.41 834.28,286.34 832.92,283.19 C831.55,280.04 833.75,275.61 835.56,272.4 C837.38,269.2 840.65,264.73 843.79,263.93 C846.93,263.14 851.91,265.35 854.41,267.62 C856.91,269.88 858.5,274.04 858.8,277.52 Z" fill="#a3d977" opacity="0.1"/>
  <path d="M858.8,277.52 C859.1,281.01 858.73,286.22 856.22,288.51 C853.71,290.81 847.63,292.19 843.74,291.3 C839.86,290.41 834.28,286.34 832.92,283.19 C831.55,280.04 833.75,275.61 835.56,272.4 C837.38,269.2 840.65,264.73 843.79,263.93 C846.93,263.14 851.91,265.35 854.41,267.62 C856.91,269.88 858.5,274.04 858.8,277.52 Z" fill="none" stroke="#56c26a" stroke-width="1" opacity="0.3"/>
  <circle cx="846.77" cy="277.52" r="3.83" fill="#2f9e6b" opacity="0.4"/>
  <path d="M704.53,152.48 C704.57,160.19 702.74,172.18 697.12,177.4 C691.51,182.61 678.92,185.59 670.82,183.79 C662.72,182 651.57,173.7 648.51,166.64 C645.45,159.59 648.53,148.32 652.47,141.45 C656.41,134.59 664.74,127.16 672.14,125.45 C679.54,123.74 691.47,126.68 696.87,131.18 C702.26,135.69 704.49,144.78 704.53,152.48 Z" fill="#a3d977" opacity="0.1"/>
  <path d="M704.53,152.48 C704.57,160.19 702.74,172.18 697.12,177.4 C691.51,182.61 678.92,185.59 670.82,183.79 C662.72,182 651.57,173.7 648.51,166.64 C645.45,159.59 648.53,148.32 652.47,141.45 C656.41,134.59 664.74,127.16 672.14,125.45 C679.54,123.74 691.47,126.68 696.87,131.18 C702.26,135.69 704.49,144.78 704.53,152.48 Z" fill="none" stroke="#56c26a" stroke-width="1" opacity="0.3"/>
  <circle cx="677.89" cy="152.48" r="8.2" fill="#2f9e6b" opacity="0.4"/>
  <path d="M675.73,189.42 C676.06,195.83 670.86,206.68 665.2,210.2 C659.54,213.73 647.85,214.03 641.78,210.57 C635.71,207.11 628.69,195.82 628.77,189.42 C628.84,183.02 636.47,175.12 642.21,172.17 C647.96,169.23 657.66,168.87 663.25,171.75 C668.84,174.62 675.41,183.02 675.73,189.42 Z" fill="#a3d977" opacity="0.1"/>
  <path d="M675.73,189.42 C676.06,195.83 670.86,206.68 665.2,210.2 C659.54,213.73 647.85,214.03 641.78,210.57 C635.71,207.11 628.69,195.82 628.77,189.42 C628.84,183.02 636.47,175.12 642.21,172.17 C647.96,169.23 657.66,168.87 663.25,171.75 C668.84,174.62 675.41,183.02 675.73,189.42 Z" fill="none" stroke="#56c26a" stroke-width="1" opacity="0.3"/>
  <circle cx="652.29" cy="189.42" r="6.39" fill="#2f9e6b" opacity="0.4"/>
  <path d="M141.45,142.28 C141.23,145.91 139,150.65 135.91,153.24 C132.81,155.83 126.94,158.51 122.9,157.84 C118.86,157.17 113.21,152.83 111.64,149.22 C110.08,145.62 111.64,139.74 113.51,136.23 C115.39,132.73 118.95,128.96 122.89,128.17 C126.84,127.38 134.1,129.15 137.19,131.5 C140.28,133.85 141.66,138.66 141.45,142.28 Z" fill="#a3d977" opacity="0.1"/>
  <path d="M141.45,142.28 C141.23,145.91 139,150.65 135.91,153.24 C132.81,155.83 126.94,158.51 122.9,157.84 C118.86,157.17 113.21,152.83 111.64,149.22 C110.08,145.62 111.64,139.74 113.51,136.23 C115.39,132.73 118.95,128.96 122.89,128.17 C126.84,127.38 134.1,129.15 137.19,131.5 C140.28,133.85 141.66,138.66 141.45,142.28 Z" fill="none" stroke="#56c26a" stroke-width="1" opacity="0.3"/>
  <circle cx="126.84" cy="142.28" r="4.34" fill="#2f9e6b" opacity="0.4"/>
  <path d="M318.21,221.96 C318.5,231.85 311.74,248.74 303.29,253.53 C294.84,258.31 276.86,255.94 267.5,250.68 C258.15,245.41 246.82,231 247.16,221.96 C247.49,212.93 260.44,201.11 269.51,196.48 C278.58,191.86 293.44,189.99 301.56,194.23 C309.68,198.48 317.93,212.08 318.21,221.96 Z" fill="#a3d977" opacity="0.1"/>
  <path d="M318.21,221.96 C318.5,231.85 311.74,248.74 303.29,253.53 C294.84,258.31 276.86,255.94 267.5,250.68 C258.15,245.41 246.82,231 247.16,221.96 C247.49,212.93 260.44,201.11 269.51,196.48 C278.58,191.86 293.44,189.99 301.56,194.23 C309.68,198.48 317.93,212.08 318.21,221.96 Z" fill="none" stroke="#56c26a" stroke-width="1" opacity="0.3"/>
  <circle cx="285.77" cy="221.96" r="9.48" fill="#2f9e6b" opacity="0.4"/>
  <path d="M593.28,197.93 C593.31,203.2 588.49,210.56 584.24,213.8 C579.99,217.04 572.57,218.66 567.78,217.36 C562.99,216.07 558.18,210.57 555.49,206.02 C552.8,201.47 549.71,195.13 551.64,190.08 C553.57,185.04 561.66,177.08 567.06,175.77 C572.46,174.45 579.67,178.51 584.04,182.2 C588.41,185.89 593.25,192.67 593.28,197.93 Z" fill="#a3d977" opacity="0.1"/>
  <path d="M593.28,197.93 C593.31,203.2 588.49,210.56 584.24,213.8 C579.99,217.04 572.57,218.66 567.78,217.36 C562.99,216.07 558.18,210.57 555.49,206.02 C552.8,201.47 549.71,195.13 551.64,190.08 C553.57,185.04 561.66,177.08 567.06,175.77 C572.46,174.45 579.67,178.51 584.04,182.2 C588.41,185.89 593.25,192.67 593.28,197.93 Z" fill="none" stroke="#56c26a" stroke-width="1" opacity="0.3"/>
  <circle cx="571.54" cy="197.93" r="5.55" fill="#2f9e6b" opacity="0.4"/>
  <path d="M654.7,391.9 C654.67,395.97 652.39,401.68 649.71,403.94 C647.03,406.2 642.33,406.59 638.59,405.47 C634.85,404.35 629.19,400.38 627.25,397.19 C625.31,394.01 625.08,389.39 626.95,386.35 C628.82,383.31 634.66,380.11 638.48,378.97 C642.3,377.83 647.16,377.37 649.87,379.52 C652.57,381.68 654.72,387.83 654.7,391.9 Z" fill="#a3d977" opacity="0.1"/>
  <path d="M654.7,391.9 C654.67,395.97 652.39,401.68 649.71,403.94 C647.03,406.2 642.33,406.59 638.59,405.47 C634.85,404.35 629.19,400.38 627.25,397.19 C625.31,394.01 625.08,389.39 626.95,386.35 C628.82,383.31 634.66,380.11 638.48,378.97 C642.3,377.83 647.16,377.37 649.87,379.52 C652.57,381.68 654.72,387.83 654.7,391.9 Z" fill="none" stroke="#56c26a" stroke-width="1" opacity="0.3"/>
  <circle cx="641.47" cy="391.9" r="3.98" fill="#2f9e6b" opacity="0.4"/>
  <path d="M733.67,374.32 C733.66,378.04 731.74,384.47 728.77,386.56 C725.79,388.64 719.09,388.86 715.82,386.83 C712.55,384.79 709.36,378.56 709.16,374.32 C708.95,370.09 711.31,363.09 714.58,361.41 C717.86,359.73 725.62,362.09 728.8,364.24 C731.98,366.39 733.67,370.6 733.67,374.32 Z" fill="#a3d977" opacity="0.1"/>
  <path d="M733.67,374.32 C733.66,378.04 731.74,384.47 728.77,386.56 C725.79,388.64 719.09,388.86 715.82,386.83 C712.55,384.79 709.36,378.56 709.16,374.32 C708.95,370.09 711.31,363.09 714.58,361.41 C717.86,359.73 725.62,362.09 728.8,364.24 C731.98,366.39 733.67,370.6 733.67,374.32 Z" fill="none" stroke="#56c26a" stroke-width="1" opacity="0.3"/>
  <circle cx="722.01" cy="374.32" r="3.74" fill="#2f9e6b" opacity="0.4"/>
  <path d="M572.38,237.29 C572.79,243.48 568.58,251.96 563.53,255.49 C558.47,259.01 547.5,261.48 542.04,258.45 C536.58,255.42 530.83,243.65 530.75,237.29 C530.67,230.92 536.52,223.4 541.57,220.24 C546.63,217.08 555.94,215.49 561.07,218.33 C566.21,221.18 571.97,231.09 572.38,237.29 Z" fill="#a3d977" opacity="0.1"/>
  <path d="M572.38,237.29 C572.79,243.48 568.58,251.96 563.53,255.49 C558.47,259.01 547.5,261.48 542.04,258.45 C536.58,255.42 530.83,243.65 530.75,237.29 C530.67,230.92 536.52,223.4 541.57,220.24 C546.63,217.08 555.94,215.49 561.07,218.33 C566.21,221.18 571.97,231.09 572.38,237.29 Z" fill="none" stroke="#56c26a" stroke-width="1" opacity="0.3"/>
  <circle cx="551.64" cy="237.29" r="6.09" fill="#2f9e6b" opacity="0.4"/>
  <path d="M419.08,230.99 C419.77,239.55 414.48,253.33 408,259.08 C401.51,264.84 388.42,266.4 380.15,265.52 C371.87,264.63 363.64,259.52 358.35,253.77 C353.06,248.02 349.25,239.44 348.41,230.99 C347.58,222.54 348.05,209.5 353.34,203.09 C358.63,196.68 371.72,191.75 380.15,192.53 C388.57,193.3 397.4,201.33 403.89,207.74 C410.37,214.15 418.4,222.43 419.08,230.99 Z" fill="#a3d977" opacity="0.1"/>
  <path d="M419.08,230.99 C419.77,239.55 414.48,253.33 408,259.08 C401.51,264.84 388.42,266.4 380.15,265.52 C371.87,264.63 363.64,259.52 358.35,253.77 C353.06,248.02 349.25,239.44 348.41,230.99 C347.58,222.54 348.05,209.5 353.34,203.09 C358.63,196.68 371.72,191.75 380.15,192.53 C388.57,193.3 397.4,201.33 403.89,207.74 C410.37,214.15 418.4,222.43 419.08,230.99 Z" fill="none" stroke="#56c26a" stroke-width="1" opacity="0.3"/>
  <circle cx="380.15" cy="230.99" r="9.68" fill="#2f9e6b" opacity="0.4"/>
  <path d="M222.79,291.66 C222.63,295.96 221.54,301.02 218.93,303.92 C216.32,306.83 211.2,308.26 207.12,309.08 C203.05,309.9 197.92,310.63 194.5,308.85 C191.08,307.06 188.62,302.32 186.59,298.39 C184.56,294.45 181.09,289.12 182.32,285.22 C183.54,281.32 189.88,277.21 193.95,274.99 C198.02,272.77 202.42,271.37 206.74,271.89 C211.07,272.41 217.23,274.82 219.9,278.11 C222.58,281.41 222.95,287.36 222.79,291.66 Z" fill="#a3d977" opacity="0.1"/>
  <path d="M222.79,291.66 C222.63,295.96 221.54,301.02 218.93,303.92 C216.32,306.83 211.2,308.26 207.12,309.08 C203.05,309.9 197.92,310.63 194.5,308.85 C191.08,307.06 188.62,302.32 186.59,298.39 C184.56,294.45 181.09,289.12 182.32,285.22 C183.54,281.32 189.88,277.21 193.95,274.99 C198.02,272.77 202.42,271.37 206.74,271.89 C211.07,272.41 217.23,274.82 219.9,278.11 C222.58,281.41 222.95,287.36 222.79,291.66 Z" fill="none" stroke="#56c26a" stroke-width="1" opacity="0.3"/>
  <circle cx="203.39" cy="291.66" r="5.47" fill="#2f9e6b" opacity="0.4"/>
  <path d="M580.2,406.24 C579.51,415.31 570.06,428.92 563.11,434.93 C556.17,440.94 547.14,442.91 538.53,442.3 C529.92,441.69 517.81,437.28 511.46,431.27 C505.1,425.26 500.16,414.17 500.38,406.24 C500.61,398.31 506.43,389.57 512.78,383.69 C519.14,377.81 529.45,371.5 538.53,370.97 C547.6,370.44 560.31,374.64 567.25,380.51 C574.2,386.39 580.89,397.17 580.2,406.24 Z" fill="#a3d977" opacity="0.1"/>
  <path d="M580.2,406.24 C579.51,415.31 570.06,428.92 563.11,434.93 C556.17,440.94 547.14,442.91 538.53,442.3 C529.92,441.69 517.81,437.28 511.46,431.27 C505.1,425.26 500.16,414.17 500.38,406.24 C500.61,398.31 506.43,389.57 512.78,383.69 C519.14,377.81 529.45,371.5 538.53,370.97 C547.6,370.44 560.31,374.64 567.25,380.51 C574.2,386.39 580.89,397.17 580.2,406.24 Z" fill="none" stroke="#56c26a" stroke-width="1" opacity="0.3"/>
  <circle cx="538.53" cy="406.24" r="10.19" fill="#2f9e6b" opacity="0.4"/>
  <path d="M485.2,243.51 C484.49,251.41 479.74,261.43 474.72,266.59 C469.7,271.76 462.09,274.45 455.09,274.5 C448.09,274.55 437.31,272.04 432.72,266.87 C428.13,261.71 427.79,251.32 427.54,243.51 C427.29,235.7 426.61,224.73 431.2,220.02 C435.79,215.3 447.13,215.34 455.09,215.2 C463.04,215.06 473.92,214.45 478.94,219.17 C483.96,223.89 485.9,235.61 485.2,243.51 Z" fill="#a3d977" opacity="0.1"/>
  <path d="M485.2,243.51 C484.49,251.41 479.74,261.43 474.72,266.59 C469.7,271.76 462.09,274.45 455.09,274.5 C448.09,274.55 437.31,272.04 432.72,266.87 C428.13,261.71 427.79,251.32 427.54,243.51 C427.29,235.7 426.61,224.73 431.2,220.02 C435.79,215.3 447.13,215.34 455.09,215.2 C463.04,215.06 473.92,214.45 478.94,219.17 C483.96,223.89 485.9,235.61 485.2,243.51 Z" fill="none" stroke="#56c26a" stroke-width="1" opacity="0.3"/>
  <circle cx="455.09" cy="243.51" r="8.57" fill="#2f9e6b" opacity="0.4"/>
</svg>
