<svg xmlns="http://www.w3.org/2000/svg" viewBox="0 0 960 540" width="960" height="540" role="img" aria-label="biology decorative background">
  <defs>
    <radialGradient id="grad-biology-large-06" cx="50%" cy="35%" r="80%">
      <stop offset="0%" stop-color="#56c26a" stop-opacity="0.10"/>
      <stop offset="100%" stop-color="#071508" stop-opacity="0"/>
    </radialGradient>
  </defs>
  <rect width="960" height="540" fill="#071508"/>
  <rect width="960" height="540" fill="url(#grad-biology-large-06)"/>
  <path d="M718.01,319.76 C718.36,324.95 717.16,331.31 713.53,335.34 C709.9,339.37 701.54,344.06 696.23,343.95 C690.91,343.84 685.9,338.72 681.65,334.69 C677.4,330.65 671.15,324.93 670.72,319.76 C670.29,314.59 674.82,307.32 679.07,303.66 C683.32,300 690.84,297.73 696.23,297.82 C701.61,297.9 707.76,300.5 711.39,304.16 C715.02,307.82 717.65,314.56 718.01,319.76 Z" fill="#a3d977" opacity="0.1"/>
  <path d="M718.01,319.76 C718.36,324.95 717.16,331.31 713.53,335.34 C709.9,339.37 701.54,344.06 696.23,343.95 C690.91,343.84 685.9,338.72 681.65,334.69 C677.4,330.65 671.15,324.93 670.72,319.76 C670.29,314.59 674.82,307.32 679.07,303.66 C683.32,300 690.84,297.73 696.23,297.82 C701.61,297.9 707.76,300.5 711.39,304.16 C715.02,307.82 717.65,314.56 718.01,319.76 Z" fill="none" stroke="#56c26a" stroke-width="1" opacity="0.3"/>
  <circle cx="696.23" cy="319.76" r="6.63" fill="#2f9e6b" opacity="0.4"/>
  <path d="M253.46,327.82 C253.05,333.59 246.11,341.33 241.29,344.87 C236.47,348.41 230.14,350.24 224.57,349.05 C219,347.86 210.73,342.95 207.86,337.74 C204.98,332.53 204.49,323.31 207.31,317.81 C210.12,312.32 218.68,306.02 224.75,304.77 C230.82,303.52 238.94,306.45 243.73,310.29 C248.51,314.13 253.87,322.06 253.46,327.82 Z" fill="#a3d977" opacity="0.1"/>
  <path d="M253.46,327.82 C253.05,333.59 246.11,341.33 241.29,344.87 C236.47,348.41 230.14,350.24 224.57,349.05 C219,347.86 210.73,342.95 207.86,337.74 C204.98,332.53 204.49,323.31 207.31,317.81 C210.12,312.32 218.68,306.02 224.75,304.77 C230.82,303.52 238.94,306.45 243.73,310.29 C248.51,314.13 253.87,322.06 253.46,327.82 Z" fill="none" stroke="#56c26a" stroke-width="1" opacity="0.3"/>
  <circle cx="229.53" cy="327.82" r="6.14" fill="#2f9e6b" opacity="0.4"/>
  <path d="M759.11,86.68 C759.21,91.1 756.4,97.39 752.92,100.63 C749.44,103.87 742.46,107.1 738.21,106.11 C733.96,105.12 729.59,99.02 727.42,94.68 C725.24,90.34 723.41,84.65 725.16,80.06 C726.91,75.47 733.41,68.13 737.94,67.14 C742.47,66.14 748.79,70.84 752.32,74.1 C755.85,77.36 759.01,82.26 759.11,86.68 Z" fill="#a3d977" opacity="0.1"/>
  <path d="M759.11,86.68 C759.21,91.1 756.4,97.39 752.92,100.63 C749.44,103.87 742.46,107.1 738.21,106.11 C733.96,105.12 729.59,99.02 727.42,94.68 C725.24,90.34 723.41,84.65 725.16,80.06 C726.91,75.47 733.41,68.13 737.94,67.14 C742.47,66.14 748.79,70.84 752.32,74.1 C755.85,77.36 759.01,82.26 759.11,86.68 Z" fill="none" stroke="#56c26a" stroke-width="1" opacity="0.3"/>
  <circle cx="742.01" cy="86.68" r="4.98" fill="#2f9e6b" opacity="0.4"/>
  <path d="M306.69,183.06 C306.92,190.23 306.08,199.45 302.74,204.13 C299.4,208.82 292.62,210.27 286.65,211.16 C280.68,212.06 272.54,212.35 266.91,209.53 C261.28,206.71 255.17,200.27 252.86,194.26 C250.55,188.25 251.3,179.55 253.07,173.48 C254.84,167.42 258.12,160.99 263.5,157.87 C268.88,154.74 279.05,154.2 285.36,154.74 C291.66,155.28 297.77,156.37 301.33,161.09 C304.88,165.81 306.45,175.89 306.69,183.06 Z" fill="#a3d977" opacity="0.1"/>
  <path d="M306.69,183.06 C306.92,190.23 306.08,199.45 302.74,204.13 C299.4,208.82 292.62,210.27 286.65,211.16 C280.68,212.06 272.54,212.35 266.91,209.53 C261.28,206.71 255.17,200.27 252.86,194.26 C250.55,188.25 251.3,179.55 253.07,173.48 C254.84,167.42 258.12,160.99 263.5,157.87 C268.88,154.74 279.05,154.2 285.36,154.74 C291.66,155.28 297.77,156.37 301.33,161.09 C304.88,165.81 306.45,175.89 306.69,183.06 Z" fill="none" stroke="#56c26a" stroke-width="1" opacity="0.3"/>
  <circle cx="280.74" cy="183.06" r="8.43" fill="#2f9e6b" opacity="0.4"/>
  <path d="M465.81,229.62 C466.05,235.73 464.31,241.85 460.62,246.94 C456.94,252.02 449.95,258.4 443.69,260.13 C437.44,261.86 427.81,260.85 423.09,257.32 C418.37,253.8 416.96,245.45 415.35,238.99 C413.74,232.53 412.25,223.67 413.43,218.57 C414.6,213.46 417.43,210.93 422.4,208.38 C427.37,205.83 437.12,202.96 443.25,203.28 C449.38,203.61 455.41,205.92 459.17,210.31 C462.93,214.7 465.57,223.52 465.81,229.62 Z" fill="#a3d977" opacity="0.1"/>
  <path d="M465.81,229.62 C466.05,235.73 464.31,241.85 460.62,246.94 C456.94,252.02 449.95,258.4 443.69,260.13 C437.44,261.86 427.81,260.85 423.09,257.32 C418.37,253.8 416.96,245.45 415.35,238.99 C413.74,232.53 412.25,223.67 413.43,218.57 C414.6,213.46 417.43,210.93 422.4,208.38 C427.37,205.83 437.12,202.96 443.25,203.28 C449.38,203.61 455.41,205.92 459.17,210.31 C462.93,214.7 465.57,223.52 465.81,229.62 Z" fill="none" stroke="#56c26a" stroke-width="1" opacity="0.3"/>
  <circle cx="438.5" cy="229.62" r="7.97" fill="#2f9e6b" opacity="0.4"/>
  <path d="M724.38,469.64 C724.62,477.16 719.04,483.6 713.52,490.1 C708,496.6 699.24,507.52 691.27,508.65 C683.29,509.78 671.9,501.43 665.67,496.88 C659.45,492.33 656.21,487.68 653.93,481.35 C651.66,475.03 649.44,466.63 652.02,458.96 C654.6,451.28 662.68,438.72 669.43,435.33 C676.17,431.94 685.36,437.02 692.47,438.63 C699.58,440.23 706.78,439.79 712.09,444.96 C717.41,450.12 724.14,462.11 724.38,469.64 Z" fill="#a3d977" opacity="0.1"/>
  <path d="M724.38,469.64 C724.62,477.16 719.04,483.6 713.52,490.1 C708,496.6 699.24,507.52 691.27,508.65 C683.29,509.78 671.9,501.43 665.67,496.88 C659.45,492.33 656.21,487.68 653.93,481.35 C651.66,475.03 649.44,466.63 652.02,458.96 C654.6,451.28 662.68,438.72 669.43,435.33 C676.17,431.94 685.36,437.02 692.47,438.63 C699.58,440.23 706.78,439.79 712.09,444.96 C717.41,450.12 724.14,462.11 724.38,469.64 Z" fill="none" stroke="#56c26a" stroke-width="1" opacity="0.3"/>
  <circle cx="685.25" cy="469.64" r="10.2" fill="#2f9e6b" opacity="0.4"/>
  <path d="M269.31,272.5 C270.12,282.9 262.52,295.68 252.73,301.38 C242.94,307.08 219.38,311.51 210.55,306.7 C201.73,301.88 198.93,282.97 199.77,272.5 C200.6,262.03 207.56,249.44 215.58,243.86 C223.59,238.28 238.92,234.24 247.88,239.02 C256.83,243.79 268.5,262.11 269.31,272.5 Z" fill="#a3d977" opacity="0.1"/>
  <path d="M269.31,272.5 C270.12,282.9 262.52,295.68 252.73,301.38 C242.94,307.08 219.38,311.51 210.55,306.7 C201.73,301.88 198.93,282.97 199.77,272.5 C200.6,262.03 207.56,249.44 215.58,243.86 C223.59,238.28 238.92,234.24 247.88,239.02 C256.83,243.79 268.5,262.11 269.31,272.5 Z" fill="none" stroke="#56c26a" stroke-width="1" opacity="0.3"/>
  <circle cx="231.85" cy="272.5" r="10.39" fill="#2f9e6b" opacity="0.4"/>
  <path d="M257.64,284.56 C257.39,289.67 253.15,295.18 249.15,299.35 C245.14,303.52 238.88,309.51 233.59,309.6 C228.29,309.69 221.19,304.08 217.38,299.91 C213.56,295.74 210.75,289.46 210.68,284.56 C210.61,279.65 213.14,274.48 216.95,270.49 C220.77,266.5 227.97,260.89 233.59,260.59 C239.2,260.29 246.64,264.67 250.65,268.67 C254.66,272.66 257.89,279.44 257.64,284.56 Z" fill="#a3d977" opacity="0.1"/>
  <path d="M257.64,284.56 C257.39,289.67 253.15,295.18 249.15,299.35 C245.14,303.52 238.88,309.51 233.59,309.6 C228.29,309.69 221.19,304.08 217.38,299.91 C213.56,295.74 210.75,289.46 210.68,284.56 C210.61,279.65 213.14,274.48 216.95,270.49 C220.77,266.5 227.97,260.89 233.59,260.59 C239.2,260.29 246.64,264.67 250.65,268.67 C254.66,272.66 257.89,279.44 257.64,284.56 Z" fill="none" stroke="#56c26a" stroke-width="1" opacity="0.3"/>
  <circle cx="233.59" cy="284.56" r="6.33" fill="#2f9e6b" opacity="0.4"/>
  <path d="M553.02,276.7 C552.93,282.51 549.14,288.99 544.94,292.57 C540.74,296.16 532.74,299.34 527.82,298.21 C522.91,297.09 518.25,290.77 515.45,285.83 C512.64,280.89 508.98,273.73 510.99,268.55 C513.01,263.37 521.78,256.55 527.53,254.75 C533.28,252.95 541.24,254.11 545.49,257.77 C549.74,261.43 553.11,270.9 553.02,276.7 Z" fill="#a3d977" opacity="0.1"/>
  <path d="M553.02,276.7 C552.93,282.51 549.14,288.99 544.94,292.57 C540.74,296.16 532.74,299.34 527.82,298.21 C522.91,297.09 518.25,290.77 515.45,285.83 C512.64,280.89 508.98,273.73 510.99,268.55 C513.01,263.37 521.78,256.55 527.53,254.75 C533.28,252.95 541.24,254.11 545.49,257.77 C549.74,261.43 553.11,270.9 553.02,276.7 Z" fill="none" stroke="#56c26a" stroke-width="1" opacity="0.3"/>
  <circle cx="532.63" cy="276.7" r="6.18" fill="#2f9e6b" opacity="0.4"/>
  <path d="M801.22,370.9 C801.1,377.96 796.54,384.58 790.56,390.87 C784.59,397.17 773.61,407.86 765.38,408.67 C757.14,409.48 747.37,402.05 741.17,395.75 C734.96,389.46 727.43,378.75 728.16,370.9 C728.89,363.05 739.34,354.87 745.54,348.66 C751.74,342.44 757.75,333.64 765.38,333.62 C773,333.61 785.31,342.33 791.28,348.54 C797.26,354.75 801.34,363.85 801.22,370.9 Z" fill="#a3d977" opacity="0.1"/>
  <path d="M801.22,370.9 C801.1,377.96 796.54,384.58 790.56,390.87 C784.59,397.17 773.61,407.86 765.38,408.67 C757.14,409.48 747.37,402.05 741.17,395.75 C734.96,389.46 727.43,378.75 728.16,370.9 C728.89,363.05 739.34,354.87 745.54,348.66 C751.74,342.44 757.75,333.64 765.38,333.62 C773,333.61 785.31,342.33 791.28,348.54 C797.26,354.75 801.34,363.85 801.22,370.9 Z" fill="none" stroke="#56c26a" stroke-width="1" opacity="0.3"/>
  <circle cx="765.38" cy="370.9" r="9.21" fill="#2f9e6b" opacity="0.4"/>
  <path d="M370.42,78.45 C370.77,84.81 366.05,92.14 361.31,96.64 C356.57,101.14 348.91,104.91 341.97,105.45 C335.04,105.98 324.17,104.34 319.68,99.84 C315.19,95.34 314.38,85.59 315.01,78.45 C315.64,71.31 318.97,61.43 323.47,56.98 C327.96,52.54 336.02,51.51 341.97,51.76 C347.93,52 354.47,54.01 359.22,58.46 C363.96,62.91 370.07,72.08 370.42,78.45 Z" fill="#a3d977" opacity="0.1"/>
  <path d="M370.42,78.45 C370.77,84.81 366.05,92.14 361.31,96.64 C356.57,101.14 348.91,104.91 341.97,105.45 C335.04,105.98 324.17,104.34 319.68,99.84 C315.19,95.34 314.38,85.59 315.01,78.45 C315.64,71.31 318.97,61.43 323.47,56.98 C327.96,52.54 336.02,51.51 341.97,51.76 C347.93,52 354.47,54.01 359.22,58.46 C363.96,62.91 370.07,72.08 370.42,78.45 Z" fill="none" stroke="#56c26a" stroke-width="1" opacity="0.3"/>
  <circle cx="341.97" cy="78.45" r="7.82" fill="#2f9e6b" opacity="0.4"/>
  <path d="M700,276.42 C700.32,281.93 693.35,289.43 689.02,293.25 C684.7,297.06 679.35,297.94 674.05,299.31 C668.74,300.67 661.57,303.84 657.17,301.42 C652.78,299 649.47,290.35 647.69,284.79 C645.91,279.22 644.67,272.74 646.51,268.02 C648.35,263.3 654.08,259.28 658.73,256.47 C663.38,253.66 669.7,250.52 674.43,251.14 C679.16,251.75 682.84,255.95 687.11,260.17 C691.37,264.38 699.69,270.9 700,276.42 Z" fill="#a3d977" opacity="0.1"/>
  <path d="M700,276.42 C700.32,281.93 693.35,289.43 689.02,293.25 C684.7,297.06 679.35,297.94 674.05,299.31 C668.74,300.67 661.57,303.84 657.17,301.42 C652.78,299 649.47,290.35 647.69,284.79 C645.91,279.22 644.67,272.74 646.51,268.02 C648.35,263.3 654.08,259.28 658.73,256.47 C663.38,253.66 669.7,250.52 674.43,251.14 C679.16,251.75 682.84,255.95 687.11,260.17 C691.37,264.38 699.69,270.9 700,276.42 Z" fill="none" stroke="#56c26a" stroke-width="1" opacity="0.3"/>
  <circle cx="670.03" cy="276.42" r="7.32" fill="#2f9e6b" opacity="0.4"/>
  <path d="M615.93,263.09 C616,271.09 615.72,279.92 610.45,285.21 C605.19,290.51 592.12,294.96 584.34,294.87 C576.56,294.77 569.36,289.96 563.79,284.66 C558.21,279.37 551.02,271.13 550.88,263.09 C550.75,255.05 557.39,241.31 562.97,236.43 C568.54,231.55 576.49,233.68 584.34,233.81 C592.19,233.95 604.8,232.37 610.07,237.25 C615.34,242.13 615.87,255.1 615.93,263.09 Z" fill="#a3d977" opacity="0.1"/>
  <path d="M615.93,263.09 C616,271.09 615.72,279.92 610.45,285.21 C605.19,290.51 592.12,294.96 584.34,294.87 C576.56,294.77 569.36,289.96 563.79,284.66 C558.21,279.37 551.02,271.13 550.88,263.09 C550.75,255.05 557.39,241.31 562.97,236.43 C568.54,231.55 576.49,233.68 584.34,233.81 C592.19,233.95 604.8,232.37 610.07,237.25 C615.34,242.13 615.87,255.1 615.93,263.09 Z" fill="none" stroke="#56c26a" stroke-width="1" opacity="0.3"/>
  <circle cx="584.34" cy="263.09" r="9.55" fill="#2f9e6b" opacity="0.4"/>
  <path d="M325.02,446.29 C325,452.95 324.27,462.91 320.07,467.83 C315.88,472.76 306.52,474.83 299.86,475.85 C293.19,476.86 286.64,476.96 280.09,473.94 C273.54,470.92 263.08,464.11 260.57,457.73 C258.06,451.34 262.19,442 265.03,435.66 C267.87,429.31 271.89,422.58 277.63,419.66 C283.38,416.74 292.4,416.75 299.49,418.13 C306.58,419.5 315.93,423.2 320.19,427.89 C324.44,432.59 325.04,439.64 325.02,446.29 Z" fill="#a3d977" opacity="0.1"/>
  <path d="M325.02,446.29 C325,452.95 324.27,462.91 320.07,467.83 C315.88,472.76 306.52,474.83 299.86,475.85 C293.19,476.86 286.64,476.96 280.09,473.94 C273.54,470.92 263.08,464.11 260.57,457.73 C258.06,451.34 262.19,442 265.03,435.66 C267.87,429.31 271.89,422.58 277.63,419.66 C283.38,416.74 292.4,416.75 299.49,418.13 C306.58,419.5 315.93,423.2 320.19,427.89 C324.44,432.59 325.04,439.64 325.02,446.29 Z" fill="none" stroke="#56c26a" stroke-width="1" opacity="0.3"/>
  <circle cx="294.62" cy="446.29" r="9.06" fill="#2f9e6b" opacity="0.4"/>
  <path d="M691.35,354.75 C690.53,362.43 684.06,375.06 677.73,379.98 C671.41,384.89 660.64,386 653.4,384.24 C646.16,382.49 637.71,376.4 634.31,369.43 C630.92,362.46 629.59,350.37 633.05,342.43 C636.5,334.49 646.78,323.22 655.04,321.79 C663.3,320.37 676.55,328.38 682.6,333.87 C688.65,339.37 692.16,347.06 691.35,354.75 Z" fill="#a3d977" opacity="0.1"/>
  <path d="M691.35,354.75 C690.53,362.43 684.06,375.06 677.73,379.98 C671.41,384.89 660.64,386 653.4,384.24 C646.16,382.49 637.71,376.4 634.31,369.43 C630.92,362.46 629.59,350.37 633.05,342.43 C636.5,334.49 646.78,323.22 655.04,321.79 C663.3,320.37 676.55,328.38 682.6,333.87 C688.65,339.37 692.16,347.06 691.35,354.75 Z" fill="none" stroke="#56c26a" stroke-width="1" opacity="0.3"/>
  <circle cx="661.12" cy="354.75" r="8.55" fill="#2f9e6b" opacity="0.4"/>
  <path d="M806.27,400.55 C805.95,406.6 798,414.54 792.14,418.11 C786.28,421.68 776.35,424.88 771.11,421.96 C765.87,419.03 760.95,407.12 760.68,400.55 C760.41,393.99 763.91,385.69 769.47,382.58 C775.03,379.46 787.9,378.85 794.03,381.85 C800.16,384.85 806.59,394.51 806.27,400.55 Z" fill="#a3d977" opacity="0.1"/>
  <path d="M806.27,400.55 C805.95,406.6 798,414.54 792.14,418.11 C786.28,421.68 776.35,424.88 771.11,421.96 C765.87,419.03 760.95,407.12 760.68,400.55 C760.41,393.99 763.91,385.69 769.47,382.58 C775.03,379.46 787.9,378.85 794.03,381.85 C800.16,384.85 806.59,394.51 806.27,400.55 Z" fill="none" stroke="#56c26a" stroke-width="1" opacity="0.3"/>
  <circle cx="781.72" cy="400.55" r="6.43" fill="#2f9e6b" opacity="0.4"/>
  <path d="M237.55,251.67 C237.54,255.49 236.43,260.96 233.93,263.49 C231.43,266.02 225.82,267.86 222.54,266.83 C219.27,265.81 215.86,260.85 214.28,257.35 C212.7,253.86 211.64,248.72 213.07,245.87 C214.49,243.01 219.36,241.08 222.84,240.19 C226.33,239.31 231.53,238.65 233.98,240.56 C236.43,242.48 237.56,247.85 237.55,251.67 Z" fill="#a3d977" opacity="0.1"/>
  <path d="M237.55,251.67 C237.54,255.49 236.43,260.96 233.93,263.49 C231.43,266.02 225.82,267.86 222.54,266.83 C219.27,265.81 215.86,260.85 214.28,257.35 C212.7,253.86 211.64,248.72 213.07,245.87 C214.49,243.01 219.36,241.08 222.84,240.19 C226.33,239.31 231.53,238.65 233.98,240.56 C236.43,242.48 237.56,247.85 237.55,251.67 Z" fill="none" stroke="#56c26a" stroke-width="1" opacity="0.3"/>
  <circle cx="225.82" cy="251.67" r="3.82" fill="#2f9e6b" opacity="0.4"/>
  <path d="M531.07,155.3 C530.79,163.87 525.32,175.81 519.49,180.83 C513.66,185.84 503.68,187.36 496.1,185.36 C488.52,183.37 477.4,175.91 474.03,168.85 C470.66,161.8 472.41,149.4 475.86,143.05 C479.31,136.69 487.18,132.98 494.73,130.7 C502.28,128.43 515.11,125.29 521.17,129.39 C527.22,133.48 531.35,146.73 531.07,155.3 Z" fill="#a3d977" opacity="0.1"/>
  <path d="M531.07,155.3 C530.79,163.87 525.32,175.81 519.49,180.83 C513.66,185.84 503.68,187.36 496.1,185.36 C488.52,183.37 477.4,175.91 474.03,168.85 C470.66,161.8 472.41,149.4 475.86,143.05 C479.31,136.69 487.18,132.98 494.73,130.7 C502.28,128.43 515.11,125.29 521.17,129.39 C527.22,133.48 531.35,146.73 531.07,155.3 Z" fill="none" stroke="#56c26a" stroke-width="1" opacity="0.3"/>
  <circle cx="501.6" cy="155.3" r="8.08" fill="#2f9e6b" opacity="0.4"/>
  <path d="M831.24,56.64 C830.78,63.68 822.47,73.81 816.63,77.43 C810.8,81.05 802.14,80.01 796.23,78.36 C790.32,76.71 783.6,73.19 781.15,67.53 C778.71,61.88 778.95,50.63 781.57,44.44 C784.19,38.24 790.58,31.88 796.87,30.33 C803.17,28.79 813.64,30.8 819.36,35.18 C825.09,39.57 831.69,49.6 831.24,56.64 Z" fill="#a3d977" opacity="0.1"/>
  <path d="M831.24,56.64 C830.78,63.68 822.47,73.81 816.63,77.43 C810.8,81.05 802.14,80.01 796.23,78.36 C790.32,76.71 783.6,73.19 781.15,67.53 C778.71,61.88 778.95,50.63 781.57,44.44 C784.19,38.24 790.58,31.88 796.87,30.33 C803.17,28.79 813.64,30.8 819.36,35.18 C825.09,39.57 831.69,49.6 831.24,56.64 Z" fill="none" stroke="#56c26a" stroke-width="1" opacity="0.3"/>
  <circle cx="801.94" cy="56.64" r="7.3" fill="#2f9e6b" opacity="0.4"/>
  <path d="M148.46,189.63 C148.15,197.17 140.58,205.72 134.62,210.73 C128.66,215.73 119.56,221.08 112.69,219.68 C105.82,218.27 96.39,209.52 93.42,202.31 C90.45,195.11 91.59,183.35 94.86,176.45 C98.14,169.55 106.13,162.74 113.07,160.91 C120.01,159.09 130.6,160.71 136.5,165.5 C142.4,170.28 148.78,182.09 148.46,189.63 Z" fill="#a3d977" opacity="0.1"/>
  <path d="M148.46,189.63 C148.15,197.17 140.58,205.72 134.62,210.73 C128.66,215.73 119.56,221.08 112.69,219.68 C105.82,218.27 96.39,209.52 93.42,202.31 C90.45,195.11 91.59,183.35 94.86,176.45 C98.14,169.55 106.13,162.74 113.07,160.91 C120.01,159.09 130.6,160.71 136.5,165.5 C142.4,170.28 148.78,182.09 148.46,189.63 Z" fill="none" stroke="#56c26a" stroke-width="1" opacity="0.3"/>
  <circle cx="119.78" cy="189.63" r="7.76" fill="#2f9e6b" opacity="0.4"/>
  <path d="M326.3,238.33 C326.66,247.74 319.97,260.08 311.89,265.05 C303.81,270.02 286.26,272.61 277.81,268.15 C269.37,263.7 261.16,247.58 261.23,238.33 C261.3,229.08 270.15,217.63 278.24,212.67 C286.32,207.71 301.72,204.29 309.73,208.57 C317.74,212.85 325.94,228.92 326.3,238.33 Z" fill="#a3d977" opacity="0.1"/>
  <path d="M326.3,238.33 C326.66,247.74 319.97,260.08 311.89,265.05 C303.81,270.02 286.26,272.61 277.81,268.15 C269.37,263.7 261.16,247.58 261.23,238.33 C261.3,229.08 270.15,217.63 278.24,212.67 C286.32,207.71 301.72,204.29 309.73,208.57 C317.74,212.85 325.94,228.92 326.3,238.33 Z" fill="none" stroke="#56c26a" stroke-width="1" opacity="0.3"/>
  <circle cx="294.78" cy="238.33" r="9.19" fill="#2f9e6b" opacity="0.4"/>
</svg>
