<svg xmlns="http://www.w3.org/2000/svg" viewBox="0 0 960 540" width="960" height="540" role="img" aria-label="biology decorative background">
  <defs>
    <radialGradient id="grad-biology-large-01" cx="50%" cy="35%" r="80%">
      <stop offset="0%" stop-color="#56c26a" stop-opacity="0.10"/>
      <stop offset="100%" stop-color="#071508" stop-opacity="0"/>
    </radialGradient>
  </defs>
  <rect width="960" height="540" fill="#071508"/>
  <rect width="960" height="540" fill="url(#grad-biology-large-01)"/>
  <line x1="334.91" y1="540" x2="351.11" y2="422.31" stroke="#56c26a" stroke-width="2.5" opacity="0.45"/>
  <line x1="351.11" y1="422.31" x2="310.87" y2="346.83" stroke="#56c26a" stroke-width="2" opacity="0.39"/>
  <line x1="310.87" y1="346.83" x2="260.83" y2="310.93" stroke="#56c26a" stroke-width="1.5" opacity="0.33"/>
  <line x1="260.83" y1="310.93" x2="217" y2="304.18" stroke="#56c26a" stroke-width="1" opacity="0.27"/>
  <circle cx="217" cy="304.18" r="2.1" fill="#2f9e6b" opacity="0.5"/>
  <line x1="217" y1="304.18" x2="187.24" y2="315.73" stroke="#56c26a" stroke-width="0.5" opacity="0.21"/>
  <circle cx="187.24" cy="315.73" r="2.01" fill="#2f9e6b" opacity="0.5"/>
  <line x1="217" y1="304.18" x2="190.17" y2="286.88" stroke="#56c26a" stroke-width="0.5" opacity="0.21"/>
  <circle cx="190.17" cy="286.88" r="1.73" fill="#2f9e6b" opacity="0.5"/>
  <line x1="260.83" y1="310.93" x2="239.54" y2="272.03" stroke="#56c26a" stroke-width="1" opacity="0.27"/>
  <circle cx="239.54" cy="272.03" r="1.68" fill="#2f9e6b" opacity="0.5"/>
  <line x1="239.54" y1="272.03" x2="211.67" y2="256.46" stroke="#56c26a" stroke-width="0.5" opacity="0.21"/>
  <circle cx="211.67" cy="256.46" r="3.03" fill="#2f9e6b" opacity="0.5"/>
  <line x1="239.54" y1="272.03" x2="236.62" y2="240.24" stroke="#56c26a" stroke-width="0.5" opacity="0.21"/>
  <circle cx="236.62" cy="240.24" r="2.24" fill="#2f9e6b" opacity="0.5"/>
  <line x1="310.87" y1="346.83" x2="318.49" y2="285.72" stroke="#56c26a" stroke-width="1.5" opacity="0.33"/>
  <line x1="318.49" y1="285.72" x2="301.55" y2="244.74" stroke="#56c26a" stroke-width="1" opacity="0.27"/>
  <circle cx="301.55" cy="244.74" r="3.26" fill="#2f9e6b" opacity="0.5"/>
  <line x1="301.55" y1="244.74" x2="279.04" y2="222.11" stroke="#56c26a" stroke-width="0.5" opacity="0.21"/>
  <line x1="301.55" y1="244.74" x2="305.67" y2="213.08" stroke="#56c26a" stroke-width="0.5" opacity="0.21"/>
  <circle cx="305.67" cy="213.08" r="1.69" fill="#2f9e6b" opacity="0.5"/>
  <line x1="318.49" y1="285.72" x2="350.54" y2="255.07" stroke="#56c26a" stroke-width="1" opacity="0.27"/>
  <circle cx="350.54" cy="255.07" r="2.41" fill="#2f9e6b" opacity="0.5"/>
  <line x1="350.54" y1="255.07" x2="364.46" y2="226.34" stroke="#56c26a" stroke-width="0.5" opacity="0.21"/>
  <line x1="350.54" y1="255.07" x2="379.65" y2="241.95" stroke="#56c26a" stroke-width="0.5" opacity="0.21"/>
  <line x1="351.11" y1="422.31" x2="401.3" y2="353.05" stroke="#56c26a" stroke-width="2" opacity="0.39"/>
  <line x1="401.3" y1="353.05" x2="419.96" y2="294.36" stroke="#56c26a" stroke-width="1.5" opacity="0.33"/>
  <line x1="419.96" y1="294.36" x2="413.41" y2="250.5" stroke="#56c26a" stroke-width="1" opacity="0.27"/>
  <circle cx="413.41" cy="250.5" r="2.36" fill="#2f9e6b" opacity="0.5"/>
  <line x1="413.41" y1="250.5" x2="390.56" y2="228.2" stroke="#56c26a" stroke-width="0.5" opacity="0.21"/>
  <line x1="413.41" y1="250.5" x2="428.79" y2="222.52" stroke="#56c26a" stroke-width="0.5" opacity="0.21"/>
  <circle cx="428.79" cy="222.52" r="2.07" fill="#2f9e6b" opacity="0.5"/>
  <line x1="419.96" y1="294.36" x2="451.71" y2="263.4" stroke="#56c26a" stroke-width="1" opacity="0.27"/>
  <line x1="451.71" y1="263.4" x2="460.15" y2="232.61" stroke="#56c26a" stroke-width="0.5" opacity="0.21"/>
  <circle cx="460.15" cy="232.61" r="3.12" fill="#2f9e6b" opacity="0.5"/>
  <line x1="451.71" y1="263.4" x2="480.62" y2="249.87" stroke="#56c26a" stroke-width="0.5" opacity="0.21"/>
  <circle cx="480.62" cy="249.87" r="1.78" fill="#2f9e6b" opacity="0.5"/>
  <line x1="401.3" y1="353.05" x2="459.04" y2="331.6" stroke="#56c26a" stroke-width="1.5" opacity="0.33"/>
  <line x1="459.04" y1="331.6" x2="487.3" y2="297.44" stroke="#56c26a" stroke-width="1" opacity="0.27"/>
  <line x1="487.3" y1="297.44" x2="494.32" y2="266.29" stroke="#56c26a" stroke-width="0.5" opacity="0.21"/>
  <line x1="487.3" y1="297.44" x2="517.91" y2="288.36" stroke="#56c26a" stroke-width="0.5" opacity="0.21"/>
  <circle cx="517.91" cy="288.36" r="1.72" fill="#2f9e6b" opacity="0.5"/>
  <line x1="459.04" y1="331.6" x2="503.29" y2="334.41" stroke="#56c26a" stroke-width="1" opacity="0.27"/>
  <circle cx="503.29" cy="334.41" r="2.5" fill="#2f9e6b" opacity="0.5"/>
  <line x1="503.29" y1="334.41" x2="534.25" y2="326.62" stroke="#56c26a" stroke-width="0.5" opacity="0.21"/>
  <circle cx="534.25" cy="326.62" r="2.66" fill="#2f9e6b" opacity="0.5"/>
  <line x1="503.29" y1="334.41" x2="529.47" y2="352.68" stroke="#56c26a" stroke-width="0.5" opacity="0.21"/>
  <circle cx="529.47" cy="352.68" r="2.64" fill="#2f9e6b" opacity="0.5"/>
  <line x1="340.91" y1="540" x2="316.79" y2="423.67" stroke="#56c26a" stroke-width="2.5" opacity="0.45"/>
  <line x1="316.79" y1="423.67" x2="250.47" y2="369.66" stroke="#56c26a" stroke-width="2" opacity="0.39"/>
  <line x1="250.47" y1="369.66" x2="189.03" y2="365.39" stroke="#56c26a" stroke-width="1.5" opacity="0.33"/>
  <line x1="189.03" y1="365.39" x2="147" y2="379.53" stroke="#56c26a" stroke-width="1" opacity="0.27"/>
  <circle cx="147" cy="379.53" r="1.58" fill="#2f9e6b" opacity="0.5"/>
  <line x1="147" y1="379.53" x2="123.67" y2="401.32" stroke="#56c26a" stroke-width="0.5" opacity="0.21"/>
  <circle cx="123.67" cy="401.32" r="3.17" fill="#2f9e6b" opacity="0.5"/>
  <line x1="147" y1="379.53" x2="117.08" y2="368.37" stroke="#56c26a" stroke-width="0.5" opacity="0.21"/>
  <circle cx="117.08" cy="368.37" r="3.19" fill="#2f9e6b" opacity="0.5"/>
  <line x1="189.03" y1="365.39" x2="147.84" y2="348.97" stroke="#56c26a" stroke-width="1" opacity="0.27"/>
  <line x1="147.84" y1="348.97" x2="116.52" y2="355.15" stroke="#56c26a" stroke-width="0.5" opacity="0.21"/>
  <circle cx="116.52" cy="355.15" r="2.42" fill="#2f9e6b" opacity="0.5"/>
  <line x1="147.84" y1="348.97" x2="125.54" y2="326.12" stroke="#56c26a" stroke-width="0.5" opacity="0.21"/>
  <circle cx="125.54" cy="326.12" r="2.12" fill="#2f9e6b" opacity="0.5"/>
  <line x1="250.47" y1="369.66" x2="228.86" y2="311.99" stroke="#56c26a" stroke-width="1.5" opacity="0.33"/>
  <line x1="228.86" y1="311.99" x2="192.45" y2="286.68" stroke="#56c26a" stroke-width="1" opacity="0.27"/>
  <circle cx="192.45" cy="286.68" r="1.84" fill="#2f9e6b" opacity="0.5"/>
  <line x1="192.45" y1="286.68" x2="160.53" y2="286.98" stroke="#56c26a" stroke-width="0.5" opacity="0.21"/>
  <circle cx="160.53" cy="286.98" r="2.31" fill="#2f9e6b" opacity="0.5"/>
  <line x1="192.45" y1="286.68" x2="179.83" y2="257.36" stroke="#56c26a" stroke-width="0.5" opacity="0.21"/>
  <line x1="228.86" y1="311.99" x2="233.02" y2="267.84" stroke="#56c26a" stroke-width="1" opacity="0.27"/>
  <line x1="233.02" y1="267.84" x2="214.89" y2="241.56" stroke="#56c26a" stroke-width="0.5" opacity="0.21"/>
  <circle cx="214.89" cy="241.56" r="2.28" fill="#2f9e6b" opacity="0.5"/>
  <line x1="233.02" y1="267.84" x2="253.26" y2="243.16" stroke="#56c26a" stroke-width="0.5" opacity="0.21"/>
  <line x1="316.79" y1="423.67" x2="346.93" y2="343.62" stroke="#56c26a" stroke-width="2" opacity="0.39"/>
  <line x1="346.93" y1="343.62" x2="328.39" y2="284.89" stroke="#56c26a" stroke-width="1.5" opacity="0.33"/>
  <line x1="328.39" y1="284.89" x2="295.15" y2="255.54" stroke="#56c26a" stroke-width="1" opacity="0.27"/>
  <circle cx="295.15" cy="255.54" r="2.29" fill="#2f9e6b" opacity="0.5"/>
  <line x1="295.15" y1="255.54" x2="263.57" y2="250.83" stroke="#56c26a" stroke-width="0.5" opacity="0.21"/>
  <circle cx="263.57" cy="250.83" r="1.73" fill="#2f9e6b" opacity="0.5"/>
  <line x1="295.15" y1="255.54" x2="288.31" y2="224.36" stroke="#56c26a" stroke-width="0.5" opacity="0.21"/>
  <circle cx="288.31" cy="224.36" r="2.38" fill="#2f9e6b" opacity="0.5"/>
  <line x1="328.39" y1="284.89" x2="341.68" y2="242.59" stroke="#56c26a" stroke-width="1" opacity="0.27"/>
  <line x1="341.68" y1="242.59" x2="340.4" y2="210.69" stroke="#56c26a" stroke-width="0.5" opacity="0.21"/>
  <circle cx="340.4" cy="210.69" r="2.37" fill="#2f9e6b" opacity="0.5"/>
  <line x1="341.68" y1="242.59" x2="360.87" y2="217.07" stroke="#56c26a" stroke-width="0.5" opacity="0.21"/>
  <line x1="346.93" y1="343.62" x2="392.48" y2="302.17" stroke="#56c26a" stroke-width="1.5" opacity="0.33"/>
  <line x1="392.48" y1="302.17" x2="411.21" y2="261.98" stroke="#56c26a" stroke-width="1" opacity="0.27"/>
  <line x1="411.21" y1="261.98" x2="406.89" y2="230.35" stroke="#56c26a" stroke-width="0.5" opacity="0.21"/>
  <circle cx="406.89" cy="230.35" r="3.07" fill="#2f9e6b" opacity="0.5"/>
  <line x1="411.21" y1="261.98" x2="439.54" y2="247.27" stroke="#56c26a" stroke-width="0.5" opacity="0.21"/>
  <circle cx="439.54" cy="247.27" r="2.59" fill="#2f9e6b" opacity="0.5"/>
  <line x1="392.48" y1="302.17" x2="436.7" y2="298.89" stroke="#56c26a" stroke-width="1" opacity="0.27"/>
  <circle cx="436.7" cy="298.89" r="1.58" fill="#2f9e6b" opacity="0.5"/>
  <line x1="436.7" y1="298.89" x2="463.53" y2="281.58" stroke="#56c26a" stroke-width="0.5" opacity="0.21"/>
  <circle cx="463.53" cy="281.58" r="3.43" fill="#2f9e6b" opacity="0.5"/>
  <line x1="436.7" y1="298.89" x2="463.33" y2="316.49" stroke="#56c26a" stroke-width="0.5" opacity="0.21"/>
  <circle cx="463.33" cy="316.49" r="2.67" fill="#2f9e6b" opacity="0.5"/>
  <line x1="514.77" y1="540" x2="497.82" y2="422.41" stroke="#56c26a" stroke-width="2.5" opacity="0.45"/>
  <line x1="497.82" y1="422.41" x2="448.41" y2="352.6" stroke="#56c26a" stroke-width="2" opacity="0.39"/>
  <line x1="448.41" y1="352.6" x2="397.17" y2="318.43" stroke="#56c26a" stroke-width="1.5" opacity="0.33"/>
  <line x1="397.17" y1="318.43" x2="352.86" y2="320.24" stroke="#56c26a" stroke-width="1" opacity="0.27"/>
  <circle cx="352.86" cy="320.24" r="2.79" fill="#2f9e6b" opacity="0.5"/>
  <line x1="352.86" y1="320.24" x2="327.48" y2="339.61" stroke="#56c26a" stroke-width="0.5" opacity="0.21"/>
  <line x1="352.86" y1="320.24" x2="327.12" y2="301.35" stroke="#56c26a" stroke-width="0.5" opacity="0.21"/>
  <line x1="397.17" y1="318.43" x2="377.03" y2="278.92" stroke="#56c26a" stroke-width="1" opacity="0.27"/>
  <circle cx="377.03" cy="278.92" r="2.69" fill="#2f9e6b" opacity="0.5"/>
  <line x1="377.03" y1="278.92" x2="351.52" y2="259.73" stroke="#56c26a" stroke-width="0.5" opacity="0.21"/>
  <line x1="377.03" y1="278.92" x2="372.41" y2="247.33" stroke="#56c26a" stroke-width="0.5" opacity="0.21"/>
  <circle cx="372.41" cy="247.33" r="2.15" fill="#2f9e6b" opacity="0.5"/>
  <line x1="448.41" y1="352.6" x2="447.73" y2="291.01" stroke="#56c26a" stroke-width="1.5" opacity="0.33"/>
  <line x1="447.73" y1="291.01" x2="430.81" y2="250.03" stroke="#56c26a" stroke-width="1" opacity="0.27"/>
  <circle cx="430.81" cy="250.03" r="3.02" fill="#2f9e6b" opacity="0.5"/>
  <line x1="430.81" y1="250.03" x2="404.47" y2="231.99" stroke="#56c26a" stroke-width="0.5" opacity="0.21"/>
  <circle cx="404.47" cy="231.99" r="2.04" fill="#2f9e6b" opacity="0.5"/>
  <line x1="430.81" y1="250.03" x2="437.03" y2="218.71" stroke="#56c26a" stroke-width="0.5" opacity="0.21"/>
  <circle cx="437.03" cy="218.71" r="2.11" fill="#2f9e6b" opacity="0.5"/>
  <line x1="447.73" y1="291.01" x2="471.77" y2="253.75" stroke="#56c26a" stroke-width="1" opacity="0.27"/>
  <line x1="471.77" y1="253.75" x2="469.69" y2="221.9" stroke="#56c26a" stroke-width="0.5" opacity="0.21"/>
  <line x1="471.77" y1="253.75" x2="502.14" y2="243.89" stroke="#56c26a" stroke-width="0.5" opacity="0.21"/>
  <circle cx="502.14" cy="243.89" r="3.05" fill="#2f9e6b" opacity="0.5"/>
  <line x1="497.82" y1="422.41" x2="519.32" y2="339.62" stroke="#56c26a" stroke-width="2" opacity="0.39"/>
  <line x1="519.32" y1="339.62" x2="503.89" y2="280" stroke="#56c26a" stroke-width="1.5" opacity="0.33"/>
  <line x1="503.89" y1="280" x2="478.96" y2="243.33" stroke="#56c26a" stroke-width="1" opacity="0.27"/>
  <line x1="478.96" y1="243.33" x2="450.32" y2="229.22" stroke="#56c26a" stroke-width="0.5" opacity="0.21"/>
  <circle cx="450.32" cy="229.22" r="3.08" fill="#2f9e6b" opacity="0.5"/>
  <line x1="478.96" y1="243.33" x2="474.79" y2="211.68" stroke="#56c26a" stroke-width="0.5" opacity="0.21"/>
  <circle cx="474.79" cy="211.68" r="1.52" fill="#2f9e6b" opacity="0.5"/>
  <line x1="503.89" y1="280" x2="508.66" y2="235.92" stroke="#56c26a" stroke-width="1" opacity="0.27"/>
  <line x1="508.66" y1="235.92" x2="496.33" y2="206.47" stroke="#56c26a" stroke-width="0.5" opacity="0.21"/>
  <line x1="508.66" y1="235.92" x2="526.04" y2="209.14" stroke="#56c26a" stroke-width="0.5" opacity="0.21"/>
  <circle cx="526.04" cy="209.14" r="2.18" fill="#2f9e6b" opacity="0.5"/>
  <line x1="519.32" y1="339.62" x2="552.49" y2="287.74" stroke="#56c26a" stroke-width="1.5" opacity="0.33"/>
  <line x1="552.49" y1="287.74" x2="562.96" y2="244.65" stroke="#56c26a" stroke-width="1" opacity="0.27"/>
  <circle cx="562.96" cy="244.65" r="2.29" fill="#2f9e6b" opacity="0.5"/>
  <line x1="562.96" y1="244.65" x2="555.96" y2="213.5" stroke="#56c26a" stroke-width="0.5" opacity="0.21"/>
  <line x1="562.96" y1="244.65" x2="580.38" y2="217.89" stroke="#56c26a" stroke-width="0.5" opacity="0.21"/>
  <line x1="552.49" y1="287.74" x2="593.42" y2="270.67" stroke="#56c26a" stroke-width="1" opacity="0.27"/>
  <line x1="593.42" y1="270.67" x2="616.89" y2="249.03" stroke="#56c26a" stroke-width="0.5" opacity="0.21"/>
  <circle cx="616.89" cy="249.03" r="2.25" fill="#2f9e6b" opacity="0.5"/>
  <line x1="593.42" y1="270.67" x2="624.71" y2="276.99" stroke="#56c26a" stroke-width="0.5" opacity="0.21"/>
  <circle cx="624.71" cy="276.99" r="1.52" fill="#2f9e6b" opacity="0.5"/>
  <path d="M142.15,55.91 C654.21,288.47 592.37,48.28 913.51,506.02" fill="none" stroke="#2f9e6b" stroke-width="2.04" opacity="0.37"/>
  <path d="M232.35,45.12 C770.38,309.97 642.27,128.76 893.45,189.08" fill="none" stroke="#56c26a" stroke-width="1.93" opacity="0.22"/>
  <path d="M119.69,471.1 C340.9,13.83 225.77,188.36 828.94,319.08" fill="none" stroke="#56c26a" stroke-width="2.34" opacity="0.18"/>
  <path d="M200.63,19.97 C902.81,223.28 388.49,517.92 878.53,284.72" fill="none" stroke="#2f9e6b" stroke-width="2.4" opacity="0.33"/>
  <path d="M276.51,255.75 C634.04,51.4 940.21,408.98 750.78,157.05" fill="none" stroke="#56c26a" stroke-width="1.58" opacity="0.16"/>
  <path d="M223.52,208.39 C419.14,149.64 634.89,157.05 746.33,220.28" fill="none" stroke="#2f9e6b" stroke-width="1.71" opacity="0.31"/>
  <path d="M186.58,167.38 C808.21,491.2 302.91,455.75 685.85,425.21" fill="none" stroke="#2f9e6b" stroke-width="1.37" opacity="0.32"/>
  <path d="M10.5,61.72 C781.12,12.94 212.56,243.18 917.19,449.8" fill="none" stroke="#56c26a" stroke-width="1.01" opacity="0.37"/>
  <path d="M181.4,477.62 C166.88,76.9 348.42,428.51 828.52,75.25" fill="none" stroke="#2f9e6b" stroke-width="1.79" opacity="0.16"/>
  <path d="M98.82,183.46 C186.94,359.02 139.6,431.06 818.43,524.72" fill="none" stroke="#56c26a" stroke-width="1.55" opacity="0.34"/>
</svg>
