<svg xmlns="http://www.w3.org/2000/svg" viewBox="0 0 960 540" width="960" height="540" role="img" aria-label="biology decorative background">
  <defs>
    <radialGradient id="grad-biology-large-09" cx="50%" cy="35%" r="80%">
      <stop offset="0%" stop-color="#56c26a" stop-opacity="0.10"/>
      <stop offset="100%" stop-color="#071508" stop-opacity="0"/>
    </radialGradient>
  </defs>
  <rect width="960" height="540" fill="#071508"/>
  <rect width="960" height="540" fill="url(#grad-biology-large-09)"/>
  <path d="M206.48,346.43 C206.12,354.71 203.54,368.64 198.17,372.85 C192.8,377.07 181.03,374.15 174.26,371.72 C167.49,369.29 161.6,364.32 157.57,358.25 C153.53,352.18 147.39,341.65 150.04,335.3 C152.68,328.95 165.06,322.15 173.44,320.13 C181.83,318.11 194.84,318.79 200.34,323.18 C205.85,327.56 206.85,338.15 206.48,346.43 Z" fill="#a3d977" opacity="0.1"/>
  <path d="M206.48,346.43 C206.12,354.71 203.54,368.64 198.17,372.85 C192.8,377.07 181.03,374.15 174.26,371.72 C167.49,369.29 161.6,364.32 157.57,358.25 C153.53,352.18 147.39,341.65 150.04,335.3 C152.68,328.95 165.06,322.15 173.44,320.13 C181.83,318.11 194.84,318.79 200.34,323.18 C205.85,327.56 206.85,338.15 206.48,346.43 Z" fill="none" stroke="#56c26a" stroke-width="1" opacity="0.3"/>
  <circle cx="180.57" cy="346.43" r="8.26" fill="#2f9e6b" opacity="0.4"/>
  <path d="M426.41,260.24 C426.44,264.64 423.91,270.01 420.45,273.59 C416.99,277.16 410.01,282.63 405.65,281.7 C401.29,280.78 396.96,273.21 394.29,268.03 C391.62,262.85 387.77,254.86 389.65,250.65 C391.53,246.43 400.47,243.31 405.58,242.73 C410.69,242.16 416.82,244.26 420.29,247.17 C423.77,250.09 426.39,255.84 426.41,260.24 Z" fill="#a3d977" opacity="0.1"/>
  <path d="M426.41,260.24 C426.44,264.64 423.91,270.01 420.45,273.59 C416.99,277.16 410.01,282.63 405.65,281.7 C401.29,280.78 396.96,273.21 394.29,268.03 C391.62,262.85 387.77,254.86 389.65,250.65 C391.53,246.43 400.47,243.31 405.58,242.73 C410.69,242.16 416.82,244.26 420.29,247.17 C423.77,250.09 426.39,255.84 426.41,260.24 Z" fill="none" stroke="#56c26a" stroke-width="1" opacity="0.3"/>
  <circle cx="409.39" cy="260.24" r="5.39" fill="#2f9e6b" opacity="0.4"/>
  <path d="M428.52,135.25 C428.34,140.61 421.93,147.09 416.55,149.63 C411.18,152.18 400.84,152.91 396.28,150.52 C391.72,148.12 389.3,140.43 389.2,135.25 C389.1,130.07 390.94,122.41 395.67,119.45 C400.4,116.49 412.1,114.84 417.58,117.48 C423.05,120.11 428.69,129.89 428.52,135.25 Z" fill="#a3d977" opacity="0.1"/>
  <path d="M428.52,135.25 C428.34,140.61 421.93,147.09 416.55,149.63 C411.18,152.18 400.84,152.91 396.28,150.52 C391.72,148.12 389.3,140.43 389.2,135.25 C389.1,130.07 390.94,122.41 395.67,119.45 C400.4,116.49 412.1,114.84 417.58,117.48 C423.05,120.11 428.69,129.89 428.52,135.25 Z" fill="none" stroke="#56c26a" stroke-width="1" opacity="0.3"/>
  <circle cx="406.63" cy="135.25" r="5.44" fill="#2f9e6b" opacity="0.4"/>
  <path d="M294.02,59.91 C294.23,67.36 285.72,75.06 279.36,81.48 C273,87.9 263.83,97.83 255.87,98.43 C247.92,99.03 236.56,91.48 231.64,85.06 C226.72,78.64 226.05,67.76 226.35,59.91 C226.64,52.07 228.49,44.62 233.41,38.01 C238.33,31.39 248.42,20.42 255.87,20.22 C263.33,20.02 271.77,30.18 278.13,36.79 C284.49,43.41 293.82,52.46 294.02,59.91 Z" fill="#a3d977" opacity="0.1"/>
  <path d="M294.02,59.91 C294.23,67.36 285.72,75.06 279.36,81.48 C273,87.9 263.83,97.83 255.87,98.43 C247.92,99.03 236.56,91.48 231.64,85.06 C226.72,78.64 226.05,67.76 226.35,59.91 C226.64,52.07 228.49,44.62 233.41,38.01 C238.33,31.39 248.42,20.42 255.87,20.22 C263.33,20.02 271.77,30.18 278.13,36.79 C284.49,43.41 293.82,52.46 294.02,59.91 Z" fill="none" stroke="#56c26a" stroke-width="1" opacity="0.3"/>
  <circle cx="255.87" cy="59.91" r="9.7" fill="#2f9e6b" opacity="0.4"/>
  <path d="M546.94,404.99 C547.06,409.16 543.45,414.22 539.62,417.25 C535.8,420.27 528.81,423.89 523.98,423.14 C519.15,422.39 512.6,417.2 510.65,412.77 C508.69,408.34 510.17,400.32 512.28,396.55 C514.38,392.78 518.84,390.89 523.29,390.17 C527.73,389.45 534.99,389.76 538.94,392.22 C542.88,394.69 546.83,400.82 546.94,404.99 Z" fill="#a3d977" opacity="0.1"/>
  <path d="M546.94,404.99 C547.06,409.16 543.45,414.22 539.62,417.25 C535.8,420.27 528.81,423.89 523.98,423.14 C519.15,422.39 512.6,417.2 510.65,412.77 C508.69,408.34 510.17,400.32 512.28,396.55 C514.38,392.78 518.84,390.89 523.29,390.17 C527.73,389.45 534.99,389.76 538.94,392.22 C542.88,394.69 546.83,400.82 546.94,404.99 Z" fill="none" stroke="#56c26a" stroke-width="1" opacity="0.3"/>
  <circle cx="527.67" cy="404.99" r="4.86" fill="#2f9e6b" opacity="0.4"/>
  <path d="M157.61,148.82 C157.82,153.03 156.59,158.83 153.74,161.88 C150.89,164.93 144.74,167.16 140.51,167.11 C136.29,167.07 131.47,164.68 128.37,161.63 C125.27,158.58 121.87,152.92 121.92,148.82 C121.97,144.72 125.58,140.14 128.68,137.04 C131.78,133.95 136.55,130.31 140.51,130.24 C144.48,130.17 149.61,133.52 152.46,136.61 C155.31,139.71 157.4,144.61 157.61,148.82 Z" fill="#a3d977" opacity="0.1"/>
  <path d="M157.61,148.82 C157.82,153.03 156.59,158.83 153.74,161.88 C150.89,164.93 144.74,167.16 140.51,167.11 C136.29,167.07 131.47,164.68 128.37,161.63 C125.27,158.58 121.87,152.92 121.92,148.82 C121.97,144.72 125.58,140.14 128.68,137.04 C131.78,133.95 136.55,130.31 140.51,130.24 C144.48,130.17 149.61,133.52 152.46,136.61 C155.31,139.71 157.4,144.61 157.61,148.82 Z" fill="none" stroke="#56c26a" stroke-width="1" opacity="0.3"/>
  <circle cx="140.51" cy="148.82" r="4.87" fill="#2f9e6b" opacity="0.4"/>
  <path d="M808.7,377.17 C809.18,386.56 801.08,402.47 793.12,406.34 C785.15,410.21 769.32,405.26 760.91,400.4 C752.5,395.54 742.98,385.34 742.66,377.17 C742.34,368.99 751.07,355.88 759,351.35 C766.92,346.83 781.93,345.7 790.22,350.01 C798.5,354.31 808.21,367.78 808.7,377.17 Z" fill="#a3d977" opacity="0.1"/>
  <path d="M808.7,377.17 C809.18,386.56 801.08,402.47 793.12,406.34 C785.15,410.21 769.32,405.26 760.91,400.4 C752.5,395.54 742.98,385.34 742.66,377.17 C742.34,368.99 751.07,355.88 759,351.35 C766.92,346.83 781.93,345.7 790.22,350.01 C798.5,354.31 808.21,367.78 808.7,377.17 Z" fill="none" stroke="#56c26a" stroke-width="1" opacity="0.3"/>
  <circle cx="775.53" cy="377.17" r="8.7" fill="#2f9e6b" opacity="0.4"/>
  <path d="M578.16,262.83 C577.97,267.36 575.31,272.04 571.64,276.03 C567.96,280.01 561.5,286.09 556.11,286.73 C550.72,287.38 542.73,283.87 539.31,279.88 C535.9,275.9 534.96,268.42 535.62,262.83 C536.29,257.24 539.9,250.01 543.31,246.35 C546.73,242.69 551.19,240.44 556.11,240.86 C561.03,241.27 569.14,245.18 572.82,248.84 C576.49,252.51 578.36,258.3 578.16,262.83 Z" fill="#a3d977" opacity="0.1"/>
  <path d="M578.16,262.83 C577.97,267.36 575.31,272.04 571.64,276.03 C567.96,280.01 561.5,286.09 556.11,286.73 C550.72,287.38 542.73,283.87 539.31,279.88 C535.9,275.9 534.96,268.42 535.62,262.83 C536.29,257.24 539.9,250.01 543.31,246.35 C546.73,242.69 551.19,240.44 556.11,240.86 C561.03,241.27 569.14,245.18 572.82,248.84 C576.49,252.51 578.36,258.3 578.16,262.83 Z" fill="none" stroke="#56c26a" stroke-width="1" opacity="0.3"/>
  <circle cx="556.11" cy="262.83" r="5.94" fill="#2f9e6b" opacity="0.4"/>
  <path d="M521.48,246.96 C521.28,255.86 514.37,269.93 506.27,274.16 C498.16,278.39 481.41,276.89 472.84,272.36 C464.27,267.83 454.83,256.07 454.83,246.96 C454.83,237.86 464.04,222.08 472.82,217.72 C481.59,213.36 499.36,215.92 507.47,220.8 C515.58,225.67 521.68,238.07 521.48,246.96 Z" fill="#a3d977" opacity="0.1"/>
  <path d="M521.48,246.96 C521.28,255.86 514.37,269.93 506.27,274.16 C498.16,278.39 481.41,276.89 472.84,272.36 C464.27,267.83 454.83,256.07 454.83,246.96 C454.83,237.86 464.04,222.08 472.82,217.72 C481.59,213.36 499.36,215.92 507.47,220.8 C515.58,225.67 521.68,238.07 521.48,246.96 Z" fill="none" stroke="#56c26a" stroke-width="1" opacity="0.3"/>
  <circle cx="489.37" cy="246.96" r="9.4" fill="#2f9e6b" opacity="0.4"/>
  <path d="M192.15,461.86 C191.51,467.04 185.52,475.42 181.8,479.25 C178.09,483.08 174.33,484.75 169.86,484.83 C165.4,484.91 159.26,482.1 155,479.72 C150.74,477.33 146.2,474.73 144.3,470.52 C142.4,466.31 141.8,459.74 143.59,454.46 C145.39,449.18 150.74,441.26 155.09,438.84 C159.44,436.42 164.6,438.38 169.7,439.93 C174.79,441.49 181.89,444.51 185.63,448.17 C189.37,451.82 192.79,456.68 192.15,461.86 Z" fill="#a3d977" opacity="0.1"/>
  <path d="M192.15,461.86 C191.51,467.04 185.52,475.42 181.8,479.25 C178.09,483.08 174.33,484.75 169.86,484.83 C165.4,484.91 159.26,482.1 155,479.72 C150.74,477.33 146.2,474.73 144.3,470.52 C142.4,466.31 141.8,459.74 143.59,454.46 C145.39,449.18 150.74,441.26 155.09,438.84 C159.44,436.42 164.6,438.38 169.7,439.93 C174.79,441.49 181.89,444.51 185.63,448.17 C189.37,451.82 192.79,456.68 192.15,461.86 Z" fill="none" stroke="#56c26a" stroke-width="1" opacity="0.3"/>
  <circle cx="165.44" cy="461.86" r="6.76" fill="#2f9e6b" opacity="0.4"/>
  <path d="M194.32,340.88 C194.18,350.55 191.64,365.68 184.95,371.18 C178.27,376.67 162.9,376.15 154.22,373.88 C145.55,371.6 136.47,365.59 132.91,357.53 C129.35,349.48 129.12,334.74 132.87,325.55 C136.62,316.36 146.6,304.45 155.42,302.39 C164.24,300.34 179.3,306.78 185.78,313.2 C192.27,319.61 194.46,331.22 194.32,340.88 Z" fill="#a3d977" opacity="0.1"/>
  <path d="M194.32,340.88 C194.18,350.55 191.64,365.68 184.95,371.18 C178.27,376.67 162.9,376.15 154.22,373.88 C145.55,371.6 136.47,365.59 132.91,357.53 C129.35,349.48 129.12,334.74 132.87,325.55 C136.62,316.36 146.6,304.45 155.42,302.39 C164.24,300.34 179.3,306.78 185.78,313.2 C192.27,319.61 194.46,331.22 194.32,340.88 Z" fill="none" stroke="#56c26a" stroke-width="1" opacity="0.3"/>
  <circle cx="163.2" cy="340.88" r="10.2" fill="#2f9e6b" opacity="0.4"/>
  <path d="M578.31,175.67 C578.58,183.12 573.13,190.83 567.16,195.81 C561.19,200.8 549.92,206.77 542.5,205.57 C535.07,204.36 526.04,195.7 522.6,188.58 C519.16,181.46 518.72,169.5 521.85,162.84 C524.99,156.19 534.13,150.61 541.4,148.65 C548.68,146.7 559.36,146.61 565.51,151.11 C571.66,155.61 578.03,168.22 578.31,175.67 Z" fill="#a3d977" opacity="0.1"/>
  <path d="M578.31,175.67 C578.58,183.12 573.13,190.83 567.16,195.81 C561.19,200.8 549.92,206.77 542.5,205.57 C535.07,204.36 526.04,195.7 522.6,188.58 C519.16,181.46 518.72,169.5 521.85,162.84 C524.99,156.19 534.13,150.61 541.4,148.65 C548.68,146.7 559.36,146.61 565.51,151.11 C571.66,155.61 578.03,168.22 578.31,175.67 Z" fill="none" stroke="#56c26a" stroke-width="1" opacity="0.3"/>
  <circle cx="548.09" cy="175.67" r="7.7" fill="#2f9e6b" opacity="0.4"/>
  <path d="M313.15,480.67 C313.04,487.75 308.08,498.05 303.11,501.86 C298.13,505.67 289.24,505.49 283.3,503.55 C277.36,501.61 270.75,495.85 267.49,490.23 C264.24,484.61 261.28,475.41 263.77,469.82 C266.25,464.23 275.71,458.43 282.37,456.69 C289.04,454.96 298.64,455.43 303.77,459.43 C308.9,463.42 313.26,473.6 313.15,480.67 Z" fill="#a3d977" opacity="0.1"/>
  <path d="M313.15,480.67 C313.04,487.75 308.08,498.05 303.11,501.86 C298.13,505.67 289.24,505.49 283.3,503.55 C277.36,501.61 270.75,495.85 267.49,490.23 C264.24,484.61 261.28,475.41 263.77,469.82 C266.25,464.23 275.71,458.43 282.37,456.69 C289.04,454.96 298.64,455.43 303.77,459.43 C308.9,463.42 313.26,473.6 313.15,480.67 Z" fill="none" stroke="#56c26a" stroke-width="1" opacity="0.3"/>
  <circle cx="288.55" cy="480.67" r="6.91" fill="#2f9e6b" opacity="0.4"/>
  <path d="M238.28,338.76 C238.67,346.58 239.27,355.06 234.03,361.79 C228.78,368.52 215.65,378.57 206.83,379.13 C198,379.7 186.24,371.9 181.08,365.17 C175.92,358.44 176.01,347.16 175.86,338.76 C175.71,330.37 175.02,320.68 180.18,314.81 C185.34,308.93 198.24,303.52 206.83,303.53 C215.42,303.54 226.48,309 231.72,314.87 C236.96,320.74 237.9,330.95 238.28,338.76 Z" fill="#a3d977" opacity="0.1"/>
  <path d="M238.28,338.76 C238.67,346.58 239.27,355.06 234.03,361.79 C228.78,368.52 215.65,378.57 206.83,379.13 C198,379.7 186.24,371.9 181.08,365.17 C175.92,358.44 176.01,347.16 175.86,338.76 C175.71,330.37 175.02,320.68 180.18,314.81 C185.34,308.93 198.24,303.52 206.83,303.53 C215.42,303.54 226.48,309 231.72,314.87 C236.96,320.74 237.9,330.95 238.28,338.76 Z" fill="none" stroke="#56c26a" stroke-width="1" opacity="0.3"/>
  <circle cx="206.83" cy="338.76" r="9.99" fill="#2f9e6b" opacity="0.4"/>
  <path d="M607.64,237.81 C607.54,243.14 607.09,251.19 603.15,254.43 C599.2,257.67 589.44,258.25 583.98,257.25 C578.53,256.26 572.97,253.19 570.42,248.46 C567.87,243.73 566.42,234.02 568.67,228.89 C570.92,223.77 578.08,218.77 583.92,217.7 C589.76,216.63 599.75,219.1 603.7,222.45 C607.66,225.8 607.73,232.48 607.64,237.81 Z" fill="#a3d977" opacity="0.1"/>
  <path d="M607.64,237.81 C607.54,243.14 607.09,251.19 603.15,254.43 C599.2,257.67 589.44,258.25 583.98,257.25 C578.53,256.26 572.97,253.19 570.42,248.46 C567.87,243.73 566.42,234.02 568.67,228.89 C570.92,223.77 578.08,218.77 583.92,217.7 C589.76,216.63 599.75,219.1 603.7,222.45 C607.66,225.8 607.73,232.48 607.64,237.81 Z" fill="none" stroke="#56c26a" stroke-width="1" opacity="0.3"/>
  <circle cx="588.34" cy="237.81" r="6.33" fill="#2f9e6b" opacity="0.4"/>
  <path d="M137.06,324.14 C137.9,330.49 134.88,339.61 130.2,343.49 C125.51,347.37 115.46,347.13 108.94,347.4 C102.43,347.67 95.55,348.99 91.09,345.11 C86.63,341.23 82.44,330.8 82.19,324.14 C81.93,317.48 85.09,309.35 89.55,305.16 C94.01,300.97 103,298.94 108.94,298.98 C114.88,299.01 120.5,301.18 125.19,305.37 C129.88,309.56 136.23,317.79 137.06,324.14 Z" fill="#a3d977" opacity="0.1"/>
  <path d="M137.06,324.14 C137.9,330.49 134.88,339.61 130.2,343.49 C125.51,347.37 115.46,347.13 108.94,347.4 C102.43,347.67 95.55,348.99 91.09,345.11 C86.63,341.23 82.44,330.8 82.19,324.14 C81.93,317.48 85.09,309.35 89.55,305.16 C94.01,300.97 103,298.94 108.94,298.98 C114.88,299.01 120.5,301.18 125.19,305.37 C129.88,309.56 136.23,317.79 137.06,324.14 Z" fill="none" stroke="#56c26a" stroke-width="1" opacity="0.3"/>
  <circle cx="108.94" cy="324.14" r="7.46" fill="#2f9e6b" opacity="0.4"/>
  <path d="M632.03,287.99 C632.52,295.92 626.99,302.13 621.63,308.94 C616.26,315.75 607.69,326.53 599.82,328.84 C591.95,331.16 581.43,327.4 574.4,322.84 C567.37,318.29 559.99,309.73 557.66,301.54 C555.33,293.34 558.05,280.93 560.42,273.66 C562.8,266.39 565.54,261.39 571.9,257.93 C578.26,254.47 590.76,252.32 598.56,252.89 C606.36,253.46 613.11,255.49 618.69,261.34 C624.26,267.19 631.54,280.06 632.03,287.99 Z" fill="#a3d977" opacity="0.1"/>
  <path d="M632.03,287.99 C632.52,295.92 626.99,302.13 621.63,308.94 C616.26,315.75 607.69,326.53 599.82,328.84 C591.95,331.16 581.43,327.4 574.4,322.84 C567.37,318.29 559.99,309.73 557.66,301.54 C555.33,293.34 558.05,280.93 560.42,273.66 C562.8,266.39 565.54,261.39 571.9,257.93 C578.26,254.47 590.76,252.32 598.56,252.89 C606.36,253.46 613.11,255.49 618.69,261.34 C624.26,267.19 631.54,280.06 632.03,287.99 Z" fill="none" stroke="#56c26a" stroke-width="1" opacity="0.3"/>
  <circle cx="592.79" cy="287.99" r="10.35" fill="#2f9e6b" opacity="0.4"/>
  <path d="M517.66,127.23 C518.05,131.58 516.68,136.73 513.54,140.1 C510.39,143.46 503.39,146.94 498.79,147.44 C494.2,147.94 489.67,145.21 485.96,143.09 C482.26,140.96 478.02,138.4 476.56,134.68 C475.1,130.96 475.85,124.7 477.19,120.75 C478.53,116.81 480.97,113.64 484.61,111.01 C488.24,108.38 494.59,104.48 499.02,104.98 C503.45,105.48 508.08,110.29 511.18,114 C514.29,117.71 517.27,122.88 517.66,127.23 Z" fill="#a3d977" opacity="0.1"/>
  <path d="M517.66,127.23 C518.05,131.58 516.68,136.73 513.54,140.1 C510.39,143.46 503.39,146.94 498.79,147.44 C494.2,147.94 489.67,145.21 485.96,143.09 C482.26,140.96 478.02,138.4 476.56,134.68 C475.1,130.96 475.85,124.7 477.19,120.75 C478.53,116.81 480.97,113.64 484.61,111.01 C488.24,108.38 494.59,104.48 499.02,104.98 C503.45,105.48 508.08,110.29 511.18,114 C514.29,117.71 517.27,122.88 517.66,127.23 Z" fill="none" stroke="#56c26a" stroke-width="1" opacity="0.3"/>
  <circle cx="495.26" cy="127.23" r="5.98" fill="#2f9e6b" opacity="0.4"/>
  <path d="M667.71,445.8 C667.5,454.99 660.8,468.62 653.96,474.23 C647.13,479.84 635.6,481.66 626.68,479.43 C617.77,477.21 604.41,468.69 600.47,460.9 C596.54,453.11 598.62,440.57 603.06,432.7 C607.5,424.83 618.43,415.98 627.12,413.7 C635.81,411.43 648.42,413.72 655.19,419.07 C661.95,424.41 667.91,436.6 667.71,445.8 Z" fill="#a3d977" opacity="0.1"/>
  <path d="M667.71,445.8 C667.5,454.99 660.8,468.62 653.96,474.23 C647.13,479.84 635.6,481.66 626.68,479.43 C617.77,477.21 604.41,468.69 600.47,460.9 C596.54,453.11 598.62,440.57 603.06,432.7 C607.5,424.83 618.43,415.98 627.12,413.7 C635.81,411.43 648.42,413.72 655.19,419.07 C661.95,424.41 667.91,436.6 667.71,445.8 Z" fill="none" stroke="#56c26a" stroke-width="1" opacity="0.3"/>
  <circle cx="634.21" cy="445.8" r="9.24" fill="#2f9e6b" opacity="0.4"/>
  <path d="M251.54,97.64 C250.79,105.55 247.84,116.18 242.6,120.98 C237.37,125.78 227.18,128.57 220.12,126.43 C213.07,124.29 203.9,114.77 200.25,108.13 C196.6,101.49 194.68,92.46 198.23,86.61 C201.78,80.75 213.41,75.17 221.55,73 C229.69,70.82 242.09,69.45 247.09,73.56 C252.09,77.67 252.29,89.74 251.54,97.64 Z" fill="#a3d977" opacity="0.1"/>
  <path d="M251.54,97.64 C250.79,105.55 247.84,116.18 242.6,120.98 C237.37,125.78 227.18,128.57 220.12,126.43 C213.07,124.29 203.9,114.77 200.25,108.13 C196.6,101.49 194.68,92.46 198.23,86.61 C201.78,80.75 213.41,75.17 221.55,73 C229.69,70.82 242.09,69.45 247.09,73.56 C252.09,77.67 252.29,89.74 251.54,97.64 Z" fill="none" stroke="#56c26a" stroke-width="1" opacity="0.3"/>
  <circle cx="227.1" cy="97.64" r="7.96" fill="#2f9e6b" opacity="0.4"/>
  <path d="M296.94,335.46 C297.54,343.86 289.45,357.26 282.02,361.56 C274.59,365.86 259.99,365.63 252.37,361.28 C244.74,356.93 236.79,343.91 236.27,335.46 C235.75,327.01 242.24,314.64 249.27,310.6 C256.29,306.55 270.47,307.04 278.41,311.18 C286.36,315.32 296.34,327.06 296.94,335.46 Z" fill="#a3d977" opacity="0.1"/>
  <path d="M296.94,335.46 C297.54,343.86 289.45,357.26 282.02,361.56 C274.59,365.86 259.99,365.63 252.37,361.28 C244.74,356.93 236.79,343.91 236.27,335.46 C235.75,327.01 242.24,314.64 249.27,310.6 C256.29,306.55 270.47,307.04 278.41,311.18 C286.36,315.32 296.34,327.06 296.94,335.46 Z" fill="none" stroke="#56c26a" stroke-width="1" opacity="0.3"/>
  <circle cx="265.15" cy="335.46" r="8.37" fill="#2f9e6b" opacity="0.4"/>
  <line x1="501.99" y1="540" x2="481.42" y2="423" stroke="#56c26a" stroke-width="2.5" opacity="0.45"/>
  <line x1="481.42" y1="423" x2="416.26" y2="367.59" stroke="#56c26a" stroke-width="2" opacity="0.39"/>
  <line x1="416.26" y1="367.59" x2="354.96" y2="361.65" stroke="#56c26a" stroke-width="1.5" opacity="0.33"/>
  <line x1="354.96" y1="361.65" x2="316.09" y2="383" stroke="#56c26a" stroke-width="1" opacity="0.27"/>
  <line x1="316.09" y1="383" x2="294.74" y2="406.74" stroke="#56c26a" stroke-width="0.5" opacity="0.21"/>
  <circle cx="294.74" cy="406.74" r="2.5" fill="#2f9e6b" opacity="0.5"/>
  <line x1="316.09" y1="383" x2="284.17" y2="383.52" stroke="#56c26a" stroke-width="0.5" opacity="0.21"/>
  <circle cx="284.17" cy="383.52" r="1.6" fill="#2f9e6b" opacity="0.5"/>
  <line x1="354.96" y1="361.65" x2="314.63" y2="343.2" stroke="#56c26a" stroke-width="1" opacity="0.27"/>
  <line x1="314.63" y1="343.2" x2="283.64" y2="350.85" stroke="#56c26a" stroke-width="0.5" opacity="0.21"/>
  <circle cx="283.64" cy="350.85" r="2.51" fill="#2f9e6b" opacity="0.5"/>
  <line x1="314.63" y1="343.2" x2="296.33" y2="317.05" stroke="#56c26a" stroke-width="0.5" opacity="0.21"/>
  <circle cx="296.33" cy="317.05" r="2.6" fill="#2f9e6b" opacity="0.5"/>
  <line x1="416.26" y1="367.59" x2="405.02" y2="307.03" stroke="#56c26a" stroke-width="1.5" opacity="0.33"/>
  <line x1="405.02" y1="307.03" x2="380.63" y2="270" stroke="#56c26a" stroke-width="1" opacity="0.27"/>
  <line x1="380.63" y1="270" x2="350.72" y2="258.84" stroke="#56c26a" stroke-width="0.5" opacity="0.21"/>
  <line x1="380.63" y1="270" x2="371.77" y2="239.33" stroke="#56c26a" stroke-width="0.5" opacity="0.21"/>
  <line x1="405.02" y1="307.03" x2="412.06" y2="263.25" stroke="#56c26a" stroke-width="1" opacity="0.27"/>
  <line x1="412.06" y1="263.25" x2="397.02" y2="235.1" stroke="#56c26a" stroke-width="0.5" opacity="0.21"/>
  <circle cx="397.02" cy="235.1" r="2.89" fill="#2f9e6b" opacity="0.5"/>
  <line x1="412.06" y1="263.25" x2="427.12" y2="235.1" stroke="#56c26a" stroke-width="0.5" opacity="0.21"/>
  <line x1="481.42" y1="423" x2="504.26" y2="340.56" stroke="#56c26a" stroke-width="2" opacity="0.39"/>
  <line x1="504.26" y1="340.56" x2="493.71" y2="279.89" stroke="#56c26a" stroke-width="1.5" opacity="0.33"/>
  <line x1="493.71" y1="279.89" x2="465.34" y2="245.81" stroke="#56c26a" stroke-width="1" opacity="0.27"/>
  <circle cx="465.34" cy="245.81" r="3.47" fill="#2f9e6b" opacity="0.5"/>
  <line x1="465.34" y1="245.81" x2="435.78" y2="233.75" stroke="#56c26a" stroke-width="0.5" opacity="0.21"/>
  <line x1="465.34" y1="245.81" x2="456.79" y2="215.05" stroke="#56c26a" stroke-width="0.5" opacity="0.21"/>
  <line x1="493.71" y1="279.89" x2="513.65" y2="240.28" stroke="#56c26a" stroke-width="1" opacity="0.27"/>
  <line x1="513.65" y1="240.28" x2="509.53" y2="208.62" stroke="#56c26a" stroke-width="0.5" opacity="0.21"/>
  <line x1="513.65" y1="240.28" x2="541.57" y2="224.8" stroke="#56c26a" stroke-width="0.5" opacity="0.21"/>
  <line x1="504.26" y1="340.56" x2="542.81" y2="292.54" stroke="#56c26a" stroke-width="1.5" opacity="0.33"/>
  <line x1="542.81" y1="292.54" x2="549.98" y2="248.78" stroke="#56c26a" stroke-width="1" opacity="0.27"/>
  <line x1="549.98" y1="248.78" x2="539.67" y2="218.56" stroke="#56c26a" stroke-width="0.5" opacity="0.21"/>
  <circle cx="539.67" cy="218.56" r="1.76" fill="#2f9e6b" opacity="0.5"/>
  <line x1="549.98" y1="248.78" x2="572.07" y2="225.73" stroke="#56c26a" stroke-width="0.5" opacity="0.21"/>
  <circle cx="572.07" cy="225.73" r="1.88" fill="#2f9e6b" opacity="0.5"/>
  <line x1="542.81" y1="292.54" x2="585.69" y2="281.24" stroke="#56c26a" stroke-width="1" opacity="0.27"/>
  <circle cx="585.69" cy="281.24" r="3.22" fill="#2f9e6b" opacity="0.5"/>
  <line x1="585.69" y1="281.24" x2="612.46" y2="263.85" stroke="#56c26a" stroke-width="0.5" opacity="0.21"/>
  <circle cx="612.46" cy="263.85" r="2.11" fill="#2f9e6b" opacity="0.5"/>
  <line x1="585.69" y1="281.24" x2="616.48" y2="289.69" stroke="#56c26a" stroke-width="0.5" opacity="0.21"/>
  <circle cx="616.48" cy="289.69" r="2.54" fill="#2f9e6b" opacity="0.5"/>
  <line x1="594.94" y1="540" x2="611.98" y2="422.43" stroke="#56c26a" stroke-width="2.5" opacity="0.45"/>
  <line x1="611.98" y1="422.43" x2="593.22" y2="338.98" stroke="#56c26a" stroke-width="2" opacity="0.39"/>
  <line x1="593.22" y1="338.98" x2="552.26" y2="292.98" stroke="#56c26a" stroke-width="1.5" opacity="0.33"/>
  <line x1="552.26" y1="292.98" x2="509.61" y2="280.86" stroke="#56c26a" stroke-width="1" opacity="0.27"/>
  <line x1="509.61" y1="280.86" x2="479.64" y2="291.86" stroke="#56c26a" stroke-width="0.5" opacity="0.21"/>
  <line x1="509.61" y1="280.86" x2="491.61" y2="254.49" stroke="#56c26a" stroke-width="0.5" opacity="0.21"/>
  <circle cx="491.61" cy="254.49" r="3.13" fill="#2f9e6b" opacity="0.5"/>
  <line x1="552.26" y1="292.98" x2="534.82" y2="252.21" stroke="#56c26a" stroke-width="1" opacity="0.27"/>
  <circle cx="534.82" cy="252.21" r="2.23" fill="#2f9e6b" opacity="0.5"/>
  <line x1="534.82" y1="252.21" x2="513.31" y2="228.62" stroke="#56c26a" stroke-width="0.5" opacity="0.21"/>
  <circle cx="513.31" cy="228.62" r="1.89" fill="#2f9e6b" opacity="0.5"/>
  <line x1="534.82" y1="252.21" x2="538.28" y2="220.48" stroke="#56c26a" stroke-width="0.5" opacity="0.21"/>
  <circle cx="538.28" cy="220.48" r="2.97" fill="#2f9e6b" opacity="0.5"/>
  <line x1="593.22" y1="338.98" x2="604.09" y2="278.36" stroke="#56c26a" stroke-width="1.5" opacity="0.33"/>
  <line x1="604.09" y1="278.36" x2="592.49" y2="235.56" stroke="#56c26a" stroke-width="1" opacity="0.27"/>
  <circle cx="592.49" cy="235.56" r="1.64" fill="#2f9e6b" opacity="0.5"/>
  <line x1="592.49" y1="235.56" x2="574.38" y2="209.27" stroke="#56c26a" stroke-width="0.5" opacity="0.21"/>
  <circle cx="574.38" cy="209.27" r="1.67" fill="#2f9e6b" opacity="0.5"/>
  <line x1="592.49" y1="235.56" x2="596.09" y2="203.84" stroke="#56c26a" stroke-width="0.5" opacity="0.21"/>
  <circle cx="596.09" cy="203.84" r="2.68" fill="#2f9e6b" opacity="0.5"/>
  <line x1="604.09" y1="278.36" x2="637" y2="248.64" stroke="#56c26a" stroke-width="1" opacity="0.27"/>
  <line x1="637" y1="248.64" x2="644.04" y2="217.5" stroke="#56c26a" stroke-width="0.5" opacity="0.21"/>
  <line x1="637" y1="248.64" x2="667.7" y2="239.87" stroke="#56c26a" stroke-width="0.5" opacity="0.21"/>
  <circle cx="667.7" cy="239.87" r="2.84" fill="#2f9e6b" opacity="0.5"/>
  <line x1="611.98" y1="422.43" x2="671.66" y2="361.15" stroke="#56c26a" stroke-width="2" opacity="0.39"/>
  <line x1="671.66" y1="361.15" x2="683.79" y2="300.77" stroke="#56c26a" stroke-width="1.5" opacity="0.33"/>
  <line x1="683.79" y1="300.77" x2="677.43" y2="256.89" stroke="#56c26a" stroke-width="1" opacity="0.27"/>
  <line x1="677.43" y1="256.89" x2="655.12" y2="234.05" stroke="#56c26a" stroke-width="0.5" opacity="0.21"/>
  <circle cx="655.12" cy="234.05" r="2.3" fill="#2f9e6b" opacity="0.5"/>
  <line x1="677.43" y1="256.89" x2="694.26" y2="229.75" stroke="#56c26a" stroke-width="0.5" opacity="0.21"/>
  <circle cx="694.26" cy="229.75" r="1.52" fill="#2f9e6b" opacity="0.5"/>
  <line x1="683.79" y1="300.77" x2="716.08" y2="270.38" stroke="#56c26a" stroke-width="1" opacity="0.27"/>
  <circle cx="716.08" cy="270.38" r="1.64" fill="#2f9e6b" opacity="0.5"/>
  <line x1="716.08" y1="270.38" x2="727.43" y2="240.55" stroke="#56c26a" stroke-width="0.5" opacity="0.21"/>
  <line x1="716.08" y1="270.38" x2="746.27" y2="260.02" stroke="#56c26a" stroke-width="0.5" opacity="0.21"/>
  <line x1="671.66" y1="361.15" x2="730.4" y2="342.67" stroke="#56c26a" stroke-width="1.5" opacity="0.33"/>
  <line x1="730.4" y1="342.67" x2="754.58" y2="305.5" stroke="#56c26a" stroke-width="1" opacity="0.27"/>
  <circle cx="754.58" cy="305.5" r="1.53" fill="#2f9e6b" opacity="0.5"/>
  <line x1="754.58" y1="305.5" x2="751.57" y2="273.72" stroke="#56c26a" stroke-width="0.5" opacity="0.21"/>
  <circle cx="751.57" cy="273.72" r="1.76" fill="#2f9e6b" opacity="0.5"/>
  <line x1="754.58" y1="305.5" x2="781.85" y2="288.89" stroke="#56c26a" stroke-width="0.5" opacity="0.21"/>
  <circle cx="781.85" cy="288.89" r="2" fill="#2f9e6b" opacity="0.5"/>
  <line x1="730.4" y1="342.67" x2="771.56" y2="359.17" stroke="#56c26a" stroke-width="1" opacity="0.27"/>
  <circle cx="771.56" cy="359.17" r="2.74" fill="#2f9e6b" opacity="0.5"/>
  <line x1="771.56" y1="359.17" x2="803.49" y2="359.4" stroke="#56c26a" stroke-width="0.5" opacity="0.21"/>
  <circle cx="803.49" cy="359.4" r="2.79" fill="#2f9e6b" opacity="0.5"/>
  <line x1="771.56" y1="359.17" x2="789.17" y2="385.8" stroke="#56c26a" stroke-width="0.5" opacity="0.21"/>
  <circle cx="789.17" cy="385.8" r="2.16" fill="#2f9e6b" opacity="0.5"/>
  <line x1="569.87" y1="540" x2="584.87" y2="422.15" stroke="#56c26a" stroke-width="2.5" opacity="0.45"/>
  <line x1="584.87" y1="422.15" x2="557.56" y2="341.09" stroke="#56c26a" stroke-width="2" opacity="0.39"/>
  <line x1="557.56" y1="341.09" x2="507.5" y2="305.22" stroke="#56c26a" stroke-width="1.5" opacity="0.33"/>
  <line x1="507.5" y1="305.22" x2="464.88" y2="292.99" stroke="#56c26a" stroke-width="1" opacity="0.27"/>
  <circle cx="464.88" cy="292.99" r="2.7" fill="#2f9e6b" opacity="0.5"/>
  <line x1="464.88" y1="292.99" x2="433.51" y2="298.94" stroke="#56c26a" stroke-width="0.5" opacity="0.21"/>
  <line x1="464.88" y1="292.99" x2="443.69" y2="269.11" stroke="#56c26a" stroke-width="0.5" opacity="0.21"/>
  <circle cx="443.69" cy="269.11" r="2.88" fill="#2f9e6b" opacity="0.5"/>
  <line x1="507.5" y1="305.22" x2="494.16" y2="262.93" stroke="#56c26a" stroke-width="1" opacity="0.27"/>
  <circle cx="494.16" cy="262.93" r="3.08" fill="#2f9e6b" opacity="0.5"/>
  <line x1="494.16" y1="262.93" x2="468.07" y2="244.53" stroke="#56c26a" stroke-width="0.5" opacity="0.21"/>
  <line x1="494.16" y1="262.93" x2="505.43" y2="233.06" stroke="#56c26a" stroke-width="0.5" opacity="0.21"/>
  <circle cx="505.43" cy="233.06" r="2.54" fill="#2f9e6b" opacity="0.5"/>
  <line x1="557.56" y1="341.09" x2="559.19" y2="279.53" stroke="#56c26a" stroke-width="1.5" opacity="0.33"/>
  <line x1="559.19" y1="279.53" x2="541.54" y2="238.85" stroke="#56c26a" stroke-width="1" opacity="0.27"/>
  <circle cx="541.54" cy="238.85" r="3.25" fill="#2f9e6b" opacity="0.5"/>
  <line x1="541.54" y1="238.85" x2="519.17" y2="216.07" stroke="#56c26a" stroke-width="0.5" opacity="0.21"/>
  <line x1="541.54" y1="238.85" x2="541.12" y2="206.93" stroke="#56c26a" stroke-width="0.5" opacity="0.21"/>
  <circle cx="541.12" cy="206.93" r="2.57" fill="#2f9e6b" opacity="0.5"/>
  <line x1="559.19" y1="279.53" x2="580.35" y2="240.56" stroke="#56c26a" stroke-width="1" opacity="0.27"/>
  <circle cx="580.35" cy="240.56" r="3.44" fill="#2f9e6b" opacity="0.5"/>
  <line x1="580.35" y1="240.56" x2="575.01" y2="209.08" stroke="#56c26a" stroke-width="0.5" opacity="0.21"/>
  <circle cx="575.01" cy="209.08" r="2.98" fill="#2f9e6b" opacity="0.5"/>
  <line x1="580.35" y1="240.56" x2="605.12" y2="220.41" stroke="#56c26a" stroke-width="0.5" opacity="0.21"/>
  <line x1="584.87" y1="422.15" x2="647.58" y2="363.98" stroke="#56c26a" stroke-width="2" opacity="0.39"/>
  <line x1="647.58" y1="363.98" x2="672.96" y2="307.86" stroke="#56c26a" stroke-width="1.5" opacity="0.33"/>
  <line x1="672.96" y1="307.86" x2="661.43" y2="265.05" stroke="#56c26a" stroke-width="1" opacity="0.27"/>
  <circle cx="661.43" cy="265.05" r="3.12" fill="#2f9e6b" opacity="0.5"/>
  <line x1="661.43" y1="265.05" x2="635.24" y2="246.79" stroke="#56c26a" stroke-width="0.5" opacity="0.21"/>
  <line x1="661.43" y1="265.05" x2="667.94" y2="233.79" stroke="#56c26a" stroke-width="0.5" opacity="0.21"/>
  <line x1="672.96" y1="307.86" x2="702.56" y2="274.85" stroke="#56c26a" stroke-width="1" opacity="0.27"/>
  <line x1="702.56" y1="274.85" x2="703.72" y2="242.94" stroke="#56c26a" stroke-width="0.5" opacity="0.21"/>
  <circle cx="703.72" cy="242.94" r="1.81" fill="#2f9e6b" opacity="0.5"/>
  <line x1="702.56" y1="274.85" x2="729.98" y2="258.49" stroke="#56c26a" stroke-width="0.5" opacity="0.21"/>
  <circle cx="729.98" cy="258.49" r="1.58" fill="#2f9e6b" opacity="0.5"/>
  <line x1="647.58" y1="363.98" x2="706.85" y2="347.26" stroke="#56c26a" stroke-width="1.5" opacity="0.33"/>
  <line x1="706.85" y1="347.26" x2="734.98" y2="312.98" stroke="#56c26a" stroke-width="1" opacity="0.27"/>
  <line x1="734.98" y1="312.98" x2="739.85" y2="281.43" stroke="#56c26a" stroke-width="0.5" opacity="0.21"/>
  <line x1="734.98" y1="312.98" x2="766.26" y2="306.59" stroke="#56c26a" stroke-width="0.5" opacity="0.21"/>
  <line x1="706.85" y1="347.26" x2="747.35" y2="365.32" stroke="#56c26a" stroke-width="1" opacity="0.27"/>
  <circle cx="747.35" cy="365.32" r="3.16" fill="#2f9e6b" opacity="0.5"/>
  <line x1="747.35" y1="365.32" x2="779.16" y2="368.05" stroke="#56c26a" stroke-width="0.5" opacity="0.21"/>
  <circle cx="779.16" cy="368.05" r="2.69" fill="#2f9e6b" opacity="0.5"/>
  <line x1="747.35" y1="365.32" x2="768.88" y2="388.89" stroke="#56c26a" stroke-width="0.5" opacity="0.21"/>
  <circle cx="768.88" cy="388.89" r="3.32" fill="#2f9e6b" opacity="0.5"/>
</svg>
