<svg xmlns="http://www.w3.org/2000/svg" viewBox="0 0 160 160" width="160" height="160" role="img" aria-label="cs decorative background">
  <defs>
    <radialGradient id="grad-cs-small-09" cx="50%" cy="35%" r="80%">
      <stop offset="0%" stop-color="#3ddc84" stop-opacity="0.10"/>
      <stop offset="100%" stop-color="#06120b" stop-opacity="0"/>
    </radialGradient>
  </defs>
  <rect width="160" height="160" fill="#06120b"/>
  <rect width="160" height="160" fill="url(#grad-cs-small-09)"/>
  <path d="M176,88 L160,0 L116,0 L116,88" fill="none" stroke="#3ddc84" stroke-width="1.2" opacity="0.3"/>
  <circle cx="116" cy="88" r="2.6" fill="#a6f4c5" opacity="0.55"/>
  <path d="M132,44 L0,44 L132,44 L160,44 L72,44" fill="none" stroke="#3ddc84" stroke-width="1.2" opacity="0.3"/>
  <circle cx="72" cy="44" r="2.6" fill="#a6f4c5" opacity="0.55"/>
  <path d="M132,88 L132,0 L44,0" fill="none" stroke="#3ddc84" stroke-width="1.2" opacity="0.3"/>
  <circle cx="44" cy="0" r="2.6" fill="#a6f4c5" opacity="0.55"/>
  <path d="M88,88 L88,0 L88,0 L132,0 L160,0" fill="none" stroke="#3ddc84" stroke-width="1.2" opacity="0.3"/>
  <circle cx="160" cy="0" r="2.6" fill="#a6f4c5" opacity="0.55"/>
  <line x1="0" y1="53.33" x2="160" y2="53.33" stroke="#a6f4c5" stroke-width="0.8" stroke-dasharray="2 8" opacity="0.25"/>
  <path d="M44.05,49.33 L54.05,53.33 L44.05,57.33 Z" fill="#3ddc84" opacity="0.5"/>
  <path d="M76.45,49.33 L86.45,53.33 L76.45,57.33 Z" fill="#3ddc84" opacity="0.5"/>
  <path d="M10.82,49.33 L20.82,53.33 L10.82,57.33 Z" fill="#3ddc84" opacity="0.5"/>
  <path d="M49.48,49.33 L59.48,53.33 L49.48,57.33 Z" fill="#3ddc84" opacity="0.5"/>
  <line x1="0" y1="106.67" x2="160" y2="106.67" stroke="#a6f4c5" stroke-width="0.8" stroke-dasharray="2 8" opacity="0.25"/>
  <path d="M100.33,102.67 L110.33,106.67 L100.33,110.67 Z" fill="#3ddc84" opacity="0.5"/>
  <path d="M78.09,102.67 L88.09,106.67 L78.09,110.67 Z" fill="#3ddc84" opacity="0.5"/>
</svg>
