<svg xmlns="http://www.w3.org/2000/svg" viewBox="0 0 160 160" width="160" height="160" role="img" aria-label="cs decorative background">
  <defs>
    <radialGradient id="grad-cs-small-04" cx="50%" cy="35%" r="80%">
      <stop offset="0%" stop-color="#3ddc84" stop-opacity="0.10"/>
      <stop offset="100%" stop-color="#06120b" stop-opacity="0"/>
    </radialGradient>
  </defs>
  <rect width="160" height="160" fill="#06120b"/>
  <rect width="160" height="160" fill="url(#grad-cs-small-04)"/>
  <line x1="0" y1="53.33" x2="160" y2="53.33" stroke="#a6f4c5" stroke-width="0.8" stroke-dasharray="2 8" opacity="0.25"/>
  <path d="M19.17,49.33 L29.17,53.33 L19.17,57.33 Z" fill="#3ddc84" opacity="0.5"/>
  <path d="M11.69,49.33 L21.69,53.33 L11.69,57.33 Z" fill="#3ddc84" opacity="0.5"/>
  <path d="M108.04,49.33 L118.04,53.33 L108.04,57.33 Z" fill="#3ddc84" opacity="0.5"/>
  <line x1="0" y1="106.67" x2="160" y2="106.67" stroke="#a6f4c5" stroke-width="0.8" stroke-dasharray="2 8" opacity="0.25"/>
  <path d="M52.17,102.67 L62.17,106.67 L52.17,110.67 Z" fill="#3ddc84" opacity="0.5"/>
  <path d="M1.45,102.67 L11.45,106.67 L1.45,110.67 Z" fill="#3ddc84" opacity="0.5"/>
  <path d="M106.52,102.67 L116.52,106.67 L106.52,110.67 Z" fill="#3ddc84" opacity="0.5"/>
  <path d="M104.34,102.67 L114.34,106.67 L104.34,110.67 Z" fill="#3ddc84" opacity="0.5"/>
  <path d="M132,88 L160,88 L116,88 L116,160 L116,72" fill="none" stroke="#3ddc84" stroke-width="1.2" opacity="0.3"/>
  <circle cx="116" cy="72" r="2.6" fill="#a6f4c5" opacity="0.55"/>
  <path d="M88,0 L88,44 L88,0 L88,132" fill="none" stroke="#3ddc84" stroke-width="1.2" opacity="0.3"/>
  <circle cx="88" cy="132" r="2.6" fill="#a6f4c5" opacity="0.55"/>
  <path d="M132,176 L132,88 L132,132 L0,132" fill="none" stroke="#3ddc84" stroke-width="1.2" opacity="0.3"/>
  <circle cx="0" cy="132" r="2.6" fill="#a6f4c5" opacity="0.55"/>
  <path d="M88,0 L88,0 L88,132" fill="none" stroke="#3ddc84" stroke-width="1.2" opacity="0.3"/>
  <circle cx="88" cy="132" r="2.6" fill="#a6f4c5" opacity="0.55"/>
</svg>
