<svg xmlns="http://www.w3.org/2000/svg" viewBox="0 0 160 160" width="160" height="160" role="img" aria-label="math decorative background">
  <defs>
    <radialGradient id="grad-math-small-08" cx="50%" cy="35%" r="80%">
      <stop offset="0%" stop-color="#8b7bff" stop-opacity="0.10"/>
      <stop offset="100%" stop-color="#0e0a1f" stop-opacity="0"/>
    </radialGradient>
  </defs>
  <rect width="160" height="160" fill="#0e0a1f"/>
  <rect width="160" height="160" fill="url(#grad-math-small-08)"/>
  <line x1="0" y1="0" x2="0" y2="160" stroke="#c4b5fd" stroke-width="0.5" opacity="0.1"/>
  <line x1="28" y1="0" x2="28" y2="160" stroke="#c4b5fd" stroke-width="0.5" opacity="0.1"/>
  <line x1="56" y1="0" x2="56" y2="160" stroke="#c4b5fd" stroke-width="0.5" opacity="0.1"/>
  <line x1="84" y1="0" x2="84" y2="160" stroke="#c4b5fd" stroke-width="0.5" opacity="0.1"/>
  <line x1="112" y1="0" x2="112" y2="160" stroke="#c4b5fd" stroke-width="0.5" opacity="0.1"/>
  <line x1="140" y1="0" x2="140" y2="160" stroke="#c4b5fd" stroke-width="0.5" opacity="0.1"/>
  <line x1="0" y1="0" x2="160" y2="0" stroke="#c4b5fd" stroke-width="0.5" opacity="0.1"/>
  <line x1="0" y1="28" x2="160" y2="28" stroke="#c4b5fd" stroke-width="0.5" opacity="0.1"/>
  <line x1="0" y1="56" x2="160" y2="56" stroke="#c4b5fd" stroke-width="0.5" opacity="0.1"/>
  <line x1="0" y1="84" x2="160" y2="84" stroke="#c4b5fd" stroke-width="0.5" opacity="0.1"/>
  <line x1="0" y1="112" x2="160" y2="112" stroke="#c4b5fd" stroke-width="0.5" opacity="0.1"/>
  <line x1="0" y1="140" x2="160" y2="140" stroke="#c4b5fd" stroke-width="0.5" opacity="0.1"/>
  <polyline points="0,80 10,52.07 20,24.11 30,27.65 40,48.75 50,108.71 60,122.89 70,135.93 80,133.37 90,45.39 100,45.29 110,74.01 120,124.05 130,131.72 140,56.03 150,37.34 160,28.05" fill="none" stroke="#8b7bff" stroke-width="2" opacity="0.55"/>
</svg>
