<svg xmlns="http://www.w3.org/2000/svg" viewBox="0 0 160 160" width="160" height="160" role="img" aria-label="math decorative background">
  <defs>
    <radialGradient id="grad-math-small-09" cx="50%" cy="35%" r="80%">
      <stop offset="0%" stop-color="#8b7bff" stop-opacity="0.10"/>
      <stop offset="100%" stop-color="#0e0a1f" stop-opacity="0"/>
    </radialGradient>
  </defs>
  <rect width="160" height="160" fill="#0e0a1f"/>
  <rect width="160" height="160" fill="url(#grad-math-small-09)"/>
  <polygon points="147.51,30.57 131.4,43.83 118.14,27.71 134.25,14.46" fill="none" stroke="#8b7bff" stroke-width="1.2" opacity="0.38"/>
  <polygon points="98.54,108.95 113.48,93.55 119.34,114.19" fill="none" stroke="#c4b5fd" stroke-width="1.2" opacity="0.41"/>
  <polygon points="102.17,77.82 126.79,65.64 125.03,93.05" fill="none" stroke="#5b8cff" stroke-width="1.2" opacity="0.39"/>
  <polygon points="80,19.2 32,115.2 128,115.2" fill="none" stroke="#5b8cff" stroke-width="0.8" opacity="0.33"/>
  <polygon points="80,19.2 56,67.2 104,67.2" fill="none" stroke="#5b8cff" stroke-width="0.8" opacity="0.27"/>
  <polygon points="80,19.2 68,43.2 92,43.2" fill="none" stroke="#5b8cff" stroke-width="0.8" opacity="0.21"/>
  <polygon points="68,43.2 56,67.2 80,67.2" fill="none" stroke="#5b8cff" stroke-width="0.8" opacity="0.21"/>
  <polygon points="92,43.2 80,67.2 104,67.2" fill="none" stroke="#5b8cff" stroke-width="0.8" opacity="0.21"/>
  <polygon points="56,67.2 32,115.2 80,115.2" fill="none" stroke="#5b8cff" stroke-width="0.8" opacity="0.27"/>
  <polygon points="56,67.2 44,91.2 68,91.2" fill="none" stroke="#5b8cff" stroke-width="0.8" opacity="0.21"/>
  <polygon points="44,91.2 32,115.2 56,115.2" fill="none" stroke="#5b8cff" stroke-width="0.8" opacity="0.21"/>
  <polygon points="68,91.2 56,115.2 80,115.2" fill="none" stroke="#5b8cff" stroke-width="0.8" opacity="0.21"/>
  <polygon points="104,67.2 80,115.2 128,115.2" fill="none" stroke="#5b8cff" stroke-width="0.8" opacity="0.27"/>
  <polygon points="104,67.2 92,91.2 116,91.2" fill="none" stroke="#5b8cff" stroke-width="0.8" opacity="0.21"/>
  <polygon points="92,91.2 80,115.2 104,115.2" fill="none" stroke="#5b8cff" stroke-width="0.8" opacity="0.21"/>
  <polygon points="116,91.2 104,115.2 128,115.2" fill="none" stroke="#5b8cff" stroke-width="0.8" opacity="0.21"/>
</svg>
