<svg xmlns="http://www.w3.org/2000/svg" viewBox="0 0 160 160" width="160" height="160" role="img" aria-label="math decorative background">
  <defs>
    <radialGradient id="grad-math-small-05" cx="50%" cy="35%" r="80%">
      <stop offset="0%" stop-color="#8b7bff" stop-opacity="0.10"/>
      <stop offset="100%" stop-color="#0e0a1f" stop-opacity="0"/>
    </radialGradient>
  </defs>
  <rect width="160" height="160" fill="#0e0a1f"/>
  <rect width="160" height="160" fill="url(#grad-math-small-05)"/>
  <line x1="0" y1="0" x2="0" y2="160" stroke="#c4b5fd" stroke-width="0.5" opacity="0.1"/>
  <line x1="28" y1="0" x2="28" y2="160" stroke="#c4b5fd" stroke-width="0.5" opacity="0.1"/>
  <line x1="56" y1="0" x2="56" y2="160" stroke="#c4b5fd" stroke-width="0.5" opacity="0.1"/>
  <line x1="84" y1="0" x2="84" y2="160" stroke="#c4b5fd" stroke-width="0.5" opacity="0.1"/>
  <line x1="112" y1="0" x2="112" y2="160" stroke="#c4b5fd" stroke-width="0.5" opacity="0.1"/>
  <line x1="140" y1="0" x2="140" y2="160" stroke="#c4b5fd" stroke-width="0.5" opacity="0.1"/>
  <line x1="0" y1="0" x2="160" y2="0" stroke="#c4b5fd" stroke-width="0.5" opacity="0.1"/>
  <line x1="0" y1="28" x2="160" y2="28" stroke="#c4b5fd" stroke-width="0.5" opacity="0.1"/>
  <line x1="0" y1="56" x2="160" y2="56" stroke="#c4b5fd" stroke-width="0.5" opacity="0.1"/>
  <line x1="0" y1="84" x2="160" y2="84" stroke="#c4b5fd" stroke-width="0.5" opacity="0.1"/>
  <line x1="0" y1="112" x2="160" y2="112" stroke="#c4b5fd" stroke-width="0.5" opacity="0.1"/>
  <line x1="0" y1="140" x2="160" y2="140" stroke="#c4b5fd" stroke-width="0.5" opacity="0.1"/>
  <polyline points="0,152 10,149.17 20,145.95 30,142.31 40,138.19 50,133.52 60,128.22 70,122.22 80,115.42 90,107.72 100,98.99 110,89.1 120,77.89 130,65.19 140,50.79 150,34.48 160,16" fill="none" stroke="#8b7bff" stroke-width="2" opacity="0.55"/>
  <polygon points="80,19.2 32,115.2 128,115.2" fill="none" stroke="#5b8cff" stroke-width="0.8" opacity="0.33"/>
  <polygon points="80,19.2 56,67.2 104,67.2" fill="none" stroke="#5b8cff" stroke-width="0.8" opacity="0.27"/>
  <polygon points="80,19.2 68,43.2 92,43.2" fill="none" stroke="#5b8cff" stroke-width="0.8" opacity="0.21"/>
  <polygon points="68,43.2 56,67.2 80,67.2" fill="none" stroke="#5b8cff" stroke-width="0.8" opacity="0.21"/>
  <polygon points="92,43.2 80,67.2 104,67.2" fill="none" stroke="#5b8cff" stroke-width="0.8" opacity="0.21"/>
  <polygon points="56,67.2 32,115.2 80,115.2" fill="none" stroke="#5b8cff" stroke-width="0.8" opacity="0.27"/>
  <polygon points="56,67.2 44,91.2 68,91.2" fill="none" stroke="#5b8cff" stroke-width="0.8" opacity="0.21"/>
  <polygon points="44,91.2 32,115.2 56,115.2" fill="none" stroke="#5b8cff" stroke-width="0.8" opacity="0.21"/>
  <polygon points="68,91.2 56,115.2 80,115.2" fill="none" stroke="#5b8cff" stroke-width="0.8" opacity="0.21"/>
  <polygon points="104,67.2 80,115.2 128,115.2" fill="none" stroke="#5b8cff" stroke-width="0.8" opacity="0.27"/>
  <polygon points="104,67.2 92,91.2 116,91.2" fill="none" stroke="#5b8cff" stroke-width="0.8" opacity="0.21"/>
  <polygon points="92,91.2 80,115.2 104,115.2" fill="none" stroke="#5b8cff" stroke-width="0.8" opacity="0.21"/>
  <polygon points="116,91.2 104,115.2 128,115.2" fill="none" stroke="#5b8cff" stroke-width="0.8" opacity="0.21"/>
</svg>
