<svg xmlns="http://www.w3.org/2000/svg" viewBox="0 0 960 540" width="960" height="540" role="img" aria-label="cs decorative background">
  <defs>
    <radialGradient id="grad-cs-large-02" cx="50%" cy="35%" r="80%">
      <stop offset="0%" stop-color="#3ddc84" stop-opacity="0.10"/>
      <stop offset="100%" stop-color="#06120b" stop-opacity="0"/>
    </radialGradient>
  </defs>
  <rect width="960" height="540" fill="#06120b"/>
  <rect width="960" height="540" fill="url(#grad-cs-large-02)"/>
  <text x="18" y="102" font-family="monospace" font-size="36" fill="#3ddc84" opacity="0.33">1</text>
  <text x="18" y="162" font-family="monospace" font-size="36" fill="#3ddc84" opacity="0.35">1</text>
  <text x="18" y="222" font-family="monospace" font-size="36" fill="#3ddc84" opacity="0.13">1</text>
  <text x="18" y="342" font-family="monospace" font-size="36" fill="#3ddc84" opacity="0.34">0</text>
  <text x="18" y="462" font-family="monospace" font-size="36" fill="#3ddc84" opacity="0.24">0</text>
  <text x="78" y="222" font-family="monospace" font-size="36" fill="#3ddc84" opacity="0.34">0</text>
  <text x="78" y="282" font-family="monospace" font-size="36" fill="#3ddc84" opacity="0.39">0</text>
  <text x="78" y="402" font-family="monospace" font-size="36" fill="#3ddc84" opacity="0.3">0</text>
  <text x="138" y="342" font-family="monospace" font-size="36" fill="#3ddc84" opacity="0.2">0</text>
  <text x="138" y="462" font-family="monospace" font-size="36" fill="#3ddc84" opacity="0.12">1</text>
  <text x="198" y="102" font-family="monospace" font-size="36" fill="#3ddc84" opacity="0.13">1</text>
  <text x="198" y="522" font-family="monospace" font-size="36" fill="#3ddc84" opacity="0.36">1</text>
  <text x="258" y="102" font-family="monospace" font-size="36" fill="#3ddc84" opacity="0.27">1</text>
  <text x="258" y="282" font-family="monospace" font-size="36" fill="#3ddc84" opacity="0.36">1</text>
  <text x="258" y="402" font-family="monospace" font-size="36" fill="#3ddc84" opacity="0.2">0</text>
  <text x="318" y="42" font-family="monospace" font-size="36" fill="#3ddc84" opacity="0.35">0</text>
  <text x="318" y="102" font-family="monospace" font-size="36" fill="#3ddc84" opacity="0.32">0</text>
  <text x="318" y="162" font-family="monospace" font-size="36" fill="#3ddc84" opacity="0.24">1</text>
  <text x="318" y="222" font-family="monospace" font-size="36" fill="#3ddc84" opacity="0.24">0</text>
  <text x="318" y="282" font-family="monospace" font-size="36" fill="#3ddc84" opacity="0.4">0</text>
  <text x="318" y="342" font-family="monospace" font-size="36" fill="#3ddc84" opacity="0.17">0</text>
  <text x="378" y="102" font-family="monospace" font-size="36" fill="#3ddc84" opacity="0.15">0</text>
  <text x="378" y="162" font-family="monospace" font-size="36" fill="#3ddc84" opacity="0.3">1</text>
  <text x="378" y="342" font-family="monospace" font-size="36" fill="#3ddc84" opacity="0.18">0</text>
  <text x="378" y="462" font-family="monospace" font-size="36" fill="#3ddc84" opacity="0.26">1</text>
  <text x="378" y="522" font-family="monospace" font-size="36" fill="#3ddc84" opacity="0.36">1</text>
  <text x="438" y="102" font-family="monospace" font-size="36" fill="#3ddc84" opacity="0.37">0</text>
  <text x="438" y="222" font-family="monospace" font-size="36" fill="#3ddc84" opacity="0.34">0</text>
  <text x="438" y="282" font-family="monospace" font-size="36" fill="#3ddc84" opacity="0.31">1</text>
  <text x="438" y="342" font-family="monospace" font-size="36" fill="#3ddc84" opacity="0.29">0</text>
  <text x="438" y="402" font-family="monospace" font-size="36" fill="#3ddc84" opacity="0.13">1</text>
  <text x="498" y="42" font-family="monospace" font-size="36" fill="#3ddc84" opacity="0.37">1</text>
  <text x="498" y="102" font-family="monospace" font-size="36" fill="#3ddc84" opacity="0.21">0</text>
  <text x="498" y="162" font-family="monospace" font-size="36" fill="#3ddc84" opacity="0.3">0</text>
  <text x="498" y="342" font-family="monospace" font-size="36" fill="#3ddc84" opacity="0.32">1</text>
  <text x="498" y="402" font-family="monospace" font-size="36" fill="#3ddc84" opacity="0.4">0</text>
  <text x="498" y="462" font-family="monospace" font-size="36" fill="#3ddc84" opacity="0.2">1</text>
  <text x="498" y="522" font-family="monospace" font-size="36" fill="#3ddc84" opacity="0.14">0</text>
  <text x="558" y="102" font-family="monospace" font-size="36" fill="#3ddc84" opacity="0.17">1</text>
  <text x="558" y="222" font-family="monospace" font-size="36" fill="#3ddc84" opacity="0.15">0</text>
  <text x="558" y="402" font-family="monospace" font-size="36" fill="#3ddc84" opacity="0.26">1</text>
  <text x="558" y="462" font-family="monospace" font-size="36" fill="#3ddc84" opacity="0.29">1</text>
  <text x="618" y="102" font-family="monospace" font-size="36" fill="#3ddc84" opacity="0.25">1</text>
  <text x="618" y="222" font-family="monospace" font-size="36" fill="#3ddc84" opacity="0.17">1</text>
  <text x="618" y="282" font-family="monospace" font-size="36" fill="#3ddc84" opacity="0.21">1</text>
  <text x="618" y="402" font-family="monospace" font-size="36" fill="#3ddc84" opacity="0.37">1</text>
  <text x="618" y="522" font-family="monospace" font-size="36" fill="#3ddc84" opacity="0.22">1</text>
  <text x="678" y="42" font-family="monospace" font-size="36" fill="#3ddc84" opacity="0.12">0</text>
  <text x="678" y="222" font-family="monospace" font-size="36" fill="#3ddc84" opacity="0.2">1</text>
  <text x="678" y="282" font-family="monospace" font-size="36" fill="#3ddc84" opacity="0.19">1</text>
  <text x="678" y="462" font-family="monospace" font-size="36" fill="#3ddc84" opacity="0.25">1</text>
  <text x="678" y="522" font-family="monospace" font-size="36" fill="#3ddc84" opacity="0.3">1</text>
  <text x="738" y="42" font-family="monospace" font-size="36" fill="#3ddc84" opacity="0.36">1</text>
  <text x="738" y="162" font-family="monospace" font-size="36" fill="#3ddc84" opacity="0.4">1</text>
  <text x="738" y="282" font-family="monospace" font-size="36" fill="#3ddc84" opacity="0.2">1</text>
  <text x="738" y="342" font-family="monospace" font-size="36" fill="#3ddc84" opacity="0.13">0</text>
  <text x="798" y="162" font-family="monospace" font-size="36" fill="#3ddc84" opacity="0.14">0</text>
  <text x="798" y="222" font-family="monospace" font-size="36" fill="#3ddc84" opacity="0.29">1</text>
  <text x="798" y="282" font-family="monospace" font-size="36" fill="#3ddc84" opacity="0.18">1</text>
  <text x="798" y="342" font-family="monospace" font-size="36" fill="#3ddc84" opacity="0.36">1</text>
  <text x="798" y="402" font-family="monospace" font-size="36" fill="#3ddc84" opacity="0.21">0</text>
  <text x="798" y="462" font-family="monospace" font-size="36" fill="#3ddc84" opacity="0.27">1</text>
  <text x="858" y="42" font-family="monospace" font-size="36" fill="#3ddc84" opacity="0.29">0</text>
  <text x="858" y="102" font-family="monospace" font-size="36" fill="#3ddc84" opacity="0.33">0</text>
  <text x="858" y="222" font-family="monospace" font-size="36" fill="#3ddc84" opacity="0.34">0</text>
  <text x="858" y="402" font-family="monospace" font-size="36" fill="#3ddc84" opacity="0.2">0</text>
  <text x="918" y="102" font-family="monospace" font-size="36" fill="#3ddc84" opacity="0.15">1</text>
  <text x="918" y="162" font-family="monospace" font-size="36" fill="#3ddc84" opacity="0.14">0</text>
  <text x="918" y="222" font-family="monospace" font-size="36" fill="#3ddc84" opacity="0.36">0</text>
  <text x="918" y="282" font-family="monospace" font-size="36" fill="#3ddc84" opacity="0.31">1</text>
  <text x="918" y="342" font-family="monospace" font-size="36" fill="#3ddc84" opacity="0.32">1</text>
  <text x="918" y="402" font-family="monospace" font-size="36" fill="#3ddc84" opacity="0.16">1</text>
  <text x="918" y="462" font-family="monospace" font-size="36" fill="#3ddc84" opacity="0.22">0</text>
  <path d="M112,448 L112,112 L112,0" fill="none" stroke="#3ddc84" stroke-width="1.2" opacity="0.3"/>
  <circle cx="112" cy="0" r="2.6" fill="#a6f4c5" opacity="0.55"/>
  <path d="M672,112 L672,0 L672,0 L672,0" fill="none" stroke="#3ddc84" stroke-width="1.2" opacity="0.3"/>
  <circle cx="672" cy="0" r="2.6" fill="#a6f4c5" opacity="0.55"/>
  <path d="M448,0 L672,0 L960,0 L960,0" fill="none" stroke="#3ddc84" stroke-width="1.2" opacity="0.3"/>
  <circle cx="960" cy="0" r="2.6" fill="#a6f4c5" opacity="0.55"/>
  <path d="M784,336 L784,224 L784,540 L784,204 L448,204" fill="none" stroke="#3ddc84" stroke-width="1.2" opacity="0.3"/>
  <circle cx="448" cy="204" r="2.6" fill="#a6f4c5" opacity="0.55"/>
  <path d="M896,336 L784,336 L672,336 L896,336 L896,0" fill="none" stroke="#3ddc84" stroke-width="1.2" opacity="0.3"/>
  <circle cx="896" cy="0" r="2.6" fill="#a6f4c5" opacity="0.55"/>
  <path d="M896,112 L672,112 L672,0 L896,0 L960,0" fill="none" stroke="#3ddc84" stroke-width="1.2" opacity="0.3"/>
  <circle cx="960" cy="0" r="2.6" fill="#a6f4c5" opacity="0.55"/>
  <path d="M448,448 L784,448 L960,448 L960,224 L960,224" fill="none" stroke="#3ddc84" stroke-width="1.2" opacity="0.3"/>
  <circle cx="960" cy="224" r="2.6" fill="#a6f4c5" opacity="0.55"/>
  <path d="M112,448 L336,448 L672,448 L336,448 L224,448" fill="none" stroke="#3ddc84" stroke-width="1.2" opacity="0.3"/>
  <circle cx="224" cy="448" r="2.6" fill="#a6f4c5" opacity="0.55"/>
  <path d="M784,112 L784,224 L672,224" fill="none" stroke="#3ddc84" stroke-width="1.2" opacity="0.3"/>
  <circle cx="672" cy="224" r="2.6" fill="#a6f4c5" opacity="0.55"/>
  <path d="M0,448 L336,448 L224,448 L224,224" fill="none" stroke="#3ddc84" stroke-width="1.2" opacity="0.3"/>
  <circle cx="224" cy="224" r="2.6" fill="#a6f4c5" opacity="0.55"/>
  <path d="M112,448 L224,448 L0,448 L0,336 L0,112" fill="none" stroke="#3ddc84" stroke-width="1.2" opacity="0.3"/>
  <circle cx="0" cy="112" r="2.6" fill="#a6f4c5" opacity="0.55"/>
  <path d="M224,448 L336,448 L560,448 L336,448" fill="none" stroke="#3ddc84" stroke-width="1.2" opacity="0.3"/>
  <circle cx="336" cy="448" r="2.6" fill="#a6f4c5" opacity="0.55"/>
  <path d="M896,224 L896,112 L896,448 L960,448 L624,448" fill="none" stroke="#3ddc84" stroke-width="1.2" opacity="0.3"/>
  <circle cx="624" cy="448" r="2.6" fill="#a6f4c5" opacity="0.55"/>
  <path d="M112,336 L112,112 L0,112 L224,112 L112,112" fill="none" stroke="#3ddc84" stroke-width="1.2" opacity="0.3"/>
  <circle cx="112" cy="112" r="2.6" fill="#a6f4c5" opacity="0.55"/>
</svg>
