<svg xmlns="http://www.w3.org/2000/svg" viewBox="0 0 960 540" width="960" height="540" role="img" aria-label="cs decorative background">
  <defs>
    <radialGradient id="grad-cs-large-05" cx="50%" cy="35%" r="80%">
      <stop offset="0%" stop-color="#3ddc84" stop-opacity="0.10"/>
      <stop offset="100%" stop-color="#06120b" stop-opacity="0"/>
    </radialGradient>
  </defs>
  <rect width="960" height="540" fill="#06120b"/>
  <rect width="960" height="540" fill="url(#grad-cs-large-05)"/>
  <text x="18" y="102" font-family="monospace" font-size="36" fill="#3ddc84" opacity="0.36">0</text>
  <text x="18" y="222" font-family="monospace" font-size="36" fill="#3ddc84" opacity="0.28">0</text>
  <text x="18" y="462" font-family="monospace" font-size="36" fill="#3ddc84" opacity="0.37">1</text>
  <text x="78" y="42" font-family="monospace" font-size="36" fill="#3ddc84" opacity="0.31">1</text>
  <text x="78" y="102" font-family="monospace" font-size="36" fill="#3ddc84" opacity="0.25">0</text>
  <text x="78" y="162" font-family="monospace" font-size="36" fill="#3ddc84" opacity="0.13">1</text>
  <text x="78" y="342" font-family="monospace" font-size="36" fill="#3ddc84" opacity="0.3">1</text>
  <text x="78" y="402" font-family="monospace" font-size="36" fill="#3ddc84" opacity="0.2">0</text>
  <text x="78" y="462" font-family="monospace" font-size="36" fill="#3ddc84" opacity="0.22">1</text>
  <text x="78" y="522" font-family="monospace" font-size="36" fill="#3ddc84" opacity="0.2">0</text>
  <text x="138" y="42" font-family="monospace" font-size="36" fill="#3ddc84" opacity="0.19">0</text>
  <text x="138" y="162" font-family="monospace" font-size="36" fill="#3ddc84" opacity="0.22">0</text>
  <text x="138" y="222" font-family="monospace" font-size="36" fill="#3ddc84" opacity="0.36">1</text>
  <text x="138" y="282" font-family="monospace" font-size="36" fill="#3ddc84" opacity="0.3">0</text>
  <text x="138" y="342" font-family="monospace" font-size="36" fill="#3ddc84" opacity="0.34">1</text>
  <text x="138" y="462" font-family="monospace" font-size="36" fill="#3ddc84" opacity="0.15">1</text>
  <text x="198" y="42" font-family="monospace" font-size="36" fill="#3ddc84" opacity="0.25">0</text>
  <text x="198" y="102" font-family="monospace" font-size="36" fill="#3ddc84" opacity="0.15">1</text>
  <text x="198" y="342" font-family="monospace" font-size="36" fill="#3ddc84" opacity="0.35">1</text>
  <text x="198" y="402" font-family="monospace" font-size="36" fill="#3ddc84" opacity="0.37">0</text>
  <text x="258" y="162" font-family="monospace" font-size="36" fill="#3ddc84" opacity="0.34">1</text>
  <text x="258" y="282" font-family="monospace" font-size="36" fill="#3ddc84" opacity="0.16">1</text>
  <text x="258" y="402" font-family="monospace" font-size="36" fill="#3ddc84" opacity="0.19">0</text>
  <text x="318" y="342" font-family="monospace" font-size="36" fill="#3ddc84" opacity="0.34">0</text>
  <text x="318" y="462" font-family="monospace" font-size="36" fill="#3ddc84" opacity="0.16">0</text>
  <text x="318" y="522" font-family="monospace" font-size="36" fill="#3ddc84" opacity="0.37">0</text>
  <text x="378" y="42" font-family="monospace" font-size="36" fill="#3ddc84" opacity="0.28">1</text>
  <text x="378" y="162" font-family="monospace" font-size="36" fill="#3ddc84" opacity="0.39">0</text>
  <text x="378" y="342" font-family="monospace" font-size="36" fill="#3ddc84" opacity="0.32">0</text>
  <text x="378" y="402" font-family="monospace" font-size="36" fill="#3ddc84" opacity="0.24">1</text>
  <text x="378" y="522" font-family="monospace" font-size="36" fill="#3ddc84" opacity="0.37">1</text>
  <text x="438" y="42" font-family="monospace" font-size="36" fill="#3ddc84" opacity="0.24">1</text>
  <text x="438" y="102" font-family="monospace" font-size="36" fill="#3ddc84" opacity="0.28">1</text>
  <text x="438" y="162" font-family="monospace" font-size="36" fill="#3ddc84" opacity="0.35">0</text>
  <text x="438" y="222" font-family="monospace" font-size="36" fill="#3ddc84" opacity="0.27">0</text>
  <text x="438" y="402" font-family="monospace" font-size="36" fill="#3ddc84" opacity="0.24">0</text>
  <text x="438" y="522" font-family="monospace" font-size="36" fill="#3ddc84" opacity="0.33">1</text>
  <text x="498" y="42" font-family="monospace" font-size="36" fill="#3ddc84" opacity="0.39">1</text>
  <text x="498" y="102" font-family="monospace" font-size="36" fill="#3ddc84" opacity="0.15">0</text>
  <text x="498" y="162" font-family="monospace" font-size="36" fill="#3ddc84" opacity="0.19">1</text>
  <text x="498" y="282" font-family="monospace" font-size="36" fill="#3ddc84" opacity="0.32">1</text>
  <text x="498" y="342" font-family="monospace" font-size="36" fill="#3ddc84" opacity="0.26">1</text>
  <text x="498" y="462" font-family="monospace" font-size="36" fill="#3ddc84" opacity="0.28">1</text>
  <text x="498" y="522" font-family="monospace" font-size="36" fill="#3ddc84" opacity="0.18">0</text>
  <text x="558" y="162" font-family="monospace" font-size="36" fill="#3ddc84" opacity="0.3">1</text>
  <text x="558" y="222" font-family="monospace" font-size="36" fill="#3ddc84" opacity="0.28">0</text>
  <text x="558" y="522" font-family="monospace" font-size="36" fill="#3ddc84" opacity="0.21">1</text>
  <text x="618" y="42" font-family="monospace" font-size="36" fill="#3ddc84" opacity="0.22">0</text>
  <text x="618" y="162" font-family="monospace" font-size="36" fill="#3ddc84" opacity="0.34">1</text>
  <text x="618" y="282" font-family="monospace" font-size="36" fill="#3ddc84" opacity="0.27">0</text>
  <text x="618" y="342" font-family="monospace" font-size="36" fill="#3ddc84" opacity="0.37">0</text>
  <text x="618" y="402" font-family="monospace" font-size="36" fill="#3ddc84" opacity="0.21">0</text>
  <text x="678" y="102" font-family="monospace" font-size="36" fill="#3ddc84" opacity="0.28">1</text>
  <text x="678" y="162" font-family="monospace" font-size="36" fill="#3ddc84" opacity="0.22">1</text>
  <text x="678" y="222" font-family="monospace" font-size="36" fill="#3ddc84" opacity="0.27">0</text>
  <text x="678" y="282" font-family="monospace" font-size="36" fill="#3ddc84" opacity="0.18">0</text>
  <text x="678" y="402" font-family="monospace" font-size="36" fill="#3ddc84" opacity="0.37">0</text>
  <text x="738" y="102" font-family="monospace" font-size="36" fill="#3ddc84" opacity="0.33">0</text>
  <text x="738" y="282" font-family="monospace" font-size="36" fill="#3ddc84" opacity="0.13">0</text>
  <text x="738" y="342" font-family="monospace" font-size="36" fill="#3ddc84" opacity="0.21">0</text>
  <text x="738" y="402" font-family="monospace" font-size="36" fill="#3ddc84" opacity="0.14">1</text>
  <text x="738" y="462" font-family="monospace" font-size="36" fill="#3ddc84" opacity="0.37">0</text>
  <text x="798" y="42" font-family="monospace" font-size="36" fill="#3ddc84" opacity="0.28">0</text>
  <text x="798" y="102" font-family="monospace" font-size="36" fill="#3ddc84" opacity="0.27">1</text>
  <text x="798" y="222" font-family="monospace" font-size="36" fill="#3ddc84" opacity="0.17">1</text>
  <text x="798" y="282" font-family="monospace" font-size="36" fill="#3ddc84" opacity="0.16">1</text>
  <text x="798" y="342" font-family="monospace" font-size="36" fill="#3ddc84" opacity="0.24">1</text>
  <text x="798" y="522" font-family="monospace" font-size="36" fill="#3ddc84" opacity="0.17">1</text>
  <text x="858" y="42" font-family="monospace" font-size="36" fill="#3ddc84" opacity="0.29">1</text>
  <text x="858" y="102" font-family="monospace" font-size="36" fill="#3ddc84" opacity="0.31">0</text>
  <text x="858" y="402" font-family="monospace" font-size="36" fill="#3ddc84" opacity="0.22">1</text>
  <text x="858" y="462" font-family="monospace" font-size="36" fill="#3ddc84" opacity="0.23">1</text>
  <text x="858" y="522" font-family="monospace" font-size="36" fill="#3ddc84" opacity="0.19">1</text>
  <text x="918" y="42" font-family="monospace" font-size="36" fill="#3ddc84" opacity="0.3">0</text>
  <text x="918" y="222" font-family="monospace" font-size="36" fill="#3ddc84" opacity="0.39">0</text>
  <text x="918" y="282" font-family="monospace" font-size="36" fill="#3ddc84" opacity="0.24">1</text>
  <text x="918" y="342" font-family="monospace" font-size="36" fill="#3ddc84" opacity="0.36">1</text>
  <text x="918" y="402" font-family="monospace" font-size="36" fill="#3ddc84" opacity="0.25">1</text>
  <line x1="0" y1="67.5" x2="960" y2="67.5" stroke="#a6f4c5" stroke-width="0.8" stroke-dasharray="2 8" opacity="0.25"/>
  <path d="M572.24,63.5 L582.24,67.5 L572.24,71.5 Z" fill="#3ddc84" opacity="0.5"/>
  <path d="M289.56,63.5 L299.56,67.5 L289.56,71.5 Z" fill="#3ddc84" opacity="0.5"/>
  <path d="M403.03,63.5 L413.03,67.5 L403.03,71.5 Z" fill="#3ddc84" opacity="0.5"/>
  <line x1="0" y1="135" x2="960" y2="135" stroke="#a6f4c5" stroke-width="0.8" stroke-dasharray="2 8" opacity="0.25"/>
  <path d="M47.71,131 L57.71,135 L47.71,139 Z" fill="#3ddc84" opacity="0.5"/>
  <path d="M640.22,131 L650.22,135 L640.22,139 Z" fill="#3ddc84" opacity="0.5"/>
  <line x1="0" y1="202.5" x2="960" y2="202.5" stroke="#a6f4c5" stroke-width="0.8" stroke-dasharray="2 8" opacity="0.25"/>
  <path d="M671.27,198.5 L681.27,202.5 L671.27,206.5 Z" fill="#3ddc84" opacity="0.5"/>
  <path d="M417.91,198.5 L427.91,202.5 L417.91,206.5 Z" fill="#3ddc84" opacity="0.5"/>
  <path d="M926.81,198.5 L936.81,202.5 L926.81,206.5 Z" fill="#3ddc84" opacity="0.5"/>
  <path d="M712.72,198.5 L722.72,202.5 L712.72,206.5 Z" fill="#3ddc84" opacity="0.5"/>
  <line x1="0" y1="270" x2="960" y2="270" stroke="#a6f4c5" stroke-width="0.8" stroke-dasharray="2 8" opacity="0.25"/>
  <path d="M202.77,266 L212.77,270 L202.77,274 Z" fill="#3ddc84" opacity="0.5"/>
  <path d="M136.56,266 L146.56,270 L136.56,274 Z" fill="#3ddc84" opacity="0.5"/>
  <path d="M165.82,266 L175.82,270 L165.82,274 Z" fill="#3ddc84" opacity="0.5"/>
  <path d="M645.58,266 L655.58,270 L645.58,274 Z" fill="#3ddc84" opacity="0.5"/>
  <line x1="0" y1="337.5" x2="960" y2="337.5" stroke="#a6f4c5" stroke-width="0.8" stroke-dasharray="2 8" opacity="0.25"/>
  <path d="M434.74,333.5 L444.74,337.5 L434.74,341.5 Z" fill="#3ddc84" opacity="0.5"/>
  <path d="M271.14,333.5 L281.14,337.5 L271.14,341.5 Z" fill="#3ddc84" opacity="0.5"/>
  <line x1="0" y1="405" x2="960" y2="405" stroke="#a6f4c5" stroke-width="0.8" stroke-dasharray="2 8" opacity="0.25"/>
  <path d="M304.1,401 L314.1,405 L304.1,409 Z" fill="#3ddc84" opacity="0.5"/>
  <path d="M677.08,401 L687.08,405 L677.08,409 Z" fill="#3ddc84" opacity="0.5"/>
  <path d="M906.09,401 L916.09,405 L906.09,409 Z" fill="#3ddc84" opacity="0.5"/>
  <line x1="0" y1="472.5" x2="960" y2="472.5" stroke="#a6f4c5" stroke-width="0.8" stroke-dasharray="2 8" opacity="0.25"/>
  <path d="M156.03,468.5 L166.03,472.5 L156.03,476.5 Z" fill="#3ddc84" opacity="0.5"/>
  <path d="M270.21,468.5 L280.21,472.5 L270.21,476.5 Z" fill="#3ddc84" opacity="0.5"/>
  <path d="M313.73,468.5 L323.73,472.5 L313.73,476.5 Z" fill="#3ddc84" opacity="0.5"/>
</svg>
