<svg xmlns="http://www.w3.org/2000/svg" viewBox="0 0 960 540" width="960" height="540" role="img" aria-label="cs decorative background">
  <defs>
    <radialGradient id="grad-cs-large-03" cx="50%" cy="35%" r="80%">
      <stop offset="0%" stop-color="#3ddc84" stop-opacity="0.10"/>
      <stop offset="100%" stop-color="#06120b" stop-opacity="0"/>
    </radialGradient>
  </defs>
  <rect width="960" height="540" fill="#06120b"/>
  <rect width="960" height="540" fill="url(#grad-cs-large-03)"/>
  <path d="M224,112 L224,336 L224,540 L112,540" fill="none" stroke="#3ddc84" stroke-width="1.2" opacity="0.3"/>
  <circle cx="112" cy="540" r="2.6" fill="#a6f4c5" opacity="0.55"/>
  <path d="M336,112 L224,112 L224,336 L112,336" fill="none" stroke="#3ddc84" stroke-width="1.2" opacity="0.3"/>
  <circle cx="112" cy="336" r="2.6" fill="#a6f4c5" opacity="0.55"/>
  <path d="M672,0 L672,0 L672,224" fill="none" stroke="#3ddc84" stroke-width="1.2" opacity="0.3"/>
  <circle cx="672" cy="224" r="2.6" fill="#a6f4c5" opacity="0.55"/>
  <path d="M336,448 L336,540 L112,540 L0,540 L0,540" fill="none" stroke="#3ddc84" stroke-width="1.2" opacity="0.3"/>
  <circle cx="0" cy="540" r="2.6" fill="#a6f4c5" opacity="0.55"/>
  <path d="M672,0 L896,0 L896,0 L960,0 L960,112" fill="none" stroke="#3ddc84" stroke-width="1.2" opacity="0.3"/>
  <circle cx="960" cy="112" r="2.6" fill="#a6f4c5" opacity="0.55"/>
  <path d="M448,112 L448,0 L448,0 L784,0 L960,0" fill="none" stroke="#3ddc84" stroke-width="1.2" opacity="0.3"/>
  <circle cx="960" cy="0" r="2.6" fill="#a6f4c5" opacity="0.55"/>
  <path d="M224,0 L224,0 L224,0 L336,0" fill="none" stroke="#3ddc84" stroke-width="1.2" opacity="0.3"/>
  <circle cx="336" cy="0" r="2.6" fill="#a6f4c5" opacity="0.55"/>
  <path d="M112,448 L112,540 L0,540 L0,428 L0,428" fill="none" stroke="#3ddc84" stroke-width="1.2" opacity="0.3"/>
  <circle cx="0" cy="428" r="2.6" fill="#a6f4c5" opacity="0.55"/>
  <path d="M896,448 L896,540 L960,540 L960,540 L960,540" fill="none" stroke="#3ddc84" stroke-width="1.2" opacity="0.3"/>
  <circle cx="960" cy="540" r="2.6" fill="#a6f4c5" opacity="0.55"/>
  <path d="M448,224 L448,448 L672,448 L560,448 L560,540" fill="none" stroke="#3ddc84" stroke-width="1.2" opacity="0.3"/>
  <circle cx="560" cy="540" r="2.6" fill="#a6f4c5" opacity="0.55"/>
  <path d="M896,224 L960,224 L960,112 L960,448 L960,448" fill="none" stroke="#3ddc84" stroke-width="1.2" opacity="0.3"/>
  <circle cx="960" cy="448" r="2.6" fill="#a6f4c5" opacity="0.55"/>
  <path d="M896,448 L896,336 L960,336" fill="none" stroke="#3ddc84" stroke-width="1.2" opacity="0.3"/>
  <circle cx="960" cy="336" r="2.6" fill="#a6f4c5" opacity="0.55"/>
  <path d="M112,224 L336,224 L336,448" fill="none" stroke="#3ddc84" stroke-width="1.2" opacity="0.3"/>
  <circle cx="336" cy="448" r="2.6" fill="#a6f4c5" opacity="0.55"/>
  <path d="M112,560 L112,448 L336,448 L336,540" fill="none" stroke="#3ddc84" stroke-width="1.2" opacity="0.3"/>
  <circle cx="336" cy="540" r="2.6" fill="#a6f4c5" opacity="0.55"/>
  <text x="18" y="42" font-family="monospace" font-size="36" fill="#3ddc84" opacity="0.25">0</text>
  <text x="18" y="222" font-family="monospace" font-size="36" fill="#3ddc84" opacity="0.29">0</text>
  <text x="18" y="282" font-family="monospace" font-size="36" fill="#3ddc84" opacity="0.19">1</text>
  <text x="18" y="462" font-family="monospace" font-size="36" fill="#3ddc84" opacity="0.38">1</text>
  <text x="18" y="522" font-family="monospace" font-size="36" fill="#3ddc84" opacity="0.16">1</text>
  <text x="78" y="42" font-family="monospace" font-size="36" fill="#3ddc84" opacity="0.12">1</text>
  <text x="78" y="102" font-family="monospace" font-size="36" fill="#3ddc84" opacity="0.12">1</text>
  <text x="78" y="162" font-family="monospace" font-size="36" fill="#3ddc84" opacity="0.12">1</text>
  <text x="78" y="222" font-family="monospace" font-size="36" fill="#3ddc84" opacity="0.33">0</text>
  <text x="78" y="282" font-family="monospace" font-size="36" fill="#3ddc84" opacity="0.31">0</text>
  <text x="78" y="402" font-family="monospace" font-size="36" fill="#3ddc84" opacity="0.33">1</text>
  <text x="78" y="462" font-family="monospace" font-size="36" fill="#3ddc84" opacity="0.29">1</text>
  <text x="78" y="522" font-family="monospace" font-size="36" fill="#3ddc84" opacity="0.24">1</text>
  <text x="138" y="42" font-family="monospace" font-size="36" fill="#3ddc84" opacity="0.19">1</text>
  <text x="138" y="102" font-family="monospace" font-size="36" fill="#3ddc84" opacity="0.38">0</text>
  <text x="138" y="222" font-family="monospace" font-size="36" fill="#3ddc84" opacity="0.22">0</text>
  <text x="138" y="342" font-family="monospace" font-size="36" fill="#3ddc84" opacity="0.2">1</text>
  <text x="198" y="42" font-family="monospace" font-size="36" fill="#3ddc84" opacity="0.3">0</text>
  <text x="198" y="102" font-family="monospace" font-size="36" fill="#3ddc84" opacity="0.24">1</text>
  <text x="198" y="342" font-family="monospace" font-size="36" fill="#3ddc84" opacity="0.15">1</text>
  <text x="198" y="462" font-family="monospace" font-size="36" fill="#3ddc84" opacity="0.24">0</text>
  <text x="198" y="522" font-family="monospace" font-size="36" fill="#3ddc84" opacity="0.33">1</text>
  <text x="258" y="342" font-family="monospace" font-size="36" fill="#3ddc84" opacity="0.25">0</text>
  <text x="258" y="462" font-family="monospace" font-size="36" fill="#3ddc84" opacity="0.16">0</text>
  <text x="318" y="42" font-family="monospace" font-size="36" fill="#3ddc84" opacity="0.37">0</text>
  <text x="318" y="162" font-family="monospace" font-size="36" fill="#3ddc84" opacity="0.16">0</text>
  <text x="318" y="282" font-family="monospace" font-size="36" fill="#3ddc84" opacity="0.12">1</text>
  <text x="318" y="342" font-family="monospace" font-size="36" fill="#3ddc84" opacity="0.28">0</text>
  <text x="318" y="402" font-family="monospace" font-size="36" fill="#3ddc84" opacity="0.23">1</text>
  <text x="318" y="462" font-family="monospace" font-size="36" fill="#3ddc84" opacity="0.21">0</text>
  <text x="318" y="522" font-family="monospace" font-size="36" fill="#3ddc84" opacity="0.18">0</text>
  <text x="378" y="42" font-family="monospace" font-size="36" fill="#3ddc84" opacity="0.27">0</text>
  <text x="378" y="102" font-family="monospace" font-size="36" fill="#3ddc84" opacity="0.21">0</text>
  <text x="378" y="222" font-family="monospace" font-size="36" fill="#3ddc84" opacity="0.25">1</text>
  <text x="378" y="282" font-family="monospace" font-size="36" fill="#3ddc84" opacity="0.16">1</text>
  <text x="378" y="402" font-family="monospace" font-size="36" fill="#3ddc84" opacity="0.23">0</text>
  <text x="378" y="462" font-family="monospace" font-size="36" fill="#3ddc84" opacity="0.22">0</text>
  <text x="438" y="42" font-family="monospace" font-size="36" fill="#3ddc84" opacity="0.38">0</text>
  <text x="438" y="102" font-family="monospace" font-size="36" fill="#3ddc84" opacity="0.29">1</text>
  <text x="438" y="282" font-family="monospace" font-size="36" fill="#3ddc84" opacity="0.31">0</text>
  <text x="438" y="402" font-family="monospace" font-size="36" fill="#3ddc84" opacity="0.24">1</text>
  <text x="438" y="522" font-family="monospace" font-size="36" fill="#3ddc84" opacity="0.15">0</text>
  <text x="498" y="402" font-family="monospace" font-size="36" fill="#3ddc84" opacity="0.18">1</text>
  <text x="498" y="462" font-family="monospace" font-size="36" fill="#3ddc84" opacity="0.32">0</text>
  <text x="498" y="522" font-family="monospace" font-size="36" fill="#3ddc84" opacity="0.23">1</text>
  <text x="558" y="102" font-family="monospace" font-size="36" fill="#3ddc84" opacity="0.29">0</text>
  <text x="558" y="162" font-family="monospace" font-size="36" fill="#3ddc84" opacity="0.31">0</text>
  <text x="558" y="222" font-family="monospace" font-size="36" fill="#3ddc84" opacity="0.27">1</text>
  <text x="558" y="282" font-family="monospace" font-size="36" fill="#3ddc84" opacity="0.34">1</text>
  <text x="558" y="402" font-family="monospace" font-size="36" fill="#3ddc84" opacity="0.21">0</text>
  <text x="558" y="462" font-family="monospace" font-size="36" fill="#3ddc84" opacity="0.19">1</text>
  <text x="558" y="522" font-family="monospace" font-size="36" fill="#3ddc84" opacity="0.26">1</text>
  <text x="618" y="102" font-family="monospace" font-size="36" fill="#3ddc84" opacity="0.24">1</text>
  <text x="618" y="222" font-family="monospace" font-size="36" fill="#3ddc84" opacity="0.29">1</text>
  <text x="618" y="402" font-family="monospace" font-size="36" fill="#3ddc84" opacity="0.24">1</text>
  <text x="678" y="42" font-family="monospace" font-size="36" fill="#3ddc84" opacity="0.15">1</text>
  <text x="678" y="162" font-family="monospace" font-size="36" fill="#3ddc84" opacity="0.12">1</text>
  <text x="678" y="222" font-family="monospace" font-size="36" fill="#3ddc84" opacity="0.37">1</text>
  <text x="678" y="342" font-family="monospace" font-size="36" fill="#3ddc84" opacity="0.17">1</text>
  <text x="678" y="402" font-family="monospace" font-size="36" fill="#3ddc84" opacity="0.3">1</text>
  <text x="678" y="522" font-family="monospace" font-size="36" fill="#3ddc84" opacity="0.25">0</text>
  <text x="738" y="42" font-family="monospace" font-size="36" fill="#3ddc84" opacity="0.17">0</text>
  <text x="738" y="162" font-family="monospace" font-size="36" fill="#3ddc84" opacity="0.3">0</text>
  <text x="738" y="222" font-family="monospace" font-size="36" fill="#3ddc84" opacity="0.36">0</text>
  <text x="738" y="282" font-family="monospace" font-size="36" fill="#3ddc84" opacity="0.23">1</text>
  <text x="738" y="342" font-family="monospace" font-size="36" fill="#3ddc84" opacity="0.15">0</text>
  <text x="738" y="522" font-family="monospace" font-size="36" fill="#3ddc84" opacity="0.32">0</text>
  <text x="798" y="42" font-family="monospace" font-size="36" fill="#3ddc84" opacity="0.17">1</text>
  <text x="798" y="102" font-family="monospace" font-size="36" fill="#3ddc84" opacity="0.24">1</text>
  <text x="798" y="162" font-family="monospace" font-size="36" fill="#3ddc84" opacity="0.24">0</text>
  <text x="798" y="282" font-family="monospace" font-size="36" fill="#3ddc84" opacity="0.13">1</text>
  <text x="798" y="402" font-family="monospace" font-size="36" fill="#3ddc84" opacity="0.18">1</text>
  <text x="798" y="462" font-family="monospace" font-size="36" fill="#3ddc84" opacity="0.39">0</text>
  <text x="798" y="522" font-family="monospace" font-size="36" fill="#3ddc84" opacity="0.32">0</text>
  <text x="858" y="222" font-family="monospace" font-size="36" fill="#3ddc84" opacity="0.27">1</text>
  <text x="858" y="282" font-family="monospace" font-size="36" fill="#3ddc84" opacity="0.15">1</text>
  <text x="858" y="342" font-family="monospace" font-size="36" fill="#3ddc84" opacity="0.28">1</text>
  <text x="858" y="402" font-family="monospace" font-size="36" fill="#3ddc84" opacity="0.28">0</text>
  <text x="858" y="462" font-family="monospace" font-size="36" fill="#3ddc84" opacity="0.17">0</text>
  <text x="858" y="522" font-family="monospace" font-size="36" fill="#3ddc84" opacity="0.33">1</text>
  <text x="918" y="102" font-family="monospace" font-size="36" fill="#3ddc84" opacity="0.24">1</text>
  <text x="918" y="162" font-family="monospace" font-size="36" fill="#3ddc84" opacity="0.25">0</text>
  <text x="918" y="282" font-family="monospace" font-size="36" fill="#3ddc84" opacity="0.37">1</text>
  <text x="918" y="342" font-family="monospace" font-size="36" fill="#3ddc84" opacity="0.4">1</text>
  <text x="918" y="402" font-family="monospace" font-size="36" fill="#3ddc84" opacity="0.33">0</text>
  <text x="918" y="462" font-family="monospace" font-size="36" fill="#3ddc84" opacity="0.35">0</text>
  <text x="918" y="522" font-family="monospace" font-size="36" fill="#3ddc84" opacity="0.4">1</text>
</svg>
