<svg xmlns="http://www.w3.org/2000/svg" viewBox="0 0 160 160" width="160" height="160" role="img" aria-label="physics decorative background">
  <defs>
    <radialGradient id="grad-physics-small-03" cx="50%" cy="35%" r="80%">
      <stop offset="0%" stop-color="#5b8cff" stop-opacity="0.10"/>
      <stop offset="100%" stop-color="#0b1026" stop-opacity="0"/>
    </radialGradient>
  </defs>
  <rect width="160" height="160" fill="#0b1026"/>
  <rect width="160" height="160" fill="url(#grad-physics-small-03)"/>
  <polyline points="0,42.63 12.31,43.3 24.62,43.76 36.92,43.98 49.23,43.94 61.54,43.64 73.85,43.12 86.15,42.39 98.46,41.51 110.77,40.55 123.08,39.57 135.38,38.64 147.69,37.82 160,37.17" fill="none" stroke="#39d0d8" stroke-width="1.56" opacity="0.26"/>
  <polyline points="0,80.46 12.31,79.51 24.62,78.53 36.92,77.55 49.23,76.59 61.54,75.7 73.85,74.91 86.15,74.24 98.46,73.73 110.77,73.38 123.08,73.22 135.38,73.24 147.69,73.44 160,73.83" fill="none" stroke="#39d0d8" stroke-width="2.08" opacity="0.19"/>
  <polyline points="0,106.38 12.31,106.19 24.62,106.19 36.92,106.39 49.23,106.78 61.54,107.35 73.85,108.08 86.15,108.95 98.46,109.93 110.77,111 123.08,112.11 135.38,113.25 147.69,114.36 160,115.43" fill="none" stroke="#5b8cff" stroke-width="1.17" opacity="0.35"/>
  <circle cx="22.8" cy="149.04" r="1.69" fill="#9b6bff" opacity="0.25"/>
  <line x1="22.8" y1="149.04" x2="1.38" y2="153.71" stroke="#9b6bff" stroke-width="0.8" opacity="0.18"/>
  <circle cx="36.41" cy="13.82" r="0.74" fill="#5b8cff" opacity="0.28"/>
  <line x1="36.41" y1="13.82" x2="18.45" y2="11.89" stroke="#5b8cff" stroke-width="0.8" opacity="0.18"/>
  <circle cx="20.18" cy="92.82" r="0.86" fill="#5b8cff" opacity="0.29"/>
  <circle cx="49.75" cy="18.38" r="2.06" fill="#9b6bff" opacity="0.47"/>
  <circle cx="140.01" cy="41.06" r="0.62" fill="#9b6bff" opacity="0.4"/>
  <circle cx="80.32" cy="148.23" r="0.75" fill="#9b6bff" opacity="0.33"/>
  <circle cx="83.51" cy="100.73" r="1.3" fill="#9b6bff" opacity="0.53"/>
  <circle cx="142.63" cy="71.34" r="2.17" fill="#39d0d8" opacity="0.26"/>
  <circle cx="99.48" cy="128.07" r="1.16" fill="#9b6bff" opacity="0.38"/>
  <line x1="99.48" y1="128.07" x2="84.52" y2="122.29" stroke="#9b6bff" stroke-width="0.8" opacity="0.18"/>
  <circle cx="46.35" cy="67.22" r="0.67" fill="#9b6bff" opacity="0.32"/>
  <line x1="46.35" y1="67.22" x2="26.24" y2="64.09" stroke="#9b6bff" stroke-width="0.8" opacity="0.18"/>
  <circle cx="44.03" cy="55.93" r="1.77" fill="#5b8cff" opacity="0.23"/>
  <circle cx="10.46" cy="82.52" r="2.39" fill="#39d0d8" opacity="0.37"/>
  <line x1="10.46" y1="82.52" x2="-8.41" y2="76.91" stroke="#39d0d8" stroke-width="0.8" opacity="0.18"/>
</svg>
