<svg xmlns="http://www.w3.org/2000/svg" viewBox="0 0 160 160" width="160" height="160" role="img" aria-label="physics decorative background">
  <defs>
    <radialGradient id="grad-physics-small-05" cx="50%" cy="35%" r="80%">
      <stop offset="0%" stop-color="#5b8cff" stop-opacity="0.10"/>
      <stop offset="100%" stop-color="#0b1026" stop-opacity="0"/>
    </radialGradient>
  </defs>
  <rect width="160" height="160" fill="#0b1026"/>
  <rect width="160" height="160" fill="url(#grad-physics-small-05)"/>
  <circle cx="79.7" cy="16.55" r="1.49" fill="#39d0d8" opacity="0.48"/>
  <circle cx="141.52" cy="31.97" r="1.83" fill="#5b8cff" opacity="0.24"/>
  <line x1="141.52" y1="31.97" x2="117.99" y2="35.9" stroke="#5b8cff" stroke-width="0.8" opacity="0.18"/>
  <circle cx="138.22" cy="86.06" r="2.01" fill="#5b8cff" opacity="0.42"/>
  <circle cx="72.47" cy="102.81" r="0.73" fill="#5b8cff" opacity="0.47"/>
  <line x1="72.47" y1="102.81" x2="49.19" y2="107.49" stroke="#5b8cff" stroke-width="0.8" opacity="0.18"/>
  <circle cx="150.86" cy="21.92" r="1.13" fill="#5b8cff" opacity="0.24"/>
  <line x1="150.86" y1="21.92" x2="133.72" y2="16.43" stroke="#5b8cff" stroke-width="0.8" opacity="0.18"/>
  <circle cx="38.53" cy="94.26" r="0.71" fill="#5b8cff" opacity="0.4"/>
  <circle cx="95.89" cy="5.42" r="1.28" fill="#39d0d8" opacity="0.34"/>
  <circle cx="30.92" cy="132.71" r="1.95" fill="#9b6bff" opacity="0.23"/>
  <line x1="30.92" y1="132.71" x2="14.85" y2="129.95" stroke="#9b6bff" stroke-width="0.8" opacity="0.18"/>
  <circle cx="99.44" cy="131.96" r="0.71" fill="#9b6bff" opacity="0.37"/>
  <line x1="99.44" y1="131.96" x2="75.49" y2="130.48" stroke="#9b6bff" stroke-width="0.8" opacity="0.18"/>
  <circle cx="137.55" cy="75.86" r="1.42" fill="#39d0d8" opacity="0.29"/>
  <line x1="137.55" y1="75.86" x2="125.25" y2="80.11" stroke="#39d0d8" stroke-width="0.8" opacity="0.18"/>
  <circle cx="30.02" cy="68.92" r="0.82" fill="#5b8cff" opacity="0.53"/>
  <line x1="30.02" y1="68.92" x2="14.95" y2="73.53" stroke="#5b8cff" stroke-width="0.8" opacity="0.18"/>
  <circle cx="74.66" cy="59.88" r="1.82" fill="#5b8cff" opacity="0.46"/>
  <line x1="74.66" y1="59.88" x2="63.06" y2="58.13" stroke="#5b8cff" stroke-width="0.8" opacity="0.18"/>
  <circle cx="95.53" cy="102.81" r="33.33" fill="none" stroke="#9b6bff" stroke-width="1" opacity="0.28"/>
  <circle cx="95.53" cy="102.81" r="66.67" fill="none" stroke="#9b6bff" stroke-width="1" opacity="0.25"/>
  <circle cx="95.53" cy="102.81" r="100" fill="none" stroke="#9b6bff" stroke-width="1" opacity="0.22"/>
  <line x1="95.53" y1="102.81" x2="167.44" y2="106.52" stroke="#5b8cff" stroke-width="0.6" opacity="0.12"/>
  <line x1="95.53" y1="102.81" x2="127.85" y2="167.15" stroke="#5b8cff" stroke-width="0.6" opacity="0.12"/>
  <line x1="95.53" y1="102.81" x2="52.67" y2="160.65" stroke="#5b8cff" stroke-width="0.6" opacity="0.12"/>
  <line x1="95.53" y1="102.81" x2="23.58" y2="100.17" stroke="#5b8cff" stroke-width="0.6" opacity="0.12"/>
  <line x1="95.53" y1="102.81" x2="70.39" y2="35.34" stroke="#5b8cff" stroke-width="0.6" opacity="0.12"/>
  <line x1="95.53" y1="102.81" x2="142.11" y2="47.9" stroke="#5b8cff" stroke-width="0.6" opacity="0.12"/>
</svg>
