<svg xmlns="http://www.w3.org/2000/svg" viewBox="0 0 160 160" width="160" height="160" role="img" aria-label="physics decorative background">
  <defs>
    <radialGradient id="grad-physics-small-01" cx="50%" cy="35%" r="80%">
      <stop offset="0%" stop-color="#5b8cff" stop-opacity="0.10"/>
      <stop offset="100%" stop-color="#0b1026" stop-opacity="0"/>
    </radialGradient>
  </defs>
  <rect width="160" height="160" fill="#0b1026"/>
  <rect width="160" height="160" fill="url(#grad-physics-small-01)"/>
  <circle cx="90.89" cy="80.22" r="33.33" fill="none" stroke="#9b6bff" stroke-width="1" opacity="0.28"/>
  <circle cx="90.89" cy="80.22" r="66.67" fill="none" stroke="#9b6bff" stroke-width="1" opacity="0.25"/>
  <circle cx="90.89" cy="80.22" r="100" fill="none" stroke="#9b6bff" stroke-width="1" opacity="0.22"/>
  <line x1="90.89" y1="80.22" x2="161.75" y2="92.97" stroke="#5b8cff" stroke-width="0.6" opacity="0.12"/>
  <line x1="90.89" y1="80.22" x2="113.01" y2="148.74" stroke="#5b8cff" stroke-width="0.6" opacity="0.12"/>
  <line x1="90.89" y1="80.22" x2="47.46" y2="137.65" stroke="#5b8cff" stroke-width="0.6" opacity="0.12"/>
  <line x1="90.89" y1="80.22" x2="19.02" y2="75.85" stroke="#5b8cff" stroke-width="0.6" opacity="0.12"/>
  <line x1="90.89" y1="80.22" x2="55.93" y2="17.28" stroke="#5b8cff" stroke-width="0.6" opacity="0.12"/>
  <line x1="90.89" y1="80.22" x2="128.7" y2="18.95" stroke="#5b8cff" stroke-width="0.6" opacity="0.12"/>
  <circle cx="27.59" cy="157.01" r="1.07" fill="#39d0d8" opacity="0.23"/>
  <circle cx="121.39" cy="126.65" r="2.17" fill="#39d0d8" opacity="0.35"/>
  <circle cx="99.77" cy="96.84" r="1.02" fill="#39d0d8" opacity="0.54"/>
  <circle cx="16.15" cy="90.12" r="1.55" fill="#39d0d8" opacity="0.33"/>
  <circle cx="96.67" cy="48.88" r="1.2" fill="#5b8cff" opacity="0.25"/>
  <circle cx="120.6" cy="8.04" r="1.58" fill="#5b8cff" opacity="0.34"/>
  <circle cx="26.09" cy="14.19" r="2.33" fill="#39d0d8" opacity="0.22"/>
  <line x1="26.09" y1="14.19" x2="4.04" y2="17.65" stroke="#39d0d8" stroke-width="0.8" opacity="0.18"/>
  <circle cx="99.93" cy="139.02" r="2.29" fill="#5b8cff" opacity="0.29"/>
  <circle cx="104.81" cy="30.72" r="2.27" fill="#5b8cff" opacity="0.54"/>
  <line x1="104.81" y1="30.72" x2="87.71" y2="27.89" stroke="#5b8cff" stroke-width="0.8" opacity="0.18"/>
  <circle cx="84.57" cy="65.08" r="1.3" fill="#39d0d8" opacity="0.42"/>
  <circle cx="115.86" cy="140.98" r="2.01" fill="#5b8cff" opacity="0.2"/>
  <circle cx="56.01" cy="14.34" r="2.19" fill="#9b6bff" opacity="0.39"/>
  <line x1="56.01" y1="14.34" x2="38.48" y2="11.34" stroke="#9b6bff" stroke-width="0.8" opacity="0.18"/>
</svg>
