<svg xmlns="http://www.w3.org/2000/svg" viewBox="0 0 160 160" width="160" height="160" role="img" aria-label="physics decorative background">
  <defs>
    <radialGradient id="grad-physics-small-02" cx="50%" cy="35%" r="80%">
      <stop offset="0%" stop-color="#5b8cff" stop-opacity="0.10"/>
      <stop offset="100%" stop-color="#0b1026" stop-opacity="0"/>
    </radialGradient>
  </defs>
  <rect width="160" height="160" fill="#0b1026"/>
  <rect width="160" height="160" fill="url(#grad-physics-small-02)"/>
  <circle cx="32.57" cy="62.49" r="1.02" fill="#5b8cff" opacity="0.28"/>
  <circle cx="58.83" cy="129.71" r="0.64" fill="#5b8cff" opacity="0.38"/>
  <circle cx="85.89" cy="101" r="1.01" fill="#5b8cff" opacity="0.25"/>
  <line x1="85.89" y1="101" x2="62.11" y2="98.87" stroke="#5b8cff" stroke-width="0.8" opacity="0.18"/>
  <circle cx="23.35" cy="104.09" r="2.13" fill="#39d0d8" opacity="0.55"/>
  <line x1="23.35" y1="104.09" x2="7.01" y2="101.95" stroke="#39d0d8" stroke-width="0.8" opacity="0.18"/>
  <circle cx="49.13" cy="120" r="1.36" fill="#5b8cff" opacity="0.43"/>
  <circle cx="86.56" cy="77.17" r="1.67" fill="#5b8cff" opacity="0.21"/>
  <circle cx="106.58" cy="34.7" r="2.24" fill="#39d0d8" opacity="0.21"/>
  <circle cx="29.62" cy="97.73" r="0.66" fill="#39d0d8" opacity="0.36"/>
  <circle cx="37.28" cy="122.01" r="1.9" fill="#5b8cff" opacity="0.24"/>
  <circle cx="150.28" cy="49.29" r="1.99" fill="#39d0d8" opacity="0.38"/>
  <line x1="150.28" y1="49.29" x2="132.14" y2="45.98" stroke="#39d0d8" stroke-width="0.8" opacity="0.18"/>
  <circle cx="125.38" cy="3.71" r="1.25" fill="#5b8cff" opacity="0.37"/>
  <circle cx="143.07" cy="25.1" r="0.87" fill="#5b8cff" opacity="0.31"/>
  <polyline points="0,34.81 12.31,34.96 24.62,35.21 36.92,35.54 49.23,35.95 61.54,36.43 73.85,36.97 86.15,37.55 98.46,38.17 110.77,38.8 123.08,39.44 135.38,40.06 147.69,40.66 160,41.22" fill="none" stroke="#39d0d8" stroke-width="1.69" opacity="0.39"/>
  <polyline points="0,90.83 12.31,91.01 24.62,91.06 36.92,90.99 49.23,90.8 61.54,90.49 73.85,90.08 86.15,89.56 98.46,88.95 110.77,88.26 123.08,87.51 135.38,86.71 147.69,85.87 160,85.03" fill="none" stroke="#39d0d8" stroke-width="2.15" opacity="0.29"/>
  <polyline points="0,104.31 12.31,104.7 24.62,105.36 36.92,106.27 49.23,107.41 61.54,108.74 73.85,110.23 86.15,111.83 98.46,113.5 110.77,115.2 123.08,116.87 135.38,118.47 147.69,119.95 160,121.28" fill="none" stroke="#5b8cff" stroke-width="1.09" opacity="0.16"/>
</svg>
