<svg xmlns="http://www.w3.org/2000/svg" viewBox="0 0 160 160" width="160" height="160" role="img" aria-label="physics decorative background">
  <defs>
    <radialGradient id="grad-physics-small-10" cx="50%" cy="35%" r="80%">
      <stop offset="0%" stop-color="#5b8cff" stop-opacity="0.10"/>
      <stop offset="100%" stop-color="#0b1026" stop-opacity="0"/>
    </radialGradient>
  </defs>
  <rect width="160" height="160" fill="#0b1026"/>
  <rect width="160" height="160" fill="url(#grad-physics-small-10)"/>
  <circle cx="52.3" cy="82.68" r="33.33" fill="none" stroke="#9b6bff" stroke-width="1" opacity="0.28"/>
  <circle cx="52.3" cy="82.68" r="66.67" fill="none" stroke="#9b6bff" stroke-width="1" opacity="0.25"/>
  <circle cx="52.3" cy="82.68" r="100" fill="none" stroke="#9b6bff" stroke-width="1" opacity="0.22"/>
  <line x1="52.3" y1="82.68" x2="123.09" y2="95.82" stroke="#5b8cff" stroke-width="0.6" opacity="0.12"/>
  <line x1="52.3" y1="82.68" x2="77.74" y2="150.03" stroke="#5b8cff" stroke-width="0.6" opacity="0.12"/>
  <line x1="52.3" y1="82.68" x2="9.39" y2="140.49" stroke="#5b8cff" stroke-width="0.6" opacity="0.12"/>
  <line x1="52.3" y1="82.68" x2="-19.58" y2="78.52" stroke="#5b8cff" stroke-width="0.6" opacity="0.12"/>
  <line x1="52.3" y1="82.68" x2="16.59" y2="20.16" stroke="#5b8cff" stroke-width="0.6" opacity="0.12"/>
  <line x1="52.3" y1="82.68" x2="102.78" y2="31.34" stroke="#5b8cff" stroke-width="0.6" opacity="0.12"/>
  <circle cx="104.72" cy="34.33" r="0.69" fill="#9b6bff" opacity="0.51"/>
  <circle cx="25.06" cy="65.39" r="1.08" fill="#9b6bff" opacity="0.32"/>
  <circle cx="0.52" cy="93.2" r="2.39" fill="#39d0d8" opacity="0.26"/>
  <line x1="0.52" y1="93.2" x2="-21.82" y2="94.79" stroke="#39d0d8" stroke-width="0.8" opacity="0.18"/>
  <circle cx="63.56" cy="39.64" r="1.33" fill="#39d0d8" opacity="0.28"/>
  <circle cx="8.73" cy="24.92" r="2.3" fill="#5b8cff" opacity="0.52"/>
  <line x1="8.73" y1="24.92" x2="0.4" y2="21.23" stroke="#5b8cff" stroke-width="0.8" opacity="0.18"/>
  <circle cx="99.06" cy="18.12" r="0.89" fill="#5b8cff" opacity="0.44"/>
  <circle cx="17.67" cy="76.17" r="1.88" fill="#5b8cff" opacity="0.35"/>
  <circle cx="105.93" cy="153.18" r="2.1" fill="#9b6bff" opacity="0.53"/>
  <line x1="105.93" y1="153.18" x2="97.11" y2="148.9" stroke="#9b6bff" stroke-width="0.8" opacity="0.18"/>
  <circle cx="48.69" cy="31.34" r="0.68" fill="#9b6bff" opacity="0.5"/>
  <line x1="48.69" y1="31.34" x2="38.02" y2="33.07" stroke="#9b6bff" stroke-width="0.8" opacity="0.18"/>
  <circle cx="56.26" cy="94.97" r="1.77" fill="#5b8cff" opacity="0.48"/>
  <circle cx="59.87" cy="143.56" r="0.72" fill="#5b8cff" opacity="0.52"/>
  <line x1="59.87" y1="143.56" x2="37.06" y2="145.7" stroke="#5b8cff" stroke-width="0.8" opacity="0.18"/>
  <circle cx="41.04" cy="36.05" r="1.93" fill="#5b8cff" opacity="0.43"/>
</svg>
