<svg xmlns="http://www.w3.org/2000/svg" viewBox="0 0 160 160" width="160" height="160" role="img" aria-label="chemistry decorative background">
  <defs>
    <radialGradient id="grad-chemistry-small-05" cx="50%" cy="35%" r="80%">
      <stop offset="0%" stop-color="#2dd4a7" stop-opacity="0.10"/>
      <stop offset="100%" stop-color="#08160f" stop-opacity="0"/>
    </radialGradient>
  </defs>
  <rect width="160" height="160" fill="#08160f"/>
  <rect width="160" height="160" fill="url(#grad-chemistry-small-05)"/>
  <path d="M118.49,35.52 C118.64,40.32 115.22,48.57 111.35,50.69 C107.47,52.81 100.53,50.77 95.25,48.24 C89.97,45.71 79.9,40.17 79.66,35.52 C79.43,30.88 88.7,22.63 93.84,20.36 C98.97,18.09 106.35,19.37 110.46,21.89 C114.57,24.42 118.35,30.72 118.49,35.52 Z" fill="#f06aa6" opacity="0.12"/>
  <path d="M118.49,35.52 C118.64,40.32 115.22,48.57 111.35,50.69 C107.47,52.81 100.53,50.77 95.25,48.24 C89.97,45.71 79.9,40.17 79.66,35.52 C79.43,30.88 88.7,22.63 93.84,20.36 C98.97,18.09 106.35,19.37 110.46,21.89 C114.57,24.42 118.35,30.72 118.49,35.52 Z" fill="none" stroke="#2dd4a7" stroke-width="1" opacity="0.25"/>
  <circle cx="94.1" cy="26.56" r="3.41" fill="none" stroke="#2dd4a7" stroke-width="1" opacity="0.22"/>
  <circle cx="93.08" cy="25.53" r="0.61" fill="#7be0c4" opacity="0.4"/>
  <circle cx="12.08" cy="29.06" r="15.54" fill="none" stroke="#2dd4a7" stroke-width="1" opacity="0.22"/>
  <circle cx="7.42" cy="24.4" r="2.8" fill="#7be0c4" opacity="0.4"/>
  <circle cx="24.26" cy="138.09" r="7.72" fill="none" stroke="#2dd4a7" stroke-width="1" opacity="0.22"/>
  <circle cx="21.94" cy="135.77" r="1.39" fill="#7be0c4" opacity="0.4"/>
  <circle cx="107.91" cy="67.96" r="8.08" fill="none" stroke="#2dd4a7" stroke-width="1" opacity="0.22"/>
  <circle cx="105.49" cy="65.54" r="1.45" fill="#7be0c4" opacity="0.4"/>
  <circle cx="54.12" cy="149.29" r="2.62" fill="none" stroke="#2dd4a7" stroke-width="1" opacity="0.22"/>
  <circle cx="53.34" cy="148.5" r="0.47" fill="#7be0c4" opacity="0.4"/>
  <circle cx="160" cy="65.56" r="2.92" fill="none" stroke="#2dd4a7" stroke-width="1" opacity="0.22"/>
  <circle cx="159.12" cy="64.69" r="0.53" fill="#7be0c4" opacity="0.4"/>
  <circle cx="154.62" cy="77.18" r="13.23" fill="none" stroke="#2dd4a7" stroke-width="1" opacity="0.22"/>
  <circle cx="150.65" cy="73.21" r="2.38" fill="#7be0c4" opacity="0.4"/>
  <circle cx="21.64" cy="44.11" r="7.84" fill="none" stroke="#2dd4a7" stroke-width="1" opacity="0.22"/>
  <circle cx="19.28" cy="41.76" r="1.41" fill="#7be0c4" opacity="0.4"/>
</svg>
