<svg xmlns="http://www.w3.org/2000/svg" viewBox="0 0 160 160" width="160" height="160" role="img" aria-label="chemistry decorative background">
  <defs>
    <radialGradient id="grad-chemistry-small-09" cx="50%" cy="35%" r="80%">
      <stop offset="0%" stop-color="#2dd4a7" stop-opacity="0.10"/>
      <stop offset="100%" stop-color="#08160f" stop-opacity="0"/>
    </radialGradient>
  </defs>
  <rect width="160" height="160" fill="#08160f"/>
  <rect width="160" height="160" fill="url(#grad-chemistry-small-09)"/>
  <line x1="80.96" y1="89.64" x2="94.69" y2="80.65" stroke="#7be0c4" stroke-width="1.4" opacity="0.3"/>
  <line x1="80.96" y1="89.64" x2="102.85" y2="50.61" stroke="#7be0c4" stroke-width="1.4" opacity="0.3"/>
  <line x1="102.85" y1="50.61" x2="94.69" y2="80.65" stroke="#7be0c4" stroke-width="1.4" opacity="0.3"/>
  <line x1="102.85" y1="50.61" x2="80.96" y2="89.64" stroke="#7be0c4" stroke-width="1.4" opacity="0.3"/>
  <line x1="94.69" y1="80.65" x2="80.96" y2="89.64" stroke="#7be0c4" stroke-width="1.4" opacity="0.3"/>
  <line x1="94.69" y1="80.65" x2="102.85" y2="50.61" stroke="#7be0c4" stroke-width="1.4" opacity="0.3"/>
  <line x1="125.96" y1="142.19" x2="94.69" y2="80.65" stroke="#7be0c4" stroke-width="1.4" opacity="0.3"/>
  <line x1="125.96" y1="142.19" x2="80.96" y2="89.64" stroke="#7be0c4" stroke-width="1.4" opacity="0.3"/>
  <circle cx="80.96" cy="89.64" r="6.15" fill="#2dd4a7" opacity="0.5"/>
  <circle cx="102.85" cy="50.61" r="4" fill="#f06aa6" opacity="0.5"/>
  <circle cx="94.69" cy="80.65" r="4.85" fill="#2dd4a7" opacity="0.5"/>
  <circle cx="125.96" cy="142.19" r="5.31" fill="#f06aa6" opacity="0.5"/>
  <circle cx="1.4" cy="5.25" r="10.56" fill="none" stroke="#2dd4a7" stroke-width="1" opacity="0.22"/>
  <circle cx="-1.77" cy="2.08" r="1.9" fill="#7be0c4" opacity="0.4"/>
  <circle cx="121.69" cy="118.02" r="7.95" fill="none" stroke="#2dd4a7" stroke-width="1" opacity="0.22"/>
  <circle cx="119.31" cy="115.64" r="1.43" fill="#7be0c4" opacity="0.4"/>
  <circle cx="106.38" cy="130.84" r="14.47" fill="none" stroke="#2dd4a7" stroke-width="1" opacity="0.22"/>
  <circle cx="102.04" cy="126.5" r="2.6" fill="#7be0c4" opacity="0.4"/>
  <circle cx="113.74" cy="153.77" r="4.08" fill="none" stroke="#2dd4a7" stroke-width="1" opacity="0.22"/>
  <circle cx="112.51" cy="152.55" r="0.73" fill="#7be0c4" opacity="0.4"/>
  <circle cx="121.9" cy="146.93" r="3.96" fill="none" stroke="#2dd4a7" stroke-width="1" opacity="0.22"/>
  <circle cx="120.71" cy="145.74" r="0.71" fill="#7be0c4" opacity="0.4"/>
  <circle cx="156.2" cy="11.92" r="8.6" fill="none" stroke="#2dd4a7" stroke-width="1" opacity="0.22"/>
  <circle cx="153.61" cy="9.34" r="1.55" fill="#7be0c4" opacity="0.4"/>
  <circle cx="30.24" cy="64.09" r="5.74" fill="none" stroke="#2dd4a7" stroke-width="1" opacity="0.22"/>
  <circle cx="28.52" cy="62.37" r="1.03" fill="#7be0c4" opacity="0.4"/>
  <circle cx="6.21" cy="155.71" r="5.07" fill="none" stroke="#2dd4a7" stroke-width="1" opacity="0.22"/>
  <circle cx="4.69" cy="154.19" r="0.91" fill="#7be0c4" opacity="0.4"/>
</svg>
