<svg xmlns="http://www.w3.org/2000/svg" viewBox="0 0 160 160" width="160" height="160" role="img" aria-label="chemistry decorative background">
  <defs>
    <radialGradient id="grad-chemistry-small-10" cx="50%" cy="35%" r="80%">
      <stop offset="0%" stop-color="#2dd4a7" stop-opacity="0.10"/>
      <stop offset="100%" stop-color="#08160f" stop-opacity="0"/>
    </radialGradient>
  </defs>
  <rect width="160" height="160" fill="#08160f"/>
  <rect width="160" height="160" fill="url(#grad-chemistry-small-10)"/>
  <circle cx="31.46" cy="5.5" r="6.25" fill="none" stroke="#2dd4a7" stroke-width="1" opacity="0.22"/>
  <circle cx="29.59" cy="3.63" r="1.12" fill="#7be0c4" opacity="0.4"/>
  <circle cx="11.33" cy="154.14" r="13.25" fill="none" stroke="#2dd4a7" stroke-width="1" opacity="0.22"/>
  <circle cx="7.36" cy="150.16" r="2.39" fill="#7be0c4" opacity="0.4"/>
  <circle cx="137.23" cy="95.72" r="15.51" fill="none" stroke="#2dd4a7" stroke-width="1" opacity="0.22"/>
  <circle cx="132.58" cy="91.07" r="2.79" fill="#7be0c4" opacity="0.4"/>
  <circle cx="32.38" cy="13.13" r="14.41" fill="none" stroke="#2dd4a7" stroke-width="1" opacity="0.22"/>
  <circle cx="28.06" cy="8.81" r="2.59" fill="#7be0c4" opacity="0.4"/>
  <circle cx="96.94" cy="93.85" r="6.15" fill="none" stroke="#2dd4a7" stroke-width="1" opacity="0.22"/>
  <circle cx="95.1" cy="92.01" r="1.11" fill="#7be0c4" opacity="0.4"/>
  <circle cx="11.84" cy="110.39" r="4.92" fill="none" stroke="#2dd4a7" stroke-width="1" opacity="0.22"/>
  <circle cx="10.36" cy="108.92" r="0.89" fill="#7be0c4" opacity="0.4"/>
  <circle cx="63.54" cy="25.23" r="4.64" fill="none" stroke="#2dd4a7" stroke-width="1" opacity="0.22"/>
  <circle cx="62.15" cy="23.84" r="0.83" fill="#7be0c4" opacity="0.4"/>
  <circle cx="107.8" cy="156.33" r="10.99" fill="none" stroke="#2dd4a7" stroke-width="1" opacity="0.22"/>
  <circle cx="104.5" cy="153.03" r="1.98" fill="#7be0c4" opacity="0.4"/>
  <path d="M50.8,79.68 C51.05,85.14 45.32,96.73 40.31,98.37 C35.3,100.01 23.99,94.25 20.73,89.5 C17.47,84.75 17.72,73.85 20.73,69.87 C23.75,65.89 33.8,63.98 38.81,65.62 C43.82,67.25 50.55,74.22 50.8,79.68 Z" fill="#f06aa6" opacity="0.12"/>
  <path d="M50.8,79.68 C51.05,85.14 45.32,96.73 40.31,98.37 C35.3,100.01 23.99,94.25 20.73,89.5 C17.47,84.75 17.72,73.85 20.73,69.87 C23.75,65.89 33.8,63.98 38.81,65.62 C43.82,67.25 50.55,74.22 50.8,79.68 Z" fill="none" stroke="#2dd4a7" stroke-width="1" opacity="0.25"/>
</svg>
