<svg xmlns="http://www.w3.org/2000/svg" viewBox="0 0 160 160" width="160" height="160" role="img" aria-label="chemistry decorative background">
  <defs>
    <radialGradient id="grad-chemistry-small-08" cx="50%" cy="35%" r="80%">
      <stop offset="0%" stop-color="#2dd4a7" stop-opacity="0.10"/>
      <stop offset="100%" stop-color="#08160f" stop-opacity="0"/>
    </radialGradient>
  </defs>
  <rect width="160" height="160" fill="#08160f"/>
  <rect width="160" height="160" fill="url(#grad-chemistry-small-08)"/>
  <path d="M92.6,99.88 C93.43,105.18 90.43,114.53 86.31,118.27 C82.2,122.02 73.29,123.11 67.92,122.35 C62.56,121.59 58.67,117.44 54.11,113.69 C49.56,109.95 40.59,104.49 40.59,99.88 C40.58,95.27 49.52,89.69 54.07,86.03 C58.63,82.37 63.39,77.83 67.92,77.91 C72.46,77.99 77.18,82.86 81.29,86.52 C85.4,90.18 91.76,94.59 92.6,99.88 Z" fill="#f06aa6" opacity="0.12"/>
  <path d="M92.6,99.88 C93.43,105.18 90.43,114.53 86.31,118.27 C82.2,122.02 73.29,123.11 67.92,122.35 C62.56,121.59 58.67,117.44 54.11,113.69 C49.56,109.95 40.59,104.49 40.59,99.88 C40.58,95.27 49.52,89.69 54.07,86.03 C58.63,82.37 63.39,77.83 67.92,77.91 C72.46,77.99 77.18,82.86 81.29,86.52 C85.4,90.18 91.76,94.59 92.6,99.88 Z" fill="none" stroke="#2dd4a7" stroke-width="1" opacity="0.25"/>
</svg>
