<svg xmlns="http://www.w3.org/2000/svg" viewBox="0 0 400 300" width="400" height="300" role="img" aria-label="physics decorative background">
  <defs>
    <radialGradient id="grad-physics-medium-09" cx="50%" cy="35%" r="80%">
      <stop offset="0%" stop-color="#5b8cff" stop-opacity="0.10"/>
      <stop offset="100%" stop-color="#0b1026" stop-opacity="0"/>
    </radialGradient>
  </defs>
  <rect width="400" height="300" fill="#0b1026"/>
  <rect width="400" height="300" fill="url(#grad-physics-medium-09)"/>
  <polyline points="0,41.97 12.12,42.17 24.24,42.78 36.36,43.78 48.48,45.1 60.61,46.69 72.73,48.44 84.85,50.28 96.97,52.11 109.09,53.82 121.21,55.33 133.33,56.56 145.45,57.44 157.58,57.92 169.7,57.99 181.82,57.64 193.94,56.88 206.06,55.76 218.18,54.33 230.3,52.68 242.42,50.88 254.55,49.03 266.67,47.24 278.79,45.59 290.91,44.17 303.03,43.07 315.15,42.32 327.27,41.98 339.39,42.07 351.52,42.57 363.64,43.47 375.76,44.71 387.88,46.23 400,47.94" fill="none" stroke="#5b8cff" stroke-width="1.48" opacity="0.34"/>
  <polyline points="0,108.11 12.12,106.93 24.24,105.56 36.36,104.05 48.48,102.47 60.61,100.89 72.73,99.35 84.85,97.94 96.97,96.7 109.09,95.69 121.21,94.95 133.33,94.5 145.45,94.37 157.58,94.56 169.7,95.07 181.82,95.87 193.94,96.93 206.06,98.21 218.18,99.65 230.3,101.2 242.42,102.79 254.55,104.36 266.67,105.85 278.79,107.19 290.91,108.32 303.03,109.21 315.15,109.82 327.27,110.12 339.39,110.1 351.52,109.75 363.64,109.1 375.76,108.18 387.88,107.01 400,105.65" fill="none" stroke="#5b8cff" stroke-width="1.37" opacity="0.39"/>
  <polyline points="0,137.03 12.12,136.18 24.24,136.17 36.36,137 48.48,138.62 60.61,140.93 72.73,143.78 84.85,147.01 96.97,150.41 109.09,153.78 121.21,156.91 133.33,159.61 145.45,161.72 157.58,163.1 169.7,163.67 181.82,163.4 193.94,162.31 206.06,160.45 218.18,157.95 230.3,154.95 242.42,151.64 254.55,148.23 266.67,144.91 278.79,141.9 290.91,139.38 303.03,137.5 315.15,136.38 327.27,136.08 339.39,136.63 351.52,137.99 363.64,140.07 375.76,142.75 387.88,145.87 400,149.24" fill="none" stroke="#39d0d8" stroke-width="1.13" opacity="0.32"/>
  <polyline points="0,203.98 12.12,200.49 24.24,196.85 36.36,193.28 48.48,189.96 60.61,187.07 72.73,184.75 84.85,183.15 96.97,182.33 109.09,182.35 121.21,183.21 133.33,184.85 145.45,187.2 157.58,190.12 169.7,193.46 181.82,197.04 193.94,200.67 206.06,204.15 218.18,207.3 230.3,209.96 242.42,211.97 254.55,213.23 266.67,213.68 278.79,213.29 290.91,212.07 303.03,210.11 315.15,207.49 327.27,204.36 339.39,200.89 351.52,197.27 363.64,193.68 375.76,190.32 387.88,187.37 400,184.98" fill="none" stroke="#5b8cff" stroke-width="1.94" opacity="0.32"/>
  <polyline points="0,260.91 12.12,261.93 24.24,261.97 36.36,261.01 48.48,259.13 60.61,256.48 72.73,253.28 84.85,249.77 96.97,246.23 109.09,242.95 121.21,240.18 133.33,238.14 145.45,237 157.58,236.85 169.7,237.69 181.82,239.46 193.94,242.03 206.06,245.18 218.18,248.67 230.3,252.22 242.42,255.55 254.55,258.39 266.67,260.52 278.79,261.78 290.91,262.05 303.03,261.33 315.15,259.66 327.27,257.18 339.39,254.08 351.52,250.62 363.64,247.06 375.76,243.69 387.88,240.78 400,238.55" fill="none" stroke="#39d0d8" stroke-width="1.6" opacity="0.29"/>
  <circle cx="223.93" cy="105.56" r="31.25" fill="none" stroke="#9b6bff" stroke-width="1" opacity="0.28"/>
  <circle cx="223.93" cy="105.56" r="62.5" fill="none" stroke="#9b6bff" stroke-width="1" opacity="0.25"/>
  <circle cx="223.93" cy="105.56" r="93.75" fill="none" stroke="#9b6bff" stroke-width="1" opacity="0.22"/>
  <circle cx="223.93" cy="105.56" r="125" fill="none" stroke="#9b6bff" stroke-width="1" opacity="0.19"/>
  <circle cx="223.93" cy="105.56" r="156.25" fill="none" stroke="#9b6bff" stroke-width="1" opacity="0.16"/>
  <circle cx="223.93" cy="105.56" r="187.5" fill="none" stroke="#9b6bff" stroke-width="1" opacity="0.13"/>
  <line x1="223.93" y1="105.56" x2="358.88" y2="109.12" stroke="#5b8cff" stroke-width="0.6" opacity="0.12"/>
  <line x1="223.93" y1="105.56" x2="321.78" y2="198.57" stroke="#5b8cff" stroke-width="0.6" opacity="0.12"/>
  <line x1="223.93" y1="105.56" x2="259.12" y2="235.9" stroke="#5b8cff" stroke-width="0.6" opacity="0.12"/>
  <line x1="223.93" y1="105.56" x2="172.28" y2="230.29" stroke="#5b8cff" stroke-width="0.6" opacity="0.12"/>
  <line x1="223.93" y1="105.56" x2="99.48" y2="157.88" stroke="#5b8cff" stroke-width="0.6" opacity="0.12"/>
  <line x1="223.93" y1="105.56" x2="94.07" y2="68.65" stroke="#5b8cff" stroke-width="0.6" opacity="0.12"/>
  <line x1="223.93" y1="105.56" x2="127.13" y2="11.46" stroke="#5b8cff" stroke-width="0.6" opacity="0.12"/>
  <line x1="223.93" y1="105.56" x2="220.62" y2="-29.4" stroke="#5b8cff" stroke-width="0.6" opacity="0.12"/>
  <line x1="223.93" y1="105.56" x2="292.51" y2="-10.72" stroke="#5b8cff" stroke-width="0.6" opacity="0.12"/>
  <line x1="223.93" y1="105.56" x2="333.45" y2="26.63" stroke="#5b8cff" stroke-width="0.6" opacity="0.12"/>
</svg>
