<svg xmlns="http://www.w3.org/2000/svg" viewBox="0 0 400 300" width="400" height="300" role="img" aria-label="physics decorative background">
  <defs>
    <radialGradient id="grad-physics-medium-02" cx="50%" cy="35%" r="80%">
      <stop offset="0%" stop-color="#5b8cff" stop-opacity="0.10"/>
      <stop offset="100%" stop-color="#0b1026" stop-opacity="0"/>
    </radialGradient>
  </defs>
  <rect width="400" height="300" fill="#0b1026"/>
  <rect width="400" height="300" fill="url(#grad-physics-medium-02)"/>
  <circle cx="218.4" cy="31.66" r="2.33" fill="#5b8cff" opacity="0.31"/>
  <circle cx="299.78" cy="102.16" r="2.53" fill="#39d0d8" opacity="0.32"/>
  <line x1="299.78" y1="102.16" x2="289.68" y2="99.96" stroke="#39d0d8" stroke-width="0.8" opacity="0.18"/>
  <circle cx="106.07" cy="274.95" r="1.69" fill="#39d0d8" opacity="0.35"/>
  <circle cx="73.39" cy="180.94" r="2.84" fill="#39d0d8" opacity="0.52"/>
  <circle cx="285.82" cy="123.75" r="2.47" fill="#39d0d8" opacity="0.23"/>
  <line x1="285.82" y1="123.75" x2="277.29" y2="127.83" stroke="#39d0d8" stroke-width="0.8" opacity="0.18"/>
  <circle cx="352.74" cy="226.65" r="3.09" fill="#5b8cff" opacity="0.29"/>
  <circle cx="86.97" cy="168.89" r="2.01" fill="#39d0d8" opacity="0.35"/>
  <circle cx="339.69" cy="72.86" r="2.59" fill="#5b8cff" opacity="0.28"/>
  <line x1="339.69" y1="72.86" x2="329.27" y2="73.65" stroke="#5b8cff" stroke-width="0.8" opacity="0.18"/>
  <circle cx="175.95" cy="180.92" r="2.29" fill="#39d0d8" opacity="0.41"/>
  <circle cx="263.47" cy="277.19" r="2.5" fill="#9b6bff" opacity="0.29"/>
  <line x1="263.47" y1="277.19" x2="247.18" y2="273.07" stroke="#9b6bff" stroke-width="0.8" opacity="0.18"/>
  <circle cx="26.93" cy="259.84" r="1.91" fill="#39d0d8" opacity="0.3"/>
  <circle cx="173.77" cy="216.84" r="2.22" fill="#5b8cff" opacity="0.54"/>
  <line x1="173.77" y1="216.84" x2="161.36" y2="214.7" stroke="#5b8cff" stroke-width="0.8" opacity="0.18"/>
  <circle cx="159.4" cy="1.85" r="3.27" fill="#5b8cff" opacity="0.4"/>
  <circle cx="311.1" cy="44.96" r="2.45" fill="#9b6bff" opacity="0.54"/>
  <circle cx="94.68" cy="184.71" r="3.21" fill="#39d0d8" opacity="0.28"/>
  <line x1="94.68" y1="184.71" x2="72.5" y2="182.89" stroke="#39d0d8" stroke-width="0.8" opacity="0.18"/>
  <circle cx="193.15" cy="109.95" r="3.55" fill="#5b8cff" opacity="0.23"/>
  <line x1="193.15" y1="109.95" x2="181.11" y2="107.84" stroke="#5b8cff" stroke-width="0.8" opacity="0.18"/>
  <circle cx="154.95" cy="292.87" r="2.3" fill="#39d0d8" opacity="0.22"/>
  <line x1="154.95" y1="292.87" x2="146.43" y2="291.69" stroke="#39d0d8" stroke-width="0.8" opacity="0.18"/>
  <circle cx="395.49" cy="172.15" r="3.48" fill="#5b8cff" opacity="0.31"/>
  <line x1="395.49" y1="172.15" x2="381.07" y2="173.87" stroke="#5b8cff" stroke-width="0.8" opacity="0.18"/>
  <circle cx="273.57" cy="12.64" r="2.15" fill="#9b6bff" opacity="0.5"/>
  <circle cx="101.64" cy="184.31" r="3.1" fill="#5b8cff" opacity="0.21"/>
  <line x1="101.64" y1="184.31" x2="90.42" y2="190.28" stroke="#5b8cff" stroke-width="0.8" opacity="0.18"/>
  <polyline points="0,55.86 12.12,52.98 24.24,49.91 36.36,46.75 48.48,43.58 60.61,40.51 72.73,37.61 84.85,34.97 96.97,32.67 109.09,30.77 121.21,29.34 133.33,28.4 145.45,27.99 157.58,28.12 169.7,28.79 181.82,29.97 193.94,31.63 206.06,33.73 218.18,36.21 230.3,38.98 242.42,41.98 254.55,45.11 266.67,48.28 278.79,51.41 290.91,54.4 303.03,57.16 315.15,59.62 327.27,61.7 339.39,63.34 351.52,64.51 363.64,65.15 375.76,65.26 387.88,64.83 400,63.87" fill="none" stroke="#5b8cff" stroke-width="2.08" opacity="0.24"/>
  <polyline points="0,95.17 12.12,98.38 24.24,101.47 36.36,104.3 48.48,106.76 60.61,108.76 72.73,110.23 84.85,111.09 96.97,111.32 109.09,110.92 121.21,109.89 133.33,108.27 145.45,106.14 157.58,103.56 169.7,100.65 181.82,97.52 193.94,94.29 206.06,91.08 218.18,88.03 230.3,85.25 242.42,82.85 254.55,80.92 266.67,79.54 278.79,78.77 290.91,78.63 303.03,79.13 315.15,80.26 327.27,81.95 339.39,84.16 351.52,86.79 363.64,89.74 375.76,92.9 387.88,96.13 400,99.32" fill="none" stroke="#39d0d8" stroke-width="1.41" opacity="0.22"/>
  <polyline points="0,137.61 12.12,139.95 24.24,143.05 36.36,146.72 48.48,150.69 60.61,154.69 72.73,158.44 84.85,161.69 96.97,164.21 109.09,165.83 121.21,166.43 133.33,165.98 145.45,164.5 157.58,162.1 169.7,158.94 181.82,155.24 193.94,151.26 206.06,147.27 218.18,143.54 230.3,140.34 242.42,137.89 254.55,136.35 266.67,135.83 278.79,136.37 290.91,137.92 303.03,140.39 315.15,143.6 327.27,147.33 339.39,151.33 351.52,155.31 363.64,159 375.76,162.15 387.88,164.53 400,166" fill="none" stroke="#39d0d8" stroke-width="1.09" opacity="0.27"/>
  <polyline points="0,192.13 12.12,193.85 24.24,195.68 36.36,197.58 48.48,199.49 60.61,201.35 72.73,203.1 84.85,204.7 96.97,206.09 109.09,207.23 121.21,208.08 133.33,208.63 145.45,208.85 157.58,208.74 169.7,208.3 181.82,207.54 193.94,206.49 206.06,205.18 218.18,203.64 230.3,201.94 242.42,200.11 254.55,198.21 266.67,196.3 278.79,194.43 290.91,192.68 303.03,191.07 315.15,189.68 327.27,188.53 339.39,187.66 351.52,187.1 363.64,186.87 375.76,186.97 387.88,187.4 400,188.15" fill="none" stroke="#5b8cff" stroke-width="1.14" opacity="0.24"/>
  <polyline points="0,260.45 12.12,262.78 24.24,264.67 36.36,266.04 48.48,266.8 60.61,266.93 72.73,266.42 84.85,265.29 96.97,263.59 109.09,261.43 121.21,258.9 133.33,256.13 145.45,253.26 157.58,250.45 169.7,247.83 181.82,245.53 193.94,243.67 206.06,242.35 218.18,241.63 230.3,241.55 242.42,242.12 254.55,243.3 266.67,245.03 278.79,247.23 290.91,249.78 303.03,252.56 315.15,255.43 327.27,258.23 339.39,260.83 351.52,263.1 363.64,264.92 375.76,266.19 387.88,266.87 400,266.9" fill="none" stroke="#39d0d8" stroke-width="1.37" opacity="0.39"/>
</svg>
