<svg xmlns="http://www.w3.org/2000/svg" viewBox="0 0 400 300" width="400" height="300" role="img" aria-label="physics decorative background">
  <defs>
    <radialGradient id="grad-physics-medium-07" cx="50%" cy="35%" r="80%">
      <stop offset="0%" stop-color="#5b8cff" stop-opacity="0.10"/>
      <stop offset="100%" stop-color="#0b1026" stop-opacity="0"/>
    </radialGradient>
  </defs>
  <rect width="400" height="300" fill="#0b1026"/>
  <rect width="400" height="300" fill="url(#grad-physics-medium-07)"/>
  <circle cx="196.46" cy="118.34" r="31.25" fill="none" stroke="#9b6bff" stroke-width="1" opacity="0.28"/>
  <circle cx="196.46" cy="118.34" r="62.5" fill="none" stroke="#9b6bff" stroke-width="1" opacity="0.25"/>
  <circle cx="196.46" cy="118.34" r="93.75" fill="none" stroke="#9b6bff" stroke-width="1" opacity="0.22"/>
  <circle cx="196.46" cy="118.34" r="125" fill="none" stroke="#9b6bff" stroke-width="1" opacity="0.19"/>
  <circle cx="196.46" cy="118.34" r="156.25" fill="none" stroke="#9b6bff" stroke-width="1" opacity="0.16"/>
  <circle cx="196.46" cy="118.34" r="187.5" fill="none" stroke="#9b6bff" stroke-width="1" opacity="0.13"/>
  <line x1="196.46" y1="118.34" x2="325.88" y2="156.74" stroke="#5b8cff" stroke-width="0.6" opacity="0.12"/>
  <line x1="196.46" y1="118.34" x2="292.61" y2="213.09" stroke="#5b8cff" stroke-width="0.6" opacity="0.12"/>
  <line x1="196.46" y1="118.34" x2="228.29" y2="249.53" stroke="#5b8cff" stroke-width="0.6" opacity="0.12"/>
  <line x1="196.46" y1="118.34" x2="131.83" y2="236.86" stroke="#5b8cff" stroke-width="0.6" opacity="0.12"/>
  <line x1="196.46" y1="118.34" x2="83.38" y2="192.08" stroke="#5b8cff" stroke-width="0.6" opacity="0.12"/>
  <line x1="196.46" y1="118.34" x2="65.91" y2="83.94" stroke="#5b8cff" stroke-width="0.6" opacity="0.12"/>
  <line x1="196.46" y1="118.34" x2="95.32" y2="28.91" stroke="#5b8cff" stroke-width="0.6" opacity="0.12"/>
  <line x1="196.46" y1="118.34" x2="160.67" y2="-11.83" stroke="#5b8cff" stroke-width="0.6" opacity="0.12"/>
  <line x1="196.46" y1="118.34" x2="239.87" y2="-9.49" stroke="#5b8cff" stroke-width="0.6" opacity="0.12"/>
  <line x1="196.46" y1="118.34" x2="316.45" y2="56.49" stroke="#5b8cff" stroke-width="0.6" opacity="0.12"/>
</svg>
