<svg xmlns="http://www.w3.org/2000/svg" viewBox="0 0 400 300" width="400" height="300" role="img" aria-label="physics decorative background">
  <defs>
    <radialGradient id="grad-physics-medium-03" cx="50%" cy="35%" r="80%">
      <stop offset="0%" stop-color="#5b8cff" stop-opacity="0.10"/>
      <stop offset="100%" stop-color="#0b1026" stop-opacity="0"/>
    </radialGradient>
  </defs>
  <rect width="400" height="300" fill="#0b1026"/>
  <rect width="400" height="300" fill="url(#grad-physics-medium-03)"/>
  <polyline points="0,55.93 12.12,57.13 24.24,58.01 36.36,58.53 48.48,58.69 60.61,58.47 72.73,57.88 84.85,56.95 96.97,55.69 109.09,54.16 121.21,52.39 133.33,50.45 145.45,48.4 157.58,46.29 169.7,44.21 181.82,42.2 193.94,40.34 206.06,38.69 218.18,37.3 230.3,36.2 242.42,35.45 254.55,35.05 266.67,35.03 278.79,35.38 290.91,36.09 303.03,37.14 315.15,38.5 327.27,40.12 339.39,41.96 351.52,43.94 363.64,46.02 375.76,48.13 387.88,50.2 400,52.16" fill="none" stroke="#39d0d8" stroke-width="2" opacity="0.18"/>
  <polyline points="0,101.31 12.12,100.7 24.24,100.3 36.36,100.13 48.48,100.18 60.61,100.46 72.73,100.95 84.85,101.65 96.97,102.51 109.09,103.51 121.21,104.61 133.33,105.77 145.45,106.94 157.58,108.08 169.7,109.15 181.82,110.11 193.94,110.91 206.06,111.53 218.18,111.95 230.3,112.14 242.42,112.11 254.55,111.85 266.67,111.37 278.79,110.69 290.91,109.84 303.03,108.85 315.15,107.76 327.27,106.6 339.39,105.43 351.52,104.28 363.64,103.21 375.76,102.24 387.88,101.43 400,100.79" fill="none" stroke="#39d0d8" stroke-width="1.77" opacity="0.35"/>
  <polyline points="0,160.47 12.12,160.47 24.24,160.33 36.36,160.05 48.48,159.64 60.61,159.11 72.73,158.47 84.85,157.74 96.97,156.93 109.09,156.06 121.21,155.14 133.33,154.21 145.45,153.28 157.58,152.38 169.7,151.51 181.82,150.71 193.94,149.99 206.06,149.36 218.18,148.85 230.3,148.46 242.42,148.2 254.55,148.07 266.67,148.09 278.79,148.25 290.91,148.54 303.03,148.96 315.15,149.51 327.27,150.16 339.39,150.9 351.52,151.72 363.64,152.59 375.76,153.51 387.88,154.44 400,155.37" fill="none" stroke="#5b8cff" stroke-width="2.01" opacity="0.17"/>
  <polyline points="0,191.74 12.12,190 24.24,188.6 36.36,187.56 48.48,186.9 60.61,186.64 72.73,186.79 84.85,187.33 96.97,188.27 109.09,189.58 121.21,191.23 133.33,193.19 145.45,195.42 157.58,197.87 169.7,200.51 181.82,203.26 193.94,206.08 206.06,208.9 218.18,211.68 230.3,214.35 242.42,216.86 254.55,219.16 266.67,221.2 278.79,222.94 290.91,224.35 303.03,225.39 315.15,226.05 327.27,226.3 339.39,226.16 351.52,225.61 363.64,224.68 375.76,223.37 387.88,221.72 400,219.76" fill="none" stroke="#39d0d8" stroke-width="1.47" opacity="0.21"/>
  <polyline points="0,261.48 12.12,263.97 24.24,266.23 36.36,268.21 48.48,269.85 60.61,271.11 72.73,271.98 84.85,272.42 96.97,272.43 109.09,272 121.21,271.15 133.33,269.9 145.45,268.28 157.58,266.32 169.7,264.07 181.82,261.58 193.94,258.91 206.06,256.14 218.18,253.31 230.3,250.5 242.42,247.77 254.55,245.19 266.67,242.82 278.79,240.72 290.91,238.93 303.03,237.49 315.15,236.45 327.27,235.82 339.39,235.62 351.52,235.86 363.64,236.52 375.76,237.6 387.88,239.07 400,240.89" fill="none" stroke="#39d0d8" stroke-width="1.75" opacity="0.23"/>
  <circle cx="33.13" cy="35" r="2.51" fill="#39d0d8" opacity="0.24"/>
  <line x1="33.13" y1="35" x2="23.01" y2="34.79" stroke="#39d0d8" stroke-width="0.8" opacity="0.18"/>
  <circle cx="42.67" cy="235.23" r="3.08" fill="#5b8cff" opacity="0.46"/>
  <line x1="42.67" y1="235.23" x2="24.26" y2="237.44" stroke="#5b8cff" stroke-width="0.8" opacity="0.18"/>
  <circle cx="48.97" cy="290.85" r="2.46" fill="#5b8cff" opacity="0.33"/>
  <circle cx="340.33" cy="239.26" r="1.56" fill="#9b6bff" opacity="0.43"/>
  <line x1="340.33" y1="239.26" x2="326.39" y2="234.72" stroke="#9b6bff" stroke-width="0.8" opacity="0.18"/>
  <circle cx="43.68" cy="230.4" r="1.91" fill="#5b8cff" opacity="0.46"/>
  <circle cx="264.8" cy="145.81" r="3.83" fill="#9b6bff" opacity="0.44"/>
  <circle cx="142.14" cy="2.69" r="1.46" fill="#5b8cff" opacity="0.38"/>
  <circle cx="239.29" cy="129.89" r="1.95" fill="#39d0d8" opacity="0.39"/>
  <circle cx="68.71" cy="293.95" r="3.2" fill="#9b6bff" opacity="0.25"/>
  <circle cx="288.97" cy="222.03" r="1.41" fill="#5b8cff" opacity="0.26"/>
  <line x1="288.97" y1="222.03" x2="275.32" y2="222.48" stroke="#5b8cff" stroke-width="0.8" opacity="0.18"/>
  <circle cx="328.12" cy="270.83" r="1.36" fill="#39d0d8" opacity="0.53"/>
  <line x1="328.12" y1="270.83" x2="319.58" y2="271.92" stroke="#39d0d8" stroke-width="0.8" opacity="0.18"/>
  <circle cx="279.49" cy="266.77" r="1.38" fill="#39d0d8" opacity="0.54"/>
  <circle cx="114.03" cy="206.95" r="1.27" fill="#39d0d8" opacity="0.29"/>
  <line x1="114.03" y1="206.95" x2="91.34" y2="211.82" stroke="#39d0d8" stroke-width="0.8" opacity="0.18"/>
  <circle cx="345.53" cy="38.93" r="1.79" fill="#39d0d8" opacity="0.38"/>
  <circle cx="90.28" cy="52.65" r="3.49" fill="#9b6bff" opacity="0.29"/>
  <line x1="90.28" y1="52.65" x2="67.29" y2="51.39" stroke="#9b6bff" stroke-width="0.8" opacity="0.18"/>
  <circle cx="379.42" cy="185.79" r="1.79" fill="#9b6bff" opacity="0.45"/>
  <line x1="379.42" y1="185.79" x2="365.9" y2="187.47" stroke="#9b6bff" stroke-width="0.8" opacity="0.18"/>
  <circle cx="31.07" cy="10.37" r="1.18" fill="#5b8cff" opacity="0.26"/>
  <circle cx="237.63" cy="42.62" r="2.29" fill="#5b8cff" opacity="0.47"/>
  <line x1="237.63" y1="42.62" x2="229.25" y2="45.46" stroke="#5b8cff" stroke-width="0.8" opacity="0.18"/>
  <circle cx="250.6" cy="76.27" r="1.32" fill="#9b6bff" opacity="0.37"/>
  <circle cx="23.78" cy="155.81" r="3.02" fill="#9b6bff" opacity="0.38"/>
</svg>
