<svg xmlns="http://www.w3.org/2000/svg" viewBox="0 0 400 300" width="400" height="300" role="img" aria-label="physics decorative background">
  <defs>
    <radialGradient id="grad-physics-medium-04" cx="50%" cy="35%" r="80%">
      <stop offset="0%" stop-color="#5b8cff" stop-opacity="0.10"/>
      <stop offset="100%" stop-color="#0b1026" stop-opacity="0"/>
    </radialGradient>
  </defs>
  <rect width="400" height="300" fill="#0b1026"/>
  <rect width="400" height="300" fill="url(#grad-physics-medium-04)"/>
  <circle cx="240.36" cy="171.17" r="31.25" fill="none" stroke="#9b6bff" stroke-width="1" opacity="0.28"/>
  <circle cx="240.36" cy="171.17" r="62.5" fill="none" stroke="#9b6bff" stroke-width="1" opacity="0.25"/>
  <circle cx="240.36" cy="171.17" r="93.75" fill="none" stroke="#9b6bff" stroke-width="1" opacity="0.22"/>
  <circle cx="240.36" cy="171.17" r="125" fill="none" stroke="#9b6bff" stroke-width="1" opacity="0.19"/>
  <circle cx="240.36" cy="171.17" r="156.25" fill="none" stroke="#9b6bff" stroke-width="1" opacity="0.16"/>
  <circle cx="240.36" cy="171.17" r="187.5" fill="none" stroke="#9b6bff" stroke-width="1" opacity="0.13"/>
  <line x1="240.36" y1="171.17" x2="370.99" y2="205.22" stroke="#5b8cff" stroke-width="0.6" opacity="0.12"/>
  <line x1="240.36" y1="171.17" x2="321.58" y2="279" stroke="#5b8cff" stroke-width="0.6" opacity="0.12"/>
  <line x1="240.36" y1="171.17" x2="279.93" y2="300.24" stroke="#5b8cff" stroke-width="0.6" opacity="0.12"/>
  <line x1="240.36" y1="171.17" x2="190.13" y2="296.48" stroke="#5b8cff" stroke-width="0.6" opacity="0.12"/>
  <line x1="240.36" y1="171.17" x2="122.16" y2="236.4" stroke="#5b8cff" stroke-width="0.6" opacity="0.12"/>
  <line x1="240.36" y1="171.17" x2="106.24" y2="155.73" stroke="#5b8cff" stroke-width="0.6" opacity="0.12"/>
  <line x1="240.36" y1="171.17" x2="142.96" y2="77.69" stroke="#5b8cff" stroke-width="0.6" opacity="0.12"/>
  <line x1="240.36" y1="171.17" x2="220.98" y2="37.57" stroke="#5b8cff" stroke-width="0.6" opacity="0.12"/>
  <line x1="240.36" y1="171.17" x2="301.26" y2="50.69" stroke="#5b8cff" stroke-width="0.6" opacity="0.12"/>
  <line x1="240.36" y1="171.17" x2="357.77" y2="104.55" stroke="#5b8cff" stroke-width="0.6" opacity="0.12"/>
  <polyline points="0,59.75 12.12,60.35 24.24,60.73 36.36,60.9 48.48,60.83 60.61,60.55 72.73,60.04 84.85,59.33 96.97,58.41 109.09,57.32 121.21,56.06 133.33,54.67 145.45,53.16 157.58,51.57 169.7,49.92 181.82,48.25 193.94,46.58 206.06,44.94 218.18,43.37 230.3,41.88 242.42,40.52 254.55,39.3 266.67,38.25 278.79,37.38 290.91,36.71 303.03,36.25 315.15,36.02 327.27,36.01 339.39,36.22 351.52,36.66 363.64,37.31 375.76,38.16 387.88,39.2 400,40.4" fill="none" stroke="#5b8cff" stroke-width="1.07" opacity="0.31"/>
  <polyline points="0,92.02 12.12,94.01 24.24,96.15 36.36,98.35 48.48,100.54 60.61,102.63 72.73,104.56 84.85,106.26 96.97,107.66 109.09,108.71 121.21,109.37 133.33,109.63 145.45,109.47 157.58,108.9 169.7,107.94 181.82,106.62 193.94,104.99 206.06,103.11 218.18,101.05 230.3,98.88 242.42,96.67 254.55,94.52 266.67,92.48 278.79,90.65 290.91,89.08 303.03,87.83 315.15,86.95 327.27,86.47 339.39,86.39 351.52,86.74 363.64,87.49 375.76,88.62 387.88,90.08 400,91.83" fill="none" stroke="#5b8cff" stroke-width="1.23" opacity="0.3"/>
  <polyline points="0,156.78 12.12,161.43 24.24,165.27 36.36,167.96 48.48,169.28 60.61,169.11 72.73,167.46 84.85,164.49 96.97,160.43 109.09,155.65 121.21,150.55 133.33,145.57 145.45,141.13 157.58,137.63 169.7,135.36 181.82,134.51 193.94,135.16 206.06,137.25 218.18,140.6 230.3,144.93 242.42,149.86 254.55,154.97 266.67,159.82 278.79,164 290.91,167.14 303.03,168.97 315.15,169.34 327.27,168.22 339.39,165.7 351.52,162 363.64,157.44 375.76,152.4 387.88,147.32 400,142.65" fill="none" stroke="#39d0d8" stroke-width="2.05" opacity="0.16"/>
  <polyline points="0,204.2 12.12,201.26 24.24,198.43 36.36,195.8 48.48,193.4 60.61,191.29 72.73,189.52 84.85,188.13 96.97,187.14 109.09,186.58 121.21,186.46 133.33,186.78 145.45,187.54 157.58,188.71 169.7,190.28 181.82,192.21 193.94,194.45 206.06,196.97 218.18,199.7 230.3,202.58 242.42,205.56 254.55,208.57 266.67,211.54 278.79,214.41 290.91,217.12 303.03,219.61 315.15,221.82 327.27,223.71 339.39,225.24 351.52,226.38 363.64,227.09 375.76,227.37 387.88,227.2 400,226.6" fill="none" stroke="#39d0d8" stroke-width="1.08" opacity="0.37"/>
  <polyline points="0,259.79 12.12,258.9 24.24,257.92 36.36,256.85 48.48,255.72 60.61,254.56 72.73,253.38 84.85,252.21 96.97,251.08 109.09,250.01 121.21,249.02 133.33,248.13 145.45,247.35 157.58,246.71 169.7,246.21 181.82,245.88 193.94,245.7 206.06,245.7 218.18,245.86 230.3,246.18 242.42,246.66 254.55,247.29 266.67,248.06 278.79,248.94 290.91,249.92 303.03,250.99 315.15,252.12 327.27,253.28 339.39,254.46 351.52,255.62 363.64,256.75 375.76,257.83 387.88,258.82 400,259.72" fill="none" stroke="#5b8cff" stroke-width="1.77" opacity="0.33"/>
</svg>
