<svg xmlns="http://www.w3.org/2000/svg" viewBox="0 0 400 300" width="400" height="300" role="img" aria-label="physics decorative background">
  <defs>
    <radialGradient id="grad-physics-medium-10" cx="50%" cy="35%" r="80%">
      <stop offset="0%" stop-color="#5b8cff" stop-opacity="0.10"/>
      <stop offset="100%" stop-color="#0b1026" stop-opacity="0"/>
    </radialGradient>
  </defs>
  <rect width="400" height="300" fill="#0b1026"/>
  <rect width="400" height="300" fill="url(#grad-physics-medium-10)"/>
  <circle cx="144.41" cy="193.05" r="31.25" fill="none" stroke="#9b6bff" stroke-width="1" opacity="0.28"/>
  <circle cx="144.41" cy="193.05" r="62.5" fill="none" stroke="#9b6bff" stroke-width="1" opacity="0.25"/>
  <circle cx="144.41" cy="193.05" r="93.75" fill="none" stroke="#9b6bff" stroke-width="1" opacity="0.22"/>
  <circle cx="144.41" cy="193.05" r="125" fill="none" stroke="#9b6bff" stroke-width="1" opacity="0.19"/>
  <circle cx="144.41" cy="193.05" r="156.25" fill="none" stroke="#9b6bff" stroke-width="1" opacity="0.16"/>
  <circle cx="144.41" cy="193.05" r="187.5" fill="none" stroke="#9b6bff" stroke-width="1" opacity="0.13"/>
  <line x1="144.41" y1="193.05" x2="275.06" y2="227.06" stroke="#5b8cff" stroke-width="0.6" opacity="0.12"/>
  <line x1="144.41" y1="193.05" x2="248.91" y2="278.52" stroke="#5b8cff" stroke-width="0.6" opacity="0.12"/>
  <line x1="144.41" y1="193.05" x2="177.82" y2="323.85" stroke="#5b8cff" stroke-width="0.6" opacity="0.12"/>
  <line x1="144.41" y1="193.05" x2="69.52" y2="305.38" stroke="#5b8cff" stroke-width="0.6" opacity="0.12"/>
  <line x1="144.41" y1="193.05" x2="29.87" y2="264.5" stroke="#5b8cff" stroke-width="0.6" opacity="0.12"/>
  <line x1="144.41" y1="193.05" x2="13.66" y2="159.44" stroke="#5b8cff" stroke-width="0.6" opacity="0.12"/>
  <line x1="144.41" y1="193.05" x2="58.78" y2="88.68" stroke="#5b8cff" stroke-width="0.6" opacity="0.12"/>
  <line x1="144.41" y1="193.05" x2="122.49" y2="59.84" stroke="#5b8cff" stroke-width="0.6" opacity="0.12"/>
  <line x1="144.41" y1="193.05" x2="195.32" y2="68.02" stroke="#5b8cff" stroke-width="0.6" opacity="0.12"/>
  <line x1="144.41" y1="193.05" x2="262.26" y2="127.2" stroke="#5b8cff" stroke-width="0.6" opacity="0.12"/>
  <circle cx="225.59" cy="98.51" r="1.23" fill="#9b6bff" opacity="0.31"/>
  <circle cx="345.04" cy="199.45" r="3.52" fill="#39d0d8" opacity="0.55"/>
  <line x1="345.04" y1="199.45" x2="335.62" y2="193.91" stroke="#39d0d8" stroke-width="0.8" opacity="0.18"/>
  <circle cx="38.46" cy="33.22" r="2.56" fill="#5b8cff" opacity="0.21"/>
  <line x1="38.46" y1="33.22" x2="27.44" y2="37.94" stroke="#5b8cff" stroke-width="0.8" opacity="0.18"/>
  <circle cx="100.5" cy="175.58" r="1.1" fill="#39d0d8" opacity="0.46"/>
  <circle cx="165.27" cy="81.81" r="1.45" fill="#5b8cff" opacity="0.24"/>
  <circle cx="363.82" cy="20.27" r="1.51" fill="#39d0d8" opacity="0.38"/>
  <circle cx="174.81" cy="191.44" r="1.38" fill="#5b8cff" opacity="0.39"/>
  <circle cx="95.28" cy="63.76" r="3.02" fill="#9b6bff" opacity="0.24"/>
  <circle cx="254.27" cy="162.23" r="1.9" fill="#9b6bff" opacity="0.44"/>
  <circle cx="397.88" cy="293.3" r="2.06" fill="#39d0d8" opacity="0.45"/>
  <circle cx="87.41" cy="33.79" r="1.46" fill="#39d0d8" opacity="0.31"/>
  <circle cx="45.28" cy="264.07" r="3.2" fill="#39d0d8" opacity="0.26"/>
  <line x1="45.28" y1="264.07" x2="32.87" y2="261.52" stroke="#39d0d8" stroke-width="0.8" opacity="0.18"/>
  <circle cx="98.37" cy="47.36" r="3.1" fill="#5b8cff" opacity="0.33"/>
  <circle cx="256.37" cy="3.71" r="1.69" fill="#5b8cff" opacity="0.24"/>
  <line x1="256.37" y1="3.71" x2="243.73" y2="3.45" stroke="#5b8cff" stroke-width="0.8" opacity="0.18"/>
  <circle cx="210.05" cy="23.38" r="2.96" fill="#9b6bff" opacity="0.32"/>
  <circle cx="354" cy="81.49" r="3.87" fill="#39d0d8" opacity="0.36"/>
  <circle cx="125.92" cy="92.33" r="2.85" fill="#9b6bff" opacity="0.36"/>
  <circle cx="277.3" cy="253.29" r="3.89" fill="#5b8cff" opacity="0.31"/>
  <circle cx="371.83" cy="265.9" r="3.93" fill="#9b6bff" opacity="0.22"/>
  <circle cx="339.81" cy="36.76" r="3.58" fill="#5b8cff" opacity="0.51"/>
</svg>
