<svg xmlns="http://www.w3.org/2000/svg" viewBox="0 0 400 300" width="400" height="300" role="img" aria-label="physics decorative background">
  <defs>
    <radialGradient id="grad-physics-medium-06" cx="50%" cy="35%" r="80%">
      <stop offset="0%" stop-color="#5b8cff" stop-opacity="0.10"/>
      <stop offset="100%" stop-color="#0b1026" stop-opacity="0"/>
    </radialGradient>
  </defs>
  <rect width="400" height="300" fill="#0b1026"/>
  <rect width="400" height="300" fill="url(#grad-physics-medium-06)"/>
  <polyline points="0,64.55 12.12,63.15 24.24,61.06 36.36,58.39 48.48,55.26 60.61,51.8 72.73,48.18 84.85,44.54 96.97,41.06 109.09,37.88 121.21,35.16 133.33,33.01 145.45,31.53 157.58,30.78 169.7,30.8 181.82,31.59 193.94,33.11 206.06,35.3 218.18,38.05 230.3,41.24 242.42,44.74 254.55,48.38 266.67,52 278.79,55.45 290.91,58.56 303.03,61.2 315.15,63.24 327.27,64.61 339.39,65.23 351.52,65.09 363.64,64.18 375.76,62.55 387.88,60.26 400,57.43" fill="none" stroke="#39d0d8" stroke-width="1" opacity="0.29"/>
  <polyline points="0,105.2 12.12,105.34 24.24,104.93 36.36,104 48.48,102.65 60.61,100.98 72.73,99.15 84.85,97.31 96.97,95.62 109.09,94.24 121.21,93.28 133.33,92.83 145.45,92.93 157.58,93.56 169.7,94.68 181.82,96.19 193.94,97.94 206.06,99.8 218.18,101.59 230.3,103.17 242.42,104.38 254.55,105.13 266.67,105.36 278.79,105.03 290.91,104.18 303.03,102.88 315.15,101.25 327.27,99.43 339.39,97.58 351.52,95.86 363.64,94.43 375.76,93.4 387.88,92.87 400,92.88" fill="none" stroke="#39d0d8" stroke-width="1.03" opacity="0.34"/>
  <polyline points="0,154.2 12.12,157.91 24.24,160.96 36.36,163.15 48.48,164.33 60.61,164.44 72.73,163.46 84.85,161.46 96.97,158.56 109.09,154.96 121.21,150.9 133.33,146.64 145.45,142.47 157.58,138.66 169.7,135.46 181.82,133.08 193.94,131.67 206.06,131.34 218.18,132.1 230.3,133.91 242.42,136.63 254.55,140.1 266.67,144.09 278.79,148.33 290.91,152.54 303.03,156.45 315.15,159.8 327.27,162.36 339.39,163.97 351.52,164.53 363.64,163.99 375.76,162.4 387.88,159.85 400,156.51" fill="none" stroke="#39d0d8" stroke-width="1.21" opacity="0.15"/>
  <polyline points="0,189.42 12.12,188.97 24.24,189.41 36.36,190.73 48.48,192.84 60.61,195.58 72.73,198.78 84.85,202.21 96.97,205.65 109.09,208.85 121.21,211.61 133.33,213.72 145.45,215.06 157.58,215.53 169.7,215.09 181.82,213.78 193.94,211.69 206.06,208.95 218.18,205.76 230.3,202.32 242.42,198.89 254.55,195.68 266.67,192.92 278.79,190.79 290.91,189.44 303.03,188.97 315.15,189.39 327.27,190.69 339.39,192.78 351.52,195.51 363.64,198.7 375.76,202.13 387.88,205.56 400,208.78" fill="none" stroke="#39d0d8" stroke-width="1.68" opacity="0.39"/>
  <polyline points="0,251.37 12.12,251.87 24.24,252.46 36.36,253.12 48.48,253.84 60.61,254.61 72.73,255.41 84.85,256.23 96.97,257.06 109.09,257.87 121.21,258.66 133.33,259.4 145.45,260.1 157.58,260.72 169.7,261.27 181.82,261.73 193.94,262.1 206.06,262.36 218.18,262.52 230.3,262.56 242.42,262.5 254.55,262.32 266.67,262.04 278.79,261.65 290.91,261.17 303.03,260.61 315.15,259.97 327.27,259.27 339.39,258.51 351.52,257.72 363.64,256.9 375.76,256.08 387.88,255.26 400,254.46" fill="none" stroke="#39d0d8" stroke-width="1.65" opacity="0.18"/>
</svg>
