<svg xmlns="http://www.w3.org/2000/svg" viewBox="0 0 960 540" width="960" height="540" role="img" aria-label="chemistry decorative background">
  <defs>
    <radialGradient id="grad-chemistry-large-07" cx="50%" cy="35%" r="80%">
      <stop offset="0%" stop-color="#2dd4a7" stop-opacity="0.10"/>
      <stop offset="100%" stop-color="#08160f" stop-opacity="0"/>
    </radialGradient>
  </defs>
  <rect width="960" height="540" fill="#08160f"/>
  <rect width="960" height="540" fill="url(#grad-chemistry-large-07)"/>
  <circle cx="174.49" cy="108.54" r="38.97" fill="none" stroke="#2dd4a7" stroke-width="1" opacity="0.22"/>
  <circle cx="162.8" cy="96.85" r="7.02" fill="#7be0c4" opacity="0.4"/>
  <circle cx="70.21" cy="166.46" r="8.17" fill="none" stroke="#2dd4a7" stroke-width="1" opacity="0.22"/>
  <circle cx="67.76" cy="164.01" r="1.47" fill="#7be0c4" opacity="0.4"/>
  <circle cx="168.24" cy="194.67" r="33.19" fill="none" stroke="#2dd4a7" stroke-width="1" opacity="0.22"/>
  <circle cx="158.28" cy="184.72" r="5.98" fill="#7be0c4" opacity="0.4"/>
  <circle cx="497.15" cy="67.8" r="32.73" fill="none" stroke="#2dd4a7" stroke-width="1" opacity="0.22"/>
  <circle cx="487.33" cy="57.98" r="5.89" fill="#7be0c4" opacity="0.4"/>
  <circle cx="599.26" cy="191.28" r="25.93" fill="none" stroke="#2dd4a7" stroke-width="1" opacity="0.22"/>
  <circle cx="591.48" cy="183.5" r="4.67" fill="#7be0c4" opacity="0.4"/>
  <circle cx="737.87" cy="355.73" r="29.21" fill="none" stroke="#2dd4a7" stroke-width="1" opacity="0.22"/>
  <circle cx="729.11" cy="346.97" r="5.26" fill="#7be0c4" opacity="0.4"/>
  <circle cx="758.79" cy="100.01" r="38.16" fill="none" stroke="#2dd4a7" stroke-width="1" opacity="0.22"/>
  <circle cx="747.34" cy="88.56" r="6.87" fill="#7be0c4" opacity="0.4"/>
  <circle cx="881.75" cy="347.14" r="23.31" fill="none" stroke="#2dd4a7" stroke-width="1" opacity="0.22"/>
  <circle cx="874.76" cy="340.14" r="4.2" fill="#7be0c4" opacity="0.4"/>
  <circle cx="854.33" cy="1.94" r="35" fill="none" stroke="#2dd4a7" stroke-width="1" opacity="0.22"/>
  <circle cx="843.83" cy="-8.56" r="6.3" fill="#7be0c4" opacity="0.4"/>
  <circle cx="326.93" cy="50.62" r="13.16" fill="none" stroke="#2dd4a7" stroke-width="1" opacity="0.22"/>
  <circle cx="322.99" cy="46.67" r="2.37" fill="#7be0c4" opacity="0.4"/>
  <circle cx="603.32" cy="49.4" r="31.52" fill="none" stroke="#2dd4a7" stroke-width="1" opacity="0.22"/>
  <circle cx="593.86" cy="39.94" r="5.67" fill="#7be0c4" opacity="0.4"/>
  <circle cx="204.74" cy="463.78" r="9.48" fill="none" stroke="#2dd4a7" stroke-width="1" opacity="0.22"/>
  <circle cx="201.89" cy="460.93" r="1.71" fill="#7be0c4" opacity="0.4"/>
  <circle cx="958.96" cy="525.1" r="34.67" fill="none" stroke="#2dd4a7" stroke-width="1" opacity="0.22"/>
  <circle cx="948.56" cy="514.7" r="6.24" fill="#7be0c4" opacity="0.4"/>
  <circle cx="382.25" cy="365.23" r="24.18" fill="none" stroke="#2dd4a7" stroke-width="1" opacity="0.22"/>
  <circle cx="375" cy="357.98" r="4.35" fill="#7be0c4" opacity="0.4"/>
  <circle cx="309.25" cy="109.39" r="11.63" fill="none" stroke="#2dd4a7" stroke-width="1" opacity="0.22"/>
  <circle cx="305.76" cy="105.9" r="2.09" fill="#7be0c4" opacity="0.4"/>
  <circle cx="411.88" cy="364.58" r="44.27" fill="none" stroke="#2dd4a7" stroke-width="1" opacity="0.22"/>
  <circle cx="398.6" cy="351.3" r="7.97" fill="#7be0c4" opacity="0.4"/>
  <circle cx="78.77" cy="176.69" r="17.11" fill="none" stroke="#2dd4a7" stroke-width="1" opacity="0.22"/>
  <circle cx="73.63" cy="171.56" r="3.08" fill="#7be0c4" opacity="0.4"/>
  <circle cx="953.78" cy="450.11" r="32.4" fill="none" stroke="#2dd4a7" stroke-width="1" opacity="0.22"/>
  <circle cx="944.06" cy="440.39" r="5.83" fill="#7be0c4" opacity="0.4"/>
  <circle cx="283.81" cy="235.67" r="12.75" fill="none" stroke="#2dd4a7" stroke-width="1" opacity="0.22"/>
  <circle cx="279.98" cy="231.85" r="2.29" fill="#7be0c4" opacity="0.4"/>
  <circle cx="836.89" cy="536.94" r="16.85" fill="none" stroke="#2dd4a7" stroke-width="1" opacity="0.22"/>
  <circle cx="831.83" cy="531.88" r="3.03" fill="#7be0c4" opacity="0.4"/>
  <circle cx="504.69" cy="21.82" r="28.66" fill="none" stroke="#2dd4a7" stroke-width="1" opacity="0.22"/>
  <circle cx="496.09" cy="13.22" r="5.16" fill="#7be0c4" opacity="0.4"/>
  <circle cx="626.47" cy="90.6" r="26.14" fill="none" stroke="#2dd4a7" stroke-width="1" opacity="0.22"/>
  <circle cx="618.63" cy="82.75" r="4.71" fill="#7be0c4" opacity="0.4"/>
  <circle cx="245.28" cy="226.08" r="16.97" fill="none" stroke="#2dd4a7" stroke-width="1" opacity="0.22"/>
  <circle cx="240.18" cy="220.98" r="3.06" fill="#7be0c4" opacity="0.4"/>
  <circle cx="950.52" cy="56.37" r="10.1" fill="none" stroke="#2dd4a7" stroke-width="1" opacity="0.22"/>
  <circle cx="947.49" cy="53.34" r="1.82" fill="#7be0c4" opacity="0.4"/>
  <circle cx="727.84" cy="266.54" r="19.34" fill="none" stroke="#2dd4a7" stroke-width="1" opacity="0.22"/>
  <circle cx="722.04" cy="260.74" r="3.48" fill="#7be0c4" opacity="0.4"/>
</svg>
