<svg xmlns="http://www.w3.org/2000/svg" viewBox="0 0 960 540" width="960" height="540" role="img" aria-label="chemistry decorative background">
  <defs>
    <radialGradient id="grad-chemistry-large-08" cx="50%" cy="35%" r="80%">
      <stop offset="0%" stop-color="#2dd4a7" stop-opacity="0.10"/>
      <stop offset="100%" stop-color="#08160f" stop-opacity="0"/>
    </radialGradient>
  </defs>
  <rect width="960" height="540" fill="#08160f"/>
  <rect width="960" height="540" fill="url(#grad-chemistry-large-08)"/>
  <path d="M436.57,339.17 C436.78,352.92 433.7,373.93 422.99,381.51 C412.28,389.09 385.69,391.7 372.3,384.64 C358.91,377.59 341.48,352.28 342.66,339.17 C343.84,326.07 366.22,312.7 379.4,306 C392.58,299.31 412.2,293.49 421.73,299.02 C431.26,304.55 436.36,325.43 436.57,339.17 Z" fill="#f06aa6" opacity="0.12"/>
  <path d="M436.57,339.17 C436.78,352.92 433.7,373.93 422.99,381.51 C412.28,389.09 385.69,391.7 372.3,384.64 C358.91,377.59 341.48,352.28 342.66,339.17 C343.84,326.07 366.22,312.7 379.4,306 C392.58,299.31 412.2,293.49 421.73,299.02 C431.26,304.55 436.36,325.43 436.57,339.17 Z" fill="none" stroke="#2dd4a7" stroke-width="1" opacity="0.25"/>
  <path d="M293.42,186.56 C294.4,199.39 279.58,230.13 267.16,234.11 C254.74,238.08 227.4,222.65 218.89,210.41 C210.37,198.17 209.01,169.55 216.08,160.67 C223.14,151.79 248.38,152.82 261.27,157.14 C274.16,161.45 292.44,173.73 293.42,186.56 Z" fill="#f06aa6" opacity="0.12"/>
  <path d="M293.42,186.56 C294.4,199.39 279.58,230.13 267.16,234.11 C254.74,238.08 227.4,222.65 218.89,210.41 C210.37,198.17 209.01,169.55 216.08,160.67 C223.14,151.79 248.38,152.82 261.27,157.14 C274.16,161.45 292.44,173.73 293.42,186.56 Z" fill="none" stroke="#2dd4a7" stroke-width="1" opacity="0.25"/>
  <path d="M638.96,203.11 C638.03,217.72 610,229 596.01,244.15 C582.01,259.29 569.68,292.95 554.97,293.98 C540.25,295.01 521.66,265.48 507.74,250.34 C493.82,235.19 472.14,219.55 471.44,203.11 C470.75,186.67 489.62,164.26 503.54,151.69 C517.46,139.12 538.62,126.91 554.97,127.71 C571.31,128.5 587.62,143.89 601.62,156.46 C615.62,169.03 639.9,188.5 638.96,203.11 Z" fill="#f06aa6" opacity="0.12"/>
  <path d="M638.96,203.11 C638.03,217.72 610,229 596.01,244.15 C582.01,259.29 569.68,292.95 554.97,293.98 C540.25,295.01 521.66,265.48 507.74,250.34 C493.82,235.19 472.14,219.55 471.44,203.11 C470.75,186.67 489.62,164.26 503.54,151.69 C517.46,139.12 538.62,126.91 554.97,127.71 C571.31,128.5 587.62,143.89 601.62,156.46 C615.62,169.03 639.9,188.5 638.96,203.11 Z" fill="none" stroke="#2dd4a7" stroke-width="1" opacity="0.25"/>
</svg>
