<svg xmlns="http://www.w3.org/2000/svg" viewBox="0 0 160 160" width="160" height="160" role="img" aria-label="history decorative background">
  <defs>
    <radialGradient id="grad-history-small-04" cx="50%" cy="35%" r="80%">
      <stop offset="0%" stop-color="#caa15a" stop-opacity="0.10"/>
      <stop offset="100%" stop-color="#1b1305" stop-opacity="0"/>
    </radialGradient>
  </defs>
  <rect width="160" height="160" fill="#1b1305"/>
  <rect width="160" height="160" fill="url(#grad-history-small-04)"/>
  <line x1="8" y1="80" x2="152" y2="80" stroke="#caa15a" stroke-width="1.6" opacity="0.4"/>
  <circle cx="8" cy="80" r="4" fill="#b5651d" opacity="0.6"/>
  <line x1="8" y1="80" x2="8" y2="65.33" stroke="#e7cfa0" stroke-width="1" opacity="0.3"/>
  <circle cx="80" cy="80" r="4" fill="#b5651d" opacity="0.6"/>
  <line x1="80" y1="80" x2="80" y2="92.33" stroke="#e7cfa0" stroke-width="1" opacity="0.3"/>
  <circle cx="152" cy="80" r="4" fill="#b5651d" opacity="0.6"/>
  <line x1="152" y1="80" x2="152" y2="52.86" stroke="#e7cfa0" stroke-width="1" opacity="0.3"/>
  <line x1="139.26" y1="40.43" x2="136.31" y2="37.84" stroke="#e7cfa0" stroke-width="0.6" opacity="0.08"/>
  <line x1="1.16" y1="21.68" x2="3.58" y2="22.59" stroke="#e7cfa0" stroke-width="0.6" opacity="0.05"/>
  <line x1="27.35" y1="108.08" x2="27.93" y2="108.98" stroke="#e7cfa0" stroke-width="0.6" opacity="0.15"/>
  <line x1="82.52" y1="39.06" x2="83.55" y2="40.07" stroke="#e7cfa0" stroke-width="0.6" opacity="0.08"/>
  <line x1="61.67" y1="138.01" x2="64.12" y2="139.91" stroke="#e7cfa0" stroke-width="0.6" opacity="0.15"/>
  <line x1="147.98" y1="40.45" x2="151.34" y2="38.64" stroke="#e7cfa0" stroke-width="0.6" opacity="0.12"/>
  <line x1="40.44" y1="89.69" x2="39.52" y2="87.03" stroke="#e7cfa0" stroke-width="0.6" opacity="0.1"/>
  <line x1="38.82" y1="59.76" x2="39.58" y2="57.05" stroke="#e7cfa0" stroke-width="0.6" opacity="0.06"/>
  <line x1="142.99" y1="16.68" x2="144.45" y2="16.88" stroke="#e7cfa0" stroke-width="0.6" opacity="0.08"/>
  <line x1="73.38" y1="63.55" x2="74.55" y2="66.81" stroke="#e7cfa0" stroke-width="0.6" opacity="0.15"/>
  <line x1="115.3" y1="74.24" x2="112.48" y2="74.07" stroke="#e7cfa0" stroke-width="0.6" opacity="0.12"/>
  <line x1="144.01" y1="150.17" x2="146.16" y2="147.03" stroke="#e7cfa0" stroke-width="0.6" opacity="0.09"/>
  <line x1="106.01" y1="77.14" x2="104.92" y2="79.68" stroke="#e7cfa0" stroke-width="0.6" opacity="0.08"/>
  <line x1="114.7" y1="56.01" x2="114.36" y2="57.7" stroke="#e7cfa0" stroke-width="0.6" opacity="0.14"/>
  <line x1="6.77" y1="136.52" x2="10.32" y2="135.09" stroke="#e7cfa0" stroke-width="0.6" opacity="0.07"/>
  <line x1="159.87" y1="46.05" x2="161.72" y2="45.04" stroke="#e7cfa0" stroke-width="0.6" opacity="0.06"/>
  <line x1="29.46" y1="90.77" x2="29.27" y2="86.78" stroke="#e7cfa0" stroke-width="0.6" opacity="0.04"/>
  <line x1="23.23" y1="143.9" x2="23.32" y2="146.25" stroke="#e7cfa0" stroke-width="0.6" opacity="0.06"/>
  <line x1="73.16" y1="27.06" x2="72.49" y2="24.83" stroke="#e7cfa0" stroke-width="0.6" opacity="0.09"/>
  <line x1="50.09" y1="145.12" x2="48.5" y2="146.89" stroke="#e7cfa0" stroke-width="0.6" opacity="0.14"/>
  <line x1="85.23" y1="98.74" x2="88.54" y2="97.83" stroke="#e7cfa0" stroke-width="0.6" opacity="0.07"/>
  <line x1="67.19" y1="88.02" x2="65.72" y2="86.68" stroke="#e7cfa0" stroke-width="0.6" opacity="0.08"/>
  <line x1="33.18" y1="88.19" x2="30.94" y2="90.03" stroke="#e7cfa0" stroke-width="0.6" opacity="0.08"/>
  <line x1="1.43" y1="157.36" x2="2.92" y2="155.92" stroke="#e7cfa0" stroke-width="0.6" opacity="0.07"/>
  <line x1="128.3" y1="115.57" x2="130.83" y2="112.92" stroke="#e7cfa0" stroke-width="0.6" opacity="0.06"/>
  <line x1="111.74" y1="59.04" x2="112.3" y2="57.84" stroke="#e7cfa0" stroke-width="0.6" opacity="0.12"/>
  <line x1="146.94" y1="0.82" x2="145.99" y2="-2.28" stroke="#e7cfa0" stroke-width="0.6" opacity="0.14"/>
  <line x1="108.23" y1="18.04" x2="110.55" y2="18.82" stroke="#e7cfa0" stroke-width="0.6" opacity="0.15"/>
  <line x1="131.79" y1="19.79" x2="130.36" y2="19.02" stroke="#e7cfa0" stroke-width="0.6" opacity="0.14"/>
  <line x1="18.5" y1="86.52" x2="20.97" y2="84.18" stroke="#e7cfa0" stroke-width="0.6" opacity="0.11"/>
  <line x1="153.21" y1="124.55" x2="155.81" y2="121.67" stroke="#e7cfa0" stroke-width="0.6" opacity="0.15"/>
  <line x1="42.6" y1="55.93" x2="42.94" y2="57.34" stroke="#e7cfa0" stroke-width="0.6" opacity="0.12"/>
  <line x1="99.59" y1="94.12" x2="97.58" y2="97.18" stroke="#e7cfa0" stroke-width="0.6" opacity="0.12"/>
  <line x1="107.16" y1="74.35" x2="105.71" y2="74.99" stroke="#e7cfa0" stroke-width="0.6" opacity="0.06"/>
  <line x1="135.65" y1="153.53" x2="136.17" y2="152.63" stroke="#e7cfa0" stroke-width="0.6" opacity="0.06"/>
  <line x1="32.95" y1="9.09" x2="34.1" y2="9.61" stroke="#e7cfa0" stroke-width="0.6" opacity="0.08"/>
  <line x1="49.34" y1="157.64" x2="47.86" y2="158.48" stroke="#e7cfa0" stroke-width="0.6" opacity="0.1"/>
  <line x1="141.55" y1="75.12" x2="142.24" y2="77" stroke="#e7cfa0" stroke-width="0.6" opacity="0.05"/>
  <line x1="10.44" y1="90.59" x2="12.11" y2="93.25" stroke="#e7cfa0" stroke-width="0.6" opacity="0.12"/>
  <line x1="33.35" y1="40.85" x2="37.04" y2="41.65" stroke="#e7cfa0" stroke-width="0.6" opacity="0.12"/>
  <line x1="57.84" y1="72.52" x2="57.62" y2="71.46" stroke="#e7cfa0" stroke-width="0.6" opacity="0.15"/>
  <line x1="142.8" y1="75.83" x2="141.05" y2="78.99" stroke="#e7cfa0" stroke-width="0.6" opacity="0.07"/>
  <line x1="127.81" y1="102.22" x2="127.05" y2="98.32" stroke="#e7cfa0" stroke-width="0.6" opacity="0.11"/>
  <line x1="86.05" y1="68.5" x2="85.59" y2="69.89" stroke="#e7cfa0" stroke-width="0.6" opacity="0.07"/>
  <line x1="81.79" y1="127.8" x2="80.26" y2="126.71" stroke="#e7cfa0" stroke-width="0.6" opacity="0.09"/>
  <line x1="131.99" y1="27.6" x2="129.05" y2="27.78" stroke="#e7cfa0" stroke-width="0.6" opacity="0.12"/>
  <line x1="80" y1="16.73" x2="78.27" y2="15.05" stroke="#e7cfa0" stroke-width="0.6" opacity="0.12"/>
  <line x1="119.89" y1="157.04" x2="121.03" y2="156.8" stroke="#e7cfa0" stroke-width="0.6" opacity="0.09"/>
  <line x1="106.09" y1="2.67" x2="105.85" y2="4.11" stroke="#e7cfa0" stroke-width="0.6" opacity="0.14"/>
  <line x1="104.85" y1="91.7" x2="103.05" y2="93.22" stroke="#e7cfa0" stroke-width="0.6" opacity="0.06"/>
  <line x1="48.07" y1="68.28" x2="51.35" y2="68.41" stroke="#e7cfa0" stroke-width="0.6" opacity="0.1"/>
  <line x1="26.96" y1="130.67" x2="28.35" y2="128.17" stroke="#e7cfa0" stroke-width="0.6" opacity="0.09"/>
  <line x1="92.34" y1="11.78" x2="90.37" y2="9.7" stroke="#e7cfa0" stroke-width="0.6" opacity="0.13"/>
  <line x1="140.98" y1="154.5" x2="142.41" y2="157.56" stroke="#e7cfa0" stroke-width="0.6" opacity="0.09"/>
  <line x1="100.17" y1="49.15" x2="96.6" y2="47.87" stroke="#e7cfa0" stroke-width="0.6" opacity="0.05"/>
  <line x1="99.98" y1="114.37" x2="98.52" y2="112.26" stroke="#e7cfa0" stroke-width="0.6" opacity="0.09"/>
  <line x1="39.97" y1="55.12" x2="38.14" y2="56.03" stroke="#e7cfa0" stroke-width="0.6" opacity="0.05"/>
  <line x1="110.13" y1="103.91" x2="111.26" y2="104.53" stroke="#e7cfa0" stroke-width="0.6" opacity="0.06"/>
  <line x1="93.72" y1="152.76" x2="96.79" y2="151.05" stroke="#e7cfa0" stroke-width="0.6" opacity="0.15"/>
  <line x1="33.06" y1="78.2" x2="35.69" y2="77.84" stroke="#e7cfa0" stroke-width="0.6" opacity="0.13"/>
  <line x1="32.56" y1="54.88" x2="33.18" y2="58.01" stroke="#e7cfa0" stroke-width="0.6" opacity="0.15"/>
  <line x1="78" y1="159.61" x2="80.61" y2="157.72" stroke="#e7cfa0" stroke-width="0.6" opacity="0.14"/>
  <line x1="153.93" y1="110.07" x2="152.27" y2="111.09" stroke="#e7cfa0" stroke-width="0.6" opacity="0.08"/>
  <line x1="8.19" y1="16.69" x2="8.95" y2="15.39" stroke="#e7cfa0" stroke-width="0.6" opacity="0.12"/>
  <line x1="21.76" y1="101.88" x2="18.44" y2="103.47" stroke="#e7cfa0" stroke-width="0.6" opacity="0.13"/>
  <line x1="154" y1="109.76" x2="150.65" y2="109.74" stroke="#e7cfa0" stroke-width="0.6" opacity="0.04"/>
  <line x1="141.3" y1="141.66" x2="139.78" y2="140.23" stroke="#e7cfa0" stroke-width="0.6" opacity="0.14"/>
  <line x1="69.98" y1="35.96" x2="70.92" y2="35.31" stroke="#e7cfa0" stroke-width="0.6" opacity="0.09"/>
  <line x1="101.46" y1="14.02" x2="99.61" y2="15.31" stroke="#e7cfa0" stroke-width="0.6" opacity="0.07"/>
  <line x1="3.68" y1="26.6" x2="2.87" y2="28.3" stroke="#e7cfa0" stroke-width="0.6" opacity="0.05"/>
  <line x1="80.5" y1="88.13" x2="82.13" y2="85.02" stroke="#e7cfa0" stroke-width="0.6" opacity="0.13"/>
  <line x1="111.26" y1="140.93" x2="114.48" y2="140.41" stroke="#e7cfa0" stroke-width="0.6" opacity="0.07"/>
</svg>
