<svg xmlns="http://www.w3.org/2000/svg" viewBox="0 0 160 160" width="160" height="160" role="img" aria-label="history decorative background">
  <defs>
    <radialGradient id="grad-history-small-01" cx="50%" cy="35%" r="80%">
      <stop offset="0%" stop-color="#caa15a" stop-opacity="0.10"/>
      <stop offset="100%" stop-color="#1b1305" stop-opacity="0"/>
    </radialGradient>
  </defs>
  <rect width="160" height="160" fill="#1b1305"/>
  <rect width="160" height="160" fill="url(#grad-history-small-01)"/>
  <line x1="8" y1="80" x2="152" y2="80" stroke="#caa15a" stroke-width="1.6" opacity="0.4"/>
  <circle cx="8" cy="80" r="4" fill="#b5651d" opacity="0.6"/>
  <line x1="8" y1="80" x2="8" y2="55.14" stroke="#e7cfa0" stroke-width="1" opacity="0.3"/>
  <circle cx="80" cy="80" r="4" fill="#b5651d" opacity="0.6"/>
  <line x1="80" y1="80" x2="80" y2="100.46" stroke="#e7cfa0" stroke-width="1" opacity="0.3"/>
  <circle cx="152" cy="80" r="4" fill="#b5651d" opacity="0.6"/>
  <line x1="152" y1="80" x2="152" y2="56.3" stroke="#e7cfa0" stroke-width="1" opacity="0.3"/>
  <path d="M137.49,77.62 C137.62,83.03 132.21,88.69 128.36,93.13 C124.51,97.57 119.25,102.54 114.39,104.25 C109.52,105.96 104.42,103.56 99.17,103.39 C93.92,103.21 87.49,106.1 82.89,103.2 C78.29,100.29 72.95,91.63 71.59,85.96 C70.23,80.29 72.41,73.8 74.73,69.18 C77.05,64.56 81.59,62.34 85.5,58.25 C89.42,54.15 92.95,46.3 98.22,44.62 C103.48,42.94 112.21,45.51 117.1,48.18 C122,50.85 124.2,55.72 127.59,60.62 C130.99,65.53 137.36,72.2 137.49,77.62 Z" fill="none" stroke="#caa15a" stroke-width="0.9" opacity="0.3"/>
  <path d="M170.87,77.62 C170.26,90.36 151.96,106.02 142.53,117.09 C133.1,128.15 125.23,142.37 114.3,144.01 C103.36,145.65 89,134.06 76.92,126.93 C64.84,119.81 45.2,112.5 41.82,101.26 C38.45,90.03 51.91,72.16 56.66,59.52 C61.42,46.87 60.68,31.42 70.35,25.39 C80.03,19.37 102.09,20.82 114.73,23.36 C127.37,25.91 136.83,31.59 146.18,40.64 C155.54,49.68 171.48,64.87 170.87,77.62 Z" fill="none" stroke="#caa15a" stroke-width="0.9" opacity="0.27"/>
  <path d="M192.14,77.62 C192.83,101.58 180.44,142.49 161.72,158.4 C143,174.32 104.63,179.23 79.8,173.13 C54.98,167.02 19.93,143.83 12.77,121.78 C5.61,99.72 25.1,61.94 36.85,40.81 C48.59,19.69 63.1,-0.6 83.22,-4.97 C103.34,-9.33 139.41,0.85 157.57,14.61 C175.72,28.38 191.45,53.65 192.14,77.62 Z" fill="none" stroke="#caa15a" stroke-width="0.9" opacity="0.24"/>
</svg>
