<svg xmlns="http://www.w3.org/2000/svg" viewBox="0 0 160 160" width="160" height="160" role="img" aria-label="history decorative background">
  <defs>
    <radialGradient id="grad-history-small-08" cx="50%" cy="35%" r="80%">
      <stop offset="0%" stop-color="#caa15a" stop-opacity="0.10"/>
      <stop offset="100%" stop-color="#1b1305" stop-opacity="0"/>
    </radialGradient>
  </defs>
  <rect width="160" height="160" fill="#1b1305"/>
  <rect width="160" height="160" fill="url(#grad-history-small-08)"/>
  <path d="M125.37,76.97 C124.66,83.59 120.54,92.1 116.27,96.19 C112,100.29 105.88,101.21 99.73,101.56 C93.59,101.9 84.64,100.84 79.38,98.24 C74.13,95.64 71.02,91.18 68.21,85.96 C65.41,80.74 60.47,72.43 62.56,66.92 C64.65,61.42 74.57,56.21 80.74,52.94 C86.9,49.66 92.91,46.68 99.54,47.28 C106.17,47.88 116.22,51.56 120.52,56.51 C124.83,61.46 126.08,70.36 125.37,76.97 Z" fill="none" stroke="#caa15a" stroke-width="0.9" opacity="0.3"/>
  <path d="M154.14,76.97 C154.03,93.02 147.25,119.11 135.15,129.11 C123.05,139.11 96.45,142.15 81.56,136.97 C66.67,131.8 53.14,112.03 45.81,98.07 C38.48,84.11 31.79,66.81 37.59,53.2 C43.39,39.59 64.24,19.82 80.62,16.43 C96.99,13.04 123.57,22.76 135.83,32.85 C148.08,42.94 154.25,60.93 154.14,76.97 Z" fill="none" stroke="#caa15a" stroke-width="0.9" opacity="0.27"/>
  <path d="M196.77,76.97 C195.21,94.4 166.99,107.23 154.75,122.02 C142.51,136.8 137.79,156.87 123.33,165.7 C108.86,174.54 84.4,180.76 67.99,175.05 C51.58,169.33 37.85,147.74 24.86,131.39 C11.88,115.05 -9.32,94.65 -9.92,76.97 C-10.51,59.3 8.46,41.31 21.3,25.34 C34.13,9.37 50.9,-13.5 67.1,-18.86 C83.29,-24.23 102.29,-12.9 118.46,-6.84 C134.63,-0.79 151.07,3.48 164.12,17.45 C177.17,31.42 198.33,59.55 196.77,76.97 Z" fill="none" stroke="#caa15a" stroke-width="0.9" opacity="0.24"/>
</svg>
