<svg xmlns="http://www.w3.org/2000/svg" viewBox="0 0 160 160" width="160" height="160" role="img" aria-label="history decorative background">
  <defs>
    <radialGradient id="grad-history-small-10" cx="50%" cy="35%" r="80%">
      <stop offset="0%" stop-color="#caa15a" stop-opacity="0.10"/>
      <stop offset="100%" stop-color="#1b1305" stop-opacity="0"/>
    </radialGradient>
  </defs>
  <rect width="160" height="160" fill="#1b1305"/>
  <rect width="160" height="160" fill="url(#grad-history-small-10)"/>
  <line x1="8" y1="80" x2="152" y2="80" stroke="#caa15a" stroke-width="1.6" opacity="0.4"/>
  <circle cx="8" cy="80" r="4" fill="#b5651d" opacity="0.6"/>
  <line x1="8" y1="80" x2="8" y2="54.07" stroke="#e7cfa0" stroke-width="1" opacity="0.3"/>
  <circle cx="80" cy="80" r="4" fill="#b5651d" opacity="0.6"/>
  <line x1="80" y1="80" x2="80" y2="99.29" stroke="#e7cfa0" stroke-width="1" opacity="0.3"/>
  <circle cx="152" cy="80" r="4" fill="#b5651d" opacity="0.6"/>
  <line x1="152" y1="80" x2="152" y2="53.53" stroke="#e7cfa0" stroke-width="1" opacity="0.3"/>
  <path d="M107.22,78.47 C106.6,86.24 97.95,99.16 91.65,103.88 C85.34,108.61 76.7,108.58 69.39,106.81 C62.08,105.04 50.97,100.11 47.79,93.25 C44.61,86.39 46.79,73.46 50.31,65.63 C53.84,57.8 61.45,47.69 68.95,46.29 C76.45,44.89 88.95,51.87 95.33,57.24 C101.71,62.6 107.83,70.7 107.22,78.47 Z" fill="none" stroke="#caa15a" stroke-width="0.9" opacity="0.3"/>
  <path d="M140.02,78.47 C139.12,93.61 125.3,117.51 114.47,125.78 C103.63,134.05 89.59,128.84 75.01,128.09 C60.42,127.33 35.21,129.51 26.96,121.24 C18.71,112.97 25.18,92.09 25.49,78.47 C25.8,64.86 20.57,47.91 28.83,39.55 C37.08,31.19 59.83,29.1 75.01,28.33 C90.18,27.56 109.02,26.56 119.86,34.91 C130.69,43.27 140.92,63.33 140.02,78.47 Z" fill="none" stroke="#caa15a" stroke-width="0.9" opacity="0.27"/>
  <path d="M150.72,78.47 C148.81,91.85 154.76,106.81 148.85,118.95 C142.94,131.08 129.64,145.05 115.26,151.29 C100.89,157.53 79,158.56 62.61,156.38 C46.21,154.19 30.77,147.43 16.89,138.17 C3.02,128.9 -14.17,115.07 -20.64,100.8 C-27.11,86.52 -27.63,67.99 -21.94,52.52 C-16.25,37.05 -0.24,17.57 13.49,7.99 C27.22,-1.58 43.59,-5.56 60.43,-4.94 C77.27,-4.32 97.89,4.43 114.53,11.69 C131.18,18.96 154.28,27.51 160.31,38.64 C166.34,49.77 152.63,65.09 150.72,78.47 Z" fill="none" stroke="#caa15a" stroke-width="0.9" opacity="0.24"/>
</svg>
