<svg xmlns="http://www.w3.org/2000/svg" viewBox="0 0 160 160" width="160" height="160" role="img" aria-label="history decorative background">
  <defs>
    <radialGradient id="grad-history-small-03" cx="50%" cy="35%" r="80%">
      <stop offset="0%" stop-color="#caa15a" stop-opacity="0.10"/>
      <stop offset="100%" stop-color="#1b1305" stop-opacity="0"/>
    </radialGradient>
  </defs>
  <rect width="160" height="160" fill="#1b1305"/>
  <rect width="160" height="160" fill="url(#grad-history-small-03)"/>
  <line x1="24.66" y1="150.73" x2="25.71" y2="148.07" stroke="#e7cfa0" stroke-width="0.6" opacity="0.1"/>
  <line x1="69.99" y1="103.48" x2="70.87" y2="102.88" stroke="#e7cfa0" stroke-width="0.6" opacity="0.11"/>
  <line x1="93.42" y1="36.12" x2="95.56" y2="35.92" stroke="#e7cfa0" stroke-width="0.6" opacity="0.16"/>
  <line x1="120.52" y1="25.74" x2="121.04" y2="28.34" stroke="#e7cfa0" stroke-width="0.6" opacity="0.07"/>
  <line x1="10" y1="147.15" x2="9.23" y2="145.29" stroke="#e7cfa0" stroke-width="0.6" opacity="0.09"/>
  <line x1="15.32" y1="133.85" x2="16.87" y2="133.1" stroke="#e7cfa0" stroke-width="0.6" opacity="0.15"/>
  <line x1="27.32" y1="54.08" x2="25.07" y2="51.64" stroke="#e7cfa0" stroke-width="0.6" opacity="0.14"/>
  <line x1="41.1" y1="73.94" x2="38.05" y2="74.93" stroke="#e7cfa0" stroke-width="0.6" opacity="0.09"/>
  <line x1="148.38" y1="107.33" x2="147.04" y2="108.56" stroke="#e7cfa0" stroke-width="0.6" opacity="0.12"/>
  <line x1="111.83" y1="6.1" x2="110.32" y2="5.63" stroke="#e7cfa0" stroke-width="0.6" opacity="0.13"/>
  <line x1="78.77" y1="116.08" x2="75.8" y2="116.93" stroke="#e7cfa0" stroke-width="0.6" opacity="0.1"/>
  <line x1="82.63" y1="79.11" x2="80.48" y2="75.96" stroke="#e7cfa0" stroke-width="0.6" opacity="0.11"/>
  <line x1="26.8" y1="31.27" x2="25.81" y2="29.05" stroke="#e7cfa0" stroke-width="0.6" opacity="0.06"/>
  <line x1="108.1" y1="52.76" x2="109.21" y2="53" stroke="#e7cfa0" stroke-width="0.6" opacity="0.14"/>
  <line x1="109.46" y1="156.69" x2="109.29" y2="152.93" stroke="#e7cfa0" stroke-width="0.6" opacity="0.09"/>
  <line x1="98.13" y1="25.58" x2="95.32" y2="28.15" stroke="#e7cfa0" stroke-width="0.6" opacity="0.09"/>
  <line x1="84.68" y1="86.66" x2="81.25" y2="85.73" stroke="#e7cfa0" stroke-width="0.6" opacity="0.05"/>
  <line x1="91.07" y1="77.17" x2="90.65" y2="74.48" stroke="#e7cfa0" stroke-width="0.6" opacity="0.16"/>
  <line x1="64.57" y1="29.45" x2="65.97" y2="26.18" stroke="#e7cfa0" stroke-width="0.6" opacity="0.06"/>
  <line x1="57.5" y1="127.07" x2="56.43" y2="125.48" stroke="#e7cfa0" stroke-width="0.6" opacity="0.13"/>
  <line x1="139.21" y1="32.55" x2="139.04" y2="34.08" stroke="#e7cfa0" stroke-width="0.6" opacity="0.07"/>
  <line x1="77.36" y1="15.94" x2="78.95" y2="14.13" stroke="#e7cfa0" stroke-width="0.6" opacity="0.15"/>
  <line x1="67.23" y1="89.37" x2="67.1" y2="87.01" stroke="#e7cfa0" stroke-width="0.6" opacity="0.15"/>
  <line x1="128.96" y1="140.06" x2="125.58" y2="141.19" stroke="#e7cfa0" stroke-width="0.6" opacity="0.1"/>
  <line x1="96.94" y1="106.3" x2="95.87" y2="108.63" stroke="#e7cfa0" stroke-width="0.6" opacity="0.08"/>
  <line x1="60.42" y1="46.43" x2="59.57" y2="47.17" stroke="#e7cfa0" stroke-width="0.6" opacity="0.07"/>
  <line x1="20.55" y1="94.96" x2="21.82" y2="95.48" stroke="#e7cfa0" stroke-width="0.6" opacity="0.15"/>
  <line x1="92.49" y1="153.59" x2="90.51" y2="152.05" stroke="#e7cfa0" stroke-width="0.6" opacity="0.11"/>
  <line x1="144.48" y1="16.38" x2="143.64" y2="17.82" stroke="#e7cfa0" stroke-width="0.6" opacity="0.15"/>
  <line x1="75.93" y1="51.98" x2="76.16" y2="53.64" stroke="#e7cfa0" stroke-width="0.6" opacity="0.11"/>
  <line x1="109.9" y1="132.33" x2="109.59" y2="134.44" stroke="#e7cfa0" stroke-width="0.6" opacity="0.14"/>
  <line x1="67.82" y1="148.02" x2="65.06" y2="149.21" stroke="#e7cfa0" stroke-width="0.6" opacity="0.13"/>
  <line x1="150.42" y1="83.33" x2="149.86" y2="87.23" stroke="#e7cfa0" stroke-width="0.6" opacity="0.1"/>
  <line x1="47.92" y1="157.29" x2="49.11" y2="157.22" stroke="#e7cfa0" stroke-width="0.6" opacity="0.08"/>
  <line x1="117.77" y1="103.76" x2="119.5" y2="105.05" stroke="#e7cfa0" stroke-width="0.6" opacity="0.1"/>
  <line x1="99.42" y1="135.11" x2="97.7" y2="136.26" stroke="#e7cfa0" stroke-width="0.6" opacity="0.05"/>
  <line x1="131.29" y1="131.59" x2="132.55" y2="128.99" stroke="#e7cfa0" stroke-width="0.6" opacity="0.05"/>
  <line x1="18.33" y1="86.41" x2="22.21" y2="87.31" stroke="#e7cfa0" stroke-width="0.6" opacity="0.12"/>
  <line x1="143.84" y1="123.35" x2="145.44" y2="120.63" stroke="#e7cfa0" stroke-width="0.6" opacity="0.08"/>
  <line x1="21.06" y1="12.13" x2="19.64" y2="10" stroke="#e7cfa0" stroke-width="0.6" opacity="0.12"/>
  <line x1="153.84" y1="94.62" x2="150.98" y2="95.37" stroke="#e7cfa0" stroke-width="0.6" opacity="0.09"/>
  <line x1="122.17" y1="95.92" x2="120.62" y2="98.48" stroke="#e7cfa0" stroke-width="0.6" opacity="0.09"/>
  <line x1="82.68" y1="42.18" x2="83.56" y2="45.61" stroke="#e7cfa0" stroke-width="0.6" opacity="0.14"/>
  <line x1="102.34" y1="62.18" x2="102.08" y2="64.47" stroke="#e7cfa0" stroke-width="0.6" opacity="0.11"/>
  <line x1="6.29" y1="95.71" x2="7.36" y2="93.11" stroke="#e7cfa0" stroke-width="0.6" opacity="0.07"/>
  <line x1="31.1" y1="35.78" x2="30.46" y2="34.73" stroke="#e7cfa0" stroke-width="0.6" opacity="0.04"/>
  <line x1="51.61" y1="45.54" x2="50.5" y2="44.07" stroke="#e7cfa0" stroke-width="0.6" opacity="0.15"/>
  <line x1="139.87" y1="33.67" x2="138.49" y2="33.52" stroke="#e7cfa0" stroke-width="0.6" opacity="0.05"/>
  <line x1="130.93" y1="47.2" x2="132.23" y2="50.56" stroke="#e7cfa0" stroke-width="0.6" opacity="0.04"/>
  <line x1="27.69" y1="10.28" x2="29.33" y2="9.66" stroke="#e7cfa0" stroke-width="0.6" opacity="0.09"/>
  <line x1="1.22" y1="144.59" x2="2.06" y2="142.77" stroke="#e7cfa0" stroke-width="0.6" opacity="0.05"/>
  <line x1="135.33" y1="50.96" x2="134.08" y2="50.65" stroke="#e7cfa0" stroke-width="0.6" opacity="0.11"/>
  <line x1="70.67" y1="130.32" x2="68.2" y2="130.92" stroke="#e7cfa0" stroke-width="0.6" opacity="0.05"/>
  <line x1="153.07" y1="71.74" x2="155.18" y2="68.94" stroke="#e7cfa0" stroke-width="0.6" opacity="0.09"/>
  <line x1="141.03" y1="105.2" x2="143.22" y2="101.99" stroke="#e7cfa0" stroke-width="0.6" opacity="0.11"/>
  <line x1="143.19" y1="89.08" x2="145.65" y2="91.52" stroke="#e7cfa0" stroke-width="0.6" opacity="0.09"/>
  <line x1="1.98" y1="38.51" x2="0.94" y2="37.51" stroke="#e7cfa0" stroke-width="0.6" opacity="0.08"/>
  <line x1="150.23" y1="99.23" x2="151.8" y2="99.17" stroke="#e7cfa0" stroke-width="0.6" opacity="0.1"/>
  <line x1="12.83" y1="116.18" x2="11.74" y2="115.26" stroke="#e7cfa0" stroke-width="0.6" opacity="0.15"/>
  <line x1="110.35" y1="64.8" x2="107.37" y2="62.62" stroke="#e7cfa0" stroke-width="0.6" opacity="0.08"/>
  <line x1="86.72" y1="26.33" x2="86.42" y2="22.44" stroke="#e7cfa0" stroke-width="0.6" opacity="0.13"/>
  <line x1="85.71" y1="95.09" x2="86.84" y2="98.85" stroke="#e7cfa0" stroke-width="0.6" opacity="0.16"/>
  <line x1="4.19" y1="139.63" x2="7.18" y2="139.31" stroke="#e7cfa0" stroke-width="0.6" opacity="0.1"/>
  <line x1="90.44" y1="76.55" x2="93.69" y2="76.09" stroke="#e7cfa0" stroke-width="0.6" opacity="0.1"/>
  <line x1="95.42" y1="126.77" x2="97.16" y2="128.72" stroke="#e7cfa0" stroke-width="0.6" opacity="0.04"/>
  <line x1="132.04" y1="51.52" x2="133.13" y2="50.12" stroke="#e7cfa0" stroke-width="0.6" opacity="0.14"/>
  <line x1="14.55" y1="85.78" x2="16.74" y2="84.8" stroke="#e7cfa0" stroke-width="0.6" opacity="0.12"/>
  <line x1="135.03" y1="45.84" x2="136.02" y2="44.41" stroke="#e7cfa0" stroke-width="0.6" opacity="0.11"/>
  <line x1="34.4" y1="19.3" x2="38.01" y2="18.42" stroke="#e7cfa0" stroke-width="0.6" opacity="0.13"/>
  <line x1="113.43" y1="19.84" x2="114.18" y2="22.6" stroke="#e7cfa0" stroke-width="0.6" opacity="0.07"/>
  <line x1="106.57" y1="114.9" x2="108.33" y2="112.29" stroke="#e7cfa0" stroke-width="0.6" opacity="0.1"/>
  <line x1="4.41" y1="132.53" x2="3.69" y2="129.91" stroke="#e7cfa0" stroke-width="0.6" opacity="0.07"/>
  <path d="M137.92,108.5 C138.59,116.84 133.21,128.25 126.94,132.44 C120.67,136.63 107.64,135.81 100.3,133.65 C92.95,131.49 86.17,125.7 82.87,119.47 C79.58,113.24 77.49,102.12 80.54,96.28 C83.58,90.43 94.08,86.71 101.14,84.39 C108.21,82.08 116.79,78.37 122.92,82.38 C129.05,86.4 137.25,100.15 137.92,108.5 Z" fill="none" stroke="#caa15a" stroke-width="0.9" opacity="0.3"/>
  <path d="M171.12,108.5 C171.26,122.03 169.76,140.98 161.1,149.57 C152.45,158.16 132.5,156.93 119.19,160.06 C105.88,163.19 92.15,173.92 81.23,168.35 C70.31,162.77 59.7,140.15 53.66,126.59 C47.62,113.03 40.31,99.19 44.98,86.97 C49.66,74.76 69.31,59.67 81.72,53.28 C94.12,46.9 106.34,46.14 119.43,48.66 C132.52,51.17 151.63,58.37 160.24,68.35 C168.86,78.32 170.97,94.96 171.12,108.5 Z" fill="none" stroke="#caa15a" stroke-width="0.9" opacity="0.27"/>
  <path d="M188.57,108.5 C184.54,123.62 176.67,137.19 169.39,148.25 C162.11,159.31 157,164.54 144.89,174.86 C132.78,185.18 111.02,208.66 96.72,210.19 C82.42,211.72 69.44,197.03 59.08,184.03 C48.72,171.03 38.61,148.37 34.56,132.18 C30.5,115.99 33.97,101.22 34.73,86.9 C35.5,72.58 29.06,55.61 39.14,46.28 C49.22,36.95 77.65,32.53 95.23,30.91 C112.81,29.28 128.22,32.09 144.6,36.52 C160.98,40.95 186.2,45.49 193.52,57.48 C200.85,69.48 192.59,93.37 188.57,108.5 Z" fill="none" stroke="#caa15a" stroke-width="0.9" opacity="0.24"/>
</svg>
