<svg xmlns="http://www.w3.org/2000/svg" viewBox="0 0 160 160" width="160" height="160" role="img" aria-label="history decorative background">
  <defs>
    <radialGradient id="grad-history-small-05" cx="50%" cy="35%" r="80%">
      <stop offset="0%" stop-color="#caa15a" stop-opacity="0.10"/>
      <stop offset="100%" stop-color="#1b1305" stop-opacity="0"/>
    </radialGradient>
  </defs>
  <rect width="160" height="160" fill="#1b1305"/>
  <rect width="160" height="160" fill="url(#grad-history-small-05)"/>
  <path d="M89.76,61.39 C89.36,66.89 85.15,70.65 82.2,75.66 C79.25,80.68 76.21,88.45 72.03,91.45 C67.86,94.45 61.8,95.18 57.14,93.66 C52.48,92.14 47.42,86.16 44.08,82.33 C40.73,78.5 39.73,75.8 37.05,70.69 C34.36,65.58 27.45,56.86 27.95,51.67 C28.44,46.48 35.25,42.77 40.02,39.55 C44.79,36.32 50.93,32.92 56.55,32.31 C62.17,31.7 69.09,34.17 73.75,35.89 C78.42,37.62 81.88,38.39 84.55,42.64 C87.21,46.88 90.15,55.88 89.76,61.39 Z" fill="none" stroke="#caa15a" stroke-width="0.9" opacity="0.3"/>
  <path d="M112.81,61.39 C112.88,75.04 111.83,91.12 100.65,100.36 C89.47,109.6 60.15,119.67 45.73,116.82 C31.3,113.96 21.88,96.9 14.09,83.21 C6.31,69.53 -6.68,49.56 -0.99,34.69 C4.71,19.81 31.42,-3.32 48.29,-6.03 C65.15,-8.73 89.43,7.22 100.19,18.45 C110.94,29.69 112.73,47.73 112.81,61.39 Z" fill="none" stroke="#caa15a" stroke-width="0.9" opacity="0.27"/>
  <path d="M165.68,61.39 C166.39,83.47 135.87,116.65 118.45,133.9 C101.02,151.15 79.47,166.37 61.14,164.9 C42.8,163.43 25.11,142.34 8.43,125.09 C-8.25,107.84 -37.25,81.82 -38.94,61.39 C-40.63,40.95 -18.37,18.76 -1.69,2.47 C14.98,-13.81 41.83,-36.13 61.14,-36.32 C80.44,-36.5 96.73,-14.91 114.15,1.38 C131.57,17.66 164.96,39.3 165.68,61.39 Z" fill="none" stroke="#caa15a" stroke-width="0.9" opacity="0.24"/>
  <line x1="8" y1="80" x2="152" y2="80" stroke="#caa15a" stroke-width="1.6" opacity="0.4"/>
  <circle cx="8" cy="80" r="4" fill="#b5651d" opacity="0.6"/>
  <line x1="8" y1="80" x2="8" y2="65.67" stroke="#e7cfa0" stroke-width="1" opacity="0.3"/>
  <circle cx="80" cy="80" r="4" fill="#b5651d" opacity="0.6"/>
  <line x1="80" y1="80" x2="80" y2="91.17" stroke="#e7cfa0" stroke-width="1" opacity="0.3"/>
  <circle cx="152" cy="80" r="4" fill="#b5651d" opacity="0.6"/>
  <line x1="152" y1="80" x2="152" y2="60.21" stroke="#e7cfa0" stroke-width="1" opacity="0.3"/>
</svg>
