<svg xmlns="http://www.w3.org/2000/svg" viewBox="0 0 160 160" width="160" height="160" role="img" aria-label="history decorative background">
  <defs>
    <radialGradient id="grad-history-small-02" cx="50%" cy="35%" r="80%">
      <stop offset="0%" stop-color="#caa15a" stop-opacity="0.10"/>
      <stop offset="100%" stop-color="#1b1305" stop-opacity="0"/>
    </radialGradient>
  </defs>
  <rect width="160" height="160" fill="#1b1305"/>
  <rect width="160" height="160" fill="url(#grad-history-small-02)"/>
  <path d="M135.28,50.77 C134.96,58.97 127.62,71.35 121.04,76.03 C114.47,80.71 103.75,81.25 95.84,78.85 C87.93,76.44 76.71,68.39 73.56,61.58 C70.42,54.77 73.07,45.28 76.97,37.98 C80.87,30.69 89.3,19.69 96.96,17.84 C104.63,15.98 116.58,21.38 122.96,26.86 C129.35,32.35 135.6,42.58 135.28,50.77 Z" fill="none" stroke="#caa15a" stroke-width="0.9" opacity="0.3"/>
  <path d="M163.8,50.77 C163.82,63.14 156.63,77.55 146.58,87.91 C136.53,98.28 116.45,110.91 103.51,112.96 C90.57,115 78.42,110.55 68.94,100.18 C59.46,89.82 47.81,66.99 46.61,50.77 C45.41,34.55 52.28,12.25 61.76,2.86 C71.24,-6.54 89.4,-7.41 103.51,-5.6 C117.62,-3.79 136.39,4.33 146.43,13.72 C156.48,23.12 163.78,38.41 163.8,50.77 Z" fill="none" stroke="#caa15a" stroke-width="0.9" opacity="0.27"/>
  <path d="M183.96,50.77 C183.73,68.11 194.88,86.28 186.11,101.17 C177.34,116.06 149.85,133.02 131.34,140.13 C112.82,147.24 90.53,150.29 75.03,143.82 C59.53,137.36 50.5,116.83 38.33,101.32 C26.16,85.81 3.54,67.43 2.01,50.77 C0.48,34.12 17.08,13.16 29.14,1.41 C41.21,-10.33 56.98,-11.96 74.4,-19.68 C91.83,-27.4 114.85,-47.72 133.7,-44.91 C152.54,-42.1 179.11,-18.76 187.49,-2.82 C195.86,13.13 184.19,33.44 183.96,50.77 Z" fill="none" stroke="#caa15a" stroke-width="0.9" opacity="0.24"/>
  <line x1="39.99" y1="44.7" x2="38.26" y2="42.5" stroke="#e7cfa0" stroke-width="0.6" opacity="0.07"/>
  <line x1="64.88" y1="56.51" x2="68.36" y2="58.34" stroke="#e7cfa0" stroke-width="0.6" opacity="0.09"/>
  <line x1="22.76" y1="30.28" x2="20.3" y2="27.85" stroke="#e7cfa0" stroke-width="0.6" opacity="0.11"/>
  <line x1="62.25" y1="27.73" x2="62.73" y2="24.75" stroke="#e7cfa0" stroke-width="0.6" opacity="0.13"/>
  <line x1="28.13" y1="134.04" x2="26.37" y2="133.69" stroke="#e7cfa0" stroke-width="0.6" opacity="0.15"/>
  <line x1="18.85" y1="83.77" x2="18.05" y2="81.7" stroke="#e7cfa0" stroke-width="0.6" opacity="0.05"/>
  <line x1="63.46" y1="112.3" x2="62.27" y2="114.72" stroke="#e7cfa0" stroke-width="0.6" opacity="0.08"/>
  <line x1="106.27" y1="67.25" x2="106.03" y2="68.46" stroke="#e7cfa0" stroke-width="0.6" opacity="0.09"/>
  <line x1="74.05" y1="44.16" x2="74.18" y2="40.45" stroke="#e7cfa0" stroke-width="0.6" opacity="0.07"/>
  <line x1="100.53" y1="155.56" x2="99.33" y2="154.71" stroke="#e7cfa0" stroke-width="0.6" opacity="0.06"/>
  <line x1="58.16" y1="127.98" x2="57.67" y2="128.89" stroke="#e7cfa0" stroke-width="0.6" opacity="0.07"/>
  <line x1="151.1" y1="118.48" x2="152.21" y2="119.59" stroke="#e7cfa0" stroke-width="0.6" opacity="0.1"/>
  <line x1="143.04" y1="115.93" x2="140.88" y2="115.61" stroke="#e7cfa0" stroke-width="0.6" opacity="0.09"/>
  <line x1="96.96" y1="94.92" x2="93.62" y2="92.74" stroke="#e7cfa0" stroke-width="0.6" opacity="0.09"/>
  <line x1="152" y1="64.69" x2="151.11" y2="65.8" stroke="#e7cfa0" stroke-width="0.6" opacity="0.08"/>
  <line x1="46.81" y1="123.37" x2="48.29" y2="119.72" stroke="#e7cfa0" stroke-width="0.6" opacity="0.16"/>
  <line x1="49.91" y1="150.11" x2="48.54" y2="147.13" stroke="#e7cfa0" stroke-width="0.6" opacity="0.1"/>
  <line x1="102.87" y1="47.29" x2="102.41" y2="46.3" stroke="#e7cfa0" stroke-width="0.6" opacity="0.08"/>
  <line x1="83.65" y1="109.52" x2="85.29" y2="106.94" stroke="#e7cfa0" stroke-width="0.6" opacity="0.04"/>
  <line x1="75.83" y1="84.05" x2="75.39" y2="86.65" stroke="#e7cfa0" stroke-width="0.6" opacity="0.07"/>
  <line x1="123.99" y1="86.92" x2="122.2" y2="86.95" stroke="#e7cfa0" stroke-width="0.6" opacity="0.04"/>
  <line x1="63.01" y1="25.2" x2="63.1" y2="26.96" stroke="#e7cfa0" stroke-width="0.6" opacity="0.09"/>
  <line x1="156.98" y1="155.25" x2="154.26" y2="154.93" stroke="#e7cfa0" stroke-width="0.6" opacity="0.13"/>
  <line x1="52.79" y1="55.94" x2="52.45" y2="59.16" stroke="#e7cfa0" stroke-width="0.6" opacity="0.06"/>
  <line x1="75.47" y1="103.92" x2="78.47" y2="103.98" stroke="#e7cfa0" stroke-width="0.6" opacity="0.15"/>
  <line x1="45.14" y1="72.92" x2="46.09" y2="76.24" stroke="#e7cfa0" stroke-width="0.6" opacity="0.1"/>
  <line x1="95.27" y1="20.78" x2="95.57" y2="16.86" stroke="#e7cfa0" stroke-width="0.6" opacity="0.13"/>
  <line x1="71.43" y1="32.28" x2="74" y2="32.95" stroke="#e7cfa0" stroke-width="0.6" opacity="0.12"/>
  <line x1="155.72" y1="54.77" x2="158.12" y2="55.46" stroke="#e7cfa0" stroke-width="0.6" opacity="0.09"/>
  <line x1="86.43" y1="83.88" x2="84.25" y2="86.22" stroke="#e7cfa0" stroke-width="0.6" opacity="0.14"/>
  <line x1="130.69" y1="8.69" x2="131.72" y2="7.68" stroke="#e7cfa0" stroke-width="0.6" opacity="0.09"/>
  <line x1="0.94" y1="132.47" x2="3.5" y2="133.47" stroke="#e7cfa0" stroke-width="0.6" opacity="0.12"/>
  <line x1="103.95" y1="131.12" x2="102.65" y2="131.91" stroke="#e7cfa0" stroke-width="0.6" opacity="0.07"/>
  <line x1="95.54" y1="103.26" x2="96.77" y2="104.96" stroke="#e7cfa0" stroke-width="0.6" opacity="0.1"/>
  <line x1="81.34" y1="22.23" x2="84.25" y2="20.43" stroke="#e7cfa0" stroke-width="0.6" opacity="0.1"/>
  <line x1="154.49" y1="106.96" x2="152.71" y2="104.99" stroke="#e7cfa0" stroke-width="0.6" opacity="0.15"/>
  <line x1="52.83" y1="30.38" x2="52.47" y2="28.81" stroke="#e7cfa0" stroke-width="0.6" opacity="0.04"/>
  <line x1="13.03" y1="68.13" x2="10.76" y2="70.82" stroke="#e7cfa0" stroke-width="0.6" opacity="0.16"/>
  <line x1="48.5" y1="144.45" x2="48.53" y2="141.09" stroke="#e7cfa0" stroke-width="0.6" opacity="0.04"/>
  <line x1="152.19" y1="90.93" x2="151.78" y2="87.64" stroke="#e7cfa0" stroke-width="0.6" opacity="0.12"/>
  <line x1="85.47" y1="31.75" x2="87.97" y2="28.7" stroke="#e7cfa0" stroke-width="0.6" opacity="0.05"/>
  <line x1="152.55" y1="57.84" x2="153.69" y2="56.25" stroke="#e7cfa0" stroke-width="0.6" opacity="0.05"/>
  <line x1="6.51" y1="21.73" x2="5.44" y2="21.89" stroke="#e7cfa0" stroke-width="0.6" opacity="0.08"/>
  <line x1="81.06" y1="99.4" x2="78.43" y2="101.64" stroke="#e7cfa0" stroke-width="0.6" opacity="0.07"/>
  <line x1="136.34" y1="63.02" x2="135.01" y2="66.18" stroke="#e7cfa0" stroke-width="0.6" opacity="0.08"/>
  <line x1="85.29" y1="87.06" x2="88.17" y2="88.02" stroke="#e7cfa0" stroke-width="0.6" opacity="0.06"/>
  <line x1="77.86" y1="34.5" x2="77.46" y2="36.36" stroke="#e7cfa0" stroke-width="0.6" opacity="0.13"/>
  <line x1="94.61" y1="116.33" x2="93.65" y2="116.68" stroke="#e7cfa0" stroke-width="0.6" opacity="0.1"/>
  <line x1="48.58" y1="80.66" x2="47.29" y2="80.65" stroke="#e7cfa0" stroke-width="0.6" opacity="0.07"/>
  <line x1="70.25" y1="113.92" x2="70.81" y2="112.7" stroke="#e7cfa0" stroke-width="0.6" opacity="0.05"/>
  <line x1="125.84" y1="77.33" x2="124.31" y2="77.49" stroke="#e7cfa0" stroke-width="0.6" opacity="0.08"/>
  <line x1="74.39" y1="109.98" x2="72.4" y2="109.53" stroke="#e7cfa0" stroke-width="0.6" opacity="0.11"/>
  <line x1="120.23" y1="5.7" x2="121.3" y2="5.79" stroke="#e7cfa0" stroke-width="0.6" opacity="0.12"/>
  <line x1="112.72" y1="15.84" x2="115.42" y2="17.22" stroke="#e7cfa0" stroke-width="0.6" opacity="0.08"/>
  <line x1="57.44" y1="131.19" x2="56.96" y2="132.47" stroke="#e7cfa0" stroke-width="0.6" opacity="0.1"/>
  <line x1="56.11" y1="147.31" x2="55" y2="146.92" stroke="#e7cfa0" stroke-width="0.6" opacity="0.11"/>
  <line x1="111.86" y1="57.85" x2="110.8" y2="58.01" stroke="#e7cfa0" stroke-width="0.6" opacity="0.13"/>
  <line x1="93.63" y1="125.55" x2="95.75" y2="128.07" stroke="#e7cfa0" stroke-width="0.6" opacity="0.08"/>
  <line x1="28.85" y1="130.12" x2="26.07" y2="128.4" stroke="#e7cfa0" stroke-width="0.6" opacity="0.05"/>
  <line x1="82.78" y1="19.7" x2="86.35" y2="20.6" stroke="#e7cfa0" stroke-width="0.6" opacity="0.04"/>
  <line x1="8.05" y1="130.46" x2="7.46" y2="133.88" stroke="#e7cfa0" stroke-width="0.6" opacity="0.06"/>
  <line x1="132.12" y1="79.7" x2="132.4" y2="78.55" stroke="#e7cfa0" stroke-width="0.6" opacity="0.1"/>
  <line x1="106.14" y1="25.03" x2="103.34" y2="24.35" stroke="#e7cfa0" stroke-width="0.6" opacity="0.09"/>
  <line x1="107.35" y1="72.64" x2="108.35" y2="75.72" stroke="#e7cfa0" stroke-width="0.6" opacity="0.09"/>
  <line x1="105.44" y1="88.73" x2="104.29" y2="88.89" stroke="#e7cfa0" stroke-width="0.6" opacity="0.06"/>
  <line x1="63.9" y1="12.67" x2="61.92" y2="14.11" stroke="#e7cfa0" stroke-width="0.6" opacity="0.13"/>
  <line x1="93.58" y1="27" x2="94.2" y2="28.04" stroke="#e7cfa0" stroke-width="0.6" opacity="0.12"/>
  <line x1="127.42" y1="11.77" x2="125.3" y2="11.83" stroke="#e7cfa0" stroke-width="0.6" opacity="0.05"/>
  <line x1="119.44" y1="33.69" x2="117.4" y2="32.22" stroke="#e7cfa0" stroke-width="0.6" opacity="0.07"/>
  <line x1="157.93" y1="8.03" x2="157.84" y2="6.72" stroke="#e7cfa0" stroke-width="0.6" opacity="0.13"/>
  <line x1="122.15" y1="92.54" x2="123.04" y2="93.03" stroke="#e7cfa0" stroke-width="0.6" opacity="0.05"/>
  <line x1="134.47" y1="17.85" x2="136.09" y2="18.02" stroke="#e7cfa0" stroke-width="0.6" opacity="0.16"/>
</svg>
