<svg xmlns="http://www.w3.org/2000/svg" viewBox="0 0 160 160" width="160" height="160" role="img" aria-label="history decorative background">
  <defs>
    <radialGradient id="grad-history-small-06" cx="50%" cy="35%" r="80%">
      <stop offset="0%" stop-color="#caa15a" stop-opacity="0.10"/>
      <stop offset="100%" stop-color="#1b1305" stop-opacity="0"/>
    </radialGradient>
  </defs>
  <rect width="160" height="160" fill="#1b1305"/>
  <rect width="160" height="160" fill="url(#grad-history-small-06)"/>
  <line x1="46.48" y1="132.81" x2="43.38" y2="135.15" stroke="#e7cfa0" stroke-width="0.6" opacity="0.09"/>
  <line x1="39.73" y1="38.46" x2="38.3" y2="36.81" stroke="#e7cfa0" stroke-width="0.6" opacity="0.07"/>
  <line x1="46.72" y1="140.85" x2="48.23" y2="140.82" stroke="#e7cfa0" stroke-width="0.6" opacity="0.13"/>
  <line x1="147.12" y1="149.7" x2="149.08" y2="149.29" stroke="#e7cfa0" stroke-width="0.6" opacity="0.15"/>
  <line x1="43.63" y1="106.5" x2="44.67" y2="107.97" stroke="#e7cfa0" stroke-width="0.6" opacity="0.06"/>
  <line x1="116.63" y1="25.69" x2="114.76" y2="26.75" stroke="#e7cfa0" stroke-width="0.6" opacity="0.06"/>
  <line x1="57.77" y1="154.49" x2="57.32" y2="155.47" stroke="#e7cfa0" stroke-width="0.6" opacity="0.08"/>
  <line x1="8.41" y1="147.03" x2="8.14" y2="145.51" stroke="#e7cfa0" stroke-width="0.6" opacity="0.07"/>
  <line x1="123.2" y1="76.12" x2="124.01" y2="75.11" stroke="#e7cfa0" stroke-width="0.6" opacity="0.12"/>
  <line x1="25.39" y1="120.46" x2="25" y2="117.68" stroke="#e7cfa0" stroke-width="0.6" opacity="0.12"/>
  <line x1="149.06" y1="99.71" x2="152.13" y2="101.8" stroke="#e7cfa0" stroke-width="0.6" opacity="0.08"/>
  <line x1="73.71" y1="119.5" x2="70.68" y2="120.09" stroke="#e7cfa0" stroke-width="0.6" opacity="0.12"/>
  <line x1="117.02" y1="115.81" x2="117.63" y2="112.79" stroke="#e7cfa0" stroke-width="0.6" opacity="0.09"/>
  <line x1="62.3" y1="108.92" x2="59.31" y2="108.55" stroke="#e7cfa0" stroke-width="0.6" opacity="0.08"/>
  <line x1="33.08" y1="28.32" x2="37.01" y2="28.64" stroke="#e7cfa0" stroke-width="0.6" opacity="0.05"/>
  <line x1="25.57" y1="12.16" x2="25.02" y2="11.12" stroke="#e7cfa0" stroke-width="0.6" opacity="0.15"/>
  <line x1="64.36" y1="18.6" x2="62.94" y2="16.53" stroke="#e7cfa0" stroke-width="0.6" opacity="0.12"/>
  <line x1="151.75" y1="86.34" x2="152.1" y2="84.71" stroke="#e7cfa0" stroke-width="0.6" opacity="0.04"/>
  <line x1="109.68" y1="67.87" x2="108.57" y2="70.71" stroke="#e7cfa0" stroke-width="0.6" opacity="0.06"/>
  <line x1="19.69" y1="151.79" x2="21.07" y2="148.89" stroke="#e7cfa0" stroke-width="0.6" opacity="0.1"/>
  <line x1="87.32" y1="131.62" x2="89.81" y2="132.28" stroke="#e7cfa0" stroke-width="0.6" opacity="0.12"/>
  <line x1="118.53" y1="151.19" x2="120.19" y2="148.74" stroke="#e7cfa0" stroke-width="0.6" opacity="0.06"/>
  <line x1="4.09" y1="150.29" x2="7.28" y2="148.59" stroke="#e7cfa0" stroke-width="0.6" opacity="0.14"/>
  <line x1="96.9" y1="117.88" x2="97.83" y2="117.03" stroke="#e7cfa0" stroke-width="0.6" opacity="0.13"/>
  <line x1="47.02" y1="61.48" x2="48.17" y2="61.98" stroke="#e7cfa0" stroke-width="0.6" opacity="0.16"/>
  <line x1="52.67" y1="103.78" x2="49.64" y2="104.74" stroke="#e7cfa0" stroke-width="0.6" opacity="0.12"/>
  <line x1="121.93" y1="2.1" x2="121.92" y2="-1.11" stroke="#e7cfa0" stroke-width="0.6" opacity="0.05"/>
  <line x1="19.06" y1="4.45" x2="22.16" y2="5.03" stroke="#e7cfa0" stroke-width="0.6" opacity="0.16"/>
  <line x1="63.1" y1="42.27" x2="60.99" y2="41.37" stroke="#e7cfa0" stroke-width="0.6" opacity="0.07"/>
  <line x1="159.52" y1="51.84" x2="161.32" y2="50.78" stroke="#e7cfa0" stroke-width="0.6" opacity="0.07"/>
  <line x1="123.7" y1="128.38" x2="123.53" y2="127.38" stroke="#e7cfa0" stroke-width="0.6" opacity="0.13"/>
  <line x1="141.42" y1="35.15" x2="144.12" y2="35.3" stroke="#e7cfa0" stroke-width="0.6" opacity="0.08"/>
  <line x1="138.87" y1="38.74" x2="142.49" y2="39.01" stroke="#e7cfa0" stroke-width="0.6" opacity="0.07"/>
  <line x1="7.43" y1="145.71" x2="8.1" y2="144.16" stroke="#e7cfa0" stroke-width="0.6" opacity="0.06"/>
  <line x1="101.42" y1="83.25" x2="100.62" y2="82.25" stroke="#e7cfa0" stroke-width="0.6" opacity="0.11"/>
  <line x1="133.78" y1="134.09" x2="135.2" y2="130.71" stroke="#e7cfa0" stroke-width="0.6" opacity="0.05"/>
  <line x1="54.95" y1="17.14" x2="55.03" y2="15.41" stroke="#e7cfa0" stroke-width="0.6" opacity="0.08"/>
  <line x1="5.64" y1="105.55" x2="9.27" y2="106.46" stroke="#e7cfa0" stroke-width="0.6" opacity="0.07"/>
  <line x1="39.68" y1="119.19" x2="41.78" y2="119.09" stroke="#e7cfa0" stroke-width="0.6" opacity="0.14"/>
  <line x1="83.16" y1="135.03" x2="80.57" y2="134.51" stroke="#e7cfa0" stroke-width="0.6" opacity="0.12"/>
  <line x1="93.49" y1="56.17" x2="90.08" y2="57.19" stroke="#e7cfa0" stroke-width="0.6" opacity="0.07"/>
  <line x1="144.78" y1="43.04" x2="146.31" y2="46.01" stroke="#e7cfa0" stroke-width="0.6" opacity="0.13"/>
  <line x1="63.81" y1="27.8" x2="65.3" y2="30.33" stroke="#e7cfa0" stroke-width="0.6" opacity="0.15"/>
  <line x1="70.34" y1="71.32" x2="67.93" y2="70.9" stroke="#e7cfa0" stroke-width="0.6" opacity="0.15"/>
  <line x1="155.79" y1="130.67" x2="155.22" y2="128.45" stroke="#e7cfa0" stroke-width="0.6" opacity="0.08"/>
  <line x1="32.52" y1="120.18" x2="29" y2="120.1" stroke="#e7cfa0" stroke-width="0.6" opacity="0.16"/>
  <line x1="17.52" y1="64.47" x2="18.78" y2="62.06" stroke="#e7cfa0" stroke-width="0.6" opacity="0.11"/>
  <line x1="112.75" y1="29.06" x2="112.16" y2="30.09" stroke="#e7cfa0" stroke-width="0.6" opacity="0.09"/>
  <line x1="155.67" y1="80.41" x2="154.46" y2="82.67" stroke="#e7cfa0" stroke-width="0.6" opacity="0.15"/>
  <line x1="136.96" y1="147.53" x2="137.95" y2="148.81" stroke="#e7cfa0" stroke-width="0.6" opacity="0.08"/>
  <line x1="152.62" y1="89.42" x2="151.15" y2="91.54" stroke="#e7cfa0" stroke-width="0.6" opacity="0.12"/>
  <line x1="6.36" y1="46.14" x2="8.99" y2="44.12" stroke="#e7cfa0" stroke-width="0.6" opacity="0.1"/>
  <line x1="131.13" y1="156.49" x2="130.23" y2="154.59" stroke="#e7cfa0" stroke-width="0.6" opacity="0.13"/>
  <line x1="30.06" y1="104.58" x2="33.56" y2="106.33" stroke="#e7cfa0" stroke-width="0.6" opacity="0.1"/>
  <line x1="113.22" y1="137.7" x2="111.75" y2="137.5" stroke="#e7cfa0" stroke-width="0.6" opacity="0.15"/>
  <line x1="78.91" y1="99.49" x2="81.05" y2="100.75" stroke="#e7cfa0" stroke-width="0.6" opacity="0.15"/>
  <line x1="156.76" y1="18.04" x2="158.65" y2="18.86" stroke="#e7cfa0" stroke-width="0.6" opacity="0.06"/>
  <line x1="23.83" y1="44.57" x2="26.25" y2="45.63" stroke="#e7cfa0" stroke-width="0.6" opacity="0.07"/>
  <line x1="157.02" y1="70.55" x2="160.35" y2="71.19" stroke="#e7cfa0" stroke-width="0.6" opacity="0.11"/>
  <line x1="67.1" y1="103.17" x2="65.64" y2="102.55" stroke="#e7cfa0" stroke-width="0.6" opacity="0.13"/>
  <line x1="19.45" y1="11.41" x2="20.99" y2="13.01" stroke="#e7cfa0" stroke-width="0.6" opacity="0.14"/>
  <line x1="151.57" y1="126.4" x2="152.89" y2="123" stroke="#e7cfa0" stroke-width="0.6" opacity="0.07"/>
  <line x1="116.1" y1="0.67" x2="115.42" y2="2.1" stroke="#e7cfa0" stroke-width="0.6" opacity="0.16"/>
  <line x1="90.11" y1="39.66" x2="86.31" y2="40.53" stroke="#e7cfa0" stroke-width="0.6" opacity="0.05"/>
  <line x1="99.93" y1="124.65" x2="99.33" y2="123.78" stroke="#e7cfa0" stroke-width="0.6" opacity="0.15"/>
  <line x1="86.89" y1="116.02" x2="86.67" y2="114.98" stroke="#e7cfa0" stroke-width="0.6" opacity="0.13"/>
  <line x1="119.7" y1="23.94" x2="121.64" y2="22.55" stroke="#e7cfa0" stroke-width="0.6" opacity="0.1"/>
  <line x1="52.08" y1="67.03" x2="49.58" y2="67.67" stroke="#e7cfa0" stroke-width="0.6" opacity="0.16"/>
  <line x1="142.48" y1="49.54" x2="140.93" y2="52.45" stroke="#e7cfa0" stroke-width="0.6" opacity="0.13"/>
  <line x1="112.77" y1="139.89" x2="114.17" y2="143.36" stroke="#e7cfa0" stroke-width="0.6" opacity="0.15"/>
  <line x1="101.64" y1="70" x2="101.96" y2="71.42" stroke="#e7cfa0" stroke-width="0.6" opacity="0.08"/>
  <line x1="86.02" y1="4.28" x2="87.81" y2="7.2" stroke="#e7cfa0" stroke-width="0.6" opacity="0.09"/>
</svg>
